<svg id="exFGjgrCDsa1" xmlns="http://www.w3.org/2000/svg" xmlns:xlink="http://www.w3.org/1999/xlink" viewBox="0 0 480.63 475.7" shape-rendering="geometricPrecision" text-rendering="geometricPrecision" project-id="e6e74e8bb6134910ada570012169d140" export-id="f8b5fe7592174a0e9722c68d8967bfd8" cached="false"><path d="M70.39,439.28c-93.85-48.57-93.85-127.31,0-175.88s246.01-48.57,339.86,0s93.85,127.31,0,175.88-246.01,48.57-339.86,0Z" fill="#f5f5f5"/><g><path d="M95.84,31.36l-9.18,5.3c.05-.41.08-.82.08-1.22v-2.66c0-4.73-3.32-6.65-7.42-4.28-1.66.96-3.19,2.48-4.42,4.25-.67-5.95-5.34-8.17-11.01-4.89-6.13,3.54-11.1,12.15-11.1,19.23v3.98c0,1.83.34,3.38.94,4.61l-7.62,4.4c-2.27,1.31-4.12,4.5-4.12,7.13s1.84,3.69,4.12,2.38L95.84,40.88c2.27-1.31,4.12-4.5,4.12-7.13s-1.84-3.69-4.12-2.38v-.01Z" fill="#ebebeb"/><path d="M140,51.24l-6.93,4c.03-.31.06-.62.06-.92v-2.01c0-3.57-2.51-5.02-5.6-3.23-1.25.72-2.4,1.87-3.34,3.21-.51-4.49-4.03-6.16-8.31-3.69-4.63,2.67-8.38,9.17-8.38,14.51v3c0,1.38.26,2.55.71,3.48l-5.75,3.32c-1.72.99-3.11,3.4-3.11,5.38s1.39,2.78,3.11,1.79l37.53-21.67c1.72-.99,3.11-3.4,3.11-5.38s-1.39-2.78-3.11-1.79h.01Z" fill="#ebebeb"/></g><g id="exFGjgrCDsa6" transform="translate(295.315523-21.552402)"><path d="M353.02,369.77c-19.25,11.11-19.25,29.13,0,40.24s50.46,11.11,69.7,0c19.25-11.11,19.25-29.13,0-40.24s-50.45-11.11-69.7,0Z" fill="#e0e0e0"/><g><g><g><path d="M406.19,388.59c-.38-19.29,7.18-36.73,13.66-45.3c6.48-8.58,17.35-16.96,24.91-14.6c7.04,2.2,6.53,11.37-1.77,17.67s-20.82,14.26-24.26,24.85l-8.38,19.49-4.17-2.1.01-.01Z" fill="#27debf"/><path d="M406.19,388.59c-.38-19.29,7.18-36.73,13.66-45.3c6.48-8.58,17.35-16.96,24.91-14.6c7.04,2.2,6.53,11.37-1.77,17.67s-20.82,14.26-24.26,24.85l-8.38,19.49-4.17-2.1.01-.01Z" opacity="0.15"/></g><path d="M408.49,386.74c.21-.02.38-.18.42-.39c1.8-10.68,5.38-23.02,11.46-32.72c6.54-10.44,16.05-16.86,21.53-19.06.24-.1.36-.37.26-.61s-.37-.36-.61-.26c-5.64,2.27-15.37,8.92-22.07,19.63-6.11,9.77-9.69,22.13-11.5,32.87-.04.26.13.5.39.54.04,0,.09,0,.13,0h-.01Z" fill="#fff"/></g><g><path d="M413.16,392.77c.94-3.66,5.21-9.78,12.26-14.93c7.79-5.69,17.77-8.49,19.97-12.82c2.64-5.2-1.81-9.92-9.94-8.69s-23.36,12.95-26.49,33.99l4.2,2.44v.01Z" fill="#27debf"/><path d="M411.48,389c.18-.02.34-.14.4-.32c6.25-19.09,20.49-26.11,27.15-27.16.26-.04.43-.28.39-.54s-.27-.43-.54-.39c-7.36,1.16-21.52,8.32-27.9,27.8-.08.25.05.51.3.6.07.02.13.03.2.02v-.01Z" fill="#fff"/></g></g><g><g><g><path d="M371.05,365.83c.05-1.53-.4-10-.88-17.8-.5-8.21-.49-15.73-.49-15.73l13.88,10.37c-3.02,18.44-3.31,22.51-3.36,25.52l-.34.28c.02.07.09.33.08.77c0,3.58-4.03,5.53-7.17,7.92-1.24.95-4.85,3.74-8.5,5.6-2.29,1.16-6.93,1.28-7.52-.19c4.42-2.77,9.7-6.28,12.74-9.64c1.45-1.6,1.46-3.97,1.56-7.11v.01Z" fill="#ffa8a7"/><g><path d="M351.34,387.12c-.2,0-.33,1.98.78,2.85c1.28,1,4.92,2.66,9.67,1.82s7.27-2.32,9.1-4.01s4.41-4.07,6.55-4.65c1.99-.54,4.12-1.55,4.74-2.2.61-.65.39-3.4.39-3.4l-31.22,9.6-.01-.01Z" fill="#263238"/><path d="M380.24,366.91c0,0,.52.07.67.7.18.75.45,2.96.82,4.19.52,1.71.98,5.25.79,6.68-.2,1.43-3.42,2.56-5.48,3.46-2.1.91-4.49,2.71-6.57,4.6-2.16,1.96-6.79,4.11-9.9,4.23-3.68.15-7.89-.85-8.92-2.51-1.28-2.06-.41-3.33,4.93-6.11c1.01-.53,4.54-2.85,5.74-3.69c3.25-2.27,6.43-5.36,7.79-9.16.16-.44.33-.94.73-1.18.31-.19.7-.18,1.06-.15.92.08,1.82.31,2.67.67.75.31,1.81.67,1.84,1.61c0,.33-.07.65-.16.96-.06.19-.1.45.08.56.16.1.37-.03.5-.17.55-.54.94-1.22,1.39-1.84.24-.33.51-.65.82-.92.28-.24.66-.38.91-.65.32-.35.3-.84.29-1.28Z" fill="#27debf"/><path d="M380.24,366.91c0,0,.52.07.67.7.18.75.45,2.96.82,4.19.52,1.71.98,5.25.79,6.68-.2,1.43-3.42,2.56-5.48,3.46-2.1.91-4.49,2.71-6.57,4.6-2.16,1.96-6.79,4.11-9.9,4.23-3.68.15-7.89-.85-8.92-2.51-1.28-2.06-.41-3.33,4.93-6.11c1.01-.53,4.54-2.85,5.74-3.69c3.25-2.27,6.43-5.36,7.79-9.16.16-.44.33-.94.73-1.18.31-.19.7-.18,1.06-.15.92.08,1.82.31,2.67.67.75.31,1.81.67,1.84,1.61c0,.33-.07.65-.16.96-.06.19-.1.45.08.56.16.1.37-.03.5-.17.55-.54.94-1.22,1.39-1.84.24-.33.51-.65.82-.92.28-.24.66-.38.91-.65.32-.35.3-.84.29-1.28Z" opacity="0.3"/><path d="M363.84,382.47c-3.33,1.52-1.85,2.08-.9,2.18.96.09,6.52-3.52,9.87-6.44c3.5-3.05,5.65-6.3,6.95-7.42.49-.42,1-.93,1.47-1.4-.12-.74-.23-1.42-.32-1.77-.15-.63-.67-.7-.67-.7c0,.44.02.94-.29,1.28-.25.27-.62.41-.91.65-.31.27-.58.59-.82.92-.45.62-.84,1.3-1.39,1.84-2.79,3.9-9.66,9.36-12.99,10.88v-.02Z" opacity="0.2"/><g><path d="M363.16,384.14c.08,0,.15-.03.21-.09.14-.12.15-.34.02-.48-1.01-1.13-3.85-2.55-6.34-2.16-.18.03-.31.2-.28.38s.18.3.38.28c2.32-.36,4.93,1.05,5.73,1.95.07.08.17.12.27.11l.01.01Z" fill="#ebebeb"/><path d="M366.04,382.17c.08,0,.15-.03.21-.09.14-.12.15-.34.02-.48-1.01-1.13-3.85-2.55-6.34-2.16-.18.03-.31.2-.28.38s.2.31.38.28c2.32-.36,4.93,1.05,5.73,1.94.07.08.17.12.27.11l.01.02Z" fill="#ebebeb"/><path d="M368.92,380.31c.08,0,.15-.03.21-.09.14-.12.15-.34.02-.48-1.01-1.13-3.85-2.55-6.34-2.16-.18.03-.31.2-.28.38s.19.31.38.28c2.32-.36,4.93,1.05,5.73,1.94.07.08.17.12.27.11l.01.02Z" fill="#ebebeb"/><path d="M371.57,378.21c.08,0,.15-.03.21-.09.14-.12.15-.34.03-.48-1.01-1.13-3.86-2.55-6.34-2.16-.18.03-.31.2-.28.38s.19.31.38.28c2.32-.36,4.93,1.05,5.73,1.94.07.08.17.12.27.11v.02Z" fill="#ebebeb"/><path d="M374.17,376.11c.07,0,.15-.03.21-.08.14-.12.15-.33.03-.47-1.4-1.6-4.43-2.56-6.91-2.17-.18.03-.31.2-.28.38s.19.3.38.28c2.24-.35,5.06.52,6.3,1.94.07.08.17.12.27.11v.01Z" fill="#ebebeb"/></g></g></g><g><path d="M399.05,345.76l15.18-.33c-.19,10.13-1.76,21.39-1.98,30.9-.04,1.79.1,13.91-.56,17.59-.99,5.54-7.56,4.81-7.92,1.5s.36-17.46.33-18.92c.03-6.1-2.86-16.38-4.4-27.32-.08-.54-.57-2.9-.64-3.42h-.01Z" fill="#ffa8a7"/><g><path d="M401.29,397.74c-.12,3.25.17,5.44,1.13,7.45s3.07,2.81,5.32,2.47s5.2-1.56,6.1-4.28.96-4.65.75-7.7l-13.3,2.06Z" fill="#263238"/><path d="M412.28,375.17c.9.16.74,4.53.84,8.92.11,4.71,1.31,6.78,1.44,10.64.15,4.42-.27,6.35-2.06,8.84-1.78,2.49-7.45,4.56-9.75.52-1.88-3.29-1.64-6.72-1.02-11.06.64-4.49,1.13-7.64,1.27-11.08.14-3.29.22-6.48,1.04-6.76.01.49.01,1.1.03,1.58.01.37-.07,2.14.44,2.21.09-.41.12-.8.13-1.23.01-.37.08-.77.35-1.03s.67-.31,1.05-.35c.91-.09,1.82-.16,2.73-.15.45,0,.91.02,1.36.07.37.04.79.11,1.13.27.21.1.39.27.45.49.04.16.02.34,0,.5-.03.3-.02.61.03.91.02.13.09.3.23.28.11-.02.16-.14.17-.25.05-.53.02-.92.06-1.53.02-.28,0-.67.03-.96.02-.28.05-.56.06-.84l-.01.01Z" fill="#27debf"/><path d="M412.28,375.17c.9.16.74,4.53.84,8.92.11,4.71,1.31,6.78,1.44,10.64.15,4.42-.27,6.35-2.06,8.84-1.78,2.49-7.45,4.56-9.75.52-1.88-3.29-1.64-6.72-1.02-11.06.64-4.49,1.13-7.64,1.27-11.08.14-3.29.22-6.48,1.04-6.76.01.49.01,1.1.03,1.58.01.37-.07,2.14.44,2.21.09-.41.12-.8.13-1.23.01-.37.08-.77.35-1.03s.67-.31,1.05-.35c.91-.09,1.82-.16,2.73-.15.45,0,.91.02,1.36.07.37.04.79.11,1.13.27.21.1.39.27.45.49.04.16.02.34,0,.5-.03.3-.02.61.03.91.02.13.09.3.23.28.11-.02.16-.14.17-.25.05-.53.02-.92.06-1.53.02-.28,0-.67.03-.96.02-.28.05-.56.06-.84l-.01.01Z" opacity="0.3"/><path d="M411.41,396.57c-.13,1.58,1.48,1.2,1.76-1.02s-.43-7.63-.04-11.46c-.1-4.4.05-8.77-.84-8.92c0,.05,0,.11-.01.16l-.09,2.22c0,.32,0,.61-.04.95-.29,3.22-.44,9.48-.44,12.45s-.15,4.04-.28,5.62h-.02Z" opacity="0.2"/><path d="M405.08,396.6c-.15-1.58-.3-2.65-.32-5.62-.03-2.95-.22-9.14-.53-12.38-.17-.56-.13-1.56-.14-1.83-.02-.45-.02-1.01-.03-1.48c0-.03,0-.07,0-.1-.59.22-.8,1.96-.92,4.15c0,1.27.04,2.85.14,4.77.41,3.83-.26,9.27.04,11.49s1.92,2.56,1.77.98l-.01.02Z" opacity="0.2"/><g><path d="M404.49,396.71c0,0,.08,0,.13-.02.03-.01,3.48-1.37,7.03-.05.18.06.37-.02.43-.2.07-.17-.02-.37-.2-.43-3.8-1.42-7.36,0-7.52.06-.17.07-.26.27-.18.44.05.13.18.21.31.21v-.01Z" fill="#ebebeb"/><path d="M404.07,393.22c0,0,.08,0,.11-.02.04-.01,3.89-1.39,7.87-.05.18.06.37-.04.43-.21.06-.18-.04-.37-.21-.43-4.21-1.41-8.15,0-8.31.06-.17.06-.26.26-.2.43.05.14.18.22.32.22h-.01Z" fill="#ebebeb"/><path d="M412.15,389.87c.13,0,.25-.07.31-.2.08-.17,0-.37-.17-.45-3.92-1.76-8.12-.09-8.29-.02s-.26.27-.18.44c.07.17.27.25.44.18.04-.02,4.12-1.64,7.76.01.05.02.09.03.14.03l-.01.01Z" fill="#ebebeb"/><path d="M412.21,386.78c.13,0,.25-.07.3-.19.08-.17,0-.37-.16-.45-4.3-2.03-8.29-.14-8.46-.06s-.24.28-.16.45.29.24.45.16c.04-.02,3.88-1.82,7.88.06.05.02.1.03.15.03Z" fill="#ebebeb"/><path d="M412.27,383.31c.12,0,.24-.07.3-.19.08-.17.01-.37-.15-.45-4.02-1.97-8.34-.06-8.53.03-.17.08-.24.28-.17.45.08.17.27.25.45.17.04-.02,4.22-1.86,7.95-.04.05.02.1.03.15.03Z" fill="#ebebeb"/></g></g></g><g><path d="M407.86,247.19c5.41,14.81,5.51,24.03,4.65,39.56-.79,14.25-2.08,26.8-2.08,26.8.22,2.53,3.76,7.45,4.25,18.62.46,10.45-.99,23.55-.99,23.55s-7.01,2.59-12.93.06c0,0-6.17-26.72-7.86-39.79-1.48-11.41-3.65-24.88-3.65-24.88l-3.87,24.88c0,0,.99,6.69.6,11.38-.5,6.07-3.47,22.41-3.47,22.41s-7.35,2.64-12.34-1.75c0,0-1.52-24.48-2.25-33.74-.98-12.4-.78-46.43,2.13-63.86l37.8-3.23.01-.01Z" fill="#455a64"/><path d="M389.25,291.11L386.6,270.5c0,0-9.82-1.27-14.28-5.44c0,0,3.36,6.11,11.59,7.26l3.62,19.25-2.15,24.41l3.87-24.88v.01Z" fill="#263238"/></g></g><g><path d="M391.86,215.35c.07-.03.13-.06.2-.09c12.65-5.96,17.73-19.99,17.11-33.3-.2-4.21-.91-8.44-2.58-12.31-1.68-3.87-4.37-7.37-7.97-9.57-2.75-1.69-5.94-2.54-9.15-2.75-2.93-.19-6.72-.15-9.48.99-1.2.49-1.42.38-2.71.09-.98-.22-2-.29-3-.18-2.78.29-5.15,1.92-6.88,4.05-2.33,2.87-2.61,7.16-1.81,10.64.37,1.61,2.62,3.97,2.52,5.49-.14,2.22-1.75,3.96-3.54,5.91-1.71,1.88-3.76,3.37-4.61,6.2-.74,2.43-.87,7.58,4.57,9.56-7.91,10.47-.11,16.15,4.21,17.65c2.72.95,6.14,1.45,9,1.09c4.8-.61,9.7-1.4,14.12-3.46v-.01Z" fill="#37474f"/><g><path d="M364.51,233.12c4.65-4.79,13.07-15.63,13.07-15.63L382.34,201c.12.05-2.43.05-3.19,0-5.14.34-6.66.78-9.86,4.28-2.54,2.78-12.23,16.02-15.6,20.47l-8.94-11.39c-2.14-3.24-1.79-6.87-2.91-9.51-1.11-2.65-2.91-3.81-4.35-6.21s-1.78-3.95-2.96-2.73.18,4.52.36,5.27s1.98,2.99-1.03,1.83-7.66-6.67-8.86-7.79-1.83.62-1.56,1.99-1.02,4.49-.55,6.77c.5,2.42.85,3.52,3.19,5.87c2.17,2.19,7.49,4.87,9.57,7.74s6.51,11.79,9.23,17.17c3.45,6.83,6.38,9.09,10.26,6.79s7.68-6.65,9.4-8.42l-.03-.01Z" fill="#ffa8a7"/><path d="M353.69,225.76c2.17,2.09,3.09,4.68,3.25,6c0,0,1-3.3-2.48-7.02l-.77,1.02Z" fill="#f28f8f"/></g><g><path d="M370.56,230.07c-6.32-5.2-4.24-11.98-1.93-16.55c4.62-9.13,9.42-12.72,11.43-12.69l12.59.12c6.01.82,10.67.41,12.12.75c3.7.88,3.78,3.92,3.92,7.86.16,4.32.62,3.86-.51,11c0,0-1.71,5.54-2.39,8-.68,2.47-1.92,6.31-.91,10.31.39,1.54,1.44,3.05,3.02,7.31c1.48,3.99,2.05,5.52,3.21,10.82c0,0-8.62,7.99-26.55,5.43-13.2-1.89-15.8-6.24-15.8-6.24l2.47-15.39c-.33-5.39-.42-7.34-.67-10.74v.01Z" fill="#27debf"/><path d="M378.78,228.71c0,0,5.17,4.16,11.19,2.14s6.98-7.23,6.98-7.23.51,6.85-7.07,9.05c-7.32,2.12-11.1-3.96-11.1-3.96Z" opacity="0.1"/></g><g><path d="M423.91,188.29c-2.69-3.34-10.01-11.69-11.35-13.36-.92-1.15-2.18-2.05-3.17-2.38-1.11-.37-2.2-1.15-2.93-1.87-.52-.51-1.65-2.68-2.11-3.25-1.53-1.93-2.8-3.06-4.81-4.48-2.12-1.49-4.14-2.18-6.31-3.59-1.28-.83-2.85-1.66-1.44-3.06.44-.44.99-.76,1.6-.88c2.97-.56,6.17.38,9.9,1.35c1.74.45,3.35.94,4.71,1.47.86.34,1.76.68,2.49,1.26.97.77,1.57,1.9,2.22,2.96c1.74,2.84,5.72,4.74,8.2,6.91c2.9,2.55,5.76,4.68,9.07,7.49c2.98,2.53,6.66,5.82,9,8.95c2.04,2.71,1.42,4.32.61,5.52-4.13,6.09-13.33,12.99-16.6,15.7-3.49,2.89-5.94,4.68-9.06,7.47-1.57,1.4-4.8,4.87-6.2,6.59-.41.5-1.13.7-1.7.39-3.61-1.97-6.01-12.03-3.22-18.21.71-1.58,1.46-1.65,1.46-1.65c5.7-4,19.65-13.35,19.65-13.35" fill="#ffa8a7"/><path d="M423.91,188.29c0,0,2.38,3.3,6.51,4.65c0,0-3.45.82-8.08-3.49l1.58-1.16h-.01Z" fill="#f28f8f"/></g><g><path d="M372.49,181.78c.05,9.93,3.23,12.44,4.83,13.17s4.72.36,7.76-.09l-.1,5.95c0,0-3.55,3.6-3.34,6.33.22,2.74,5.43,3.13,9.39.53c2.89-1.9,4.98-4.09,5.89-5.13.33-.38.51-.86.52-1.36l.25-14.01c0,0,1.63,1.78,4.59-.17s3.28-5.68,1.53-7.83c-1.25-1.52-4.49-1.69-6.09.62-.9,1.7-.83,2.89-2.02,2.69-1.15-.19-1.29-1.53-1.37-2.48s-.05-1.27-.12-2.52c-2.94-.63-5.97-4.71-6.31-7.7-2.09.91-4.29,1.59-6.38,1.44-3.29-.23-4.98-.89-6.6-3.26-.36.46-.74,1.24-.91,1.76-.53,1.58-.81,2.57-1.02,3.9-.43,2.69-.51,5.44-.49,8.16h-.01Z" fill="#ffa8a7"/><path d="M385.08,194.85c3.2-.36,9.8-2.13,10.86-4.71c0,0-.37,1.62-2.36,3.27s-8.54,3.43-8.54,3.43l.03-1.99h.01Z" fill="#f28f8f"/><g><path d="M381.86,189.51c-.01.72.56,1.31,1.28,1.33.72.01,1.31-.56,1.33-1.28.01-.72-.56-1.31-1.28-1.33-.72-.01-1.31.56-1.33,1.28Z" fill="#b16668"/><path d="M383.53,179.73c-.05.79.52,1.46,1.27,1.51.76.05,1.41-.55,1.47-1.33.05-.79-.52-1.46-1.27-1.51-.76-.05-1.41.55-1.47,1.33Z" fill="#263238"/><path d="M374.26,179.14c-.05.71.47,1.33,1.16,1.37.76.05,1.28-.43,1.33-1.21.05-.71-.47-1.33-1.16-1.37s-1.28.5-1.33,1.21Z" fill="#263238"/><polygon points="380.67,177.86 379.67,186.15 375.43,184.38 380.67,177.86" fill="#f28f8f"/><path d="M388.5,176.15l-2.47-2.35c-.64.72-.61,1.83.07,2.48s1.76.59,2.4-.13Z" fill="#263238"/><path d="M376.14,173.04l-2.74,2.07c.55.78,1.61.96,2.36.38.76-.57.93-1.67.38-2.46v.01Z" fill="#263238"/></g></g></g></g></g><path d="M69.25,417.61L25.51,392.35c-2.47-1.42-2.47-3.73,0-5.16L270.27,246.05c2.47-1.42,6.47-1.42,8.93,0l43.75,25.26c2.47,1.42,2.47,3.73,0,5.16L78.18,417.62c-2.47,1.42-6.46,1.42-8.93,0v-.01Z" fill="#e0e0e0"/><path d="M304.15,327.61l-5.44-3.14c-12.35-7.13-31.85-7.48-43.46-.77l-20.31,11.73c-.72.41-.96,1.33-.55,2.05s1.33.96,2.05.55l20.31-11.73c10.78-6.23,28.94-5.88,40.46.77l5.44,3.14c5.3,3.06,8.22,7.04,8.22,11.2s-2.92,8.14-8.22,11.2l-74.5,43.01c-11.52,6.65-30.28,6.65-41.8,0L164.66,383.1c-12.35-7.13-32.45-7.13-44.8,0l-5.44,3.14c-6.53,3.77-10.13,8.79-10.13,14.12c0,4.92,3.12,9.43,8.79,12.7l19.43,11.22-7.98,4.71c-3.65,2.15-3.63,5.64.04,7.76l14.59,8.42c.6.34.59.9,0,1.24l-1.22.7c-.6.34-.6.9,0,1.24l1.9,1.1c.6.34,1.57.34,2.17,0l6.62-3.81c.6-.34,1.57-.34,2.17,0l12.05,6.96c.6.34,1.57.34,2.16,0l1.9-1.1c.6-.34.6-.91,0-1.25l-12.05-6.96c-.6-.34-.6-.91,0-1.25l4.62-2.67c.6-.34,1.57-.34,2.17,0l12.05,6.96c.6.34,1.57.34,2.17,0l1.9-1.1c.6-.34.6-.91,0-1.25l-12.05-6.96c-.6-.34-.6-.91,0-1.25l5.96-3.44c.6-.34.6-.91,0-1.25l-1.9-1.1c-.6-.34-1.57-.34-2.17,0l-1.9,1.1c-.6.34-1.57.34-2.17,0l-18.53-10.7c-1.64-.95-4.32-.94-5.95.03l-3.69,2.18c-.12-.16-.27-.3-.46-.41L114.6,410.45c-4.7-2.71-7.29-6.3-7.29-10.1c0-4.16,3.14-8.36,8.63-11.52l5.44-3.14c11.52-6.65,30.28-6.65,41.8,0l21.69,12.52c12.35,7.13,32.45,7.13,44.8,0l74.5-43.01c6.27-3.62,9.72-8.52,9.72-13.8s-3.45-10.18-9.72-13.8l-.02.01Z" fill="#e0e0e0"/><g><path d="M235.69,332.06c0,0,9.09-5.25,20.31-11.73s30-6.13,41.96.77l5.44,3.14c11.96,6.9,11.96,18.1,0,25l-74.5,43.01c-11.96,6.9-31.34,6.9-43.3,0l-21.69-12.52c-11.96-6.9-31.34-6.9-43.3,0l-5.44,3.14c-11.96,6.9-12.56,17.75-1.34,24.23l20.31,11.73" fill="none" stroke="#37474f" stroke-width="3" stroke-linecap="round" stroke-linejoin="round"/><g><path d="M121.52,423.58v1.73c0,2.76,1.94,6.12,4.33,7.5l15.98,9.23l16.25-9.38v-14.07c0,0-15.77-7.29-15.77-7.29-2.51-1.16-6.48-.98-8.87.4l-7.59,4.38c-2.39,1.38-4.33,4.74-4.33,7.5Z" fill="#37474f"/><path d="M142.31,411.3c-2.51-1.16-6.48-.98-8.87.4l-7.59,4.38c-2.39,1.38-2.3,3.44.21,4.6l15.77,7.28l16.25-9.38-15.77-7.29v.01Z" fill="#455a64"/><path d="M140.3,424.58c-1.2.69-2.17,2.37-2.17,3.75v11.57l3.7,2.14l16.25-9.38v-14.07c0,0-4.11-1.9-4.11-1.9l-13.67,7.89Z" opacity="0.1"/><g><path d="M159.47,416.16c-.39-.22-.93-.19-1.52.15l-15.98,9.23c-1.2.69-2.16,2.37-2.16,3.75v13.76c0,.69.24,1.17.64,1.4.37.21,1.67.96,2.03,1.17.39.23.93.2,1.53-.15l15.98-9.23c1.2-.69,2.17-2.37,2.17-3.75v-13.76c0-.69-.24-1.18-.63-1.4-.37-.21-1.68-.96-2.05-1.18l-.01.01Z" fill="#37474f"/><path d="M144,426.71l15.98-9.23c1.2-.69,2.17-.13,2.17,1.25v13.76c0,1.38-.97,3.06-2.17,3.75L144,445.47c-1.2.69-2.17.13-2.17-1.25v-13.76c0-1.38.97-3.06,2.16-3.75h.01Z" fill="#455a64"/></g><g><path d="M160.55,437.11l-13.22-7.63-1.44.83v9.38c0,0,13.22,7.63,13.22,7.63.84.48,1.6.52,2.15.2.24-.14,1.2-.69,1.44-.83.55-.31.88-.99.88-1.95v-2.38c0-1.93-1.36-4.28-3.03-5.25Zm-2.43,2.51c1.12.65,2.03,2.22,2.03,3.52c0,.21-.03.39-.07.56-.17-.05-.34-.11-.52-.21-1.12-.65-2.03-2.22-2.03-3.52c0-.21.03-.4.07-.56.17.05.34.12.52.22v-.01Z" fill="#27debf"/><path d="M160.55,437.11l-13.22-7.63-1.43.83l13.21,7.63c1.68.97,3.03,3.32,3.03,5.25v2.38c0,1-.36,1.7-.95,2c.02-.01.05-.03.07-.04.25-.15,1.2-.7,1.44-.84.55-.31.88-.98.88-1.95v-2.38c0-1.93-1.36-4.28-3.03-5.25Z" opacity="0.85" fill="#fff"/><path d="M163.58,442.36v2.38c0,.97-.33,1.64-.88,1.95-.24.14-1.19.69-1.44.84-.02,0-.04.02-.06.03.58-.3.94-.99.94-1.99v-2.38c0-.97-.34-2.03-.89-2.99l1.44-.83c.55.95.89,2.02.89,2.99Z" fill="#27debf"/><path d="M163.58,442.36v2.38c0,.97-.33,1.64-.88,1.95-.24.14-1.19.69-1.44.84-.02,0-.04.02-.06.03.58-.3.94-.99.94-1.99v-2.38c0-.97-.34-2.03-.89-2.99l1.44-.83c.55.95.89,2.02.89,2.99Z" opacity="0.6" fill="#fff"/><path d="M163.58,442.36v2.38c0,.97-.33,1.64-.88,1.95-.24.14-1.19.69-1.44.84-.02,0-.04.02-.06.03.58-.3.94-.99.94-1.99v-2.38c0-.97-.34-2.03-.89-2.99l1.44-.83c.55.95.89,2.02.89,2.99Z" opacity="0.05"/><path d="M157.53,439.96c0-.21.03-.4.07-.56v0c-.87-.24-1.51.3-1.51,1.39c0,1.3.91,2.87,2.03,3.52.94.55,1.74.26,1.96-.62-.17-.04-.34-.1-.52-.21-1.12-.65-2.03-2.22-2.03-3.52Z" opacity="0.6" fill="#fff"/><path d="M157.53,439.96c0-.21.03-.4.07-.56v0c-.87-.24-1.51.3-1.51,1.39c0,1.3.91,2.87,2.03,3.52.94.55,1.74.26,1.96-.62-.17-.04-.34-.1-.52-.21-1.12-.65-2.03-2.22-2.03-3.52Z" opacity="0.1"/><path d="M159.11,437.94l-13.22-7.63v9.38c0,0,13.22,7.63,13.22,7.63c1.67.97,3.03.18,3.03-1.75v-2.38c0-1.93-1.36-4.28-3.03-5.25Zm-.99,6.37c-1.12-.65-2.03-2.22-2.03-3.52s.91-1.82,2.03-1.17s2.03,2.22,2.03,3.52-.91,1.82-2.03,1.17Z" opacity="0.7" fill="#fff"/></g><g><path d="M171.3,430.9l-13.22-7.63-1.44.83v9.38c0,0,13.22,7.63,13.22,7.63.84.48,1.6.52,2.15.2.24-.14,1.2-.69,1.44-.83.55-.31.88-.99.88-1.95v-2.38c0-1.93-1.36-4.28-3.03-5.25Zm-2.43,2.51c1.12.65,2.03,2.22,2.03,3.52c0,.21-.03.39-.07.55-.17-.05-.34-.11-.52-.21-1.12-.65-2.03-2.22-2.03-3.52c0-.21.03-.4.07-.56.17.05.34.12.52.22Z" fill="#27debf"/><path d="M171.3,430.9l-13.22-7.63-1.43.83l13.21,7.63c1.68.97,3.03,3.32,3.03,5.25v2.38c0,1-.36,1.7-.95,2c.02-.01.05-.03.07-.04.25-.15,1.2-.7,1.44-.84.55-.31.88-.98.88-1.95v-2.38c0-1.93-1.36-4.28-3.03-5.25Z" opacity="0.85" fill="#fff"/><path d="M174.33,436.15v2.38c0,.97-.33,1.64-.88,1.95-.24.14-1.19.69-1.44.84-.02.01-.04.02-.06.03.58-.3.94-.99.94-1.99v-2.38c0-.97-.34-2.03-.89-2.99l1.44-.83c.55.95.89,2.02.89,2.99Z" fill="#27debf"/><path d="M174.33,436.15v2.38c0,.97-.33,1.64-.88,1.95-.24.14-1.19.69-1.44.84-.02.01-.04.02-.06.03.58-.3.94-.99.94-1.99v-2.38c0-.97-.34-2.03-.89-2.99l1.44-.83c.55.95.89,2.02.89,2.99Z" opacity="0.6" fill="#fff"/><path d="M174.33,436.15v2.38c0,.97-.33,1.64-.88,1.95-.24.14-1.19.69-1.44.84-.02.01-.04.02-.06.03.58-.3.94-.99.94-1.99v-2.38c0-.97-.34-2.03-.89-2.99l1.44-.83c.55.95.89,2.02.89,2.99Z" opacity="0.05"/><path d="M168.28,433.75c0-.21.03-.4.07-.56v0c-.87-.24-1.51.3-1.51,1.39c0,1.3.91,2.87,2.03,3.52.94.55,1.74.26,1.96-.62-.17-.04-.34-.1-.52-.21-1.12-.65-2.03-2.22-2.03-3.52Z" opacity="0.6" fill="#fff"/><path d="M168.28,433.75c0-.21.03-.4.07-.56v0c-.87-.24-1.51.3-1.51,1.39c0,1.3.91,2.87,2.03,3.52.94.55,1.74.26,1.96-.62-.17-.04-.34-.1-.52-.21-1.12-.65-2.03-2.22-2.03-3.52Z" opacity="0.1"/><path d="M169.86,431.73l-13.22-7.63v9.38c0,0,13.22,7.63,13.22,7.63c1.67.97,3.03.18,3.03-1.75v-2.38c0-1.93-1.36-4.28-3.03-5.25Zm-.99,6.37c-1.12-.65-2.03-2.22-2.03-3.52s.91-1.82,2.03-1.17s2.03,2.22,2.03,3.52-.91,1.82-2.03,1.17Z" opacity="0.7" fill="#fff"/></g></g></g><g><g><path d="M216.81,378.36l37.61-21.74c3.88-2.24,5.81-5.17,5.81-8.1s.02-5.23.02-5.23l-39.02-22c-2.07-1.19-3.74-4.1-3.74-6.48v-46.37L151.81,306.4v46.36c0,2.39,1.67,5.29,3.74,6.48l33.19,19.13c7.75,4.48,20.32,4.48,28.08,0l-.01-.01Z" fill="#27debf"/><g opacity="0.6"><path d="M216.81,378.36l37.61-21.74c3.88-2.24,5.81-5.17,5.81-8.1s.02-5.23.02-5.23l-39.02-22c-2.07-1.19-3.74-4.1-3.74-6.48v-46.37L151.81,306.4v46.36c0,2.39,1.67,5.29,3.74,6.48l33.19,19.13c7.75,4.48,20.32,4.48,28.08,0l-.01-.01Z"/></g><path d="M167.57,360.96v5.21l-12.04-6.94c-2.05-1.19-3.74-4.08-3.74-6.48v-46.36l12.51-7.22c.26,3.18.54,6.46.8,9.66l-8.77,5.08v36.22c0,2.4,1.66,5.3,3.74,6.48l7.5,4.34v.01Z" opacity="0.3"/><path d="M156.33,350.14c0,2.39,1.68,5.29,3.74,6.48l28.66,16.51c7.75,4.48,20.32,4.48,28.08,0l37.62-21.74c7.75-4.47,7.75-11.73,0-16.21l-28.67-16.52c-2.07-1.19-3.74-4.1-3.74-6.48v-36.23c0,0-65.69,37.96-65.69,37.96v36.23Z" fill="#27debf"/><path d="M156.33,350.14c0,2.39,1.68,5.29,3.74,6.48l28.66,16.51c7.75,4.48,20.32,4.48,28.08,0l37.62-21.74c7.75-4.47,7.75-11.73,0-16.21l-28.67-16.52c-2.07-1.19-3.74-4.1-3.74-6.48v-36.23c0,0-65.69,37.96-65.69,37.96v36.23Z" opacity="0.3"/><path d="M233.38,323.08v0c0,0-7.62-4.41-7.62-4.41-2.07-1.19-3.74-4.1-3.74-6.48v-36.23c0,0-65.69,37.96-65.69,37.96v36.23c0,2.39,1.68,5.29,3.74,6.48l7.49,4.33l65.82-37.88Z" opacity="0.5"/><path d="M260.24,343.29v5.23c0,2.94-1.95,5.86-5.81,8.1l-37.61,21.73c-3.72,2.16-8.54,3.24-13.4,3.33v-5.21c4.86-.06,9.68-1.19,13.4-3.33l37.61-21.75c3.87-2.23,5.81-5.17,5.81-8.1Z" fill="#27debf"/><path d="M260.24,343.29v5.23c0,2.94-1.95,5.86-5.81,8.1l-37.61,21.73c-3.72,2.16-8.54,3.24-13.4,3.33v-5.21c4.86-.06,9.68-1.19,13.4-3.33l37.61-21.75c3.87-2.23,5.81-5.17,5.81-8.1Z" opacity="0.5"/></g><path d="M50.86,395.17c2.42,1.4,6.48,1.32,9.07-.17c32.29-18.64,221.74-128.02,254.02-146.66c2.58-1.49,4.68-5.12,4.68-4.1v-231.3c0-6.98-1.96-10.54-4.39-11.94-2.42-1.4-6.48-1.32-9.07.17L51.16,147.83c-2.58,1.49-4.68,5.12-4.68,8.1v231.3c0,2.98,1.96,6.54,4.39,7.94h-.01Z" fill="#27debf"/><path d="M59.93,395L313.95,248.34c2.58-1.49,4.68-5.12,4.68-4.1v-231.31c0-6.98-2.09-8.19-4.68-6.7L59.94,152.89c-2.58,1.49-4.68,5.12-4.68,8.1v231.3c0,2.98,2.09,4.19,4.68,2.7l-.01.01Z" fill="#27debf"/><path d="M59.93,395L313.95,248.34c2.58-1.49,4.68-5.12,4.68-4.1v-231.31c0-6.98-2.09-8.19-4.68-6.7L59.94,152.89c-2.58,1.49-4.68,5.12-4.68,8.1v231.3c0,2.98,2.09,4.19,4.68,2.7l-.01.01Z" opacity="0.5"/><path d="M59.24,400.34c-2.59,1.15-6.18,1.1-8.39-.17-2.42-1.4-4.39-4.95-4.39-7.95v-14.71l8.78,5.08v14.71c0,2.72,1.73,3.96,4,3.05v-.01Z" fill="#27debf"/><path d="M59.24,400.34c-2.59,1.15-6.18,1.1-8.39-.17-2.42-1.4-4.39-4.95-4.39-7.95v-14.71l8.78,5.08v14.71c0,2.72,1.73,3.96,4,3.05v-.01Z" opacity="0.5"/><path d="M55.25,382.58v14.7c0,2.98,2.1,4.19,4.69,2.7L313.96,253.32c2.58-1.49,4.68-5.12,4.68-8.1v-14.74L55.25,382.58Z" fill="#27debf"/><path d="M55.25,382.54v14.74c0,2.98,2.09,4.19,4.68,2.7L313.95,253.32c2.58-1.49,4.68-5.12,4.68-8.1v-14.74L55.25,382.54Z" opacity="0.3"/><path d="M64.03,364.11v-200.2c0-1.79,1.26-3.97,2.81-4.86L307.04,20.37c1.55-.9,2.81-.17,2.81,1.62v200.2c0,1.79-1.25,3.97-2.8,4.86L66.84,365.73c-1.55.9-2.81.17-2.81-1.62Z" fill="#27debf"/><path d="M64.03,364.11v-200.2c0-1.79,1.26-3.97,2.81-4.86L307.04,20.37c1.55-.9,2.81-.17,2.81,1.62v200.2c0,1.79-1.25,3.97-2.8,4.86L66.84,365.73c-1.55.9-2.81.17-2.81-1.62Z" fill="#263238"/><path d="M56.63,156.37c-.84,1.47-1.36,3.13-1.38,4.63v221.59l-8.78-5.08v-221.57c0-1.49.54-3.15,1.38-4.62l8.78,5.06v-.01Z" opacity="0.7"/><path d="M318.59,8.17c-.33-2.41-2.28-3.29-4.64-1.94L59.94,152.89c-1.28.74-2.45,2-3.31,3.47l-8.78-5.07c.85-1.45,2.01-2.73,3.31-3.47L305.17,1.17c2.59-1.49,6.64-1.57,9.07-.17c2.21,1.27,4.04,4.36,4.34,7.16l.01.01Z" opacity="0.3"/></g><g><path d="M88.16,376.3c0,0-.59.43-1.83.55-.96.1-1.96-.05-2.68-.47-1.22-.7-2.19-2.47-2.19-3.95v-181.6c0,0,4.37,2.53,4.37,2.53v181.59c0,1.05.53,1.66,1.29,1.66.11,0,.52-.03,1.03-.32l.01.01Z" fill="#f0f0f0"/><g><path d="M87.12,376.08c-.68,0-.75-.79-.75-1.13v-196.44l6.15-3.55c.75-.44,1.36-2.37,2.57-6.69.64-2.28,1.6-5.72,2.1-6.1l55.51-32.05c.47.25,1.52,2.08,2.15,3.2c1.36,2.39,2.17,3.74,3.09,3.74.16,0,.31-.04.44-.12L329.04,38.39v195.82c0,1.3-.94,2.93-2.06,3.57L87.88,375.84c-.28.16-.54.25-.77.25l.01-.01Z" fill="#fafafa"/><path d="M328.51,39.32v194.88c0,1.11-.84,2.56-1.79,3.11L87.62,375.37c-.27.16-.44.17-.5.17-.21,0-.21-.56-.21-.59v-196.13l5.88-3.39c.93-.54,1.51-2.35,2.82-7.01.58-2.08,1.45-5.19,1.93-5.82l55.1-31.81c.48.55,1.26,1.92,1.75,2.8c1.5,2.64,2.34,4.01,3.56,4.01.25,0,.5-.07.71-.19L328.52,39.33M153.04,130.55v0v0M329.58,37.46L158.11,136.48c-.05.03-.11.05-.17.05-1.3,0-3.95-6.95-5.26-6.95-.06,0-.12.02-.17.05l-55.6,32.1c-1.29.74-3.38,12.04-4.66,12.79l-6.42,3.7v196.75c0,1.05.53,1.66,1.29,1.66.31,0,.66-.1,1.04-.32l239.1-138.06c1.29-.74,2.33-2.55,2.33-4.04v-196.75v0h-.01Z" fill="#e0e0e0"/></g><g><path d="M83.64,185.38c-1.21-.7-2.19-2.47-2.19-3.95v-18.19c0-1.49,1.04-3.29,2.33-4.04L322.88,21.14c1.29-.74,3.31-.78,4.52-.08s2.19,2.47,2.18,3.95v18.19c0,1.49-1.04,3.29-2.32,4.04L88.16,185.29c-1.29.74-3.31.78-4.52.08v.01Z" fill="#27debf"/><path d="M329.56,24.63c-.16-1.21-1.14-1.65-2.3-.97L88.16,161.72c-.64.38-1.22,1.01-1.65,1.74l-4.37-2.53c.43-.73,1-1.36,1.65-1.73L322.89,21.14c1.28-.74,3.3-.79,4.51-.09c1.11.65,2.02,2.17,2.16,3.57v.01Z" opacity="0.4" fill="#fff"/><path d="M86.51,163.46c-.42.72-.68,1.55-.68,2.29v27.61l-4.38-2.53v-27.6c0-.1,0-.18.01-.28.02-.22.05-.38.09-.58.12-.48.32-1,.58-1.44l4.37,2.53h.01Z" opacity="0.1"/><path d="M329.58,25.01v12.45c0,0-171.47,99.02-171.47,99.02-1.28.74-2.33.14-2.33-1.35v-4.71c0-1.49-1.04-2.09-2.34-1.35L96.9,161.72c-1.29.74-2.34,2.55-2.34,4.04v4.71c0,1.49-1.04,3.29-2.32,4.04l-6.42,3.7v-12.45c0-1.49,1.04-3.29,2.33-4.04L327.26,23.66c1.28-.74,2.33-.14,2.33,1.35h-.01Z" fill="#27debf"/><g><path d="M318.66,32.82c1.62-.94,2.93-.18,2.93,1.69s-1.31,4.14-2.93,5.08-2.93.18-2.93-1.69s1.31-4.14,2.93-5.08Z" fill="#fff"/><path d="M308.1,38.9c1.62-.94,2.93-.18,2.93,1.69s-1.31,4.14-2.93,5.08c-1.62.93-2.93.18-2.93-1.69s1.31-4.14,2.93-5.08Z" fill="#fff"/><path d="M297.54,44.99c1.62-.93,2.93-.18,2.93,1.69s-1.31,4.14-2.93,5.08-2.93.18-2.93-1.69s1.31-4.14,2.93-5.08Z" fill="#fff"/></g></g><g><g><path d="M329.58,37.46v15.16L85.83,193.36v-15.16l4.79-2.77c1.28-.74,1.71-1.87,2.33-4.04l1.62-5.64c.51-1.96,1.04-3.29,2.34-4.04l55.6-32.1c1.29-.74,2.3-.82,3.28.8l1.99,3.62c.73,1.26,1.1,2.01,2.38,1.26L329.58,37.45v.01Z" fill="#e6e6e6"/><polygon points="85.83,178.21 85.83,193.36 81.45,190.83 81.45,175.69 85.83,178.21" fill="#e0e0e0"/></g><g><path d="M96.52,179.3l-3.66,2.11l1.39-2.68c.12-.24.14-.53.03-.66s-.29-.04-.41.2l-1.98,3.82c0,0,0,.01,0,.01-.02.04-.04.09-.05.14c0,.02-.01.03-.02.05-.02.07-.03.13-.03.2s0,.12.03.17c0,.01.01.02.02.03.01.03.03.06.05.08c0,0,0,0,0,0l1.98,1.53c.06.04.12.04.19,0c.08-.05.16-.15.22-.28.11-.25.09-.53-.03-.62l-1.39-1.07l3.66-2.11c.16-.09.29-.37.29-.62s-.13-.38-.29-.28v-.02Z" opacity="0.5" fill="#455a64"/><path d="M99.58,177.54l3.66-2.11-1.39-1.07c-.12-.09-.14-.37-.03-.62s.29-.38.41-.28l1.98,1.53c0,0,0,0,0,0c.02.02.04.05.05.08c0,.01.01.02.02.03.02.05.03.1.03.17s0,.13-.03.2c0,.02-.01.03-.02.05-.01.05-.03.1-.05.14c0,0,0,.01,0,.01l-1.98,3.82c-.06.11-.12.18-.19.22-.08.05-.16.04-.22-.03-.11-.13-.1-.42.03-.66l1.39-2.68-3.66,2.11c-.16.09-.29-.03-.29-.28s.13-.53.29-.62v-.01Z" opacity="0.5" fill="#455a64"/><path d="M111.58,167c-.02-.22-.21-.19-.31.05l-.5,1.23c-.85-.09-1.89.74-2.59,2.22-.91,1.92-.91,4.19,0,5.06.45.44,1.05.44,1.64.1s1.19-1.04,1.64-1.99c.11-.24.11-.53,0-.64s-.3,0-.42.24c-.68,1.43-1.78,2.07-2.45,1.42-.68-.65-.68-2.35,0-3.78.48-1.02,1.17-1.62,1.78-1.66l-.38.92c-.1.24,0,.46.15.36l1.49-.97c.1-.07.18-.26.17-.41l-.22-2.14v-.01Z" opacity="0.5" fill="#455a64"/><path d="M150.9,136.53l1.33-2.82c.16-.33.16-.73,0-.88s-.41,0-.57.33l-1.33,2.82L149,134.7c-.16-.15-.41,0-.57.33s-.16.73,0,.88l1.33,1.28-1.33,2.82c-.16.33-.16.73,0,.88.08.08.18.08.29.02.1-.06.21-.18.29-.35l1.33-2.82l1.33,1.28c.08.08.18.08.29.02s.21-.18.29-.35c.16-.33.16-.73,0-.88l-1.33-1.28h-.02Z" opacity="0.5" fill="#455a64"/><path d="M116.44,170.47v-4.72c0-1.49,1.04-3.29,2.33-4.04L314.14,48.95c1.29-.74,2.33-.14,2.33,1.35v4.72c0,1.49-1.04,3.29-2.33,4.04L118.77,171.82c-1.29.74-2.33.14-2.33-1.35Z" fill="#fafafa"/><path d="M312.78,51.45l.61,1.3c.04.08.11.11.2.08l1.37-.53c.22-.08.3.22.15.52l-.99,1.86c-.06.12-.09.25-.08.36l.23,1.68c.04.27-.19.62-.38.59l-1.22-.15c-.08,0-.17.04-.25.14l-1.22,1.56c-.19.25-.42.16-.38-.15l.23-1.95c.01-.12-.01-.22-.08-.27l-.99-.72c-.16-.11-.07-.52.15-.69l1.37-1.06c.09-.07.16-.18.2-.31l.61-2.01c.1-.32.38-.48.48-.27l-.01.02Z" fill="none" stroke="#e0e0e0" stroke-width="0.81" stroke-miterlimit="10"/><g opacity="0.5"><path d="M319.22,48.39c-.28,0-.55-.14-.7-.4-.22-.39-.09-.88.3-1.1l6.56-3.79c.39-.22.88-.09,1.1.3s.09.88-.3,1.1l-6.56,3.79c-.13.07-.27.11-.4.11v-.01Z" fill="#455a64"/><path d="M319.22,52.17c-.28,0-.55-.14-.7-.4-.22-.39-.09-.88.3-1.1l6.56-3.79c.39-.23.88-.09,1.1.3s.09.88-.3,1.1l-6.56,3.79c-.13.07-.27.11-.4.11v-.01Z" fill="#455a64"/><path d="M319.22,55.96c-.28,0-.55-.14-.7-.4-.22-.39-.09-.88.3-1.1l6.56-3.79c.39-.23.88-.09,1.1.3s.09.88-.3,1.1l-6.56,3.79c-.13.07-.27.11-.4.11v-.01Z" fill="#455a64"/></g></g></g><g><g opacity="0.5"><path d="M93.03,197.61c-.28,0-.55-.14-.7-.4-.22-.39-.09-.88.3-1.1l6.56-3.79c.39-.22.88-.09,1.1.3s.09.88-.3,1.1l-6.56,3.79c-.13.07-.27.11-.4.11v-.01Z" fill="#455a64"/><path d="M93.03,201.39c-.28,0-.55-.14-.7-.4-.22-.39-.09-.88.3-1.1l6.56-3.79c.39-.22.88-.09,1.1.3s.09.88-.3,1.1l-6.56,3.79c-.13.07-.27.11-.4.11v-.01Z" fill="#455a64"/><path d="M93.03,205.18c-.28,0-.55-.14-.7-.4-.22-.39-.09-.88.3-1.1l6.56-3.79c.39-.22.88-.09,1.1.3s.09.88-.3,1.1l-6.56,3.79c-.13.07-.27.11-.4.11v-.01Z" fill="#455a64"/></g><g><path d="M151.21,164.21v5.81c0,1.19.84,1.67,1.87,1.08l77.93-45.06v-10.13c0,0-77.93,45.06-77.93,45.06-1.03.59-1.87,2.05-1.87,3.24Z" fill="#e6e6e6"/><path d="M240.83,110.24c1.03-.6,1.87-.11,1.87,1.08v5.81c0,1.19-.84,2.64-1.87,3.24L231,126.04v-10.13c0,0,9.83-5.67,9.83-5.67Z" fill="#27debf"/><path d="M240.1,118.21l-1.1-.34c.11-.46.18-.94.18-1.41c0-1.12-.36-1.97-1-2.34-.47-.27-1.04-.25-1.6.08-1.23.71-2.19,2.71-2.19,4.56c0,1.12.36,1.97,1,2.34.22.12.45.19.69.19.29,0,.6-.09.9-.26.74-.43,1.38-1.32,1.77-2.37l1.1.34c0,0,.08.02.12.02.17,0,.33-.11.39-.29.07-.21-.05-.44-.27-.51l.01-.01Zm-3.51,2.1c-.3.18-.57.2-.78.08-.37-.21-.59-.84-.59-1.64c0-1.53.82-3.3,1.78-3.85.18-.1.34-.15.49-.15.11,0,.2.03.29.08.37.21.59.84.59,1.64c0,1.53-.82,3.3-1.78,3.85v-.01Z" fill="#fafafa"/></g><path d="M118.82,180.75l-11.25,6.51c-1.03.59-1.86,2.04-1.86,3.23v5.79c0,1.19.83,1.67,1.86,1.08l11.25-6.51c1.03-.59,1.86-2.04,1.86-3.23v-5.79c0-1.19-.83-1.67-1.86-1.08Z" fill="#27debf"/><g><path d="M314.47,67.78c-2.42,1.4-4.38,4.8-4.38,7.6s1.96,3.93,4.39,2.53c2.42-1.4,4.39-4.8,4.38-7.6c0-2.8-1.97-3.93-4.39-2.53Z" fill="#27debf"/><g><path d="M313.96,72.24c-.14,0-.27-.03-.39-.1-.27-.16-.42-.47-.42-.88c0-.75.51-1.63,1.15-2v0c.35-.2.7-.23.97-.07s.42.47.42.88c0,.75-.51,1.63-1.15,2-.2.12-.4.17-.58.17Z" fill="#fff"/><path d="M316.2,72.53c-.43-.25-.98-.21-1.54.12l-.64.37c-1.11.64-1.97,2.14-1.97,3.42v.45c.62.35,1.48.29,2.42-.26.94-.54,1.8-1.47,2.42-2.54v-.11c0-.67-.25-1.2-.69-1.45Z" fill="#fff"/></g></g><g><path d="M298.96,81.35v-1.55c0-1.77-1.07-2.58-2.4-1.81v0c-1.32.76-2.4,2.82-2.4,4.58v1.38c0,.87-.3,1.86-.81,2.7c0,0,0,0,0,0-.12.22-.2.47-.2.71v0c0,.45.27.65.6.46l5.6-3.23c.33-.19.6-.71.6-1.15v0c0-.22-.07-.38-.18-.47c0,0,0,0,0,0-.5-.22-.82-.78-.82-1.62h.01Z" fill="#27debf"/><path d="M297.72,86.02c0,.85-.52,1.83-1.15,2.2-.64.37-1.15-.02-1.15-.87l2.3-1.33Z" fill="#27debf"/></g><path d="M278.28,88.71c.34-.2.67-.31.97-.34.31-.03.57.02.79.15s.4.34.53.62.19.63.19,1.06c0,.34-.04.66-.11.96s-.17.58-.28.86c-.11.27-.24.53-.37.78-.13.24-.27.48-.39.72-.13.23-.24.47-.34.7s-.17.46-.21.69c-.02.11-.05.22-.09.32s-.09.17-.16.21l-1.12.65c-.07.04-.13.04-.18-.01s-.07-.12-.07-.23c0-.31.04-.62.12-.91s.19-.58.31-.85.26-.54.4-.79.28-.49.4-.72.23-.44.31-.65.12-.41.12-.6c0-.27-.07-.45-.2-.53s-.34-.04-.63.13c-.28.16-.47.34-.59.54s-.21.39-.26.57c-.06.18-.1.35-.14.5s-.12.26-.23.33l-1.13.65c-.05.03-.1.03-.14,0s-.06-.1-.06-.19c0-.33.07-.72.18-1.15.12-.43.28-.86.5-1.3.22-.43.49-.84.8-1.22s.67-.69,1.08-.92v-.03Zm.8,9.23c0,.1-.02.21-.07.31s-.11.18-.17.22l-1.16.67c-.07.04-.13.03-.17-.01-.05-.05-.07-.12-.07-.23v-1.43c0-.1.02-.21.07-.31s.11-.18.17-.21l1.16-.67c.07-.04.13-.03.17.01.05.05.07.12.07.23v1.43-.01Z" fill="#27debf"/></g></g><g id="exFGjgrCDsa169" transform="matrix(.432554 0 0 0.432554 117.030079 124.103101)"><g><path d="M151.32,268.85c-.92,0-1.77-.35-2.46-1.02-.9-.86-1.36-2.09-1.36-3.64v-7.4l-19.78,11.42c-.63.36-1.29.55-1.95.55-.92,0-1.77-.35-2.46-1.02-.9-.87-1.36-2.09-1.36-3.64v-12.19c0-2.29.38-4.45,1.14-6.41l22.34-56.27c.54-1.34,1.06-2.31,1.57-2.98.58-.75,1.34-1.39,2.26-1.93l11.28-6.51c.63-.36,1.29-.55,1.95-.55.92,0,1.76.35,2.45,1.01.91.88,1.37,2.1,1.37,3.64v39.83l2.67-1.54c.63-.36,1.28-.55,1.95-.55.91,0,1.76.35,2.45,1c.92.89,1.37,2.11,1.37,3.65v12.19c0,1.21-.28,2.42-.84,3.6-.62,1.31-1.43,2.26-2.43,2.84l-5.18,2.99v10.29c0,1.21-.28,2.42-.84,3.6-.62,1.31-1.44,2.27-2.44,2.84l-9.78,5.65c-.63.37-1.29.55-1.95.55h.03Zm-6.88-34.47l3.43-1.98v-6.65l-3.43,8.63Z" fill="#e0e0e0"/><path d="M193.05,243.85c-.2,0-.4,0-.6-.01-3.33-.16-6.14-1.4-8.35-3.68-2.06-2.12-3.61-5.07-4.58-8.77-.91-3.45-1.46-7.34-1.61-11.56-.1-3.09-.15-6.49-.15-10.13s.05-7.17.15-10.51c.16-4.37.69-8.8,1.58-13.21.9-4.46,2.29-8.75,4.14-12.78c1.85-4.04,4.22-7.81,7.03-11.2c2.87-3.45,6.34-6.37,10.31-8.66c3.94-2.27,7.34-3.38,10.41-3.38.2,0,.4,0,.6.01c3.33.17,6.14,1.41,8.35,3.68c2.07,2.13,3.61,5.08,4.58,8.77.91,3.46,1.46,7.35,1.61,11.56.1,3.31.15,6.79.15,10.36s-.05,7.03-.15,10.28c-.16,4.36-.69,8.8-1.58,13.21-.9,4.46-2.3,8.76-4.14,12.78-1.85,4.04-4.22,7.81-7.03,11.2-2.87,3.45-6.34,6.37-10.31,8.66-3.94,2.27-7.34,3.38-10.41,3.38Zm12.53-68.59c-.22,0-.86.08-2.12.81-1.21.7-2.23,1.57-3.02,2.57-.84,1.07-1.52,2.26-2.03,3.56-.53,1.37-.94,2.88-1.21,4.48-.28,1.66-.44,3.43-.49,5.24-.25,6.45-.25,12.88,0,19.16.05,1.77.2,3.32.44,4.65.25,1.33.62,2.02.88,2.38.25.33.46.41.71.44c0,0,.01,0,.02,0c.31,0,.95-.09,2.18-.8c1.21-.7,2.23-1.56,3.02-2.57.85-1.08,1.54-2.29,2.07-3.6.55-1.36.95-2.85,1.19-4.42.26-1.65.41-3.42.46-5.25.2-6.56.2-13.01,0-19.18-.09-1.68-.27-3.24-.52-4.58-.2-1.07-.51-1.92-.89-2.46-.21-.29-.38-.37-.63-.4h-.07l.01-.03Z" fill="#e0e0e0"/><path d="M260.99,205.53c-.92,0-1.77-.35-2.46-1.02-.9-.86-1.36-2.09-1.36-3.64v-7.4l-19.78,11.42c-.63.36-1.29.55-1.95.55-.92,0-1.77-.35-2.46-1.02-.9-.87-1.36-2.09-1.36-3.64v-12.19c0-2.29.38-4.45,1.14-6.41l22.34-56.27c.54-1.34,1.06-2.31,1.57-2.98.58-.75,1.34-1.39,2.26-1.93l11.28-6.51c.63-.36,1.29-.55,1.95-.55.92,0,1.76.35,2.45,1.01.91.88,1.37,2.1,1.37,3.64v39.83l2.67-1.54c.63-.36,1.28-.55,1.95-.55.91,0,1.76.35,2.45,1c.92.89,1.37,2.11,1.37,3.65v12.19c0,1.21-.28,2.42-.84,3.6-.62,1.31-1.43,2.26-2.43,2.84l-5.18,2.99v10.29c0,1.21-.28,2.42-.83,3.6-.62,1.31-1.44,2.27-2.44,2.84l-9.78,5.65c-.63.37-1.29.55-1.95.55h.02Zm-6.87-34.47l3.43-1.98v-6.65l-3.43,8.63Z" fill="#e0e0e0"/></g><g><g><path d="M180.24,227.52c-.08-.08-.16-.14-.25-.19-.34-.19-7.59-4.38-7.59-4.38v-35.98c0-.84-.2-1.45-.6-1.84-.08-.07-.16-.14-.24-.18-.35-.2-8.03-4.64-8.11-4.68-.35-.21-.75-.18-1.19.07l-11.28,6.51c-.65.38-1.16.8-1.53,1.29-.37.48-.78,1.28-1.23,2.38l-22.33,56.25c-.65,1.68-.97,3.51-.97,5.51v12.19c0,.84.2,1.46.6,1.84.08.08.17.14.25.19.34.19,8.03,4.64,8.11,4.68.34.2.74.17,1.18-.08l15.41-8.9v2.35c0,.84.2,1.46.6,1.84.08.08.16.14.24.19.34.2,8.04,4.64,8.12,4.69.34.2.74.17,1.18-.08l9.78-5.65c.55-.31,1.02-.89,1.42-1.74.4-.84.6-1.69.6-2.53v-11.73l6.42-3.71c.55-.32,1.02-.89,1.42-1.74.4-.84.6-1.69.6-2.53v-12.19c0-.84-.2-1.46-.6-1.84l-.01-.01Z" fill="#27debf"/><g><path d="M157.52,192.82l-.04.14c-.35.49-.73,1.24-1.14,2.25l-22.33,56.25c-.29.74-.51,1.51-.66,2.31l-8.18-4.72c.16-.79.37-1.55.65-2.28l22.33-56.25c.45-1.1.86-1.9,1.24-2.38c0,0,0-.01,0-.01l8.12,4.69h.01Z" opacity="0.15"/><path d="M133.78,271.12c-.92-.53-7.69-4.44-8.02-4.62-.08-.05-.17-.12-.25-.2-.4-.38-.6-.99-.6-1.84v-12.18c0-1.12.12-2.18.32-3.2l8.12,4.69c-.21,1.01-.31,2.08-.31,3.2v12.19c0,.84.2,1.45.59,1.83.05.05.1.09.15.13Z" opacity="0.3"/><polygon points="158.96,217.74 158.96,238.9 152.12,234.95 158.96,217.74" opacity="0.3"/><polygon points="158.96,238.9 148.05,245.19 152.12,234.95 158.96,238.9" opacity="0.4"/><path d="M159.18,271.08c.05.04.09.08.14.12-.91-.52-7.7-4.44-8.02-4.62-.09-.05-.17-.11-.24-.19-.4-.38-.6-1-.6-1.84v-2.35l8.12-4.69v11.73c0,.84.2,1.46.6,1.84Z" opacity="0.3"/><path d="M179.9,227.29c-.32-.14-.68-.1-1.07.13l-6.43,3.71v-8.17c0,0,6.61,3.81,7.5,4.33Z" opacity="0.15"/><path d="M171.51,184.92c-.33-.17-.71-.13-1.13.11l-11.27,6.51c-.65.38-1.15.8-1.53,1.28l-8.12-4.69c.37-.48.88-.9,1.52-1.28l11.28-6.51c.45-.26.84-.28,1.19-.07.08.04,7.3,4.21,8.06,4.65Z" opacity="0.4" fill="#fff"/></g><path d="M160.6,271.18c-.55.32-1.02.28-1.42-.1s-.6-1-.6-1.84v-11.73L135.05,271.1c-.55.32-1.02.28-1.42-.1s-.6-1-.6-1.84v-12.19c0-1.99.32-3.83.97-5.51l22.33-56.25c.45-1.1.86-1.89,1.23-2.38.37-.48.88-.91,1.53-1.29l11.28-6.51c.55-.31,1.02-.28,1.42.1s.6,1,.6,1.84v44.16l6.42-3.71c.55-.32,1.02-.28,1.42.1.4.39.6,1,.6,1.84v12.19c0,.84-.2,1.69-.6,2.53-.4.85-.87,1.42-1.42,1.74l-6.42,3.71v11.73c0,.85-.2,1.69-.6,2.53s-.87,1.42-1.42,1.74l-9.78,5.65h.01Zm-1.65-32.28v-21.16L148.04,245.2l10.91-6.3Z" fill="#27debf"/></g><g><path d="M232.6,179.12c-.15-4.05-.66-7.72-1.53-11.02-.87-3.29-2.19-5.84-3.96-7.66-.62-.64-1.3-1.17-2.04-1.6-1.36-.79-7.4-4.27-8.14-4.7-1.35-.79-2.9-1.23-4.63-1.31-2.69-.13-5.9.88-9.64,3.03-3.73,2.16-6.95,4.86-9.64,8.09-2.69,3.24-4.92,6.79-6.68,10.64-1.77,3.86-3.09,7.94-3.96,12.23-.87,4.3-1.38,8.56-1.53,12.79-.1,3.36-.15,6.83-.15,10.44s.05,6.95.15,10.03c.15,4.05.66,7.73,1.53,11.02s2.19,5.85,3.96,7.66c.62.64,1.29,1.17,2.02,1.6c1.36.8,7.48,4.33,8.26,4.77c1.33.75,2.83,1.16,4.52,1.25c2.69.13,5.9-.88,9.64-3.03c3.73-2.16,6.95-4.86,9.64-8.09c2.69-3.24,4.92-6.79,6.68-10.64c1.77-3.85,3.09-7.93,3.96-12.23s1.38-8.56,1.53-12.79c.1-3.2.15-6.6.15-10.21s-.05-7.02-.15-10.27h.01Zm-29.51,40.87c-.15-1.14-.25-2.39-.29-3.77-.25-6.37-.25-12.81,0-19.32.05-1.94.22-3.81.52-5.59s.75-3.44,1.34-4.97c.6-1.53,1.39-2.93,2.39-4.2.88-1.12,1.97-2.07,3.25-2.88.16,1.14.28,2.38.36,3.72.2,6.25.2,12.69,0,19.32-.05,1.95-.21,3.8-.49,5.57-.27,1.77-.72,3.43-1.34,4.97-.62,1.55-1.43,2.96-2.43,4.22-.9,1.14-2.01,2.11-3.31,2.92v.01Z" fill="#27debf"/><g><path d="M196.42,245.01c-1.35-.77-6.78-3.9-8.05-4.64-.73-.43-1.4-.97-2.02-1.6-1.77-1.82-3.09-4.37-3.96-7.66s-1.38-6.97-1.53-11.02c-.1-3.09-.15-6.43-.15-10.03s.05-7.09.15-10.44c.15-4.23.66-8.49,1.53-12.79.61-3.03,1.45-5.94,2.52-8.75l8.11,4.7c-1.06,2.8-1.89,5.72-2.5,8.74-.88,4.3-1.39,8.56-1.54,12.79-.1,3.35-.15,6.83-.15,10.44s.05,6.94.15,10.03c.15,4.05.66,7.73,1.54,11.02.86,3.29,2.19,5.85,3.95,7.66.59.61,1.25,1.13,1.95,1.55Z" opacity="0.15"/><path d="M224.77,158.67c-1.28-.68-2.73-1.06-4.34-1.15-2.69-.13-5.9.88-9.64,3.03-3.73,2.16-6.94,4.86-9.63,8.1s-4.92,6.78-6.69,10.64c-.27.58-.52,1.17-.77,1.77-.23.57-.45,1.14-.67,1.72h-.01l-8.11-4.7c.19-.51.39-1.02.6-1.52.27-.66.54-1.31.84-1.96c1.77-3.86,4-7.4,6.68-10.65c2.69-3.23,5.91-5.93,9.64-8.09s6.95-3.16,9.64-3.03c1.73.09,3.28.52,4.63,1.31.7.41,6.04,3.48,7.83,4.53Z" opacity="0.4" fill="#fff"/><path d="M218.79,207c-.05,1.94-.22,3.8-.49,5.57s-.72,3.42-1.34,4.97c-.27.67-.58,1.32-.93,1.94l-8.12-4.69c.34-.62.65-1.27.92-1.94.62-1.55,1.07-3.2,1.35-4.97.27-1.77.43-3.63.48-5.57.2-6.63.2-13.07,0-19.32-.07-1.35-.19-2.59-.35-3.73c0,0,.21-.15.48-.31c1.49-.89,2.74-1.23,3.74-1.12.99.12,1.79.6,2.39,1.44s1.03,1.99,1.31,3.44c.27,1.45.46,3.11.56,4.97.19,6.25.19,12.69,0,19.32Z" opacity="0.3"/><path d="M216.03,219.48c-.44.81-.94,1.57-1.5,2.28-1,1.27-2.24,2.33-3.74,3.19-1.49.87-2.73,1.24-3.73,1.12-1-.11-1.81-.58-2.43-1.41s-1.07-1.97-1.34-3.42c-.08-.4-.14-.82-.2-1.25c1.3-.81,2.42-1.78,3.31-2.92.56-.71,1.07-1.47,1.51-2.28l8.12,4.69Z" opacity="0.4"/></g><path d="M210.79,160.55c3.73-2.16,6.95-3.17,9.64-3.03s4.92,1.11,6.68,2.93c1.77,1.82,3.09,4.37,3.96,7.66s1.38,6.96,1.53,11.02c.1,3.24.15,6.66.15,10.27s-.05,7.01-.15,10.2c-.15,4.23-.66,8.49-1.53,12.79s-2.19,8.38-3.96,12.23c-1.77,3.86-4,7.41-6.68,10.64-2.69,3.24-5.9,5.94-9.64,8.09-3.73,2.16-6.95,3.17-9.64,3.03-2.69-.13-4.92-1.11-6.68-2.93-1.77-1.81-3.09-4.37-3.96-7.66s-1.38-6.96-1.53-11.02c-.1-3.09-.15-6.43-.15-10.03s.05-7.08.15-10.44c.15-4.23.66-8.49,1.53-12.79s2.19-8.38,3.96-12.23c1.77-3.86,4-7.4,6.68-10.64c2.69-3.24,5.9-5.94,9.64-8.09ZM218.78,207c.2-6.63.2-13.07,0-19.32-.1-1.86-.29-3.51-.56-4.97-.27-1.45-.71-2.6-1.31-3.44s-1.4-1.32-2.39-1.44c-1-.12-2.24.26-3.73,1.12s-2.74,1.93-3.73,3.19c-1,1.27-1.79,2.67-2.39,4.2-.6,1.54-1.04,3.19-1.34,4.97s-.47,3.65-.52,5.59c-.25,6.51-.25,12.95,0,19.32.05,1.89.21,3.56.49,5.01.27,1.45.72,2.59,1.34,3.42s1.43,1.3,2.43,1.42s2.24-.26,3.73-1.12s2.74-1.93,3.73-3.19c1-1.26,1.81-2.67,2.43-4.22s1.07-3.21,1.34-4.97c.27-1.77.43-3.62.49-5.57h-.01Z" fill="#27debf"/></g><g><path d="M289.92,164.2c-.08-.08-.16-.14-.25-.19-.34-.19-7.59-4.38-7.59-4.38v-35.98c0-.84-.2-1.45-.6-1.84-.08-.07-.16-.14-.24-.18-.35-.2-8.03-4.64-8.11-4.68-.35-.21-.75-.18-1.19.07l-11.28,6.51c-.65.38-1.16.8-1.53,1.29-.37.48-.78,1.28-1.23,2.38l-22.33,56.25c-.65,1.68-.97,3.51-.97,5.51v12.19c0,.84.2,1.46.6,1.84.08.08.17.14.25.19.34.19,8.03,4.64,8.11,4.68.34.2.74.17,1.18-.08l15.41-8.9v2.35c0,.84.2,1.46.6,1.84.08.08.16.14.24.19.34.2,8.04,4.64,8.12,4.69.34.2.74.17,1.18-.08l9.78-5.65c.55-.31,1.02-.89,1.42-1.74.4-.84.6-1.69.6-2.53v-11.73l6.42-3.71c.55-.32,1.02-.89,1.42-1.74.4-.84.6-1.69.6-2.53v-12.19c0-.84-.2-1.46-.6-1.84l-.01-.01Z" fill="#27debf"/><g><path d="M267.19,129.5l-.04.14c-.35.49-.73,1.24-1.14,2.25l-22.33,56.25c-.29.74-.51,1.51-.66,2.31l-8.18-4.72c.16-.79.37-1.55.65-2.28l22.33-56.25c.45-1.1.86-1.9,1.24-2.38c0,0,0-.01,0-.01l8.12,4.69h.01Z" opacity="0.15"/><path d="M243.45,207.8c-.92-.53-7.69-4.44-8.02-4.62-.08-.05-.17-.12-.25-.2-.4-.38-.6-.99-.6-1.84v-12.18c0-1.12.12-2.18.32-3.2l8.12,4.69c-.21,1.01-.31,2.08-.31,3.2v12.19c0,.84.2,1.45.59,1.83.05.05.1.09.15.13Z" opacity="0.3"/><polygon points="268.63,154.42 268.63,175.58 261.79,171.63 268.63,154.42" opacity="0.3"/><polygon points="268.63,175.58 257.72,181.87 261.79,171.63 268.63,175.58" opacity="0.4"/><path d="M268.85,207.76c.05.04.09.08.14.12-.91-.52-7.7-4.44-8.02-4.62-.09-.05-.17-.11-.24-.19-.4-.38-.6-1-.6-1.84v-2.35l8.12-4.69v11.73c0,.84.2,1.46.6,1.84Z" opacity="0.3"/><path d="M289.57,163.97c-.32-.14-.68-.1-1.07.13l-6.43,3.71v-8.17c0,0,6.61,3.81,7.5,4.33Z" opacity="0.15"/><path d="M281.18,121.6c-.33-.17-.71-.13-1.13.11l-11.27,6.51c-.65.38-1.15.8-1.53,1.28l-8.12-4.69c.37-.48.88-.9,1.52-1.28l11.28-6.51c.45-.26.84-.28,1.19-.07.08.04,7.3,4.21,8.06,4.65Z" opacity="0.4" fill="#fff"/></g><path d="M270.27,207.86c-.55.32-1.02.28-1.42-.1s-.6-1-.6-1.84v-11.73l-23.53,13.59c-.55.32-1.02.28-1.42-.1s-.6-1-.6-1.84v-12.19c0-1.99.32-3.83.97-5.51L266,131.89c.45-1.1.86-1.89,1.23-2.38.37-.48.88-.91,1.53-1.29l11.28-6.51c.55-.31,1.02-.28,1.42.1s.6,1,.6,1.84v44.16l6.42-3.71c.55-.32,1.02-.28,1.42.1.4.39.6,1,.6,1.84v12.19c0,.84-.2,1.69-.6,2.53-.4.85-.87,1.42-1.42,1.74l-6.42,3.71v11.73c0,.85-.2,1.69-.6,2.53s-.87,1.42-1.42,1.74l-9.78,5.65h.01Zm-1.64-32.29v-21.16l-10.91,27.46l10.91-6.3Z" fill="#27debf"/></g></g><g><path d="M190.98,278.66c.12-.07.23-.06.32.02.09.09.13.23.13.42v2.76c0,.19-.04.38-.13.57s-.2.32-.32.39l-8.02,4.63c-.12.07-.23.06-.32-.02-.09-.09-.14-.22-.14-.42v-16.83c0-.19.04-.38.14-.57.09-.19.2-.32.32-.39l7.88-4.55c.12-.07.23-.06.32.02.09.09.14.23.14.42v2.76c0,.19-.04.38-.14.57-.09.19-.2.32-.32.39l-5.21,3.01v2.81l4.84-2.79c.12-.07.23-.06.32.02.09.09.14.23.14.42v2.76c0,.19-.04.38-.14.57-.09.19-.2.32-.32.39l-4.84,2.79v2.92l5.35-3.09v.02Z" fill="#455a64"/><path d="M198.85,260.05c.74-.43,1.41-.69,2-.79.59-.09,1.09-.02,1.5.23s.73.69.95,1.31c.22.63.33,1.45.33,2.45c0,1.3-.18,2.48-.52,3.55-.35,1.06-.85,2-1.49,2.83l2.1,4.99c.03.08.05.17.05.26c0,.16-.04.31-.11.47-.07.15-.16.26-.26.32L201.1,277c-.23.13-.39.14-.48.04-.1-.1-.17-.21-.23-.34l-1.88-4.49-1.56.9v5.57c0,.19-.05.38-.13.57-.09.19-.2.32-.32.39l-2.22,1.28c-.12.07-.23.06-.32-.02-.09-.09-.14-.23-.14-.42v-16.83c0-.19.04-.38.14-.57.09-.19.2-.32.32-.39l4.58-2.65-.01.01Zm-1.91,8.99l1.91-1.1c.47-.27.87-.64,1.18-1.09.31-.46.46-1.05.46-1.78s-.16-1.14-.46-1.24c-.31-.1-.7-.01-1.18.26l-1.91,1.1v3.85Z" fill="#455a64"/><path d="M211.03,253.02c.74-.43,1.41-.69,2-.79.59-.09,1.09-.02,1.5.23s.73.69.95,1.32.33,1.45.33,2.45c0,1.3-.17,2.48-.52,3.55-.35,1.06-.85,2-1.49,2.83l2.1,4.99c.03.09.05.17.05.26c0,.16-.04.31-.11.47-.07.15-.16.26-.26.32l-2.3,1.33c-.23.13-.39.14-.48.04s-.17-.21-.23-.34l-1.88-4.49-1.56.9v5.57c0,.19-.05.38-.14.57s-.2.32-.32.39l-2.22,1.28c-.12.07-.23.06-.32-.02-.09-.09-.14-.23-.14-.42v-16.83c0-.19.04-.38.14-.57s.2-.32.32-.39l4.59-2.65h-.01Zm-1.91,8.99l1.91-1.1c.47-.27.87-.64,1.18-1.1s.47-1.05.47-1.78-.16-1.14-.47-1.24-.7-.01-1.18.26l-1.91,1.1v3.86Z" fill="#455a64"/><path d="M217.78,255.92c.03-.99.17-1.99.41-2.99s.59-1.94,1.03-2.84c.45-.89.99-1.71,1.62-2.45.64-.74,1.37-1.35,2.21-1.84.82-.47,1.56-.71,2.2-.71s1.19.19,1.63.57c.45.38.79.92,1.03,1.64s.38,1.56.41,2.51c.02.73.03,1.51.03,2.33s-.01,1.59-.03,2.31c-.03.99-.17,1.99-.41,2.99s-.59,1.95-1.03,2.85c-.45.9-.99,1.72-1.63,2.45-.64.74-1.38,1.34-2.2,1.82-.83.48-1.57.72-2.21.73-.64,0-1.18-.19-1.62-.57-.44-.39-.79-.94-1.03-1.66s-.38-1.56-.41-2.51c-.02-.7-.03-1.46-.03-2.27s.01-1.6.03-2.36Zm7.42.21c.01-.32.02-.67.03-1.06s.02-.78.02-1.18s0-.78-.02-1.15c-.01-.37-.02-.69-.03-.98-.02-.42-.08-.79-.18-1.09-.1-.31-.23-.55-.41-.72-.17-.17-.39-.25-.65-.26-.26,0-.56.09-.91.29s-.65.46-.91.76c-.26.31-.48.64-.65,1.01s-.31.77-.41,1.19-.16.85-.18,1.3c-.02.31-.04.65-.04,1.03s0,.76,0,1.16s0,.79,0,1.17.02.72.04,1.02c.04.84.24,1.45.58,1.83.34.37.87.36,1.56-.04.7-.4,1.22-.99,1.56-1.76s.54-1.6.59-2.5l.01-.02Z" fill="#455a64"/><path d="M235.78,238.73c.74-.43,1.41-.69,2-.79.59-.09,1.09-.02,1.5.23s.73.69.95,1.31c.22.63.33,1.45.33,2.46c0,1.3-.17,2.48-.52,3.54s-.85,2-1.49,2.83l2.1,4.99c.03.08.05.17.05.26c0,.16-.04.31-.11.47-.07.15-.16.26-.26.32l-2.3,1.33c-.23.13-.39.14-.48.04-.1-.1-.17-.21-.23-.34l-1.88-4.49-1.56.9v5.57c0,.19-.05.38-.14.57s-.2.32-.32.39l-2.22,1.28c-.12.07-.23.06-.32-.02-.09-.09-.13-.23-.13-.42v-16.83c0-.19.04-.38.13-.57s.2-.32.32-.39l4.59-2.65-.01.01Zm-1.91,8.99l1.91-1.1c.47-.27.87-.64,1.18-1.09.31-.46.46-1.05.46-1.78s-.16-1.14-.46-1.24c-.31-.1-.7-.01-1.18.26l-1.91,1.1v3.85Z" fill="#455a64"/></g><g><path d="M160.47,307.46c1.04-.6,1.86-.69,2.44-.27s.87,1.37.87,2.83-.29,2.75-.87,3.85c-.58,1.11-1.39,1.96-2.44,2.56l-2.08,1.2v4.45c0,.15-.03.29-.1.44s-.15.25-.25.3l-1.05.61c-.1.06-.18.05-.25-.02s-.1-.17-.1-.32v-12.89c0-.15.03-.29.1-.44s.15-.25.25-.3l3.47-2.01.01.01Zm-2.07,7.68l2.01-1.16c.49-.28.89-.66,1.18-1.13s.44-1.08.44-1.82-.15-1.18-.44-1.29c-.29-.12-.69-.03-1.18.25l-2.01,1.16v3.99Z" fill="#e0e0e0"/><path d="M169.24,302.4c.14-.08.24-.08.31,0c.07.07.13.21.18.4l3.18,10.78c0,0,.01.08.01.13c0,.15-.03.29-.1.44s-.15.25-.25.3l-.93.54c-.17.1-.29.11-.36.04s-.12-.15-.14-.25l-.56-1.89-4.1,2.37-.56,2.54c-.03.12-.07.26-.14.41s-.19.28-.36.38l-.93.54c-.09.05-.18.05-.25-.02-.07-.06-.1-.17-.1-.32c0-.05,0-.1.01-.15l3.18-14.45c.05-.26.11-.46.18-.61s.17-.27.31-.35l1.43-.82-.01-.01Zm.71,8.35l-1.43-4.87-1.43,6.51l2.85-1.65.01.01Z" fill="#e0e0e0"/><path d="M173.92,304.87c.02-.81.11-1.59.29-2.35.17-.76.42-1.47.75-2.13s.73-1.26,1.21-1.8s1.04-.99,1.68-1.36c.75-.43,1.37-.64,1.86-.62s.88.15,1.17.41c.29.25.49.57.61.94.12.38.18.72.2,1.01c0,.16-.02.3-.1.45s-.16.24-.25.3l-1.05.61c-.1.06-.17.06-.23.02s-.1-.09-.12-.16c-.02-.04-.06-.13-.14-.27-.07-.14-.19-.26-.35-.36s-.37-.15-.63-.16c-.26,0-.58.11-.97.33-.65.37-1.17.94-1.56,1.71-.39.76-.6,1.6-.62,2.53-.02.52-.03,1.06-.03,1.64s0,1.12.03,1.61c.03,1.09.23,1.77.62,2.05.39.27.91.23,1.56-.15.32-.18.61-.41.88-.67s.5-.57.69-.92.35-.75.45-1.21c.11-.46.16-.97.16-1.54v-.16l-1.58.91c-.1.05-.18.05-.25-.02s-.1-.17-.1-.32v-1.42c0-.15.03-.29.1-.44s.15-.25.25-.3l2.98-1.72c.1-.06.18-.05.25.02s.1.17.1.32v2.2c0,.8-.08,1.58-.25,2.35-.16.77-.41,1.49-.74,2.16-.33.68-.74,1.29-1.23,1.85s-1.07,1.03-1.72,1.4c-.66.38-1.23.58-1.71.59s-.89-.13-1.21-.42c-.32-.3-.56-.73-.73-1.3-.17-.58-.26-1.26-.28-2.04c0-.25-.01-.52-.02-.83c0-.3,0-.61,0-.93s0-.63,0-.94.01-.59.02-.85l.01-.02Z" fill="#e0e0e0"/><path d="M189.78,302.01c.09-.05.18-.05.25.02s.1.17.1.32v1.42c0,.15-.04.29-.1.44-.07.15-.15.25-.25.3l-5.69,3.29c-.1.05-.18.05-.25-.02s-.1-.17-.1-.32v-12.89c0-.15.03-.29.1-.44s.15-.25.25-.3l5.59-3.23c.1-.05.18-.05.25.02s.1.17.1.32v1.42c0,.15-.03.29-.1.44s-.15.25-.25.3l-4.19,2.42v3.17l3.9-2.25c.09-.05.18-.05.25.02s.1.17.1.32v1.42c0,.15-.04.29-.1.44-.07.15-.15.25-.25.3l-3.9,2.25v3.31l4.29-2.48v-.01Z" fill="#e0e0e0"/><path d="M201.23,297.9c-.15.09-.26.09-.34.01s-.13-.14-.17-.18l-3.63-6.21v8.22c0,.15-.03.29-.1.44s-.15.25-.25.3l-1.05.61c-.1.06-.18.05-.25-.02-.07-.06-.1-.17-.1-.32v-12.89c0-.15.03-.29.1-.44s.15-.25.25-.3l.91-.52c.15-.08.26-.09.34-.01.08.07.13.14.17.18l3.63,6.21v-8.22c0-.15.03-.29.1-.44s.15-.25.25-.3l1.05-.61c.09-.05.18-.05.25.02s.1.17.1.32v12.89c0,.15-.04.29-.1.44-.07.15-.15.25-.25.3l-.91.52Z" fill="#e0e0e0"/><path d="M204.52,287.23c.03-.76.12-1.51.28-2.27.16-.75.4-1.46.71-2.12.31-.67.7-1.28,1.17-1.83s1.02-1.02,1.66-1.39c.63-.36,1.18-.54,1.65-.53.47,0,.86.17,1.17.48s.55.75.71,1.3c.16.56.26,1.21.29,1.95c0,.25.01.52.02.83c0,.3,0,.62,0,.94s0,.64,0,.95-.01.59-.02.85c-.03.76-.12,1.52-.28,2.27s-.4,1.46-.71,2.12c-.31.67-.7,1.27-1.17,1.83-.47.55-1.02,1.01-1.65,1.37-.64.37-1.19.55-1.66.54-.47,0-.86-.17-1.17-.47s-.55-.74-.71-1.31-.25-1.21-.28-1.94c0-.25-.01-.52-.02-.83c0-.3,0-.62,0-.94s0-.64,0-.95.01-.59.02-.85h-.01Zm5.88-3.29c-.03-.94-.24-1.56-.6-1.88-.37-.31-.85-.3-1.46.05s-1.09.89-1.46,1.63-.57,1.59-.6,2.57c-.02.52-.03,1.08-.03,1.7s0,1.18.03,1.67c.04.94.24,1.56.6,1.87.37.31.85.29,1.46-.06.6-.35,1.09-.89,1.46-1.62s.57-1.59.6-2.56c.02-.52.03-1.08.03-1.7s0-1.18-.03-1.67Z" fill="#e0e0e0"/><path d="M220.04,273.07c.09-.05.18-.05.25.02s.1.17.1.32v1.42c0,.15-.04.29-.1.44-.07.15-.15.25-.25.3l-2.33,1.35v10.94c0,.15-.04.29-.1.44-.07.15-.15.25-.25.3l-1.05.61c-.09.05-.18.05-.25-.02s-.1-.17-.1-.32v-10.94l-2.33,1.35c-.09.05-.18.05-.25-.02s-.1-.17-.1-.32v-1.42c0-.15.04-.29.1-.44.07-.15.15-.25.25-.3l6.42-3.71h-.01Z" fill="#e0e0e0"/><path d="M230.85,266.82c.09-.05.18-.05.25.02s.1.17.1.32v1.42c0,.15-.04.29-.1.44-.07.15-.15.25-.25.3l-4.14,2.39v3.87l3.88-2.24c.1-.06.18-.05.25.02s.1.17.1.32v1.42c0,.15-.03.29-.1.44s-.15.25-.25.3l-3.88,2.24v4.57c0,.15-.03.29-.1.44s-.15.25-.25.3l-1.05.61c-.1.06-.18.05-.25-.02s-.1-.17-.1-.32v-12.89c0-.15.03-.29.1-.44s.15-.25.25-.3l5.54-3.2v-.01Z" fill="#e0e0e0"/><path d="M232.62,271.01c.03-.76.12-1.51.28-2.27.16-.75.4-1.46.71-2.12s.7-1.28,1.17-1.83c.47-.56,1.02-1.02,1.66-1.39.63-.36,1.18-.54,1.65-.53.47,0,.86.17,1.17.48s.55.75.71,1.31.26,1.21.29,1.95c0,.25.01.52.02.83c0,.3,0,.62,0,.94s0,.64,0,.95-.01.59-.02.85c-.03.76-.12,1.52-.28,2.27s-.4,1.46-.71,2.12c-.31.67-.7,1.27-1.17,1.82s-1.02,1.01-1.65,1.37c-.64.37-1.19.55-1.66.54s-.85-.17-1.17-.47c-.31-.31-.55-.74-.71-1.31s-.25-1.21-.28-1.95c0-.25-.02-.52-.02-.83c0-.3,0-.62,0-.94s0-.64,0-.95s0-.59.02-.85l-.01.01Zm5.87-3.29c-.04-.94-.24-1.56-.6-1.88-.37-.31-.85-.3-1.46.05s-1.09.89-1.46,1.63-.57,1.59-.6,2.57c-.02.52-.03,1.08-.03,1.7s0,1.18.03,1.67c.03.94.24,1.56.6,1.87.37.31.85.29,1.46-.06.6-.35,1.09-.89,1.46-1.62s.57-1.58.6-2.56c.02-.52.03-1.08.03-1.7s0-1.18-.03-1.67Z" fill="#e0e0e0"/><path d="M249.29,256.18c.09-.05.18-.05.25.02s.1.17.1.32v8.18c0,.82-.08,1.62-.23,2.37-.16.76-.39,1.46-.7,2.12s-.7,1.25-1.17,1.78-1.01.97-1.62,1.32c-.62.36-1.16.54-1.63.55-.46,0-.85-.14-1.16-.44s-.54-.74-.69-1.32-.23-1.28-.23-2.1v-8.18c0-.15.04-.29.1-.44.07-.15.15-.25.25-.3l1.05-.61c.09-.05.18-.05.25.02s.1.17.1.32v8.08c0,.55.05.98.14,1.31s.23.57.4.72.38.21.62.18.51-.12.79-.29c.29-.16.55-.38.8-.63s.46-.56.63-.9c.17-.35.31-.74.41-1.18s.15-.94.15-1.48v-8.08c0-.15.03-.29.1-.44s.15-.25.25-.3l1.04-.6Z" fill="#e0e0e0"/><path d="M257.81,265.23c-.15.08-.26.09-.34.01s-.13-.14-.17-.18l-3.63-6.21v8.22c0,.15-.04.29-.1.44-.07.15-.15.25-.25.3l-1.05.61c-.1.06-.18.05-.25-.02-.07-.06-.1-.17-.1-.32v-12.89c0-.15.03-.29.1-.44s.15-.25.25-.3l.91-.52c.15-.08.26-.09.34-.01.08.07.13.14.17.18l3.63,6.21v-8.22c0-.15.03-.29.1-.44s.15-.25.25-.3l1.05-.61c.09-.05.18-.05.25.02s.1.17.1.32v12.89c0,.15-.03.29-.1.44s-.15.25-.25.3l-.91.52Z" fill="#e0e0e0"/><path d="M264.96,247.13c.64-.37,1.2-.56,1.67-.57s.86.13,1.18.43c.31.3.56.74.73,1.32s.27,1.28.3,2.1c.04.96.04,1.95,0,2.95-.03.86-.14,1.67-.3,2.45-.17.78-.41,1.49-.72,2.15s-.7,1.25-1.16,1.78-1,.97-1.63,1.33l-3.27,1.88c-.09.06-.18.05-.25-.02-.07-.06-.1-.17-.1-.32v-12.89c0-.15.03-.29.1-.44s.15-.25.25-.3l3.2-1.85Zm2.13,4.28c-.02-.42-.07-.78-.16-1.09s-.22-.55-.4-.73c-.18-.17-.4-.25-.67-.25s-.59.11-.96.32l-1.74,1v8.98l1.8-1.04c.35-.2.66-.46.92-.76s.48-.64.65-1c.17-.37.3-.76.39-1.19s.14-.86.16-1.29c.04-1,.04-1.99,0-2.96l.01.01Z" fill="#e0e0e0"/></g></g><g id="exFGjgrCDsa224" transform="translate(-2.993434-163.606855)"><g><g><path d="M411.09,34.94l-50.22,29c-.71.41-1.29,1.42-1.29,2.24v64.2c0,.82.58,1.82,1.3,2.23l4.63,2.6c.72.41,1.88.4,2.59-.01l50.22-29c.71-.41,1.29-1.42,1.29-2.24v-64.21c0-.82-.58-1.82-1.3-2.23l-4.63-2.6c-.72-.41-1.88-.4-2.59.01v.01Z" fill="#27debf"/><path d="M366.81,134.44v-64.2c0-.82.58-1.83,1.29-2.24l50.22-29c.71-.41,1.29-.08,1.29.75v64.2c0,.82-.58,1.83-1.29,2.24l-50.22,29c-.71.41-1.29.08-1.29-.75Z" fill="#27debf"/><path d="M368.11,135.19c-.69.4-1.95.41-2.6.02l-4.63-2.6c-.72-.4-1.3-1.4-1.3-2.22v-64.21c0-.43.16-.9.41-1.32l7.2,4.11c-.24.4-.38.86-.38,1.27v64.2c0,.76.53,1.19,1.29.75h.01Z" opacity="0.2"/><path d="M419.6,39.51c-.1-.65-.63-.88-1.28-.51L368.1,68c-.36.21-.68.56-.91.97l-7.21-4.11c.23-.39.54-.72.89-.92l50.22-29c.71-.41,1.87-.42,2.59-.01l4.63,2.6c.65.37,1.19,1.22,1.28,2l.01-.02Z" opacity="0.4" fill="#fff"/></g><g><path d="M359.58,85.52L349.17,96.1c-.56.56-.36,1.41.2,1.77.21.14,7.2,4.14,7.2,4.14l10.24-12.33-7.23-4.17v.01Z" fill="#27debf"/><path d="M359.58,85.52L349.17,96.1c-.56.56-.36,1.41.2,1.77.21.14,7.2,4.14,7.2,4.14l10.24-12.33-7.23-4.17v.01Z" opacity="0.1"/><path d="M366.81,89.69L356.4,100.27c-.77.78-.1,2.09.98,1.93l9.43-1.36c1.01,0,1.01-11.16,0-11.16v.01Z" fill="#27debf"/></g></g><g><g><line x1="377.3" y1="79.08" x2="384.76" y2="86.26" fill="none" stroke="#455a64" stroke-width="2" stroke-linecap="round" stroke-miterlimit="10"/><line x1="377.3" y1="90.57" x2="384.76" y2="74.77" fill="none" stroke="#455a64" stroke-width="2" stroke-linecap="round" stroke-miterlimit="10"/></g><g><line x1="401.67" y1="65.01" x2="409.13" y2="72.19" fill="none" stroke="#455a64" stroke-width="2" stroke-linecap="round" stroke-miterlimit="10"/><line x1="401.67" y1="76.49" x2="409.13" y2="60.7" fill="none" stroke="#455a64" stroke-width="2" stroke-linecap="round" stroke-miterlimit="10"/></g><line x1="376.97" y1="108.46" x2="409.47" y2="89.7" fill="none" stroke="#455a64" stroke-width="2" stroke-linecap="round" stroke-miterlimit="10"/><path d="M397.28,96.74v9.07c0,2.76,1.82,3.95,4.06,2.65s4.06-4.58,4.06-7.35v-9.07" fill="none" stroke="#455a64" stroke-width="2" stroke-linecap="round" stroke-miterlimit="10"/><line x1="401.34" y1="94.39" x2="401.34" y2="103.15" fill="none" stroke="#455a64" stroke-width="2" stroke-linecap="round" stroke-miterlimit="10"/></g></g>
<script><![CDATA[
!function(t,n){"object"==typeof exports&&"undefined"!=typeof module?module.exports=n():"function"==typeof __SVGATOR_DEFINE__&&__SVGATOR_DEFINE__.amd?__SVGATOR_DEFINE__(n):((t="undefined"!=typeof globalThis?globalThis:t||self).__SVGATOR_PLAYER__=t.__SVGATOR_PLAYER__||{},t.__SVGATOR_PLAYER__["5c7f360c"]=n())}(this,(function(){"use strict";function t(t,n){var e=Object.keys(t);if(Object.getOwnPropertySymbols){var r=Object.getOwnPropertySymbols(t);n&&(r=r.filter((function(n){return Object.getOwnPropertyDescriptor(t,n).enumerable}))),e.push.apply(e,r)}return e}function n(n){for(var e=1;e<arguments.length;e++){var r=null!=arguments[e]?arguments[e]:{};e%2?t(Object(r),!0).forEach((function(t){o(n,t,r[t])})):Object.getOwnPropertyDescriptors?Object.defineProperties(n,Object.getOwnPropertyDescriptors(r)):t(Object(r)).forEach((function(t){Object.defineProperty(n,t,Object.getOwnPropertyDescriptor(r,t))}))}return n}function e(t){return(e="function"==typeof Symbol&&"symbol"==typeof Symbol.iterator?function(t){return typeof t}:function(t){return t&&"function"==typeof Symbol&&t.constructor===Symbol&&t!==Symbol.prototype?"symbol":typeof t})(t)}function r(t,n){if(!(t instanceof n))throw new TypeError("Cannot call a class as a function")}function i(t,n){for(var e=0;e<n.length;e++){var r=n[e];r.enumerable=r.enumerable||!1,r.configurable=!0,"value"in r&&(r.writable=!0),Object.defineProperty(t,r.key,r)}}function u(t,n,e){return n&&i(t.prototype,n),e&&i(t,e),t}function o(t,n,e){return n in t?Object.defineProperty(t,n,{value:e,enumerable:!0,configurable:!0,writable:!0}):t[n]=e,t}function a(t){return(a=Object.setPrototypeOf?Object.getPrototypeOf:function(t){return t.__proto__||Object.getPrototypeOf(t)})(t)}function l(t,n){return(l=Object.setPrototypeOf||function(t,n){return t.__proto__=n,t})(t,n)}function s(){if("undefined"==typeof Reflect||!Reflect.construct)return!1;if(Reflect.construct.sham)return!1;if("function"==typeof Proxy)return!0;try{return Boolean.prototype.valueOf.call(Reflect.construct(Boolean,[],(function(){}))),!0}catch(t){return!1}}function f(t,n,e){return(f=s()?Reflect.construct:function(t,n,e){var r=[null];r.push.apply(r,n);var i=new(Function.bind.apply(t,r));return e&&l(i,e.prototype),i}).apply(null,arguments)}function c(t,n){if(n&&("object"==typeof n||"function"==typeof n))return n;if(void 0!==n)throw new TypeError("Derived constructors may only return object or undefined");return function(t){if(void 0===t)throw new ReferenceError("this hasn't been initialised - super() hasn't been called");return t}(t)}function h(t,n,e){return(h="undefined"!=typeof Reflect&&Reflect.get?Reflect.get:function(t,n,e){var r=function(t,n){for(;!Object.prototype.hasOwnProperty.call(t,n)&&null!==(t=a(t)););return t}(t,n);if(r){var i=Object.getOwnPropertyDescriptor(r,n);return i.get?i.get.call(e):i.value}})(t,n,e||t)}function v(t){return function(t){if(Array.isArray(t))return y(t)}(t)||function(t){if("undefined"!=typeof Symbol&&null!=t[Symbol.iterator]||null!=t["@@iterator"])return Array.from(t)}(t)||function(t,n){if(!t)return;if("string"==typeof t)return y(t,n);var e=Object.prototype.toString.call(t).slice(8,-1);"Object"===e&&t.constructor&&(e=t.constructor.name);if("Map"===e||"Set"===e)return Array.from(t);if("Arguments"===e||/^(?:Ui|I)nt(?:8|16|32)(?:Clamped)?Array$/.test(e))return y(t,n)}(t)||function(){throw new TypeError("Invalid attempt to spread non-iterable instance.\nIn order to be iterable, non-array objects must have a [Symbol.iterator]() method.")}()}function y(t,n){(null==n||n>t.length)&&(n=t.length);for(var e=0,r=new Array(n);e<n;e++)r[e]=t[e];return r}function g(t,n,e){if(Number.isInteger(t))return t;var r=Math.pow(10,n);return Math[e]((+t+Number.EPSILON)*r)/r}Number.isInteger||(Number.isInteger=function(t){return"number"==typeof t&&isFinite(t)&&Math.floor(t)===t}),Number.EPSILON||(Number.EPSILON=2220446049250313e-31);var p=d(Math.pow(10,-6));function d(t){var n=arguments.length>1&&void 0!==arguments[1]?arguments[1]:6;return g(t,n,"round")}function m(t,n){var e=arguments.length>2&&void 0!==arguments[2]?arguments[2]:p;return Math.abs(t-n)<e}d(Math.pow(10,-2)),d(Math.pow(10,-4));var b=Math.PI/180;function w(t){return t*b}function x(t){return t/b}function _(t){return t}function A(t,n,e){var r=1-e;return 3*e*r*(t*r+n*e)+e*e*e}function k(){var t=arguments.length>0&&void 0!==arguments[0]?arguments[0]:0,n=arguments.length>1&&void 0!==arguments[1]?arguments[1]:0,e=arguments.length>2&&void 0!==arguments[2]?arguments[2]:1,r=arguments.length>3&&void 0!==arguments[3]?arguments[3]:1;return t<0||t>1||e<0||e>1?null:m(t,n)&&m(e,r)?_:function(i){if(i<=0)return t>0?i*n/t:0===n&&e>0?i*r/e:0;if(i>=1)return e<1?1+(i-1)*(r-1)/(e-1):1===e&&t<1?1+(i-1)*(n-1)/(t-1):1;for(var u,o=0,a=1;o<a;){var l=A(t,e,u=(o+a)/2);if(m(i,l))break;l<i?o=u:a=u}return A(n,r,u)}}function S(){return 1}function O(t){return 1===t?1:0}function j(){var t=arguments.length>0&&void 0!==arguments[0]?arguments[0]:1,n=arguments.length>1&&void 0!==arguments[1]?arguments[1]:0;if(1===t){if(0===n)return O;if(1===n)return S}var e=1/t;return function(t){return t>=1?1:(t+=n*e)-t%e}}var M=Math.sin,E=Math.cos,P=Math.acos,I=Math.asin,R=Math.tan,F=Math.atan2,N=Math.sqrt,T=function(){function t(){var n=arguments.length>0&&void 0!==arguments[0]?arguments[0]:1,e=arguments.length>1&&void 0!==arguments[1]?arguments[1]:0,i=arguments.length>2&&void 0!==arguments[2]?arguments[2]:0,u=arguments.length>3&&void 0!==arguments[3]?arguments[3]:1,o=arguments.length>4&&void 0!==arguments[4]?arguments[4]:0,a=arguments.length>5&&void 0!==arguments[5]?arguments[5]:0;r(this,t),this.m=[n,e,i,u,o,a],this.i=null,this.w=null,this.s=null}return u(t,[{key:"determinant",get:function(){var t=this.m;return t[0]*t[3]-t[1]*t[2]}},{key:"isIdentity",get:function(){if(null===this.i){var t=this.m;this.i=1===t[0]&&0===t[1]&&0===t[2]&&1===t[3]&&0===t[4]&&0===t[5]}return this.i}},{key:"point",value:function(t,n){var e=this.m;return{x:e[0]*t+e[2]*n+e[4],y:e[1]*t+e[3]*n+e[5]}}},{key:"translateSelf",value:function(){var t=arguments.length>0&&void 0!==arguments[0]?arguments[0]:0,n=arguments.length>1&&void 0!==arguments[1]?arguments[1]:0;if(!t&&!n)return this;var e=this.m;return e[4]+=e[0]*t+e[2]*n,e[5]+=e[1]*t+e[3]*n,this.w=this.s=this.i=null,this}},{key:"rotateSelf",value:function(){var t=arguments.length>0&&void 0!==arguments[0]?arguments[0]:0;if(t%=360){t=w(t);var n=M(t),e=E(t),r=this.m,i=r[0],u=r[1];r[0]=i*e+r[2]*n,r[1]=u*e+r[3]*n,r[2]=r[2]*e-i*n,r[3]=r[3]*e-u*n,this.w=this.s=this.i=null}return this}},{key:"scaleSelf",value:function(){var t=arguments.length>0&&void 0!==arguments[0]?arguments[0]:1,n=arguments.length>1&&void 0!==arguments[1]?arguments[1]:1;if(1!==t||1!==n){var e=this.m;e[0]*=t,e[1]*=t,e[2]*=n,e[3]*=n,this.w=this.s=this.i=null}return this}},{key:"skewSelf",value:function(t,n){if(n%=360,(t%=360)||n){var e=this.m,r=e[0],i=e[1],u=e[2],o=e[3];t&&(t=R(w(t)),e[2]+=r*t,e[3]+=i*t),n&&(n=R(w(n)),e[0]+=u*n,e[1]+=o*n),this.w=this.s=this.i=null}return this}},{key:"resetSelf",value:function(){var t=arguments.length>0&&void 0!==arguments[0]?arguments[0]:1,n=arguments.length>1&&void 0!==arguments[1]?arguments[1]:0,e=arguments.length>2&&void 0!==arguments[2]?arguments[2]:0,r=arguments.length>3&&void 0!==arguments[3]?arguments[3]:1,i=arguments.length>4&&void 0!==arguments[4]?arguments[4]:0,u=arguments.length>5&&void 0!==arguments[5]?arguments[5]:0,o=this.m;return o[0]=t,o[1]=n,o[2]=e,o[3]=r,o[4]=i,o[5]=u,this.w=this.s=this.i=null,this}},{key:"recomposeSelf",value:function(){var t=arguments.length>0&&void 0!==arguments[0]?arguments[0]:null,n=arguments.length>1&&void 0!==arguments[1]?arguments[1]:null,e=arguments.length>2&&void 0!==arguments[2]?arguments[2]:null,r=arguments.length>3&&void 0!==arguments[3]?arguments[3]:null,i=arguments.length>4&&void 0!==arguments[4]?arguments[4]:null;return this.isIdentity||this.resetSelf(),t&&(t.x||t.y)&&this.translateSelf(t.x,t.y),n&&this.rotateSelf(n),e&&(e.x&&this.skewSelf(e.x,0),e.y&&this.skewSelf(0,e.y)),!r||1===r.x&&1===r.y||this.scaleSelf(r.x,r.y),i&&(i.x||i.y)&&this.translateSelf(i.x,i.y),this}},{key:"decompose",value:function(){var t=arguments.length>0&&void 0!==arguments[0]?arguments[0]:0,n=arguments.length>1&&void 0!==arguments[1]?arguments[1]:0,e=this.m,r=e[0]*e[0]+e[1]*e[1],i=[[e[0],e[1]],[e[2],e[3]]],u=N(r);if(0===u)return{origin:{x:d(e[4]),y:d(e[5])},translate:{x:d(t),y:d(n)},scale:{x:0,y:0},skew:{x:0,y:0},rotate:0};i[0][0]/=u,i[0][1]/=u;var o=e[0]*e[3]-e[1]*e[2]<0;o&&(u=-u);var a=i[0][0]*i[1][0]+i[0][1]*i[1][1];i[1][0]-=i[0][0]*a,i[1][1]-=i[0][1]*a;var l,s=N(i[1][0]*i[1][0]+i[1][1]*i[1][1]);return 0===s?{origin:{x:d(e[4]),y:d(e[5])},translate:{x:d(t),y:d(n)},scale:{x:d(u),y:0},skew:{x:0,y:0},rotate:0}:(i[1][0]/=s,i[1][1]/=s,a/=s,i[1][1]<0?(l=x(P(i[1][1])),i[0][1]<0&&(l=360-l)):l=x(I(i[0][1])),o&&(l=-l),a=x(F(a,N(i[0][0]*i[0][0]+i[0][1]*i[0][1]))),o&&(a=-a),{origin:{x:d(e[4]),y:d(e[5])},translate:{x:d(t),y:d(n)},scale:{x:d(u),y:d(s)},skew:{x:d(a),y:0},rotate:d(l)})}},{key:"multiply",value:function(t){return this.clone().multiplySelf(t)}},{key:"preMultiply",value:function(t){return t.multiply(this)}},{key:"multiplySelf",value:function(t){var n=q(this.m,t.m),e=n.a,r=n.b,i=n.c,u=n.d,o=n.tx,a=n.ty;return this.resetSelf(e,r,i,u,o,a),this}},{key:"preMultiplySelf",value:function(t){var n=q(t.m,this.m),e=n.a,r=n.b,i=n.c,u=n.d,o=n.tx,a=n.ty;return this.resetSelf(e,r,i,u,o,a),this}},{key:"clone",value:function(){var t=this.m;return new this.constructor(t[0],t[1],t[2],t[3],t[4],t[5])}},{key:"toString",value:function(){var t=arguments.length>0&&void 0!==arguments[0]?arguments[0]:" ";if(null===this.s){var n=this.m.map((function(t){return d(t)}));1===n[0]&&0===n[1]&&0===n[2]&&1===n[3]?this.s="translate("+n[4]+t+n[5]+")":this.s="matrix("+n.join(t)+")"}return this.s}}],[{key:"create",value:function(t){return t?Array.isArray(t)?f(this,v(t)):t instanceof this?t.clone():(new this).recomposeSelf(t.origin,t.rotate,t.skew,t.scale,t.translate):new this}}]),t}();function q(t,n){return{a:t[0]*n[0]+t[2]*n[1],b:t[1]*n[0]+t[3]*n[1],c:t[0]*n[2]+t[2]*n[3],d:t[1]*n[2]+t[3]*n[3],tx:t[0]*n[4]+t[2]*n[5]+t[4],ty:t[1]*n[4]+t[3]*n[5]+t[5]}}function B(t,n,e){return t>=.5?e:n}function D(t,n,e){return 0===t||n===e?n:t*(e-n)+n}function L(t,n,e){var r=D(t,n,e);return r<=0?0:r}function C(t,n,e){var r=D(t,n,e);return r<=0?0:r>=1?1:r}function V(t,n,e){return 0===t?n:1===t?e:{x:D(t,n.x,e.x),y:D(t,n.y,e.y)}}function G(t,n,e){var r=function(t,n,e){return Math.round(D(t,n,e))}(t,n,e);return r<=0?0:r>=255?255:r}function z(t,n,e){return 0===t?n:1===t?e:{r:G(t,n.r,e.r),g:G(t,n.g,e.g),b:G(t,n.b,e.b),a:D(t,null==n.a?1:n.a,null==e.a?1:e.a)}}function Y(t,n){for(var e=[],r=0;r<t;r++)e.push(n);return e}function $(t,n){if(--n<=0)return t;var e=(t=Object.assign([],t)).length;do{for(var r=0;r<e;r++)t.push(t[r])}while(--n>0);return t}var U,Q=function(){function t(n){r(this,t),this.list=n,this.length=n.length}return u(t,[{key:"setAttribute",value:function(t,n){for(var e=this.list,r=0;r<this.length;r++)e[r].setAttribute(t,n)}},{key:"removeAttribute",value:function(t){for(var n=this.list,e=0;e<this.length;e++)n[e].removeAttribute(t)}},{key:"style",value:function(t,n){for(var e=this.list,r=0;r<this.length;r++)e[r].style[t]=n}}]),t}(),H=/-./g,J=function(t,n){return n.toUpperCase()};function Z(t){return"function"==typeof t?t:B}function K(t){return t?"function"==typeof t?t:Array.isArray(t)?function(t){var n=arguments.length>1&&void 0!==arguments[1]?arguments[1]:_;if(!Array.isArray(t))return n;switch(t.length){case 1:return j(t[0])||n;case 2:return j(t[0],t[1])||n;case 4:return k(t[0],t[1],t[2],t[3])||n}return n}(t,null):function(t,n){var e=arguments.length>2&&void 0!==arguments[2]?arguments[2]:_;switch(t){case"linear":return _;case"steps":return j(n.steps||1,n.jump||0)||e;case"bezier":case"cubic-bezier":return k(n.x1||0,n.y1||0,n.x2||0,n.y2||0)||e}return e}(t.type,t.value,null):null}function W(t,n,e){var r=arguments.length>3&&void 0!==arguments[3]&&arguments[3],i=n.length-1;if(t<=n[0].t)return r?[0,0,n[0].v]:n[0].v;if(t>=n[i].t)return r?[i,1,n[i].v]:n[i].v;var u,o=n[0],a=null;for(u=1;u<=i;u++){if(!(t>n[u].t)){a=n[u];break}o=n[u]}return null==a?r?[i,1,n[i].v]:n[i].v:o.t===a.t?r?[u,1,a.v]:a.v:(t=(t-o.t)/(a.t-o.t),o.e&&(t=o.e(t)),r?[u,t,e(t,o.v,a.v)]:e(t,o.v,a.v))}function X(t,n){var e=arguments.length>2&&void 0!==arguments[2]?arguments[2]:null;return t&&t.length?"function"!=typeof n?null:("function"!=typeof e&&(e=null),function(r){var i=W(r,t,n);return null!=i&&e&&(i=e(i)),i}):null}function tt(t,n){return t.t-n.t}function nt(t,n,r,i,u){var o,a="@"===r[0],l="#"===r[0],s=U[r],f=B;switch(a?(o=r.substr(1),r=o.replace(H,J)):l&&(r=r.substr(1)),e(s)){case"function":if(f=s(i,u,W,K,r,a,n,t),l)return f;break;case"string":f=X(i,Z(s));break;case"object":if((f=X(i,Z(s.i),s.f))&&"function"==typeof s.u)return s.u(n,f,r,a,t)}return f?function(t,n,e){if(arguments.length>3&&void 0!==arguments[3]&&arguments[3])return t instanceof Q?function(r){return t.style(n,e(r))}:function(r){return t.style[n]=e(r)};if(Array.isArray(n)){var r=n.length;return function(i){var u=e(i);if(null==u)for(var o=0;o<r;o++)t[o].removeAttribute(n);else for(var a=0;a<r;a++)t[a].setAttribute(n,u)}}return function(r){var i=e(r);null==i?t.removeAttribute(n):t.setAttribute(n,i)}}(n,r,f,a):null}function et(t,n,r,i){if(!i||"object"!==e(i))return null;var u=null,o=null;return Array.isArray(i)?o=function(t){if(!t||!t.length)return null;for(var n=0;n<t.length;n++)t[n].e&&(t[n].e=K(t[n].e));return t.sort(tt)}(i):(o=i.keys,u=i.data||null),o?nt(t,n,r,o,u):null}function rt(t,n,e){if(!e)return null;var r=[];for(var i in e)if(e.hasOwnProperty(i)){var u=et(t,n,i,e[i]);u&&r.push(u)}return r.length?r:null}function it(t,n){if(!n.settings.duration||n.settings.duration<0)return null;var e,r,i,u,o,a=function(t,n){if(!n)return null;var e=[];if(Array.isArray(n))for(var r=n.length,i=0;i<r;i++){var u=n[i];if(2===u.length){var o=null;if("string"==typeof u[0])o=t.getElementById(u[0]);else if(Array.isArray(u[0])){o=[];for(var a=0;a<u[0].length;a++)if("string"==typeof u[0][a]){var l=t.getElementById(u[0][a]);l&&o.push(l)}o=o.length?1===o.length?o[0]:new Q(o):null}if(o){var s=rt(t,o,u[1]);s&&(e=e.concat(s))}}}else for(var f in n)if(n.hasOwnProperty(f)){var c=t.getElementById(f);if(c){var h=rt(t,c,n[f]);h&&(e=e.concat(h))}}return e.length?e:null}(t,n.elements);return a?(e=a,r=n.settings,i=r.duration,u=e.length,o=null,function(t,n){var a=r.iterations||1/0,l=(r.alternate&&a%2==0)^r.direction>0?i:0,s=t%i,f=1+(t-s)/i;n*=r.direction,r.alternate&&f%2==0&&(n=-n);var c=!1;if(f>a)s=l,c=!0,-1===r.fill&&(s=r.direction>0?0:i);else if(n<0&&(s=i-s),s===o)return!1;o=s;for(var h=0;h<u;h++)e[h](s);return c}):null}function ut(t,n){for(var e=n.querySelectorAll("svg"),r=0;r<e.length;r++)if(e[r].id===t.root&&!e[r].svgatorAnimation)return e[r].svgatorAnimation=!0,e[r];return null}function ot(t){var n=function(t){return t.shadowRoot};return document?Array.from(t.querySelectorAll(":not("+["a","area","audio","br","canvas","circle","datalist","embed","g","head","hr","iframe","img","input","link","object","path","polygon","rect","script","source","style","svg","title","track","video"].join()+")")).filter(n).map(n):[]}function at(t){var n=arguments.length>1&&void 0!==arguments[1]?arguments[1]:document,e=arguments.length>2&&void 0!==arguments[2]?arguments[2]:0,r=ut(t,n);if(r)return r;if(e>=20)return null;for(var i=ot(n),u=0;u<i.length;u++){var o=at(t,i[u],e+1);if(o)return o}return null}function lt(t,n){if(U=n,!t||!t.root||!Array.isArray(t.animations))return null;var e=at(t);if(!e)return null;var r=t.animations.map((function(t){return it(e,t)})).filter((function(t){return!!t}));return r.length?{svg:e,animations:r,animationSettings:t.animationSettings,options:t.options||void 0}:null}function st(t){var n=arguments.length>1&&void 0!==arguments[1]?arguments[1]:null,e=arguments.length>2&&void 0!==arguments[2]?arguments[2]:Number,r=arguments.length>3&&void 0!==arguments[3]?arguments[3]:"undefined"!=typeof BigInt&&BigInt,i="0x"+(t.replace(/[^0-9a-fA-F]+/g,"")||27);return n&&r&&e.isSafeInteger&&!e.isSafeInteger(+i)?e(r(i))%n+n:+i}function ft(t,n,e){return!t||!e||n>t.length?t:t.substring(0,n)+ft(t.substring(n+1),e,e)}function ct(t){var n=arguments.length>1&&void 0!==arguments[1]?arguments[1]:27;return!t||t%n?t%n:[0,1].includes(n)?n:ct(t/n,n)}function ht(t,n,e){if(t&&t.length){var r=st(e),i=ct(r)+5,u=ft(t,ct(r,5),i);return u=u.replace(/\x7c$/g,"==").replace(/\x2f$/g,"="),u=function(t,n,e){var r=+("0x"+t.substring(0,4));t=t.substring(4);for(var i=st(n,r)%r+e%27,u=[],o=0;o<t.length;o+=2)if("|"!==t[o]){var a=+("0x"+t[o]+t[o+1])-i;u.push(a)}else{var l=+("0x"+t.substring(o+1,o+1+4))-i;o+=3,u.push(l)}return String.fromCharCode.apply(String,u)}(u=(u=atob(u)).replace(/[\x41-\x5A]/g,""),n,r),u=JSON.parse(u)}}var vt=[{key:"alternate",def:!1},{key:"fill",def:1},{key:"iterations",def:0},{key:"direction",def:1},{key:"speed",def:1},{key:"fps",def:100}],yt=function(){function t(n,e){var i=this,u=arguments.length>2&&void 0!==arguments[2]?arguments[2]:null;r(this,t),this._id=0,this._running=!1,this._rollingBack=!1,this._animations=n,this._settings=e,(!u||u<"2022-05-02")&&delete this._settings.speed,vt.forEach((function(t){i._settings[t.key]=i._settings[t.key]||t.def})),this.duration=e.duration,this.offset=e.offset||0,this.rollbackStartOffset=0}return u(t,[{key:"alternate",get:function(){return this._settings.alternate}},{key:"fill",get:function(){return this._settings.fill}},{key:"iterations",get:function(){return this._settings.iterations}},{key:"direction",get:function(){return this._settings.direction}},{key:"speed",get:function(){return this._settings.speed}},{key:"fps",get:function(){return this._settings.fps}},{key:"maxFiniteDuration",get:function(){return this.iterations>0?this.iterations*this.duration:this.duration}},{key:"_apply",value:function(t){for(var n=arguments.length>1&&void 0!==arguments[1]?arguments[1]:{},e=this._animations,r=e.length,i=0,u=0;u<r;u++)n[u]?i++:(n[u]=e[u](t,1),n[u]&&i++);return i}},{key:"_rollback",value:function(t){var n=this,e=1/0,r=null;this.rollbackStartOffset=t,this._rollingBack=!0,this._running=!0;this._id=window.requestAnimationFrame((function i(u){if(n._rollingBack){null==r&&(r=u);var o=Math.round(t-(u-r)*n.speed);if(o>n.duration&&e!==1/0){var a=!!n.alternate&&o/n.duration%2>1,l=o%n.duration;o=(l+=a?n.duration:0)||n.duration}var s=(n.fps?1e3/n.fps:0)*n.speed,f=Math.max(0,o);f<=e-s&&(n.offset=f,e=f,n._apply(f));var c=n.iterations>0&&-1===n.fill&&o>=n.maxFiniteDuration;(o<=0||n.offset<o||c)&&n.stop(),n._id=window.requestAnimationFrame(i)}}))}},{key:"_start",value:function(){var t=this,n=arguments.length>0&&void 0!==arguments[0]?arguments[0]:0,e=-1/0,r=null,i={};this._running=!0;var u=function u(o){null==r&&(r=o);var a=Math.round((o-r)*t.speed+n),l=(t.fps?1e3/t.fps:0)*t.speed;if(a>=e+l&&!t._rollingBack&&(t.offset=a,e=a,t._apply(a,i)===t._animations.length))return void t.pause(!0);t._id=window.requestAnimationFrame(u)};this._id=window.requestAnimationFrame(u)}},{key:"_pause",value:function(){this._id&&window.cancelAnimationFrame(this._id),this._running=!1}},{key:"play",value:function(){if(!this._running)return this._rollingBack?this._rollback(this.offset):this._start(this.offset)}},{key:"stop",value:function(){this._pause(),this.offset=0,this.rollbackStartOffset=0,this._rollingBack=!1,this._apply(0)}},{key:"reachedToEnd",value:function(){return this.iterations>0&&this.offset>=this.iterations*this.duration}},{key:"restart",value:function(){var t=arguments.length>0&&void 0!==arguments[0]&&arguments[0];this.stop(t),this.play(t)}},{key:"pause",value:function(){this._pause()}},{key:"reverse",value:function(){this.direction=-this.direction}}],[{key:"build",value:function(t,n){delete t.animationSettings,t.options=ht(t.options,t.root,"5c7f360c"),t.animations.map((function(n){n.settings=ht(n.s,t.root,"5c7f360c"),delete n.s,t.animationSettings||(t.animationSettings=n.settings)}));var e=t.version;if(!(t=lt(t,n)))return null;var r=t.options||{},i=new this(t.animations,t.animationSettings,e);return{el:t.svg,options:r,player:i}}},{key:"push",value:function(t){return this.build(t)}},{key:"init",value:function(){var t=this,n=window.__SVGATOR_PLAYER__&&window.__SVGATOR_PLAYER__["5c7f360c"];Array.isArray(n)&&n.splice(0).forEach((function(n){return t.build(n)}))}}]),t}();function gt(t){return d(t)+""}function pt(t){var n=arguments.length>1&&void 0!==arguments[1]?arguments[1]:" ";return t&&t.length?t.map(gt).join(n):""}function dt(t){return t?null==t.a||t.a>=1?function(t){if(!t)return"transparent";var n=function(t){return parseInt(t).toString(16).padStart(2,"0")};return function(t){for(var n=[],e="#"===t[0]?n.push("#"):0;e<t.length;e+=2){if(t[e]!==t[e+1])return t;n.push(t[e])}return n.join("")}("#"+n(t.r)+n(t.g)+n(t.b)+(null==t.a||t.a>=1?"":n(255*t.a)))}(t):"rgba("+t.r+","+t.g+","+t.b+","+t.a+")":"transparent"}function mt(t){return t?"url(#"+t+")":"none"}!function(){for(var t=0,n=["ms","moz","webkit","o"],e=0;e<n.length&&!window.requestAnimationFrame;++e)window.requestAnimationFrame=window[n[e]+"RequestAnimationFrame"],window.cancelAnimationFrame=window[n[e]+"CancelAnimationFrame"]||window[n[e]+"CancelRequestAnimationFrame"];window.requestAnimationFrame||(window.requestAnimationFrame=function(n){var e=Date.now(),r=Math.max(0,16-(e-t)),i=window.setTimeout((function(){n(e+r)}),r);return t=e+r,i},window.cancelAnimationFrame=window.clearTimeout)}();var bt={f:null,i:function(t,n,e){return 0===t?n:1===t?e:{x:L(t,n.x,e.x),y:L(t,n.y,e.y)}},u:function(t,n){return function(e){var r=n(e);t.setAttribute("rx",gt(r.x)),t.setAttribute("ry",gt(r.y))}}},wt={f:null,i:function(t,n,e){return 0===t?n:1===t?e:{width:L(t,n.width,e.width),height:L(t,n.height,e.height)}},u:function(t,n){return function(e){var r=n(e);t.setAttribute("width",gt(r.width)),t.setAttribute("height",gt(r.height))}}};Object.freeze({M:2,L:2,Z:0,H:1,V:1,C:6,Q:4,T:2,S:4,A:7});var xt={},_t=null;function At(t){var n=function(){if(_t)return _t;if("object"!==("undefined"==typeof document?"undefined":e(document))||!document.createElementNS)return{};var t=document.createElementNS("http://www.w3.org/2000/svg","svg");return t&&t.style?(t.style.position="absolute",t.style.opacity="0.01",t.style.zIndex="-9999",t.style.left="-9999px",t.style.width="1px",t.style.height="1px",_t={svg:t}):{}}().svg;if(!n)return function(t){return null};var r=document.createElementNS(n.namespaceURI,"path");r.setAttributeNS(null,"d",t),r.setAttributeNS(null,"fill","none"),r.setAttributeNS(null,"stroke","none"),n.appendChild(r);var i=r.getTotalLength();return function(t){var n=r.getPointAtLength(i*t);return{x:n.x,y:n.y}}}function kt(t){return xt[t]?xt[t]:xt[t]=At(t)}function St(t,n,e,r){if(!t||!r)return!1;var i=["M",t.x,t.y];if(n&&e&&(i.push("C"),i.push(n.x),i.push(n.y),i.push(e.x),i.push(e.y)),n?!e:e){var u=n||e;i.push("Q"),i.push(u.x),i.push(u.y)}return n||e||i.push("L"),i.push(r.x),i.push(r.y),i.join(" ")}function Ot(t,n,e,r){var i=arguments.length>4&&void 0!==arguments[4]?arguments[4]:1,u=St(t,n,e,r),o=kt(u);try{return o(i)}catch(t){return null}}function jt(t,n,e){return t+(n-t)*e}function Mt(t,n,e){var r=arguments.length>3&&void 0!==arguments[3]&&arguments[3],i={x:jt(t.x,n.x,e),y:jt(t.y,n.y,e)};return r&&(i.a=Et(t,n)),i}function Et(t,n){return Math.atan2(n.y-t.y,n.x-t.x)}function Pt(t,n,e,r){var i=1-r;return i*i*t+2*i*r*n+r*r*e}function It(t,n,e,r){return 2*(1-r)*(n-t)+2*r*(e-n)}function Rt(t,n,e,r){var i=arguments.length>4&&void 0!==arguments[4]&&arguments[4],u=Ot(t,n,null,e,r);return u||(u={x:Pt(t.x,n.x,e.x,r),y:Pt(t.y,n.y,e.y,r)}),i&&(u.a=Ft(t,n,e,r)),u}function Ft(t,n,e,r){return Math.atan2(It(t.y,n.y,e.y,r),It(t.x,n.x,e.x,r))}function Nt(t,n,e,r,i){var u=i*i;return i*u*(r-t+3*(n-e))+3*u*(t+e-2*n)+3*i*(n-t)+t}function Tt(t,n,e,r,i){var u=1-i;return 3*(u*u*(n-t)+2*u*i*(e-n)+i*i*(r-e))}function qt(t,n,e,r,i){var u=arguments.length>5&&void 0!==arguments[5]&&arguments[5],o=Ot(t,n,e,r,i);return o||(o={x:Nt(t.x,n.x,e.x,r.x,i),y:Nt(t.y,n.y,e.y,r.y,i)}),u&&(o.a=Bt(t,n,e,r,i)),o}function Bt(t,n,e,r,i){return Math.atan2(Tt(t.y,n.y,e.y,r.y,i),Tt(t.x,n.x,e.x,r.x,i))}function Dt(t,n,e){var r=arguments.length>3&&void 0!==arguments[3]&&arguments[3];if(Ct(n)){if(Vt(e))return Rt(n,e.start,e,t,r)}else if(Ct(e)){if(Gt(n))return Rt(n,n.end,e,t,r)}else{if(Gt(n))return Vt(e)?qt(n,n.end,e.start,e,t,r):Rt(n,n.end,e,t,r);if(Vt(e))return Rt(n,e.start,e,t,r)}return Mt(n,e,t,r)}function Lt(t,n,e){var r=Dt(t,n,e,!0);return r.a=x(function(t){return arguments.length>1&&void 0!==arguments[1]&&arguments[1]?t+Math.PI:t}(r.a)),r}function Ct(t){return!t.type||"corner"===t.type}function Vt(t){return null!=t.start&&!Ct(t)}function Gt(t){return null!=t.end&&!Ct(t)}var zt=new T;var Yt={f:gt,i:D},$t={f:gt,i:C};function Ut(t,n,e){return t.map((function(t){return function(t,n,e){var r=t.v;if(!r||"g"!==r.t||r.s||!r.v||!r.r)return t;var i=e.getElementById(r.r),u=i&&i.querySelectorAll("stop")||[];return r.s=r.v.map((function(t,n){var e=u[n]&&u[n].getAttribute("offset");return{c:t,o:e=d(parseInt(e)/100)}})),delete r.v,t}(t,0,e)}))}var Qt={gt:"gradientTransform",c:{x:"cx",y:"cy"},rd:"r",f:{x:"x1",y:"y1"},to:{x:"x2",y:"y2"}};function Ht(t,n,r,i,u,o,a,l){return Ut(t,0,l),n=function(t,n,e){for(var r,i,u,o=t.length-1,a={},l=0;l<=o;l++)(r=t[l]).e&&(r.e=n(r.e)),r.v&&"g"===(i=r.v).t&&i.r&&(u=e.getElementById(i.r))&&(a[i.r]={e:u,s:u.querySelectorAll("stop")});return a}(t,i,l),function(i){var u=r(i,t,Jt);if(!u)return"none";if("c"===u.t)return dt(u.v);if("g"===u.t){if(!n[u.r])return mt(u.r);var o=n[u.r];return function(t,n){for(var e=t.s,r=e.length;r<n.length;r++){var i=e[e.length-1].cloneNode();i.id=Wt(i.id),t.e.appendChild(i),e=t.s=t.e.querySelectorAll("stop")}for(var u=0,o=e.length,a=n.length-1;u<o;u++)e[u].setAttribute("stop-color",dt(n[Math.min(u,a)].c)),e[u].setAttribute("offset",n[Math.min(u,a)].o)}(o,u.s),Object.keys(Qt).forEach((function(t){if(void 0!==u[t])if("object"!==e(Qt[t])){var n,r="gt"===t?(n=u[t],Array.isArray(n)?"matrix("+n.join(" ")+")":""):u[t],i=Qt[t];o.e.setAttribute(i,r)}else Object.keys(Qt[t]).forEach((function(n){if(void 0!==u[t][n]){var e=u[t][n],r=Qt[t][n];o.e.setAttribute(r,e)}}))})),mt(u.r)}return"none"}}function Jt(t,e,r){if(0===t)return e;if(1===t)return r;if(e&&r){var i=e.t;if(i===r.t)switch(e.t){case"c":return{t:i,v:z(t,e.v,r.v)};case"g":if(e.r===r.r){var u={t:i,s:Zt(t,e.s,r.s),r:e.r};return e.gt&&r.gt&&(u.gt=function(t,n,e){var r=n.length;if(r!==e.length)return B(t,n,e);for(var i=new Array(r),u=0;u<r;u++)i[u]=D(t,n[u],e[u]);return i}(t,e.gt,r.gt)),e.c?(u.c=V(t,e.c,r.c),u.rd=L(t,e.rd,r.rd)):e.f&&(u.f=V(t,e.f,r.f),u.to=V(t,e.to,r.to)),u}}if("c"===e.t&&"g"===r.t||"c"===r.t&&"g"===e.t){var o="c"===e.t?e:r,a="g"===e.t?n({},e):n({},r),l=a.s.map((function(t){return{c:o.v,o:t.o}}));return a.s="c"===e.t?Zt(t,l,a.s):Zt(t,a.s,l),a}}return B(t,e,r)}function Zt(t,n,e){if(n.length===e.length)return n.map((function(n,r){return Kt(t,n,e[r])}));for(var r=Math.max(n.length,e.length),i=[],u=0;u<r;u++){var o=Kt(t,n[Math.min(u,n.length-1)],e[Math.min(u,e.length-1)]);i.push(o)}return i}function Kt(t,n,e){return{o:C(t,n.o,e.o||0),c:z(t,n.c,e.c||{})}}function Wt(t){return t.replace(/-fill-([0-9]+)$/,(function(t,n){return"-fill-"+(+n+1)}))}var Xt={fill:Ht,"fill-opacity":$t,stroke:Ht,"stroke-opacity":$t,"stroke-width":Yt,"stroke-dashoffset":{f:gt,i:D},"stroke-dasharray":{f:function(t){var n=arguments.length>1&&void 0!==arguments[1]?arguments[1]:" ";return t&&t.length>0&&(t=t.map((function(t){return d(t,4)}))),pt(t,n)},i:function(t,n,e){var r,i,u,o=n.length,a=e.length;if(o!==a)if(0===o)n=Y(o=a,0);else if(0===a)a=o,e=Y(o,0);else{var l=(u=(r=o)*(i=a)/function(t,n){for(var e;n;)e=n,n=t%n,t=e;return t||1}(r,i))<0?-u:u;n=$(n,Math.floor(l/o)),e=$(e,Math.floor(l/a)),o=a=l}for(var s=[],f=0;f<o;f++)s.push(d(L(t,n[f],e[f])));return s}},opacity:$t,transform:function(t,n,r,i){if(!(t=function(t,n){if(!t||"object"!==e(t))return null;var r=!1;for(var i in t)t.hasOwnProperty(i)&&(t[i]&&t[i].length?(t[i].forEach((function(t){t.e&&(t.e=n(t.e))})),r=!0):delete t[i]);return r?t:null}(t,i)))return null;var u=function(e,i,u){var o=arguments.length>3&&void 0!==arguments[3]?arguments[3]:null;return t[e]?r(i,t[e],u):n&&n[e]?n[e]:o};return n&&n.a&&t.o?function(n){var e=r(n,t.o,Lt);return zt.recomposeSelf(e,u("r",n,D,0)+e.a,u("k",n,V),u("s",n,V),u("t",n,V)).toString()}:function(t){return zt.recomposeSelf(u("o",t,Dt,null),u("r",t,D,0),u("k",t,V),u("s",t,V),u("t",t,V)).toString()}},r:Yt,"#size":wt,"#radius":bt,_:function(t,n){if(Array.isArray(t))for(var e=0;e<t.length;e++)this[t[e]]=n;else this[t]=n}},tn=function(t){!function(t,n){if("function"!=typeof n&&null!==n)throw new TypeError("Super expression must either be null or a function");t.prototype=Object.create(n&&n.prototype,{constructor:{value:t,writable:!0,configurable:!0}}),n&&l(t,n)}(o,t);var n,e,i=(n=o,e=s(),function(){var t,r=a(n);if(e){var i=a(this).constructor;t=Reflect.construct(r,arguments,i)}else t=r.apply(this,arguments);return c(this,t)});function o(){return r(this,o),i.apply(this,arguments)}return u(o,null,[{key:"build",value:function(t){var n=h(a(o),"build",this).call(this,t,Xt);if(!n)return null;n.el,n.options,function(t,n,e){t.play()}(n.player)}}]),o}(yt);return tn.init(),tn}));
(function(s,i,o,w,d,a,b){w[o]=w[o]||{};w[o][s]=w[o][s]||[];w[o][s].push(i);})('5c7f360c',{"root":"exFGjgrCDsa1","version":"2022-05-04","animations":[{"elements":{"exFGjgrCDsa6":{"transform":{"data":{"t":{"x":-386.22261,"y":-286.797256}},"keys":{"o":[{"t":290,"v":{"x":681.538133,"y":265.244854,"type":"corner"}},{"t":1400,"v":{"x":394.286566,"y":266.259417,"type":"corner"}}]}}},"exFGjgrCDsa169":{"transform":{"data":{"o":{"x":206.240028,"y":218.704689,"type":"corner"},"t":{"x":-206.240028,"y":-218.704689}},"keys":{"s":[{"t":0,"v":{"x":0.432554,"y":0.432554}},{"t":500,"v":{"x":0.824297,"y":0.824297}}]}}},"exFGjgrCDsa224":{"transform":{"data":{"t":{"x":-384.223434,"y":-85.065006}},"keys":{"o":[{"t":400,"v":{"x":381.23,"y":-78.541849,"type":"corner"}},{"t":1000,"v":{"x":381.23,"y":81.899933,"type":"corner"}}]}}}},"s":"MWDA1ZGI2NWQ5ZmIwYWBQ5Y2FmV2E0YWFhOTVMkNzU2ZTZiNmI2YjY3CNWQ5ZmE0YWRhMEE5ZHWFmYTRhYWE5NWRDNzUU2YzY3NWRhNGFmYTBMMYWQ5Y0xhZmE0YWFhHOWFlNWQ3NTZjNjc1ZCGExYTRhN2E3NWQ3NVMQ2YzY3NWRYOWNhN2FDmYTBhZFlhOTljYWZHUYTA1ZDc1WWExOWNhNK2FlYTA2NzVkYWVhYmCEwYTA5ZjVkNzVBNmMA2N1A1ZGExSWFiYWU1PZEQ3NTZjTzZiRzZiUGWI4"}],"options":"MTDAxMDg4MmY4MDgxNmQU3ZjgxMmY0N0cyZjcE5N2M2ZTcxMmY4YQ|"},'__SVGATOR_PLAYER__',window,document)
]]></script>
</svg>
