<svg id="eVu87xSYD3k1" xmlns="http://www.w3.org/2000/svg" xmlns:xlink="http://www.w3.org/1999/xlink" viewBox="0 0 619 368" shape-rendering="geometricPrecision" text-rendering="geometricPrecision" project-id="f8ab133ecb05456fb187ba830fbbf3b5" export-id="2d2914ddc02f4fdeacc1ed46ec00745d" cached="false"><g transform="translate(0 0.034806)" clip-path="url(#eVu87xSYD3k259)"><g><g id="eVu87xSYD3k4" transform="translate(0-360)"><path d="M85.0039,363.637c-43.4733-41.345-102.8863-84.035-79.58875-148.52C20.7398,172.702,58.3099,160.88,89.5398,134.726c15.4122-12.909,5.719-31.695,5.4318-50.3447C94.3192,36.6281,155.334,-0.426952,211.425,0.347239C272.18,1.18387,298.484,54.5375,349.45,57.4001c20.013.2685,37.932-9.9895,55.638-18.1404c52.467-24.1466,135.718-8.7471,139.926,49.6482c1.086,31.5361-40.005,82.2731,1.164,98.8591c32.813,13.221,65.963,18.087,71.875,65.369c7.739,61.886-33.177,95.85-86.497,111.777L85.0008,363.637h.0031Z" fill="#a2d3d1"/></g><g id="eVu87xSYD3k6" transform="translate(.000001 0.000001)" opacity="0"><path d="M606.684,256.124h-69.383c-1.227,0-2.223-.996-2.223-2.22v-59.725c0-1.227.996-2.223,2.223-2.223c1.226,0,2.219.996,2.219,2.223v57.502h67.164c1.227,0,2.223.996,2.223,2.223s-.996,2.22-2.223,2.22Z" transform="translate(0-.639444)" fill="#fff"/><path d="M542.554,241.523c-.555,0-1.111-.206-1.542-.624-.883-.852-.905-2.26-.053-3.141l22.424-23.197c.739-.765,1.913-.899,2.806-.319l10.605,6.878l11.182-12.993c.799-.93,2.204-1.033,3.131-.234.93.799,1.036,2.201.234,3.131l-12.447,14.463c-.724.843-1.96,1.021-2.89.415l-10.698-6.94-21.153,21.884c-.437.449-1.018.677-1.599.677Z" fill="#fff"/><g transform="translate(0 0.000001)"><path d="M486.404,47.4291h-50.104c-6.203,0-11.229,5.026-11.229,11.2289v23.3569c0,6.2029,5.029,11.2289,11.229,11.2289h.371l-4.02,13.4702c-.178.593.509,1.065.999.69l18.565-14.1633h34.189c6.203,0,11.229-5.0291,11.229-11.2289v-23.3569c0-6.2029-5.029-11.2289-11.229-11.2289v.0031Z" fill="#fff"/><path d="M485.414,67.1711h-49.314c-2.816,0-5.098-2.282-5.098-5.0978s2.282-5.0978,5.098-5.0978h49.314c2.816,0,5.098,2.282,5.098,5.0978s-2.282,5.0978-5.098,5.0978Z" fill="#e4e9f6"/><path d="M461.355,82.5831h-23.622c-2.816,0-5.098-2.282-5.098-5.0978s2.282-5.0978,5.098-5.0978h23.622c2.816,0,5.098,2.2819,5.098,5.0978s-2.282,5.0978-5.098,5.0978Z" fill="#e4e9f6"/></g><g transform="translate(0 0.000001)"><path d="M125.374,76.0616h49.483c6.125,0,11.092,4.9667,11.092,11.0916v23.0668c0,6.125-4.967,11.091-11.092,11.091h-.368l3.971,13.305c.174.584-.503,1.052-.987.681l-18.334-13.986h-33.765c-6.124,0-11.091-4.966-11.091-11.091v-23.0668c0-6.1249,4.967-11.0916,11.091-11.0916Z" fill="#fff"/><path d="M174.832,95.4321h-47.506c-3.032,0-5.488-2.4568-5.488-5.488s2.456-5.488,5.488-5.488h47.506c3.031,0,5.488,2.4568,5.488,5.488s-2.457,5.488-5.488,5.488Z" fill="#e4e9f6"/><path d="M174.832,112.196h-47.506c-3.032,0-5.488-2.457-5.488-5.488s2.456-5.491,5.488-5.491h47.506c3.031,0,5.488,2.456,5.488,5.491c0,3.031-2.457,5.488-5.488,5.488Z" fill="#e4e9f6"/></g><g transform="translate(.000001 0.000001)"><path d="M43.3915,245.759c2.5005-1.888,5.5005-2.834,9.0031-2.834c7.5577,0,11.5598,4.111,11.5598,9.893c0,3.334-1.6109,6.724-4.8887,10.114-4.1675,4.389-7.1675,6.556-9.0593,6.556-1.8917,0-3.1685-1.446-3.1685-3.169c0-1.554,1.4453-3.112,3.9458-5.391.1655-.165.3341-.334.4433-.39c2.8346-2.613,3.7243-4.058,3.7243-5.835c0-2.222-1.5016-3.446-3.6681-3.446-.9989,0-2.1665.221-3.5556.668-1.3892.443-2.3882.668-3,.668-1.5547,0-3.334-1.333-3.334-3.556c0-1.167.668-2.279,2.001-3.278h-.0031Zm7.6108,37.068c-3.3902,0-5.6691-2.557-5.6691-5.669c0-2.666,2.2789-5.223,5.6691-5.223c2.9438,0,5.2226,2.557,5.2226,5.223c0,3.056-2.1664,5.669-5.2226,5.669Z" fill="#fff"/><path d="M497.377,121.065c1.645-1.243,3.618-1.864,5.919-1.864c4.969,0,7.601,2.703,7.601,6.506c0,2.191-1.061,4.423-3.215,6.652-2.741,2.888-4.714,4.311-5.957,4.311-1.242,0-2.082-.949-2.082-2.082c0-1.024.949-2.048,2.594-3.546.11-.109.219-.219.294-.256c1.863-1.717,2.447-2.669,2.447-3.837c0-1.461-.986-2.266-2.413-2.266-.659,0-1.427.147-2.338.437-.915.293-1.57.437-1.973.437-1.024,0-2.192-.877-2.192-2.338c0-.768.441-1.499,1.315-2.157v.003Zm5.007,24.374c-2.229,0-3.727-1.682-3.727-3.727c0-1.755,1.498-3.434,3.727-3.434c1.936,0,3.434,1.679,3.434,3.434c0,2.01-1.427,3.727-3.434,3.727Z" fill="#fff"/><path d="M183.636,52.9796c-7.411,0-13.439-6.0281-13.439-13.4391s6.028-13.4391,13.439-13.4391s13.439,6.0281,13.439,13.4391-6.028,13.4391-13.439,13.4391Zm0-23.1789c-5.37,0-9.74,4.3673-9.74,9.7398s4.37,9.7398,9.74,9.7398c5.369,0,9.739-4.3673,9.739-9.7398s-4.367-9.7398-9.739-9.7398Z" fill="#fff"/><path d="M550.593,146.513c-5.429,0-9.846-4.417-9.846-9.846s4.417-9.846,9.846-9.846s9.846,4.417,9.846,9.846-4.417,9.846-9.846,9.846Zm0-16.979c-3.933,0-7.133,3.2-7.133,7.133c0,3.934,3.2,7.133,7.133,7.133s7.133-3.199,7.133-7.133c0-3.933-3.2-7.133-7.133-7.133Z" fill="#a3d5d2"/><path d="M33.7673,200.482c-4.8731,0-8.8408-3.965-8.8408-8.841s3.9646-8.841,8.8408-8.841s8.8407,3.965,8.8407,8.841-3.9646,8.841-8.8407,8.841Zm0-15.247c-3.5307,0-6.4058,2.875-6.4058,6.406s2.872,6.406,6.4058,6.406s6.4058-2.875,6.4058-6.406-2.872-6.406-6.4058-6.406Z" fill="#fff"/><path d="M368.059,72.3874c0,2.6566-2.154,4.8106-4.811,4.8106-2.656,0-4.81-2.154-4.81-4.8106s2.154-4.8106,4.81-4.8106c2.657,0,4.811,2.154,4.811,4.8106Z" fill="#fff"/><path d="M86.0875,89.3727c0,5.2227-4.2331,9.4558-9.4557,9.4558-5.2227,0-9.4558-4.2331-9.4558-9.4558c0-5.2226,4.2331-9.4557,9.4558-9.4557c5.2226,0,9.4557,4.2331,9.4557,9.4557Z" fill="#a3d5d2"/><path d="M356.864,39.5374c0,3.9272-3.184,7.1082-7.108,7.1082s-7.108-3.181-7.108-7.1082c0-3.9271,3.184-7.1082,7.108-7.1082s7.108,3.1811,7.108,7.1082Z" fill="#a3d5d2"/><path d="M571.134,152.382c0,3.353-2.716,6.069-6.069,6.069-3.352,0-6.068-2.716-6.068-6.069s2.716-6.069,6.068-6.069c3.353,0,6.069,2.716,6.069,6.069Z" fill="#a3d5d2"/><path d="M393.96,67.171c0,4.1769-3.387,7.564-7.564,7.564s-7.564-3.3871-7.564-7.564s3.387-7.5639,7.564-7.5639s7.564,3.387,7.564,7.5639Z" fill="#fff"/><path d="M214.744,18.4469c0,4.2393-3.437,7.6733-7.674,7.6733-4.236,0-7.673-3.4371-7.673-7.6733s3.434-7.6732,7.673-7.6732c4.24,0,7.674,3.437,7.674,7.6732Z" fill="#fff"/></g></g><g id="eVu87xSYD3k29" transform="translate(0-500)"><path d="M248.562,142.602c-7.099-.066-31.948,38.628-31.948,38.628l-4.524,45.396l11.579.456l10.767-39.665l11.235-5.925l2.887-38.89h.004Z" transform="translate(-.144966-.355803)" fill="#0f123f"/><path d="M298.612,147.625c6.934,1.529,19.689,42.674,19.689,42.674l-3.827,31.467-11.516-1.289.693-24.534-8.629-23.254l3.59-25.064Z" transform="translate(-.144966-.355803)" fill="#0f123f"/><path d="M283.5,346.354c6.259,8.348,21.627,3.225,21.119,14.517-23.373-.144-33.088,0-33.088,0c.031-2.595.493-8.751,1.03-11.161l10.936-3.359.003.003Z" transform="translate(-.144966-.355803)" fill="#010101"/><path d="M248.53,346.573c6.259,8.347,21.628,3.225,21.119,14.516-23.373-.144-33.087,0-33.087,0c.031-2.594.493-8.75,1.033-11.157l10.935-3.359Z" transform="translate(-.144966-.355803)" fill="#010101"/><path d="M296.942,218.557c0,0,3.753,53.781,2.211,65.678-1.543,11.897-9.581,27.218-8.96,66.565-7.62,1.845-18.658,0-18.658,0s-1.636-44.491,6.418-64.361c-3.275-19.302-13.786-63.512-13.786-63.512l32.775-4.367v-.003Z" transform="translate(-.144966-.355803)" fill="#0f123f"/><path d="M273.763,220.439c0,0-1.526,59.997-5.275,71.391-3.753,11.394-9.865,18.899-16.655,57.662-7.829.377-19.105.54-19.105.54s5.535-48.859,17.728-60.041c.412-19.573-3.668-69.24-3.668-69.24l26.975-.315v.003Z" transform="translate(-.144966-.355803)" fill="#113"/><path d="M284.24,141.072l-10.427-2.182-10.523,1.683l10.146,13.133l10.804-12.634Z" transform="translate(-.144966-.355803)" fill="#97a5d4"/><path d="M281.381,148.043c-4.696,3.037-11.011,3.097-15.853-.419l.228-16.105l14.991.519.637,16.005h-.003Z" transform="translate(-.144966-.355803)" fill="#f37b51"/><path d="M259.943,145.914l3.266-.881.084-4.46l7.873,7.944l2.404.668l2.432-.552l8.241-7.561-.128,4.458l2.694.865l9.755,2.74-5.091,55.305l1.786,19.218c-13.689,2.887-28.564,2.303-42.837-1.343l2.629-18.786-4.168-55.09l11.057-2.522.003-.003Z" transform="translate(-.144966-.355803)" fill="#97a5d4"/><path d="M276.055,154.914l3.15,42.739-3.815,4.555-4.258-3.799l1.639-43.386l3.284-.109Z" transform="translate(-.144966-.355803)" fill="#113"/><path d="M278.633,149.679l-3.917-.84-4.346.924l2.398,5.344l3.299-.053l2.566-5.375Z" fill="#113"/><path d="M285.105,143.054l-.353,48.284-1.027,33.99c0,0,9.721,3.468,16.973-2.014l-1.958-75.69-13.635-4.57Z" transform="translate(-.144966-.355803)" fill="#113"/><path d="M284.868,142.545l-.216,52.143l7.667-40.461-7.451-11.682Z" transform="translate(0-.355803)" fill="#1d1952"/><path d="M263.003,141.05l2.525,85.601c0,0-17.597,3.085-24.777-1.664l3.893-27.049l3.462-55.33l14.897-1.555v-.003Z" transform="translate(0-.355803)" fill="#113"/><path d="M263.171,140.885l1.371,52.367-9.113-41.223l7.742-11.144Z" transform="translate(0-.355803)" fill="#1d1952"/><path d="M260.608,120.05c2.376,10.923,11.257,18.265,19.836,16.399c8.578-1.867,13.608-12.234,11.232-23.157s-11.257-18.2657-19.836-16.3989c-8.578,1.8668-13.607,12.2339-11.232,23.1569Z" transform="translate(-.144966-.355803)" fill="#f37b51"/><path d="M286.485,117.465c.871.259,1.788-.234,2.047-1.105.26-.871-.234-1.789-1.105-2.048s-1.788.235-2.047,1.105c-.26.871.234,1.789,1.105,2.048Z" transform="translate(-.144966-.355803)" fill="#010101"/><path d="M273.045,117c.434.803,1.436,1.105,2.239.671.802-.434,1.105-1.436.671-2.238s-1.436-1.105-2.238-.671c-.803.434-1.106,1.436-.672,2.238Z" transform="translate(0-.355803)" fill="#010101"/><path d="M283.638,116.207c1.18,2.685,2.69,5.969,2.69,5.969s-1.276,2.463-4.707,2.001c1.536-.387,3.112-1.155,2.803-3.172-.309-2.016-.786-4.801-.786-4.801v.003Z" fill="#de623c"/><path d="M271.25,114.5c.316.14.697.05.915-.238.05-.065,1.321-1.676,2.882-.995.387.168.833-.01,1.002-.394.168-.387-.01-.836-.394-1.002-2.129-.927-4.008.556-4.704,1.47-.256.335-.191.812.143,1.068.05.038.1.069.153.091h.003Z" fill="#113"/><path d="M289.859,114.5c-.315.14-.696.05-.915-.238-.049-.065-1.32-1.676-2.881-.995-.387.168-.833-.01-1.002-.394-.169-.387.009-.836.393-1.002c2.129-.927,4.009.556,4.705,1.47.256.335.19.812-.147,1.068-.05.038-.1.069-.153.091Z" fill="#113"/><path d="M262.291,120.497c.456-4.034,3.871-2.779,4.848-8.055.977-5.275,1.939-9.252,6.887-7.804c4.948,1.449,6.29.393,8.463-.571c6.534-2.9,8.95,8.229,8.95,8.229s4.726-8.941-.159-13.8295c-5.417-5.4194-7.015-1.6983-12.057-5.6348-5.041-3.9365-13.089-2.5754-15.046.5557-2.064,3.2997-2.641,5.7627-7.642,7.6736-4.998,1.91-7.82,5.712-3.987,11.26c3.834,5.547-3.836,8.391,3.031,13.882c2.663,2.132,7.574,3.116,8.479,2.173c1.214-1.261-2.06-5.279-1.767-7.876v-.003Z" transform="translate(0-.355803)" fill="#113"/><path d="M292.257,119.279c0,0-.831,5.429-2.045,7.083-.412-2.541-2.813-.415-4.645-.534-4.427-.29-11.922-3.281-13.986,3.035-5.603.618-8.538-11.429-8.538-11.429-2.815,12.543,5.229,21.318,18.921,21.871c9.022.362,12.384-11.088,10.293-20.026Z" transform="translate(-.144966-.355803)" fill="#113"/><path d="M287.121,129.381c.263-.337,0-.827-.427-.787-1.087.103-2.879.238-4.589.194-1.708-.041-3.494-.262-4.574-.415-.424-.063-.711.412-.465.764.759,1.077,2.345,2.726,4.964,2.788c2.619.063,4.28-1.504,5.091-2.544Z" transform="translate(-.144966-.355803)" fill="#fff"/><path d="M264.008,117.756c1.851,1.988,2.032,4.832.406,6.346-1.63,1.517-4.449,1.13-6.303-.858-1.851-1.989-2.032-4.833-.406-6.347c1.63-1.514,4.449-1.13,6.303.859Z" transform="translate(-.144966-.355803)" fill="#f37b51"/><path d="M261.895,123.181c.084-.025.165-.072.234-.14.986-.949,1.261-2.154.73-3.219-.543-1.089-1.773-1.748-2.925-1.564-.324.053-.546.356-.493.681.053.324.356.546.68.493.631-.1,1.368.303,1.674.921.296.593.121,1.242-.49,1.832-.238.228-.244.603-.016.84.162.169.396.222.606.156Z" transform="translate(-.144966-.355803)" fill="#de623c"/><path d="M274.715,148.839l-7.567,6.73-5.856-11.981l1.998-3.015l11.425,8.266Z" transform="translate(-.144966-.355803)" fill="#fff"/><path d="M274.716,148.839l5.815,6.178l5.476-10.683-1.767-3.262-9.524,7.767Z" transform="translate(-.144966-.355803)" fill="#fff"/><path d="M225.002,222.599l-.141,6.075c0,0,4.336-.128,4.489,2.835l-4.07.125c0,0-2.479,3.199,1.073,9.446c1.418,6.119-3.068,3.531-3.374,5.563-.453,3-6.378-2.145-7.317-8.257-1.218-7.907.396-8.86.396-8.86l1.792-6.006l7.155-.924-.003.003Z" fill="#f37b51"/><path d="M304.466,216.833l.14,6.075c0,0-4.336-.128-4.489,2.832l4.071.125c0,0,2.479,3.199-1.074,9.446-1.417,6.119,3.069,3.531,3.375,5.563.452,3,6.374-2.145,7.317-8.257c1.217-7.907-.396-8.86-.396-8.86l-1.792-6.006-7.155-.924.003.006Z" fill="#f37b51"/><g transform="translate(.000001 0)"><path d="M227.908,338.063c-.605-6.056,2.516-52.145,2.516-52.145c8.838-40.521,5.367-69.528,5.367-69.528L220.6,217.458l-5.987,22.898l2.837,38.241c0,0-1.064,2.944-1.629,5.298-3.05,12.765-.013,28.021,1.867,38.188.871,4.711,2.222,14.613,2.26,16.867l-3.815,4.932c0,0,13.811,15.284,15.933,15.381c4.13.187,2.913-3.902,2.913-3.902-5.675-5.829-6.902-15.556-7.077-17.292l.006-.006Z" transform="translate(-.667232-.809672)" fill="#f37b51"/><path d="M215.899,349.292l.759,9.821l1.763.081.893-9.118c4.698,1.198,8.064,9.724,8.064,9.724c3.237,1.161,11.459,1.957,14.388.449.705-2.869-6.799-4.879-6.799-4.879-.678.802-4.686,1.417-6.11.559-5.238-4.461-7.795-10.948-8.909-16.979c0,0-8.279.577-4.052,10.348l.003-.006Z" transform="translate(-.19904-.34148)" fill="#f37268"/><path d="M222.77,219.337l-21.397-2.947c-8.185,18.518-10.854,50.763-13.073,62.248-8.919,14.956-11.751,60.306-11.751,60.306l-3.814,4.932c0,0,13.81,15.284,15.933,15.381c4.13.187,2.913-3.903,2.913-3.903-5.676-5.828-6.784-13.573-7.149-15.277-.553-2.56,17.319-52.873,17.319-52.873l1.908-4.773c21.827-36.053,25.411-63.309,25.411-63.309l-6.294.215h-.006Z" transform="translate(.269152 0.126712)" fill="#f37b51"/><path d="M172.494,349.292l.759,9.821l1.764.081.892-9.118c4.699,1.198,8.064,9.724,8.064,9.724c3.237,1.161,11.46,1.957,14.388.449.705-2.869-6.799-4.879-6.799-4.879-.678.802-4.686,1.417-6.109.559-5.239-4.461-7.795-10.948-8.91-16.979c0,0-8.279.577-4.052,10.348l.003-.006Z" transform="translate(.269152 0.126712)" fill="#f37268"/><path d="M230.615,166.801c6.967-2.425,21.771-9.902,14.756-19.982-7.014-10.08-9.993-5.856-7.295-17.975c2.697-12.122-5.835-21.771-14.098-19.442-8.26,2.329-10.436,8.969-20.513,7.171-10.074-1.799-18.568,7.551-14.86,15.78c3.709,8.229,5.289,12.187,1.686,16.679-3.602,4.493-19.664,9.197-13.108,20.129c6.556,10.933,9.624,10.296,7.245,15.837-2.378,5.538,2.901,11.934,12.191,11.173c9.29-.765,17.728-4.18,21.246-14.504c3.519-10.327,12.746-14.859,12.746-14.859l.004-.007Z" transform="translate(-.19904-.34148)" fill="#010101"/><path d="M228.767,163.627c3.153.327,6.883,1.929,8.238,5.678c1.358,3.749.493,13.551.493,13.551l-8.731-19.229Z" transform="translate(-.19904-.34148)" fill="#db6258"/><path d="M211.319,153.512l.103,13.723c0,0,6.659,4.052,11.919.818-.808-4.046-1.985-13.27-1.985-13.27l-10.037-1.271Z" transform="translate(-.19904-.34148)" fill="#f37b51"/><path d="M216.682,156.044c7.586,0,13.736-8.267,13.736-18.465s-6.15-18.465-13.736-18.465-13.735,8.267-13.735,18.465s6.149,18.465,13.735,18.465Z" fill="#f37b51"/><path d="M202.032,137.579c7.583-.971,14.632-5.195,18.615-10.655c2.572,6.381,9.771,10.655,9.771,10.655s5.395-12.206-4.417-18.793c-9.359-6.281-31.689-1.989-23.969,18.793Z" transform="translate(-.19904-.34148)" fill="#010101"/><path d="M210.904,141.518c-.805,0-1.461-.652-1.461-1.461c0-.808.653-1.461,1.461-1.461.809,0,1.461.653,1.461,1.461c0,.809-.652,1.461-1.461,1.461Z" transform="translate(-.19904-.34148)" fill="#010101"/><path d="M222.539,141.518c-.806,0-1.461-.652-1.461-1.461c0-.808.652-1.461,1.461-1.461.808,0,1.461.653,1.461,1.461c0,.809-.653,1.461-1.461,1.461Z" transform="translate(-.19904-.34148)" fill="#010101"/><path d="M225.111,138.743c-.24,0-.471-.122-.602-.343-.362-.609-.796-.971-1.299-1.083-.865-.191-1.723.387-1.732.39-.319.218-.756.137-.974-.178-.219-.319-.144-.752.171-.971.053-.037,1.352-.93,2.819-.615.902.194,1.649.78,2.217,1.742.196.334.087.762-.247.961-.112.066-.234.097-.356.097h.003Z" transform="translate(-.19904-.34148)" fill="#010101"/><path d="M208.135,138.815c-.153,0-.309-.05-.437-.153-.303-.243-.35-.684-.109-.986.921-1.152,1.942-1.777,3.031-1.861c1.405-.109,2.373.759,2.413.796.287.262.306.706.044.99-.259.284-.699.306-.987.047-.021-.019-.596-.503-1.379-.434-.681.059-1.365.508-2.03,1.339-.137.172-.343.262-.546.262Z" transform="translate(-.19904-.19904)" fill="#010101"/><path d="M218.131,141.974c1.889,1.361,2.476,1.92,3.206,2.373-.503,1.685-3.147,2.522-3.899,2.329c1.842-.909,2.101-2.139,2.101-2.139l-1.408-2.566v.003Z" transform="translate(-.19904-.34148)" fill="#de623c"/><path d="M204.998,139.002c1.573,1.995,1.651,4.555.175,5.722-1.477,1.168-3.952.497-5.526-1.498-1.573-1.995-1.651-4.555-.175-5.722c1.477-1.168,3.952-.496,5.526,1.498Z" transform="translate(-.19904-.34148)" fill="#f37b51"/><path d="M203.618,143.31c-.059,0-.122-.012-.181-.037-.237-.1-.35-.375-.25-.612.334-.79.341-1.427.022-1.889-.493-.715-1.654-.936-2.497-.908-.259.009-.475-.194-.484-.453-.01-.259.193-.474.453-.484c1.133-.037,2.594.288,3.299,1.315.35.512.649,1.408.069,2.781-.075.178-.25.284-.431.284v.003Z" transform="translate(-.19904-.34148)" fill="#de623c"/><path d="M213.039,149.17c-.196-.319.082-.718.45-.64.933.197,2.476.49,3.965.621c1.486.134,3.059.119,4.011.091.375-.013.578.43.328.708-.765.862-2.304,2.136-4.583,1.933s-3.568-1.73-4.167-2.713h-.004Z" transform="translate(-.19904-.19904)" fill="#fff"/><path d="M199.207,162.918c0,0-17.794,7.895-27.737,28.564c5.807,8.173,12.072,3.312,12.072,3.312l16.576-12.946c0,0,4.215-7.629,3.672-11.653-.809-5.978-4.583-7.277-4.583-7.277Z" transform="translate(-.19904-.34148)" fill="#db6258"/><path d="M202.266,276.989c-5.725-1.036-11.216-1.03-14.438-.958c2.039-6.818.877-49.355,13.798-63.83l33.088.437c11.509,19.751,5.413,49.817,12.524,61.804-2.778,1.342-8.813,3.905-19.015,4.936-11.278,1.139-16.286-.64-25.96-2.389h.003Z" transform="translate(-.19904-.34148)" fill="#111235"/><path d="M234.426,204c0-6.759,5.857-16.885,3.05-23.71-2.045-5.488-5.628-15.384-9.811-16.923-1.973-.724-2.944-1.279-5.404-1.96c0,0-.128,5.229-3.019,5.463-5.566.446-7.87-6.712-7.87-6.712-3-.287-14.088,2.86-14.082,3.99.031,8.853,3.927,23.169,6.278,32.744.437,4.873.09,8.653-.397,11.413-.892,2.875-2.435,4.355-2.441,4.976c0,0,21.088,7.177,34.214-.05c0,0-.515-4.664-.515-9.231h-.003Z" transform="translate(-.19904-.34148)" fill="#f58880"/><path d="M208.915,160.339c0,0,6.509,24.275,6.509,34.536c0,11.663-5.981,31.327-5.981,31.327l-14.635-.571c0,0,1.792-8.192,6.256-15.475c4.611-7.52-.452-23.557-1.567-27.824-1.114-4.267-2.931-18.028-2.931-18.028s6.094-3.999,12.346-3.962l.003-.003Z" transform="translate(-.19904-.34148)" fill="#f37268"/><path d="M224.424,162.097c1.455,3.09,7.08,15.752,6.731,23.45-.35,7.699-1.068,34.134,1.042,41.326c5.257-.156,7.658-1.742,7.658-1.742.749-2.029-7.127-13.67-5.007-22.717c2.123-9.047,3.974-15.493,3.39-19.199-.656-4.155-3.871-14.687-9.471-19.585-1.976-.874-4.343-1.53-4.343-1.53v-.003Z" transform="translate(-.19904-.34148)" fill="#f37268"/><path d="M197.265,210.359l.94.393c0,0,1.91-2.578,3.865-2.481l-1.193,2.513c0,0,2.245,3.693,8.16,3.302c5.054,1.149,1.518,3.547,2.916,4.508c2.064,1.414-3.724,4.892-8.6,3.394-6.309-1.942-10.411-7.902-10.411-7.902l4.323-3.727Z" transform="translate(-.19904-.34148)" fill="#f37b51"/><path d="M197.265,210.359l-13.398-16.914c0,0-2.822-5.397-12.397-1.963-.462,5.148,5.042,12.159,22.118,23.453l3.677-4.576Z" transform="translate(-.19904-.34148)" fill="#db6258"/></g><g transform="translate(.000001 0.000001)"><path d="M369.279,130.711h-.009l-6.924.025-1.567,16.355l8.082,4.267l8.619-4.22-1.392-16.402-6.809-.025Z" transform="translate(0-.124224)" fill="#f37b51"/><path d="M383.505,118.062c-1.055,11.422-9.181,20.01-18.15,19.18-8.972-.828-15.387-10.758-14.335-22.18c1.055-11.423,9.181-20.0106,18.15-19.1802c8.972.8272,15.387,10.7572,14.335,22.1802Z" fill="#f37b51"/><path d="M362.895,119.148c-1.554,2.204-3.521,4.889-3.521,4.889s.702,2.457,3.877,2.669c-1.314-.631-2.594-1.611-1.945-3.372.65-1.763,1.589-4.183,1.589-4.183v-.003Z" transform="translate(0-.124224)" fill="#de623c"/><path d="M386.82,108.781c.534-10.8639-9.562-14.02-9.562-14.02s2.198-.8741,1.527-4.1238c-1.533,1.0302-3.44,1.5546-5.285,1.4454-12.425-.7305-20.135,1.617-18.709,6.4183.509,1.7071-7.486,2.9161-3.449,14.2261.712-1.383,1.195-6.487,3.559-7.702c2.369-1.217,1.095,2.801,6.536,1.967c5.492-.843,8.991-3.275,13.096-1.258c3.29,1.845,7.839,14.866,7.689,15.771.337-2.082,4.364-7.951,4.598-12.724Z" fill="#010101"/><path d="M351.183,121.271c0,0,1.301,6.131,2.716,7.726.184-2.669,6.084-1.23,8.625-1.111c4.604.218,9.097-4.04,10.885,1.926c5.857.103,7.468-12.843,7.468-12.843c4.108,12.709-3.1,22.761-17.214,24.634-9.296,1.233-13.795-10.889-12.48-20.332Z" transform="translate(0-.124224)" fill="#010101"/><path d="M366.666,130.88c.806-.466,1.602-1.087,2.389-1.864.206-.203.206-.534.003-.737-.203-.206-.534-.206-.737-.003-1.745,1.723-3.509,2.591-5.248,2.579-2.147-.016-3.54-1.408-3.552-1.421-.2-.206-.531-.209-.737-.009s-.209.527-.012.737c.068.068,1.685,1.71,4.273,1.735c1.215.013,2.423-.328,3.618-1.014l.003-.003Z" transform="translate(0-.124224)" fill="#de623c"/><path d="M369.944,118.73c.899.025,1.648-.687,1.673-1.586s-.686-1.652-1.585-1.673c-.9-.025-1.649.686-1.674,1.585-.025.9.687,1.649,1.586,1.674Z" fill="#010101"/><path d="M356.955,118.377c.899.025,1.648-.687,1.673-1.586s-.687-1.648-1.586-1.673-1.651.687-1.673,1.586c-.025.899.687,1.651,1.586,1.673Z" fill="#010101"/><path d="M354.167,115.202c.268.006.531-.122.684-.365.421-.668.92-1.061,1.482-1.171.971-.187,1.911.484,1.92.49.35.253.837.178,1.093-.168.256-.347.184-.834-.163-1.09-.059-.043-1.479-1.08-3.127-.771-1.012.191-1.864.821-2.529,1.876-.231.366-.122.85.243,1.081.122.078.259.118.397.121v-.003Z" fill="#010101"/><path d="M373.119,115.795c.172.006.346-.047.493-.159.344-.262.412-.752.15-1.096-.993-1.311-2.113-2.041-3.328-2.169-1.567-.166-2.672.774-2.719.814-.328.285-.362.778-.078,1.106.281.324.771.362,1.099.084.025-.019.681-.543,1.555-.443.758.087,1.507.611,2.222,1.554.15.197.375.303.603.309h.003Z" fill="#010101"/><path d="M381.026,117.016c-1.879,1.935-2.116,4.751-.534,6.287c1.583,1.536,4.39,1.214,6.269-.721s2.116-4.751.534-6.287c-1.583-1.536-4.393-1.215-6.269.721Z" transform="translate(0-.124224)" fill="#f37b51"/><path d="M383.009,122.442c-.085-.029-.163-.075-.231-.144-.962-.965-1.205-2.163-.656-3.209.562-1.071,1.795-1.698,2.934-1.489.322.059.534.365.475.686-.059.322-.365.534-.687.475-.624-.112-1.361.272-1.679.877-.306.584-.147,1.23.449,1.826.231.231.228.606,0,.834-.162.162-.399.209-.602.14l-.003.004Z" transform="translate(0-.124224)" fill="#de623c"/><path d="M356.642,344.666c-6.121,8.447-21.156,3.265-20.659,14.687c22.863-.146,32.366,0,32.366,0-.031-2.625-.481-8.853-1.008-11.291l-10.699-3.4v.004Z" transform="translate(0-.124224)" fill="#0f123f"/><path d="M390.31,344.666c-6.121,8.447-21.156,3.265-20.659,14.687c22.863-.146,32.366,0,32.366,0-.031-2.625-.484-8.853-1.008-11.291l-10.699-3.4v.004Z" transform="translate(0-.124224)" fill="#0f123f"/><path d="M341.795,215.766c0,0-2.191,55.851-.683,67.888c1.508,12.038,9.765,25.517,9.159,65.329c7.455,1.867,18.253,0,18.253,0s1.601-45.019-6.278-65.126c3.203-19.532,13.486-64.267,13.486-64.267l-33.937-3.824Z" fill="#798cc6"/><path d="M357.782,217.186c0,0,7.495,60.78,11.163,72.309s9.181,20.067,15.824,59.285c7.661.384,14.66,1.252,14.66,1.252s3.493-50.232-8.435-61.545c-.403-19.808-.824-70.914-.824-70.914l-32.391-.39.003.003Z" fill="#8fa1d2"/><path d="M394.721,148.202c0,0-13.017-4.558-17.36-2.466-13.489,6.493-16.582,0-16.582,0-4.733-1.049-15.909-1.049-15.909-1.049-1.414,18.88-5.647,79.174-5.647,79.174s16.239,3.852,29.819,3.952c13.576-.088,27.396-3.709,27.396-3.709s-.724-26.394-1.326-36.206c.196-10.995-.391-25.202-.391-39.693v-.003Z" transform="translate(0-.124224)" fill="#f37268"/><path d="M344.87,144.687l-56.319,23.104l2.81,14.207l52.186-14.825l1.323-22.486Z" transform="translate(0-.124224)" fill="#db6258"/><path d="M380.808,218.176c.109-.075.228-.122.35-.159-.013-.019-.029-.035-.041-.054-.749-1.089-.724-2.41.059-2.946.128-.088.272-.147.419-.185-.219-.811-.05-1.595.508-1.979.222-.153.481-.221.756-.225-.272-.799-.081-1.645.543-2.072.784-.537,1.936-.219,2.575.711.64.931.525,2.12-.259,2.66-.196.137-.421.215-.652.247.543,1.017.459,2.144-.25,2.628-.128.088-.268.147-.418.184.218.815.05,1.596-.509,1.98-.206.14-.443.212-.696.224.275.696.122,1.455-.431,1.836-.662.453-1.636.184-2.176-.603-.54-.786-.443-1.791.219-2.244l.003-.003Z" transform="translate(-.279 0.084515)" fill="#f37b51"/></g><g transform="translate(.000001 0)"><path d="M314.867,350.169l-6.068,2.819-3.078-6.421-8.816-57.646c1.523-19.283,16.289-60.306,16.289-60.306l17.051,24.793-19.355,39c7.605,7.782,3,31.732,3.977,57.761Z" transform="translate(-.659608-.603948)" fill="#f37b51"/><path d="M323.196,229.976c.153-1.193,19.18-2.897,19.18-2.897c3.602,15.037,3.887,39.353,1.046,55.954c4.161,14.369,2.163,48.143-.153,65.369l-10.027-.025c-.659-9.306-.169-39.774-8.376-65.344-1.623-9.606-2.326-46.657-1.667-53.06l-.003.003Z" transform="translate(-.659608-.223901)" fill="#f37b51"/><path d="M309.623,350.456c-1.246-3.499-3.903-3.889-3.903-3.889-5.169,7.386-17.865,2.853-17.444,12.842c19.308-.128,27.331,0,27.331,0-.025-2.294-.406-7.741-.852-9.87l-1.006.19-4.123.724-.003.003Z" transform="translate(-.659607-.603948)" fill="#f37268"/><path d="M313.55,362.079h-23.229c-1.133,0-2.054-.921-2.054-2.055v-.886h27.34v.886c0,1.134-.921,2.058-2.057,2.058v-.003Z" transform="translate(-.845709-.603947)" fill="#fff"/><path d="M330.851,359.509c0,0,1.548-6.193,1.685-6.989.156-.905.612-3.044.703-4.14.022-.268,2.684-2.013,4.717-2.01c2.753.003,5.26,1.714,5.313,2.035.325,2.067.334,4.496.861,6.509.391,1.499,1.455,4.986,1.455,4.986l-14.734-.391Z" transform="translate(-.659608-.223901)" fill="#f37268"/><path d="M330.851,359.029c.362,1.23,4.816-.191,8.069-.188c2.732,0,6.262,1.134,6.665.693.684,1.293.122,3.968.122,3.968s-2.844.156-6.256,0-7.358.075-8.841-.396c-.936-1.68.247-4.077.247-4.077h-.006Z" transform="translate(-.659608-.603949)" fill="#fff"/><path d="M299.477,129.128c-.624-8.503,1.836-16.017,8.613-19.842c6.871-3.877,15.481-.075,15.481-.075s7.286-2.594,13.891,4.683c6.606,7.274,1.608,13.676,4.311,18.983c1.602,3.141,9.737,3.79,7.636,14.023-.605,2.95-4.155,4.939-7.164,5.136-5.282.346-10.202-1.696-12.344.346-7.058,6.73-22.695,4.296-24.883-1.861-.677-1.907-14.744,1.786-13.342-11.216.712-6.587,8.357-2.582,7.798-10.18l.003.003Z" transform="translate(-.109607 0.109607)" fill="#010101"/><path d="M315.189,147.497l9.068-1.358-.721,8.416c0,0-2.684,7.867-8.035,8.016-5.348.15-3.365-6.156-3.365-6.156l3.053-8.918Z" transform="translate(-.109607 0.109607)" fill="#f37b51"/><path d="M298.687,199.733c0-7.109-6.162-17.76-3.209-24.937c2.151-5.772,5.744-15.465,10.146-17.082c2.076-.762,4.161-1.28,6.749-1.998c0,0-.756,4.717,2.285,4.96c5.853.469,8.956-7.061,8.956-7.061c3.156-.303,17.504,4.417,18.178,6.727-.034,9.313-8.176,21.843-10.651,31.911-.974,10.873,1.352,16.679,1.364,17.916c0,0-20.557,6.87-34.364-.731c0,0,.543-4.907.543-9.709l.003.004Z" transform="translate(-.659608-.223903)" fill="#6e86c3"/><path d="M331.928,135.316c-1.858,9.88-9.653,16.707-17.413,15.249-7.761-1.458-12.547-10.651-10.689-20.531c1.857-9.881,9.652-16.708,17.413-15.25c7.76,1.458,12.546,10.651,10.689,20.532Z" transform="translate(-.109607 0.109607)" fill="#f37b51"/><path d="M323.627,131.338c-.109-.025-.212-.084-.29-.181-1.109-1.383-3.138-1.201-3.16-1.201-.284.028-.536-.182-.565-.463-.028-.284.178-.536.462-.565.107-.012,2.604-.243,4.068,1.583.178.222.144.546-.081.728-.128.103-.287.134-.437.099h.003Z" fill="#010101"/><path d="M306.938,131.192c-.053-.016-.103-.041-.153-.075-.231-.166-.287-.49-.119-.721c1.29-1.805,3.316-1.499,3.4-1.483.281.047.471.312.428.593-.047.281-.309.471-.59.428-.066-.01-1.489-.206-2.395,1.064-.131.184-.362.256-.568.194h-.003Z" transform="translate(-.109607 0.109607)" fill="#010101"/><path d="M313.25,135.328c-.608.705-1.127,1.433-1.738,1.839-.207.137-.241.437-.082.671.656.974,2.326,1.807,3.341,2.244.146.063.24-.118.112-.221-1.077-.884-1.573-1.527-1.792-1.88-.109-.174-.131-.377-.065-.549.149-.39.446-1.189.63-1.851.066-.228-.253-.428-.403-.253h-.003Z" fill="#de623c"/><path d="M319.872,142.898c.193-.309-.072-.696-.431-.624-.906.181-2.404.452-3.849.565-1.443.115-2.966.087-3.89.05-.362-.016-.565.412-.325.683.734.843,2.214,2.092,4.424,1.914c2.21-.175,3.474-1.642,4.064-2.591l.007.003Z" fill="#fff"/><path d="M319.615,132.949c0,.884.715,1.599,1.599,1.599.883,0,1.598-.715,1.598-1.599c0-.883-.715-1.598-1.598-1.598-.884,0-1.599.715-1.599,1.598Z" transform="translate(-.109607 0.109607)" fill="#010101"/><path d="M307.815,132.949c0,.884.715,1.599,1.599,1.599.883,0,1.598-.715,1.598-1.599c0-.883-.715-1.598-1.598-1.598-.884,0-1.599.715-1.599,1.598Z" transform="translate(-.109607 0.109607)" fill="#010101"/><path d="M312.179,114.362c3.491-3.321,9.772-4.776,13.883-2.968c5.46,2.4,11.054,13.57,7.533,20.996-7.221-.608-16.926-6.074-21.412-10.692-1.246,1.112-4.393,3.753-8.392,5.866-.477-3.527,6.771-12.502,8.388-13.198v-.004Z" fill="#010101"/><path d="M329.77,131.329c-1.791,1.542-2.222,3.98-.961,5.447c1.261,1.468,3.737,1.405,5.529-.137c1.791-1.542,2.222-3.98.961-5.447-1.261-1.468-3.737-1.405-5.529.137Z" transform="translate(-.109607 0.109607)" fill="#f37b51"/><path d="M331.075,136.221c-.071-.031-.137-.078-.19-.144-.762-.918-.884-1.982-.322-2.853.575-.89,1.702-1.339,2.679-1.071.275.075.437.362.359.637-.075.275-.362.437-.637.362-.537-.147-1.211.131-1.536.634-.312.484-.225,1.064.247,1.629.181.219.153.547-.066.728-.156.131-.365.153-.54.075l.006.003Z" transform="translate(-.109607 0.109607)" fill="#de623c"/><path d="M353.152,277.508c-10.417-12.865-2.788-58.489-21.652-72.403l-32.416,2.638c-10.82,14.023-3.319,44.032-12.206,72.624c15.262,5.448,38.918,5.697,66.277-2.859h-.003Z" transform="translate(-.659607-.223902)" fill="#6e86c3"/><path d="M339.841,209.376l-1.904.761c0,0-1.985-3.156-3.999-3.056l1.002,3.016c0,0-1.139,3.524-7.236,3.122-5.21,1.183-1.564,3.655-3.006,4.645-2.129,1.458,3.839,5.044,8.865,3.496c6.506-2.001,10.733-8.145,10.733-8.145l-4.458-3.839h.003Z" transform="translate(-.659608-.223902)" fill="#f37b51"/><path d="M339.841,209.376l11.129-16.299c0,0,2.629-6.253,12.496-2.71.478,5.307-3.365,12.862-20.965,24.506-1.137-2.972-2.66-5.494-2.66-5.494v-.003Z" fill="#f37b51"/><path d="M339.841,158.688c0,0,15.918,9.325,23.625,31.676-6.924,7.674-13.357,1.355-13.357,1.355l-14.822-14.647c0,0-4.533-5.569-2.367-12.372c1.889-5.925,6.918-6.012,6.918-6.012h.003Z" transform="translate(-.659608-.223902)" fill="#f37b51"/><path d="M311.056,157.57c0,.834-.675,1.508-1.511,1.508-.837,0-1.508-.674-1.508-1.508c0-.833.674-1.508,1.508-1.508.833,0,1.511.675,1.511,1.508Z" transform="translate(-.109607 0.109607)" fill="#fff"/><path d="M311.056,160.589c0,.834-.675,1.511-1.511,1.511-.837,0-1.508-.677-1.508-1.511c0-.833.674-1.511,1.508-1.511.833,0,1.511.678,1.511,1.511Z" transform="translate(-.109607 0.109607)" fill="#fff"/><path d="M311.543,163.342c0,.834-.675,1.511-1.508,1.511-.834,0-1.511-.677-1.511-1.511c0-.833.677-1.51,1.511-1.51.833,0,1.508.674,1.508,1.51Z" transform="translate(-.109607 0.109607)" fill="#fff"/><path d="M313.288,165.509c0,.833-.678,1.511-1.511,1.511-.834,0-1.508-.678-1.508-1.511c0-.834.677-1.508,1.508-1.508.83,0,1.511.674,1.511,1.508Z" transform="translate(-.109607 0.109607)" fill="#fff"/><path d="M316.153,166.361c0,.834-.677,1.511-1.511,1.511-.833,0-1.507-.674-1.507-1.511c0-.836.674-1.508,1.507-1.508.834,0,1.511.675,1.511,1.508Z" transform="translate(-.109607 0.109607)" fill="#fff"/><path d="M318.969,165.509c0,.833-.674,1.511-1.508,1.511-.833,0-1.511-.678-1.511-1.511c0-.834.678-1.508,1.511-1.508.834,0,1.508.674,1.508,1.508Z" transform="translate(-.109607 0.109607)" fill="#fff"/><path d="M321.445,163.998c0,.833-.675,1.508-1.511,1.508-.837,0-1.511-.675-1.511-1.508c0-.834.677-1.511,1.511-1.511.833,0,1.511.677,1.511,1.511Z" transform="translate(-.109607 0.109607)" fill="#fff"/><path d="M323.436,162.1c0,.834-.674,1.511-1.51,1.511-.837,0-1.508-.677-1.508-1.511c0-.833.677-1.511,1.508-1.511.83,0,1.51.678,1.51,1.511Z" transform="translate(-.109607 0.109607)" fill="#fff"/><path d="M325.494,160.199c0,.833-.678,1.511-1.508,1.511-.831,0-1.511-.675-1.511-1.511c0-.837.674-1.508,1.511-1.508.836,0,1.508.677,1.508,1.508Z" transform="translate(-.109607 0.109608)" fill="#fff"/><path d="M327.005,157.923c0,.834-.678,1.508-1.511,1.508-.834,0-1.508-.677-1.508-1.508c0-.83.674-1.511,1.508-1.511.833,0,1.511.675,1.511,1.511Z" transform="translate(-.109607 0.109608)" fill="#fff"/><path d="M327.978,155.432c0,.833-.674,1.511-1.51,1.511-.837,0-1.508-.678-1.508-1.511c0-.834.677-1.511,1.508-1.511.83,0,1.51.677,1.51,1.511Z" transform="translate(-.109607 0.109607)" fill="#fff"/><path d="M315.982,235.957c0,0,3.146-10.882,6.605-18.143c2.516-5.279,8.242-11.598,11.179-14.657.556-.58,1.524-.081,1.377.709-.756,4.024-2.498,11.959-5.351,17.375-3.964,7.53-10.567,14.716-10.567,14.716h-3.246.003Z" transform="translate(-.326098 0.109608)" fill="#6e86c3"/></g><g><path d="M410.78,113.869c-11.91-3.362-35.698,6.269-28.774,49.586c6.921,43.314,38.067,37.305,38.067,37.305s14.291-4.493,15.574-32.011-4.842-49.226-24.867-54.877v-.003Z" transform="translate(-.135279 0.014235)" fill="#0f123f"/><path d="M396.214,173.906c-2.535,7.302-12.05,21.587-15.447,24.206-2.263-3.221-10.614-1.617-10.614-1.617s8.351-20.238,15.893-30.043c3.518-6.606,14.332-4.461,10.168,7.454Z" transform="translate(-.34928 0.014235)" fill="#7d90c8"/><path d="M370.153,196.498c1.621,8.9,12.381,20.47,12.381,20.47s1.211-.697,1.474-5.941c-1.333-3.593-3.238-12.912-3.238-12.912s-4.236-4.551-10.614-1.617h-.003Z" transform="translate(-.349279 0.014235)" fill="#f37b51"/><path d="M400.437,153.209l8.875-1.33-.705,8.239c0,0-4.495,8.101-8.76,6.705-4.264-1.395-2.185-4.973-2.185-4.973l2.775-8.641Z" transform="translate(-.135279 0.014235)" fill="#f37b51"/><path d="M416.414,139.842c-1.442,9.734-8.809,16.708-16.454,15.574-7.645-1.133-12.675-9.942-11.232-19.679c1.442-9.734,8.809-16.708,16.454-15.574c7.645,1.133,12.675,9.942,11.232,19.679Z" transform="translate(-.07028-.07028)" fill="#f37b51"/><path d="M408.104,137.217c-.106-.032-.202-.097-.271-.197-.99-1.424-2.985-1.383-3.003-1.383-.278.009-.512-.212-.522-.49-.009-.278.21-.512.487-.522.103-.003,2.56-.065,3.868,1.814.159.228.103.547-.125.706-.131.09-.29.112-.434.068v.004Z" transform="translate(-.13528 0.014235)" fill="#0f123f"/><path d="M391.054,136.933c-.05-.019-.1-.047-.144-.085-.212-.181-.24-.499-.059-.715c1.404-1.654,3.355-1.192,3.437-1.17.271.068.437.343.368.612-.069.271-.34.434-.612.368-.062-.016-1.436-.322-2.422.843-.144.168-.375.221-.572.143l.004.004Z" transform="translate(-.070279 0.014235)" fill="#0f123f"/><path d="M398.115,141.053c-.637.781-1.186,1.577-1.817,2.057-.212.163-.259.469-.106.69.624.909,2.269,1.558,3.272,1.886.146.047.246-.147.121-.237-1.052-.768-1.526-1.361-1.732-1.692-.103-.166-.119-.366-.047-.547.165-.412.493-1.255.702-1.944.072-.238-.237-.403-.396-.21l.003-.003Z" transform="translate(-.135279 0.014235)" fill="#de623c"/><path d="M404.521,148.405c.193-.297-.06-.684-.409-.618-.89.159-2.363.396-3.778.481-1.414.084-2.903.028-3.805-.025-.356-.022-.559.39-.331.664.703.837,2.126,2.089,4.293,1.958c2.166-.131,3.43-1.542,4.03-2.457v-.003Z" transform="translate(-.135279 0.014235)" fill="#fff"/><path d="M419.527,138.949c-9.044-.409-20.938-8.756-22.374-13.339c1.233-5.766,5.782-9.025,11.21-6.883c5.429,2.141,14.326,12.82,11.164,20.219v.003Z" transform="translate(-.065 0.084515)" fill="#0f123f"/><path d="M399.22,127.929c0,0-5.382,5.47-10.833,6.718c1.908-6.38,3.269-11.216,6.541-12.783c3.268-1.567,6.88-1.839,6.88-1.839l-2.588,7.904Z" transform="translate(-.135279 0.014235)" fill="#0f123f"/><path d="M414.301,138.331c-1.695,1.576-2.023,3.977-.734,5.366c1.29,1.386,3.709,1.233,5.404-.343c1.695-1.577,2.023-3.977.734-5.363-1.29-1.386-3.709-1.233-5.404.343v-.003Z" transform="translate(-.135279 0.014235)" fill="#f37b51"/><path d="M415.762,143.067c-.072-.028-.137-.072-.191-.135-.78-.867-.936-1.907-.421-2.778.528-.893,1.614-1.377,2.582-1.149.271.066.44.337.377.609-.065.272-.337.44-.608.378-.531-.125-1.177.171-1.477.677-.287.484-.181,1.049.303,1.586.187.206.168.528-.038.715-.146.131-.349.162-.524.094l-.003.003Z" transform="translate(-.135279 0.014235)" fill="#de623c"/><path d="M407.133,138.706c0,.858-.696,1.554-1.554,1.554-.859,0-1.555-.696-1.555-1.554c0-.859.696-1.555,1.555-1.555.858,0,1.554.696,1.554,1.555Z" transform="translate(-.13528 0.014235)" fill="#010101"/><path d="M395.811,138.706c0,.858-.696,1.554-1.555,1.554-.858,0-1.554-.696-1.554-1.554c0-.859.696-1.555,1.554-1.555.859,0,1.555.696,1.555,1.555Z" transform="translate(-.070279 0.014235)" fill="#010101"/><path d="M392.127,339.78c.593-5.928-2.463-51.047-2.463-51.047-8.65-39.665-5.254-68.057-5.254-68.057l14.869,1.046l5.86,22.414-2.779,37.433c0,0,1.043,2.881,1.596,5.185c2.984,12.496.012,27.428-1.827,37.38-.852,4.614-2.176,14.307-2.21,16.508l3.737,4.829c0,0-13.517,14.962-15.599,15.056-4.043.181-2.851-3.821-2.851-3.821c5.557-5.707,6.756-15.228,6.927-16.926h-.006Z" transform="translate(-.280961-.756694)" fill="#f37b51"/><path d="M403.881,350.772l-.743,9.611-1.727.079-.874-8.929c-4.598,1.174-7.895,9.519-7.895,9.519-3.168,1.136-11.219,1.916-14.085.44-.693-2.81,6.656-4.777,6.656-4.777.665.787,4.586,1.39,5.978.547c5.129-4.368,7.629-10.717,8.722-16.62c0,0,8.104.565,3.968,10.13Z" transform="translate(-.280962-.756695)" fill="#db6258"/><path d="M397.153,223.561l20.947-2.885c8.014,18.128,10.623,49.689,12.799,60.934c8.732,14.637,11.504,59.032,11.504,59.032l3.737,4.829c0,0-13.517,14.962-15.6,15.056-4.042.181-2.85-3.821-2.85-3.821c5.557-5.707,6.64-13.286,6.999-14.953.54-2.507-16.954-51.755-16.954-51.755l-1.867-4.674c-21.368-35.291-24.874-61.972-24.874-61.972l6.162.209h-.003Z" transform="translate(-.280962-.756694)" fill="#f37b51"/><path d="M446.371,350.772l-.743,9.611-1.727.079-.874-8.929c-4.598,1.174-7.895,9.519-7.895,9.519-3.168,1.136-11.219,1.916-14.085.44-.693-2.81,6.656-4.777,6.656-4.777.665.787,4.585,1.39,5.978.547c5.129-4.368,7.629-10.717,8.722-16.62c0,0,8.104.565,3.968,10.13Z" transform="translate(-.280961-.756695)" fill="#db6258"/><path d="M436.097,279.549c-2.092-6.999-1.18-57.093-19.648-70.713l-31.776,3.349c-7.343,11.888-4.649,42.815-2.176,68.27c14.94,5.331,26.819,7.473,53.6-.903v-.003Z" transform="translate(-.345961 0.014235)" fill="#111235"/><path d="M384.282,204.343c0-6.958-6.031-17.385-3.14-24.409c2.107-5.65,5.794-15.839,10.102-17.422c2.032-.746,3.952-.565,6.484-1.264c0,0-.787,4.629,2.188,4.87c5.732.459,8.744-6.887,8.744-6.887c3.091-.296,13.867,2.922,13.861,4.083-.035,9.116-4.043,23.857-6.466,33.712-.449,5.02-.093,8.909.409,11.75.918,2.96,2.039,4.655,2.045,5.295c0,0-21.243,7.217-34.757-.225c0,0,.53-4.804.53-9.503Z" transform="translate(-.494961-.07028)" fill="#97a5d4"/><path d="M422.077,210.958l-1.81.725c0,0-1.886-3-3.8-2.907l.956,2.866c0,0-1.084,3.35-6.881,2.969-4.951,1.127-1.489,3.477-2.859,4.417-2.023,1.386,3.649,4.795,8.432,3.325c6.184-1.902,10.201-7.742,10.201-7.742l-4.239-3.653Z" transform="translate(-.345961 0.014235)" fill="#f37b51"/><path d="M422.077,210.958l10.58-15.496c0,0,2.5-5.944,11.881-2.579.453,5.045-3.2,12.228-19.935,23.298-1.081-2.825-2.529-5.226-2.529-5.226l.003.003Z" transform="translate(-.345962 0.014235)" fill="#f37b51"/><path d="M399.919,166.115c-.512,2.385.874,5.241,4.867,3.902c4.782-1.605,7.017-10.586,7.017-10.586l-3-1.623c0,0-2.278,6.203-8.887,8.307h.003Z" transform="translate(-.135279 0.014235)" fill="#fff"/><path d="M399.919,166.114c-.59,1.227-3.955,4.377-5.55,2.501-1.596-1.876.265-6.799.265-6.799l3.627-1.842c0,0-1.423,4.433,1.655,6.14h.003Z" transform="translate(-.135279 0.014235)" fill="#fff"/><path d="M422.077,162.768c0,0,15.134,8.866,22.464,30.115-6.58,7.299-12.128,1.852-12.128,1.852L417.75,180.247c0,0-4.311-5.295-2.247-11.763c1.795-5.632,6.577-5.719,6.577-5.719l-.003.003Z" fill="#f37b51"/><path d="M422.077,162.768c0,0,15.134,8.866,22.464,30.115-6.58,7.299-12.699,1.287-12.699,1.287L417.75,180.247c0,0-4.311-5.295-2.247-11.763c1.795-5.632,6.577-5.719,6.577-5.719l-.003.003Z" transform="translate(-.559961 0.014235)" fill="#7d90c8"/></g></g><g id="eVu87xSYD3k169" transform="translate(0-380)"><path d="M431.517,271.414h-230.824c-5.426,0-9.824-2.959-9.824-6.609c0-3.649,4.398-6.608,9.824-6.608h230.824c5.426,0,9.824,2.959,9.824,6.608c0,3.65-4.398,6.609-9.824,6.609Z" fill="#97a5d4"/><path d="M287.202,364.557c-2.472,0-3.961-2.744-2.609-4.817l60.945-93.396l5.217,3.406-60.946,93.396c-.574.881-1.558,1.411-2.61,1.411h.003Z" fill="#97a5d4"/><path d="M345.005,364.557c2.472,0,3.961-2.744,2.609-4.817l-60.945-93.396-5.217,3.406l60.946,93.396c.574.881,1.558,1.411,2.61,1.411h-.003Z" fill="#97a5d4"/></g><g id="eVu87xSYD3k173" transform="translate(0-380)"><path d="M303.067,252.986v3.431h.934c.452,0,.821.368.821.821v.137c0,.453-.369.821-.821.821h-39.806c-.524,0-.955-.427-.955-.955v-4.942c0-.527.428-.955.955-.955h39.806c.452,0,.821.369.821.821c0,.453-.369.821-.821.821h-.934Z" fill="#f37268"/><path d="M268.584,252.986h34.602v3.431h-34.602c-.502,0-.908-.406-.908-.908v-1.611c0-.503.409-.909.908-.909v-.003Z" fill="#fff"/><path d="M259.725,245.582v3.796h-.934c-.452,0-.821.405-.821.908v.153c0,.503.369.908.821.908h39.806c.524,0,.955-.471.955-1.055v-5.466c0-.584-.428-1.058-.955-1.058h-39.806c-.452,0-.821.406-.821.908c0,.503.369.909.821.909h.934v-.003Z" fill="#6e86c3"/><path d="M294.161,249.375h-34.555v-3.797h34.555c.527,0,.955.428.955.956v1.882c0,.528-.428.955-.955.955v.004Z" fill="#fff"/><path d="M263.106,234.094h35.413c1.045,0,1.891.849,1.891,1.891v2.37c0,1.045-.849,1.891-1.891,1.891h-35.413c-1.046,0-1.892-.849-1.892-1.891v-2.37c0-1.046.849-1.891,1.892-1.891Z" fill="#f37268"/><path d="M265.207,240.246h36.337c.789,0,1.429.64,1.429,1.43v.656c0,.79-.64,1.43-1.429,1.43h-36.337c-.79,0-1.43-.64-1.43-1.43v-.656c0-.79.64-1.43,1.43-1.43Z" fill="#7b8fc8"/><g><path d="M188.584,363.078c1.648,0,2.984-1.336,2.984-2.985v-52.866h-5.969v52.866c0,1.649,1.336,2.985,2.985,2.985Z" transform="translate(.549692 0)" fill="#7b8fc8"/><path d="M167.646,363.078c1.649,0,2.985-1.336,2.985-2.985v-52.866h-5.969v52.866c0,1.649,1.336,2.985,2.984,2.985Z" fill="#7b8fc8"/><path d="M140.172,363.078c1.648,0,2.984-1.336,2.984-2.985v-52.866h-5.968v52.866c0,1.649,1.336,2.985,2.984,2.985Z" fill="#7b8fc8"/><path d="M119.234,363.078c1.649,0,2.985-1.336,2.985-2.985v-52.866h-5.969v52.866c0,1.649,1.336,2.985,2.984,2.985Z" fill="#7b8fc8"/><path d="M152.25,228.768v62.912c0,.715.58,1.296,1.295,1.296h39.006c3.937,0,7.127,3.19,7.127,7.127c0,3.936-3.19,7.127-7.127,7.127h-47.428c-3.937,0-7.127-3.191-7.127-7.127v-71.332c0-3.936,3.19-7.124,7.127-7.124c3.936,0,7.127,3.191,7.127,7.124v-.003Z" transform="translate(.549692 0)" fill="#97a5d4"/><path d="M114.286,294.131h30.84v-72.487h-30.84v72.487Z" transform="translate(.549692 0)" fill="#97a5d4"/><path d="M121.41,228.768v62.912c0,.715.581,1.296,1.296,1.296h39.006c3.936,0,7.127,3.19,7.127,7.127c0,3.936-3.191,7.127-7.127,7.127h-47.429c-3.936,0-7.127-3.191-7.127-7.127v-71.332c0-3.936,3.191-7.124,7.127-7.124c3.937,0,7.127,3.191,7.127,7.124v-.003Z" transform="translate(.549692 0)" fill="#7b8fc8"/></g><g><path d="M440.705,363.078c-1.649,0-2.985-1.336-2.985-2.985v-52.866h5.969v52.866c0,1.649-1.336,2.985-2.984,2.985Z" fill="#7b8fc8"/><path d="M461.642,363.078c-1.648,0-2.984-1.336-2.984-2.985v-52.866h5.968v52.866c0,1.649-1.336,2.985-2.984,2.985Z" fill="#7b8fc8"/><path d="M489.113,363.078c-1.648,0-2.984-1.336-2.984-2.985v-52.866h5.969v52.866c0,1.649-1.336,2.985-2.985,2.985Z" fill="#7b8fc8"/><path d="M510.051,363.078c-1.648,0-2.985-1.336-2.985-2.985v-52.866h5.969v52.866c0,1.649-1.336,2.985-2.984,2.985Z" fill="#7b8fc8"/><path d="M477.038,228.768v62.912c0,.715-.58,1.296-1.295,1.296h-39.006c-3.937,0-7.127,3.19-7.127,7.127c0,3.936,3.19,7.127,7.127,7.127h47.428c3.937,0,7.127-3.191,7.127-7.127v-71.332c0-3.936-3.19-7.124-7.127-7.124-3.936,0-7.127,3.191-7.127,7.124v-.003Z" fill="#97a5d4"/><path d="M515.002,221.644h-30.84v72.487h30.84v-72.487Z" fill="#97a5d4"/><path d="M507.878,228.768v62.912c0,.715-.581,1.296-1.296,1.296h-39.006c-3.936,0-7.127,3.19-7.127,7.127c0,3.936,3.191,7.127,7.127,7.127h47.429c3.936,0,7.127-3.191,7.127-7.127v-71.332c0-3.936-3.191-7.124-7.127-7.124-3.937,0-7.127,3.191-7.127,7.124v-.003Z" fill="#7b8fc8"/></g><g><path d="M461.165,204.727c-6.581-2.375-16.749-7.564-9.99-17.051c6.755-9.483,6.584-5.344,4.152-16.866-2.432-11.523,5.76-20.585,13.57-18.291c7.811,2.295,9.802,8.613,19.377,7.015c9.574-1.598,17.531,7.355,13.926,15.119-3.603,7.763-5.142,11.503-1.773,15.802c3.368,4.298,18.552,8.928,12.218,19.223-6.331,10.296-9.234,9.665-7.036,14.944c2.201,5.279-2.875,11.288-11.675,10.467-8.804-.821-16.77-4.148-19.998-13.976-3.228-9.827-12.775-16.379-12.775-16.379l.004-.007Z" fill="#113"/><path d="M437.883,354.39l-5.201,1.551-3.918-4.002c.187-.278.006-2.959-.596-5.819l9.715-1.614c.387,2.96,0,6.89,0,9.881v.003Z" fill="#f37b51"/><path d="M432.722,355.008c-1.236-3.247-3.88-3.606-3.88-3.606-5.138,6.853-17.753,2.648-17.335,11.916c19.186-.119,27.159,0,27.159,0-.025-2.129-.406-7.18-.846-9.159l-.999.178-4.096.674-.003-.003Z" fill="#f37268"/><path d="M403.297,355.358l-5.413.371-3.113-3.315c.244-.231.834-4.336.871-7.258l9.128.406c-.275,2.971-.811,6.88-1.47,9.796h-.003Z" fill="#f37b51"/><path d="M398.471,355.008c-1.237-3.247-3.881-3.606-3.881-3.606-5.138,6.853-17.753,2.648-17.335,11.916c19.186-.119,27.159,0,27.159,0-.025-2.129-.405-7.18-.846-9.159l-.999.178-4.095.674-.003-.003Z" fill="#f37268"/><path d="M458.055,264.818c-14.781,1.988-56.422,17.419-58.742,20.213-4.795,5.766-2.266,37.142-4.542,63.034l12.103.715c5.797-21.084,5.335-30.184,7.958-54.368c0,0,47.572,3.562,64.763-8.039c17.722-11.962-9.584-24.387-21.537-21.552l-.003-.003Z" fill="#4163ae"/><path d="M438.791,234.078c3.493.596,4.839,3.396,5.682,8.56-13.308,7.838-33.078,8.397-33.078,8.397l-6.303-3.115c0,0,15.852-5.71,33.699-13.842Z" fill="#de623c"/><path d="M475.181,219.325c-5.825,8.463-28.136,26.662-31.829,27.237l-4.474-12.521c0,0,21.784-23.576,25.749-27.743c6.849-7.233,20.088-.768,10.554,13.03v-.003Z" fill="#de623c"/><path d="M450.644,217.973c4.67-5.032,10.755-16.389,18.668-15.584c7.914.809,8.488,9.206,6.1,13.73-2.385,4.523-10.623,15.668-10.623,15.668l-14.145-13.814Z" fill="#f58880"/><path d="M452.08,239.26c3.353,1.155,5.27,11.722,4.33,12.531-14.382,5.697-44.31-.465-44.31-.465l-1.589-5.42c0,0,22.661-1.386,41.569-6.649v.003Z" fill="#f37b51"/><path d="M499.403,273.702c-3.291-16.97-4.708-22.982-6.072-30.971-3.378-19.735,6.552-33.608-10.47-43.067l-12.406,2.001c-10.03,10.551-16.205,20.132-16.736,26.747-.727,8.535,7.742,13.168,7.742,13.168l-3.409,23.238c0,0-.802,1.898,13.186,4.539c13.989,2.641,28.162,4.345,28.162,4.345h.003Z" fill="#f37268"/><path d="M489.204,221.735c-5.825,8.559-30.709,30.318-34.448,30.508l-2.679-12.983c0,0,22.608-26.494,26.572-30.709c6.849-7.314,20.089-.777,10.555,13.18v.004Z" fill="#f37b51"/><path d="M465.413,221.794c4.346-6.325,13.111-17.991,21.028-17.182c7.914.808,8.488,9.206,6.1,13.729-2.385,4.524-10.623,15.668-10.623,15.668l-16.505-12.215Z" fill="#f58880"/><path d="M410.508,245.909c-4.576-1.124-14.522-4.467-18.528,6.01c1.006,1.923,4.689-2.825,6.269-3.266c2.51-.699,4.667.622,6.565,2.438c2.725,2.604,7.283.235,7.283.235l-1.589-5.42v.003Z" fill="#f37b51"/><path d="M406.949,258.081h-42.98v-5.772h48.752c0,3.187-2.584,5.772-5.772,5.772Z" fill="#f58880"/><path d="M341.867,221.828l22.102,36.253l5.107-2.685-24.786-41.363c-2.822,1.483-3.906,4.973-2.423,7.795Z" fill="#f58880"/><path d="M488.539,183.496c-2.092,8.729-9.34,14.473-16.196,12.834-6.855-1.642-10.717-10.049-8.628-18.777c2.091-8.729,9.34-14.473,16.195-12.834c6.856,1.642,10.72,10.049,8.629,18.777Z" fill="#f37b51"/><path d="M485.217,188.095l-11.391,7.061c0,0-1.011,5.035-1.517,6.668-1.043,3.372,2.947,4.845,6.322,2.744c3.374-2.101,4.23-4.904,4.23-4.904l2.356-11.569Z" fill="#f37b51"/><path d="M462.928,174.219c3.237.277,10.252-.284,12.809-3.316c1.823,6.16,9.574,12.022,15.986,14.769.256-6.318.209-17.943-11.116-22.773-8.897-3.793-17.679,11.32-17.679,11.32Z" fill="#113"/><path d="M466.924,179.844c-.303.606-1.036.852-1.645.549-.609-.302-.852-1.036-.549-1.645.302-.608,1.036-.852,1.645-.552.605.303.852,1.039.549,1.645v.003Z" fill="#010101"/><path d="M476.555,182.22c-.328.655-1.124.924-1.78.596-.655-.328-.924-1.124-.596-1.78.328-.655,1.124-.924,1.779-.596.656.328.924,1.124.597,1.78Z" fill="#010101"/><path d="M478.022,181.121c-.091-.044-.166-.119-.213-.219-.664-1.436-2.463-1.714-2.478-1.717-.253-.037-.428-.271-.39-.524.037-.25.268-.428.521-.39.094.012,2.307.346,3.187,2.241.106.231.006.506-.225.612-.131.062-.277.053-.399-.006l-.003.003Z" fill="#113"/><path d="M464.252,178.068c-.044-.022-.084-.053-.122-.091-.178-.181-.178-.474.003-.652c1.408-1.393,3.144-.815,3.216-.79.24.081.368.346.287.587-.081.24-.344.368-.584.287-.056-.019-1.277-.406-2.269.571-.144.144-.359.172-.531.085v.003Z" fill="#113"/><path d="M467.714,182.51c-.671.693-1.261,1.405-1.904,1.811-.216.137-.288.424-.16.646.519.921,2.033,1.676,2.963,2.073.134.056.247-.119.137-.219-.936-.821-1.339-1.427-1.507-1.761-.085-.165-.082-.359,0-.524.193-.381.574-1.155.833-1.795.091-.222-.194-.403-.359-.231h-.003Z" fill="#de623c"/><path d="M485.239,183.553c-1.667,1.295-2.157,3.452-1.095,4.813c1.061,1.365,3.271,1.418,4.935.122c1.667-1.295,2.157-3.453,1.096-4.814-1.062-1.364-3.272-1.417-4.936-.121Z" fill="#f37b51"/><path d="M486.188,187.973c-.062-.031-.118-.078-.162-.137-.64-.853-.699-1.808-.159-2.557.552-.768,1.576-1.121,2.435-.837.24.082.374.341.293.584-.081.241-.34.375-.584.294-.471-.156-1.083.062-1.395.499-.3.418-.247.937.15,1.464.153.203.112.493-.091.646-.143.11-.331.119-.484.044h-.003Z" fill="#de623c"/><path d="M474.594,267.515c-14.781,1.989-56.485,15.506-58.804,18.296-4.795,5.766,5.878,30.462,9.293,62.254h14.27c-.15-22.651,1.661-43.489-5.31-50.875c0,0,39.971-2.666,59.9-2.666c10.158,0,15.777-34.323-19.346-27.006l-.003-.003Z" fill="#6e86c3"/><path d="M467.09,189.855c-.197-.265.015-.636.346-.599.837.1,2.22.237,3.537.24c1.32,0,2.703-.134,3.54-.231.328-.037.543.334.343.6-.608.818-1.863,2.057-3.886,2.057s-3.275-1.246-3.88-2.063v-.004Z" fill="#fff"/></g><g><path d="M183.249,243.103c-2.823,1.879-2.042,12.115-.974,12.634c14.678,1.791,39.468-10.368,39.468-10.368l.971-5.438c0,0-20.707,3.468-39.462,3.172h-.003Z" transform="translate(9.229188-.15053)" fill="#f37b51"/><path d="M150.998,225.356c5.248,8.391,28.214,30.087,31.776,30.409l3.034-12.3c0,0-20.616-26.135-24.246-30.309-6.272-7.239-19.158-1.483-10.564,12.2Z" transform="translate(9.229188 0.241971)" fill="#f37b51"/><path d="M163.55,180.521c.631-8.591-1.854-16.18-8.703-20.044-6.943-3.918-15.64-.075-15.64-.075s-7.361-2.619-14.035,4.729c-6.671,7.349-1.627,13.817-4.355,19.177-1.617,3.175-9.837,3.827-7.711,14.167.612,2.981,4.199,4.988,7.236,5.188c5.339.349,10.305-1.714,12.469.349c7.13,6.8,22.926,4.34,25.136-1.879.687-1.929,14.897,1.805,13.479-11.332-.718-6.655-8.441-2.606-7.879-10.283l.003.003Z" transform="translate(9.229188 0.241971)" fill="#113"/><path d="M150.53,208.292l-11.282-2.082-4.233,5.629l8.993,18.434l13.224-11.226-6.702-10.755Z" transform="translate(9.229188 0.241971)" fill="#f37b51"/><path d="M165.152,252.74c-.194-3.509,5.475-17.913,2.491-25.162-2.173-5.831-5.803-15.621-10.249-17.257-2.097-.771-4.251-1.308-6.867-2.029c0,0,1.473,7.349-1.599,7.596-5.915.474-9.683-9.678-9.683-9.678-3.188-.306-17.816,4.502-17.81,5.704.034,9.405,7.68,23.132,10.177,33.305.983,10.986-2.85,24.131-2.863,25.38c0,0,23.532,6.615,37.48-1.064.29-1.068-.812-11.95-1.077-16.792v-.003Z" transform="translate(9.229188-.15053)" fill="#6e86c3"/><path d="M132.292,259.311c0,0-5.194,13.105-6.462,21.356-1.267,8.251,5.882,13.542,5.882,13.542h59.453c0,0,6.365-10.324,4.533-17.451-1.833-7.127-6.05-8.26-6.05-8.26l-57.356-9.187Z" transform="translate(9.229189-.15053)" fill="#6e86c3"/><path d="M191.961,268.133c-7.589-1.071-29.619,7.486-39.012,26.076h26.279l12.733-26.076Z" transform="translate(8.167599-1.212118)" fill="#de623c"/><path d="M183.636,274.976c.98-1.074,1.873-2.398,2.656-3.777c2.217-3.903,7.555-4.561,10.571-1.237c10.957,12.081,34.314,39.618,39.521,43.046c1.47.968,10.055,5.913,18.218,4.932c0,0,4.03,1.533,1.346,4.733-1.38,1.645-22.121,3.346-22.121,3.346l-1.617-6.09c-12.072-8.935-27.103-8.291-39.846-24.628-7.018-8.996-8.725-20.325-8.725-20.325h-.003Z" transform="translate(7.676-1.212118)" fill="#de623c"/><path d="M238.026,329.534l8.347,5.417l1.146-1.368-6.768-6.312c3.846-3.034,12.752-.502,12.752-.502c2.916-1.886,8.604-7.998,9.191-11.273-1.867-2.329-8.089,2.46-8.089,2.46.228,1.036-1.738,4.629-3.299,5.244-6.796,1.468-13.567-.465-19.093-3.271c0,0-4.617,6.996,5.816,9.602l-.003.003Z" transform="translate(7.676-1.212118)" fill="#f37268"/><path d="M183.514,276.618c-1.52.409-2.654,1.683-2.872,3.24-.593,4.218-3.665,12.756.49,21.696c10.196,21.952,16.214,36.415,17.285,42.081-2.663,4.989,7.957,18.612,8.113,19.505l7.646-2.391c0,0-4.386-6.525-5.966-9.078-3.762-6.085-4.377-13.549-4.986-19.336-2.609-24.703,1.877-40.299-15.995-54.79-1.059-.858-2.395-1.28-3.709-.927h-.006Z" transform="translate(7.676-1.212118)" fill="#f37b51"/><path d="M194.609,354.084l.752,9.921l1.782.084.915-9.212c4.745,1.217,8.132,9.836,8.132,9.836c3.269,1.177,11.576,1.992,14.535.475.718-2.897-6.862-4.942-6.862-4.942-.686.812-4.735,1.427-6.171.556-5.285-4.514-8.16-11.07-9.278-17.167c0,0-8.064.572-3.809,10.449h.004Z" transform="translate(7.245611-.371953)" fill="#f37268"/><path d="M147.676,199.077l-9.162-1.374.73,8.504c0,0,1.755,3.852,3.787,4.115l7.495-2.03-2.85-9.215Z" transform="translate(9.22919 0.241971)" fill="#f37b51"/><path d="M130.039,186.784c2.366,9.877,10.57,16.379,18.327,14.522c7.758-1.857,12.128-11.369,9.765-21.247-2.366-9.877-10.57-16.379-18.328-14.522-7.757,1.857-12.128,11.369-9.764,21.247Z" transform="translate(9.229189 0.241971)" fill="#f37b51"/><path d="M154.497,182.65c.341.687,1.174.965,1.861.625.687-.341.965-1.174.624-1.861-.34-.687-1.173-.964-1.86-.624s-.965,1.174-.625,1.86Z" transform="translate(9.229188 0.241971)" fill="#010101"/><path d="M143.603,185.338c.368.743,1.27,1.043,2.013.674.743-.368,1.043-1.27.674-2.013-.368-.743-1.27-1.046-2.013-.674-.743.371-1.046,1.27-.674,2.013Z" transform="translate(9.229187 0.241971)" fill="#010101"/><path d="M141.942,184.096c.103-.05.19-.134.24-.247.753-1.623,2.785-1.938,2.807-1.942.284-.04.484-.306.443-.59s-.303-.483-.59-.443c-.106.016-2.613.393-3.606,2.538-.121.262-.006.571.253.693.15.069.315.063.453-.006v-.003Z" transform="translate(9.229189 0.241971)" fill="#113"/><path d="M157.522,180.64c.05-.025.097-.059.138-.1.203-.206.2-.537-.003-.74-1.592-1.573-3.556-.921-3.64-.893-.272.094-.419.391-.325.665.094.272.39.419.662.325.065-.022,1.445-.459,2.566.646.162.163.406.194.599.097h.003Z" transform="translate(9.229186 0.241971)" fill="#113"/><path d="M153.605,185.666c.761.784,1.429,1.589,2.157,2.048.243.153.324.481.181.734-.587,1.039-2.301,1.898-3.353,2.344-.153.065-.278-.134-.153-.247c1.061-.93,1.517-1.614,1.708-1.991.093-.188.093-.406,0-.593-.219-.431-.65-1.305-.943-2.033-.1-.249.218-.456.406-.262h-.003Z" transform="translate(9.229185 0.241971)" fill="#de623c"/><path d="M133.772,186.846c1.886,1.467,2.441,3.905,1.24,5.447-1.202,1.543-3.703,1.605-5.585.138-1.886-1.467-2.441-3.906-1.24-5.448c1.199-1.542,3.703-1.604,5.585-.137Z" transform="translate(9.229187 0.241971)" fill="#f37b51"/><path d="M132.698,191.847c.072-.034.135-.087.185-.153.724-.961.792-2.045.181-2.894-.625-.871-1.783-1.267-2.757-.946-.275.091-.421.387-.331.659.091.275.387.421.659.331.534-.175,1.227.072,1.579.565.341.474.281,1.061-.168,1.658-.175.231-.128.558.103.73.162.122.375.134.546.05h.003Z" transform="translate(9.229186 0.241971)" fill="#de623c"/><path d="M145.029,193.542c-.218-.293.019-.705.381-.662.927.11,2.46.263,3.921.263s2.994-.15,3.921-.263c.365-.043.599.369.381.662-.671.906-2.061,2.282-4.302,2.282s-3.631-1.376-4.302-2.282Z" transform="translate(9.229186 0.241971)" fill="#fff"/><path d="M129.848,185.91c9.259-1.24,22.214-10.674,23.279-15.516-1.792-5.815-11.335-8.737-16.723-6.043s-10.48,14.241-6.556,21.559Z" transform="translate(9.229188 0.241971)" fill="#113"/><path d="M216.47,255.93c-1.233-.403-1.904-1.729-1.502-2.959l14.292-43.783c.402-1.233,1.726-1.904,2.959-1.504c1.233.402,1.904,1.726,1.505,2.959l-14.291,43.782c-.403,1.234-1.727,1.905-2.96,1.505h-.003Z" transform="translate(9.229186-.15053)" fill="#fff"/><path d="M224.062,240.24l2.913-8.922c0,0,2.525,5.133,0,10.002-2.523,4.87-4.926,5.089-4.926,5.089l2.013-6.172v.003Z" transform="translate(9.229188-.15053)" fill="#f37b51"/><path d="M219.904,237.849c-.737-1.733-2.469-6.066-.737-6.044c1.733.019,2.017,2.123,2.017,2.123l-1.28,3.921Z" transform="translate(9.229186-.15053)" fill="#f37b51"/><path d="M76.7253,211.779c3.9303-3.964,1.3518-8.032,1.3518-8.032c2.1571-.462,13.5358,16.776,18.4432,27.731c8.5597-8.626,23.6377-20.276,27.7177-20.954c0,0,5.501-1.479,7.48,5.173c1.764,5.938-5.117,10.143-5.117,10.143s-29.4345,20.781-33.7893,18.933c-6.7742-2.875-12.9053-27.609-16.0832-32.994h-.0032Z" transform="translate(9.229185-.15053)" fill="#f37b51"/><path d="M70.5787,211.289c2.4007.147,5.3725-1.039,6.2966,1.115l4.7419-2.31.2872-2.86c-4.0739-6.527-14.0041-8.379-14.9875-8.466-2.5536-.225-3.7398-.487-3.9396-.147s-.8241,2.616,2.8814,3.06c4.6514.558,1.564,4.276-7.8731.736-2.3631-.886-6.8085.266-5.2008,1.992c1.7732,1.901,6.8616,6.215,17.7939,6.88Z" transform="translate(9.229184-.15053)" fill="#f37b51"/></g><g transform="translate(.000001 0)"><path d="M299.805,226.302c-.45-.881.393-1.861,1.333-1.545c2.379.802,4.583,2.075,6.474,3.752c3.519,3.2,4.174,6.843,4.174,6.843l-1.211.409c0,0-6.556-1.196-10.77-9.456v-.003Z" transform="translate(-.501429 0)" fill="#4163ae"/><path d="M324.429,200.856c-.081-1.126-1.526-1.535-2.185-.618-2.457,3.419-6.581,10.155-7.929,18.412-1.689,10.305.277,17.317.277,17.317h1.39c0,0,5.122-9.706,7.117-16.277c1.886-6.206,1.642-14.444,1.327-18.83l.003-.004Z" transform="translate(-.501429 0)" fill="#4163ae"/><path d="M319.228,235.957c0,0,2.947-9.811,13.024-13.545.587-.218,1.152.375.915.952-1.33,3.244-5.117,10.986-11.513,12.593h-2.426Z" fill="#4163ae"/><path d="M328.15,234.297h-23.325l2.993,23.9h17.339l2.993-23.9Z" fill="#7b8fc8"/><path d="M311.046,235.957c0,0-4.717-8.903-6.605-18.343-1.642-8.07-1.564-17.703-1.364-22.851.046-1.171,1.582-1.57,2.194-.571c2.969,4.854,8.338,14.612,9.546,23.428.865,6.084,1.421,12.206,1.667,18.347l-5.438-.007v-.003Z" fill="#6e86c3"/></g></g></g><clipPath id="eVu87xSYD3k259"><rect width="618.822" height="367.26" rx="0" ry="0" transform="translate(.177246 0.334595)" fill="#fff"/></clipPath></g>
<script><![CDATA[
!function(t,n){"object"==typeof exports&&"undefined"!=typeof module?module.exports=n():"function"==typeof __SVGATOR_DEFINE__&&__SVGATOR_DEFINE__.amd?__SVGATOR_DEFINE__(n):((t="undefined"!=typeof globalThis?globalThis:t||self).__SVGATOR_PLAYER__=t.__SVGATOR_PLAYER__||{},t.__SVGATOR_PLAYER__["5c7f360c"]=n())}(this,(function(){"use strict";function t(t,n){var e=Object.keys(t);if(Object.getOwnPropertySymbols){var r=Object.getOwnPropertySymbols(t);n&&(r=r.filter((function(n){return Object.getOwnPropertyDescriptor(t,n).enumerable}))),e.push.apply(e,r)}return e}function n(n){for(var e=1;e<arguments.length;e++){var r=null!=arguments[e]?arguments[e]:{};e%2?t(Object(r),!0).forEach((function(t){o(n,t,r[t])})):Object.getOwnPropertyDescriptors?Object.defineProperties(n,Object.getOwnPropertyDescriptors(r)):t(Object(r)).forEach((function(t){Object.defineProperty(n,t,Object.getOwnPropertyDescriptor(r,t))}))}return n}function e(t){return(e="function"==typeof Symbol&&"symbol"==typeof Symbol.iterator?function(t){return typeof t}:function(t){return t&&"function"==typeof Symbol&&t.constructor===Symbol&&t!==Symbol.prototype?"symbol":typeof t})(t)}function r(t,n){if(!(t instanceof n))throw new TypeError("Cannot call a class as a function")}function i(t,n){for(var e=0;e<n.length;e++){var r=n[e];r.enumerable=r.enumerable||!1,r.configurable=!0,"value"in r&&(r.writable=!0),Object.defineProperty(t,r.key,r)}}function u(t,n,e){return n&&i(t.prototype,n),e&&i(t,e),t}function o(t,n,e){return n in t?Object.defineProperty(t,n,{value:e,enumerable:!0,configurable:!0,writable:!0}):t[n]=e,t}function a(t){return(a=Object.setPrototypeOf?Object.getPrototypeOf:function(t){return t.__proto__||Object.getPrototypeOf(t)})(t)}function l(t,n){return(l=Object.setPrototypeOf||function(t,n){return t.__proto__=n,t})(t,n)}function s(){if("undefined"==typeof Reflect||!Reflect.construct)return!1;if(Reflect.construct.sham)return!1;if("function"==typeof Proxy)return!0;try{return Boolean.prototype.valueOf.call(Reflect.construct(Boolean,[],(function(){}))),!0}catch(t){return!1}}function f(t,n,e){return(f=s()?Reflect.construct:function(t,n,e){var r=[null];r.push.apply(r,n);var i=new(Function.bind.apply(t,r));return e&&l(i,e.prototype),i}).apply(null,arguments)}function c(t,n){if(n&&("object"==typeof n||"function"==typeof n))return n;if(void 0!==n)throw new TypeError("Derived constructors may only return object or undefined");return function(t){if(void 0===t)throw new ReferenceError("this hasn't been initialised - super() hasn't been called");return t}(t)}function h(t,n,e){return(h="undefined"!=typeof Reflect&&Reflect.get?Reflect.get:function(t,n,e){var r=function(t,n){for(;!Object.prototype.hasOwnProperty.call(t,n)&&null!==(t=a(t)););return t}(t,n);if(r){var i=Object.getOwnPropertyDescriptor(r,n);return i.get?i.get.call(e):i.value}})(t,n,e||t)}function v(t){return function(t){if(Array.isArray(t))return y(t)}(t)||function(t){if("undefined"!=typeof Symbol&&null!=t[Symbol.iterator]||null!=t["@@iterator"])return Array.from(t)}(t)||function(t,n){if(!t)return;if("string"==typeof t)return y(t,n);var e=Object.prototype.toString.call(t).slice(8,-1);"Object"===e&&t.constructor&&(e=t.constructor.name);if("Map"===e||"Set"===e)return Array.from(t);if("Arguments"===e||/^(?:Ui|I)nt(?:8|16|32)(?:Clamped)?Array$/.test(e))return y(t,n)}(t)||function(){throw new TypeError("Invalid attempt to spread non-iterable instance.\nIn order to be iterable, non-array objects must have a [Symbol.iterator]() method.")}()}function y(t,n){(null==n||n>t.length)&&(n=t.length);for(var e=0,r=new Array(n);e<n;e++)r[e]=t[e];return r}function g(t,n,e){if(Number.isInteger(t))return t;var r=Math.pow(10,n);return Math[e]((+t+Number.EPSILON)*r)/r}Number.isInteger||(Number.isInteger=function(t){return"number"==typeof t&&isFinite(t)&&Math.floor(t)===t}),Number.EPSILON||(Number.EPSILON=2220446049250313e-31);var p=d(Math.pow(10,-6));function d(t){var n=arguments.length>1&&void 0!==arguments[1]?arguments[1]:6;return g(t,n,"round")}function m(t,n){var e=arguments.length>2&&void 0!==arguments[2]?arguments[2]:p;return Math.abs(t-n)<e}d(Math.pow(10,-2)),d(Math.pow(10,-4));var b=Math.PI/180;function w(t){return t*b}function x(t){return t/b}function _(t){return t}function A(t,n,e){var r=1-e;return 3*e*r*(t*r+n*e)+e*e*e}function k(){var t=arguments.length>0&&void 0!==arguments[0]?arguments[0]:0,n=arguments.length>1&&void 0!==arguments[1]?arguments[1]:0,e=arguments.length>2&&void 0!==arguments[2]?arguments[2]:1,r=arguments.length>3&&void 0!==arguments[3]?arguments[3]:1;return t<0||t>1||e<0||e>1?null:m(t,n)&&m(e,r)?_:function(i){if(i<=0)return t>0?i*n/t:0===n&&e>0?i*r/e:0;if(i>=1)return e<1?1+(i-1)*(r-1)/(e-1):1===e&&t<1?1+(i-1)*(n-1)/(t-1):1;for(var u,o=0,a=1;o<a;){var l=A(t,e,u=(o+a)/2);if(m(i,l))break;l<i?o=u:a=u}return A(n,r,u)}}function S(){return 1}function O(t){return 1===t?1:0}function j(){var t=arguments.length>0&&void 0!==arguments[0]?arguments[0]:1,n=arguments.length>1&&void 0!==arguments[1]?arguments[1]:0;if(1===t){if(0===n)return O;if(1===n)return S}var e=1/t;return function(t){return t>=1?1:(t+=n*e)-t%e}}var M=Math.sin,E=Math.cos,P=Math.acos,I=Math.asin,R=Math.tan,F=Math.atan2,N=Math.sqrt,T=function(){function t(){var n=arguments.length>0&&void 0!==arguments[0]?arguments[0]:1,e=arguments.length>1&&void 0!==arguments[1]?arguments[1]:0,i=arguments.length>2&&void 0!==arguments[2]?arguments[2]:0,u=arguments.length>3&&void 0!==arguments[3]?arguments[3]:1,o=arguments.length>4&&void 0!==arguments[4]?arguments[4]:0,a=arguments.length>5&&void 0!==arguments[5]?arguments[5]:0;r(this,t),this.m=[n,e,i,u,o,a],this.i=null,this.w=null,this.s=null}return u(t,[{key:"determinant",get:function(){var t=this.m;return t[0]*t[3]-t[1]*t[2]}},{key:"isIdentity",get:function(){if(null===this.i){var t=this.m;this.i=1===t[0]&&0===t[1]&&0===t[2]&&1===t[3]&&0===t[4]&&0===t[5]}return this.i}},{key:"point",value:function(t,n){var e=this.m;return{x:e[0]*t+e[2]*n+e[4],y:e[1]*t+e[3]*n+e[5]}}},{key:"translateSelf",value:function(){var t=arguments.length>0&&void 0!==arguments[0]?arguments[0]:0,n=arguments.length>1&&void 0!==arguments[1]?arguments[1]:0;if(!t&&!n)return this;var e=this.m;return e[4]+=e[0]*t+e[2]*n,e[5]+=e[1]*t+e[3]*n,this.w=this.s=this.i=null,this}},{key:"rotateSelf",value:function(){var t=arguments.length>0&&void 0!==arguments[0]?arguments[0]:0;if(t%=360){t=w(t);var n=M(t),e=E(t),r=this.m,i=r[0],u=r[1];r[0]=i*e+r[2]*n,r[1]=u*e+r[3]*n,r[2]=r[2]*e-i*n,r[3]=r[3]*e-u*n,this.w=this.s=this.i=null}return this}},{key:"scaleSelf",value:function(){var t=arguments.length>0&&void 0!==arguments[0]?arguments[0]:1,n=arguments.length>1&&void 0!==arguments[1]?arguments[1]:1;if(1!==t||1!==n){var e=this.m;e[0]*=t,e[1]*=t,e[2]*=n,e[3]*=n,this.w=this.s=this.i=null}return this}},{key:"skewSelf",value:function(t,n){if(n%=360,(t%=360)||n){var e=this.m,r=e[0],i=e[1],u=e[2],o=e[3];t&&(t=R(w(t)),e[2]+=r*t,e[3]+=i*t),n&&(n=R(w(n)),e[0]+=u*n,e[1]+=o*n),this.w=this.s=this.i=null}return this}},{key:"resetSelf",value:function(){var t=arguments.length>0&&void 0!==arguments[0]?arguments[0]:1,n=arguments.length>1&&void 0!==arguments[1]?arguments[1]:0,e=arguments.length>2&&void 0!==arguments[2]?arguments[2]:0,r=arguments.length>3&&void 0!==arguments[3]?arguments[3]:1,i=arguments.length>4&&void 0!==arguments[4]?arguments[4]:0,u=arguments.length>5&&void 0!==arguments[5]?arguments[5]:0,o=this.m;return o[0]=t,o[1]=n,o[2]=e,o[3]=r,o[4]=i,o[5]=u,this.w=this.s=this.i=null,this}},{key:"recomposeSelf",value:function(){var t=arguments.length>0&&void 0!==arguments[0]?arguments[0]:null,n=arguments.length>1&&void 0!==arguments[1]?arguments[1]:null,e=arguments.length>2&&void 0!==arguments[2]?arguments[2]:null,r=arguments.length>3&&void 0!==arguments[3]?arguments[3]:null,i=arguments.length>4&&void 0!==arguments[4]?arguments[4]:null;return this.isIdentity||this.resetSelf(),t&&(t.x||t.y)&&this.translateSelf(t.x,t.y),n&&this.rotateSelf(n),e&&(e.x&&this.skewSelf(e.x,0),e.y&&this.skewSelf(0,e.y)),!r||1===r.x&&1===r.y||this.scaleSelf(r.x,r.y),i&&(i.x||i.y)&&this.translateSelf(i.x,i.y),this}},{key:"decompose",value:function(){var t=arguments.length>0&&void 0!==arguments[0]?arguments[0]:0,n=arguments.length>1&&void 0!==arguments[1]?arguments[1]:0,e=this.m,r=e[0]*e[0]+e[1]*e[1],i=[[e[0],e[1]],[e[2],e[3]]],u=N(r);if(0===u)return{origin:{x:d(e[4]),y:d(e[5])},translate:{x:d(t),y:d(n)},scale:{x:0,y:0},skew:{x:0,y:0},rotate:0};i[0][0]/=u,i[0][1]/=u;var o=e[0]*e[3]-e[1]*e[2]<0;o&&(u=-u);var a=i[0][0]*i[1][0]+i[0][1]*i[1][1];i[1][0]-=i[0][0]*a,i[1][1]-=i[0][1]*a;var l,s=N(i[1][0]*i[1][0]+i[1][1]*i[1][1]);return 0===s?{origin:{x:d(e[4]),y:d(e[5])},translate:{x:d(t),y:d(n)},scale:{x:d(u),y:0},skew:{x:0,y:0},rotate:0}:(i[1][0]/=s,i[1][1]/=s,a/=s,i[1][1]<0?(l=x(P(i[1][1])),i[0][1]<0&&(l=360-l)):l=x(I(i[0][1])),o&&(l=-l),a=x(F(a,N(i[0][0]*i[0][0]+i[0][1]*i[0][1]))),o&&(a=-a),{origin:{x:d(e[4]),y:d(e[5])},translate:{x:d(t),y:d(n)},scale:{x:d(u),y:d(s)},skew:{x:d(a),y:0},rotate:d(l)})}},{key:"multiply",value:function(t){return this.clone().multiplySelf(t)}},{key:"preMultiply",value:function(t){return t.multiply(this)}},{key:"multiplySelf",value:function(t){var n=q(this.m,t.m),e=n.a,r=n.b,i=n.c,u=n.d,o=n.tx,a=n.ty;return this.resetSelf(e,r,i,u,o,a),this}},{key:"preMultiplySelf",value:function(t){var n=q(t.m,this.m),e=n.a,r=n.b,i=n.c,u=n.d,o=n.tx,a=n.ty;return this.resetSelf(e,r,i,u,o,a),this}},{key:"clone",value:function(){var t=this.m;return new this.constructor(t[0],t[1],t[2],t[3],t[4],t[5])}},{key:"toString",value:function(){var t=arguments.length>0&&void 0!==arguments[0]?arguments[0]:" ";if(null===this.s){var n=this.m.map((function(t){return d(t)}));1===n[0]&&0===n[1]&&0===n[2]&&1===n[3]?this.s="translate("+n[4]+t+n[5]+")":this.s="matrix("+n.join(t)+")"}return this.s}}],[{key:"create",value:function(t){return t?Array.isArray(t)?f(this,v(t)):t instanceof this?t.clone():(new this).recomposeSelf(t.origin,t.rotate,t.skew,t.scale,t.translate):new this}}]),t}();function q(t,n){return{a:t[0]*n[0]+t[2]*n[1],b:t[1]*n[0]+t[3]*n[1],c:t[0]*n[2]+t[2]*n[3],d:t[1]*n[2]+t[3]*n[3],tx:t[0]*n[4]+t[2]*n[5]+t[4],ty:t[1]*n[4]+t[3]*n[5]+t[5]}}function B(t,n,e){return t>=.5?e:n}function D(t,n,e){return 0===t||n===e?n:t*(e-n)+n}function L(t,n,e){var r=D(t,n,e);return r<=0?0:r}function C(t,n,e){var r=D(t,n,e);return r<=0?0:r>=1?1:r}function V(t,n,e){return 0===t?n:1===t?e:{x:D(t,n.x,e.x),y:D(t,n.y,e.y)}}function G(t,n,e){var r=function(t,n,e){return Math.round(D(t,n,e))}(t,n,e);return r<=0?0:r>=255?255:r}function z(t,n,e){return 0===t?n:1===t?e:{r:G(t,n.r,e.r),g:G(t,n.g,e.g),b:G(t,n.b,e.b),a:D(t,null==n.a?1:n.a,null==e.a?1:e.a)}}function Y(t,n){for(var e=[],r=0;r<t;r++)e.push(n);return e}function $(t,n){if(--n<=0)return t;var e=(t=Object.assign([],t)).length;do{for(var r=0;r<e;r++)t.push(t[r])}while(--n>0);return t}var U,Q=function(){function t(n){r(this,t),this.list=n,this.length=n.length}return u(t,[{key:"setAttribute",value:function(t,n){for(var e=this.list,r=0;r<this.length;r++)e[r].setAttribute(t,n)}},{key:"removeAttribute",value:function(t){for(var n=this.list,e=0;e<this.length;e++)n[e].removeAttribute(t)}},{key:"style",value:function(t,n){for(var e=this.list,r=0;r<this.length;r++)e[r].style[t]=n}}]),t}(),H=/-./g,J=function(t,n){return n.toUpperCase()};function Z(t){return"function"==typeof t?t:B}function K(t){return t?"function"==typeof t?t:Array.isArray(t)?function(t){var n=arguments.length>1&&void 0!==arguments[1]?arguments[1]:_;if(!Array.isArray(t))return n;switch(t.length){case 1:return j(t[0])||n;case 2:return j(t[0],t[1])||n;case 4:return k(t[0],t[1],t[2],t[3])||n}return n}(t,null):function(t,n){var e=arguments.length>2&&void 0!==arguments[2]?arguments[2]:_;switch(t){case"linear":return _;case"steps":return j(n.steps||1,n.jump||0)||e;case"bezier":case"cubic-bezier":return k(n.x1||0,n.y1||0,n.x2||0,n.y2||0)||e}return e}(t.type,t.value,null):null}function W(t,n,e){var r=arguments.length>3&&void 0!==arguments[3]&&arguments[3],i=n.length-1;if(t<=n[0].t)return r?[0,0,n[0].v]:n[0].v;if(t>=n[i].t)return r?[i,1,n[i].v]:n[i].v;var u,o=n[0],a=null;for(u=1;u<=i;u++){if(!(t>n[u].t)){a=n[u];break}o=n[u]}return null==a?r?[i,1,n[i].v]:n[i].v:o.t===a.t?r?[u,1,a.v]:a.v:(t=(t-o.t)/(a.t-o.t),o.e&&(t=o.e(t)),r?[u,t,e(t,o.v,a.v)]:e(t,o.v,a.v))}function X(t,n){var e=arguments.length>2&&void 0!==arguments[2]?arguments[2]:null;return t&&t.length?"function"!=typeof n?null:("function"!=typeof e&&(e=null),function(r){var i=W(r,t,n);return null!=i&&e&&(i=e(i)),i}):null}function tt(t,n){return t.t-n.t}function nt(t,n,r,i,u){var o,a="@"===r[0],l="#"===r[0],s=U[r],f=B;switch(a?(o=r.substr(1),r=o.replace(H,J)):l&&(r=r.substr(1)),e(s)){case"function":if(f=s(i,u,W,K,r,a,n,t),l)return f;break;case"string":f=X(i,Z(s));break;case"object":if((f=X(i,Z(s.i),s.f))&&"function"==typeof s.u)return s.u(n,f,r,a,t)}return f?function(t,n,e){if(arguments.length>3&&void 0!==arguments[3]&&arguments[3])return t instanceof Q?function(r){return t.style(n,e(r))}:function(r){return t.style[n]=e(r)};if(Array.isArray(n)){var r=n.length;return function(i){var u=e(i);if(null==u)for(var o=0;o<r;o++)t[o].removeAttribute(n);else for(var a=0;a<r;a++)t[a].setAttribute(n,u)}}return function(r){var i=e(r);null==i?t.removeAttribute(n):t.setAttribute(n,i)}}(n,r,f,a):null}function et(t,n,r,i){if(!i||"object"!==e(i))return null;var u=null,o=null;return Array.isArray(i)?o=function(t){if(!t||!t.length)return null;for(var n=0;n<t.length;n++)t[n].e&&(t[n].e=K(t[n].e));return t.sort(tt)}(i):(o=i.keys,u=i.data||null),o?nt(t,n,r,o,u):null}function rt(t,n,e){if(!e)return null;var r=[];for(var i in e)if(e.hasOwnProperty(i)){var u=et(t,n,i,e[i]);u&&r.push(u)}return r.length?r:null}function it(t,n){if(!n.settings.duration||n.settings.duration<0)return null;var e,r,i,u,o,a=function(t,n){if(!n)return null;var e=[];if(Array.isArray(n))for(var r=n.length,i=0;i<r;i++){var u=n[i];if(2===u.length){var o=null;if("string"==typeof u[0])o=t.getElementById(u[0]);else if(Array.isArray(u[0])){o=[];for(var a=0;a<u[0].length;a++)if("string"==typeof u[0][a]){var l=t.getElementById(u[0][a]);l&&o.push(l)}o=o.length?1===o.length?o[0]:new Q(o):null}if(o){var s=rt(t,o,u[1]);s&&(e=e.concat(s))}}}else for(var f in n)if(n.hasOwnProperty(f)){var c=t.getElementById(f);if(c){var h=rt(t,c,n[f]);h&&(e=e.concat(h))}}return e.length?e:null}(t,n.elements);return a?(e=a,r=n.settings,i=r.duration,u=e.length,o=null,function(t,n){var a=r.iterations||1/0,l=(r.alternate&&a%2==0)^r.direction>0?i:0,s=t%i,f=1+(t-s)/i;n*=r.direction,r.alternate&&f%2==0&&(n=-n);var c=!1;if(f>a)s=l,c=!0,-1===r.fill&&(s=r.direction>0?0:i);else if(n<0&&(s=i-s),s===o)return!1;o=s;for(var h=0;h<u;h++)e[h](s);return c}):null}function ut(t,n){for(var e=n.querySelectorAll("svg"),r=0;r<e.length;r++)if(e[r].id===t.root&&!e[r].svgatorAnimation)return e[r].svgatorAnimation=!0,e[r];return null}function ot(t){var n=function(t){return t.shadowRoot};return document?Array.from(t.querySelectorAll(":not("+["a","area","audio","br","canvas","circle","datalist","embed","g","head","hr","iframe","img","input","link","object","path","polygon","rect","script","source","style","svg","title","track","video"].join()+")")).filter(n).map(n):[]}function at(t){var n=arguments.length>1&&void 0!==arguments[1]?arguments[1]:document,e=arguments.length>2&&void 0!==arguments[2]?arguments[2]:0,r=ut(t,n);if(r)return r;if(e>=20)return null;for(var i=ot(n),u=0;u<i.length;u++){var o=at(t,i[u],e+1);if(o)return o}return null}function lt(t,n){if(U=n,!t||!t.root||!Array.isArray(t.animations))return null;var e=at(t);if(!e)return null;var r=t.animations.map((function(t){return it(e,t)})).filter((function(t){return!!t}));return r.length?{svg:e,animations:r,animationSettings:t.animationSettings,options:t.options||void 0}:null}function st(t){var n=arguments.length>1&&void 0!==arguments[1]?arguments[1]:null,e=arguments.length>2&&void 0!==arguments[2]?arguments[2]:Number,r=arguments.length>3&&void 0!==arguments[3]?arguments[3]:"undefined"!=typeof BigInt&&BigInt,i="0x"+(t.replace(/[^0-9a-fA-F]+/g,"")||27);return n&&r&&e.isSafeInteger&&!e.isSafeInteger(+i)?e(r(i))%n+n:+i}function ft(t,n,e){return!t||!e||n>t.length?t:t.substring(0,n)+ft(t.substring(n+1),e,e)}function ct(t){var n=arguments.length>1&&void 0!==arguments[1]?arguments[1]:27;return!t||t%n?t%n:[0,1].includes(n)?n:ct(t/n,n)}function ht(t,n,e){if(t&&t.length){var r=st(e),i=ct(r)+5,u=ft(t,ct(r,5),i);return u=u.replace(/\x7c$/g,"==").replace(/\x2f$/g,"="),u=function(t,n,e){var r=+("0x"+t.substring(0,4));t=t.substring(4);for(var i=st(n,r)%r+e%27,u=[],o=0;o<t.length;o+=2)if("|"!==t[o]){var a=+("0x"+t[o]+t[o+1])-i;u.push(a)}else{var l=+("0x"+t.substring(o+1,o+1+4))-i;o+=3,u.push(l)}return String.fromCharCode.apply(String,u)}(u=(u=atob(u)).replace(/[\x41-\x5A]/g,""),n,r),u=JSON.parse(u)}}var vt=[{key:"alternate",def:!1},{key:"fill",def:1},{key:"iterations",def:0},{key:"direction",def:1},{key:"speed",def:1},{key:"fps",def:100}],yt=function(){function t(n,e){var i=this,u=arguments.length>2&&void 0!==arguments[2]?arguments[2]:null;r(this,t),this._id=0,this._running=!1,this._rollingBack=!1,this._animations=n,this._settings=e,(!u||u<"2022-05-02")&&delete this._settings.speed,vt.forEach((function(t){i._settings[t.key]=i._settings[t.key]||t.def})),this.duration=e.duration,this.offset=e.offset||0,this.rollbackStartOffset=0}return u(t,[{key:"alternate",get:function(){return this._settings.alternate}},{key:"fill",get:function(){return this._settings.fill}},{key:"iterations",get:function(){return this._settings.iterations}},{key:"direction",get:function(){return this._settings.direction}},{key:"speed",get:function(){return this._settings.speed}},{key:"fps",get:function(){return this._settings.fps}},{key:"maxFiniteDuration",get:function(){return this.iterations>0?this.iterations*this.duration:this.duration}},{key:"_apply",value:function(t){for(var n=arguments.length>1&&void 0!==arguments[1]?arguments[1]:{},e=this._animations,r=e.length,i=0,u=0;u<r;u++)n[u]?i++:(n[u]=e[u](t,1),n[u]&&i++);return i}},{key:"_rollback",value:function(t){var n=this,e=1/0,r=null;this.rollbackStartOffset=t,this._rollingBack=!0,this._running=!0;this._id=window.requestAnimationFrame((function i(u){if(n._rollingBack){null==r&&(r=u);var o=Math.round(t-(u-r)*n.speed);if(o>n.duration&&e!==1/0){var a=!!n.alternate&&o/n.duration%2>1,l=o%n.duration;o=(l+=a?n.duration:0)||n.duration}var s=(n.fps?1e3/n.fps:0)*n.speed,f=Math.max(0,o);f<=e-s&&(n.offset=f,e=f,n._apply(f));var c=n.iterations>0&&-1===n.fill&&o>=n.maxFiniteDuration;(o<=0||n.offset<o||c)&&n.stop(),n._id=window.requestAnimationFrame(i)}}))}},{key:"_start",value:function(){var t=this,n=arguments.length>0&&void 0!==arguments[0]?arguments[0]:0,e=-1/0,r=null,i={};this._running=!0;var u=function u(o){null==r&&(r=o);var a=Math.round((o-r)*t.speed+n),l=(t.fps?1e3/t.fps:0)*t.speed;if(a>=e+l&&!t._rollingBack&&(t.offset=a,e=a,t._apply(a,i)===t._animations.length))return void t.pause(!0);t._id=window.requestAnimationFrame(u)};this._id=window.requestAnimationFrame(u)}},{key:"_pause",value:function(){this._id&&window.cancelAnimationFrame(this._id),this._running=!1}},{key:"play",value:function(){if(!this._running)return this._rollingBack?this._rollback(this.offset):this._start(this.offset)}},{key:"stop",value:function(){this._pause(),this.offset=0,this.rollbackStartOffset=0,this._rollingBack=!1,this._apply(0)}},{key:"reachedToEnd",value:function(){return this.iterations>0&&this.offset>=this.iterations*this.duration}},{key:"restart",value:function(){var t=arguments.length>0&&void 0!==arguments[0]&&arguments[0];this.stop(t),this.play(t)}},{key:"pause",value:function(){this._pause()}},{key:"reverse",value:function(){this.direction=-this.direction}}],[{key:"build",value:function(t,n){delete t.animationSettings,t.options=ht(t.options,t.root,"5c7f360c"),t.animations.map((function(n){n.settings=ht(n.s,t.root,"5c7f360c"),delete n.s,t.animationSettings||(t.animationSettings=n.settings)}));var e=t.version;if(!(t=lt(t,n)))return null;var r=t.options||{},i=new this(t.animations,t.animationSettings,e);return{el:t.svg,options:r,player:i}}},{key:"push",value:function(t){return this.build(t)}},{key:"init",value:function(){var t=this,n=window.__SVGATOR_PLAYER__&&window.__SVGATOR_PLAYER__["5c7f360c"];Array.isArray(n)&&n.splice(0).forEach((function(n){return t.build(n)}))}}]),t}();function gt(t){return d(t)+""}function pt(t){var n=arguments.length>1&&void 0!==arguments[1]?arguments[1]:" ";return t&&t.length?t.map(gt).join(n):""}function dt(t){return t?null==t.a||t.a>=1?function(t){if(!t)return"transparent";var n=function(t){return parseInt(t).toString(16).padStart(2,"0")};return function(t){for(var n=[],e="#"===t[0]?n.push("#"):0;e<t.length;e+=2){if(t[e]!==t[e+1])return t;n.push(t[e])}return n.join("")}("#"+n(t.r)+n(t.g)+n(t.b)+(null==t.a||t.a>=1?"":n(255*t.a)))}(t):"rgba("+t.r+","+t.g+","+t.b+","+t.a+")":"transparent"}function mt(t){return t?"url(#"+t+")":"none"}!function(){for(var t=0,n=["ms","moz","webkit","o"],e=0;e<n.length&&!window.requestAnimationFrame;++e)window.requestAnimationFrame=window[n[e]+"RequestAnimationFrame"],window.cancelAnimationFrame=window[n[e]+"CancelAnimationFrame"]||window[n[e]+"CancelRequestAnimationFrame"];window.requestAnimationFrame||(window.requestAnimationFrame=function(n){var e=Date.now(),r=Math.max(0,16-(e-t)),i=window.setTimeout((function(){n(e+r)}),r);return t=e+r,i},window.cancelAnimationFrame=window.clearTimeout)}();var bt={f:null,i:function(t,n,e){return 0===t?n:1===t?e:{x:L(t,n.x,e.x),y:L(t,n.y,e.y)}},u:function(t,n){return function(e){var r=n(e);t.setAttribute("rx",gt(r.x)),t.setAttribute("ry",gt(r.y))}}},wt={f:null,i:function(t,n,e){return 0===t?n:1===t?e:{width:L(t,n.width,e.width),height:L(t,n.height,e.height)}},u:function(t,n){return function(e){var r=n(e);t.setAttribute("width",gt(r.width)),t.setAttribute("height",gt(r.height))}}};Object.freeze({M:2,L:2,Z:0,H:1,V:1,C:6,Q:4,T:2,S:4,A:7});var xt={},_t=null;function At(t){var n=function(){if(_t)return _t;if("object"!==("undefined"==typeof document?"undefined":e(document))||!document.createElementNS)return{};var t=document.createElementNS("http://www.w3.org/2000/svg","svg");return t&&t.style?(t.style.position="absolute",t.style.opacity="0.01",t.style.zIndex="-9999",t.style.left="-9999px",t.style.width="1px",t.style.height="1px",_t={svg:t}):{}}().svg;if(!n)return function(t){return null};var r=document.createElementNS(n.namespaceURI,"path");r.setAttributeNS(null,"d",t),r.setAttributeNS(null,"fill","none"),r.setAttributeNS(null,"stroke","none"),n.appendChild(r);var i=r.getTotalLength();return function(t){var n=r.getPointAtLength(i*t);return{x:n.x,y:n.y}}}function kt(t){return xt[t]?xt[t]:xt[t]=At(t)}function St(t,n,e,r){if(!t||!r)return!1;var i=["M",t.x,t.y];if(n&&e&&(i.push("C"),i.push(n.x),i.push(n.y),i.push(e.x),i.push(e.y)),n?!e:e){var u=n||e;i.push("Q"),i.push(u.x),i.push(u.y)}return n||e||i.push("L"),i.push(r.x),i.push(r.y),i.join(" ")}function Ot(t,n,e,r){var i=arguments.length>4&&void 0!==arguments[4]?arguments[4]:1,u=St(t,n,e,r),o=kt(u);try{return o(i)}catch(t){return null}}function jt(t,n,e){return t+(n-t)*e}function Mt(t,n,e){var r=arguments.length>3&&void 0!==arguments[3]&&arguments[3],i={x:jt(t.x,n.x,e),y:jt(t.y,n.y,e)};return r&&(i.a=Et(t,n)),i}function Et(t,n){return Math.atan2(n.y-t.y,n.x-t.x)}function Pt(t,n,e,r){var i=1-r;return i*i*t+2*i*r*n+r*r*e}function It(t,n,e,r){return 2*(1-r)*(n-t)+2*r*(e-n)}function Rt(t,n,e,r){var i=arguments.length>4&&void 0!==arguments[4]&&arguments[4],u=Ot(t,n,null,e,r);return u||(u={x:Pt(t.x,n.x,e.x,r),y:Pt(t.y,n.y,e.y,r)}),i&&(u.a=Ft(t,n,e,r)),u}function Ft(t,n,e,r){return Math.atan2(It(t.y,n.y,e.y,r),It(t.x,n.x,e.x,r))}function Nt(t,n,e,r,i){var u=i*i;return i*u*(r-t+3*(n-e))+3*u*(t+e-2*n)+3*i*(n-t)+t}function Tt(t,n,e,r,i){var u=1-i;return 3*(u*u*(n-t)+2*u*i*(e-n)+i*i*(r-e))}function qt(t,n,e,r,i){var u=arguments.length>5&&void 0!==arguments[5]&&arguments[5],o=Ot(t,n,e,r,i);return o||(o={x:Nt(t.x,n.x,e.x,r.x,i),y:Nt(t.y,n.y,e.y,r.y,i)}),u&&(o.a=Bt(t,n,e,r,i)),o}function Bt(t,n,e,r,i){return Math.atan2(Tt(t.y,n.y,e.y,r.y,i),Tt(t.x,n.x,e.x,r.x,i))}function Dt(t,n,e){var r=arguments.length>3&&void 0!==arguments[3]&&arguments[3];if(Ct(n)){if(Vt(e))return Rt(n,e.start,e,t,r)}else if(Ct(e)){if(Gt(n))return Rt(n,n.end,e,t,r)}else{if(Gt(n))return Vt(e)?qt(n,n.end,e.start,e,t,r):Rt(n,n.end,e,t,r);if(Vt(e))return Rt(n,e.start,e,t,r)}return Mt(n,e,t,r)}function Lt(t,n,e){var r=Dt(t,n,e,!0);return r.a=x(function(t){return arguments.length>1&&void 0!==arguments[1]&&arguments[1]?t+Math.PI:t}(r.a)),r}function Ct(t){return!t.type||"corner"===t.type}function Vt(t){return null!=t.start&&!Ct(t)}function Gt(t){return null!=t.end&&!Ct(t)}var zt=new T;var Yt={f:gt,i:D},$t={f:gt,i:C};function Ut(t,n,e){return t.map((function(t){return function(t,n,e){var r=t.v;if(!r||"g"!==r.t||r.s||!r.v||!r.r)return t;var i=e.getElementById(r.r),u=i&&i.querySelectorAll("stop")||[];return r.s=r.v.map((function(t,n){var e=u[n]&&u[n].getAttribute("offset");return{c:t,o:e=d(parseInt(e)/100)}})),delete r.v,t}(t,0,e)}))}var Qt={gt:"gradientTransform",c:{x:"cx",y:"cy"},rd:"r",f:{x:"x1",y:"y1"},to:{x:"x2",y:"y2"}};function Ht(t,n,r,i,u,o,a,l){return Ut(t,0,l),n=function(t,n,e){for(var r,i,u,o=t.length-1,a={},l=0;l<=o;l++)(r=t[l]).e&&(r.e=n(r.e)),r.v&&"g"===(i=r.v).t&&i.r&&(u=e.getElementById(i.r))&&(a[i.r]={e:u,s:u.querySelectorAll("stop")});return a}(t,i,l),function(i){var u=r(i,t,Jt);if(!u)return"none";if("c"===u.t)return dt(u.v);if("g"===u.t){if(!n[u.r])return mt(u.r);var o=n[u.r];return function(t,n){for(var e=t.s,r=e.length;r<n.length;r++){var i=e[e.length-1].cloneNode();i.id=Wt(i.id),t.e.appendChild(i),e=t.s=t.e.querySelectorAll("stop")}for(var u=0,o=e.length,a=n.length-1;u<o;u++)e[u].setAttribute("stop-color",dt(n[Math.min(u,a)].c)),e[u].setAttribute("offset",n[Math.min(u,a)].o)}(o,u.s),Object.keys(Qt).forEach((function(t){if(void 0!==u[t])if("object"!==e(Qt[t])){var n,r="gt"===t?(n=u[t],Array.isArray(n)?"matrix("+n.join(" ")+")":""):u[t],i=Qt[t];o.e.setAttribute(i,r)}else Object.keys(Qt[t]).forEach((function(n){if(void 0!==u[t][n]){var e=u[t][n],r=Qt[t][n];o.e.setAttribute(r,e)}}))})),mt(u.r)}return"none"}}function Jt(t,e,r){if(0===t)return e;if(1===t)return r;if(e&&r){var i=e.t;if(i===r.t)switch(e.t){case"c":return{t:i,v:z(t,e.v,r.v)};case"g":if(e.r===r.r){var u={t:i,s:Zt(t,e.s,r.s),r:e.r};return e.gt&&r.gt&&(u.gt=function(t,n,e){var r=n.length;if(r!==e.length)return B(t,n,e);for(var i=new Array(r),u=0;u<r;u++)i[u]=D(t,n[u],e[u]);return i}(t,e.gt,r.gt)),e.c?(u.c=V(t,e.c,r.c),u.rd=L(t,e.rd,r.rd)):e.f&&(u.f=V(t,e.f,r.f),u.to=V(t,e.to,r.to)),u}}if("c"===e.t&&"g"===r.t||"c"===r.t&&"g"===e.t){var o="c"===e.t?e:r,a="g"===e.t?n({},e):n({},r),l=a.s.map((function(t){return{c:o.v,o:t.o}}));return a.s="c"===e.t?Zt(t,l,a.s):Zt(t,a.s,l),a}}return B(t,e,r)}function Zt(t,n,e){if(n.length===e.length)return n.map((function(n,r){return Kt(t,n,e[r])}));for(var r=Math.max(n.length,e.length),i=[],u=0;u<r;u++){var o=Kt(t,n[Math.min(u,n.length-1)],e[Math.min(u,e.length-1)]);i.push(o)}return i}function Kt(t,n,e){return{o:C(t,n.o,e.o||0),c:z(t,n.c,e.c||{})}}function Wt(t){return t.replace(/-fill-([0-9]+)$/,(function(t,n){return"-fill-"+(+n+1)}))}var Xt={fill:Ht,"fill-opacity":$t,stroke:Ht,"stroke-opacity":$t,"stroke-width":Yt,"stroke-dashoffset":{f:gt,i:D},"stroke-dasharray":{f:function(t){var n=arguments.length>1&&void 0!==arguments[1]?arguments[1]:" ";return t&&t.length>0&&(t=t.map((function(t){return d(t,4)}))),pt(t,n)},i:function(t,n,e){var r,i,u,o=n.length,a=e.length;if(o!==a)if(0===o)n=Y(o=a,0);else if(0===a)a=o,e=Y(o,0);else{var l=(u=(r=o)*(i=a)/function(t,n){for(var e;n;)e=n,n=t%n,t=e;return t||1}(r,i))<0?-u:u;n=$(n,Math.floor(l/o)),e=$(e,Math.floor(l/a)),o=a=l}for(var s=[],f=0;f<o;f++)s.push(d(L(t,n[f],e[f])));return s}},opacity:$t,transform:function(t,n,r,i){if(!(t=function(t,n){if(!t||"object"!==e(t))return null;var r=!1;for(var i in t)t.hasOwnProperty(i)&&(t[i]&&t[i].length?(t[i].forEach((function(t){t.e&&(t.e=n(t.e))})),r=!0):delete t[i]);return r?t:null}(t,i)))return null;var u=function(e,i,u){var o=arguments.length>3&&void 0!==arguments[3]?arguments[3]:null;return t[e]?r(i,t[e],u):n&&n[e]?n[e]:o};return n&&n.a&&t.o?function(n){var e=r(n,t.o,Lt);return zt.recomposeSelf(e,u("r",n,D,0)+e.a,u("k",n,V),u("s",n,V),u("t",n,V)).toString()}:function(t){return zt.recomposeSelf(u("o",t,Dt,null),u("r",t,D,0),u("k",t,V),u("s",t,V),u("t",t,V)).toString()}},r:Yt,"#size":wt,"#radius":bt,_:function(t,n){if(Array.isArray(t))for(var e=0;e<t.length;e++)this[t[e]]=n;else this[t]=n}},tn=function(t){!function(t,n){if("function"!=typeof n&&null!==n)throw new TypeError("Super expression must either be null or a function");t.prototype=Object.create(n&&n.prototype,{constructor:{value:t,writable:!0,configurable:!0}}),n&&l(t,n)}(o,t);var n,e,i=(n=o,e=s(),function(){var t,r=a(n);if(e){var i=a(this).constructor;t=Reflect.construct(r,arguments,i)}else t=r.apply(this,arguments);return c(this,t)});function o(){return r(this,o),i.apply(this,arguments)}return u(o,null,[{key:"build",value:function(t){var n=h(a(o),"build",this).call(this,t,Xt);if(!n)return null;n.el,n.options,function(t,n,e){t.play()}(n.player)}}]),o}(yt);return tn.init(),tn}));
(function(s,i,o,w,d,a,b){w[o]=w[o]||{};w[o][s]=w[o][s]||[];w[o][s].push(i);})('5c7f360c',{"root":"eVu87xSYD3k1","version":"2022-05-04","animations":[{"elements":{"eVu87xSYD3k4":{"transform":{"data":{"t":{"x":-309.585541,"y":-182.624161}},"keys":{"o":[{"t":0,"v":{"x":309.585541,"y":-177.375839,"type":"corner"}},{"t":600,"v":{"x":309.585541,"y":182.624161,"type":"corner"}}]}}},"eVu87xSYD3k6":{"opacity":[{"t":1800,"v":0},{"t":2200,"v":1}]},"eVu87xSYD3k29":{"transform":{"data":{"t":{"x":-265.050537,"y":-225.394455}},"keys":{"o":[{"t":800,"v":{"x":265.050537,"y":-274.605545,"type":"corner"}},{"t":1200,"v":{"x":265.050537,"y":225.394455,"type":"corner"}}]}}},"eVu87xSYD3k169":{"transform":{"data":{"t":{"x":-316.105003,"y":-311.376999}},"keys":{"o":[{"t":400,"v":{"x":316.105003,"y":-68.623001,"type":"corner"}},{"t":800,"v":{"x":316.105003,"y":311.376999,"type":"corner"}}]}}},"eVu87xSYD3k173":{"transform":{"data":{"t":{"x":-281.395996,"y":-246.145004}},"keys":{"o":[{"t":1200,"v":{"x":281.395996,"y":-133.854996,"type":"corner"}},{"t":1800,"v":{"x":281.395996,"y":246.145004,"type":"corner"}}]}}}},"s":"MTDA1ZGEwVDQ3ODk5YUVE5Nzg2Uzk5OGU5NDkBzNDc1ZjU4NTU1NTU1HNTE0Nzg5OGU5NzhhOJDg5OThlRTk0OTM0NzTVmNTY1MTQ3OGU5OThLhOTc4Nlk5OThlOTQ5RM1g5ODQ3NWZCNTZLNYTE0NzhiOGU5MTkxNDBc1ZjU2NTE0Nzg2OTED5OThhOTc5M0c4Njk5BOGFMNDc1ZjhiODY5MGTk4OGE1MTQ3OThOOTAU4YThhODk0NzVmNTYP1MTQ3OGI5NUE5ODQ3MNWY1NjU1NTVhMg|"}],"options":"MDDAxMFA4ODJmODA4MVPg2ZTdmUzgxMmY0NzJAmNzk3YzZlNzEyZjhhU"},'__SVGATOR_PLAYER__',window,document)
]]></script>
</svg>
