<svg width="57" height="46" viewBox="0 0 57 46" fill="none" xmlns="http://www.w3.org/2000/svg">
<path d="M51.3509 0.357422H6.35148C3.25778 0.357422 0.754687 2.88864 0.754687 5.98234L0.726562 39.7319C0.726562 42.8256 3.25778 45.3568 6.35148 45.3568H51.3509C54.4446 45.3568 56.9758 42.8256 56.9758 39.7319V5.98234C56.9758 2.88864 54.4446 0.357422 51.3509 0.357422ZM50.2259 12.3104L30.3418 24.7415C29.4418 25.304 28.2606 25.304 27.3606 24.7415L7.47647 12.3104C7.19446 12.1521 6.9475 11.9382 6.75054 11.6817C6.55358 11.4251 6.41072 11.1313 6.3306 10.818C6.25048 10.5047 6.23478 10.1784 6.28443 9.85878C6.33408 9.5392 6.44805 9.23302 6.61946 8.95877C6.79087 8.68452 7.01614 8.4479 7.28164 8.26324C7.54714 8.07857 7.84735 7.94969 8.1641 7.88441C8.48085 7.81912 8.80756 7.81879 9.12444 7.88342C9.44133 7.94806 9.7418 8.07631 10.0077 8.26044L28.8512 20.0446L47.6947 8.26044C47.9605 8.07631 48.261 7.94806 48.5779 7.88342C48.8948 7.81879 49.2215 7.81912 49.5382 7.88441C49.855 7.94969 50.1552 8.07857 50.4207 8.26324C50.6862 8.4479 50.9115 8.68452 51.0829 8.95877C51.2543 9.23302 51.3683 9.5392 51.4179 9.85878C51.4676 10.1784 51.4519 10.5047 51.3717 10.818C51.2916 11.1313 51.1488 11.4251 50.9518 11.6817C50.7549 11.9382 50.5079 12.1521 50.2259 12.3104Z" fill="#A3D5D2"/>
</svg>
