<svg width="48" height="48" viewBox="0 0 48 48" fill="none" xmlns="http://www.w3.org/2000/svg">
<path d="M44.519 47.119C39.1026 47.119 33.7408 45.9491 28.4336 43.6092C23.1264 41.2693 18.3054 37.9328 13.9705 33.5997C9.63566 29.2666 6.29915 24.4568 3.961 19.1704C1.62285 13.884 0.452905 8.51089 0.451172 3.05116V0.321289H15.7904L18.1953 13.3857L10.7857 20.8603C11.739 22.5502 12.8006 24.1535 13.9705 25.6701C15.1405 27.1867 16.3971 28.5949 17.7403 29.8949C18.9969 31.1515 20.3731 32.3543 21.8689 33.5035C23.3647 34.6526 24.9784 35.7246 26.7099 36.7195L34.2495 29.1799L47.2489 31.8448V47.119H44.519Z" fill="#A3D5D2"/>
</svg>
