<svg width="46" height="60" viewBox="0 0 46 60" fill="none" xmlns="http://www.w3.org/2000/svg">
<path d="M23.0435 0.286133C16.957 0.293392 11.1218 2.74104 6.818 7.09215C2.51418 11.4433 0.0931324 17.3426 0.0859519 23.496C0.0803558 28.5242 1.70489 33.4158 4.71086 37.4219C4.71086 37.4219 5.33698 38.2553 5.43924 38.3756L23.0435 59.3657L40.6562 38.365C40.748 38.2532 41.3762 37.4219 41.3762 37.4219L41.3783 37.4155C44.3822 33.411 46.0059 28.5218 46.0011 23.496C45.9939 17.3426 43.5729 11.4433 39.2691 7.09215C34.9652 2.74104 29.1301 0.293392 23.0435 0.286133ZM23.0435 31.9359C21.3924 31.9359 19.7784 31.4409 18.4055 30.5135C17.0327 29.5861 15.9626 28.268 15.3308 26.7258C14.6989 25.1836 14.5336 23.4866 14.8557 21.8494C15.1778 20.2122 15.9729 18.7084 17.1405 17.528C18.308 16.3477 19.7955 15.5439 21.4149 15.2182C23.0343 14.8925 24.7128 15.0597 26.2382 15.6985C27.7637 16.3373 29.0675 17.419 29.9848 18.807C30.9021 20.1949 31.3917 21.8267 31.3917 23.496C31.389 25.7335 30.5085 27.8786 28.9436 29.4608C27.3786 31.043 25.2568 31.9331 23.0435 31.9359Z" fill="#A3D5D2"/>
</svg>
