<svg width="75" height="75" viewBox="0 0 75 75" fill="none" xmlns="http://www.w3.org/2000/svg">
<path opacity="0.5" d="M45.2031 48.5498L43.8002 50.0298C43.8002 50.0298 40.461 53.5418 31.3497 43.9495C22.2385 34.3573 25.5777 30.8453 25.5777 30.8453L26.4626 29.9111C28.6395 27.6171 28.8461 23.9356 26.9436 21.2469L23.0586 15.7493C20.703 12.4193 16.1551 11.9815 13.4571 14.8213L8.6194 19.9118C7.28431 21.3209 6.39015 23.1432 6.49806 25.1689C6.77556 30.3489 8.9894 41.489 21.3351 54.4914C34.43 68.2739 46.7171 68.8228 51.7398 68.3263C53.3308 68.1722 54.7121 67.3119 55.8252 66.1403L60.2036 61.5276C63.1636 58.4134 62.3311 53.0793 58.5447 50.9024L52.6556 47.5108C50.1704 46.0832 47.1456 46.5025 45.2031 48.5468" fill="#01161E"/>
<path d="M52.7386 37.6107C56.0912 37.6101 59.3523 36.5167 62.0275 34.4961C64.7028 32.4755 66.6465 29.6379 67.5641 26.4133C68.4816 23.1888 68.323 19.753 67.1123 16.6266C65.9016 13.5003 63.7047 10.8538 60.8547 9.08827C58.0046 7.32274 54.6567 6.53439 51.3183 6.84268C47.98 7.15098 44.8331 8.53911 42.3545 10.7967C39.876 13.0543 38.201 16.0584 37.5833 19.3536C36.9656 22.6488 37.4389 26.0555 38.9315 29.0575C39.2128 29.6029 39.2862 30.2319 39.138 30.8274L38.2192 34.2591C38.1282 34.5989 38.1283 34.9566 38.2193 35.2964C38.3104 35.6361 38.4893 35.9459 38.738 36.1946C38.9867 36.4434 39.2965 36.6222 39.6363 36.7133C39.976 36.8044 40.3338 36.8044 40.6735 36.7134L44.1053 35.7946C44.7008 35.6464 45.3298 35.7198 45.8751 36.0012C48.0079 37.0606 50.3572 37.6115 52.7386 37.6107Z" fill="#01161E"/>
</svg>
