<svg width="57" height="57" viewBox="0 0 57 57" fill="none" xmlns="http://www.w3.org/2000/svg">
<g clip-path="url(#clip0_294_11260)">
<path d="M1.66672 27.9394C1.66541 32.6812 2.90441 37.3113 5.26034 41.3923L1.44141 55.3358L15.7109 51.5943C19.6577 53.7429 24.0797 54.8687 28.5734 54.869H28.5852C43.4198 54.869 55.4954 42.7977 55.5017 27.9606C55.5046 20.7709 52.7072 14.0102 47.6248 8.92385C42.5432 3.83791 35.7849 1.03551 28.5841 1.03223C13.7478 1.03223 1.67306 13.1029 1.66694 27.9394" fill="url(#paint0_linear_294_11260)"/>
<path d="M0.705742 27.9308C0.704211 32.8433 1.98762 37.639 4.42755 41.8661L0.47168 56.3095L15.2528 52.4339C19.3255 54.6544 23.911 55.8252 28.5769 55.8269H28.5889C43.9557 55.8269 56.4651 43.3214 56.4717 27.9532C56.4743 20.5052 53.5763 13.5014 48.3123 8.23284C43.0476 2.96491 36.0476 0.0616562 28.5889 0.0585938C13.2196 0.0585938 0.711867 12.5623 0.705742 27.9308ZM9.50846 41.1381L8.95655 40.262C6.63649 36.573 5.41193 32.31 5.41368 27.9326C5.41849 15.1587 15.8144 4.76609 28.5977 4.76609C34.7883 4.76872 40.6062 7.18197 44.9821 11.5605C49.3577 15.9394 51.7655 21.7603 51.764 27.9514C51.7583 40.7253 41.3622 51.1192 28.5889 51.1192H28.5797C24.4206 51.117 20.3416 50.0001 16.7843 47.8894L15.9377 47.3873L7.1663 49.6871L9.50846 41.1381Z" fill="url(#paint1_linear_294_11260)"/>
<path d="M21.62 16.2786C21.098 15.1186 20.5487 15.0951 20.0524 15.0748C19.646 15.0573 19.1813 15.0586 18.7171 15.0586C18.2525 15.0586 17.4976 15.2334 16.8595 15.9301C16.2208 16.6275 14.4209 18.3127 14.4209 21.7403C14.4209 25.1679 16.9175 28.4807 17.2655 28.946C17.614 29.4104 22.0852 36.6694 29.1666 39.4619C35.0519 41.7826 36.2495 41.3211 37.5268 41.2047C38.8043 41.0888 41.6489 39.5199 42.2293 37.8931C42.8101 36.2664 42.8101 34.8721 42.6359 34.5807C42.4618 34.2905 41.9972 34.1161 41.3005 33.7679C40.6037 33.4196 37.1783 31.7339 36.5398 31.5014C35.9011 31.2691 35.4366 31.1531 34.972 31.8507C34.5074 32.5472 33.1732 34.1161 32.7666 34.5807C32.3604 35.0465 31.9537 35.1044 31.2572 34.756C30.5601 34.4064 28.3163 33.6716 25.6544 31.2984C23.5832 29.4517 22.185 27.1712 21.7786 26.4736C21.3721 25.7771 21.735 25.3996 22.0844 25.0524C22.3974 24.7403 22.7813 24.2389 23.13 23.8322C23.4774 23.4254 23.5933 23.1351 23.8256 22.6705C24.0581 22.2054 23.9418 21.7985 23.7679 21.4501C23.5933 21.1016 22.2395 17.6561 21.62 16.2786Z" fill="white"/>
</g>
<defs>
<linearGradient id="paint0_linear_294_11260" x1="2704.46" y1="5431.39" x2="2704.46" y2="1.03223" gradientUnits="userSpaceOnUse">
<stop stop-color="#1FAF38"/>
<stop offset="1" stop-color="#60D669"/>
</linearGradient>
<linearGradient id="paint1_linear_294_11260" x1="2800.47" y1="5625.15" x2="2800.47" y2="0.0585938" gradientUnits="userSpaceOnUse">
<stop stop-color="#F9F9F9"/>
<stop offset="1" stop-color="white"/>
</linearGradient>
<clipPath id="clip0_294_11260">
<rect width="56" height="56.4375" fill="white" transform="translate(0.47168 0.0585938)"/>
</clipPath>
</defs>
</svg>
