<?xml version="1.0" encoding="UTF-8"?>
<svg id="OBJECTS" xmlns="http://www.w3.org/2000/svg" width="689.95" height="426.58" viewBox="0 0 689.95 426.58">
  <defs>
    <style>
      .cls-1 {
        fill: #ff9e00;
      }

      .cls-2 {
        stroke: #fff8f3;
        stroke-width: .95px;
      }

      .cls-2, .cls-3, .cls-4, .cls-5, .cls-6, .cls-7, .cls-8, .cls-9, .cls-10, .cls-11, .cls-12, .cls-13, .cls-14 {
        fill: none;
      }

      .cls-2, .cls-4, .cls-5, .cls-6, .cls-7, .cls-8, .cls-9, .cls-10, .cls-11, .cls-12, .cls-13, .cls-14 {
        stroke-linecap: round;
        stroke-linejoin: round;
      }

      .cls-15 {
        fill: #c9c7ff;
      }

      .cls-16, .cls-17 {
        fill: #e5e3fc;
      }

      .cls-18 {
        fill: #ff8772;
      }

      .cls-19 {
        fill: #ae4e3e;
      }

      .cls-20 {
        fill: #914b29;
      }

      .cls-21 {
        fill: #2d201b;
      }

      .cls-3 {
        stroke: #f5f5f3;
        stroke-miterlimit: 10;
        stroke-width: .98px;
      }

      .cls-22 {
        fill: #fff8f3;
      }

      .cls-4 {
        stroke: #b7a091;
        stroke-width: 1.05px;
      }

      .cls-5 {
        stroke: #fff;
        stroke-width: .5px;
      }

      .cls-5, .cls-17 {
        opacity: .73;
      }

      .cls-6 {
        stroke-width: .86px;
      }

      .cls-6, .cls-10, .cls-12 {
        stroke: #2d1a14;
      }

      .cls-23 {
        fill: #7f6bf4;
      }

      .cls-7 {
        stroke-width: 1.26px;
      }

      .cls-7, .cls-8, .cls-9, .cls-11, .cls-13 {
        stroke: #211d1d;
      }

      .cls-8 {
        stroke-width: 1.14px;
      }

      .cls-9 {
        stroke-width: 1.09px;
      }

      .cls-24 {
        fill: #a83500;
      }

      .cls-25 {
        fill: #f4d0b8;
      }

      .cls-26 {
        fill: #c8c0fc;
      }

      .cls-10 {
        stroke-width: 1.84px;
      }

      .cls-27 {
        fill: #fcefeb;
      }

      .cls-11 {
        stroke-width: 1.1px;
      }

      .cls-28 {
        fill: #b82b12;
      }

      .cls-12 {
        stroke-width: 2.12px;
      }

      .cls-13 {
        stroke-width: 1.08px;
      }

      .cls-29 {
        fill: #2d1a14;
      }

      .cls-14 {
        stroke: #472a1c;
        stroke-width: 1.3px;
      }
    </style>
  </defs>
  <path class="cls-16" d="M57.54,276.65h75.92c3.17,0,5.74,2.57,5.74,5.74v3.25c0,3.17-2.57,5.74-5.74,5.74H57.54c-3.17,0-5.74-2.57-5.74-5.74v-3.25c0-3.17,2.57-5.74,5.74-5.74Z" transform="translate(36.19 577.73) rotate(-150)"/>
  <path class="cls-17" d="M93.2,199.53l439.02,211.29c43.85,21.1,96.99,2.49,118.09-41.35h0c21.1-43.85,2.49-96.99-41.35-118.09L169.94,40.09c-43.85-21.1-96.99-2.49-118.09,41.35h0c-21.1,43.85-2.49,96.99,41.35,118.09Z"/>
  <path class="cls-15" d="M544.93,220.37c-4.86,9.37-1.18,21.01,8.19,25.87l92.09,47.8c5.02,2.6,10.92,2.86,16.15.71h0c15.1-6.22,16.03-27.25,1.54-34.78l-92.09-47.8c-9.37-4.86-21.01-1.18-25.87,8.19Z"/>
  <g>
    <g>
      <path class="cls-23" d="M133.7,200.55c8.11-4,13.39-12.83,13.54-21.79.07-4.6-.95-9.72,1.82-13.42,2.88-3.87,8.62-4.37,12.27-7.54,4.05-3.51,4.67-9.85,2.47-14.71-2.17-4.79-6.75-9.84-4.24-14.47.94-1.73,2.7-2.85,4.17-4.17,4.77-4.28,6.61-11.54,4.22-17.46-2.38-5.91-8.95-9.97-15.35-9.26-6.4.71-11.96,6.28-12.38,12.63-.26,3.95,1.19,8.28-.88,11.67-2.49,4.09-8.36,4.21-12.54,6.59-4.4,2.51-6.82,8.02-5.66,12.92,2.88,12.14-.62,10.65-9.3,17.33-5.29,4.07-11.08,11.44-11.55,18.29-1.2,17.25,17.38,31.29,33.41,23.39Z"/>
      <path class="cls-8" d="M108.21,223.76c0-2.5,40.51-98.71,40.51-98.71"/>
      <line class="cls-8" x1="131.53" y1="127.89" x2="134.39" y2="159.05"/>
      <path class="cls-8" d="M124.98,181.86c1.72-1.7,22.59-12.61,22.59-12.61"/>
      <path class="cls-23" d="M62.15,213.56c-8.97-1.28-16.78-8.04-19.75-16.51-1.52-4.35-2.17-9.52-5.97-12.19-3.96-2.78-9.57-1.48-14.04-3.37-4.95-2.08-7.55-7.91-7-13.21.54-5.22,3.3-11.44-.55-15.06-1.44-1.36-3.46-1.87-5.28-2.67C3.68,147.97-.37,141.64.03,135.28c.39-6.36,5.35-12.23,11.65-13.54,6.3-1.3,13.35,2.26,15.76,8.17,1.5,3.67,1.49,8.23,4.52,10.82,3.65,3.12,9.28,1.41,14,2.38,4.98,1.02,9.01,5.51,9.46,10.52,1.11,12.42,3.96,9.93,14.32,13.58,6.32,2.23,14.14,7.44,16.76,13.8,6.59,16.01-6.61,35.09-24.34,32.55Z"/>
      <path class="cls-8" d="M93.7,227.73c-.79-2.37-69.69-81.23-69.69-81.23"/>
      <line class="cls-8" x1="41.23" y1="143.88" x2="48.37" y2="174.36"/>
      <path class="cls-9" d="M63.91,192.41c-2.08-1.04-19.17-2.35-19.17-2.35"/>
      <path class="cls-26" d="M112.65,172.36c6.36-8.87,6.89-21.3,1.85-30.96-2.59-4.96-6.64-9.85-5.83-15.38.84-5.77,6.68-9.55,8.75-15.01,2.29-6.04-.71-13.17-5.88-17.12-5.09-3.9-12.91-6.7-12.92-13.07,0-2.39,1.24-4.57,2.04-6.82,2.62-7.28.38-16.09-5.6-21.06-5.97-4.97-15.34-5.58-21.77-1.2-6.43,4.38-9.15,13.49-5.92,20.52,2.01,4.37,6.06,8.18,5.83,12.97-.29,5.78-6.5,9.24-9.59,14.15-3.25,5.18-2.64,12.44,1.44,17.02,10.1,11.34,5.5,11.74.09,23.79-3.3,7.35-5.21,18.51-1.76,26.09,8.71,19.12,36.7,23.6,49.27,6.08Z"/>
      <line class="cls-7" x1="84.29" y1="79.15" x2="97.54" y2="232.7"/>
      <line class="cls-7" x1="76.1" y1="144.06" x2="91.25" y2="162.79"/>
      <line class="cls-7" x1="97.54" y1="93.5" x2="88.71" y2="124.09"/>
      <polygon class="cls-29" points="73.86 223.87 88.99 303.7 115.66 303.7 129.36 225.29 73.86 223.87"/>
      <line class="cls-2" x1="77.28" y1="237.03" x2="127.14" y2="238.66"/>
    </g>
    <polyline class="cls-13" points="93.79 299.11 77.88 424.91 109.09 297.91"/>
    <polygon class="cls-13" points="91.35 282.93 126.84 423.54 113.99 282.33 91.35 282.93"/>
  </g>
  <g>
    <g>
      <path class="cls-23" d="M531.71,200.83c-8.11-4-13.39-12.83-13.54-21.79-.07-4.6.95-9.72-1.82-13.42-2.88-3.87-8.62-4.37-12.27-7.54-4.05-3.51-4.67-9.85-2.47-14.71,2.17-4.79,6.75-9.84,4.24-14.47-.94-1.73-2.7-2.85-4.17-4.17-4.77-4.28-6.61-11.55-4.22-17.46s8.95-9.97,15.35-9.26c6.4.71,11.96,6.28,12.38,12.63.26,3.95-1.19,8.28.88,11.67,2.49,4.09,8.36,4.21,12.54,6.59,4.4,2.51,6.82,8.02,5.66,12.92-2.88,12.14.62,10.65,9.3,17.33,5.29,4.07,11.08,11.44,11.55,18.29,1.2,17.25-17.38,31.29-33.41,23.39Z"/>
      <path class="cls-8" d="M557.21,230.04c0-2.5-40.51-104.7-40.51-104.7"/>
      <line class="cls-8" x1="533.88" y1="128.17" x2="532.45" y2="165.28"/>
      <path class="cls-8" d="M540.23,185.14c-1.72-1.7-22.39-15.62-22.39-15.62"/>
      <path class="cls-23" d="M603.27,213.84c8.97-1.28,16.78-8.04,19.75-16.51,1.52-4.35,2.17-9.52,5.97-12.19,3.96-2.78,9.57-1.48,14.04-3.37,4.95-2.08,7.55-7.91,7-13.21-.54-5.22-3.3-11.44.55-15.06,1.44-1.36,3.46-1.87,5.28-2.67,5.88-2.59,9.93-8.92,9.53-15.28-.39-6.36-5.35-12.23-11.65-13.54-6.3-1.3-13.35,2.26-15.76,8.17-1.5,3.67-1.49,8.23-4.52,10.82-3.65,3.12-9.28,1.41-14,2.38-4.98,1.02-9.01,5.51-9.46,10.52-1.11,12.42-3.96,9.93-14.32,13.58-6.32,2.23-14.14,7.45-16.76,13.8-6.59,16.01,6.61,35.09,24.34,32.55Z"/>
      <path class="cls-8" d="M571.71,228.01c.79-2.37,69.69-81.23,69.69-81.23"/>
      <line class="cls-8" x1="624.18" y1="144.16" x2="617.05" y2="174.64"/>
      <line class="cls-9" x1="602.39" y1="191.67" x2="620.68" y2="190.35"/>
      <path class="cls-26" d="M552.77,172.64c-6.36-8.87-6.89-21.3-1.85-30.96,2.59-4.96,6.64-9.85,5.83-15.38-.84-5.77-6.68-9.55-8.75-15.01-2.29-6.04.71-13.17,5.88-17.12,5.09-3.9,12.91-6.7,12.92-13.07,0-2.39-1.24-4.57-2.04-6.82-2.62-7.28-.38-16.09,5.6-21.06,5.97-4.97,15.34-5.58,21.77-1.2,6.43,4.38,9.15,13.49,5.92,20.52-2.01,4.37-6.06,8.18-5.83,12.97.29,5.78,6.5,9.24,9.59,14.15,3.25,5.18,2.64,12.44-1.44,17.02-10.1,11.34-5.5,11.74-.09,23.79,3.3,7.35,5.21,18.51,1.76,26.09-8.71,19.12-36.7,23.6-49.27,6.08Z"/>
      <line class="cls-7" x1="581.13" y1="79.43" x2="567.87" y2="232.98"/>
      <line class="cls-7" x1="589.32" y1="144.34" x2="574.17" y2="163.07"/>
      <line class="cls-7" x1="567.87" y1="93.78" x2="576.71" y2="129.8"/>
      <polygon class="cls-29" points="591.56 224.15 576.42 303.99 549.75 303.99 536.06 225.57 591.56 224.15"/>
      <line class="cls-2" x1="588.14" y1="237.31" x2="538.28" y2="238.94"/>
    </g>
    <polyline class="cls-9" points="571.62 299.75 587.53 425.39 556.32 298.52"/>
    <polygon class="cls-9" points="574.07 283.23 538.58 425.19 551.43 282.61 574.07 283.23"/>
  </g>
  <path class="cls-15" d="M263.54,36.78c-5.04,9.27-1.58,20.99,7.69,26.03l91.16,49.56c4.96,2.7,10.87,3.07,16.13,1.02h0c15.22-5.93,16.55-26.94,2.2-34.74l-91.16-49.56c-9.27-5.04-20.99-1.58-26.03,7.69Z"/>
  <path class="cls-16" d="M160.82,24.02h75.92c3.17,0,5.74,2.57,5.74,5.74v3.25c0,3.17-2.57,5.74-5.74,5.74h-75.92c-3.17,0-5.74-2.57-5.74-5.74v-3.25c0-3.17,2.57-5.74,5.74-5.74Z" transform="translate(362.21 148.8) rotate(-153.28)"/>
  <rect class="cls-15" x="229.65" y="105.35" width="87.4" height="14.73" rx="5.74" ry="5.74" transform="translate(466.82 336.32) rotate(-153.28)"/>
  <path class="cls-15" d="M611.62,329.15h75.92c3.17,0,5.74,2.57,5.74,5.74v3.25c0,3.17-2.57,5.74-5.74,5.74h-75.92c-3.17,0-5.74-2.57-5.74-5.74v-3.25c0-3.17,2.57-5.74,5.74-5.74Z" transform="translate(1078.44 929.2) rotate(-153.28)"/>
  <path class="cls-17" d="M142.23,348.1l107.29,75.39h75.38l-157.75-110.85c-9.75-6.85-23.34-4.48-30.19,5.27-6.85,9.75-4.48,23.34,5.27,30.19Z"/>
  <path class="cls-16" d="M51.9,238.66c0,1.95-1.58,3.53-3.53,3.53s-3.53-1.58-3.53-3.53,1.58-3.53,3.53-3.53,3.53,1.58,3.53,3.53Z"/>
  <g>
    <polyline class="cls-11" points="289.08 424.27 272.73 327.18 211.84 326.87 193.43 425.45"/>
    <path class="cls-28" d="M216.71,321.93h75.14c6.22,0,11.32-5.87,11.32-13.04h0c0-7.17-5.09-13.04-11.32-13.04h-75.14c-6.22,0-11.32,5.87-11.32,13.04h0c0,7.17,5.09,13.04,11.32,13.04Z"/>
    <path class="cls-28" d="M223.88,322.4c5.37-22.76-7.41-47.03-26.47-60.58-19.06-13.56-43.15-18.06-66.52-18.93l24.62,79.46,68.37.05Z"/>
    <polyline class="cls-9" points="234.52 424.74 218.15 327.96 157.26 327.67 138.88 425.61"/>
    <rect class="cls-29" x="146.63" y="321.88" width="123.5" height="6.36" rx="2.79" ry="2.79"/>
  </g>
  <g>
    <g>
      <g>
        <path class="cls-18" d="M201.02,120.46c.57,3.05.89,6.15.98,9.25.13,4.64-.46,9.71-3.64,13.04,1.97,2.76,4.96,5.03,8.21,5.87,3.25.84,6.79.5,9.82-.97.83-.4,1.61-.88,2.4-1.35.96-.58,1.93-1.17,2.89-1.75-4.18-7.33-7.75-15.44-6.63-23.84-2.09-.4-5.04-1.29-7.13-1.69-.91-.17-1.82-.34-2.74-.3-1.46.06-2.72,2-4.16,1.75Z"/>
        <path class="cls-29" d="M217.21,135.37c-1.82-4.72-2.84-9.64-2.17-14.67-2.09-.4-5.04-1.29-7.13-1.69-.61-.12-1.23-.23-1.85-.28-.34,7.45,4.43,14.53,11.14,16.64Z"/>
        <path class="cls-23" d="M221.68,199l-16.69-.95c-13.24-.76-24.68,9.65-25.42,23.13-.63,11.41-1.49,23.38-2.25,22.67.66,10.4-1.65,31.31,2.67,41.02,2.86,8.48,10.23,9.36,19.01,10.08.22.02.43.03.65.04l16.69.95c12.69.73,24.25-18.17,25.84-31.54-.06-.56.33-5.36.55-9,0,0,1.71-30.03,1.68-30.52.74-13.48-9.48-25.12-22.72-25.88Z"/>
        <path class="cls-25" d="M251.41,179.64c-.29-4.17-.83-8.31-1.38-12.46-.5-3.81-1.09-7.69-2.39-11.36-.59-1.68-1.34-3.43-2.5-4.84-1.01-1.24-2.3-2.17-3.74-2.97-2.11-1.18-4.39-2.02-6.62-2.96-1.92-.3-3.97-.41-6.21-.49-.43-.02-.87-.03-1.32-.05-.26,0-.51-.02-.78-.03-.09,0-.18,0-.27,0-.21,0-.43-.02-.65-.02-.87-.03-1.76-.07-2.69-.12-1.18-.06-2.37-.14-3.55-.22-7.43-.51-14.85-1.29-22.3-1.5-.74-.02-1.48-.04-2.23-.05-2.05-.03-4.12-.01-6.2.08-.06,0-.12,0-.18,0-.93.04-1.86.1-2.79.18-4.67.39-9.27,1.23-13.43,2.9-.66.27-1.34.54-2.03.84-.06.03-.12.05-.17.07-6.21,2.64-13.2,6.47-14.64,13.01-2.03,9.22,1.65,20.86,3.27,30,.01.06.02.13.03.19.07.41.15.84.22,1.26.46,2.55.97,5.25,1.53,8.07,1.56,7.94,3.43,16.74,5.16,25.45,0,.02,0,.03.01.05.25,1.25.49,2.49.73,3.73.92,4.74,1.78,9.42,2.51,13.87,1.08,6.64,4.97,14.08,11.46,16.49,3.64,1.35,8.25,1.03,12.08,1.31,5.17.38,10.35.65,15.54.74,1.86.03,3.72.04,5.58.03,3.64-.03,7.28-.16,10.91-.44,3.45-.26,6.87-.59,10.22-1.41,1.27-.31,2.51-.68,3.74-1.1,1.03-.35,2.2-.68,3.05-1.37.24-.19.46-.39.66-.61.4-.41.75-.87,1.05-1.36.59-2.24,1.09-4.51,1.69-6.74.48-1.78.97-3.55,1.46-5.32,1.1-4.66,2.26-9.32,3.2-14.01.43-2.92.71-5.86.98-8.81.4-4.4.73-8.8.98-13.21.49-8.94.63-17.91.01-26.84Z"/>
        <path class="cls-18" d="M217.18,135.3c1.22,3.19,2.81,6.28,4.5,9.24-.96.58-1.93,1.17-2.89,1.75-.79.48-1.57.95-2.4,1.35-3.03,1.46-6.57,1.81-9.82.97-3.25-.84-6.24-3.11-8.21-5.87,1.92-2.01,2.89-4.65,3.34-7.44h15.49Z"/>
      </g>
      <g>
        <path class="cls-21" d="M206.23,106.9c2.96.65,4.59,3.76,4.17,6.56-.42,2.79-2.43,5.24-4.69,7.22-1.14-3.4-1.94-6.4-3.07-9.81-.43-1.28-.72-2.95.5-3.77.68-.46,2.29-.37,3.09-.2Z"/>
        <path class="cls-18" d="M220.22,122.83c0,.11-.01.22-.02.32,0,.05,0,.11-.01.16,0,.03,0,.07,0,.1,0,.1-.02.21-.03.31,0,.03,0,.06-.01.09-.02.15-.05.3-.07.45-.03.16-.06.31-.1.47-.01.06-.03.11-.04.16,0,.03-.02.07-.03.1-.03.13-.07.26-.11.39-.1.31-.21.62-.33.92-.03.07-.06.14-.09.21-.29.64-.64,1.24-1.05,1.8-.09.12-.18.24-.27.36-.05.06-.1.12-.15.19-.09.1-.17.2-.26.3-.22.24-.45.47-.69.69-.11.1-.23.2-.34.3-.48.39-.99.74-1.54,1.04-.41.22-.84.42-1.28.58-.1.04-.2.07-.29.1-.07.02-.14.05-.21.07-.04.01-.08.02-.12.04-.04.01-.07.02-.11.03-.11.03-.23.06-.34.09-.69.16-1.4.25-2.13.26-.16,0-.32,0-.48,0-1.78-.07-3.45-.64-4.87-1.57-2.67-1.75-4.46-4.8-4.49-8.26l-.02-2.35-.06-6.91-.02-2.16-.03-2.98c0-.16,0-.33,0-.49,0-.08,0-.16.01-.24,0-.06,0-.13.01-.19,0-.06.01-.13.02-.19,0-.02,0-.03,0-.05,0-.04,0-.08.01-.12,0-.05.01-.09.02-.14,0-.03,0-.06.01-.08,0-.07.02-.14.03-.2,0-.06.02-.11.03-.17,0-.03.01-.07.02-.1.02-.13.05-.26.08-.39.02-.07.03-.15.05-.22.02-.07.03-.13.05-.2.02-.07.04-.13.06-.2,0,0,0,0,0,0,.02-.07.04-.13.06-.2.02-.07.04-.13.07-.2.02-.06.05-.13.07-.19.05-.13.1-.26.15-.39.01-.02.02-.05.03-.07.05-.11.09-.21.14-.31.01-.02.02-.05.03-.07.05-.11.1-.21.16-.32,0-.02.02-.03.03-.05,1.64-3.08,4.83-5.2,8.49-5.23,4.12-.04,7.7,2.57,9.15,6.26.44,1.11.68,2.32.69,3.58l.13,14.39c0,.17,0,.33,0,.5Z"/>
        <path class="cls-18" d="M195.3,116.76c.02,2.11,1.72,3.81,3.79,3.79,2.07-.02,3.74-1.75,3.72-3.86-.02-2.11-1.72-3.81-3.79-3.79-2.07.02-3.74,1.75-3.72,3.86Z"/>
        <path class="cls-29" d="M219.41,104.36c-1.6,1.11-3.65,1.7-5.61,1.79-3.34.15-6.65-.77-9.99-.92-.27-.01-.55-.02-.81.05-.14.03-.27.09-.38.17l-1.28,8.22-.24,1.56c-.02-.61-.07-1.21-.14-1.82-.09-.77-.2-1.55-.32-2.32l-.03-2.98c0-.16,0-.33,0-.49,0-.08,0-.16.01-.24,0-.06,0-.13.01-.19,0-.06.01-.13.02-.19,0-.02,0-.03,0-.05,0-.04,0-.08.01-.12,0-.05.01-.09.02-.14,0-.03,0-.06.01-.08,0-.07.02-.14.03-.2,0-.06.02-.11.03-.17,0-.03.01-.07.02-.1.02-.13.05-.26.08-.39.02-.07.03-.15.05-.22.02-.07.03-.13.05-.2.02-.07.04-.13.06-.2,0,0,0,0,0,0,.02-.07.04-.13.06-.2.02-.07.04-.13.07-.2.02-.06.05-.13.07-.19.05-.13.1-.26.15-.39.01-.02.02-.05.03-.07.05-.11.09-.21.14-.31.01-.02.02-.05.03-.07.05-.11.1-.21.16-.32,0-.02.02-.03.03-.05,1.64-3.08,4.83-5.2,8.49-5.23,4.12-.04,7.7,2.57,9.15,6.26Z"/>
        <path class="cls-29" d="M201.1,102.16c-1.08.54-1.77,1.66-2.07,2.83-.3,1.17-.27,2.39-.23,3.6.04,1.34.09,2.69.13,4.03,1.25.81,2.38,2.45,2.79,3.88,3.47-4.53,4.86-11.1,3.12-16.54"/>
      </g>
    </g>
    <path class="cls-23" d="M181.34,276.84c2.27-8.13,10.69-12.88,18.82-10.61.53.15,1.06.33,1.55.52l63.94,25.49.99.4c4.4,1.76,7.03,6.08,6.87,10.56l-3.95,104.03c-.16,4.2-3.7,7.48-7.9,7.32-4-.15-8.04-2.72-8.2-6.65l-7.39-92.85-54.12-19.38c-8.13-2.27-12.88-10.69-10.61-18.82Z"/>
    <path class="cls-23" d="M244.85,264.22l63.94,25.49.99.4c4.4,1.76,7.03,6.08,6.87,10.56l-3.95,104.03c-.16,4.2-3.7,7.48-7.9,7.32-4-.15-7.16-3.39-7.32-7.32l-3.95-104.03,7.86,10.95-66.31-18.49c-8.13-2.27-12.88-10.69-10.61-18.82s10.69-12.88,18.82-10.61c.53.15,1.06.33,1.55.52Z"/>
    <g>
      <path class="cls-29" d="M306.71,401.83c2.47-1.32,4.61-3.7,6.27-6.07,1.34,2.44,3.32,4.51,5.76,5.8,3.6,1.92,7.79,2.2,11.7,3.31,7.63,2.17,14.27,7.71,17.87,14.9h-51.63v-17.77c3.12,1.6,6.74,1.58,10.03-.18Z"/>
      <path class="cls-29" d="M306.71,401.83c2.47-1.32,4.61-3.7,6.26-6.06,1.35,2.43,3.33,4.5,5.77,5.79,3.6,1.92,7.79,2.2,11.7,3.31,7.63,2.17,14.27,7.71,17.87,14.9h-51.63v-17.77c3.12,1.6,6.74,1.58,10.03-.18Z"/>
      <path class="cls-29" d="M347.14,422.57h-50.26c-1.43,0-2.6-1.19-2.6-2.65h0c0-1.46,1.17-2.65,2.6-2.65h50.26c1.43,0,2.6,1.19,2.6,2.65h0c0,1.46-1.17,2.65-2.6,2.65Z"/>
      <path class="cls-4" d="M315.3,416.89s-2.8-11.21-18.92-10.16"/>
    </g>
    <g>
      <path class="cls-29" d="M263.57,405.21c2.47-1.32,4.61-3.7,6.27-6.07,1.34,2.44,3.32,4.51,5.76,5.8,3.6,1.92,7.79,2.2,11.7,3.31,7.63,2.17,14.27,7.71,17.87,14.9h-51.63v-17.77c3.12,1.6,6.74,1.58,10.03-.18Z"/>
      <path class="cls-29" d="M263.57,405.21c2.47-1.32,4.61-3.7,6.26-6.06,1.35,2.43,3.33,4.5,5.77,5.79,3.6,1.92,7.79,2.2,11.7,3.31,7.63,2.17,14.27,7.71,17.87,14.9h-51.63v-17.77c3.12,1.6,6.74,1.58,10.03-.18Z"/>
      <path class="cls-29" d="M304,425.95h-50.26c-1.43,0-2.6-1.19-2.6-2.65h0c0-1.46,1.17-2.65,2.6-2.65h50.26c1.43,0,2.6,1.19,2.6,2.65h0c0,1.46-1.17,2.65-2.6,2.65Z"/>
      <path class="cls-4" d="M272.17,420.28s-2.8-11.21-18.92-10.16"/>
    </g>
    <path class="cls-22" d="M212.69,122.03c2.44,0,4.42-2.7,4.42-6.03h-8.84c0,3.33,1.98,6.03,4.42,6.03Z"/>
    <polygon class="cls-25" points="198.36 142.74 215.37 188.83 224.76 144.34 198.36 142.74"/>
    <path class="cls-25" d="M221.25,146.81h-18.91c-2.37,0-4.31-1.94-4.31-4.31h0c0-2.37,1.94-4.31,4.31-4.31h18.91c2.37,0,4.31,1.94,4.31,4.31h0c0,2.37-1.94,4.31-4.31,4.31Z"/>
    <path class="cls-25" d="M185.71,173.67l-64.2,64.55-8.81-20.27,84.02,1.59c6.71.13,12.05,5.67,11.92,12.38-.13,6.71-5.67,12.05-12.38,11.92l-84.02-1.59c-6.71-.13-12.04-5.66-11.91-12.37.05-2.81,1.06-5.39,2.7-7.41l.4-.49,57.34-70.72c5.84-7.2,16.41-8.31,23.61-2.47,7.2,5.84,8.31,16.41,2.47,23.61-.36.44-.75.87-1.14,1.26Z"/>
    <path class="cls-25" d="M223.92,222.4l24.47-.53c-1.65,1.91-3.77,3.4-5.83,5.26-1.56,1.41.44,3.53,2.11,2.73,4.59-2.19,8.79-5.16,13.5-7.11.56-.23,3.44.42,3.6-.05l10.8-1.36-39.15-45.6c-.34-.39-.67-.83-.98-1.26-5.04-7.2-4.09-17.77,2.13-23.61,6.22-5.84,15.34-4.73,20.38,2.47l49.51,70.72.34.49c1.42,2.03,2.29,4.6,2.33,7.41.11,6.71-4.5,12.24-10.29,12.37l-72.54,1.59c-5.79.13-10.58-5.21-10.69-11.92-.11-6.71,4.5-12.25,10.29-11.59Z"/>
    <path class="cls-18" d="M260.72,244.97c6.23-.49,12.94-2.13,16.45-5.49.97-.93,1.51-2.32,1.84-3.6.44-1.76.47-3.65,0-5.41-.57-2.13-1.88-3.96-3.63-5.29-2.58-1.97-5.86-2.85-9.03-3.26-1.34-.17-2.68-.26-4.03-.29-2.02-.05-3.77.22-5.65.98-1.23.49-2.47.99-3.7,1.48-3.04,1.22-6.08,2.43-9.12,3.65-1.36.54-2.71,1.09-4.07,1.63-2.39.33-2.88-2.05-2.83,4.66.05,6.71,2.46,12.05,5.37,11.92l18.43-.8c0-.06-.08-.17-.02-.18Z"/>
    <path class="cls-18" d="M193.12,227.63l-20.98-4.24c-12.29,1.3-19.76,10.72-23.12,19.55l36.84.89c5.23.13,3.69-8.84,9.66-11.92,7.9-4.09,12.39-.94-2.39-4.28Z"/>
    <path class="cls-29" d="M215.14,105.22c3.44.3,6.94-2.02,8.01-5.3.37-1.12.47-2.3.51-3.48.04-1.18,0-2.38-.33-3.52-.55-1.9-1.88-3.49-3.44-4.7-1.56-1.21-3.36-2.07-5.14-2.92.3,1.12-.58,2.79-1.15,3.81-1.27,2.27-4.16,2.99-6.74,3.29-2.58.3-5.41.51-7.3,2.31-1.49,1.42-2.07,3.7-1.53,5.69s2.11,3.65,4.03,4.4"/>
    <line class="cls-14" x1="224.47" y1="274.31" x2="265.65" y2="292.25"/>
    <g>
      <path class="cls-18" d="M217.61,233c-.18,2.35-12.02,2.16-12.02,2.16,0,0,17.97,14.78,16.18,17.27-.07.1-.17.17-.28.23-.78-.15-1.56-.29-2.35-.4-4.46-2.03-12.63-9.28-12.63-9.28,0,0,2.63,2.64,5.35,5.8-2.68-.93-5.48-1.42-8.33-1.62-.34-.41-.53-.65-.53-.65,0,0,.18.24.48.65-4.15-.27-8.42.08-12.59.6-4.5-5.79-10.88-14.72-10.88-14.72l7.08-6.12s30.83,2.11,30.54,6.07Z"/>
      <path class="cls-18" d="M204.91,251.34c-.12,1.68-1.73,2.98-3.44,3.23-1.7.25-3.43-.34-4.95-1.15-3.39-1.81-6.12-4.8-7.57-8.3-.98-2.37-1.25-5.4.62-7.16,1.58-1.49,4.07-1.5,6.26-1.21,5.22.7,15.06,3.23,17.37,8.61,1.99,4.62-5.07,11.19-8.3,5.98Z"/>
    </g>
    <g>
      <path class="cls-18" d="M219.52,234.3c.18,2.35,12.02,2.16,12.02,2.16,0,0-17.97,14.78-16.18,17.27.07.1.17.17.28.23.78-.15,1.56-.29,2.35-.4,4.46-2.03,12.63-9.28,12.63-9.28,0,0-2.63,2.64-5.35,5.8,2.68-.93,5.48-1.42,8.33-1.62.34-.41.53-.65.53-.65,0,0-.18.24-.48.65,4.15-.27,8.42.08,12.59.6,4.5-5.79,10.88-14.72,10.88-14.72l-9.14-6.9s-28.77,2.89-28.48,6.85Z"/>
      <path class="cls-18" d="M232.21,252.64c.12,1.68,1.73,2.98,3.44,3.23,1.7.25,3.43-.34,4.95-1.15,3.39-1.81,6.12-4.8,7.57-8.3.98-2.37,1.25-5.4-.62-7.16-1.58-1.49-4.07-1.5-6.26-1.21-5.22.7-15.06,3.23-17.37,8.61-1.99,4.62,5.07,11.19,8.3,5.98Z"/>
    </g>
    <path class="cls-6" d="M222.91,145.92c.04,1.65-1.14,3.19-2.68,3.78-1.54.59-3.33.3-4.75-.53-.74-.44-1.42-1.05-1.69-1.87-.19,1.06-1.14,2.28-2.11,2.74-.97.47-2.1.53-3.16.35-2.88-.5-5.3-2.98-5.75-5.86"/>
    <path class="cls-29" d="M217.98,150.16c-.19,1.56-.98,3.04-2.16,4.07l8.65,24.97-4.41,7.83-7.83-6.36.98-26.44s-2.94-.65-3.43-3.75c0,0,3.43-.16,3.92-3.1,0,0,1.96,2.45,3.92,2.45l.36.33Z"/>
  </g>
  <g>
    <circle class="cls-29" cx="455.23" cy="120.92" r="22.83"/>
    <g>
      <path class="cls-29" d="M429.59,131.3s18.88,22.5,39.95,2.81l-19.98-21.12s-.3,22.04-19.98,18.32Z"/>
      <g>
        <path class="cls-29" d="M458.6,117.25c-.14.04-.26.1-.33.21.1-.08.22-.15.33-.21Z"/>
        <polyline class="cls-11" points="370.52 422.62 386.86 319 447.75 318.69 466.16 423.8"/>
        <path class="cls-28" d="M442.88,313.75h-75.14c-6.22,0-11.32-5.87-11.32-13.04h0c0-7.17,5.09-13.04,11.32-13.04h75.14c6.22,0,11.32,5.87,11.32,13.04h0c0,7.17-5.09,13.04-11.32,13.04Z"/>
        <path class="cls-24" d="M430.67,182.63l-52.99,22.66-1.63.7c-4.16,1.78-8.92.14-11.15-3.65l-41.61-70.42c-.83-1.4-.36-3.21,1.04-4.04,1.25-.74,2.83-.45,3.74.63l52.95,62.35-12.78-2.96,47.89-32.06c7.03-4.7,16.53-2.82,21.24,4.2,4.7,7.03,2.82,16.53-4.2,21.24-.78.52-1.67.99-2.5,1.35Z"/>
        <path class="cls-1" d="M437.37,160.04c-4.7-7.03-14.21-8.91-21.24-4.2l-41.35,27.68-28.29-33.31c-1.8,3.52-4.09,6.69-6.75,9.57l25.15,42.56c2.24,3.79,7,5.43,11.15,3.65l1.63-.7,52.99-22.66c.83-.36,1.72-.83,2.5-1.35,7.03-4.7,8.91-14.21,4.2-21.24Z"/>
        <path class="cls-29" d="M320.35,426.23h42.08l5.22-.49,7.8.84.52-18.86.87-11.94-14.47.75c.44,4.24-1.38,8.74-4.56,11.94-.25.25-.51.49-.77.73-.27.23-.54.45-.82.67-.7.54-1.45,1.01-2.24,1.42-.35.18-.7.34-1.05.5-.12.05-.24.1-.36.15-.12.05-.24.1-.36.14-.22.09-.44.17-.66.25-.26.09-.52.18-.79.26-.1.04-.21.07-.32.09-.14.05-.28.09-.42.12-.11.04-.23.07-.34.09-.13.04-.27.08-.41.11-.12.03-.24.06-.36.09-.45.11-.91.22-1.36.32-.08.02-.15.04-.23.05-1.73.39-3.48.73-5.18,1.22-7.72,2.22-17.81,4.62-21.8,11.54Z"/>
        <path class="cls-29" d="M317.94,316.81c-2.86,3.68-8.41,5.34-13.17,3.94-3.22-.95-5.87-3.09-8.83-4.64-5.76-3.02-12.85-3.73-19.06-1.9l30.68,28.16,19.25-17.89-8.88-7.66Z"/>
        <path class="cls-19" d="M439.31,214.34c-2.21,24.86-6.32,49.59-12.31,73.95h77.7c3.5-12.82.39-27.9-7.13-39.24-4.16-6.27-9.77-11.67-14.1-17.84-4.33-6.17-7.38-13.61-5.58-20.72l-38.58,3.85Z"/>
        <path class="cls-29" d="M497.57,249.05c-4.16-6.27-9.77-11.67-14.1-17.84-.26-.37-.51-.74-.76-1.12-4.36.05-8.72.06-13.08.02-1.88-.02-3.77-.04-5.65-.08h-26.32c-2.38,19.57-5.93,39.02-10.65,58.25h77.7c3.5-12.82.39-27.9-7.13-39.24Z"/>
        <path class="cls-1" d="M420.76,154.43h67.51c3.36,5.89,4.49,12.95,2.44,20.41-2.65,9.66-7.25,18.47-8.13,28.57-.58,6.64.45,13.44-.62,20.06-2.26,13.97-11.77,18.29-25.32,18.77-11.6.41-22.15-1.66-28.4-12.56-6.04-10.53-4.05-22.65-7.08-33.97-2.42-9.04-4.63-18.01-4.2-27.58.23-5.28,1.6-9.84,3.8-13.7Z"/>
        <path class="cls-24" d="M470.58,125.97c-.14,2.25-2.08,3.97-4.34,3.82-2.25-.14-3.97-2.08-3.82-4.34s2.08-3.97,4.34-3.82c2.25.14,3.97,2.08,3.82,4.34Z"/>
        <path class="cls-29" d="M380.54,402.3c-9.78-.7-19.49-4.14-29.3-4.31l18.36-111.3c1.19-7.03,7.27-12.17,14.4-12.17h103.62c8.06,0,14.6,6.54,14.6,14.6s-6.54,14.6-14.6,14.6h-91.28l-15.8,98.57Z"/>
        <path class="cls-29" d="M308.86,307.35l79.04-57.62c3.88-2.83,8.95-3.74,13.66-2.46l93.19,25.43c8.18,2.23,12.9,10.32,10.54,18.07-2.35,7.75-10.89,12.22-19.07,9.99l-85.7-23.39-71.81,52.35c-6.79-7.31-13.05-15.07-19.84-22.38Z"/>
        <path class="cls-24" d="M504.78,166.96l10.62,56.49.32,1.69c.87,4.65-2.04,9.15-6.54,10.36l-74.9,19.8c-1.99.53-4.03-.66-4.56-2.65-.47-1.8.45-3.63,2.09-4.36l70.81-31.43-6.22,12.04-20.89-53.56c-3.07-7.87.82-16.73,8.69-19.8s16.73.82,19.8,8.69c.34.87.61,1.84.78,2.73Z"/>
        <path class="cls-1" d="M515.71,225.14l-.32-1.69-10.62-56.49c-.17-.89-.44-1.86-.78-2.73-3.07-7.87-11.93-11.76-19.8-8.69-7.87,3.07-11.76,11.93-8.69,19.8l17.8,45.64-23.82,10.57c2.93,3.87,5.04,8.13,6.4,12.74l33.28-8.8c4.5-1.2,7.41-5.7,6.54-10.36Z"/>
        <g>
          <path class="cls-24" d="M415.52,248.44c-.12,1.69,8.36,2.8,8.36,2.8,0,0-14.4,8.64-13.38,10.61.04.08.1.14.18.19.57-.03,1.15-.04,1.72-.04,3.4-.97,10-5.29,10-5.29,0,0-2.16,1.61-4.43,3.57,2.01-.38,4.06-.44,6.12-.28.28-.26.45-.41.45-.41,0,0-.15.15-.41.41,3,.24,6.01.94,8.93,1.75,3.83-3.66,9.33-9.34,9.33-9.34l-8.54-5.21s-18.12-1.63-18.33,1.22Z"/>
          <path class="cls-24" d="M422.66,262.83c-.09,1.21.92,2.3,2.11,2.66,1.19.36,2.49.12,3.66-.3,2.62-.94,4.88-2.78,6.28-5.12.95-1.58,1.46-3.71.31-5.17-.97-1.23-2.75-1.5-4.35-1.52-3.8-.05-11.1.72-13.32,4.31-1.91,3.08,2.45,8.51,5.3,5.13Z"/>
        </g>
        <g>
          <path class="cls-24" d="M333.24,116.49c-1.57-.16-2.85,7.65-2.85,7.65,0,0-7.58-13.58-9.44-12.7-.07.04-.13.09-.18.16,0,.53,0,1.06-.01,1.59.8,3.17,4.6,9.41,4.6,9.41,0,0-1.42-2.05-3.18-4.21.29,1.87.29,3.77.07,5.67.23.27.37.43.37.43,0,0-.14-.15-.37-.39-.31,2.76-1.06,5.53-1.9,8.21,3.28,3.65,8.38,8.91,8.38,8.91l4.87-3.93s2.28-20.53-.36-20.81Z"/>
          <path class="cls-24" d="M319.67,122.66c-1.12-.12-2.16.79-2.53,1.88-.37,1.09-.18,2.3.17,3.39.79,2.45,2.43,4.6,4.56,5.96,1.44.93,3.4,1.46,4.78.44,1.17-.86,1.47-2.5,1.54-3.98.16-3.52-.33-10.29-3.6-12.45-2.8-1.86-7.97,2-4.92,4.75Z"/>
        </g>
        <path class="cls-3" d="M420.41,268.42c-5.59-1.77-11.49-3.24-17.4-4.72-.49,0-1.48.49-2.46.98-8.37,6.4-16.25,11.81-24.61,17.72-11.81,8.86-22.64,16.74-34.46,25.6-3.94,2.95-7.88,5.42-11.81,7.88"/>
        <path class="cls-3" d="M483.62,285.07c-10.47-2.6-20.75-6.05-31.34-8.17"/>
        <path class="cls-28" d="M435.71,314.22c-5.37-22.76,7.41-47.03,26.47-60.58,19.06-13.56,43.15-18.06,66.52-18.93l-24.62,79.46-68.37.05Z"/>
        <path class="cls-20" d="M467.82,255.39H188.99c-3.33,0-6.06-2.18-6.06-4.84h0c0-2.66,2.73-4.84,6.06-4.84h278.83c3.33,0,6.06,2.18,6.06,4.84h0c0,2.66-2.73,4.84-6.06,4.84Z"/>
        <path class="cls-24" d="M446.88,150.78c3.27-3.97,4.96-9.73,5.06-15.06l10.6-5.85c-2.44,9.19,1.16,20.62,7,24.06-.49.64-1.03,1.23-1.63,1.78-3.65,3.39-9.03,5.04-13.78,4.91-4.5-.12-9.13-1.73-12.47-4.91-.39-.38-.77-.77-1.12-1.19,2.38-.51,4.58-1.59,6.34-3.73Z"/>
        <path class="cls-29" d="M457.91,134.75c-.72,3.14-3.48,5.53-6.5,5.86.39-1.96.56-3.94.53-5.86h5.97Z"/>
        <path class="cls-24" d="M449.4,136.71c.96.38,1.99.62,3.07.69.77.05,1.52,0,2.25-.12.74-.12,1.45-.32,2.12-.59,3.47-1.41,6.03-4.71,6.28-8.68l.34-5.36.58-9.17c.17-2.76-.8-5.33-2.5-7.26-1.7-1.93-4.14-3.22-6.89-3.39-4.85-.31-9.15,2.93-10.34,7.46-.17.62-.28,1.27-.31,1.93l-.76,12.05-.15,2.47c-.28,4.43,2.4,8.4,6.32,9.96Z"/>
        <line class="cls-6" x1="475.51" y1="175.34" x2="483" y2="194.94"/>
        <line class="cls-6" x1="416.96" y1="168.14" x2="419.87" y2="187.79"/>
        <polyline class="cls-9" points="425.07 425.13 441.45 319.78 502.34 319.49 520.72 423.96"/>
        <rect class="cls-29" x="389.46" y="313.7" width="123.5" height="6.36" rx="2.79" ry="2.79" transform="translate(902.42 633.77) rotate(180)"/>
        <path class="cls-27" d="M455.23,125.48v1.01c0,2.29-1.87,4.16-4.16,4.16s-4.16-1.87-4.16-4.16v-1.01h8.33Z"/>
        <path class="cls-29" d="M443.23,124.28c1.56-.07,3.08-.64,4.27-1.63,1.63-1.36,2.3-3.19,2.22-5.29.25,3.05,2.36,5.89,5.22,6.99,2.85,1.09,6.29.39,8.51-1.69l.58-9.17c.17-2.76-.8-5.33-2.5-7.26-1.7-1.93-4.14-3.22-6.89-3.39-4.85-.31-9.15,2.93-10.34,7.46-.17.62-.28,1.27-.31,1.93l-.76,12.05Z"/>
      </g>
    </g>
  </g>
  <path class="cls-6" d="M325.98,121.46s3.02,6.03.57,9.05"/>
  <path class="cls-12" d="M58.86,425.44c183.78,0,367.04,0,551,0"/>
  <g>
    <path class="cls-23" d="M317.4,245.09l12.2-41.82c1.29-4.43-1.98-8.88-6.52-8.88h-66.34c-2.75,0-5.23,1.68-6.29,4.27l-17.9,45.72"/>
    <path class="cls-29" d="M201.4,246.27h114.75c1.03,0,1.87-.84,1.87-1.87h0c0-1.03-.84-1.87-1.87-1.87h-114.75c-1.03,0-1.87.84-1.87,1.87h0c0,1.03.84,1.87,1.87,1.87Z"/>
    <path class="cls-5" d="M294.39,223.31c-1.51,6-5.64,10.13-9.22,9.23-3.58-.9-5.25-6.5-3.74-12.5,1.51-6,5.64-10.13,9.22-9.23,3.58.9,5.25,6.5,3.74,12.5Z"/>
  </g>
  <g>
    <path class="cls-29" d="M352.62,246.43l-12.2-41.82c-1.29-4.43,1.98-8.88,6.52-8.88h66.34c2.75,0,5.23,1.68,6.29,4.27l17.9,45.72"/>
    <rect class="cls-29" x="351.99" y="243.86" width="118.5" height="3.75" rx="1.87" ry="1.87"/>
    <path class="cls-5" d="M375.63,224.65c1.51,6,5.64,10.13,9.22,9.23,3.58-.9,5.25-6.5,3.74-12.5-1.51-6-5.64-10.13-9.22-9.23-3.58.9-5.25,6.5-3.74,12.5Z"/>
  </g>
  <g>
    <path class="cls-29" d="M287.22,104.28h28.38v22.95c0,4.82-3.91,8.74-8.74,8.74h-11.61c-4.43,0-8.02-3.6-8.02-8.02v-23.66h0Z"/>
    <path class="cls-10" d="M321.87,127.73h-5.14c-4.75,0-8.63-3.89-8.63-8.63h0c0-4.75,3.89-8.63,8.63-8.63h5.14c4.75,0,8.63,3.89,8.63,8.63h0c0,4.75-3.89,8.63-8.63,8.63Z"/>
  </g>
  <g>
    <path class="cls-29" d="M214.13,213.8h11.61c4.82,0,8.74,3.91,8.74,8.74v22.95h-28.38v-23.66c0-4.43,3.6-8.02,8.02-8.02Z" transform="translate(440.59 459.29) rotate(180)"/>
    <path class="cls-10" d="M199.84,237.25h5.14c4.75,0,8.63-3.89,8.63-8.63h0c0-4.75-3.89-8.63-8.63-8.63h-5.14c-4.75,0-8.63,3.89-8.63,8.63h0c0,4.75,3.89,8.63,8.63,8.63Z"/>
  </g>
  <path class="cls-16" d="M65.1,315.33c0,3.65-2.96,6.6-6.6,6.6s-6.6-2.96-6.6-6.6,2.96-6.6,6.6-6.6,6.6,2.96,6.6,6.6Z"/>
  <path class="cls-16" d="M43.07,349.59c0,2.2-1.78,3.98-3.98,3.98s-3.98-1.78-3.98-3.98,1.78-3.98,3.98-3.98,3.98,1.78,3.98,3.98Z"/>
  <path class="cls-16" d="M149.02,5.07c0,2.8-2.27,5.07-5.07,5.07s-5.07-2.27-5.07-5.07,2.27-5.07,5.07-5.07,5.07,2.27,5.07,5.07Z"/>
  <path class="cls-16" d="M429.59,54.66c0,3.09-2.5,5.59-5.59,5.59s-5.59-2.5-5.59-5.59,2.5-5.59,5.59-5.59,5.59,2.5,5.59,5.59Z"/>
  <circle class="cls-16" cx="459.98" cy="72.83" r="10.42" transform="translate(305.19 512.06) rotate(-79.58)"/>
  <circle class="cls-16" cx="397.78" cy="127.75" r="2.89"/>
  <path class="cls-16" d="M644.61,211.42c0,2.51-2.03,4.54-4.54,4.54s-4.54-2.03-4.54-4.54,2.03-4.54,4.54-4.54,4.54,2.03,4.54,4.54Z"/>
  <circle class="cls-16" cx="680.63" cy="231.38" r="7.39" transform="translate(35.74 549.05) rotate(-45)"/>
  <path class="cls-16" d="M667.42,198.08c0,2.01-1.63,3.64-3.64,3.64s-3.64-1.63-3.64-3.64,1.63-3.64,3.64-3.64,3.64,1.63,3.64,3.64Z"/>
  <path class="cls-16" d="M687.76,312.8c0,1.97-1.6,3.57-3.57,3.57s-3.57-1.6-3.57-3.57,1.6-3.57,3.57-3.57,3.57,1.6,3.57,3.57Z"/>
  <circle class="cls-16" cx="415.24" cy="381.17" r="7.86" transform="translate(-114.64 188.98) rotate(-22.61)"/>
  <circle class="cls-16" cx="336.44" cy="364.47" r="11.54"/>
  <circle class="cls-16" cx="343.51" cy="336.73" r="3.76"/>
</svg>