<?xml version="1.0" encoding="UTF-8"?>
<svg xmlns="http://www.w3.org/2000/svg" width="696.46" height="442.38" viewBox="0 0 696.46 442.38">
  <defs>
    <style>
      .cls-1 {
        fill: #263238;
      }

      .cls-2 {
        opacity: .3;
      }

      .cls-3 {
        fill: #fff;
      }

      .cls-4 {
        fill: #e0e0e0;
      }

      .cls-5 {
        fill: #ae7461;
      }

      .cls-6 {
        fill: #455a64;
      }

      .cls-7 {
        fill: #6f4439;
      }

      .cls-8 {
        fill: #ffbf9d;
      }

      .cls-9 {
        fill: #ebebeb;
      }

      .cls-10 {
        fill: #ff9a6c;
      }

      .cls-11 {
        fill: #f5f5f5;
      }

      .cls-12 {
        fill: #ff725e;
      }
    </style>
  </defs>
  <g id="Background_Complete">
    <g>
      <path class="cls-9" d="M546.53,143.27c-6.37-6.34-9.56-15.38-9.56-27.14v-44.89h18.55v44.2c0,14.35,5.96,21.53,17.86,21.53,5.8,0,10.23-1.74,13.28-5.21,3.05-3.47,4.58-8.91,4.58-16.32v-44.2h18.32v44.89c0,11.76-3.19,20.8-9.56,27.14-6.37,6.34-15.29,9.5-26.74,9.5s-20.37-3.17-26.74-9.5Z"/>
      <path class="cls-9" d="M627.89,71.24h18.55v80.16h-18.55v-80.16Z"/>
    </g>
    <g>
      <path class="cls-9" d="M46.57,412.56c-6.11-6.07-9.16-14.73-9.16-25.99v-42.99h17.77v42.34c0,13.75,5.7,20.62,17.11,20.62,5.56,0,9.8-1.66,12.72-4.99,2.92-3.33,4.39-8.54,4.39-15.63v-42.34h17.55v42.99c0,11.26-3.05,19.92-9.16,25.99-6.11,6.07-14.64,9.1-25.61,9.1s-19.51-3.03-25.61-9.1Z"/>
      <path class="cls-9" d="M171.77,420.35l-18.54-26.65-18.21,26.65h-20.4l28.41-39.05-26.98-37.73h20.18l17.66,24.9,17.33-24.9h19.19l-26.76,37.07,28.63,39.7h-20.51Z"/>
    </g>
    <g>
      <path class="cls-11" d="M129.56,263.24c2.61-1.58,5.39-2.77,8.26-3.59l1.7-8.17,13.81-.24,1.99,8.11c2.89.71,5.71,1.81,8.38,3.3l6.98-4.58,9.94,9.59-4.33,7.13c1.58,2.61,2.77,5.39,3.59,8.26l8.17,1.7.24,13.81-8.11,1.99c-.71,2.89-1.81,5.71-3.3,8.38l4.57,6.98-9.59,9.94-7.14-4.33c-2.61,1.58-5.39,2.77-8.26,3.59l-1.7,8.17-13.81.24-1.99-8.11c-2.89-.71-5.71-1.81-8.38-3.3l-6.98,4.58-9.94-9.59,4.33-7.14c-1.58-2.61-2.78-5.39-3.59-8.26l-8.17-1.7-.24-13.81,8.11-1.99c.71-2.89,1.81-5.71,3.3-8.38l-4.57-6.98,9.59-9.94,7.14,4.33h0ZM136.92,281.63c-5.68,5.89-5.52,15.27.37,20.95,5.89,5.68,15.27,5.52,20.95-.37,5.68-5.89,5.52-15.27-.37-20.95-5.89-5.68-15.27-5.52-20.95.37Z"/>
      <path class="cls-9" d="M201.38,305.27c1.24-.75,2.55-1.31,3.91-1.7l.81-3.87,6.54-.11.94,3.84c1.37.34,2.7.86,3.97,1.56l3.3-2.17,4.7,4.54-2.05,3.38c.75,1.24,1.31,2.55,1.7,3.91l3.87.8.11,6.54-3.84.94c-.34,1.37-.86,2.7-1.56,3.97l2.16,3.3-4.54,4.7-3.38-2.05c-1.24.75-2.55,1.31-3.91,1.7l-.81,3.87-6.54.11-.94-3.84c-1.37-.34-2.7-.86-3.97-1.56l-3.3,2.17-4.7-4.54,2.05-3.38c-.75-1.24-1.31-2.55-1.7-3.91l-3.87-.81-.11-6.54,3.84-.94c.34-1.37.86-2.7,1.56-3.97l-2.17-3.3,4.54-4.7,3.38,2.05h0ZM204.87,313.98c-2.69,2.79-2.61,7.23.17,9.92s7.23,2.61,9.92-.17c2.69-2.79,2.61-7.23-.17-9.92-2.79-2.69-7.23-2.61-9.92.17Z"/>
      <path class="cls-4" d="M70.16,299.04c.99-.6,2.04-1.05,3.12-1.36l.64-3.09,5.22-.09.75,3.07c1.09.27,2.16.68,3.17,1.25l2.64-1.73,3.76,3.63-1.64,2.7c.6.99,1.05,2.04,1.36,3.12l3.09.64.09,5.22-3.07.75c-.27,1.09-.68,2.16-1.25,3.17l1.73,2.64-3.63,3.76-2.7-1.64c-.99.6-2.04,1.05-3.12,1.36l-.64,3.09-5.22.09-.75-3.07c-1.09-.27-2.16-.69-3.17-1.25l-2.64,1.73-3.76-3.63,1.64-2.7c-.6-.99-1.05-2.04-1.36-3.12l-3.09-.64-.09-5.22,3.07-.75c.27-1.09.69-2.16,1.25-3.17l-1.73-2.64,3.63-3.76,2.7,1.64h0ZM72.95,306c-2.15,2.23-2.09,5.77.14,7.92,2.23,2.15,5.77,2.09,7.92-.14,2.15-2.23,2.09-5.77-.14-7.92-2.23-2.15-5.77-2.09-7.92.14Z"/>
    </g>
    <g>
      <path class="cls-11" d="M416.22,12.01c2.61-1.58,5.39-2.77,8.26-3.59l1.7-8.17,13.81-.24,1.99,8.11c2.89.71,5.71,1.81,8.38,3.3l6.98-4.58,9.94,9.59-4.33,7.13c1.58,2.61,2.77,5.39,3.59,8.26l8.17,1.7.24,13.81-8.11,1.99c-.71,2.89-1.81,5.71-3.3,8.38l4.57,6.98-9.59,9.94-7.14-4.33c-2.61,1.58-5.39,2.77-8.26,3.59l-1.7,8.17-13.81.24-1.99-8.11c-2.89-.71-5.71-1.81-8.38-3.3l-6.98,4.58-9.94-9.59,4.33-7.13c-1.58-2.61-2.77-5.39-3.59-8.26l-8.17-1.7-.24-13.81,8.11-1.99c.71-2.89,1.81-5.71,3.3-8.38l-4.57-6.98,9.59-9.94,7.14,4.33h0ZM423.59,30.4c-5.68,5.89-5.52,15.27.37,20.95,5.89,5.68,15.27,5.52,20.95-.37,5.68-5.89,5.52-15.27-.37-20.95-5.89-5.68-15.27-5.52-20.95.37Z"/>
      <path class="cls-11" d="M491.33,45.6c1.26-.76,2.61-1.34,4-1.74l.82-3.96,6.68-.12.96,3.92c1.4.35,2.77.88,4.06,1.6l3.38-2.21,4.81,4.64-2.09,3.45c.76,1.26,1.34,2.61,1.74,4l3.96.82.12,6.68-3.92.96c-.35,1.4-.88,2.76-1.6,4.05l2.21,3.38-4.64,4.81-3.45-2.09c-1.26.76-2.61,1.34-4,1.74l-.82,3.96-6.68.12-.96-3.92c-1.4-.35-2.77-.88-4.05-1.6l-3.38,2.21-4.81-4.64,2.09-3.45c-.76-1.26-1.34-2.61-1.74-4l-3.96-.82-.12-6.68,3.92-.96c.35-1.4.88-2.77,1.6-4.05l-2.21-3.38,4.64-4.81,3.45,2.09h0ZM494.89,54.5c-2.75,2.85-2.67,7.39.18,10.14,2.85,2.75,7.39,2.67,10.14-.18,2.75-2.85,2.67-7.39-.18-10.14-2.85-2.75-7.39-2.67-10.14.18Z"/>
    </g>
  </g>
  <g id="Device">
    <g>
      <g>
        <rect class="cls-4" x="221.52" y="15.4" width="217.39" height="426.82" rx="41.37" ry="41.37"/>
        <path class="cls-1" d="M397.55,442.22s1.06-.07,3.14-.18c1.04,0,2.31-.26,3.83-.49.38-.06.78-.12,1.19-.18.41-.07.82-.2,1.25-.31.86-.22,1.78-.46,2.76-.72,3.84-1.25,8.5-3.3,13.18-6.94.3-.22.59-.45.9-.67.28-.25.56-.51.84-.77.57-.52,1.15-1.04,1.73-1.58.6-.52,1.1-1.17,1.67-1.77.54-.62,1.15-1.2,1.65-1.89,1-1.38,2.13-2.73,3.01-4.32.45-.79.99-1.54,1.38-2.39.4-.84.81-1.69,1.23-2.56.44-.86.69-1.8,1.05-2.72.17-.46.34-.93.51-1.4.17-.47.26-.97.4-1.46.24-.98.53-1.97.74-2.99.16-1.03.31-2.07.47-3.12.44-4.24.28-8.73.31-13.42,0-9.37-.01-19.55-.02-30.49-.01-21.88-.02-46.79-.04-74.32-.02-55.07-.03-120.65-.06-193.46,0-9.1,0-18.32,0-27.64,0-2.33,0-4.67,0-7.01.04-2.35-.09-4.68-.24-7.02-.5-4.66-1.84-9.25-3.89-13.51-4.1-8.52-11.28-15.72-20.14-19.61-4.41-1.97-9.19-3.16-14.05-3.49-2.43-.17-4.89-.14-7.36-.14-2.46,0-4.94,0-7.41,0-39.62,0-80.64,0-122.65,0-5.22.02-10.42,1.01-15.24,2.94-4.82,1.92-9.24,4.77-12.99,8.31-3.75,3.54-6.81,7.77-8.98,12.4-2.18,4.63-3.46,9.66-3.79,14.73-.18,2.53-.13,5.09-.14,7.64,0,2.55,0,5.09,0,7.63,0,5.08,0,10.14,0,15.17,0,10.08,0,20.07,0,29.98,0,39.63-.01,77.85-.02,114.27,0,36.41-.02,71.01-.02,103.4,0,16.19-.01,31.83-.01,46.86,0,7.51,0,14.88,0,22.08.04.9.09,1.79.13,2.68l.07,1.33.2,1.32c.13.88.27,1.75.4,2.62.19.86.43,1.71.64,2.56.36,1.72,1.09,3.32,1.65,4.96.31.81.73,1.57,1.09,2.35.39.77.71,1.57,1.19,2.29,3.44,5.91,8.13,10.96,13.68,14.4,5.51,3.49,11.67,5.6,17.81,6.26,1.54.09,3.07.18,4.59.23,1.53,0,3.05,0,4.55,0,3.01,0,5.98,0,8.9,0,5.84,0,11.5,0,16.97.01,21.87.02,40.72.03,56.12.04,15.4.02,27.35.04,35.46.05,4.05.01,7.14.02,9.22.03,2.08,0,3.14.03,3.14.03,0,0-1.06.02-3.14.03-2.08,0-5.17.01-9.22.03-8.11.01-20.07.03-35.46.05-15.4.01-34.24.03-56.12.04-5.47,0-11.13,0-16.97.01-2.92,0-5.89,0-8.9,0-1.51,0-3.02,0-4.55,0-1.53-.05-3.08-.14-4.63-.23-6.19-.66-12.41-2.78-17.96-6.29-5.6-3.46-10.34-8.55-13.81-14.51-.48-.72-.81-1.53-1.2-2.31-.36-.79-.79-1.55-1.1-2.37-.57-1.65-1.3-3.27-1.67-5-.21-.86-.46-1.71-.65-2.58-.13-.88-.27-1.76-.41-2.65l-.2-1.33-.07-1.35c-.05-.9-.09-1.8-.14-2.7,0-7.21-.01-14.57-.02-22.09,0-15.03,0-30.67-.02-46.86,0-32.38-.02-66.98-.02-103.4,0-36.41,0-74.64-.02-114.27,0-9.91,0-19.9,0-29.98,0-5.04,0-10.1,0-15.17,0-2.54,0-5.08,0-7.63,0-2.55-.05-5.1.14-7.67.34-5.13,1.63-10.22,3.84-14.91,2.2-4.69,5.3-8.98,9.09-12.56,3.79-3.59,8.27-6.47,13.15-8.41,4.88-1.95,10.14-2.96,15.43-2.98,42.01,0,83.03,0,122.65,0,2.48,0,4.95,0,7.41,0,2.46,0,4.92-.03,7.39.14,4.92.34,9.76,1.54,14.22,3.54,8.98,3.94,16.24,11.23,20.38,19.85,2.08,4.31,3.43,8.95,3.94,13.67.15,2.36.28,4.73.24,7.07,0,2.34,0,4.68,0,7.01,0,9.32,0,18.54,0,27.64-.02,72.81-.04,138.39-.06,193.46-.01,27.54-.03,52.45-.04,74.32,0,10.94-.01,21.12-.02,30.49-.03,4.68.12,9.17-.33,13.44-.16,1.06-.32,2.11-.48,3.14-.21,1.02-.5,2.01-.75,3-.14.49-.23.99-.4,1.46-.17.47-.35.94-.52,1.41-.37.92-.63,1.87-1.07,2.73-.42.87-.83,1.73-1.24,2.57-.39.85-.94,1.6-1.39,2.39-.88,1.6-2.02,2.96-3.03,4.34-.5.69-1.12,1.27-1.66,1.9-.57.6-1.07,1.25-1.68,1.77-.59.54-1.17,1.06-1.74,1.58-.29.26-.57.51-.85.77-.3.23-.6.45-.9.67-4.7,3.65-9.39,5.68-13.24,6.92-.98.25-1.91.49-2.77.71-.43.1-.85.23-1.26.3-.41.06-.81.12-1.19.18-1.53.21-2.8.47-3.84.46-2.08.1-3.14.13-3.14.13Z"/>
      </g>
      <rect class="cls-3" x="231.48" y="25.67" width="196.02" height="403.07" rx="33.43" ry="33.43"/>
      <g class="cls-2">
        <path d="M438.91,406.32l-21.47-54.88c-.57-1.45.5-3.02,2.06-3.02h19.4v57.9Z"/>
      </g>
      <path class="cls-12" d="M400.68,129.14c0-.09,1.4.04,3.9-.65,1.24-.37,2.75-.96,4.3-2.05,1.55-1.08,3.12-2.65,4.34-4.78.6-1.06,1.12-2.26,1.43-3.58.19-.65.27-1.34.38-2.04.04-.71.1-1.42.08-2.18,0-1.51-.01-3.08-.02-4.72-.03-1.63.04-3.36-.09-5.07-.35-3.43-2.05-6.99-5.05-9.51-1.49-1.26-3.29-2.25-5.27-2.81-1.99-.6-4.1-.58-6.34-.56-35.48.04-84.46.09-138.57.15-3.27.02-6.49,1.16-8.99,3.21-2.49,2.06-4.23,4.94-4.89,8.05-.32,1.56-.3,3.14-.3,4.8,0,1.64,0,3.26,0,4.89.02,1.64-.08,3.22.24,4.74.29,1.52.82,2.99,1.56,4.34,1.51,2.69,3.89,4.83,6.65,6.06,1.39.6,2.86.98,4.35,1.14,1.47.11,3.05.06,4.58.07,6.14,0,12.15.01,18.01.02,23.45.04,44.56.08,62.3.11,17.73.07,32.07.13,42,.17,4.95.04,8.8.08,11.42.1,1.3.02,2.29.04,2.97.05.33.01.58.02.76.03.17,0,.25.02.25.03s-.09.02-.25.03c-.18,0-.43.02-.76.03-.68.01-1.67.03-2.97.05-2.62.02-6.47.06-11.42.1-9.93.04-24.27.1-42,.17-17.74.03-38.85.07-62.3.11-5.86,0-11.87.01-18.01.02-1.54-.01-3.05.05-4.67-.07-1.59-.17-3.17-.57-4.66-1.22-2.96-1.31-5.52-3.6-7.14-6.48-.8-1.44-1.37-3.02-1.68-4.66l-.19-1.24-.06-1.25c-.03-.83,0-1.62-.01-2.44,0-1.62,0-3.25,0-4.89,0-1.61-.03-3.33.32-5.01.71-3.34,2.58-6.44,5.24-8.65,2.68-2.2,6.14-3.43,9.65-3.45,54.11.06,103.1.11,138.57.15,1.11.02,2.19-.03,3.31.06,1.11.06,2.19.27,3.22.56,2.08.6,3.96,1.64,5.5,2.97,3.13,2.66,4.87,6.39,5.2,9.96.13,1.81.04,3.48.05,5.12,0,1.64-.01,3.21-.02,4.72.07,3.05-.75,5.86-2.03,8.01-1.28,2.17-2.92,3.76-4.52,4.83-1.6,1.08-3.16,1.65-4.42,1.99-.32.08-.62.15-.9.22-.28.06-.55.08-.8.12-.49.07-.91.12-1.25.11-.33,0-.58,0-.76.01-.17,0-.26,0-.26-.01Z"/>
      <g>
        <path class="cls-12" d="M381.44,57.82s-.33.05-.88.21c-.54.16-1.32.54-1.91,1.35-.6.79-.92,2.06-.45,3.29.43,1.22,1.73,2.26,3.24,2.25,1.51.01,2.82-1.03,3.24-2.25.47-1.23.14-2.51-.46-3.29-.59-.81-1.37-1.19-1.91-1.35-.55-.16-.88-.17-.88-.21,0-.02.33-.09.93.02.58.11,1.46.46,2.16,1.32.7.84,1.12,2.27.61,3.68-.46,1.4-1.95,2.62-3.7,2.61-1.74.02-3.23-1.21-3.69-2.61-.51-1.41-.08-2.85.61-3.68.7-.87,1.57-1.22,2.16-1.32.6-.11.93-.04.93-.02Z"/>
        <path class="cls-12" d="M392.02,57.82s-.33.05-.88.21c-.54.16-1.32.54-1.91,1.35-.6.79-.92,2.06-.45,3.29.43,1.22,1.73,2.26,3.24,2.25,1.51.01,2.82-1.03,3.24-2.25.47-1.23.14-2.51-.46-3.29-.59-.81-1.37-1.19-1.91-1.35-.55-.16-.88-.17-.88-.21,0-.02.33-.09.93.02.58.11,1.46.46,2.16,1.32.7.84,1.12,2.27.61,3.68-.46,1.4-1.95,2.62-3.7,2.61-1.74.02-3.23-1.21-3.69-2.61-.51-1.41-.08-2.85.61-3.68.7-.87,1.57-1.22,2.16-1.32.6-.11.93-.04.93-.02Z"/>
        <path class="cls-12" d="M402.6,57.82s-.33.05-.88.21c-.54.16-1.32.54-1.91,1.35-.6.79-.92,2.06-.45,3.29.43,1.22,1.73,2.26,3.24,2.25,1.51.01,2.82-1.03,3.24-2.25.47-1.23.14-2.51-.46-3.29-.59-.81-1.37-1.19-1.91-1.35-.55-.16-.88-.17-.88-.21,0-.02.33-.09.93.02.58.11,1.46.46,2.16,1.32.7.84,1.12,2.27.61,3.68-.46,1.4-1.95,2.62-3.7,2.61-1.74.02-3.23-1.21-3.69-2.61-.51-1.41-.08-2.85.61-3.68.7-.87,1.57-1.22,2.16-1.32.6-.11.93-.04.93-.02Z"/>
      </g>
      <path class="cls-12" d="M256.36,56.04c-1.48,1.53-2.97,3.06-4.45,4.58-.44.45-.53,1.33,0,1.77,1.48,1.23,2.97,2.45,4.45,3.68.52.43,1.26.51,1.77,0,.44-.44.52-1.34,0-1.77-1.48-1.23-2.97-2.45-4.45-3.68v1.77c1.48-1.53,2.97-3.06,4.45-4.58.47-.48.48-1.29,0-1.77-.47-.47-1.3-.49-1.77,0h0Z"/>
      <g>
        <path class="cls-12" d="M268.04,109.57c-.02,1.37-.86,2.65-2.17,3.12-1.33.48-2.85.07-3.74-1.03-.87-1.07-.96-2.61-.26-3.79.7-1.17,2.1-1.81,3.44-1.56,1.58.29,2.71,1.67,2.73,3.27.01.8,1.26.81,1.25,0-.03-1.91-1.2-3.61-2.99-4.29-1.77-.67-3.89-.11-5.09,1.36-1.21,1.48-1.41,3.61-.42,5.26.99,1.65,2.92,2.49,4.8,2.15,2.14-.39,3.67-2.34,3.7-4.49.01-.8-1.24-.81-1.25,0Z"/>
        <path class="cls-12" d="M266.96,112.9c.5.55.99,1.1,1.49,1.65.07.08.14.16.21.24.22.24.66.24.88,0,.24-.26.23-.62,0-.88-.5-.55-.99-1.1-1.49-1.65-.07-.08-.14-.16-.21-.24-.22-.24-.66-.24-.88,0-.24.26-.23.62,0,.88h0Z"/>
      </g>
      <path class="cls-12" d="M264.5,162.89c-.01-.12.95-.03,2.47-.65.75-.31,1.62-.81,2.43-1.62.81-.8,1.53-1.93,1.88-3.31.36-1.37.29-3-.36-4.52-.66-1.51-1.93-2.9-3.64-3.63-.85-.37-1.79-.57-2.75-.57-1.03,0-2.09,0-3.16.01-2.15,0-4.37,0-6.65.01-2.13,0-4.15,1.02-5.39,2.6-1.26,1.57-1.73,3.61-1.42,5.43.29,1.83,1.32,3.41,2.63,4.41.65.51,1.37.88,2.11,1.12.74.24,1.47.33,2.19.35,2.99.05,5.41.1,7.08.17,1.67.06,2.59.13,2.59.2s-.92.14-2.59.2c-1.67.06-4.09.12-7.08.17-.77,0-1.61-.08-2.43-.32-.82-.25-1.64-.65-2.39-1.2-1.5-1.09-2.7-2.86-3.06-4.94-.37-2.06.14-4.42,1.57-6.22,1.4-1.82,3.74-3,6.19-3,2.28,0,4.5,0,6.65.01,1.08,0,2.13,0,3.17.01,1.1,0,2.18.25,3.14.69,1.93.86,3.34,2.46,4.05,4.17.69,1.73.72,3.55.27,5.05-.43,1.51-1.28,2.71-2.19,3.54-.92.83-1.88,1.31-2.7,1.58-.82.27-1.49.32-1.93.34-.45-.01-.68-.03-.68-.07Z"/>
      <path class="cls-12" d="M407.53,162.89c-.01-.12.95-.03,2.47-.65.75-.31,1.62-.81,2.43-1.62.81-.8,1.53-1.93,1.88-3.31.36-1.37.29-3-.36-4.52-.66-1.51-1.93-2.9-3.64-3.63-.85-.37-1.79-.57-2.75-.57-1.03,0-2.09,0-3.16.01-2.15,0-4.37,0-6.65.01-2.13,0-4.15,1.02-5.39,2.6-1.26,1.57-1.73,3.61-1.42,5.43.29,1.83,1.32,3.41,2.63,4.41.65.51,1.37.88,2.11,1.12.74.24,1.47.33,2.19.35,2.99.05,5.4.1,7.08.17s2.59.13,2.59.2-.92.14-2.59.2-4.09.12-7.08.17c-.77,0-1.61-.08-2.43-.32-.82-.25-1.64-.65-2.39-1.2-1.5-1.09-2.7-2.86-3.06-4.94-.37-2.06.14-4.42,1.57-6.22,1.4-1.82,3.74-3,6.19-3,2.28,0,4.5,0,6.65.01,1.08,0,2.13,0,3.17.01,1.1,0,2.18.25,3.14.69,1.93.86,3.34,2.46,4.05,4.17.69,1.73.72,3.55.27,5.05-.43,1.51-1.28,2.71-2.19,3.54-.92.83-1.88,1.31-2.7,1.58-.82.27-1.49.32-1.93.34-.45-.01-.68-.03-.68-.07Z"/>
      <path class="cls-12" d="M329.26,162.89c0-.06.45-.04,1.27-.22.81-.18,2.02-.56,3.23-1.57,1.19-.99,2.36-2.68,2.57-4.89.09-1.09-.07-2.29-.54-3.43-.49-1.13-1.31-2.21-2.43-3-1.11-.8-2.52-1.27-4.01-1.29-1.57,0-3.2.02-4.89.03-3.39.02-7,.03-10.8.05-7.61.01-15.98.03-24.76.04-2.05,0-4.03.96-5.3,2.49-1.28,1.53-1.81,3.6-1.49,5.5.3,1.91,1.43,3.62,2.98,4.64.77.51,1.64.86,2.54,1.03.45.09.89.11,1.36.13.48,0,.96,0,1.44,0,7.6.04,14.45.08,20.22.11,5.73.07,10.38.13,13.63.17,1.58.04,2.82.07,3.71.1.85.03,1.29.07,1.29.11s-.44.07-1.29.1c-.88.02-2.12.06-3.71.1-3.25.04-7.9.1-13.63.17-5.77.03-12.62.07-20.22.11-.48,0-.95,0-1.44,0-.5,0-1.02-.04-1.53-.13-1.02-.19-2.02-.58-2.91-1.17-1.79-1.16-3.09-3.12-3.44-5.31-.37-2.18.23-4.56,1.7-6.33,1.46-1.76,3.74-2.88,6.1-2.87,8.78.01,17.14.03,24.76.04,3.8.02,7.42.03,10.8.05,1.69.01,3.33.02,4.9.03,1.66.03,3.22.59,4.43,1.49,1.23.89,2.1,2.09,2.61,3.34.5,1.26.64,2.56.51,3.74-.28,2.39-1.6,4.15-2.9,5.14-1.32,1.01-2.61,1.34-3.45,1.46-.43.06-.75.07-.97.05-.22,0-.33-.02-.33-.04Z"/>
      <path class="cls-12" d="M375.65,162.89s.34-.07.97-.18c.62-.11,1.55-.34,2.58-.96,1.01-.61,2.14-1.63,2.85-3.16.71-1.5.95-3.54.21-5.5-.71-1.95-2.49-3.76-4.87-4.33-.59-.16-1.2-.2-1.84-.21-.67,0-1.34,0-2.03.01-1.37,0-2.79.01-4.24.02-5.81.01-12.18.03-18.87.04-1.56.02-3.09.53-4.27,1.49-1.18.95-2.05,2.26-2.4,3.69-.37,1.42-.26,2.94.26,4.25.52,1.32,1.44,2.43,2.56,3.2.57.38,1.18.66,1.8.87.64.18,1.28.3,1.93.31,1.37.01,2.7.02,3.99.03,2.58.02,4.98.04,7.18.06,4.39.05,7.94.1,10.39.17,1.23.03,2.18.06,2.83.1.65.03.99.07.99.11s-.34.07-.99.1c-.65.03-1.6.07-2.83.1-2.45.06-6,.12-10.39.17-2.2.02-4.6.04-7.18.06-1.29,0-2.63.01-4.01.02-.73,0-1.47-.13-2.19-.33-.72-.23-1.41-.55-2.06-.97-1.28-.86-2.35-2.12-2.95-3.63-.6-1.5-.75-3.23-.33-4.87.39-1.64,1.38-3.16,2.74-4.25,1.36-1.1,3.13-1.7,4.92-1.72,6.69.01,13.07.03,18.87.04,1.45,0,2.86.01,4.24.02.69,0,1.36,0,2.03.01.69.02,1.4.08,2.05.27,2.67.68,4.61,2.75,5.35,4.92.78,2.19.45,4.41-.38,6.01-.82,1.63-2.07,2.67-3.17,3.26-1.11.6-2.1.78-2.75.82-.65.05-1,0-1-.03Z"/>
      <g>
        <path class="cls-12" d="M265.16,190.4s-.11.02-.32.03c-.22,0-.53.02-.94.03-.82.06-2.07.11-3.6.62-1.51.51-3.33,1.46-4.95,3.17-1.61,1.69-2.96,4.2-3.2,7.24.03,12.33.07,30.16.12,52.19,0,2.76.01,5.58.02,8.46,0,1.44,0,2.9,0,4.37.02,1.48-.06,2.97.19,4.39.45,2.88,1.94,5.66,4.25,7.63,2.28,1.99,5.33,3.16,8.48,3.15,12.96-.01,26.81-.03,41.38-.05,29.14-.01,61.18-.03,94.81-.04,4.06.08,8.07-1.85,10.44-5.09,1.2-1.59,2.04-3.45,2.36-5.41.33-1.93.17-4.02.21-6.06,0-8.19,0-16.26,0-24.19,0-7.93,0-15.72.01-23.35,0-3.81,0-7.59,0-11.32,0-.93.02-1.87-.01-2.78-.02-.89-.13-1.78-.33-2.65-.4-1.73-1.17-3.36-2.23-4.76-2.1-2.82-5.36-4.67-8.77-5.03-.85-.07-1.71-.1-2.6-.09-.88,0-1.76,0-2.64,0-1.75,0-3.49,0-5.22,0-6.9,0-13.61-.02-20.09-.03-12.96-.02-25.03-.04-36.05-.06-22.04-.07-39.87-.13-52.21-.17-6.16-.04-10.94-.08-14.19-.1-1.62-.02-2.85-.04-3.69-.05-.41-.01-.72-.02-.94-.03-.21,0-.32-.02-.32-.03,0,0,.11-.02.32-.03.22,0,.53-.01.94-.03.84-.01,2.08-.03,3.69-.05,3.25-.02,8.04-.06,14.19-.1,12.34-.04,30.17-.1,52.21-.17,11.02-.02,23.09-.04,36.05-.06,6.48,0,13.18-.02,20.09-.03,1.73,0,3.46,0,5.22,0,.88,0,1.75,0,2.64,0,.87-.01,1.78,0,2.7.09,3.66.38,7.17,2.36,9.44,5.39,1.14,1.5,1.97,3.26,2.4,5.12.22.93.33,1.89.36,2.85.03.95,0,1.86.02,2.8,0,3.73,0,7.51,0,11.32,0,7.63,0,15.42.01,23.35,0,7.93,0,16,0,24.19,0,1.02,0,2.05,0,3.08,0,1.01-.03,2.12-.22,3.17-.35,2.12-1.26,4.14-2.55,5.86-2.55,3.49-6.91,5.59-11.27,5.5-33.63-.01-65.67-.03-94.81-.04-14.57-.02-28.42-.03-41.38-.05-3.35,0-6.61-1.26-9.03-3.39-2.45-2.11-4.03-5.07-4.5-8.13-.15-.76-.15-1.54-.18-2.3,0-.74,0-1.48,0-2.22,0-1.47,0-2.93,0-4.37,0-2.88.01-5.7.02-8.46.07-22.05.05-39.87.22-52.22.28-3.14,1.71-5.71,3.38-7.42,1.68-1.73,3.56-2.67,5.11-3.16,1.57-.49,2.83-.51,3.66-.53.41,0,.72.02.94.02.21,0,.32.02.32.03Z"/>
        <path class="cls-12" d="M256.22,196.6c.14-.25,33.91,17.83,75.42,40.38,41.53,22.56,75.07,41.05,74.93,41.3-.14.25-33.9-17.83-75.43-40.39-41.51-22.55-75.06-41.05-74.92-41.3Z"/>
        <path class="cls-12" d="M408,199.35c.13.26-34.07,17.52-76.37,38.56-42.32,21.04-76.71,37.89-76.84,37.63-.13-.26,34.06-17.52,76.38-38.56,42.3-21.03,76.7-37.88,76.83-37.62Z"/>
      </g>
      <path class="cls-12" d="M296.22,315.02c0-.05.36-.05,1-.2.64-.15,1.59-.49,2.5-1.34.9-.83,1.72-2.24,1.67-3.99-.02-1.71-1.07-3.7-3.07-4.58-.49-.21-1.02-.36-1.58-.41-.54-.04-1.18-.01-1.8-.01-1.25,0-2.55.02-3.9.03-2.7.01-5.58.03-8.61.05-6.07.01-12.73.03-19.73.04-1.59,0-3.12.8-4.02,2.06-.92,1.25-1.15,2.91-.73,4.34.44,1.43,1.54,2.62,2.88,3.15.68.28,1.36.38,2.12.37.78,0,1.54,0,2.3,0,6.06.04,11.51.08,16.11.11,4.59.05,8.3.1,10.86.17,1.28.03,2.28.06,2.95.1s1.03.07,1.03.1-.35.07-1.03.1-1.67.07-2.95.1c-2.56.06-6.28.12-10.86.17-4.6.03-10.06.07-16.11.11-.76,0-1.53,0-2.3,0-.8.02-1.7-.1-2.49-.43-1.61-.64-2.94-2.05-3.48-3.78-.53-1.72-.25-3.73.86-5.24,1.07-1.53,2.94-2.5,4.86-2.5,7,.01,13.66.03,19.73.04,3.03.02,5.91.03,8.61.05,1.35.01,2.65.02,3.9.03.63.01,1.22,0,1.88.05.64.08,1.25.26,1.8.51,2.26,1.05,3.38,3.34,3.34,5.24,0,1.94-.98,3.46-1.98,4.3-1.02.86-2.06,1.15-2.73,1.25-.34.04-.6.05-.78.04-.18,0-.26-.02-.26-.04Z"/>
      <path class="cls-12" d="M319.65,398.89c0-.07.96,0,2.69-.44,1.69-.44,4.26-1.56,6.26-4.29.99-1.34,1.77-3.1,2.02-5.12.13-1,.09-2.08.09-3.21,0-1.13-.01-2.3-.02-3.51-.02-4.85-.05-10.37-.08-16.46-.02-6.1-.04-12.78-.06-19.95,0-.9,0-1.8,0-2.71,0-.91.01-1.85-.05-2.72-.14-1.78-.78-3.52-1.77-5.06-2.03-3.07-5.74-5.07-9.68-4.85-16.13.01-33.86.03-52.47.04-1.11.02-2.21.18-3.27.5-1.05.34-2.04.84-2.94,1.46-1.79,1.27-3.19,3.06-3.92,5.1-.84,2.02-.65,4.23-.68,6.48,0,2.23,0,4.45,0,6.64-.01,8.78-.02,17.24-.03,25.31,0,4.03,0,7.96,0,11.77.07,3.69,2.14,7.1,5.07,8.9,1.46.91,3.1,1.49,4.77,1.63.82.06,1.68.06,2.53.06.85,0,1.69,0,2.52,0,3.33.01,6.52.02,9.57.03,12.19.07,22.05.13,28.89.17,3.4.04,6.04.08,7.85.1.89.02,1.57.04,2.04.05.46.02.7.04.7.05s-.24.04-.7.05c-.48.01-1.16.03-2.04.05-1.81.02-4.46.06-7.85.1-6.84.04-16.7.1-28.89.17-3.05.01-6.24.02-9.57.03-.83,0-1.67,0-2.52,0-.85,0-1.7.01-2.61-.05-1.79-.15-3.57-.75-5.15-1.73-3.18-1.93-5.44-5.61-5.53-9.61-.01-3.83-.03-7.76-.04-11.8,0-8.07-.02-16.53-.03-25.31,0-2.19,0-4.41,0-6.64.01-1.13-.03-2.21.03-3.39.05-1.17.29-2.35.71-3.45.8-2.23,2.34-4.2,4.29-5.59.99-.68,2.07-1.23,3.23-1.61,1.16-.35,2.37-.53,3.58-.55,18.61.01,36.34.03,52.47.04,1-.02,2.08.06,3.09.27,1.01.24,2,.56,2.9,1.04,1.83.92,3.35,2.35,4.46,3.99,1.07,1.67,1.76,3.57,1.9,5.49.07.98.04,1.88.04,2.79,0,.91,0,1.82,0,2.71-.02,7.17-.04,13.85-.06,19.95-.03,6.1-.05,11.61-.08,16.46,0,1.21-.01,2.38-.02,3.51,0,1.12.02,2.21-.13,3.27-.29,2.11-1.13,3.92-2.19,5.29-2.13,2.8-4.8,3.87-6.53,4.26-.88.2-1.58.26-2.04.26-.46,0-.7,0-.7-.02Z"/>
      <path class="cls-12" d="M335.31,370.31c-.06.05-1-.9-2.7-2.59-1.72-1.68-4.18-4.16-7.49-6.88-1.59-1.39-3.69-2.44-6.13-2.83-1.2-.19-2.5-.25-3.76-.04-1.26.22-2.51.74-3.68,1.46-2.36,1.45-4.27,3.73-5.97,6.28-.85,1.29-1.72,2.61-2.61,3.94-.91,1.32-1.86,2.7-3.16,3.85-1.26,1.15-3.01,2.02-4.8,1.82-1.8-.14-3.27-1.22-4.41-2.31-2.27-2.22-3.89-4.81-6.23-6.22-.57-.35-1.18-.6-1.8-.77-.62-.15-1.26-.19-1.89-.14-1.26.1-2.46.55-3.51,1.15-2.1,1.23-3.58,3.11-4.82,4.83-2.44,3.51-4.43,6.35-5.83,8.37-.7.98-1.25,1.74-1.63,2.25-.38.51-.6.76-.63.74-.03-.02.13-.32.45-.86.33-.55.82-1.34,1.46-2.36,1.3-2.03,3.17-4.96,5.56-8.57,1.23-1.77,2.71-3.76,4.99-5.15,1.13-.68,2.44-1.18,3.87-1.32.71-.07,1.46-.03,2.19.14.72.18,1.43.47,2.08.86,2.62,1.57,4.28,4.23,6.44,6.3,1.08,1.02,2.35,1.9,3.79,2.01,1.45.15,2.87-.53,4.02-1.57,1.17-1.04,2.09-2.35,3-3.66.89-1.33,1.76-2.64,2.62-3.93,1.74-2.58,3.77-4.99,6.31-6.52,1.26-.77,2.63-1.32,4.03-1.55,1.41-.22,2.77-.13,4.06.09,2.57.45,4.83,1.64,6.45,3.12,3.29,2.83,5.68,5.39,7.31,7.16.81.89,1.43,1.6,1.83,2.09.41.49.6.76.58.78Z"/>
      <path class="cls-12" d="M303.13,349.95c-.09,0-.1-.66-.43-1.77-.32-1.09-1.09-2.66-2.73-3.86-.81-.58-1.83-1.08-2.99-1.26-1.15-.18-2.44-.13-3.67.35-1.22.45-2.39,1.29-3.21,2.44-.85,1.14-1.32,2.59-1.34,4.1.01,1.5.49,2.96,1.34,4.1.82,1.15,1.99,1.99,3.21,2.44,1.22.48,2.51.53,3.67.35,1.16-.19,2.17-.68,2.99-1.26,1.64-1.2,2.41-2.77,2.73-3.86.33-1.11.33-1.77.43-1.77.05,0,.19.67-.04,1.87-.22,1.17-.93,2.94-2.68,4.34-.87.68-1.98,1.28-3.27,1.53-1.29.24-2.75.22-4.15-.29-1.4-.49-2.75-1.43-3.71-2.74-.98-1.3-1.54-2.98-1.56-4.7.01-1.73.57-3.4,1.56-4.7.96-1.31,2.3-2.25,3.71-2.74,1.4-.52,2.87-.54,4.15-.29,1.3.25,2.41.84,3.27,1.53,1.75,1.4,2.46,3.17,2.68,4.34.22,1.2.08,1.87.04,1.87Z"/>
      <path class="cls-12" d="M408.04,386.29c-.09,0-.1-.66-.43-1.77-.32-1.09-1.09-2.66-2.73-3.86-.81-.58-1.83-1.08-2.99-1.26-1.15-.18-2.44-.13-3.67.35-1.22.45-2.39,1.29-3.21,2.44-.85,1.14-1.32,2.59-1.34,4.1.01,1.5.49,2.96,1.34,4.1.82,1.15,1.99,1.99,3.21,2.44,1.22.48,2.51.53,3.67.35,1.16-.19,2.17-.68,2.99-1.26,1.64-1.2,2.41-2.77,2.73-3.86.33-1.11.33-1.77.43-1.77.05,0,.19.67-.04,1.87-.22,1.17-.93,2.94-2.68,4.34-.87.68-1.98,1.28-3.27,1.53-1.29.24-2.75.22-4.15-.29-1.4-.49-2.75-1.43-3.71-2.74-.98-1.3-1.54-2.98-1.56-4.7.01-1.73.57-3.4,1.56-4.7.96-1.31,2.3-2.25,3.71-2.74,1.4-.52,2.87-.54,4.15-.29,1.3.25,2.41.84,3.27,1.53,1.75,1.4,2.46,3.17,2.68,4.34.22,1.2.08,1.87.04,1.87Z"/>
      <path class="cls-12" d="M387.18,386.29c-.09,0-.1-.66-.43-1.77-.32-1.09-1.09-2.66-2.73-3.86-.81-.58-1.83-1.08-2.99-1.26-1.15-.18-2.44-.13-3.67.35-1.22.45-2.39,1.29-3.21,2.44-.85,1.14-1.32,2.59-1.34,4.1.01,1.5.49,2.96,1.34,4.1.82,1.15,1.99,1.99,3.21,2.44,1.22.48,2.51.53,3.67.35,1.16-.19,2.17-.68,2.99-1.26,1.64-1.2,2.41-2.77,2.73-3.86.33-1.11.33-1.77.43-1.77.05,0,.19.67-.04,1.87-.22,1.17-.93,2.94-2.68,4.34-.87.68-1.98,1.28-3.27,1.53-1.29.24-2.75.22-4.15-.29-1.4-.49-2.75-1.43-3.71-2.74-.98-1.3-1.54-2.98-1.56-4.7.01-1.73.57-3.4,1.56-4.7.96-1.31,2.3-2.25,3.71-2.74,1.4-.52,2.87-.54,4.15-.29,1.3.25,2.41.84,3.27,1.53,1.75,1.4,2.46,3.17,2.68,4.34.22,1.2.08,1.87.04,1.87Z"/>
      <path class="cls-12" d="M363.99,386.29c-.09,0-.1-.66-.43-1.77-.32-1.09-1.09-2.66-2.73-3.86-.81-.58-1.83-1.08-2.99-1.26-1.15-.18-2.44-.13-3.67.35-1.22.45-2.39,1.29-3.21,2.44-.85,1.14-1.32,2.59-1.34,4.1.01,1.5.49,2.96,1.34,4.1.82,1.15,1.99,1.99,3.21,2.44,1.22.48,2.51.53,3.67.35,1.16-.19,2.17-.68,2.99-1.26,1.64-1.2,2.41-2.77,2.73-3.86.33-1.11.33-1.77.43-1.77.05,0,.19.67-.04,1.87-.22,1.17-.93,2.94-2.68,4.34-.87.68-1.98,1.28-3.27,1.53-1.29.24-2.75.22-4.15-.29-1.4-.49-2.75-1.43-3.71-2.74-.98-1.3-1.54-2.98-1.56-4.7.01-1.73.57-3.4,1.56-4.7.96-1.31,2.3-2.25,3.71-2.74,1.4-.52,2.87-.54,4.15-.29,1.3.25,2.41.84,3.27,1.53,1.75,1.4,2.46,3.17,2.68,4.34.22,1.2.08,1.87.04,1.87Z"/>
      <path class="cls-12" d="M404.82,353.66c0-.06.51,0,1.33-.38.4-.19.87-.52,1.27-1.03.39-.51.69-1.23.68-2.07,0-.83-.36-1.76-1.12-2.41-.37-.33-.84-.59-1.36-.71-.26-.07-.53-.09-.81-.1-.3,0-.61,0-.92.01-2.5.02-5.35.05-8.49.08-12.59.09-29.97.15-49.18.15-1.03,0-2.02.56-2.54,1.43-.53.86-.57,1.99-.11,2.87.44.9,1.36,1.52,2.34,1.62,1.04.03,2.26.01,3.37.02,4.53.01,8.9.02,13.06.03,8.32.04,15.81.08,22.11.11,6.27.07,11.35.13,14.9.17,1.74.04,3.09.07,4.05.1.93.03,1.41.07,1.41.1s-.49.07-1.41.1c-.96.02-2.32.06-4.05.1-3.55.04-8.63.1-14.9.17-6.3.03-13.79.07-22.11.11-4.16,0-8.53.02-13.06.03-1.16,0-2.22.03-3.48-.02-1.32-.13-2.56-.97-3.16-2.17-.62-1.2-.57-2.72.15-3.88.69-1.18,2.04-1.94,3.43-1.93,19.2,0,36.59.06,49.18.15,3.14.03,5.99.05,8.49.08.31,0,.62,0,.92.01.32.01.64.04.95.13.61.16,1.14.47,1.56.86.85.78,1.22,1.86,1.19,2.78-.02.94-.39,1.72-.85,2.26-.46.54-.99.86-1.43,1.03-.45.17-.81.2-1.05.22-.24,0-.36-.02-.36-.03Z"/>
      <path class="cls-12" d="M404.82,368.11c0-.06.51,0,1.33-.38.4-.19.87-.52,1.27-1.03.39-.51.69-1.23.68-2.07,0-.83-.36-1.76-1.12-2.41-.37-.33-.84-.59-1.36-.71-.26-.07-.53-.09-.81-.1-.3,0-.61,0-.92.01-2.5.02-5.35.05-8.49.08-12.59.09-29.97.15-49.18.15-1.03,0-2.02.56-2.54,1.43-.53.86-.57,1.99-.11,2.87.44.9,1.36,1.52,2.34,1.62,1.04.03,2.26.01,3.37.02,4.53.01,8.9.02,13.06.03,8.32.04,15.81.08,22.11.11,6.27.07,11.35.13,14.9.17,1.74.04,3.09.07,4.05.1.93.03,1.41.07,1.41.1s-.49.07-1.41.1c-.96.02-2.32.06-4.05.1-3.55.04-8.63.1-14.9.17-6.3.03-13.79.07-22.11.11-4.16,0-8.53.02-13.06.03-1.16,0-2.22.03-3.48-.02-1.32-.13-2.56-.97-3.16-2.17-.62-1.2-.57-2.72.15-3.88.69-1.18,2.04-1.94,3.43-1.93,19.2,0,36.59.06,49.18.15,3.14.03,5.99.05,8.49.08.31,0,.62,0,.92.01.32.01.64.04.95.13.61.16,1.14.47,1.56.86.85.78,1.22,1.86,1.19,2.78-.02.94-.39,1.72-.85,2.26-.46.54-.99.86-1.43,1.03-.45.17-.81.2-1.05.22-.24,0-.36-.02-.36-.03Z"/>
      <path class="cls-12" d="M403.99,309.59c0,.29-17.91.52-40,.52s-40-.23-40-.52,17.91-.52,40-.52,40,.23,40,.52Z"/>
    </g>
  </g>
  <g id="Character_2">
    <g>
      <g>
        <circle class="cls-11" cx="579.99" cy="316.23" r="100.36" transform="translate(-53.74 502.74) rotate(-45)"/>
        <path class="cls-1" d="M479.62,316.23s0-.55.01-1.63c.01-.54.02-1.21.04-2.01.01-.8.03-1.72.12-2.77.22-4.19.88-10.39,2.76-18.15,1.01-3.86,2.24-8.14,4.08-12.64,1.8-4.51,4.03-9.32,6.96-14.18,5.8-9.73,14.12-19.92,25.49-28.62,5.66-4.36,12.1-8.28,19.2-11.51,7.09-3.23,14.85-5.83,23.13-7.33,8.26-1.53,17-2.14,25.94-1.46,4.47.26,8.97.98,13.48,1.87,4.51.96,9,2.25,13.45,3.83,17.76,6.41,34.64,18.41,46.8,35.06,3.08,4.12,5.77,8.58,8.21,13.2.58,1.17,1.23,2.31,1.75,3.52.54,1.2,1.08,2.4,1.63,3.6.97,2.45,1.98,4.9,2.78,7.44,1.65,5.05,3.02,10.24,3.84,15.57.84,5.32,1.28,10.74,1.32,16.19-.04,5.46-.47,10.88-1.31,16.2-.82,5.33-2.18,10.53-3.83,15.57-.8,2.54-1.81,4.99-2.78,7.44-1.08,2.4-2.14,4.81-3.38,7.12-2.43,4.63-5.13,9.08-8.21,13.21-12.16,16.66-29.04,28.66-46.8,35.07-4.46,1.58-8.95,2.87-13.46,3.83-4.52.89-9.01,1.61-13.49,1.87-8.93.69-17.68.08-25.94-1.46-8.28-1.5-16.03-4.1-23.13-7.33-7.1-3.24-13.54-7.15-19.2-11.51-11.37-8.7-19.7-18.89-25.49-28.62-2.93-4.86-5.16-9.67-6.96-14.18-1.84-4.5-3.07-8.78-4.08-12.64-1.88-7.76-2.54-13.96-2.76-18.15-.09-1.05-.11-1.97-.12-2.77-.01-.8-.03-1.46-.04-2.01-.02-1.08-.01-1.63-.01-1.63,0,0,.03.55.07,1.63.02.54.04,1.21.06,2,.02.8.04,1.72.15,2.77.25,4.19.94,10.37,2.85,18.11,1.02,3.85,2.27,8.11,4.11,12.6,1.81,4.49,4.04,9.28,6.98,14.12,5.8,9.69,14.12,19.83,25.46,28.48,5.65,4.34,12.07,8.23,19.14,11.44,7.07,3.21,14.8,5.79,23.04,7.27,8.23,1.52,16.93,2.12,25.83,1.42,4.45-.26,8.93-.99,13.42-1.88,4.48-.96,8.96-2.24,13.39-3.82,17.67-6.4,34.46-18.35,46.56-34.92,3.06-4.1,5.74-8.54,8.16-13.14,1.23-2.29,2.28-4.69,3.36-7.08.97-2.44,1.96-4.88,2.76-7.4,1.64-5.02,3-10.19,3.81-15.49.83-5.3,1.27-10.69,1.31-16.12-.04-5.43-.47-10.82-1.31-16.11-.81-5.3-2.17-10.47-3.81-15.49-.8-2.52-1.8-4.96-2.76-7.4-.54-1.2-1.08-2.39-1.62-3.58-.52-1.2-1.17-2.33-1.74-3.5-2.42-4.6-5.1-9.04-8.16-13.14-12.1-16.57-28.88-28.52-46.55-34.91-4.43-1.57-8.9-2.86-13.39-3.82-4.49-.89-8.97-1.61-13.42-1.88-8.89-.69-17.6-.1-25.82,1.42-8.24,1.48-15.97,4.06-23.04,7.27-7.07,3.21-13.49,7.1-19.14,11.44-11.34,8.65-19.66,18.79-25.47,28.48-2.94,4.84-5.17,9.63-6.98,14.12-1.85,4.48-3.09,8.75-4.12,12.6-1.91,7.74-2.6,13.92-2.85,18.11-.1,1.05-.13,1.97-.15,2.77-.03.79-.05,1.46-.06,2-.04,1.08-.07,1.63-.07,1.63Z"/>
      </g>
      <g>
        <path class="cls-8" d="M538.41,332.61l-5.09.22-18.32,39.76-28.97,14.44,1.38,14.91s35.67-6.58,44.56-11.56c8.89-4.98,20.23-37.32,20.23-37.32.06.23-12.05-20.46-12.05-20.46"/>
        <g>
          <path class="cls-8" d="M487.72,368.96l-3.71-3.9c-.72-.46-1.55-.69-2.4-.67l-11.77.36c-2.22.22-4.22,1.43-5.44,3.3l-4.28,7.28s-2.88,4.98-2.51,6.19c.55,1.83,2.48,1.46,2.48,1.46,0,0,.41,2.3,1.18,2.77,1.29.78,2.86.18,2.86.18.43.88,1.34,1.47,2.32,1.4.19-.01.4-.05.61-.11,1.4-.42,2.03-3.13,2.03-3.13l5.97-1.1s8.57,5.73,11.59,9.48,10.93.89,10.93.89l2.96-14.15-12.8-10.24Z"/>
          <path class="cls-10" d="M479.04,370.65c0,.08-.95.27-2.57.43-1.62.18-3.92.25-6.5.58l.28-.2c-.42.92-.94,1.87-1.53,2.82-1.83,2.92-3.98,5.2-5.66,6.69-1.69,1.49-2.9,2.18-2.95,2.11-.07-.09,1.03-.93,2.59-2.49,1.56-1.56,3.6-3.85,5.39-6.7.58-.92,1.09-1.84,1.51-2.72l.09-.18.19-.02c2.66-.3,4.94-.27,6.57-.32,1.62-.04,2.59-.06,2.6.03Z"/>
          <path class="cls-10" d="M479.32,376.26c.02.08-.79.38-2.22.59-1.42.21-3.47.27-5.76-.2l.42-.24c-.24.7-.52,1.42-.86,2.13-1.24,2.61-3,4.6-4.42,5.81-1.43,1.22-2.48,1.73-2.53,1.66-.07-.1.87-.76,2.17-2.04,1.3-1.28,2.91-3.24,4.11-5.75.33-.69.6-1.38.84-2.04l.11-.31.31.07c4.4.98,7.8.1,7.82.32Z"/>
          <g>
            <path class="cls-8" d="M494.25,379.16c-3.5-1.63-7-3.25-10.49-4.88-1.45-.68-2.97-1.37-4.57-1.36-1.72,0-3.33.82-4.86,1.61-1.88.97-3.76,1.95-5.65,2.92-.31.16-.64.35-.75.68-.14.43.17.87.49,1.19,2.82,2.86,7.89,3.06,10.93.45.91,2.46,1.84,4.98,3.54,6.99,1.7,2,4.33,3.42,6.91,2.95"/>
            <path class="cls-10" d="M489.81,389.71s-.09.05-.28.09c-.19.05-.48.09-.86.1-.75.02-1.89-.12-3.16-.77-1.26-.63-2.64-1.76-3.72-3.39-1.11-1.62-1.93-3.66-2.75-5.85l.52.14c-1.55,1.36-3.8,2.09-6.11,1.91-1.15-.09-2.32-.39-3.41-.95-.53-.3-1.05-.63-1.51-1.05-.23-.21-.47-.4-.68-.69-.2-.27-.41-.67-.3-1.14.09-.39.39-.64.63-.78.25-.15.46-.25.68-.37.44-.23.88-.45,1.31-.68.87-.45,1.72-.89,2.56-1.32,1.68-.83,3.27-1.81,5.06-2.2,1.81-.44,3.58.12,4.98.75,1.42.65,2.7,1.28,3.89,1.84,2.27,1.11,4.15,2.03,5.59,2.73,1.31.66,2.03,1.05,2.01,1.09-.02.05-.78-.25-2.13-.83-1.46-.65-3.38-1.49-5.68-2.51-1.21-.54-2.51-1.13-3.91-1.75-1.39-.59-2.97-1.06-4.59-.65-1.62.37-3.19,1.33-4.87,2.18-.84.44-1.69.88-2.55,1.33-.43.22-.87.45-1.31.68-.45.23-.91.45-.93.67-.09.27.32.75.75,1.1.41.38.89.68,1.37.95.98.51,2.06.8,3.12.89,2.13.18,4.2-.47,5.62-1.69l.36-.31.16.45c.78,2.2,1.56,4.2,2.58,5.78,1.01,1.59,2.26,2.69,3.45,3.34,2.42,1.32,4.14.79,4.11.92Z"/>
          </g>
        </g>
        <g>
          <path class="cls-1" d="M635.54,245.07c.65-8.12,2.48-16.14,2.72-24.29.24-8.15-1.32-16.75-6.6-22.97-5.27-6.21-14.97-9.11-21.92-4.85l-1.83,6.83c.48,31.53-2.04,63.37-1.55,94.89.06,4.14,3.15,8.1,4.78,11.91,1.62,3.81,5.18,7.11,9.32,7.13,5.42.03,9.33-5.2,11.36-10.22,7.35-18.22,2.16-38.85,3.73-58.43Z"/>
          <path class="cls-12" d="M618.85,201.58c-1.05-2.09-2.12-4.21-3.75-5.88-1.63-1.67-3.94-2.85-6.26-2.57-1.09.13-2.23.67-2.66,1.68-.43,1.01.25,2.45,1.35,2.43l.22.22c2.29,2.32,4.62,4.59,7,6.82.6.56,1.22,1.13,1.99,1.42.77.29,1.72.25,2.31-.33.97-.95.42-2.57-.19-3.78Z"/>
          <path class="cls-1" d="M622.9,209.88c-7.43-10.45-17.93-16.89-30.71-17.97-7.21-.61-10.3.69-15.59,1.74-5.29,1.05-10.17,3.52-13.57,7.71-4.04,4.98-7.53,10.62-8.66,16.93-1.16,6.48-1.09,12.9-.21,18.25,1.07,6.5,4.8,16.57,8.29,22.15l10.99,2.1c9.18.94,18.5,1.87,27.61.38,9.11-1.49,18.15-5.72,23.49-13.26,7.41-10.47,5.79-27.58-1.64-38.03Z"/>
          <g>
            <path class="cls-8" d="M608.08,208.76l-21.62-10.34-5.85.28c-13.06-.84-23.05,12.95-23.85,23.53-.89,11.75-1.52,26.12-.24,34.91,2.57,17.67,17.34,20.13,17.34,20.13,0,0-.93,9.26-1.44,15.1l34.19-.15,6.95-77.1c.11-3.22-2.27-5.98-5.47-6.36Z"/>
            <path class="cls-10" d="M582.92,254.84c-.06-.93-.51-1.77-1.13-2.37-1.23-1.2-3.12-1.44-4.58-.57-1.46.87-2.39,2.78-2.25,4.63h0c.71,1.13,1.86,1.93,3.17,2.14.2.03.41.05.62.06,1.01.04,2.05-.23,2.87-.92.82-.69,1.37-1.83,1.3-2.97Z"/>
            <g>
              <path class="cls-1" d="M560.43,238.29c-.06,1.19.91,2.23,2.15,2.31,1.24.08,2.3-.81,2.36-2.01.06-1.19-.91-2.23-2.15-2.31-1.25-.08-2.3.82-2.36,2.01Z"/>
              <path class="cls-1" d="M560.33,228.37c.28.3,2.01-.95,4.44-.91,2.43,0,4.2,1.28,4.47.98.13-.13-.15-.67-.92-1.24-.76-.57-2.06-1.14-3.57-1.15-1.52-.01-2.8.53-3.54,1.09-.76.56-1.02,1.09-.88,1.23Z"/>
              <path class="cls-1" d="M574.63,248.45c.01-.14-1.5-.42-3.94-.76-.62-.07-1.21-.2-1.31-.63-.14-.45.13-1.12.44-1.84.6-1.5,1.24-3.07,1.9-4.71,2.64-6.71,4.56-12.22,4.29-12.33-.27-.1-2.63,5.25-5.27,11.95-.64,1.65-1.24,3.23-1.82,4.74-.24.7-.66,1.5-.35,2.44.16.47.61.81,1.01.92.4.13.75.14,1.05.16,2.47.16,4,.2,4.01.06Z"/>
              <path class="cls-10" d="M573.82,277.25s11.86.92,23.7-6c0,0-6.45,12.14-24.08,10.27l.38-4.27Z"/>
              <path class="cls-1" d="M581.77,250.23c-.4-.03-.43,2.61-2.72,4.46-2.28,1.85-5.09,1.52-5.12,1.89-.04.17.62.52,1.81.57,1.17.05,2.87-.3,4.27-1.43,1.39-1.13,2.01-2.66,2.11-3.74.11-1.1-.17-1.76-.35-1.75Z"/>
              <path class="cls-1" d="M561.74,219.94c.4.6,2.27.23,4.45.44,2.18.14,3.97.81,4.46.28.22-.26-.01-.84-.76-1.45-.74-.6-2.01-1.17-3.51-1.29-1.5-.12-2.85.24-3.66.72-.83.48-1.14,1.02-.97,1.31Z"/>
              <path class="cls-1" d="M585.27,238.94c-.02,1.2-1.04,2.17-2.29,2.17-1.25,0-2.24-.96-2.23-2.15.02-1.2,1.05-2.17,2.29-2.17,1.25,0,2.25.96,2.23,2.16Z"/>
              <path class="cls-1" d="M593.22,229.66c-.29.28-1.94-1.07-4.37-1.19-2.43-.15-4.27,1.01-4.52.7-.12-.14.19-.66.99-1.18.79-.52,2.13-1.01,3.64-.92,1.51.09,2.76.71,3.46,1.31.72.61.95,1.16.8,1.28Z"/>
              <path class="cls-1" d="M592.29,221.79c-.51.53-2.35-.14-4.61-.28-2.25-.21-4.18.16-4.59-.44-.18-.29.15-.83,1.01-1.31.85-.48,2.25-.84,3.79-.72,1.55.12,2.87.69,3.62,1.3.77.61,1,1.19.78,1.45Z"/>
            </g>
            <g>
              <path class="cls-8" d="M608.52,244.45c.02-1.31,1.58-4.39,2.88-4.58,3.47-.5,9.71-.14,9.66,8.66-.08,12.03-12.14,9.47-12.15,9.12-.01-.27-.45-8.67-.38-13.21Z"/>
              <path class="cls-10" d="M612.25,253.29c.05-.04.21.15.56.31.34.16.94.27,1.57.04,1.27-.46,2.36-2.47,2.43-4.64.04-1.09-.18-2.14-.57-3-.36-.88-.93-1.5-1.57-1.62-.64-.15-1.09.23-1.24.57-.16.34-.09.58-.15.6-.03.03-.26-.2-.16-.7.05-.24.19-.52.48-.75.29-.23.71-.35,1.16-.3.93.07,1.76.93,2.18,1.88.47.95.75,2.13.7,3.36-.09,2.42-1.35,4.68-3.09,5.17-.85.21-1.55-.04-1.91-.33-.37-.3-.43-.57-.39-.59Z"/>
            </g>
          </g>
          <path class="cls-1" d="M611.89,239.94l-3.26,2.95c-12.29-13.47-35.83-46.71-34.52-44.73,0,0,9.25-3.09,18.91-.76,9.66,2.33,27.86,8.48,26.79,19.98-1.07,11.5-7.92,22.57-7.92,22.57Z"/>
          <path class="cls-6" d="M629.47,238.48s-.03-.25-.14-.71c-.11-.46-.33-1.12-.69-1.94-.73-1.63-2.17-3.88-4.62-5.97-2.41-2.15-5.82-3.99-9.75-5.53-3.92-1.58-8.37-2.9-12.67-5.1-4.34-2.14-8.16-4.77-11.38-7.43-3.21-2.69-5.83-5.43-7.86-7.87-2.02-2.44-3.47-4.57-4.44-6.06-.44-.71-.81-1.28-1.09-1.73-.25-.39-.39-.6-.41-.59-.02.01.09.23.31.65.22.41.54,1.03.99,1.8.91,1.53,2.31,3.71,4.31,6.21,1.99,2.49,4.6,5.29,7.83,8.03,3.24,2.71,7.09,5.39,11.47,7.55,4.36,2.23,8.84,3.54,12.74,5.08,3.91,1.5,7.28,3.27,9.67,5.34,2.44,2.01,3.91,4.17,4.69,5.74.77,1.59.98,2.57,1.04,2.55Z"/>
          <path class="cls-6" d="M625.86,240.13s.19-.97-.29-2.65c-.45-1.66-1.72-3.96-4.12-5.94-2.37-2.04-5.87-3.43-9.73-4.6-3.88-1.14-8.08-2.54-12.15-4.78-4.07-2.23-7.67-4.84-10.61-7.59-2.95-2.73-5.3-5.51-7.08-7.98-1.81-2.45-2.99-4.63-3.84-6.1-.37-.71-.66-1.29-.9-1.75-.21-.4-.33-.6-.35-.59-.02,0,.06.23.24.65.21.47.48,1.07.8,1.8.79,1.52,1.92,3.74,3.7,6.25,1.75,2.52,4.09,5.36,7.05,8.14,2.95,2.8,6.59,5.46,10.7,7.71,4.11,2.27,8.41,3.68,12.28,4.79,3.86,1.13,7.28,2.46,9.62,4.39,2.37,1.88,3.66,4.08,4.16,5.68.53,1.61.43,2.59.52,2.58Z"/>
          <path class="cls-6" d="M610.12,260.19c0-.08,1.03-.14,2.83-.49,1.8-.37,4.36-1.28,6.96-3.29,2.62-1.98,5.04-5.16,6.87-9.1,1.82-3.94,3.07-8.64,3.53-13.64.22-2.5.19-4.95-.09-7.3-.31-2.34-.85-4.57-1.55-6.63-1.44-4.11-3.5-7.51-5.55-10.08-4.13-5.18-7.71-7.4-7.56-7.55.02-.02.24.11.64.39.4.29,1.01.67,1.73,1.27,1.47,1.15,3.5,2.96,5.63,5.54,2.14,2.57,4.29,6.01,5.8,10.19.73,2.1,1.3,4.37,1.63,6.77.3,2.4.33,4.92.1,7.47-.47,5.09-1.77,9.86-3.66,13.88-1.9,4.01-4.45,7.26-7.19,9.24-2.72,2.02-5.4,2.86-7.24,3.15-.92.19-1.66.15-2.14.19-.49.02-.75.02-.75,0Z"/>
        </g>
        <g>
          <g>
            <polygon class="cls-8" points="573.09 288.68 606.42 285.08 612.52 290.63 588.73 304.63 578.23 310.06 567.86 306.91 564.57 300.73 573.09 288.68"/>
            <g>
              <path class="cls-12" d="M528.15,329.27s10.45-20.05,13.04-24.44c4.41-7.47,12.64-11.7,12.64-11.7l19.26-4.46s-2,9.65,9.99,10.32c15.24.85,24.71-13.77,24.71-13.77,0,0,17.39,1.79,22.2,3.81,4.8,2.02,18.39,7.7,20.38,25.77l4.65,29.49-36.75,2.8.51,39.26.18,22.39c-16.41,6.83-40.9,10.74-63.85,4.58-1.39-.37-.67-16.32-3.87-32.65l-6.05-14.69c-2.42-5.88-3.93-12.12-4.28-18.47-.23-4.18-.12-7.34-.12-7.34,0,0-9.43-3.24-12.63-10.9Z"/>
              <g>
                <path class="cls-8" d="M557.1,400.16l61.61-18.49-.44-34.57,31.37-2.39s-2.5,17.92-2.87,27.1c-.53,13.21-6.88,31.68-11.13,35.6-4.25,3.92-80.18,8.18-80.18,8.18l1.64-15.42Z"/>
                <path class="cls-8" d="M522.16,411.03c.51.84,1.47,1.34,2.44,1.18.19-.03.39-.09.6-.17,1.35-.55,1-3.36,1-3.36l6.56-1.6s9.07,4.9,12.43,8.35c3.36,3.45,10.96-.14,10.96-.14l1.62-14.36-13.08-10.11s.8.6-.2-1.4c-1-2-4.78-.92-4.78-.92-.68-.98-3.21-1.15-3.21-1.15l-10.63,2.07c-2.19.43-4.07,1.82-5.11,3.79l-3.98,7.53s-1.99,5.35-1.52,6.52c.72,1.77,2.61,1.22,2.61,1.22,0,0,.79,3.36,1.69,3.41.9.05,2.6-.84,2.6-.84h0Z"/>
                <path class="cls-10" d="M544.19,399.1c0,.11-1.44.09-3.72.37-2.28.29-5.41.93-8.62,2.32-1.61.68-3.08,1.47-4.36,2.28-1.24.83-2.54,1.53-2.89,2.51-.17.48-.04.94.22,1.27.25.33.58.53.86.62.58.19.93,0,.95.07.03.01-.31.32-1.02.19-.34-.06-.75-.26-1.09-.63-.35-.36-.58-1.02-.38-1.66.18-.64.68-1.17,1.22-1.61.55-.43,1.14-.87,1.79-1.29,1.29-.85,2.79-1.68,4.44-2.38,3.29-1.41,6.52-2,8.84-2.17,2.33-.16,3.77.04,3.77.11Z"/>
                <path class="cls-10" d="M545.47,405.88c0,.2-4.37.36-9.71,1.09-5.34.71-9.6,1.72-9.65,1.52-.02-.09,1.02-.45,2.74-.89,1.72-.44,4.13-.94,6.82-1.31,2.69-.36,5.15-.52,6.92-.55,1.78-.03,2.88.05,2.88.14Z"/>
                <path class="cls-10" d="M522.2,410.75s-.11-.39-.22-1.13c-.1-.73-.23-1.8-.25-3.14,0-.67,0-1.4.13-2.2.11-.8.42-1.65.87-2.42.85-1.54,2.08-3.16,3.7-4.43,1.62-1.25,3.24-2.34,4.93-2.99,1.67-.65,3.26-.9,4.58-1.06,1.32-.15,2.39-.2,3.13-.23.74-.03,1.15-.02,1.15.03.01.11-1.62.29-4.22.69-1.29.22-2.83.52-4.41,1.17-1.57.64-3.17,1.72-4.73,2.94-1.56,1.23-2.71,2.71-3.58,4.21-.93,1.43-1,3-1.06,4.3-.06,2.62.14,4.26-.01,4.27Z"/>
                <path class="cls-10" d="M536.18,390.11c0,.1-1.59.27-4.13.76-2.44.57-6.37,1.06-8.36,4.63-2.2,3.28-4.04,6.36-4.76,8.83-.78,2.45-.56,4.09-.7,4.09-.04,0-.13-.4-.15-1.13-.03-.73.05-1.81.39-3.09.63-2.59,2.45-5.78,4.66-9.08.56-.83,1.18-1.62,1.92-2.27.73-.66,1.62-1.07,2.43-1.38,1.65-.61,3.2-.87,4.49-1.07,2.59-.38,4.21-.37,4.21-.28Z"/>
                <path class="cls-10" d="M542.66,413.33s-.24-.13-.67-.44c-.49-.33-1.12-.77-1.91-1.3-1.68-1.1-4.17-2.66-7.42-4.31l.15.02c-1.95.49-4.16,1.04-6.55,1.64l.21-.3c.06.54.07,1.07,0,1.63-.07.55-.2,1.14-.63,1.65-.23.25-.56.41-.85.47-.29.1-.61.15-.93.13-.64-.04-1.26-.33-1.72-.79-.12-.11-.22-.24-.32-.37l-.07-.1-.03-.05-.02-.03h0c-.09-.03.76.21.4.11h0s-.01.01-.01.01l-.2.1c-.27.13-.55.26-.83.37-.29.11-.58.22-.89.3-.16.04-.32.08-.49.09-.16.02-.36.04-.62-.07-.39-.24-.55-.54-.72-.83-.16-.29-.29-.59-.4-.89-.23-.6-.41-1.21-.57-1.85l.41.24c-.85.22-1.88.09-2.54-.65-.3-.35-.55-.78-.56-1.3-.01-.47.06-.88.14-1.3.34-1.66.87-3.28,1.46-4.92v-.02s.02-.02.02-.02c.68-1.28,1.39-2.64,2.12-4.02.45-.85.9-1.7,1.35-2.55.45-.82.84-1.73,1.5-2.48.64-.75,1.42-1.36,2.28-1.79.85-.45,1.83-.62,2.69-.78,3.52-.67,6.88-1.32,10.02-1.92h.04s.04,0,.04,0c.63.06,1.22.16,1.81.33.57.18,1.18.39,1.62.96l-.38-.09c1.1-.55,2.41-.66,3.46-.07,1.05.58,1.59,1.6,1.91,2.58l-.09-.13c3.75,2.88,6.82,5.24,9.01,6.92,1.01.8,1.82,1.43,2.43,1.92.55.44.83.69.82.71-.02.02-.33-.18-.91-.59-.63-.45-1.47-1.05-2.51-1.81-2.22-1.64-5.33-3.93-9.15-6.74l-.06-.05-.03-.09c-.29-.86-.82-1.8-1.68-2.24-.84-.48-1.99-.37-2.91.1l-.23.12-.15-.2c-.26-.34-.79-.57-1.31-.72-.53-.15-1.11-.25-1.68-.29h.08c-3.14.61-6.49,1.28-10.01,1.97-.9.17-1.74.32-2.52.73-.78.39-1.49.94-2.06,1.62-.58.66-.95,1.51-1.41,2.36-.44.84-.89,1.69-1.34,2.55-.73,1.38-1.45,2.73-2.12,4.01l.02-.04c-.58,1.6-1.11,3.22-1.44,4.8-.08.39-.14.8-.13,1.15-.01.31.17.62.39.89.43.51,1.22.63,1.86.47l.33-.08.08.32c.15.6.32,1.2.54,1.77.2.53.49,1.18.81,1.38.02,0,.13.03.27,0,.13-.01.27-.04.4-.07.27-.07.55-.16.82-.27.27-.11.53-.22.79-.35l.19-.09h.01s0,0,0,0c-.36-.1.49.14.41.11h0s.01.02.01.02l.03.04.05.08c.08.1.16.2.25.29.36.36.85.59,1.34.63.25.02.49-.02.73-.1.26-.06.43-.15.59-.3.58-.71.58-1.89.51-2.83l-.02-.25.22-.05c2.4-.57,4.61-1.09,6.57-1.55l.08-.02.07.04c3.26,1.72,5.71,3.34,7.36,4.51.82.59,1.44,1.07,1.84,1.4.41.34.61.52.6.54Z"/>
              </g>
            </g>
          </g>
          <g>
            <path class="cls-6" d="M451.01,415.28l-20.66-54.27c-.78-2.04.73-4.23,2.92-4.23h66.35c1.21,0,2.31.7,2.83,1.8l19.87,51.76,41.68.71c1.72,0,3.12,1.4,3.12,3.12h0c0,1.72-1.4,3.12-3.12,3.12h-110.07c-1.29,0-2.46-.8-2.92-2.01Z"/>
            <path class="cls-3" d="M479.1,387.03c0,2.4-1.95,4.35-4.35,4.35s-4.35-1.95-4.35-4.35,1.95-4.35,4.35-4.35,4.35,1.95,4.35,4.35Z"/>
          </g>
          <path class="cls-1" d="M550.3,307.12c.11.06-.89,1.93-2.29,5.04-1.4,3.11-3.14,7.5-4.55,12.51-1.39,5.02-2.18,9.67-2.59,13.06-.41,3.39-.53,5.5-.65,5.5-.05,0-.07-.53-.07-1.49,0-.96.06-2.35.2-4.06.28-3.42.99-8.14,2.39-13.2,1.42-5.06,3.25-9.46,4.79-12.54.77-1.54,1.43-2.76,1.93-3.58.5-.82.79-1.26.84-1.24Z"/>
          <path class="cls-1" d="M655.02,344.29s-.26.06-.76.12c-.57.06-1.3.13-2.21.22-2.01.17-4.79.4-8.24.69-7.1.53-16.91,1.27-28.16,2.12l-.36.03-.02-.36c-.24-3.74-.49-7.69-.74-11.75-.4-7.07-.74-13.81-.85-19.95-.32-6.17,1.19-11.81,3.61-15.82,2.4-4.07,5.57-6.43,7.89-7.59,1.18-.56,2.13-.93,2.8-1.09.66-.19,1.01-.27,1.01-.25.03.1-1.4.39-3.68,1.59-2.24,1.22-5.29,3.59-7.58,7.6-2.31,3.97-3.73,9.44-3.38,15.54.15,6.12.51,12.86.91,19.92.25,4.06.49,8.01.72,11.74l-.39-.34c11.26-.74,21.08-1.39,28.18-1.86,3.45-.2,6.24-.36,8.25-.48.91-.04,1.64-.07,2.21-.1.5-.01.77-.01.77,0Z"/>
          <path class="cls-1" d="M585.93,368.31s-.46-.12-1.23-.45c-.39-.16-.86-.38-1.38-.69-.52-.3-1.13-.61-1.74-1.07-1.27-.83-2.66-2-4.06-3.44-1.37-1.47-2.73-3.22-3.89-5.23-1.13-2.03-1.95-4.09-2.51-6.02-.52-1.94-.82-3.73-.88-5.25-.08-.75-.03-1.44-.03-2.04,0-.6.05-1.12.11-1.53.11-.84.19-1.3.24-1.29.15.01-.09,1.87.2,4.82.13,1.48.47,3.22,1.02,5.1.59,1.87,1.4,3.87,2.5,5.84,1.13,1.96,2.44,3.68,3.74,5.13,1.34,1.43,2.66,2.61,3.86,3.48,2.39,1.76,4.11,2.5,4.04,2.64Z"/>
        </g>
      </g>
    </g>
  </g>
  <g id="Screen">
    <g>
      <g>
        <g class="cls-2">
          <rect x="453.95" y="115.02" width="90.41" height="173.83" rx="11.73" ry="11.73" transform="translate(998.31 403.87) rotate(180)"/>
        </g>
        <g>
          <rect class="cls-3" x="450.61" y="98.58" width="90.41" height="185.9" rx="14.43" ry="14.43" transform="translate(991.63 383.06) rotate(180)"/>
          <path class="cls-11" d="M468.71,98.58h54.21c9.93,0,17.98,8.05,17.98,17.98v53.98c0,14.41-11.69,26.1-26.1,26.1h-37.97c-14.41,0-26.1-11.69-26.1-26.1v-53.98c0-9.93,8.05-17.98,17.98-17.98Z"/>
          <rect class="cls-4" x="456.21" y="128.63" width="76.34" height="17.67" rx="6.96" ry="6.96"/>
          <g>
            <path class="cls-1" d="M519.73,113.41c.94,0,1.7.76,1.7,1.7s-.76,1.7-1.7,1.7-1.7-.76-1.7-1.7.76-1.7,1.7-1.7Z"/>
            <path class="cls-1" d="M524.6,113.41c.94,0,1.7.76,1.7,1.7s-.76,1.7-1.7,1.7-1.7-.76-1.7-1.7.76-1.7,1.7-1.7Z"/>
            <ellipse class="cls-1" cx="529.48" cy="115.11" rx="1.7" ry="1.7"/>
          </g>
          <path class="cls-1" d="M462,112.55c-.68.7-1.37,1.41-2.05,2.11-.22.23-.26.67,0,.88.68.57,1.37,1.13,2.05,1.7.25.21.64.26.88,0,.21-.23.27-.66,0-.88-.68-.57-1.37-1.13-2.05-1.7v.88c.68-.7,1.37-1.41,2.05-2.11.23-.23.25-.65,0-.88-.25-.23-.64-.25-.88,0h0Z"/>
          <g>
            <path class="cls-1" d="M464.52,137.27c0,.59-.37,1.15-.94,1.35-.59.21-1.25.03-1.64-.45-.37-.46-.41-1.13-.11-1.64.3-.51.91-.79,1.49-.68.69.13,1.19.73,1.2,1.42,0,.48.76.48.75,0-.01-.92-.58-1.73-1.44-2.06-.84-.32-1.86-.05-2.43.65-.59.71-.69,1.73-.21,2.53.48.8,1.4,1.19,2.31,1.03,1.03-.18,1.76-1.13,1.77-2.15,0-.48-.74-.48-.75,0Z"/>
            <path class="cls-1" d="M464.04,138.87c.23.25.46.51.69.76.03.04.07.07.1.11.06.07.17.11.27.11s.2-.04.27-.11c.14-.16.14-.37,0-.53l-.69-.76s-.07-.07-.1-.11c-.06-.07-.17-.11-.27-.11s-.2.04-.27.11c-.14.16-.14.37,0,.53h0Z"/>
          </g>
          <path class="cls-12" d="M464.33,161.87h-4.51c-1.88,0-3.41-1.53-3.41-3.41h0c0-1.88,1.53-3.41,3.41-3.41h4.51c1.88,0,3.41,1.53,3.41,3.41h0c0,1.88-1.53,3.41-3.41,3.41Z"/>
          <path class="cls-4" d="M530.3,161.87h-4.51c-1.88,0-3.41-1.53-3.41-3.41h0c0-1.88,1.53-3.41,3.41-3.41h4.51c1.88,0,3.41,1.53,3.41,3.41h0c0,1.88-1.53,3.41-3.41,3.41Z"/>
          <path class="cls-9" d="M494.2,161.87h-18.62c-1.88,0-3.41-1.53-3.41-3.41h0c0-1.88,1.53-3.41,3.41-3.41h18.62c1.88,0,3.41,1.53,3.41,3.41h0c0,1.88-1.53,3.41-3.41,3.41Z"/>
          <path class="cls-6" d="M515.6,161.87h-11.65c-1.88,0-3.41-1.53-3.41-3.41h0c0-1.88,1.53-3.41,3.41-3.41h11.65c1.88,0,3.41,1.53,3.41,3.41h0c0,1.88-1.53,3.41-3.41,3.41Z"/>
          <rect class="cls-12" x="462.05" y="227.15" width="20.5" height="5.04" rx="2.52" ry="2.52"/>
          <path class="cls-12" d="M529.89,264.9c0,1.9-1.54,3.43-3.43,3.43s-3.43-1.54-3.43-3.43,1.54-3.43,3.43-3.43,3.43,1.54,3.43,3.43Z"/>
          <path class="cls-12" d="M520.04,264.9c0,1.9-1.54,3.43-3.43,3.43s-3.43-1.54-3.43-3.43,1.54-3.43,3.43-3.43,3.43,1.54,3.43,3.43Z"/>
          <path class="cls-12" d="M509.45,264.9c0,1.9-1.54,3.43-3.43,3.43s-3.43-1.54-3.43-3.43,1.54-3.43,3.43-3.43,3.43,1.54,3.43,3.43Z"/>
          <path class="cls-1" d="M530.12,249.85h-27.03c-.89,0-1.61-.72-1.61-1.61h0c0-.89.72-1.61,1.61-1.61h27.03c.89,0,1.61.72,1.61,1.61h0c0,.89-.72,1.61-1.61,1.61Z"/>
          <path class="cls-1" d="M530.12,256.52h-27.03c-.89,0-1.61-.72-1.61-1.61h0c0-.89.72-1.61,1.61-1.61h27.03c.89,0,1.61.72,1.61,1.61h0c0,.89-.72,1.61-1.61,1.61Z"/>
          <g>
            <rect class="cls-3" x="459.57" y="171.7" width="71.8" height="45.33" rx="6.56" ry="6.56"/>
            <circle class="cls-6" cx="491.8" cy="185.5" r="4.79"/>
            <path class="cls-6" d="M531.38,211.19v-16.1c-1.84-2.19-3.77-4.25-5.95-5.98-3.55-2.82-7.85-4.7-12.16-4.23-5.57.6-10.33,5.01-13.6,10.2-1.6,2.54-3.26,5.57-5.96,6.1-2.08.41-4.13-.85-5.78-2.34-1.66-1.49-3.16-3.28-5.09-4.25-3.87-1.95-8.35-.13-12.12,2.06-3.92,2.28-7.65,4.97-11.14,8.03v6.52c0,3.22,2.29,5.83,5.1,5.83h61.59c2.82,0,5.1-2.61,5.1-5.83Z"/>
            <path class="cls-1" d="M524.82,217.03c-.01-.06.81.07,2.2-.44.69-.25,1.51-.7,2.28-1.44.76-.74,1.48-1.82,1.79-3.18.16-.68.19-1.41.17-2.19,0-.78,0-1.6-.01-2.46,0-1.72-.01-3.58-.02-5.59-.01-4.01-.02-8.57-.04-13.62,0-2.52-.01-5.16-.02-7.92-.03-1.38.13-2.8-.39-4.09-.46-1.31-1.4-2.47-2.62-3.22-.61-.38-1.28-.67-2-.81-.71-.16-1.45-.15-2.22-.14-1.53,0-3.09,0-4.67,0-3.16,0-6.41,0-9.75.01-13.34,0-28,.01-43.4.02-1.86,0-3.66.86-4.84,2.26-.59.7-1.01,1.53-1.24,2.4-.25.88-.22,1.78-.22,2.73,0,3.75,0,7.44,0,11.07,0,3.63,0,7.19,0,10.69,0,1.75,0,3.47,0,5.18,0,.85,0,1.7,0,2.55.01.84-.04,1.7.06,2.48.2,1.6,1.05,3.07,2.27,4.05,1.22,1.01,2.78,1.47,4.32,1.42,3.16,0,6.23,0,9.19.01,5.93.01,11.46.02,16.5.03,10.07.03,18.23.06,23.89.08,2.81.02,4.99.04,6.5.05.73.01,1.29.02,1.69.03.38,0,.58.03.58.03,0,0-.19.02-.58.03-.4,0-.96.01-1.69.03-1.51.01-3.69.03-6.5.05-5.66.02-13.82.05-23.89.08-5.05,0-10.57.02-16.5.03-2.97,0-6.03,0-9.19.01-1.61.06-3.32-.43-4.62-1.51-1.31-1.06-2.23-2.64-2.45-4.35-.11-.87-.06-1.7-.07-2.55,0-.84,0-1.69,0-2.55,0-1.71,0-3.44,0-5.18,0-3.49,0-7.06,0-10.69,0-3.63,0-7.32,0-11.07,0-.92-.03-1.92.24-2.87.25-.95.71-1.85,1.35-2.6,1.27-1.52,3.23-2.46,5.23-2.45,15.39,0,30.06.01,43.4.02,3.33,0,6.59,0,9.75.01,1.58,0,3.14,0,4.67,0,.75,0,1.55-.01,2.32.16.76.16,1.49.47,2.13.87,1.3.81,2.29,2.05,2.78,3.44.24.69.4,1.42.4,2.15,0,.7,0,1.4,0,2.09,0,2.75-.01,5.4-.02,7.92-.01,5.04-.03,9.6-.04,13.62,0,2-.01,3.87-.02,5.59,0,.86,0,1.68-.01,2.46.01.78-.02,1.55-.2,2.24-.33,1.4-1.09,2.49-1.88,3.24-.8.75-1.65,1.19-2.35,1.43-.71.25-1.28.31-1.66.34-.38.01-.58,0-.58,0Z"/>
          </g>
          <g>
            <g>
              <rect class="cls-3" x="459.46" y="239.59" width="34.94" height="31.73" rx="8.57" ry="8.57"/>
              <path class="cls-12" d="M481.55,248.75c0,1.9-1.54,3.43-3.43,3.43s-3.43-1.54-3.43-3.43,1.54-3.43,3.43-3.43,3.43,1.54,3.43,3.43Z"/>
              <path class="cls-12" d="M468.28,271.32h17.3c4.87,0,8.82-3.95,8.82-8.82v-10.66c-1.22-.45-2.6-.66-3.94-.63-2.18.06-4.11,1.08-5.53,2.3-1.42,1.22-2.45,2.66-3.76,3.95-.86.85-1.99,1.69-3.42,1.78-3.37.22-4.78-3.49-8.02-4.22-1.53-.34-3.23.08-4.49.81-1.26.73-2.18,1.73-3.07,2.71-.9,1-1.8,1.99-2.71,2.99v.96c0,4.87,3.95,8.82,8.82,8.82Z"/>
            </g>
            <path class="cls-1" d="M485.9,271.32s.42-.02,1.19-.15c.77-.12,1.92-.41,3.18-1.2,1.26-.76,2.6-2.13,3.38-4.08.85-1.96.49-4.44.55-7.12,0-2.69-.02-5.63-.03-8.79-.02-1.58.11-3.22-.53-4.75-.55-1.54-1.63-2.94-3.04-3.93-1.42-.99-3.18-1.52-5-1.47-1.86,0-3.76,0-5.69,0-3.87,0-7.87,0-11.96,0-1.99,0-3.93.75-5.39,2.02-1.48,1.26-2.44,3.04-2.73,4.89-.16.92-.11,1.87-.12,2.83,0,.95,0,1.89,0,2.82,0,1.86,0,3.68,0,5.46v5.18c.03,1.64.57,3.2,1.43,4.47.88,1.27,2.06,2.25,3.36,2.84,1.3.64,2.69.79,4.02.78,5.34.03,9.68.06,12.72.08,1.47.02,2.63.04,3.46.05.37.01.67.02.9.03.2,0,.31.02.31.03s-.1.02-.31.03c-.23,0-.53.02-.9.03-.83.01-1.99.03-3.46.05-3.04.02-7.38.05-12.72.08-1.34.03-2.83-.12-4.19-.78-1.37-.61-2.62-1.63-3.55-2.96-.92-1.33-1.5-2.98-1.54-4.71,0-1.68-.01-3.42-.02-5.2,0-1.78,0-3.6,0-5.46,0-.93,0-1.87,0-2.82,0-.94-.05-1.91.12-2.91.31-1.96,1.32-3.86,2.89-5.2,1.55-1.35,3.62-2.15,5.73-2.15,4.1,0,8.1,0,11.96,0,1.93,0,3.83,0,5.69,0,1.9-.05,3.79.52,5.28,1.57,1.49,1.05,2.62,2.53,3.2,4.16.66,1.63.52,3.36.53,4.91-.01,3.16-.02,6.1-.03,8.79,0,1.34-.01,2.62-.02,3.83,0,1.23-.22,2.39-.63,3.4-.83,2.02-2.24,3.39-3.54,4.15-1.31.78-2.49,1.04-3.28,1.13-.79.09-1.21.04-1.21.04Z"/>
          </g>
          <path class="cls-1" d="M464.7,284.48s-.46,0-1.36-.04c-.89-.11-2.24-.25-3.88-.92-1.63-.64-3.58-1.76-5.3-3.69-1.75-1.88-3.19-4.66-3.57-8-.13-1.68-.06-3.43-.08-5.28,0-1.85,0-3.79-.01-5.82,0-4.05-.01-8.46-.02-13.19-.01-9.47-.02-20.25-.04-32.16-.02-23.83-.03-52.2-.06-83.71,0-3.94,0-7.93,0-11.96.02-2.02-.05-4.03.05-6.1.13-2.06.65-4.12,1.56-6,1.79-3.78,5.14-6.86,9.17-8.3,2-.74,4.18-1.01,6.31-.98,2.12,0,4.26,0,6.4,0,8.57,0,17.29,0,26.15,0,4.43,0,8.88,0,13.37,0,2.24,0,4.5,0,6.75,0,1.13,0,2.26,0,3.39,0,1.12,0,2.28,0,3.43.13,4.6.54,8.85,3.16,11.44,6.92,1.31,1.87,2.19,4.02,2.61,6.25.43,2.25.25,4.49.29,6.7,0,8.85,0,17.58,0,26.15,0,17.15-.01,33.69-.02,49.44,0,15.75-.02,30.73-.02,44.74,0,7.01-.01,13.77-.01,20.27,0,3.25,0,6.44,0,9.56-.01,1.55.05,3.12-.27,4.64-.31,1.51-.85,2.96-1.58,4.28-.72,1.33-1.7,2.48-2.77,3.48-1.07,1-2.3,1.83-3.6,2.42-1.3.6-2.67,1.03-4.05,1.2-1.39.2-2.76.15-4.1.15-5.37,0-10.43-.01-15.16-.02-9.46-.02-17.61-.03-24.28-.04-6.66-.02-11.83-.04-15.34-.05-1.75-.01-3.08-.02-3.99-.03-.9,0-1.36-.03-1.36-.03,0,0,.46-.02,1.36-.03.91,0,2.24-.01,3.99-.03,3.52-.01,8.69-.03,15.34-.05,6.67-.01,14.82-.03,24.28-.04,4.73,0,9.79-.01,15.16-.02,1.34,0,2.71.04,4.05-.16,1.35-.16,2.69-.59,3.95-1.18,1.27-.58,2.46-1.38,3.51-2.37,1.04-.98,1.99-2.1,2.7-3.4.71-1.29,1.23-2.69,1.53-4.17.31-1.48.25-3.01.26-4.57,0-3.12,0-6.3,0-9.56,0-6.5,0-13.27-.01-20.27,0-14.01-.02-28.98-.02-44.74,0-15.76,0-32.29-.02-49.44,0-8.57,0-17.3,0-26.15-.04-2.22.14-4.45-.28-6.6-.4-2.15-1.25-4.24-2.52-6.05-2.51-3.64-6.62-6.17-11.07-6.69-1.11-.13-2.23-.14-3.37-.13h-3.39c-2.26,0-4.51,0-6.75,0-4.49,0-8.95,0-13.37,0-8.85,0-17.57,0-26.15,0-2.14,0-4.28,0-6.4,0-2.11-.02-4.19.23-6.14.95-3.9,1.39-7.15,4.37-8.89,8.04-.88,1.83-1.39,3.82-1.51,5.82-.1,2.01-.03,4.06-.05,6.07,0,4.03,0,8.02,0,11.96-.02,31.5-.04,59.88-.06,83.71-.01,11.91-.03,22.69-.04,32.16,0,4.73-.01,9.14-.02,13.19,0,2.03,0,3.97-.01,5.82.02,1.85-.06,3.62.06,5.26.36,3.3,1.77,6.05,3.49,7.92,1.69,1.92,3.61,3.05,5.23,3.69,3.28,1.28,5.23.95,5.2,1.06Z"/>
        </g>
      </g>
      <path class="cls-1" d="M495.48,330.22c-.14,0-.26-10.24-.26-22.87s.12-22.87.26-22.87.26,10.24.26,22.87-.12,22.87-.26,22.87Z"/>
      <path class="cls-1" d="M499.24,97.01c0,2.68-2.18,4.86-4.86,4.86s-4.86-2.18-4.86-4.86,2.18-4.86,4.86-4.86,4.86,2.18,4.86,4.86Z"/>
      <circle class="cls-1" cx="495.81" cy="329.16" r="4.86"/>
      <path class="cls-1" d="M438.91,77.04s.26-.04.75-.05c.54-.01,1.26-.03,2.15-.05,1.92-.02,4.61-.05,7.91-.08,6.72-.02,15.92-.05,26.08-.08,2.55,0,5.03,0,7.44,0,1.2,0,2.38,0,3.54,0,1.19-.02,2.36.25,3.39.74,2.07.97,3.53,2.81,4.09,4.75.3.96.34,1.97.32,2.87,0,.91-.01,1.78-.02,2.62-.03,3.3-.06,5.98-.08,7.9-.02.89-.04,1.61-.05,2.15-.02.49-.03.75-.05.75s-.04-.26-.05-.75c-.01-.54-.03-1.26-.05-2.15-.02-1.92-.05-4.61-.08-7.9,0-.84-.01-1.71-.02-2.62.01-.92-.03-1.83-.33-2.75-.54-1.82-1.94-3.54-3.88-4.44-1.93-1-4.32-.59-6.72-.67-2.4,0-4.89,0-7.44,0-10.16-.03-19.36-.06-26.08-.08-3.3-.03-5.98-.06-7.91-.08-.89-.02-1.61-.04-2.15-.05-.49-.02-.75-.03-.75-.05Z"/>
    </g>
  </g>
  <g id="Speech_Bubble_2">
    <g>
      <g>
        <path class="cls-3" d="M643.93,262.93l2.68-8.07c-2.69-4.03-4.34-8.84-4.53-14.04-.55-14.96,11.13-27.54,26.1-28.08,14.96-.55,27.54,11.13,28.08,26.1.55,14.96-11.13,27.54-26.1,28.08-6.25.23-12.07-1.68-16.79-5.06h0s-9.45,1.08-9.45,1.08Z"/>
        <path class="cls-1" d="M643.93,262.93s.22-.03.63-.08c.42-.05,1.02-.13,1.82-.22,1.6-.19,3.95-.48,7-.84l-.06.14h0s-.03-.1.01-.13c.03-.02.07-.02.1,0,2.88,2.04,7.09,4.18,12.45,4.82,1.33.16,2.73.23,4.18.18,1.44-.12,2.93-.2,4.44-.55,3.01-.61,6.11-1.78,9-3.6,2.89-1.82,5.57-4.3,7.7-7.35,2.13-3.04,3.71-6.65,4.44-10.56,1.52-7.8-.77-16.83-6.77-23.21-3.05-3.23-6.8-5.74-10.86-7.09-4.04-1.4-8.3-1.79-12.32-1.28-4.03.49-7.78,1.96-10.97,3.99-3.19,2.04-5.82,4.66-7.77,7.52-1.97,2.86-3.26,5.95-3.99,8.97-.08.38-.17.76-.25,1.13-.09.37-.17.74-.2,1.12-.09.75-.17,1.48-.26,2.21-.01,1.45-.1,2.86.05,4.21.48,5.41,2.47,9.66,4.38,12.54.01.02.02.05,0,.07-.88,2.6-1.57,4.6-2.03,5.96-.23.67-.41,1.19-.53,1.55-.12.35-.19.53-.19.53,0,0,.05-.17.16-.51.11-.36.28-.87.49-1.54.45-1.38,1.1-3.41,1.95-6.05v.07c-1.94-2.88-3.98-7.15-4.48-12.61-.15-1.36-.07-2.78-.07-4.25.08-.73.17-1.47.25-2.23.03-.38.1-.76.19-1.13.08-.38.16-.76.25-1.14.72-3.05,2.02-6.18,4-9.08,1.97-2.9,4.62-5.56,7.85-7.63,3.22-2.06,7.02-3.56,11.11-4.06,4.07-.52,8.4-.13,12.5,1.29,4.12,1.37,7.92,3.91,11.01,7.19.4.38.74.82,1.08,1.25l1.03,1.28.9,1.37c.3.45.6.91.84,1.39.25.48.51.96.76,1.44.27.47.42.99.64,1.48.19.5.42.99.59,1.49.15.51.3,1.02.45,1.53,1.15,4.09,1.32,8.34.56,12.3-.74,3.96-2.35,7.62-4.51,10.7-2.17,3.08-4.88,5.59-7.81,7.42-2.93,1.84-6.07,3.01-9.12,3.62-1.52.35-3.03.42-4.48.54-1.46.05-2.87-.03-4.22-.2-5.42-.67-9.64-2.86-12.52-4.94l.11-.12h0s.03.1-.01.13c-.01.01-.03.02-.05.02-3.09.33-5.46.58-7.07.75-.78.08-1.38.14-1.8.18-.4.04-.59.05-.59.05Z"/>
      </g>
      <polygon class="cls-12" points="656.65 240.55 660.43 236.36 668.47 242.81 680.4 229.1 684.3 232.9 668.28 250.52 656.65 240.55"/>
    </g>
  </g>
  <g id="Character_1">
    <g>
      <g class="cls-2">
        <path d="M220.44,109.21l.21,110.63c9.12-16.31,14.32-35.11,14.32-55.13s-5.28-39.1-14.53-55.5Z"/>
      </g>
      <g>
        <circle class="cls-11" cx="113.13" cy="164.8" r="113.13" transform="translate(-83.4 128.26) rotate(-45)"/>
        <path class="cls-1" d="M0,164.8s0-.62.02-1.83c.01-.61.03-1.36.04-2.26.01-.9.03-1.94.14-3.12.09-1.18.18-2.5.29-3.96.14-1.45.37-3.04.57-4.76.47-3.43,1.2-7.36,2.26-11.74,1.14-4.35,2.53-9.17,4.6-14.24,2.03-5.08,4.54-10.5,7.85-15.98,6.53-10.97,15.92-22.45,28.73-32.25,6.38-4.91,13.64-9.32,21.64-12.97,7.99-3.64,16.74-6.57,26.06-8.26,9.31-1.73,19.16-2.41,29.23-1.64,5.04.29,10.11,1.11,15.2,2.11,5.08,1.08,10.14,2.53,15.16,4.31,20.01,7.23,39.03,20.75,52.73,39.51,3.47,4.65,6.51,9.67,9.25,14.88.65,1.32,1.39,2.6,1.98,3.96.61,1.35,1.22,2.7,1.83,4.05,1.1,2.76,2.23,5.52,3.13,8.38,1.86,5.69,3.4,11.54,4.32,17.54.95,6,1.44,12.1,1.48,18.25-.04,6.15-.53,12.26-1.48,18.25-.92,6.01-2.46,11.86-4.32,17.55-.9,2.86-2.03,5.62-3.13,8.38-.61,1.35-1.22,2.71-1.83,4.05-.58,1.36-1.32,2.64-1.98,3.97-2.74,5.22-5.78,10.24-9.25,14.88-13.71,18.77-32.73,32.29-52.74,39.52-5.02,1.78-10.09,3.23-15.16,4.31-5.09,1-10.16,1.82-15.2,2.11-10.07.78-19.92.09-29.23-1.64-9.33-1.69-18.07-4.62-26.06-8.26-8-3.65-15.26-8.06-21.63-12.97-12.81-9.8-22.2-21.29-28.73-32.25-3.31-5.48-5.82-10.9-7.85-15.98-2.07-5.07-3.46-9.89-4.6-14.24-1.06-4.37-1.79-8.31-2.26-11.74-.21-1.72-.43-3.3-.57-4.76-.11-1.46-.2-2.78-.29-3.96-.11-1.18-.12-2.22-.14-3.12-.02-.9-.03-1.65-.04-2.26-.02-1.21-.02-1.83-.02-1.83,0,0,.03.62.07,1.83.02.61.04,1.36.07,2.26.02.9.05,1.94.16,3.12.09,1.18.2,2.5.31,3.95.15,1.45.38,3.03.6,4.75.48,3.42,1.23,7.35,2.3,11.71,1.15,4.34,2.55,9.14,4.64,14.2,2.04,5.06,4.56,10.46,7.87,15.92,6.54,10.92,15.92,22.36,28.7,32.11,6.37,4.89,13.6,9.28,21.58,12.9,7.97,3.62,16.68,6.53,25.97,8.2,9.27,1.71,19.09,2.39,29.12,1.61,5.02-.3,10.07-1.11,15.13-2.12,5.06-1.08,10.1-2.53,15.1-4.3,19.92-7.21,38.85-20.68,52.49-39.37,3.45-4.63,6.48-9.63,9.2-14.82.65-1.32,1.38-2.59,1.97-3.95.61-1.34,1.21-2.69,1.82-4.04,1.09-2.75,2.21-5.5,3.11-8.34,1.85-5.66,3.38-11.49,4.3-17.47.94-5.97,1.43-12.05,1.47-18.17-.04-6.12-.54-12.2-1.48-18.17-.92-5.98-2.45-11.8-4.3-17.46-.9-2.84-2.02-5.59-3.11-8.34-.61-1.35-1.22-2.69-1.82-4.03-.58-1.35-1.32-2.63-1.97-3.95-2.73-5.19-5.75-10.19-9.2-14.81-13.64-18.68-32.57-32.15-52.48-39.36-5-1.77-10.04-3.22-15.09-4.3-5.07-1-10.11-1.82-15.13-2.12-10.03-.78-19.84-.11-29.12,1.61-9.29,1.67-18,4.58-25.97,8.2-7.98,3.62-15.21,8.01-21.58,12.9-12.79,9.75-22.17,21.18-28.71,32.11-3.31,5.46-5.83,10.86-7.87,15.92-2.08,5.06-3.48,9.86-4.64,14.2-1.07,4.36-1.82,8.29-2.3,11.71-.21,1.72-.45,3.3-.6,4.75-.12,1.46-.22,2.77-.31,3.95-.12,1.18-.14,2.22-.16,3.12-.03.9-.05,1.65-.07,2.26C.03,164.18,0,164.8,0,164.8Z"/>
      </g>
      <g>
        <g>
          <path class="cls-1" d="M198.05,84.22c3.21,1.81,7.72.8,9.85-2.21,2.13-3.01,1.57-7.6-1.21-10.02,3.01-1.26,5.03-4.56,4.78-7.82-.25-3.25-2.75-6.21-5.91-7,1.13-3.02.57-6.61-1.44-9.13-2.01-2.52-5.38-3.88-8.57-3.45-2.09-4.2-7.32-6.54-11.84-5.3-2.65-1.75-6.45-1.55-8.9.48-2.45,2.03-3.37,5.71-2.15,8.65"/>
          <g>
            <g>
              <path class="cls-5" d="M179.31,45.5l1.52.65c15.31,6.51,23.07,23.68,17.81,39.47-4.89,14.68-10.48,30.85-13.81,38.42-6.9,15.69-23.71,11.44-23.71,11.44l-6.72,19.52-37.77-17.45,25.82-70.16c5.55-16.98,20.05-27.9,36.86-21.88Z"/>
              <path class="cls-7" d="M161.26,135.51s-10.33-3.67-18.1-14.83c0,0,.26,13.47,16.6,18.73l1.5-3.9Z"/>
              <path class="cls-1" d="M186.43,100.19c-.46,1.21-1.87,1.81-3.14,1.35-1.27-.46-1.92-1.81-1.46-3.02.46-1.21,1.87-1.81,3.14-1.35,1.27.46,1.92,1.81,1.46,3.02Z"/>
              <path class="cls-1" d="M191.97,91.89c-.4.18-1.57-1.81-4-2.84-2.41-1.06-4.72-.57-4.85-.97-.07-.19.44-.6,1.45-.83,1-.24,2.53-.23,4.04.42,1.51.65,2.54,1.75,3.03,2.62.5.89.53,1.53.33,1.6Z"/>
              <path class="cls-1" d="M164.92,90.34c-.46,1.21-1.87,1.81-3.14,1.35-1.27-.46-1.92-1.81-1.46-3.02.46-1.21,1.87-1.81,3.14-1.35,1.27.46,1.92,1.81,1.46,3.02Z"/>
              <path class="cls-1" d="M167.96,82.22c-.4.18-1.58-1.81-4-2.84-2.41-1.06-4.72-.57-4.85-.97-.07-.19.43-.6,1.45-.83,1-.24,2.53-.23,4.04.42,1.51.65,2.54,1.75,3.03,2.62.5.89.53,1.53.34,1.6Z"/>
              <path class="cls-1" d="M169.11,103.93c.05-.14,1.66.24,4.24.96.65.2,1.28.33,1.57-.05.34-.39.36-1.16.37-2.01.05-1.74.11-3.57.17-5.49.31-7.79.81-14.09,1.13-14.07.31.02.32,6.34,0,14.13-.09,1.91-.18,3.74-.26,5.49-.06.8,0,1.77-.71,2.57-.36.39-.96.53-1.4.47-.45-.05-.8-.19-1.11-.3-2.51-.91-4.04-1.55-3.99-1.69Z"/>
              <path class="cls-1" d="M174.02,73.79c-.58.48-2.37-1.07-4.9-2.24-2.5-1.23-4.85-1.66-4.82-2.4.03-.35.72-.71,1.85-.81,1.12-.1,2.67.11,4.18.82,1.5.72,2.62,1.78,3.22,2.71.61.93.73,1.68.47,1.91Z"/>
              <path class="cls-1" d="M196.34,81.95c-.74.33-2.5-1.09-4.9-2.14-2.36-1.12-4.6-1.52-4.82-2.29-.09-.37.47-.78,1.58-.93,1.1-.15,2.75.05,4.38.8,1.63.75,2.85,1.85,3.45,2.77.61.93.65,1.61.31,1.79Z"/>
              <path class="cls-1" d="M200.2,77.74s.04-11.64-3.75-15.97c-4.58-5.24-9.75.03-14.59-3.84-4.84-3.87-9.21-8.89-16.63-7.03-8.12,2.04-6.63,6.52-9.98,13.36-13.6,27.72-22.19,33.54-17.98,19.55.46-1.53-3.11-4.42-1.08-10.87,2.63-8.35,6.46-18.22,10.67-23.15,3.55-4.16,7.69-6.31,14.15-7.88,10.19-2.48,20.88,1.92,27.8,5.71,6.91,3.8,17.31,18.03,11.4,30.11Z"/>
              <path class="cls-5" d="M138.46,83.81c.93-2.48-.35-5.29-2.87-6.09-3.06-.97-7.04-.69-9.43,5.47-4.24,10.93,7.61,12.93,7.75,12.62.1-.21,2.82-7.41,4.55-12Z"/>
              <path class="cls-7" d="M133.12,90.78c-.03-.05-.24.06-.62.08-.37.02-.95-.09-1.43-.52-.99-.87-1.25-3.08-.54-5.07.36-1,.93-1.87,1.59-2.52.64-.67,1.38-1.03,2-.91.63.09.91.6.92.96.03.36-.13.55-.08.6.02.04.31-.09.39-.58.04-.23.01-.54-.16-.85-.18-.32-.52-.57-.94-.69-.87-.27-1.92.21-2.65.92-.77.7-1.44,1.66-1.84,2.79-.78,2.23-.46,4.73.95,5.8.69.5,1.42.52,1.85.39.44-.14.6-.36.57-.4Z"/>
            </g>
            <path class="cls-1" d="M147.54,63.01c.99,1.55,2.05,3.17,3.67,4.05,1.62.88,3.96.73,4.95-.82.45-.7.63-1.65,1.37-2.02.88-.44,1.88.24,2.74.72,2.99,1.66,8.13-.24,10.22-2.95.29,1.54,1.89,2.64,3.43,2.38,1.54-.27,2.17-.52,3.58-1.21,1.41-.68,3.15-1.09,4.49-.28.75.45,1.29,1.24,2.13,1.51,1.47.48,2.87-.89,3.68-2.2.81-1.31,1.67-2.88,3.2-3.14,1.41-.24,2.68.79,3.9,1.53,1.22.75,3.03,1.16,3.91.02.46-.59.47-1.42.35-2.16-.56-3.36-3.72-6.09-7.12-6.15.46-4.01-1.69-8.2-5.22-10.16-3.53-1.96-8.22-1.57-11.39.94-1.4-3.04-4.34-5.31-7.63-5.9-3.29-.59-6.84.52-9.21,2.88-2.33-1.8-5.75-2.06-8.32-.62-2.57,1.44-4.15,4.49-3.83,7.41-2.41.28-4.89,1.5-5.87,3.72-.99,2.21.24,5.36,2.64,5.69-1.61,1.37-1.9,4.03-.63,5.71,1.27,1.69,3.91,2.14,5.67.97"/>
            <path class="cls-6" d="M191.49,55.82s-.02.07-.09.2c-.07.12-.16.32-.31.55-.31.46-.82,1.11-1.67,1.74-.84.62-2,1.26-3.47,1.53-1.45.29-3.25.22-4.95-.62l.28-.16c-.06,1.06-.62,2.13-1.48,2.89-.84.78-1.89,1.34-2.97,1.87-.54.24-1.06.58-1.73.72-.65.14-1.33.09-1.98-.09-1.28-.36-2.49-1.32-2.94-2.72l.45.06c-1.19,2.03-3.32,3.65-5.81,4.14-1.34.31-2.8.22-4.03-.34-1.24-.54-2.25-1.4-3.16-2.25h.34c-1.15,1.09-2.53,1.85-3.97,2.24-1.42.39-3.04.28-4.19-.57-2.32-1.62-3.1-4.45-2.6-6.59l.2.22c-1.56.15-2.94-.36-3.94-1.03-1.02-.67-1.68-1.52-2.09-2.25-.41-.74-.57-1.39-.65-1.83-.05-.44-.05-.67-.04-.67.07-.02,0,.97.85,2.4.43.7,1.09,1.49,2.08,2.11.97.62,2.29,1.08,3.74.91l.25-.03-.05.25c-.45,2,.34,4.67,2.5,6.15,1.04.77,2.48.85,3.82.48,1.35-.37,2.67-1.11,3.74-2.14l.17-.16.17.16c.9.83,1.88,1.65,3.03,2.15,1.14.52,2.45.6,3.73.31,2.36-.46,4.35-1.98,5.48-3.89l.28-.48.17.54c.37,1.19,1.45,2.07,2.6,2.4.58.17,1.18.21,1.75.09.55-.11,1.08-.43,1.63-.68,1.07-.51,2.09-1.05,2.88-1.77.81-.7,1.31-1.64,1.38-2.59l.02-.29.26.13c1.6.81,3.31.91,4.72.66,1.43-.23,2.57-.82,3.4-1.4,1.67-1.21,2.13-2.37,2.19-2.31Z"/>
          </g>
        </g>
        <path class="cls-1" d="M165.06,112c.11-.43-2.78-1-4.34-3.88-1.57-2.87-.64-5.89-1.04-5.99-.17-.08-.7.58-.99,1.87-.29,1.27-.25,3.21.71,4.97.96,1.76,2.51,2.73,3.68,3.06,1.19.35,1.97.17,1.99-.04Z"/>
      </g>
      <g>
        <path class="cls-12" d="M106.53,119l16.14,2.12c1.34,11.67,20.08,27.26,36.36,19.71l27.01,23.42c-.72.7-16.12,34.27-32.36,65.11-4.41,8.37-9.53,16-13.06,23.07l-1.74,23.21c-27.52,6.32-58.29,1.86-79.82-10.81-9.88-5.95-19.08-12.83-26.83-21.32l29.81-100.88s-.73-17.43,16.03-21.98c8.86-2.4,14.36-2.22,18.76-2.19,1.68,0,7.1.28,9.71.54Z"/>
        <path class="cls-12" d="M166.39,155.41s20.26,1.55,24.88,17.95-.51,78.3-.51,78.3l29,12.43-4.59,21.58s-28.61,2.82-47.11-1.8c-18.49-4.62-7.56-97.35-7.56-97.35l5.88-31.1Z"/>
        <path class="cls-1" d="M181.98,184.03s-.13.26-.41.73c-.3.51-.71,1.19-1.22,2.05-1.09,1.83-2.61,4.39-4.49,7.55-3.83,6.4-9.07,15.18-14.87,24.87-5.83,9.68-11.1,18.43-14.95,24.82-1.91,3.13-3.47,5.68-4.58,7.49-.53.85-.95,1.52-1.27,2.02-.29.46-.46.7-.47.69-.02,0,.12-.26.38-.74.29-.52.69-1.21,1.18-2.07,1.07-1.83,2.58-4.41,4.44-7.58,3.82-6.41,9.05-15.19,14.82-24.9,5.82-9.7,11.12-18.47,15-24.79,1.94-3.16,3.52-5.71,4.63-7.46.56-.87.99-1.55,1.3-2,.31-.45.48-.68.5-.67Z"/>
      </g>
      <path class="cls-12" d="M57.21,134.99S6.41,203.79,16.41,219.59c16.35,25.82,89.58,12.19,89.58,12.19l-1.65-34.3-40.85.46,22.82-41.71,13.95-37.6c-17.57-1.08-31.08.17-43.06,16.35Z"/>
      <path class="cls-1" d="M76.81,173.2s-.11.38-.4,1.02c-.29.64-.72,1.56-1.27,2.68-1.1,2.25-2.68,5.34-4.51,8.7-1.83,3.36-3.55,6.37-4.84,8.52-.64,1.08-1.18,1.94-1.56,2.53-.38.59-.61.9-.64.89-.03-.02.14-.37.47-.99.39-.72.86-1.59,1.42-2.61,1.26-2.31,2.89-5.29,4.7-8.58,1.78-3.31,3.39-6.3,4.64-8.62.56-1.02,1.03-1.89,1.42-2.61.34-.61.55-.94.58-.93Z"/>
      <g>
        <g>
          <path class="cls-6" d="M74.61,170.95l139.57,142.43,34.33-31.11L106,139.86c-8.49-8.48-22.19-8.64-30.87-.35h0c-8.9,8.5-9.14,22.64-.52,31.43Z"/>
          <path class="cls-11" d="M248.51,282.27l7.9,36.29c.73,3.37-2.4,6.31-5.72,5.35l-36.51-10.53,34.33-31.11Z"/>
          <path class="cls-12" d="M255.59,314.78l.99,4.6c.67,3.1-2.27,5.77-5.3,4.81l-4.15-1.32,8.46-8.1Z"/>
          <path class="cls-1" d="M75.13,139.51h0c8.16-7.79,20.76-8.12,29.29-1.08l-31.18,30.97s-.06-.06-.08-.09l-.11-.14c-6.98-8.83-6.24-21.71,2.08-29.66Z"/>
        </g>
        <path class="cls-1" d="M75.2,139.45s-.32.36-.97,1.06c-.16.17-.34.37-.54.58-.19.23-.37.49-.59.77-.21.28-.44.58-.68.9-.25.32-.44.71-.69,1.1-.98,1.55-1.94,3.66-2.55,6.27-.61,2.61-.84,5.77-.24,9.21.61,3.42,2.13,7.13,4.81,10.42,1.37,1.62,2.99,3.15,4.6,4.82,1.62,1.65,3.31,3.36,5.05,5.14,6.98,7.11,14.92,15.19,23.71,24.14,17.56,17.89,38.46,39.2,61.67,62.86,11.6,11.83,23.78,24.25,36.41,37.13,1.58,1.61,3.16,3.23,4.75,4.85.8.81,1.59,1.62,2.39,2.43.8.78,1.72,1.44,2.71,1.97.99.54,2.05.89,3.17,1.19,1.11.32,2.21.64,3.32.96,2.22.64,4.45,1.28,6.69,1.93,4.47,1.29,8.98,2.59,13.52,3.9,2.27.65,4.54,1.31,6.83,1.97l1.71.49c.58.19,1.11.29,1.68.3,1.12,0,2.24-.47,3.03-1.28.8-.8,1.28-1.91,1.26-3.04.02-.56-.14-1.11-.26-1.71l-.38-1.74c-.51-2.32-1.01-4.64-1.51-6.94-1-4.61-2-9.2-2.99-13.75-.5-2.28-.99-4.54-1.48-6.8-.25-1.13-.49-2.26-.74-3.38-.22-1.11-.62-2.16-1.22-3.1-.58-.95-1.42-1.7-2.23-2.52-.81-.81-1.61-1.61-2.42-2.42-1.61-1.61-3.21-3.21-4.8-4.8-12.76-12.75-25.06-25.06-36.78-36.77-23.43-23.44-44.53-44.56-62.26-62.29-8.86-8.87-16.87-16.89-23.9-23.94-3.53-3.51-6.77-6.83-9.82-9.8-.39-.36-.78-.71-1.16-1.06-.42-.31-.83-.61-1.24-.92-.4-.32-.83-.57-1.26-.82-.43-.25-.84-.52-1.27-.74-.88-.41-1.71-.85-2.59-1.13-.44-.15-.85-.33-1.29-.44-.43-.11-.86-.22-1.28-.33-3.4-.83-6.57-.68-9.2-.18-.65.16-1.29.26-1.89.44-.59.19-1.15.37-1.69.55-1.04.45-2.01.82-2.79,1.3-.4.23-.78.43-1.13.64-.33.23-.64.44-.93.64-.29.2-.55.38-.79.55-.22.19-.43.36-.61.51-.72.61-1.1.91-1.1.91,0,0,.36-.33,1.07-.95.18-.16.38-.33.6-.52.24-.17.5-.36.79-.56.29-.2.6-.42.93-.66.35-.21.73-.42,1.13-.65.79-.49,1.75-.87,2.8-1.33.54-.18,1.11-.37,1.7-.57.6-.19,1.24-.3,1.9-.46,2.65-.52,5.84-.68,9.28.14.43.11.86.22,1.3.33.44.12.86.3,1.3.44.89.27,1.74.72,2.62,1.13.44.21.85.49,1.29.74.43.25.87.51,1.27.83.41.3.83.61,1.25.92.39.35.78.71,1.18,1.07,3.07,2.97,6.32,6.27,9.86,9.77,7.05,7.03,15.08,15.04,23.96,23.88,17.74,17.71,38.87,38.79,62.33,62.21,11.73,11.71,24.04,24.01,36.8,36.75,1.6,1.59,3.2,3.19,4.81,4.8.8.8,1.61,1.61,2.42,2.42.79.8,1.68,1.59,2.3,2.61.64.99,1.07,2.12,1.29,3.27.25,1.12.49,2.25.74,3.38.49,2.26.99,4.53,1.48,6.8.99,4.55,1.99,9.13,2.99,13.75.5,2.31,1.01,4.62,1.51,6.94l.38,1.74c.12.57.29,1.18.27,1.82.02,1.26-.52,2.52-1.41,3.41-.88.9-2.13,1.43-3.4,1.43-.62,0-1.27-.14-1.82-.32l-1.71-.49c-2.28-.66-4.56-1.31-6.83-1.97-4.54-1.31-9.04-2.61-13.52-3.9-2.24-.65-4.47-1.29-6.69-1.93-1.11-.32-2.22-.64-3.32-.96-1.1-.29-2.25-.67-3.27-1.23-1.03-.55-1.99-1.24-2.82-2.05-.8-.82-1.6-1.63-2.4-2.44-1.59-1.62-3.18-3.24-4.75-4.85-12.62-12.88-24.79-25.31-36.38-37.15-23.18-23.69-44.06-45.02-61.59-62.93-8.76-8.96-16.69-17.07-23.65-24.19-1.74-1.78-3.42-3.5-5.04-5.15-1.6-1.67-3.21-3.2-4.6-4.85-2.7-3.34-4.22-7.09-4.82-10.54-.59-3.48-.34-6.66.29-9.28.63-2.63,1.61-4.74,2.61-6.29.25-.39.45-.78.7-1.1.25-.32.48-.62.7-.9.22-.28.41-.54.6-.76.2-.21.39-.4.55-.57.66-.68,1-1.02,1-1.02Z"/>
        <g>
          <g>
            <path class="cls-5" d="M208.48,255.41c.47-1.23,1.36-2.25,2.31-3.16.95-.92,2.71-2.64,3.51-3.69l6.16-5.72c4.12-1.2,5.94,2.92,4.8,5.01,1.19-.42,1.65-.96,2.88-.68,1.23.28,2.38,1.1,2.85,2.27.48,1.17.15,2.67-.9,3.39,1.94-.19,3.93.96,4.74,2.73.49,1.06.52,2.31.17,3.42-.18.56-.46,1.07-.82,1.53-.13.16-.26.38-.45.49-.09.05-.19.08-.29.09-.47.08-.94.07-1.4.18-.18.04-.35.09-.52.14-.78.25-1.52.62-2.21,1.07-.31.21-.61.5-.95.66-.23.11-.49.1-.74.16-1.55.41-2.85,1.59-4.06,2.57-1.36,1.11-2.86,2.23-4.61,2.41-1.75.18-3.76-.97-3.84-2.73-.74.84-2.16.85-3.05.16-.88-.69-1.25-1.91-1.11-3.02.14-1.11.71-2.13,1.4-3.01-1,.86-2.68.52-3.49-.52-.81-1.03-.85-2.52-.39-3.76Z"/>
            <path class="cls-5" d="M237.78,263.51c.69.84,1.23,1.91,1.03,2.98-.24,1.27-1.65,2.56-2.73,3.26-1.14-1.02-1.66-1.61-2.8-2.63-.24-.22-.34-.47-.65-.57-.81-.25-2.06.85-2.87,1.11-1.4.46-3.03-.54-3.46-1.95-.43-1.41.19-3.01,1.32-3.97,1.13-.95,2.67-1.31,4.14-1.25,2.3.11,4.54,1.23,6.01,3.01Z"/>
            <path class="cls-7" d="M230.44,252.54c-.18-.22-3.76,2.52-7.99,6.11-4.23,3.59-7.51,6.68-7.33,6.89.18.21,3.76-2.52,7.99-6.11,4.23-3.59,7.51-6.68,7.32-6.89Z"/>
            <path class="cls-7" d="M225.48,247.63c-.15-.22-3.63,1.98-7.37,5.39-3.75,3.4-6.26,6.66-6.05,6.84.22.19,3.04-2.73,6.74-6.08,3.68-3.37,6.85-5.91,6.68-6.15Z"/>
          </g>
          <path class="cls-7" d="M220.63,242.83c-.17-.23-2.96,1.75-5.91,4.68-2.96,2.92-5.18,5.43-5,5.63.2.22,2.77-1.99,5.72-4.9,2.94-2.91,5.37-5.19,5.2-5.41Z"/>
          <path class="cls-7" d="M235.9,262.21c.1-.07-.21-.75-1.22-1.28-.98-.55-2.65-.75-4.25-.23-1.61.53-2.81,1.23-3.71,1.97-.92.86-.65,1.79-.51,1.71.14,0,.18-.66.97-1.15.79-.45,2.15-1.1,3.55-1.55,1.43-.45,2.76-.38,3.68-.08.91.29,1.39.72,1.51.62Z"/>
        </g>
        <g>
          <path class="cls-5" d="M104.43,199.03l13.62-.15s6.29-7.65,10.48-10.45c4.19-2.8,4.89-8.39,7.69-8.04s4.89,5.23,2.8,8.03c-2.1,2.8-3.49,4.55-3.49,4.55,0,0,13.67-7.36,18.61-7.17,4.27.16,3.05,2.62,3.05,2.62,0,0,4.02-.89,7.51,1.56,3.49,2.45.88,5.09.88,5.09,0,0,4.87-.1,5.92,3.39,1.05,3.49.02,4.3.02,4.3,0,0,5.59,1.05,3.49,5.94-2.1,4.89-19.9,10.48-30.39,11.53-10.49,1.05-38.61,5.34-38.61,5.34l-1.57-26.53Z"/>
          <g>
            <path class="cls-12" d="M28.97,229.66c25.4,4.66,50.89,6.26,77.03,1.65l-1.57-32.28-40.92-1.56-16.45,3.61"/>
            <path class="cls-1" d="M47.05,201.08s.09-.04.28-.08c.21-.05.48-.12.83-.2.76-.18,1.83-.43,3.22-.75,2.84-.64,6.94-1.56,12.09-2.73h.02s.02,0,.02,0c10.18.36,24.42.88,40.93,1.47h.23s.01.24.01.24c.4,8.06.83,16.84,1.28,25.96.11,2.17.21,4.31.31,6.32v.23s-.21.04-.21.04c-21.44,3.78-41.03,2.97-54.86,1.47-6.94-.74-12.49-1.6-16.31-2.27-1.91-.31-3.38-.62-4.38-.8-.48-.09-.86-.17-1.13-.22-.25-.05-.38-.08-.38-.09,0,0,.13,0,.39.04.28.04.66.1,1.14.18,1.03.17,2.51.4,4.4.71,3.82.6,9.38,1.41,16.31,2.1,13.82,1.4,33.36,2.14,54.74-1.63l-.21.27c-.1-2.01-.2-4.16-.31-6.32-.44-9.12-.86-17.9-1.25-25.96l.24.24c-16.51-.67-30.74-1.24-40.92-1.65h.04c-5.16,1.1-9.28,1.97-12.12,2.58-1.39.29-2.48.51-3.24.67-.35.07-.63.12-.84.16-.19.03-.29.05-.29.04Z"/>
          </g>
        </g>
      </g>
    </g>
  </g>
  <g id="Speech_Bubble_1">
    <g>
      <g>
        <path class="cls-3" d="M105.46,95.32l-10.29-3.84c-5.33,3.29-11.61,5.19-18.34,5.19-19.34,0-35.02-15.68-35.02-35.02,0-19.34,15.68-35.02,35.02-35.02,19.34,0,35.02,15.68,35.02,35.02,0,8.08-2.74,15.51-7.33,21.43h.02s.93,12.24.93,12.24Z"/>
        <path class="cls-1" d="M105.46,95.32s-.03-.28-.08-.81c-.05-.55-.11-1.33-.2-2.35-.17-2.07-.43-5.12-.76-9.08l.18.08h-.02s-.12.04-.15,0c-.03-.04-.03-.1,0-.13,2.77-3.63,5.73-8.95,6.81-15.85.27-1.72.43-3.52.43-5.38-.09-1.86-.12-3.8-.5-5.75-.64-3.91-2-7.97-4.22-11.79-2.21-3.82-5.29-7.39-9.12-10.29-3.82-2.9-8.41-5.11-13.43-6.23-9.99-2.34-21.76.2-30.28,7.64-4.31,3.79-7.73,8.5-9.67,13.68-1.99,5.15-2.7,10.64-2.24,15.85.44,5.23,2.17,10.14,4.63,14.35,2.48,4.22,5.74,7.73,9.33,10.39,3.6,2.67,7.53,4.5,11.39,5.57.49.13.97.25,1.45.38.48.13.95.25,1.44.31.96.15,1.91.29,2.83.44,1.88.08,3.69.26,5.43.14,7-.36,12.58-2.73,16.4-5.06.03-.02.06-.02.09,0,3.31,1.27,5.86,2.24,7.6,2.9.86.33,1.51.58,1.97.76.45.17.68.27.68.27,0,0-.21-.07-.65-.23-.46-.16-1.11-.4-1.96-.71-1.77-.64-4.35-1.59-7.71-2.81h.09c-3.82,2.37-9.42,4.8-16.49,5.19-1.76.13-3.59-.04-5.48-.11-.94-.14-1.89-.28-2.87-.43-.49-.06-.97-.17-1.45-.3-.48-.12-.97-.25-1.46-.37-3.91-1.07-7.89-2.9-11.54-5.6-3.65-2.69-6.96-6.23-9.47-10.5-2.51-4.26-4.26-9.23-4.72-14.53-.48-5.28.23-10.84,2.25-16.07,1.96-5.25,5.42-10.04,9.8-13.88.51-.5,1.09-.91,1.66-1.34l1.71-1.27,1.81-1.1c.6-.37,1.2-.74,1.84-1.02.63-.3,1.26-.61,1.89-.91.62-.32,1.3-.5,1.94-.76.65-.23,1.29-.5,1.96-.69.67-.17,1.33-.34,2-.51,5.33-1.29,10.83-1.31,15.9-.14,5.08,1.14,9.73,3.39,13.6,6.33,3.88,2.94,6.98,6.57,9.21,10.44,2.24,3.87,3.6,7.98,4.24,11.94.38,1.98.4,3.93.49,5.81,0,1.88-.17,3.7-.45,5.43-1.12,6.96-4.14,12.31-6.97,15.93l-.15-.15h.02s.12-.04.15,0c.01.02.02.04.02.06.27,4,.48,7.07.63,9.17.07,1.01.12,1.79.15,2.33.03.52.04.77.04.77Z"/>
      </g>
      <path class="cls-6" d="M69.25,48.65c1.13-.68,2.33-1.2,3.56-1.55l.73-3.53,5.96-.1.86,3.5c1.25.31,2.47.78,3.61,1.42l3.01-1.97,4.29,4.14-1.87,3.08c.68,1.13,1.2,2.33,1.55,3.56l3.53.73.1,5.96-3.5.86c-.31,1.25-.78,2.46-1.42,3.61l1.97,3.01-4.14,4.29-3.08-1.87c-1.13.68-2.33,1.2-3.56,1.55l-.73,3.53-5.96.1-.86-3.5c-1.25-.31-2.46-.78-3.61-1.42l-3.01,1.97-4.29-4.14,1.87-3.08c-.68-1.13-1.2-2.33-1.55-3.56l-3.53-.73-.1-5.96,3.5-.86c.31-1.25.78-2.46,1.42-3.61l-1.97-3.01,4.14-4.29,3.08,1.87h0ZM72.42,56.59c-2.45,2.54-2.38,6.59.16,9.04,2.54,2.45,6.59,2.38,9.04-.16,2.45-2.54,2.38-6.59-.16-9.04s-6.59-2.38-9.04.16Z"/>
    </g>
  </g>
</svg>