<?xml version="1.0" encoding="UTF-8"?>
<svg id="Layer_1" xmlns="http://www.w3.org/2000/svg" width="653.09" height="400" viewBox="0 0 653.09 400">
  <defs>
    <style>
      .cls-1 {
        fill: #0f1936;
      }

      .cls-1, .cls-2, .cls-3, .cls-4, .cls-5, .cls-6, .cls-7, .cls-8, .cls-9, .cls-10, .cls-11, .cls-12, .cls-13, .cls-14, .cls-15, .cls-16, .cls-17, .cls-18, .cls-19, .cls-20, .cls-21, .cls-22, .cls-23, .cls-24, .cls-25, .cls-26, .cls-27, .cls-28, .cls-29, .cls-30, .cls-31, .cls-32 {
        fill-rule: evenodd;
      }

      .cls-2 {
        fill: #1a293d;
      }

      .cls-3 {
        fill: #dff0f2;
      }

      .cls-4 {
        fill: #d2cfd7;
      }

      .cls-33 {
        fill: #e6e5eb;
      }

      .cls-5 {
        fill: #0d101a;
      }

      .cls-34 {
        fill: #90a9d4;
      }

      .cls-35, .cls-8 {
        fill: #fff;
      }

      .cls-6 {
        fill: #555b6c;
      }

      .cls-7 {
        stroke: #0f1732;
        stroke-miterlimit: 22.93;
        stroke-width: .22px;
      }

      .cls-7, .cls-9 {
        fill: #101730;
      }

      .cls-36, .cls-27 {
        fill: #adabbb;
      }

      .cls-10 {
        fill: #e64e92;
      }

      .cls-37 {
        fill: #b6c6e6;
      }

      .cls-11 {
        fill: #171c39;
      }

      .cls-12 {
        fill: #3e4255;
      }

      .cls-13, .cls-38 {
        fill: #b92f6d;
      }

      .cls-14 {
        fill: #0a0b12;
      }

      .cls-15 {
        fill: #e1e7f5;
      }

      .cls-16 {
        fill: #0776bd;
      }

      .cls-17 {
        fill: #1c2344;
      }

      .cls-18, .cls-39 {
        fill: #e2e1e7;
      }

      .cls-19 {
        fill: #4a4f6b;
      }

      .cls-20 {
        fill: #f3ae84;
      }

      .cls-40 {
        fill: #a8a6b5;
      }

      .cls-41, .cls-32 {
        fill: #3a3e5d;
      }

      .cls-21 {
        fill: #c9c4d1;
      }

      .cls-22 {
        fill: #ed9172;
      }

      .cls-23 {
        fill: #0c4b81;
      }

      .cls-24 {
        fill: #f0eef0;
      }

      .cls-25 {
        fill: #e8685b;
      }

      .cls-26 {
        fill: #becce9;
      }

      .cls-28 {
        fill: #9692a0;
      }

      .cls-42 {
        font-family: OpenSans-Extrabold, 'Open Sans';
        font-size: 24.53px;
        font-weight: 700;
      }

      .cls-42, .cls-30, .cls-43 {
        fill: #0f1732;
      }

      .cls-29 {
        fill: #03314b;
      }

      .cls-31 {
        fill: #cec9d0;
      }
    </style>
  </defs>
  <g>
    <g>
      <path class="cls-15" d="M148.74,263.16h-54.13c-29.13,0-52.97,23.84-52.97,52.97h0c0,29.13,23.83,52.97,52.97,52.97h457.7c47.17,0,85.77-38.6,85.77-85.77h0c0-47.17-38.6-85.77-85.77-85.77h0c-19.95,0-36.26-16.32-36.26-36.27h0c0-19.95,16.32-36.27,36.27-36.27h43.65c20.74,0,37.7-16.97,37.7-37.7h0c0-20.74-16.97-37.7-37.7-37.7h-55.19c-8.07,0-14.68-6.61-14.68-14.68h0c0-8.07,6.61-14.68,14.68-14.68h9.73c5.57,0,10.13-4.56,10.13-10.13h0c0-5.57-4.56-10.13-10.13-10.13h-63.84c-13.45,0-14.94,15.88-48.9,15.88h-97.85c-7.27,0-13.22,5.95-13.22,13.22h0c0,7.27,5.95,13.22,13.22,13.22h12.69c10.54,0,19.15,8.62,19.15,19.15h0c0,10.53-8.62,19.15-19.15,19.15h-19.1c-51.59,0-58.88,13.48-67.91,40.3-9.04,26.82-55.96,28.98-55.96,28.98h-64.17c-15.88,0-28.86,12.99-28.86,28.86h0c0,15.88,12.99,28.86,28.86,28.86h3.3c15.27,0,27.76,12.49,27.76,27.76h0c0,15.27-12.49,27.76-27.76,27.76h0ZM578.92,20.26c-5.6,0-10.13-4.54-10.13-10.13s4.54-10.13,10.13-10.13,10.13,4.54,10.13,10.13-4.54,10.13-10.13,10.13Z"/>
      <g>
        <path class="cls-26" d="M153.29,369.1h4.64v-28.16l17.58,17.58-10.58,10.58h4.37l8.4-8.39,8.39,8.39h4.37l-10.58-10.58,17.58-17.58v28.16h4.64v-219.19h-4.64v5.34l-5.34-5.34h-4.37l9.71,9.71v.27l-19.77,19.77-19.77-19.77v-.27l9.71-9.71h-4.37l-5.34,5.34v-5.34h-4.64v58.11c1.59.27,3.15.67,4.64,1.2v-.79l1.28,1.27c6.88,2.83,12.4,8.35,15.23,15.23l1.08,1.08-.49.49c.38,1.12.69,2.27.93,3.44l1.74-1.74,19.77,19.77v.27l-19.77,19.77-11.25-11.25c-.8.67-1.64,1.29-2.51,1.86l11.58,11.58-17.58,17.58v-26.17c-1.49.53-3.04.93-4.64,1.2v106.31h0ZM157.93,331.93v-35.16l17.58,17.58-17.58,17.58h0ZM157.93,199.42v-35.16l17.58,17.58-17.58,17.58h0ZM197.46,164.25v35.16l-17.58-17.58,17.58-17.58h0ZM197.46,208.43v35.16l-17.58-17.58,17.58-17.58h0ZM197.46,252.6v35.16l-17.58-17.58,17.58-17.58h0ZM197.46,296.77v35.16l-17.58-17.58,17.58-17.58h0ZM157.93,203.79l19.77-19.77,19.77,19.77v.27l-19.77,19.77-19.77-19.77v-.27h0ZM157.93,292.13l19.77-19.77,19.77,19.77v.27l-19.77,19.77-19.77-19.77v-.27h0ZM157.93,336.3l19.77-19.77,19.77,19.77v.27l-19.77,19.77-19.77-19.77v-.27Z"/>
        <path class="cls-26" d="M477.61,369.1h4.64v-28.16l17.58,17.58-10.58,10.58h4.37l8.4-8.39,8.4,8.39h4.37l-10.58-10.58,17.58-17.58v28.16h4.64v-182.47c-1.73-1.77-3.29-3.72-4.64-5.81v18.6l-17.58-17.58,12.7-12.7c-.27-1.23-.48-2.48-.63-3.74l-14.26,14.26-19.77-19.77v-.27l19.77-19.77,14.67,14.67c.23-1.19.51-2.37.86-3.51l-13.34-13.34,17.58-17.58v21.69c1.35-2.09,2.9-4.04,4.64-5.81V38.07c-.22-1.01-.34-2.05-.34-3.13h0c0-1.07.12-2.12.34-3.13V0h-4.64v22.73l-17.58-17.58,5.15-5.15h-4.37l-2.97,2.97-2.97-2.97h-4.37l5.15,5.15-17.58,17.58V.63c-1.64.49-3.14,1.24-4.64,2.15v366.32h0ZM482.25,331.93v-35.16l17.58,17.58-17.58,17.58h0ZM482.25,287.76v-35.16l17.58,17.58-17.58,17.58h0ZM482.25,243.59v-35.16l17.58,17.58-17.58,17.58h0ZM482.25,199.42v-35.16l17.58,17.58-17.58,17.58h0ZM482.25,155.25v-35.16l17.58,17.58-17.58,17.58h0ZM482.25,111.08v-35.16l17.58,17.58-17.58,17.58h0ZM482.25,66.9V31.74l17.58,17.58-17.58,17.58h0ZM521.78,31.74v35.16l-17.58-17.58,17.58-17.58h0ZM521.78,75.91v35.16l-17.58-17.58,17.58-17.58h0ZM521.78,208.43v35.16l-17.58-17.58,17.58-17.58h0ZM521.78,252.6v35.16l-17.58-17.58,17.58-17.58h0ZM521.78,296.77v35.16l-17.58-17.58,17.58-17.58h0ZM482.25,27.11l19.77-19.77,19.77,19.77v.27l-19.77,19.77-19.77-19.77v-.27h0ZM482.25,71.28l19.77-19.77,19.77,19.77v.27l-19.77,19.77-19.77-19.77v-.27h0ZM482.25,115.45l19.77-19.77,19.77,19.77v.27l-19.77,19.77-19.77-19.77v-.27h0ZM482.25,203.79l19.77-19.77,19.77,19.77v.27l-19.77,19.77-19.77-19.77v-.27h0ZM482.25,247.96l19.77-19.77,19.77,19.77v.27l-19.77,19.77-19.77-19.77v-.27h0ZM482.25,292.13l19.77-19.77,19.77,19.77v.27l-19.77,19.77-19.77-19.77v-.27h0ZM482.25,336.3l19.77-19.77,19.77,19.77v.27l-19.77,19.77-19.77-19.77v-.27Z"/>
        <path class="cls-26" d="M136.88,263.16h-6.83v8.38l-8.38-8.38h-6.44l14.82,14.82v.39l-29.13,29.12-29.13-29.12v-.39l14.09-14.09c-2.98.5-5.88,1.25-8.67,2.23l-5.42,5.42v-3.18c-2.38,1.14-4.66,2.46-6.83,3.94v87.66c2.17,1.47,4.45,2.79,6.83,3.94v-14l19.06,19.07c1.24.09,2.49.13,3.75.13h2.83l-25.64-25.64v-.39l29.13-29.13,29.13,29.13v.39l-25.64,25.64h6.44l19.2-19.2v19.2h6.83v-105.94h0ZM136.88,151.21c-6.86,2.14-12.64,6.79-16.26,12.86l9.42-9.42v48.52c2.11,1.34,4.4,2.41,6.83,3.17v-55.13h0ZM71.79,336.62v-51.81l25.91,25.9-25.91,25.91h0ZM130.04,284.81v51.81l-25.91-25.91,25.91-25.9Z"/>
        <path class="cls-26" d="M542.83,369.1h6.83v-19.2l17.84,17.84c1.79-.32,3.55-.71,5.3-1.14l-23.14-23.14v-.39l29.12-29.13,29.12,29.13v.39l-15.74,15.74c8.45-4.47,16.07-10.32,22.57-17.23v-117.27c-2.95-3.14-6.13-6.06-9.51-8.73l-26.45,26.45-29.12-29.12v-.39l14.51-14.51c-1.92-.27-3.87-.48-5.83-.61l-8.68,8.68v-8.99c-2.35-.17-4.63-.57-6.83-1.17v172.8h0ZM542.83,126.29c2.2-.6,4.49-1,6.83-1.17v-35.56l25.9,25.91-9.56,9.56h6.44l6.34-6.34,6.34,6.34h6.44l-9.56-9.56,25.9-25.91v33.51c2.39-.81,4.68-1.85,6.83-3.1V54.68c-2.15-1.25-4.44-2.29-6.83-3.1v24.71l-25.9-25.9.76-.76h-7.97l.76.76-25.9,25.9v-26.67h-6.83v76.67h0ZM542.83,20.26h7.65c.45,0,.89-.03,1.32-.09l-2.14-2.14v-.39l10.5-10.5c-.48-1.53-1.31-2.91-2.4-4.04l-8.1,8.1V0h-6.83v20.26h0ZM549.67,336.62v-51.81l25.9,25.9-25.9,25.91h0ZM549.67,271.54v-51.81l25.9,25.9-25.9,25.91h0ZM607.92,219.73v51.81l-25.9-25.91,25.9-25.9h0ZM607.92,284.81v51.81l-25.9-25.91,25.9-25.9h0ZM549.67,82.73l29.12-29.12,29.12,29.12v.39l-29.12,29.13-29.12-29.13v-.39h0ZM549.67,277.98l29.12-29.13,29.12,29.13v.39l-29.12,29.12-29.12-29.12v-.39Z"/>
      </g>
      <g>
        <g>
          <rect class="cls-34" x="123.42" y="284.79" width="53.45" height="39.72" rx="3.43" ry="3.43"/>
          <rect class="cls-37" x="153.98" y="284.79" width="53.45" height="39.72" rx="3.43" ry="3.43"/>
          <path class="cls-34" d="M163.46,297.91h34.49c1.08,0,1.96.88,1.96,1.96v9.56c0,1.08-.88,1.96-1.96,1.96h-34.49c-1.08,0-1.96-.88-1.96-1.96v-9.56c0-1.08.88-1.96,1.96-1.96Z"/>
          <path class="cls-33" d="M165.94,300.2h16.96c.24,0,.43.19.43.43v2.09c0,.24-.19.43-.43.43h-16.96c-.24,0-.43-.19-.43-.43v-2.09c0-.24.19-.43.43-.43Z"/>
          <path class="cls-33" d="M165.93,304.86h8.38c.24,0,.43.19.43.43v2.09c0,.24-.19.43-.43.43h-8.38c-.24,0-.43-.19-.43-.43v-2.09c0-.24.19-.43.43-.43Z"/>
        </g>
        <g>
          <path class="cls-34" d="M157.35,324.51h55.82c2.27,0,4.11,1.84,4.11,4.11v39.37c0,2.27-1.84,4.11-4.11,4.11h-55.82c-2.27,0-4.11-1.84-4.11-4.11v-39.37c0-2.27,1.84-4.11,4.11-4.11Z"/>
          <path class="cls-37" d="M120.72,324.51h55.82c2.27,0,4.11,1.84,4.11,4.11v39.37c0,2.27-1.84,4.11-4.11,4.11h-55.82c-2.27,0-4.11-1.84-4.11-4.11v-39.37c0-2.27,1.84-4.11,4.11-4.11Z"/>
          <rect class="cls-34" x="125.62" y="340.23" width="46.03" height="16.16" rx="2.35" ry="2.35"/>
          <rect class="cls-33" x="145.5" y="342.97" width="21.35" height="3.53" rx=".51" ry=".51"/>
          <rect class="cls-33" x="155.78" y="348.55" width="11.07" height="3.53" rx=".51" ry=".51"/>
        </g>
      </g>
      <path class="cls-26" d="M412.77,110.91c1.38-1.39,3.04-2.5,4.89-3.27,1.78-.74,3.72-1.14,5.75-1.14s3.98.41,5.75,1.14c1.85.76,3.51,1.88,4.89,3.27,1.38,1.38,2.5,3.04,3.27,4.89.74,1.78,1.14,3.72,1.14,5.75s-.41,3.98-1.14,5.76c-.77,1.85-1.88,3.51-3.27,4.89-1.38,1.38-3.04,2.5-4.89,3.27-1.78.74-3.72,1.14-5.76,1.14s-3.98-.41-5.75-1.14c-1.85-.76-3.51-1.88-4.89-3.27-1.38-1.38-2.5-3.04-3.27-4.89-.74-1.78-1.14-3.72-1.14-5.76s.41-3.98,1.14-5.75c.76-1.85,1.88-3.51,3.27-4.89h0ZM418.19,108.93c-1.67.69-3.17,1.71-4.43,2.97-1.26,1.26-2.28,2.77-2.97,4.43-.66,1.61-1.03,3.37-1.03,5.23s.37,3.62,1.03,5.23c.69,1.67,1.71,3.17,2.97,4.43,1.26,1.26,2.77,2.28,4.43,2.97,1.61.67,3.37,1.03,5.23,1.03s3.62-.37,5.22-1.03c1.67-.69,3.17-1.71,4.44-2.97,1.26-1.26,2.28-2.77,2.97-4.43.66-1.61,1.03-3.37,1.03-5.23s-.37-3.62-1.03-5.23c-.69-1.67-1.71-3.17-2.97-4.43-1.26-1.26-2.77-2.28-4.43-2.97-1.61-.67-3.37-1.03-5.23-1.03s-3.62.37-5.23,1.03h0ZM416.52,97.85c-.94.27-1.87.6-2.77.99-.92.39-1.81.84-2.66,1.33-.87.5-1.71,1.06-2.51,1.66-.81.61-1.57,1.26-2.29,1.96-.26.25-.57.39-.9.43-.33.04-.68-.03-.98-.2-2.21-1.28-4.54-2.54-6.7-3.87-.1-.06-.21-.09-.33-.1-.12-.01-.25,0-.37.03-.12.03-.24.09-.34.16-.1.07-.18.17-.24.28-1.61,2.44-3.23,5.59-4.72,8.18-.06.11-.1.23-.12.35-.02.12,0,.25.03.38.03.12.09.24.16.34.07.1.17.18.28.24,1.99,1.31,4.55,2.63,6.66,3.85.31.18.54.44.66.75.05.11.08.22.1.33l.14.05-.15.62c-.12.49-.23.98-.32,1.46-.09.47-.16.97-.22,1.49-.06.5-.11,1-.14,1.5-.03.48-.04.99-.04,1.51s.01,1.03.04,1.51c.03.49.08,1,.14,1.5.06.52.14,1.01.22,1.48.09.49.2.98.32,1.46.09.36.05.73-.1,1.04-.14.31-.39.58-.71.74l-5.9,3.41h0s-.7.41-.7.41c-.11.06-.21.15-.28.24-.08.1-.13.22-.16.34-.03.13-.04.26-.03.38.02.12.05.24.12.35l4.37,7.57h0s.35.61.35.61c.06.11.15.2.24.28.1.08.22.13.34.16.12.03.25.04.38.03.12-.02.24-.05.35-.12,2.11-1.33,4.5-2.59,6.67-3.85.31-.18.65-.24.98-.2.33.04.65.19.9.43h0c.72.7,1.49,1.35,2.29,1.96.8.6,1.64,1.16,2.51,1.66.86.5,1.76.95,2.68,1.34.91.39,1.85.72,2.82,1,.34.1.63.3.83.57.2.27.32.6.32.95v7.7c0,.13.03.25.07.36.05.11.12.22.21.31.09.09.19.16.31.21.11.05.23.07.36.07h9.44c.13,0,.25-.03.36-.07.12-.05.22-.12.31-.21.09-.09.16-.2.21-.31.05-.11.07-.23.07-.36v-7.7c0-.37.13-.71.34-.98.22-.28.52-.48.87-.56.94-.27,1.87-.6,2.77-.99.92-.39,1.81-.84,2.66-1.33.87-.5,1.71-1.06,2.51-1.66.81-.61,1.57-1.26,2.29-1.96.27-.26.6-.4.95-.43.35-.03.71.05,1.01.25l6.59,3.8c.11.06.23.1.35.12.12.02.25,0,.38-.03.12-.03.24-.09.34-.16.1-.07.18-.17.24-.28,1.57-2.73,3.16-5.45,4.72-8.18.06-.11.1-.23.12-.35.02-.12,0-.25-.03-.38-.03-.12-.09-.24-.16-.34-.07-.1-.16-.18-.27-.24l-6.67-3.85c-.31-.18-.54-.44-.66-.75-.04-.08-.06-.17-.08-.25l-.17-.04.17-.71c.12-.49.23-.98.32-1.46.09-.47.16-.97.23-1.49.06-.5.11-1,.14-1.5.03-.48.04-.99.04-1.51s-.01-1.03-.04-1.51c-.03-.49-.08-.99-.14-1.5-.06-.52-.14-1.02-.23-1.49-.09-.48-.2-.97-.32-1.46-.09-.36-.04-.73.1-1.04.15-.31.39-.57.71-.74l6.6-3.81c.11-.06.2-.15.27-.24.08-.1.13-.21.16-.34.03-.13.04-.25.03-.38-.02-.12-.05-.24-.12-.35-1.61-2.4-3.23-5.6-4.72-8.18-.06-.11-.15-.2-.24-.28-.1-.08-.22-.13-.34-.16-.12-.03-.25-.04-.38-.03-.12.01-.24.05-.35.12l-6.67,3.85c-.31.18-.67.25-1,.2-.33-.05-.65-.2-.9-.45-.72-.7-1.49-1.35-2.28-1.95-.79-.6-1.63-1.15-2.5-1.65-.86-.5-1.76-.95-2.68-1.34-.91-.39-1.85-.72-2.82-1-.34-.1-.63-.3-.83-.57-.2-.27-.32-.6-.32-.95v-7.7c0-.13-.03-.25-.07-.36-.05-.11-.12-.22-.21-.31-.09-.09-.19-.16-.31-.21-.11-.05-.23-.07-.36-.07h-9.44c-.13,0-.25.02-.36.07-.12.05-.22.12-.31.21-.17.17-.28.41-.28.67v7.7c0,.37-.13.71-.34.98-.22.28-.53.48-.88.56h0ZM413.2,97.56c-.97.41-1.91.88-2.82,1.41-.92.53-1.81,1.12-2.65,1.76-.84.64-1.65,1.33-2.42,2.07-.03.03-.07.04-.11.05-.04,0-.08,0-.12-.02-2.24-1.29-4.49-2.58-6.73-3.88-.27-.14-.55-.23-.84-.26-.3-.03-.6-.01-.88.07-.29.08-.58.22-.82.4-.24.18-.45.41-.6.69-1.62,2.63-3.17,5.48-4.72,8.17-.16.27-.25.57-.29.87-.04.31-.02.62.06.92.08.3.21.58.41.82.18.24.41.45.69.6,2.14,1.32,4.47,2.58,6.66,3.85.04.02.06.05.08.09.02.04.02.08.01.12l-.15.62h0c-.07.3-.13.61-.19.92-.1.53-.18,1.06-.24,1.57-.06.51-.11,1.04-.14,1.58-.03.54-.05,1.08-.05,1.6s.02,1.05.05,1.59c.03.54.08,1.07.14,1.58.06.51.14,1.04.24,1.57.1.53.21,1.05.33,1.55.01.04,0,.08-.01.12-.02.04-.05.07-.08.09-2.45,1.31-4.94,2.85-7.36,4.25l.09.11-.07.09c-.19.25-.33.53-.4.82-.08.29-.1.6-.06.92.04.3.13.6.29.87l5.07,8.79.09-.06c.05.05.1.09.16.13.25.19.53.33.82.41.29.08.6.1.91.06.29-.04.58-.13.85-.28,2.22-1.18,4.5-2.6,6.7-3.87.03-.02.07-.02.11-.02.04,0,.08.02.11.05.76.74,1.57,1.43,2.42,2.06.84.63,1.73,1.22,2.65,1.75.91.53,1.86,1,2.84,1.42.97.41,1.97.77,2.99,1.06.04.01.07.04.1.07.03.03.04.07.04.11v7.7c0,.31.06.62.18.9.12.29.3.55.51.76.22.22.47.39.76.51.28.12.58.18.9.18h9.44c.31,0,.62-.06.9-.18.29-.12.54-.29.76-.51.21-.21.39-.47.51-.76.12-.28.18-.58.18-.9v-7.7s.01-.09.04-.12c.02-.03.06-.05.1-.06h.03c1.03-.31,2.02-.66,2.97-1.07.97-.41,1.91-.88,2.82-1.41.92-.53,1.81-1.12,2.65-1.76.85-.64,1.65-1.33,2.42-2.07.03-.03.07-.05.11-.05.04,0,.08,0,.12.03l6.66,3.85c.27.16.57.25.87.29.31.04.62.02.91-.06.29-.08.58-.22.82-.41.23-.18.43-.4.59-.67,1.75-2.82,3.41-5.9,5.08-8.79l-.09-.05c.02-.07.03-.15.04-.22.04-.31.02-.62-.06-.91-.08-.29-.22-.58-.41-.82-.18-.24-.41-.45-.68-.6l-6.67-3.85s-.06-.05-.08-.09c-.02-.04-.02-.08-.01-.12l.17-.7h0c.06-.28.12-.56.17-.84.1-.53.18-1.06.24-1.57.06-.51.11-1.04.14-1.58.03-.54.05-1.08.05-1.59s-.02-1.05-.05-1.59c-.03-.54-.08-1.07-.14-1.58-.06-.51-.14-1.03-.24-1.57-.1-.53-.21-1.04-.33-1.54,0-.04,0-.08.01-.12.02-.04.05-.07.08-.09l6.66-3.84c.28-.16.5-.37.68-.6.19-.25.33-.53.41-.82.08-.29.1-.6.06-.91-.04-.29-.13-.58-.28-.85-1.59-2.94-3.41-5.9-5.08-8.81l-.09.06c-.05-.05-.1-.09-.16-.13-.25-.19-.53-.33-.82-.4-.29-.08-.6-.1-.91-.06-.3.04-.6.13-.87.29l-.49.28h0s-6.18,3.57-6.18,3.57c-.04.02-.08.03-.12.02-.04,0-.08-.02-.11-.05l-.02-.02c-.76-.73-1.56-1.42-2.41-2.06-.85-.64-1.73-1.22-2.64-1.75-.91-.53-1.86-1-2.83-1.42-.97-.41-1.97-.77-2.99-1.06-.04-.01-.07-.04-.1-.07-.03-.03-.04-.07-.04-.11v-7.7c0-.31-.06-.62-.18-.9-.12-.29-.3-.55-.51-.76-.22-.22-.47-.39-.76-.51-.28-.12-.58-.18-.9-.18h-9.44c-.32,0-.62.06-.9.18-.29.12-.54.29-.76.51-.42.43-.69,1.01-.69,1.66v7.7s-.01.09-.04.12c-.02.03-.06.05-.1.06h-.03c-1.03.31-2.02.66-2.97,1.06Z"/>
      <path class="cls-26" d="M22.59,186.39c1.39-1.38,3.04-2.5,4.89-3.27,1.78-.74,3.72-1.14,5.76-1.14s3.98.41,5.75,1.14c1.85.76,3.51,1.88,4.89,3.27,1.38,1.39,2.5,3.04,3.27,4.89.74,1.78,1.14,3.72,1.14,5.75s-.41,3.98-1.14,5.75c-.76,1.85-1.88,3.51-3.27,4.89-1.38,1.38-3.04,2.5-4.89,3.27-1.78.74-3.72,1.14-5.76,1.14s-3.98-.41-5.75-1.14c-1.85-.77-3.51-1.88-4.89-3.27s-2.5-3.04-3.27-4.89c-.74-1.78-1.14-3.72-1.14-5.76s.41-3.98,1.14-5.75c.76-1.85,1.88-3.51,3.27-4.89h0ZM28.01,184.41c-1.67.69-3.17,1.71-4.43,2.97s-2.28,2.77-2.97,4.43c-.67,1.61-1.03,3.37-1.03,5.23s.37,3.62,1.03,5.23c.69,1.67,1.71,3.17,2.97,4.43s2.77,2.28,4.43,2.97c1.61.67,3.37,1.03,5.23,1.03s3.62-.37,5.22-1.03c1.67-.69,3.17-1.71,4.44-2.97,1.26-1.26,2.28-2.77,2.97-4.43.66-1.61,1.03-3.37,1.03-5.23s-.37-3.62-1.03-5.23c-.69-1.67-1.71-3.17-2.97-4.43-1.26-1.26-2.77-2.28-4.43-2.97-1.61-.67-3.37-1.03-5.23-1.03s-3.62.37-5.23,1.03h0ZM26.34,173.33c-.94.27-1.87.6-2.77.99-.92.39-1.81.84-2.66,1.33-.87.5-1.71,1.06-2.51,1.66-.81.61-1.57,1.26-2.29,1.96-.26.25-.57.39-.9.43-.33.04-.68-.03-.98-.2-2.21-1.28-4.54-2.54-6.7-3.87-.1-.06-.21-.09-.33-.1-.12-.01-.25,0-.37.03-.12.03-.24.09-.34.16-.1.07-.18.17-.24.28-1.61,2.44-3.23,5.59-4.72,8.18-.06.11-.1.23-.12.35-.02.12,0,.25.03.38.03.12.09.24.16.34.07.1.17.18.28.24,1.99,1.31,4.55,2.63,6.66,3.85.31.18.54.44.66.75.05.11.08.22.1.33l.14.05-.15.62c-.12.49-.23.98-.32,1.46-.09.47-.16.97-.22,1.49-.06.5-.11,1-.14,1.5-.03.48-.04.99-.04,1.51s.02,1.03.04,1.51c.03.49.08.99.14,1.5.06.52.14,1.01.23,1.48.09.49.2.98.32,1.46.09.36.05.73-.1,1.04-.14.31-.39.58-.71.74l-5.9,3.41h0s-.7.41-.7.41c-.11.06-.21.15-.28.24-.08.1-.13.22-.16.34-.03.13-.04.26-.03.38.02.12.05.24.12.35l4.37,7.56h0s.35.61.35.61c.06.11.15.2.24.28.1.08.22.13.34.17.12.03.25.04.38.03.12-.02.24-.05.35-.12,2.11-1.33,4.5-2.59,6.68-3.85.31-.18.65-.24.97-.2.34.04.65.19.9.43h0c.72.7,1.49,1.35,2.29,1.96.8.6,1.64,1.16,2.51,1.66.86.5,1.76.95,2.68,1.34.91.39,1.85.72,2.82,1,.34.1.63.3.83.57.2.27.32.6.32.95v7.7c0,.13.03.25.07.36.05.11.12.22.21.31.09.09.19.16.31.21.11.04.23.07.36.07h9.44c.13,0,.25-.03.36-.07.12-.05.22-.12.31-.21.09-.09.16-.2.21-.31.05-.11.07-.23.07-.36v-7.7c0-.37.13-.71.34-.98.22-.28.52-.48.87-.56.94-.27,1.87-.6,2.77-.99.92-.39,1.81-.84,2.67-1.33.87-.5,1.71-1.06,2.51-1.66.81-.61,1.57-1.26,2.29-1.96.27-.26.6-.4.95-.43.35-.03.71.05,1.01.25l6.59,3.8c.11.06.23.1.35.12.12.02.25,0,.38-.03.12-.03.24-.09.34-.17.1-.07.18-.17.24-.28,1.57-2.73,3.16-5.45,4.72-8.18.06-.11.1-.23.12-.35.02-.12,0-.25-.03-.38-.03-.12-.09-.24-.16-.34-.07-.1-.16-.18-.27-.24l-6.67-3.85c-.31-.18-.54-.44-.66-.75-.04-.08-.06-.17-.08-.25l-.17-.04.17-.71c.12-.49.23-.98.32-1.46.09-.47.16-.97.23-1.49.06-.5.11-1,.14-1.5.03-.48.04-.99.04-1.51s-.02-1.03-.04-1.51c-.03-.49-.08-.99-.14-1.5-.06-.52-.14-1.02-.23-1.49-.09-.48-.19-.97-.32-1.46-.09-.36-.05-.73.1-1.04.15-.31.39-.57.71-.74l6.6-3.81c.11-.06.2-.15.28-.24.07-.1.13-.21.16-.34.03-.13.04-.25.03-.38-.02-.12-.05-.24-.12-.35-1.61-2.4-3.23-5.6-4.72-8.18-.06-.11-.15-.2-.24-.28-.1-.08-.22-.13-.34-.16-.13-.03-.26-.04-.38-.03-.12.01-.24.05-.35.12l-6.67,3.85c-.31.18-.67.24-1,.2-.34-.05-.65-.2-.9-.44-.72-.7-1.49-1.35-2.28-1.95-.79-.6-1.63-1.15-2.5-1.65-.86-.5-1.76-.95-2.68-1.34-.91-.39-1.85-.72-2.82-1-.34-.1-.63-.3-.83-.57-.2-.27-.32-.6-.32-.95v-7.7c0-.13-.03-.25-.07-.36-.05-.11-.12-.22-.21-.31-.09-.09-.19-.16-.31-.21-.11-.05-.23-.07-.36-.07h-9.44c-.13,0-.25.03-.36.07-.12.05-.22.12-.31.21-.17.17-.28.41-.28.67v7.7c0,.37-.13.71-.34.98-.22.28-.53.48-.88.56h0ZM23.02,173.04c-.97.41-1.91.88-2.82,1.41-.92.53-1.81,1.12-2.65,1.76-.85.64-1.65,1.33-2.42,2.07-.03.03-.07.04-.11.05-.04,0-.08,0-.12-.02-2.24-1.29-4.49-2.58-6.73-3.88-.27-.14-.55-.23-.84-.26-.3-.03-.6-.01-.88.07-.29.08-.58.22-.82.4-.24.18-.45.41-.6.69-1.62,2.63-3.17,5.48-4.72,8.17-.16.27-.25.57-.29.87-.04.31-.02.62.06.91.08.29.22.58.41.82.18.24.41.45.69.6,2.14,1.32,4.47,2.58,6.67,3.85.03.02.06.05.08.09.02.04.02.08.01.12l-.15.62h0c-.07.3-.13.61-.19.92-.1.53-.18,1.06-.24,1.57-.06.51-.11,1.04-.14,1.58-.03.54-.05,1.08-.05,1.6s.02,1.05.05,1.59c.03.54.08,1.07.14,1.58.06.51.14,1.04.24,1.57.1.53.21,1.04.33,1.55.01.04,0,.08-.01.12-.02.04-.05.07-.08.09-2.45,1.31-4.94,2.85-7.36,4.25l.09.11-.07.09c-.19.25-.33.53-.4.82-.08.29-.1.6-.06.92.04.3.13.6.29.87l5.07,8.79.09-.06c.05.05.1.09.16.13.25.19.53.33.82.4.29.08.6.1.91.06.29-.04.58-.13.85-.28,2.22-1.18,4.5-2.6,6.7-3.87.03-.02.07-.02.11-.02.04,0,.08.02.11.05.76.74,1.57,1.43,2.42,2.06.84.63,1.73,1.22,2.65,1.75.91.53,1.86,1,2.84,1.42.97.41,1.97.77,2.99,1.06.04.01.07.04.1.07.03.03.04.08.04.11v7.7c0,.31.06.62.18.9.12.29.3.55.51.76.22.22.47.39.76.51.28.12.58.18.9.18h9.44c.31,0,.62-.06.9-.18.29-.12.54-.29.76-.51.21-.21.39-.47.51-.76.12-.28.18-.58.18-.9v-7.7s.01-.09.04-.12c.02-.03.06-.05.1-.06h.03c1.02-.31,2.02-.66,2.97-1.06.97-.41,1.91-.88,2.82-1.41.92-.53,1.81-1.12,2.65-1.75.85-.64,1.65-1.33,2.42-2.07.03-.03.07-.05.11-.05.04,0,.08,0,.12.03l6.67,3.85c.27.16.57.25.87.29.31.04.62.02.91-.06.29-.08.58-.22.82-.4.23-.18.44-.4.59-.67,1.75-2.82,3.41-5.9,5.08-8.79l-.09-.05c.02-.07.03-.15.04-.22.04-.31.02-.62-.06-.91-.08-.29-.22-.58-.41-.82-.18-.24-.41-.45-.69-.6l-6.67-3.85s-.06-.05-.08-.09c-.02-.04-.02-.08-.01-.12l.17-.7h0c.06-.28.12-.56.17-.84.1-.53.18-1.06.24-1.57.06-.51.11-1.04.14-1.58.03-.54.05-1.08.05-1.59s-.02-1.05-.05-1.59c-.03-.54-.08-1.07-.14-1.58-.06-.51-.14-1.03-.24-1.57-.1-.53-.21-1.04-.33-1.54,0-.04,0-.08.01-.12.02-.04.05-.07.08-.09l6.66-3.84c.28-.16.5-.37.68-.6.19-.25.33-.53.4-.82.08-.29.1-.6.06-.91-.04-.29-.13-.58-.28-.85-1.59-2.94-3.41-5.9-5.08-8.81l-.09.06c-.05-.05-.1-.09-.16-.13-.25-.19-.53-.33-.82-.4-.29-.08-.6-.1-.91-.06-.3.04-.6.13-.87.29l-.49.28h0s-6.18,3.57-6.18,3.57c-.04.02-.08.03-.12.02-.04,0-.08-.02-.11-.05l-.02-.02c-.76-.73-1.56-1.42-2.41-2.06-.85-.64-1.73-1.22-2.64-1.75-.91-.53-1.86-1-2.83-1.42-.97-.41-1.97-.77-2.99-1.06-.04-.01-.07-.04-.1-.07-.03-.03-.04-.07-.04-.11v-7.7c0-.31-.06-.62-.18-.9-.12-.29-.3-.55-.51-.76-.22-.22-.47-.39-.76-.51-.28-.12-.58-.18-.9-.18h-9.44c-.31,0-.62.06-.9.18-.29.12-.54.29-.76.51-.43.43-.69,1.01-.69,1.66v7.7s-.02.09-.04.12c-.02.03-.06.05-.1.06h-.03c-1.03.31-2.02.66-2.97,1.06Z"/>
      <path class="cls-26" d="M81.18,230.87h0ZM84.5,218.22c1.16-1.16,2.75-1.87,4.52-1.87s3.36.72,4.52,1.87c1.16,1.16,1.87,2.75,1.87,4.52s-.72,3.36-1.87,4.52c-1.16,1.16-2.75,1.87-4.52,1.87s-3.36-.71-4.52-1.87c-1.16-1.16-1.87-2.75-1.87-4.52s.72-3.36,1.87-4.52h0ZM85.88,211.89c-.89.26-1.73.62-2.5,1.07-.8.46-1.54,1.02-2.2,1.66-.13.12-.32.14-.47.06l-2.97-1.71h-.02c-.17-.1-.36-.12-.54-.07-.18.05-.35.17-.45.34v.02s-2.1,3.62-2.1,3.62c-.1.17-.12.38-.07.56.05.18.17.35.34.45h.02s2.95,1.71,2.95,1.71c.15.09.23.27.19.43h0c-.11.44-.19.89-.25,1.35-.05.45-.08.91-.08,1.38s.03.93.08,1.38c.06.46.14.91.25,1.35.04.18-.05.37-.21.45l-2.94,1.7h0c-.17.1-.29.27-.34.45-.05.18-.03.38.07.56l2.1,3.64h0c.1.17.26.29.45.34.18.05.38.03.56-.07h.02s2.95-1.71,2.95-1.71c.15-.09.34-.06.47.06.66.64,1.4,1.19,2.2,1.66.78.45,1.63.81,2.52,1.07.17.05.29.21.29.38v3.42c0,.2.08.39.22.52.13.13.32.22.52.22h4.2c.2,0,.39-.08.52-.22.13-.13.22-.32.22-.52v-3.42c0-.19.13-.34.3-.38.89-.26,1.73-.62,2.5-1.07.8-.46,1.54-1.02,2.2-1.66.13-.13.34-.14.49-.04l2.95,1.7c.17.1.38.12.56.07.18-.05.35-.17.45-.34v-.02s2.1-3.62,2.1-3.62h0c.1-.17.12-.38.07-.56-.05-.18-.17-.35-.34-.45l-2.97-1.71c-.15-.09-.23-.27-.18-.43h0c.11-.44.19-.89.25-1.35.05-.45.08-.91.08-1.38s-.03-.93-.08-1.38c-.06-.46-.14-.91-.25-1.35-.04-.18.05-.37.21-.44l2.95-1.7c.17-.1.29-.26.34-.45.05-.18.03-.38-.07-.56v-.02s-2.1-3.62-2.1-3.62h0c-.1-.17-.26-.29-.45-.34-.18-.05-.38-.03-.56.07h0s-2.97,1.71-2.97,1.71c-.16.09-.35.06-.48-.07-.66-.63-1.39-1.19-2.19-1.65-.78-.45-1.63-.82-2.52-1.07-.17-.05-.29-.21-.29-.38v-3.42c0-.2-.08-.39-.22-.52-.13-.13-.32-.22-.52-.22h-4.2c-.2,0-.39.08-.52.22-.13.13-.22.32-.22.52v3.42c0,.19-.13.34-.3.38Z"/>
      <path class="cls-26" d="M218.59,123.94c0-.61-.49-1.1-1.1-1.1s-1.1.49-1.1,1.1v2.58h-2.58c-.61,0-1.1.49-1.1,1.1s.49,1.1,1.1,1.1h2.58v2.58c0,.6.49,1.1,1.1,1.1s1.1-.49,1.1-1.1v-2.58h2.58c.6,0,1.1-.49,1.1-1.1s-.49-1.1-1.1-1.1h-2.58v-2.58Z"/>
      <path class="cls-26" d="M285.87,52.7h0ZM289.19,40.05c1.16-1.16,2.75-1.87,4.52-1.87s3.36.72,4.52,1.87c1.16,1.16,1.87,2.75,1.87,4.52s-.72,3.36-1.87,4.52c-1.16,1.16-2.75,1.87-4.52,1.87s-3.36-.72-4.52-1.87c-1.16-1.16-1.87-2.75-1.87-4.52s.72-3.36,1.87-4.52h0ZM290.57,33.72c-.89.26-1.72.62-2.5,1.07-.8.46-1.54,1.02-2.2,1.66-.13.12-.32.14-.47.06l-2.97-1.71h-.02c-.17-.1-.36-.12-.54-.07-.18.05-.35.17-.45.34v.02s-2.1,3.62-2.1,3.62c-.1.17-.12.38-.07.56.05.18.17.35.34.45h.02s2.95,1.71,2.95,1.71c.15.09.23.27.18.43h0c-.11.44-.19.89-.25,1.35-.05.45-.08.91-.08,1.38s.03.93.08,1.38c.06.46.14.91.25,1.35.04.18-.05.37-.21.44l-2.94,1.7h0c-.17.1-.29.27-.34.45-.05.18-.03.38.07.56l2.1,3.64h0c.1.17.26.29.45.34.18.05.38.03.56-.07h.02s2.95-1.71,2.95-1.71c.15-.09.34-.06.47.06.66.64,1.4,1.19,2.2,1.66.78.45,1.63.82,2.52,1.07.17.05.29.21.29.38v3.43c0,.2.08.39.22.52.13.13.32.22.52.22h4.2c.2,0,.39-.08.52-.22.13-.13.22-.32.22-.52v-3.43c0-.19.13-.34.3-.38.89-.25,1.73-.62,2.5-1.07.8-.46,1.54-1.02,2.2-1.66.13-.13.34-.14.49-.04l2.95,1.7c.17.1.37.12.56.07.18-.05.35-.17.45-.34v-.02s2.1-3.62,2.1-3.62h0c.1-.17.12-.38.07-.56-.05-.18-.17-.35-.34-.45l-2.97-1.71c-.15-.09-.23-.27-.19-.43h0c.11-.44.19-.89.25-1.35.06-.45.08-.91.08-1.38s-.03-.93-.08-1.38c-.06-.46-.14-.91-.25-1.35-.04-.18.05-.37.21-.45l2.95-1.7c.17-.1.29-.26.34-.45.05-.18.03-.38-.07-.56v-.02s-2.1-3.62-2.1-3.62h0c-.1-.17-.26-.29-.45-.34-.18-.05-.38-.03-.56.07h0s-2.97,1.71-2.97,1.71c-.16.09-.35.06-.48-.06-.66-.63-1.39-1.19-2.19-1.65-.78-.45-1.63-.82-2.52-1.07-.17-.05-.29-.21-.29-.38v-3.43c0-.2-.08-.39-.22-.52-.13-.13-.32-.22-.52-.22h-4.2c-.2,0-.39.08-.52.22-.13.13-.22.32-.22.52v3.43c0,.19-.13.34-.3.38Z"/>
      <path class="cls-26" d="M645.28,23.82c0-.6-.49-1.1-1.1-1.1s-1.1.49-1.1,1.1v2.58h-2.58c-.61,0-1.1.49-1.1,1.1s.49,1.1,1.1,1.1h2.58v2.58c0,.6.49,1.1,1.1,1.1s1.1-.49,1.1-1.1v-2.58h2.58c.6,0,1.1-.49,1.1-1.1s-.49-1.1-1.1-1.1h-2.58v-2.58Z"/>
      <path class="cls-26" d="M6.42,309.74c0-.61-.49-1.1-1.1-1.1s-1.1.49-1.1,1.1v2.58H1.65c-.61,0-1.1.49-1.1,1.1s.49,1.1,1.1,1.1h2.58v2.58c0,.6.49,1.1,1.1,1.1s1.1-.49,1.1-1.1v-2.58h2.58c.61,0,1.1-.49,1.1-1.1s-.49-1.1-1.1-1.1h-2.58v-2.58Z"/>
      <path class="cls-26" d="M355.83,110.67h0ZM359.15,98.02c1.16-1.16,2.75-1.87,4.52-1.87s3.36.72,4.52,1.87c1.16,1.16,1.87,2.75,1.87,4.52s-.72,3.36-1.87,4.52c-1.16,1.16-2.75,1.87-4.52,1.87s-3.36-.72-4.52-1.87c-1.16-1.16-1.87-2.75-1.87-4.52s.71-3.36,1.87-4.52h0ZM360.53,91.69c-.89.26-1.73.62-2.5,1.07-.8.46-1.54,1.02-2.2,1.66-.13.12-.32.14-.47.06l-2.97-1.71h-.02c-.17-.1-.36-.12-.54-.07-.18.05-.35.17-.45.34v.02s-2.1,3.62-2.1,3.62c-.1.17-.12.38-.07.56.05.18.17.35.34.45h.02s2.95,1.71,2.95,1.71c.15.09.22.27.18.43h0c-.11.44-.19.89-.25,1.35-.05.45-.08.91-.08,1.38s.03.93.08,1.38c.06.46.14.91.25,1.35.04.18-.05.37-.21.44l-2.94,1.7h0c-.17.1-.29.27-.34.45-.05.18-.03.38.07.56l2.1,3.64h0c.1.17.26.29.45.34.18.05.38.03.56-.07h.02s2.95-1.71,2.95-1.71c.15-.09.34-.06.47.06.66.64,1.4,1.19,2.2,1.66.78.45,1.63.82,2.52,1.07.17.05.28.21.29.38v3.43c0,.2.08.39.22.52.13.13.32.22.52.22h4.2c.2,0,.39-.08.52-.22.13-.13.22-.32.22-.52v-3.43c0-.19.13-.34.3-.38.89-.25,1.73-.62,2.5-1.07.8-.46,1.54-1.02,2.2-1.66.13-.13.34-.14.49-.04l2.95,1.7c.17.1.37.12.56.07.18-.05.35-.17.45-.34v-.02s2.1-3.62,2.1-3.62h0c.1-.17.12-.38.07-.56-.05-.18-.17-.35-.34-.45l-2.97-1.71c-.15-.09-.22-.27-.18-.43h0c.11-.44.19-.89.25-1.35.05-.45.08-.91.08-1.38s-.03-.93-.08-1.38c-.06-.46-.14-.91-.25-1.35-.04-.18.04-.37.21-.45l2.94-1.7c.17-.1.29-.26.34-.45.05-.18.03-.38-.07-.56v-.02s-2.1-3.62-2.1-3.62h0c-.1-.17-.27-.29-.45-.34-.18-.05-.38-.03-.56.07h0s-2.97,1.71-2.97,1.71c-.16.09-.35.06-.48-.06-.66-.63-1.39-1.19-2.19-1.65-.78-.45-1.63-.82-2.52-1.07-.17-.05-.29-.21-.29-.38v-3.43c0-.2-.08-.39-.22-.52-.13-.13-.32-.22-.52-.22h-4.2c-.2,0-.39.08-.52.22-.13.13-.22.32-.22.52v3.43c0,.19-.13.34-.3.38Z"/>
      <path class="cls-26" d="M315.95,94.34c0-.61-.49-1.1-1.1-1.1s-1.1.49-1.1,1.1v2.58h-2.58c-.61,0-1.1.49-1.1,1.1s.49,1.1,1.1,1.1h2.58v2.58c0,.6.49,1.1,1.1,1.1s1.1-.49,1.1-1.1v-2.58h2.58c.61,0,1.1-.49,1.1-1.1s-.49-1.1-1.1-1.1h-2.58v-2.58Z"/>
      <path class="cls-26" d="M320.41,215.71c0-.6-.49-1.1-1.1-1.1s-1.1.49-1.1,1.1v2.58h-2.58c-.61,0-1.1.49-1.1,1.1s.49,1.1,1.1,1.1h2.58v2.58c0,.61.49,1.1,1.1,1.1s1.1-.49,1.1-1.1v-2.58h2.58c.6,0,1.1-.49,1.1-1.1s-.49-1.1-1.1-1.1h-2.58v-2.58Z"/>
      <path class="cls-26" d="M224.36,161.35c0-.6-.49-1.1-1.1-1.1s-1.1.49-1.1,1.1v2.58h-2.58c-.6,0-1.1.49-1.1,1.1s.49,1.1,1.1,1.1h2.58v2.58c0,.61.49,1.1,1.1,1.1s1.1-.49,1.1-1.1v-2.58h2.58c.6,0,1.1-.49,1.1-1.1s-.49-1.1-1.1-1.1h-2.58v-2.58Z"/>
    </g>
    <path class="cls-26" d="M588.69,154.87c0-.6-.49-1.1-1.1-1.1s-1.1.49-1.1,1.1v2.58h-2.58c-.61,0-1.1.49-1.1,1.1s.49,1.1,1.1,1.1h2.58v2.58c0,.61.49,1.1,1.1,1.1s1.1-.49,1.1-1.1v-2.58h2.58c.61,0,1.1-.49,1.1-1.1s-.49-1.1-1.1-1.1h-2.58v-2.58Z"/>
  </g>
  <g>
    <g>
      <path class="cls-7" d="M427.94,235.71s6.53,2.16,11.68,8.42c2.91,3.54,38.55,71.8,40.84,76.25,2.29,4.45,2.28,15.68-3.12,22.59-2.1,2.69-8.12,10.2-14.71,18.39h-21.35c7.75-11.63,17.87-26.84,18.6-28.07,1.19-2,1.78-3.94-.38-7.32-2.17-3.38-30.69-38.16-30.69-38.16,0,0-14.02-39.2-.87-52.1Z"/>
      <path class="cls-31" d="M390.46,230.22s35.93,5.11,37.48,5.49c1.55.38,4.17,4,5.58,6.44,1.41,2.44,3.07,37.51,3.88,47.33s-2.36,52.63-1.42,64.13c.16,1.91.45,4.59.83,7.75h-107.48c-1.38-12.72-10.96-52.5-11.75-62.06-.8-9.82-4.88-44.7-3.88-47.33,1-2.63,3-6.63,4.46-7.26,1.47-.63,36.51-11.55,36.51-11.55l17.96,1.98,17.82-4.92Z"/>
      <path class="cls-8" d="M390.46,230.22s2.38.34,5.94.85c-.16.87-.58,1.69-1.23,2.44-13.96,16-28.23,17.17-44.61,3.66-.77-.64-1.31-1.38-1.62-2.22,3.43-1.07,5.73-1.79,5.73-1.79l17.96,1.98,17.82-4.92Z"/>
      <path class="cls-25" d="M384.17,195.61l.31,8.95s1.5,18.25,1.72,21.03c.11,1.34,1.66,3.16,4.25,4.64-11.75,13.46-22,14.3-35.79,2.93,2.32-1.88,3.55-3.93,3.44-5.27-.23-2.77-1.72-21.03-1.72-21.03l-1.15-8.88s7.21.56,14.69,1.58c7.21-2.22,14.24-3.95,14.24-3.95Z"/>
      <path class="cls-9" d="M393.43,230.64s-4.15,17.96-4.46,21.61c-.31,3.65-5.19,40.44-4.68,46.66.23,2.83,5.85,31.57,11.97,62.45h48.96c-1.2-7.53-2.23-14.01-2.79-17.68-1.99-13.17-3.32-40.55-2.89-57.46.43-16.91-3.77-42.29-4.27-44.7-.5-2.41-5.3-5.42-6.79-5.98l-35.05-4.9Z"/>
      <path class="cls-12" d="M388.06,259.93c-1.47,12.12-4.17,34.27-3.78,38.97,0,0,23.81-25.92,23.45-28.48-.36-2.56-10.05-21.63-10.05-21.63,0,0-4.16,4.79-9.62,11.13Z"/>
      <path class="cls-6" d="M392.23,230.47s1.05-.94,1.43-.97c.38-.03,6.84,2.16,6.84,2.16,0,0,9.42,14.82,9.58,16.71.15,1.89-23.14,20.95-23.14,20.95l2.07-17.43s3.38-17.04,4.42-21.24l-1.19-.17Z"/>
      <path class="cls-9" d="M318.58,244.67s-6.09,3.2-10.15,10.21c-2.3,3.96-26.34,77.12-27.88,81.88-1.53,4.76.3,15.84,6.75,21.79.7.64,1.76,1.61,3.1,2.82h26.64c-7.06-7.57-13.45-14.44-14.09-15.21-1.5-1.78-2.4-3.6-.81-7.29,1.59-3.69,24.07-42.65,24.07-42.65,0,0,7.45-40.96-7.63-51.55Z"/>
      <path class="cls-9" d="M351.81,234.05s7.02,17.04,7.92,20.59c.9,3.55,11.7,39.05,12.21,45.27.23,2.76-.6,30.8-1.58,61.44h-48.43c-.02-3.2-.04-5.88-.07-7.8-.18-13.32-3.32-40.55-6.51-57.17-3.18-16.61-3.17-42.34-3.06-44.79.1-2.46,4.35-6.21,5.72-7l33.79-10.54Z"/>
      <path class="cls-12" d="M361.87,262.08c3.43,11.72,9.69,33.14,10.08,37.84,0,0-27.71-21.7-27.77-24.28-.06-2.58,6.39-22.97,6.39-22.97,0,0,4.88,4.04,11.3,9.42Z"/>
      <path class="cls-6" d="M352.96,233.69s-1.19-.76-1.57-.73c-.38.03-6.4,3.24-6.4,3.24,0,0-6.89,16.15-6.73,18.05.15,1.89,26.24,16.91,26.24,16.91l-4.87-16.86s-6.11-16.26-7.82-20.24l1.15-.36Z"/>
    </g>
    <g>
      <path class="cls-25" d="M339.76,201.06c-.18.04-.36.09-.53.14h0s0,0,0,0c-3.22.99-5.45,4.09-5.2,7.6.29,4.07,3.83,7.13,7.9,6.84,4.07-.29,7.13-3.83,6.84-7.9-.17-2.37-1.44-4.39-3.27-5.62.39,2.16.29,4.88-2.46,5.4l-.31-4.25c-.12-1.72-1.8-2.37-2.97-2.21Z"/>
      <path class="cls-25" d="M392.88,196.21c.18,0,.37.02.55.04h0s0,0,0,0c3.34.39,6.1,3.04,6.49,6.53.45,4.06-2.48,7.71-6.54,8.16-4.06.45-7.71-2.48-8.16-6.54-.26-2.36.62-4.58,2.2-6.11.01,2.19.6,4.85,3.4,4.86l-.47-4.24c-.19-1.72,1.34-2.65,2.52-2.71Z"/>
    </g>
    <path class="cls-20" d="M362.97,161.87h0c-13.86,1.26-24.16,13.64-22.9,27.5l2.09,22.92c1.26,13.86,13.64,24.17,27.5,22.9h0c13.86-1.26,24.17-13.64,22.9-27.5l-2.09-22.92c-1.26-13.86-13.64-24.17-27.5-22.9Z"/>
    <path class="cls-22" d="M341.62,178.09c-1.34,3.49-1.92,7.32-1.56,11.28l2.09,22.92c1.19,13.05,12.24,22.95,25.1,23.01-14.65-1.13-17.36-18.44-18.48-27.56-1.12-9.12,2.3-11.16,3.65-11.61,1.36-.45,22.63-3.98,27.34-4.53,4.71-.54,7.08,2.07,7.08,2.07l1.98-2.88-1.9-6.16s1.62.05,3.54,0c-.16-1.64-.47-3.24-.93-4.76-2.72-.96-5.78-2.12-8.31-3.75-5.61-3.62-32.41.91-36.76.91-.65,0-1.63.39-2.83,1.06Z"/>
    <path class="cls-30" d="M388.9,196.93s.15,1.68.3,3.25c.14,1.56,1.75,3.18,2.95,3.07l-.32-3.55s.27-2.66,3.5-2.96c8.88-12.31,5.92-30.29-5.53-38.71-11.45-8.42-34.24-6.95-38.09-5.26-3.85,1.69-7.33,8.8-7.33,8.8,0,0-3.65-2.7-6.63-.85-2.99,1.85-11.65,22.54-11.2,27.47.45,4.93,10.89,13.84,10.89,13.84,3.23-.29,3.98,2.28,3.98,2.28l.32,3.55c1.2-.11,2.49-1.99,2.35-3.55-.14-1.56-.3-3.25-.3-3.25.11-.06.22-.13.33-.19,3.06-1.99,2.45-8.05,2.45-8.05l-2.82-3.94,5.59-7.35,6.43-2.12,14.61.56s17.23,2.14,15.72,7.16c-1.51,5.02,2.78,9.82,2.78,9.82Z"/>
    <path class="cls-5" d="M388.9,196.93c.18,1.93,1.47,10.55,3.72,10.35,6.7-14.12,12.89-28.86,2.91-43.32-1.17,9.31-10.45,14.99-19.73,16.94,4.91,1.07,11.27,3.08,10.33,6.21-1.51,5.02,2.78,9.82,2.78,9.82h0ZM327.2,183.85c-.48,1.86-.73,3.39-.64,4.33.35,3.8,13.01,22.16,15.82,26.33,1.46-.13,1.66-11.01,1.43-13.47.11-.06.22-.13.33-.19,3.06-1.99,2.45-8.05,2.45-8.05l-2.82-3.94,5.59-7.35,6.14-2.02c-3.09-1.25-3.98-2.56-3.98-2.56-12.68,12.83-20.04,12.13-24.32,6.92Z"/>
    <path class="cls-30" d="M337.65,197.33s-10.6-22.98,10.72-26.91c0,0,5.64-11.14,16.95-8.35,11.31,2.79,18.39,2.72,23.46-2.28,0,0,2.91,5.47-.62,10.26,10.71,8.31,6.99,18.96,2.61,24.7-1.75-11.91-33.14,1.35-37.24-10.1-.41,10.94-11.88,8.22-15.88,12.68Z"/>
    <path class="cls-5" d="M337.65,197.33s-2.11-4.59-2.55-10.01c4.12-.39,9.47-3.35,16.42-10.38,0,0,2.84,4.17,15.93,4.71,7.96.33,18.07-2.62,23.77-8.75,6.82,7.77,3.45,16.75-.45,21.86-1.75-11.91-33.13,1.35-37.24-10.1-.41,10.94-11.88,8.22-15.88,12.68Z"/>
  </g>
  <g>
    <g>
      <path class="cls-29" d="M645.84,199.8c-4.48-16.81-20.15-7.57-26.85,6.83-6.7,14.39-22.07,70.54-35.35,85.07-5.15,5.63-3.57,6.11,1.16,3.36,23.6-13.68,67.21-72.12,61.04-95.26Z"/>
      <path class="cls-16" d="M580.47,296.08c-.16.76.55.79,1.89.23,35.79-30.27,54.79-97.93,54.85-98.14.11-.37-.11-.76-.48-.87-.37-.11-.76.11-.87.48-.06.22-19.33,68.8-55.4,98.29Z"/>
    </g>
    <g>
      <path class="cls-16" d="M606.19,208.77c-7.82-12.26-17.96-.94-19.66,12.22-1.7,13.16.25,61.76-6.66,76.69-2.68,5.79-1.3,5.77,1.77,2.39,15.34-16.86,35.31-74.43,24.55-91.3Z"/>
      <path class="cls-29" d="M578.45,301.97c.06.64.64.49,1.57-.29,20.86-33.15,18.9-91.84,18.89-92.03,0-.32-.28-.58-.6-.57-.32,0-.58.28-.57.6,0,.19,1.99,59.68-19.29,92.29Z"/>
    </g>
    <g>
      <path class="cls-16" d="M644.96,250.48c13.51,1.41,8.29,14.62-1.99,21.55-10.29,6.93-51.72,25.62-61.31,37.64-3.72,4.66-4.28,3.5-2.74-.48,7.68-19.88,47.44-60.64,66.04-58.7Z"/>
      <path class="cls-29" d="M578.66,312.65c-.56.22-.68-.33-.41-1.43,18.98-31.29,68.86-54.2,69.02-54.28.27-.13.6,0,.73.27.13.27,0,.6-.27.73-.16.07-50.71,23.3-69.07,54.72Z"/>
    </g>
  </g>
  <g>
    <path class="cls-30" d="M451.95,233.59l-3.36,29.49s5.07,69.06,7.57,98.28h37.66l.83-117.53-42.7-10.23Z"/>
    <path class="cls-30" d="M471.92,259.17l-1.66,10.42,3.3,91.77h45.91c.77-6.35,1.46-11.78,2.02-15.7,3.45-24.14,4.63-57.68,4.61-65.62-.02-7.94-9.21-19.72-12.37-20.58-3.16-.86-41.81-.29-41.81-.29Z"/>
    <path class="cls-11" d="M456.56,117.48s-1.57-2.92-2.81-2.37c-1.24.55-42.81,61.71-44.22,66.98-1.41,5.26-.83,14.59,7.22,27.54,8.04,12.95,25.26,44.73,25.87,45.41.61.69,10.01-5.69,11.02-7.47,0,0,.41-.59-.19-1.78-.6-1.19-21.07-49.67-22.36-53.15-1.29-3.48,35.16-46.63,36.9-50.09,1.74-3.45,8.44-21.56-11.43-25.08Z"/>
    <path class="cls-21" d="M489.88,99.96l-18.1,12.93s-12.91,50.56-12.96,52.86c-.05,2.3-5,30.18-5,30.18,0,0,18.1,7.18,20.69.29,2.59-6.9,31.61-56.32,33.05-64.08,1.44-7.76-2.01-26.15-3.74-28.16-1.72-2.01-13.94-4.02-13.94-4.02Z"/>
    <path class="cls-11" d="M471.66,108.48s-16.4,5.77-17.9,6.63c-1.51.86-10.36,33.13-11.08,36.15-.72,3.02,4.02,58.33,4.02,63.22s-6.18,65.95-6.32,66.95c-.14,1.01.43,2.16,1.87,2.16s17.53-30.32,18.82-33.76c1.29-3.45-2.89-55.46-2.89-55.46l10.94-74.43,2.55-11.46Z"/>
    <path class="cls-17" d="M520.33,116.65s23.5,23.69,24.36,25.12c.86,1.44-23.56,82.33-23.85,86.06-.29,3.74,12.07,58.76,12.5,60.2,0,0,.07.57-.36,1.44-.43.86-1.44,1.37-1.94,1.72-.5.36-57.97-8.91-62.57-11.78-4.6-2.87-14.51-47.56-14.51-53.59s3.48-29.13,3.48-29.13l28.28-47.88s20.43-30.64,34.62-32.16Z"/>
    <path class="cls-1" d="M516.61,112.93s27.22,27.41,28.08,28.85c.86,1.44-23.56,82.33-23.85,86.06-.29,3.74,12.07,58.76,12.5,60.2,0,0,.07.57-.36,1.44-.43.86-1.44,1.37-1.94,1.72-.26.18-15.55-2.17-30.98-4.89,13.39-19.29,12.69-51.26,11.52-53.2-1.36-2.26-8.51-7.15-7.42-7.51,1.09-.36,8.42-.54,8.96-2.35.54-1.81,10.86-59.09,10.86-59.09l6.89-4.64s3.08-22.27.91-25.53c-2.17-3.25-16.5-15.58-16.62-15.68,1.78-.88-.2-5.17,1.45-5.35Z"/>
    <path class="cls-32" d="M541.4,138.17s3.56,2.84,6.02,6.05c2.46,3.21,33.12,67.31,33.76,73.31.63,6.01-1.61,16.13-12.66,28.92-11.05,12.79-35.39,44.63-36.17,45.27-.78.65-9.99-7.96-10.78-10.09,0,0-.35-.71.52-1.91.87-1.2,31.65-50.76,33.67-54.35,2.02-3.59-30.47-57.15-31.78-61.23-1.31-4.08-4.95-25.55,17.42-25.97Z"/>
    <path class="cls-22" d="M507.08,77.45c.17,8.96-2.16,18.21-1.57,27.18.12,1.83,1,2.44,3.25,3.91,3.13,4.65-5.42,19.37-11.05,20.24-.37.06-9.53-7.13-16.02-8.79-3.33-.86-6.07,3.4-6.32,3.22-1.35-.98,1.55-8.59.61-11.48,1.14-.31,2.16-2.86,2.97-3.6,5.26-4.85,3.54-16.95-.76-21.52-3.22-3.41,28.9-9.15,28.9-9.15Z"/>
    <path class="cls-8" d="M513,112.05c-.71,2.03-18.08,25.21-18.08,25.21,0,0-.62.83-1.53-.22-.91-1.05-11.61-15.99-11.61-15.99l23.77-17.71-.54-4.07c.35-.37,8.73,10.71,8,12.79Z"/>
    <path class="cls-8" d="M481.16,104.52s-.03-.03-.09-.04c-8.12-.57-9.35,22.44-7.93,26.96,0,.03,4.94-7.53,8.33-10.54,1.54-1.36-3.27-11.76-.32-16.38Z"/>
    <path class="cls-32" d="M510.96,105.44s-30.39,37.67-32.54,40.83c-2.15,3.16-18.68,42.1-20.98,50.43,0,0,25.43-31.75,29.02-34.63,3.59-2.87,16.88-13.94,16.88-13.94,0,0,.36-.72.18-1.22-.18-.5-3.88-8.87-3.88-8.87,0,0,11.06,1.65,12.07,1.58,1.01-.07,5.97-24.75,6.12-25.47.14-.72-6.87-8.71-6.87-8.71Z"/>
    <path class="cls-32" d="M481.22,104.46s-8.04,1.86-9.33,2.58c-1.29.72-11.49,17.67-11.78,19.11,0,0-.14.68.43.97.58.29,2.69,1.62,2.91,1.83.21.22-3.56.65-3.56.65,0,0-.43.16-.36.83.07.66-1.36,63.94-1.36,63.94,0,0,12.54-69.96,14.4-74.57,1.86-4.6,6.85-11.89,6.85-11.89l1.8-3.44Z"/>
    <path class="cls-25" d="M467.55,64.42c3.96-.02,7.18,3.17,7.21,7.13.02,3.96-3.17,7.18-7.13,7.21-3.96.02-7.18-3.17-7.21-7.13-.02-3.96,3.17-7.18,7.13-7.21Z"/>
    <path class="cls-25" d="M515.38,64.15c3.96-.02,7.18,3.17,7.2,7.13.02,3.96-3.17,7.18-7.13,7.21-3.96.02-7.18-3.17-7.21-7.13-.02-3.96,3.17-7.18,7.13-7.2Z"/>
    <path class="cls-20" d="M488.99,27.59h0c13.5-.08,24.61,11.9,24.68,26.62l.12,24.33c.07,14.72-10.91,26.83-24.41,26.92h0c-13.5.08-24.61-11.9-24.68-26.62l-.12-24.33c-.08-14.72,10.91-26.83,24.41-26.92Z"/>
    <path class="cls-22" d="M512.72,46.97c.61,2.3.94,4.73.96,7.23l.12,24.33c.07,13.54-9.21,24.87-21.2,26.67-1.18.12-1.93.2-2.1.21h-.01c13.41-1.33,16.24-18.94,16.24-24.25v-13.79c0-13.03-7.21-14.39-12.14-14.39h-24.48c-3.16,0-4.3,2.91-4.3,2.91l-1.22-.93v-.47c-.04-7.8,3.02-14.86,7.91-19.79,12.29,2.4,32.73,6.48,34.14,7.37.77.48,3.27,2.53,6.08,4.9Z"/>
    <path class="cls-14" d="M461.24,47.19l4.41,4.43s2.11-8.23,19.89-5.69c17.78,2.54-16.39-16.52-20.26-14.44-3.87,2.08-7.24,8.2-4.04,15.71Z"/>
    <path class="cls-30" d="M507.42,47.59s-17.5,1.92-26.4-3.73c-8.9-5.65-16.44-8.27-18.72-5.2-2.16,2.91,6.54,10.78,3.04,24.16-.19.73-.65,13.1-.91,13.86-.08-4.84-1.64-17.22-3.24-20.31-4.79-9.24-12.28-16.19-2.55-30.06,5.97-8.51,16.12-12.5,20.83-8.19,15.36,14.03,36.5-4.2,36.62,19.05,0,0,11.39,3.83.8,27.14-2.4.01-3.14,1.83-3.13,3.36l.09,12.44c-8.55,0-8.73-22.42-6.43-32.51Z"/>
  </g>
  <g>
    <g>
      <path class="cls-39" d="M499.88,258.28h49.51c2.4,0,4.35,1.95,4.35,4.35v85.12c0,2.4-1.95,4.35-4.35,4.35h-49.51c-2.4,0-4.35-1.95-4.35-4.35v-85.12c0-2.4,1.95-4.35,4.35-4.35Z"/>
      <rect class="cls-35" x="546.82" y="258.28" width="47.37" height="93.82" rx="3.66" ry="3.66"/>
      <path class="cls-8" d="M485.62,293.92h51.29c0-9.19,9.91-10.21,9.91-10.21h-51.29s-9.91,1.02-9.91,10.21Z"/>
      <rect class="cls-38" x="492.67" y="337.01" width="58.81" height="24.35" rx="2.87" ry="2.87"/>
      <path class="cls-10" d="M546.94,337.01h11.66c.26,0,3.1.11,4.69,3.58,1.67,3.64,1.49,7.28,6.45,7.28,4.69,0-2.08,0,2.13,0,4.95,0,4.81-3.73,6.45-7.28,1.63-3.56,4.43-3.58,4.7-3.58h11.06c1.58,0,2.87,1.29,2.87,2.87v18.62c0,1.58-1.29,2.87-2.87,2.87h-47.13c-1.58,0-2.87-1.29-2.87-2.87v-18.62c0-1.58,1.29-2.87,2.87-2.87Z"/>
      <path class="cls-8" d="M485.62,326.06h51.29c0-9.19,9.91-10.21,9.91-10.21h-51.29s-9.91,1.01-9.91,10.21Z"/>
      <path class="cls-27" d="M602.53,310.73h-46.65c0-9.19-9.07-10.21-9.07-10.21h46.64s9.07,1.01,9.07,10.21Z"/>
      <path class="cls-18" d="M554.24,268.48h35.75c.87,0,1.58.71,1.58,1.58h0c0,.87-.71,1.58-1.58,1.58h-35.75c-.87,0-1.58-.71-1.58-1.58h0c0-.87.71-1.58,1.58-1.58Z"/>
      <path class="cls-18" d="M554.24,285.84h35.75c.87,0,1.58.71,1.58,1.58h0c0,.87-.71,1.58-1.58,1.58h-35.75c-.87,0-1.58-.71-1.58-1.58h0c0-.87.71-1.58,1.58-1.58Z"/>
      <path class="cls-18" d="M554.24,322.11h35.75c.87,0,1.58.71,1.58,1.58h0c0,.87-.71,1.58-1.58,1.58h-35.75c-.87,0-1.58-.71-1.58-1.58h0c0-.87.71-1.58,1.58-1.58Z"/>
      <path class="cls-27" d="M503.11,267.2h34.54c.87,0,1.58.71,1.58,1.58h0c0,.87-.71,1.58-1.58,1.58h-34.54c-.87,0-1.58-.71-1.58-1.58h0c0-.87.71-1.58,1.58-1.58Z"/>
      <path class="cls-36" d="M503.11,306.31h34.54c.87,0,1.58.71,1.58,1.58h0c0,.87-.71,1.58-1.58,1.58h-34.54c-.87,0-1.58-.71-1.58-1.58h0c0-.87.71-1.58,1.58-1.58Z"/>
      <path class="cls-27" d="M503.11,331.34h34.54c.87,0,1.58.71,1.58,1.58h0c0,.87-.71,1.58-1.58,1.58h-34.54c-.87,0-1.58-.71-1.58-1.58h0c0-.87.71-1.58,1.58-1.58Z"/>
    </g>
    <g>
      <rect class="cls-39" x="471.88" y="298.98" width="35.23" height="56.78" rx="2.63" ry="2.63"/>
      <path class="cls-35" d="M505.13,298.98h24.24c1.22,0,2.21.99,2.21,2.21v52.35c0,1.22-.99,2.22-2.22,2.22h-24.24c-1.22,0-2.22-.99-2.22-2.22v-52.35c0-1.22.99-2.22,2.22-2.22Z"/>
      <path class="cls-8" d="M465.88,320.54h31.04c0-5.56,6-6.18,6-6.18h-31.04s-6,.61-6,6.18Z"/>
      <path class="cls-38" d="M471.88,346.62h32.12c.96,0,1.73.78,1.73,1.73v11.27c0,.96-.78,1.73-1.73,1.73h-32.12c-.96,0-1.73-.78-1.73-1.73v-11.27c0-.96.78-1.73,1.73-1.73Z"/>
      <path class="cls-10" d="M502.99,346.62h7.05c.16,0,1.88.07,2.84,2.17,1.01,2.2.9,4.41,3.9,4.41,2.84,0-1.26,0,1.29,0,3,0,2.91-2.25,3.9-4.41.99-2.15,2.68-2.17,2.84-2.17h6.69c.95,0,1.73.78,1.73,1.73v11.27c0,.95-.78,1.73-1.73,1.73h-28.52c-.95,0-1.73-.78-1.73-1.73v-11.27c0-.95.78-1.73,1.73-1.73Z"/>
      <path class="cls-8" d="M465.88,340h31.04c0-5.56,6-6.18,6-6.18h-31.04s-6,.61-6,6.18Z"/>
      <path class="cls-27" d="M536.63,330.72h-28.23c0-5.56-5.49-6.18-5.49-6.18h28.23s5.49.61,5.49,6.18Z"/>
      <path class="cls-18" d="M507.41,305.15h21.64c.53,0,.95.43.95.95h0c0,.52-.43.95-.95.95h-21.64c-.52,0-.95-.43-.95-.95h0c0-.52.43-.95.95-.95Z"/>
      <path class="cls-18" d="M507.41,315.66h21.64c.53,0,.95.43.95.95h0c0,.52-.43.95-.95.95h-21.64c-.52,0-.95-.43-.95-.95h0c0-.53.43-.95.95-.95Z"/>
      <path class="cls-18" d="M507.41,337.61h21.64c.53,0,.95.43.95.95h0c0,.52-.43.95-.95.95h-21.64c-.52,0-.95-.43-.95-.95h0c0-.52.43-.95.95-.95Z"/>
      <path class="cls-36" d="M476.47,304.37h20.9c.53,0,.95.43.95.95h0c0,.53-.43.95-.95.95h-20.9c-.53,0-.95-.43-.95-.95h0c0-.53.43-.95.95-.95Z"/>
      <path class="cls-36" d="M476.47,328.05h20.9c.53,0,.95.43.95.95h0c0,.53-.43.96-.95.96h-20.9c-.53,0-.95-.43-.95-.95h0c0-.53.43-.95.95-.95Z"/>
      <path class="cls-27" d="M476.47,343.19h20.9c.52,0,.95.43.95.95h0c0,.52-.43.95-.95.95h-20.9c-.53,0-.95-.43-.95-.95h0c0-.52.43-.95.95-.95Z"/>
    </g>
  </g>
  <g>
    <path class="cls-30" d="M138.55,221.83l40.98.19c.54,0,.98.44.98.98v4.29c0,.54-.45.98-.99.98l-40.98-.19c-.54,0-.98-.44-.98-.98v-4.29c0-.54.45-.98.99-.98h0ZM178.55,223.98l-39.02-.19v2.33s39.02.19,39.02.19v-2.33Z"/>
    <g>
      <path class="cls-30" d="M84.71,283.05l54.14-61.69c.35-.41.97-.45,1.38-.09l3.22,2.83c.41.35.45.97.09,1.38l-54.14,61.69c-.35.41-.97.45-1.38.09l-3.22-2.83c-.41-.35-.45-.97-.09-1.38h0ZM139.68,223.38l-52.85,60.22,1.75,1.54,52.85-60.22-1.75-1.54Z"/>
      <path class="cls-32" d="M139.1,219.62c2.99-.38,5.72,1.74,6.1,4.73.38,2.99-1.74,5.72-4.73,6.1-2.99.38-5.72-1.74-6.1-4.73-.38-2.99,1.74-5.72,4.73-6.1Z"/>
      <path class="cls-30" d="M84.67,283.35l38.07,72.72c.25.48.84.67,1.32.42l3.8-1.99c.48-.25.66-.84.42-1.32l-38.07-72.72c-.25-.48-.84-.67-1.32-.42l-3.8,1.99c-.48.25-.67.84-.42,1.32h0ZM124.02,354.29l-37.16-70.99,2.07-1.08,37.16,70.99-2.07,1.08Z"/>
      <path class="cls-32" d="M122.57,357.82c2.82,1.07,5.97-.34,7.04-3.15,1.07-2.82-.34-5.97-3.15-7.04-2.82-1.07-5.97.34-7.04,3.15-1.07,2.82.34,5.97,3.15,7.04Z"/>
      <path class="cls-32" d="M87.78,278.09c2.99-.38,5.72,1.74,6.1,4.73.38,2.99-1.74,5.72-4.73,6.1-2.99.38-5.72-1.74-6.1-4.73-.38-2.99,1.74-5.72,4.73-6.1Z"/>
    </g>
    <rect class="cls-41" x="68.6" y="353.2" width="89.84" height="13.78" rx="6.89" ry="6.89"/>
    <rect class="cls-43" x="95.7" y="353.2" width="89.84" height="13.78" rx="6.89" ry="6.89"/>
    <path class="cls-8" d="M170.71,235.82h20.05c5.82,0,10.57-4.76,10.57-10.57h-41.19c0,5.82,4.76,10.57,10.57,10.57Z"/>
    <path class="cls-3" d="M171.09,233.71h12.04c3.49,0,6.35-2.86,6.35-6.35h-24.75c0,3.49,2.86,6.35,6.35,6.35Z"/>
    <path class="cls-32" d="M163.97,220.39h33.53c4.45,0,8.09,3.64,8.09,8.09h-49.7c0-4.45,3.64-8.09,8.09-8.09Z"/>
    <path class="cls-14" d="M163.97,220.39h15.33c4.45,0,8.09,3.64,8.09,8.09h-31.5c0-4.45,3.64-8.09,8.09-8.09Z"/>
  </g>
  <g>
    <path class="cls-30" d="M568.65,69.96c-.24.33-.7.41-1.03.17-.33-.24-.41-.7-.17-1.03,2.9-4.05,6.73-7.38,11.19-9.67,4.29-2.21,9.17-3.46,14.32-3.46,8.66,0,16.49,3.51,22.16,9.18,5.67,5.67,9.18,13.51,9.18,22.17s-3.51,16.49-9.18,22.16c-5.67,5.67-13.51,9.18-22.16,9.18-7.27,0-13.97-2.48-19.29-6.64-5.43-4.25-9.43-10.25-11.14-17.15-.1-.4.15-.8.54-.89.4-.1.8.15.9.54,1.63,6.58,5.44,12.29,10.61,16.34,5.07,3.96,11.45,6.32,18.38,6.32,8.25,0,15.71-3.34,21.12-8.75,5.4-5.4,8.75-12.87,8.75-21.12s-3.34-15.71-8.75-21.12c-5.4-5.4-12.87-8.75-21.12-8.75-4.92,0-9.56,1.19-13.64,3.29-4.25,2.19-7.9,5.36-10.66,9.21Z"/>
    <path class="cls-30" d="M607.35,73.56c-.83.72-3.08,3.03-4.5,7.93,1.23.82,4.62,3.41,3.03,6.17l-6.62,11.45c-1.61,2.68-5.5,1.06-6.82.41-3.54,3.68-4.41,6.79-4.62,7.86,2.28,1.19,4.35,1.49,6.07,1.28,2.45-.29,4.18-1.58,4.83-2.71l12.85-22.25c.64-1.14.88-3.27-.08-5.52-.68-1.59-1.97-3.23-4.15-4.61h0ZM601.5,81.61c1.76-6.53,5.07-9.07,5.41-9.32.2-.16.49-.19.72-.05,2.67,1.58,4.23,3.54,5.04,5.44,1.13,2.65.81,5.23.02,6.64l-12.85,22.26c-.81,1.41-2.9,3-5.78,3.35-2.05.25-4.51-.12-7.21-1.63-.22-.11-.37-.35-.35-.62,0-.01.34-4.32,5.35-9.37.2-.22.53-.28.79-.12.01,0,4.25,2.45,5.54.26l6.6-11.43c1.23-2.13-2.62-4.48-2.96-4.68-.26-.13-.4-.44-.32-.73Z"/>
    <text class="cls-42" transform="translate(567.28 92.12)"><tspan x="0" y="0">24</tspan></text>
  </g>
  <g>
    <path class="cls-26" d="M394.32,35.7h42.7c3.66,0,6.65,2.99,6.65,6.65v37.19c0,.31-.17.57-.46.69-.28.12-.59.06-.81-.16l-11.34-11.34h-36.75c-3.66,0-6.65-2.99-6.65-6.65v-19.73c0-3.66,2.99-6.65,6.65-6.65Z"/>
    <g>
      <path class="cls-8" d="M389.28,31.38h42.7c2.07,0,3.96.85,5.32,2.21,1.36,1.37,2.21,3.25,2.21,5.32v37.19c0,.33-.1.64-.27.9-.17.26-.42.47-.73.6h0c-.31.13-.63.16-.93.1-.31-.06-.6-.21-.83-.45l-11.08-11.08h-36.38c-2.07,0-3.96-.85-5.32-2.21-1.36-1.37-2.21-3.25-2.21-5.32v-19.73c0-2.07.85-3.96,2.21-5.32,1.37-1.37,3.25-2.21,5.32-2.21h0ZM431.98,33.14h-42.7c-1.59,0-3.03.65-4.08,1.7-1.05,1.05-1.7,2.49-1.7,4.08v19.73c0,1.59.65,3.03,1.7,4.08,1.05,1.05,2.49,1.7,4.08,1.7h37.11l11.36,11.36v-36.87c0-1.59-.65-3.03-1.7-4.08-1.05-1.05-2.49-1.7-4.08-1.7Z"/>
      <path class="cls-8" d="M388.92,38.73c-.27,0-.48-.22-.48-.48s.22-.48.48-.48h43.41c.27,0,.48.22.48.48s-.22.48-.48.48h-43.41Z"/>
      <path class="cls-8" d="M388.92,43.42c-.27,0-.48-.22-.48-.48s.22-.48.48-.48h4.6c.27,0,.48.22.48.48s-.21.48-.48.48h-4.6ZM399.64,43.42c-.27,0-.48-.22-.48-.48s.21-.48.48-.48h32.69c.27,0,.48.22.48.48s-.22.48-.48.48h-32.69Z"/>
      <path class="cls-8" d="M388.92,48.11c-.27,0-.48-.21-.48-.48s.22-.48.48-.48h43.41c.27,0,.48.22.48.48s-.22.48-.48.48h-43.41Z"/>
      <path class="cls-8" d="M400.99,54.48c-.27,0-.48-.22-.48-.48s.22-.48.48-.48h31.34c.27,0,.48.22.48.48s-.22.48-.48.48h-31.34Z"/>
      <path class="cls-8" d="M414.99,59.56c-.26,0-.48-.22-.48-.48s.22-.48.48-.48h17.34c.27,0,.48.22.48.48s-.22.48-.48.48h-17.34Z"/>
      <path class="cls-8" d="M405.05,59.56c-.27,0-.48-.22-.48-.48s.22-.48.48-.48h6.2c.27,0,.48.22.48.48s-.22.48-.48.48h-6.2Z"/>
    </g>
  </g>
  <path class="cls-26" d="M640.82,366.33c0-.61-.49-1.1-1.1-1.1s-1.1.49-1.1,1.1v2.58h-2.58c-.61,0-1.1.49-1.1,1.1s.49,1.09,1.1,1.09h2.58v2.58c0,.6.49,1.1,1.1,1.1s1.1-.49,1.1-1.1v-2.58h2.58c.61,0,1.1-.49,1.1-1.09s-.49-1.1-1.1-1.1h-2.58v-2.58Z"/>
  <g>
    <g>
      <path class="cls-16" d="M212.94,348.99h-37.13c-1.53,0-2.91.62-3.92,1.63-1.01,1.01-1.63,2.39-1.63,3.92s.62,2.92,1.63,3.92c1.01,1.01,2.39,1.63,3.92,1.63h37.13c1.53,0,2.91-.62,3.92-1.63,1.01-1,1.63-2.39,1.63-3.92s-.62-2.91-1.63-3.92c-1-1.01-2.39-1.63-3.92-1.63Z"/>
      <path class="cls-8" d="M129.88,349.64h47.48c2.7,0,4.9,2.21,4.9,4.9h0c0,2.7-2.21,4.9-4.9,4.9h-47.48v-9.81Z"/>
      <path class="cls-23" d="M129.88,348.99c-.36,0-.65.29-.65.65s.29.65.65.65h47.48c1.17,0,2.23.48,3.01,1.25.77.77,1.25,1.84,1.25,3.01s-.48,2.24-1.25,3.01c-.77.77-1.84,1.25-3.01,1.25h-47.48c-.36,0-.65.29-.65.65s.29.65.65.65h47.48c1.53,0,2.91-.62,3.92-1.63,1.01-1,1.63-2.39,1.63-3.92s-.62-2.91-1.63-3.92c-1.01-1.01-2.39-1.63-3.92-1.63h-47.48Z"/>
      <path class="cls-23" d="M211.23,354.54c0-1.53-.62-2.91-1.63-3.92-1.01-1.01-2.39-1.63-3.92-1.63h4.83c1.53,0,2.91.62,3.92,1.63,1.01,1.01,1.63,2.39,1.63,3.92s-.62,2.92-1.63,3.92c-1,1.01-2.39,1.63-3.92,1.63h-4.83c1.53,0,2.91-.62,3.92-1.63,1.01-1,1.63-2.39,1.63-3.92Z"/>
      <path class="cls-23" d="M204.23,354.54c0-1.53-.62-2.91-1.63-3.92-1.01-1.01-2.39-1.63-3.92-1.63h4.83c1.53,0,2.92.62,3.92,1.63,1.01,1.01,1.63,2.39,1.63,3.92s-.62,2.92-1.63,3.92c-1.01,1.01-2.39,1.63-3.92,1.63h-4.83c1.53,0,2.92-.62,3.92-1.63,1.01-1,1.63-2.39,1.63-3.92Z"/>
    </g>
    <g>
      <path class="cls-10" d="M139.64,339.27h32.51c1.34,0,2.55.55,3.43,1.43.88.88,1.43,2.1,1.43,3.43s-.55,2.55-1.43,3.43c-.88.88-2.1,1.43-3.43,1.43h-32.51c-1.34,0-2.55-.55-3.43-1.43-.88-.88-1.43-2.1-1.43-3.43s.55-2.55,1.43-3.43c.88-.88,2.1-1.43,3.43-1.43Z"/>
      <path class="cls-8" d="M212.37,339.84h-41.58c-2.36,0-4.29,1.93-4.29,4.29h0c0,2.36,1.93,4.29,4.29,4.29h41.58v-8.59Z"/>
      <path class="cls-13" d="M212.37,339.27c.31,0,.57.25.57.57s-.25.57-.57.57h-41.58c-1.02,0-1.96.42-2.63,1.09-.68.68-1.1,1.61-1.1,2.63s.42,1.96,1.1,2.63c.68.67,1.61,1.09,2.63,1.09h41.58c.31,0,.57.25.57.57s-.25.57-.57.57h-41.58c-1.34,0-2.55-.55-3.43-1.43-.88-.88-1.43-2.1-1.43-3.43s.55-2.55,1.43-3.43c.88-.88,2.1-1.43,3.43-1.43h41.58Z"/>
      <path class="cls-13" d="M141.14,344.13c0-1.34.55-2.55,1.43-3.43.88-.88,2.1-1.43,3.43-1.43h-4.23c-1.34,0-2.55.55-3.43,1.43-.88.88-1.43,2.1-1.43,3.43s.55,2.55,1.43,3.43c.88.88,2.1,1.43,3.43,1.43h4.23c-1.34,0-2.55-.55-3.43-1.43-.88-.88-1.43-2.1-1.43-3.43Z"/>
      <path class="cls-13" d="M147.26,344.13c0-1.34.55-2.55,1.43-3.43.88-.88,2.1-1.43,3.43-1.43h-4.23c-1.34,0-2.55.55-3.43,1.43-.88.88-1.43,2.1-1.43,3.43s.55,2.55,1.43,3.43c.88.88,2.1,1.43,3.43,1.43h4.23c-1.34,0-2.55-.55-3.43-1.43-.88-.88-1.43-2.1-1.43-3.43Z"/>
    </g>
  </g>
  <g>
    <path class="cls-40" d="M273.24,351.21h159.69c2.8,0,5.07,2.27,5.07,5.07h0c0,2.8-2.27,5.07-5.07,5.07h-159.69c-2.8,0-5.07-2.27-5.07-5.07h0c0-2.8,2.27-5.07,5.07-5.07Z"/>
    <path class="cls-28" d="M433.23,361.36h-159.69c-1.81,0-3.46-.96-4.44-2.39.81-1.43,2.35-2.39,4.16-2.39h159.69c1.81,0,3.46.96,4.44,2.39-.81,1.43-2.35,2.39-4.16,2.39Z"/>
    <path class="cls-28" d="M436.57,351.21h-127.73c-3.65,0-6.45-2.99-6.22-6.64l5.23-82.73c.23-3.65,3.4-6.63,7.05-6.63h127.73c3.65,0,6.45,2.99,6.22,6.63l-5.23,82.73c-.23,3.65-3.4,6.64-7.05,6.64Z"/>
    <path class="cls-8" d="M436.57,351.21h-123.96c-3.65,0-6.45-2.99-6.22-6.64l5.23-82.73c.23-3.65,3.4-6.63,7.05-6.63h123.96c3.65,0,6.45,2.99,6.21,6.63l-5.23,82.73c-.23,3.65-3.4,6.64-7.05,6.64Z"/>
    <path class="cls-24" d="M429.81,351.21h-12.76l-105.74-84.52.31-4.85c.09-1.45.65-2.79,1.51-3.89l116.68,93.26h0ZM327.46,255.21l115.35,92.19c.46-.86.75-1.82.81-2.83l.81-12.87-95.72-76.5h-21.26Z"/>
    <path class="cls-35" d="M273.24,351.21h29.02c2.8,0,5.07,2.27,5.07,5.07h0c0,2.8-2.27,5.07-5.07,5.07h-29.02c-2.8,0-5.07-2.27-5.07-5.07h0c0-2.8,2.27-5.07,5.07-5.07Z"/>
    <path class="cls-4" d="M435.31,353.75h-132.88c-1.39,0-2.6-1.14-2.69-2.54h0c-.08-1.4.99-2.54,2.38-2.54h132.88c1.39,0,2.6,1.14,2.69,2.54h0c.08,1.4-.99,2.54-2.38,2.54Z"/>
  </g>
  <g>
    <path class="cls-30" d="M284.08,248.7c-.98-4.88-.73-7.6.2-12.23l-20.94-1.77,29.15-12.77s6.19-7.59,9.1-15.04c2.92-7.46-4.99-26.41-7.96-31.11-2.97-4.7-9.14-4-13.21-1.45,0,0-6.1-9.2-13.39-9.81-7.29-.62-30.45,1.52-37.18,18.52-6.73,17,4.1,33.99-6.74,51.48,0,0-.95,2.21.45,4.08,1.41,1.86,18.49,21.78,57.44,13.75,0,0,3.1-.72,3.09-3.63h0Z"/>
    <path class="cls-5" d="M256.64,253.91c2.15-23.42,3.66-43.77,3.66-43.77l-1.99-6.6s-17.93,14.49-30.66-.75c.6,10.46,2.1,20.99-4.54,31.71,0,0-.95,2.21.45,4.08l.06.08.02.03.05.06.05.06.03.04.09.11h0s.11.14.11.14l.03.04.09.11.08.09.06.07.13.15.02.02.16.18.04.04.14.15.1.11.09.1.07.07.14.14.22.22.15.15.12.11c3.73,3.6,12.4,10.27,27.03,12.58h.04c1.27.21,2.58.37,3.94.5h.01Z"/>
    <path class="cls-5" d="M284.08,248.7c-1.33-6.62-.4-9.29,1.46-18.14l-33.32-5.24-14.56,2.82s-1.27,8.16-5.08,18.03c8.87,5.49,24.53,11.08,48.42,6.16,0,0,3.1-.72,3.09-3.63h0Z"/>
    <path class="cls-10" d="M239.87,250.14c9.22,2.89,21.83,6.35,32.7,11.69.75.37-.78,3.26-.08,3.65,1.06.59,2.83,1.96,4.77,3.88,5.08,5.02,15.41,44.31,14.48,48.22-1.48,6.3-14.53,23.6-14.53,23.6-2.59,5.01-5.81,12.3-8.96,20.18h-64.82c4.52-14.68,6.2-24.62,6.32-33.58h0c3.46-30.46-12.92-37.09-12.92-37.09l16.96-39.92c6.6-2.34,19.76-1.46,19.76-1.46,3.48,0,3.21-.15,6.33.83Z"/>
    <path class="cls-13" d="M268.25,361.36h-9.15c1.7-4.56,9.64-26.14,11.33-30.75-7.71-1.34-18.32-3.18-20.19-3.63-1.87-.45-9.04,3.65-9.04,3.65l.8-4.66-7.69,7.75,13.15-24.57s21.47,4.85,26.03,5.68c4.56.83,1.78.2,2.63.13,2.54-7.13-1.62-9.13-1.12-12.58.49-3.45.64-36.94.64-36.94,2.77,1.44,4.03,4.56,5.6,9.49,1.03,3.24,6.51,24.56,8.78,37.16.54,3,.97,5.24,1.24,7.03-5.09,12.97-16.5,26.02-22.99,42.23Z"/>
    <path class="cls-25" d="M255.88,213.34l-3.25,9.75s-4.91,23.01-6.04,25.99c-.39,1.04-1.69,1.35-3.69,1.3,2.87,4.11,8.45,10.39,16.51,11.92,5.15.98,8.75.01,11.19-1.43-1.72-.91-3.37-1.99-3.36-2.88.07-7.85,1.42-21.67,5.67-24.23,4.87-2.93-17.04-20.43-17.04-20.43Z"/>
    <path class="cls-8" d="M244.52,250.32c-1.16.15-2.73.04-4.65-.18,1.98,2.86,5.19,6.07,10.32,9.33,12.71,8.06,18.84,3.67,20.77,1.6-1.19-.61-2.4-1.31-3.1-1.99h0c-11.87,5.8-23.35-8.75-23.35-8.75h0Z"/>
    <path class="cls-17" d="M272.05,261.59s5.07,51.03,4.45,55.33c-.62,4.31-8.68,25.54-15.74,44.44h12.15c2.4-4.62,4.23-8.23,4.57-9.1.22-.56,1.06-2.19,2.21-4.33,2.08-3.84,5.18-9.32,7.51-13.16,7.45-12.23,7.43-9.37,4.85-23.7-2.27-12.61-9.23-35.93-10.26-39.18-1.57-4.93-8.42-10.66-9.74-10.3Z"/>
    <path class="cls-30" d="M271.34,332.61c-1.67,4.67-3.61,9.98-5.63,15.44,3.69.32,6.64.69,7.69,1.1,3.69,1.45,4.08,3.11,4.08,3.11.22-.56,1.06-2.19,2.21-4.33,2.08-3.84,5.18-9.32,7.51-13.16,2.24-3.68,3.8-5.99,4.83-7.82-1.43,1.26-3.72,3.16-4.83,3.49-1.35.41-11.7,1.67-15.86,2.17Z"/>
    <path class="cls-17" d="M237.96,249.06s9.3,45.07,10.58,58.17c1.28,13.1-2.82,22.48-7.43,32.32-1.55,3.32-6.54,11.79-12.67,21.81h-28.64l3.06-70.8-8.21-1.9c.49-3.56.89-6.5,1.16-8.57l16.17-28.59s6.1-4.95,25.99-2.44Z"/>
    <path class="cls-30" d="M220.55,270.75c-4.57,18.35-1.4,25.96-1.4,25.96l2.45-11.42s2.32,16.86,4.89,19.01c1.28,1.07,16.51,3.99,22.21,5.05.39,7.15-.83,13.2-2.8,18.88-4.1.42-28.73-3.05-29.91,4.91-.59,3.97-.45-8.8-.45-8.8l-1.46,37.02h-14.28l3.06-70.8-8.21-1.9.02-.17.02-.16.02-.17.02-.16h0l.02-.16.02-.16.02-.16.02-.16.02-.16.02-.16.02-.16h0l.02-.16.02-.16.02-.15h0s.02-.15.02-.15l.02-.15h0l.02-.15h0l.02-.15h0l.02-.15h0l.02-.15h0l.02-.15h0l.02-.15h0l.02-.14h0s.02-.14.02-.14h0l.02-.14h0l.02-.14h0l.02-.14h0s.02-.14.02-.14h0l.02-.14h0l.02-.14h0l.02-.14h0s.02-.14.02-.14h0l.02-.13h0s.02-.13.02-.13h0l.02-.13h0l.02-.13h0s.02-.13.02-.13h0s.02-.13.02-.13h0s.02-.13.02-.13h0l.02-.13h0l.02-.12h0l.02-.12h0l.02-.12h0s.02-.12.02-.12h0l.02-.12h0s.02-.12.02-.12h0l.02-.12h0s.02-.12.02-.12h0l.02-.12h0l.02-.12h0l.02-.11h0s.02-.11.02-.11h0l.02-.11h0s.01-.11.01-.11h0v-.11s.01,0,.01,0v-.11h.01v-.11h.01v-.1s.01,0,.01,0v-.1s.01,0,.01,0v-.1s.01,0,.01,0v-.1s.01,0,.01,0v-.1s.01,0,.01,0v-.1s.01,0,.01,0v-.1s8.77-15.48,8.77-15.48l15.99,6.14Z"/>
    <path class="cls-32" d="M197.9,271.5c-5.24,14.33-6.67,63.47-2.35,89.86h23.01c-9.41-52.37,10.36-89.83,6.01-103.1-6.95-21.25-23.22,3.83-26.67,13.25Z"/>
    <path class="cls-5" d="M289.93,223.06l2.56-1.12s4.34-5.32,7.46-11.43c-.61,1.16-4.65,8.23-10.57,3.91-6.43-4.7-6.69,2.74-6.69,2.74,0,0,3.89,4.42,6.15,5.45.29.13.66.29,1.08.45h0ZM300.03,210.34h0s0,0,0,0Z"/>
    <path class="cls-25" d="M287.2,218.78c-4.03-.42-7.63,2.51-8.05,6.54s2.51,7.63,6.54,8.05c4.03.42,7.63-2.51,8.05-6.54.42-4.03-2.51-7.63-6.54-8.05Z"/>
    <path class="cls-25" d="M236.11,213.58c-.18,0-.36.02-.54.05h0s0,0,0,0c-3.32.41-6.04,3.06-6.39,6.52-.42,4.03,2.51,7.63,6.54,8.05,4.03.42,7.63-2.51,8.05-6.54.24-2.34-.64-4.54-2.22-6.05,0,2.17-.56,4.81-3.34,4.85l.44-4.21c.18-1.7-1.35-2.62-2.52-2.67Z"/>
    <path class="cls-20" d="M267.7,179.48h0c-13.75-1.42-26.15,8.66-27.58,22.4l-2.35,22.71c-1.42,13.74,8.66,26.15,22.4,27.58h0c13.74,1.42,26.15-8.66,27.58-22.4l2.35-22.71c1.42-13.74-8.66-26.15-22.4-27.58Z"/>
    <path class="cls-22" d="M239.71,205.86l-1.94,18.73c-1.19,11.51,5.68,22.08,16.01,26.05-14.62-6.06-7.13-31.47-7.13-31.47,2.96-.5,7.63-6.02,10.35-9.24,2.71-3.21,4.82-6.45,9.5-6.36,4.68.09,14.59,2.55,14.59,2.55,2.07,4.89,5.88,8.45,8.05,10.2l.96-9.27c.29-2.77.11-5.48-.48-8.07-.61-.36-1.23-.72-1.89-1.09-20.12-11.31-37.2-2.16-48.03,7.96Z"/>
    <path class="cls-5" d="M286.36,199.95l-4.06,1.73s-3.78-2.33-8.19-1.32c0,0-8.92-3.28-13.65-1.45-4.73,1.83-1.95-4.74-1.08-5.02.87-.29,9.82-.86,13.73-.1,3.91.75,9.79,1.67,9.79,1.67l3.47,4.5Z"/>
    <path class="cls-5" d="M238.85,212.36l2.41.42s1.67,7.61-3.05,7.67l.44-4.21c.03-.29,0-.56-.05-.81l.26-3.08Z"/>
    <path class="cls-30" d="M274.1,200.35c-3.67-4.96-9.67-5.97-14.34.99-4.26,6.36-10.59,17.36-21.25,16.46l-.05-.2h.03s.6-7.1.6-7.1c0,0-.9.23-1.99.49-.57-3.71-.96-8.41-.37-12.72,1.23-8.92,13.65-21.95,27.65-22.45,14-.5,24.13,7.81,26.13,12.55,2.01,4.74,3.99,15.5,3.99,15.5l-2.46,3.52-2.65,7c-6.44-6.26-5.78-12.19-8.58-15.17-1.52-1.62-3.78-1.62-6.71,1.12Z"/>
    <path class="cls-5" d="M258.31,203.55c-4.22,6.39-10.29,15.06-19.79,14.26l-.05-.2h.03s.6-7.1.6-7.1c0,0-.9.23-1.99.49-.09-.61-.18-1.25-.26-1.92,10.73,3.11,21.43-5.51,21.47-5.54Z"/>
    <path class="cls-19" d="M269.35,260.17s6.54,53.63,6.41,55.37c-.13,1.74-1.87,10.13-1.87,10.13,0,0,3.16-5.29,3.93-9.68.77-4.39,2.84-34.05,2.84-34.05l-3.48-1.87,3.22-.19-5.32-16.66s-.61-1.24-1.45-1.72c-.84-.48-3.89-2.02-3.94-2.04-.05-.02-.81-.11-1.19.14,0,0,.63.43.86.57Z"/>
    <path class="cls-19" d="M237.96,249.06s9.3,45.07,10.58,58.17c.52,5.37.14,10.11-.81,14.52,1.71-13.4-17.14-44.93-17.14-44.93l4.9-2.32-6.58-2.97s3.03-16.96,3.22-19.8c.19-2.76-1.27-3.27-1.36-3.3,2.16.1,4.55.3,7.18.63Z"/>
    <path class="cls-14" d="M51.84,381.26h8.14c3.25,0,5.9-2.66,5.9-5.9h0c0-3.25-2.66-5.9-5.9-5.9h-21.52c-2.57,0-4.69-2.11-4.69-4.68h0c0-2.58,2.11-4.69,4.69-4.69h568.42c2.58,0,4.68,2.11,4.68,4.69h0c0,2.58-2.11,4.68-4.68,4.68h-29.51c-3.25,0-5.9,2.66-5.9,5.9h0c0,3.25,2.66,5.9,5.9,5.9h6.92c5.15,0,9.37,4.22,9.37,9.37h0c0,5.15-4.22,9.37-9.37,9.37H51.84c-5.15,0-9.37-4.22-9.37-9.37h0c0-5.15,4.22-9.37,9.37-9.37h0ZM25.81,360.09c2.59,0,4.69,2.1,4.69,4.69s-2.1,4.68-4.69,4.68-4.69-2.1-4.69-4.68,2.1-4.69,4.69-4.69Z"/>
  </g>
  <g>
    <path class="cls-2" d="M342.79,114.54h-42.7c-2.07,0-3.96.85-5.32,2.21-1.37,1.37-2.21,3.25-2.21,5.32v37.19c0,.33.1.64.27.9.17.26.42.47.73.6h0c.31.13.63.16.93.1.31-.06.6-.21.83-.45l11.08-11.08h36.38c2.07,0,3.96-.85,5.32-2.21,1.37-1.37,2.21-3.25,2.21-5.32v-19.73c0-2.07-.85-3.96-2.21-5.32-1.36-1.37-3.25-2.21-5.32-2.21h0ZM300.09,116.29h42.7c1.59,0,3.03.65,4.08,1.7,1.05,1.05,1.7,2.49,1.7,4.08v19.73c0,1.59-.65,3.03-1.7,4.08-1.05,1.05-2.49,1.7-4.08,1.7h-37.11l-11.36,11.36v-36.87c0-1.59.65-3.03,1.7-4.08,1.05-1.05,2.49-1.7,4.08-1.7Z"/>
    <path class="cls-2" d="M343.14,121.89c.27,0,.48-.22.48-.48s-.21-.48-.48-.48h-43.41c-.27,0-.48.22-.48.48s.22.48.48.48h43.41Z"/>
    <path class="cls-2" d="M343.14,126.58c.27,0,.48-.22.48-.48s-.21-.48-.48-.48h-4.6c-.26,0-.48.22-.48.48s.22.48.48.48h4.6ZM332.42,126.58c.27,0,.48-.22.48-.48s-.21-.48-.48-.48h-32.69c-.27,0-.48.22-.48.48s.22.48.48.48h32.69Z"/>
    <path class="cls-2" d="M343.14,131.27c.27,0,.48-.22.48-.48s-.21-.48-.48-.48h-43.41c-.27,0-.48.22-.48.48s.22.48.48.48h43.41Z"/>
    <path class="cls-2" d="M331.07,137.63c.27,0,.48-.22.48-.48s-.21-.48-.48-.48h-31.34c-.27,0-.48.21-.48.48s.22.48.48.48h31.34Z"/>
    <path class="cls-2" d="M317.07,142.72c.27,0,.48-.22.48-.48s-.22-.48-.48-.48h-17.35c-.27,0-.48.22-.48.48s.22.48.48.48h17.35Z"/>
    <path class="cls-2" d="M327.01,142.72c.27,0,.48-.22.48-.48s-.22-.48-.48-.48h-6.2c-.27,0-.48.22-.48.48s.22.48.48.48h6.2Z"/>
  </g>
</svg>