<?xml version="1.0" encoding="UTF-8"?>
<svg id="_Ñëîé_1" data-name="Ñëîé_1" xmlns="http://www.w3.org/2000/svg" width="413.45" height="349.39" viewBox="0 0 413.45 349.39">
  <defs>
    <style>
      .cls-1 {
        fill: #e8a200;
      }

      .cls-2 {
        fill: #95d359;
      }

      .cls-3 {
        fill: #ea9c92;
      }

      .cls-4 {
        fill: #8a2ae3;
      }

      .cls-5 {
        fill: #6614cf;
      }

      .cls-6 {
        fill: #ffc2b0;
      }

      .cls-7 {
        fill: #5793ce;
      }

      .cls-8 {
        fill: #f9bf30;
      }

      .cls-9 {
        fill: #fff;
      }

      .cls-10 {
        opacity: .4;
      }

      .cls-10, .cls-11 {
        fill: #d4ecff;
      }

      .cls-12 {
        fill: #b45ef4;
      }

      .cls-13 {
        fill: #fafdff;
      }

      .cls-14 {
        fill: #ff2c9c;
      }

      .cls-15 {
        fill: #274f89;
      }

      .cls-16 {
        fill: #fdd762;
      }

      .cls-17 {
        fill: #721bd5;
      }

      .cls-18 {
        fill: #d3008d;
      }

      .cls-19 {
        fill: #ef602e;
      }

      .cls-20 {
        fill: #db5126;
      }

      .cls-21 {
        fill: #983be9;
      }

      .cls-22 {
        fill: #c13d1a;
      }

      .cls-23 {
        fill: #d29fff;
      }

      .cls-24 {
        fill: #396caa;
      }

      .cls-25 {
        fill: #173d7a;
      }

      .cls-26 {
        fill: #d8892b;
      }
    </style>
  </defs>
  <g>
    <rect class="cls-16" x="2.2" y="207.2" width="2.25" height="6.55" transform="translate(-167.06 334.09) rotate(-125.06)"/>
    <rect class="cls-16" x="4.11" y="203.11" width="2.25" height="6.55" transform="translate(-160.69 329.21) rotate(-125.06)"/>
    <rect class="cls-16" x="6.03" y="199.01" width="2.25" height="6.55" transform="translate(-154.33 324.33) rotate(-125.06)"/>
    <rect class="cls-16" x="7.94" y="194.92" width="2.25" height="6.55" transform="translate(-147.97 319.44) rotate(-125.05)"/>
  </g>
  <path class="cls-14" d="M359.74,124.32l1.02-1.72s.85.47,1.76.18c.73-.23,1.36-.89,1.87-1.95,1.81-3.76,5.16-4.05,6.68-3.67l-.48,1.94.24-.97-.23.97c-.29-.07-2.89-.56-4.41,2.6-.77,1.6-1.82,2.61-3.11,3-1.73.52-3.18-.28-3.33-.38Z"/>
  <path class="cls-11" d="M66.27,225.44c-4.74,2.74-12.44,2.74-17.18,0-4.74-2.74-4.75-7.18,0-9.92s12.44-2.74,17.18,0c4.74,2.74,4.74,7.18,0,9.92Z"/>
  <g>
    <path class="cls-5" d="M50.02,131.81s.33,6.72.84,11.23c.51,4.52,11.39-3.47,11.39-3.47v-5.14l-12.22-2.62Z"/>
    <g>
      <path class="cls-25" d="M55.82,215.4c.16.41,2.98,3.84,5.8,4.7,1.23.37,2.05.42,2.59.36.54-.06.88-.62.69-1.14-.48-1.36-1.87-4.21-5.41-5.96-4.78-2.37-3.68,2.04-3.68,2.04Z"/>
      <path class="cls-25" d="M54.88,216.72s1.06,2.49,1.39,4.57c.2,1.27-.5,2.92-1.07,4.01-.36.68-1.26.83-1.83.32-.92-.84-2.09-2.29-2.29-4.37-.33-3.51,0-4.12,0-4.12l3.8-.41Z"/>
      <path class="cls-16" d="M48.09,174.27s-.37,4.43,0,9.33c.37,4.9,1.68,27.82,1.93,33.33,0,0-.12,1.67,3.11,1.3,3.23-.37,2.97-2.22,2.97-2.22,0,0,4.54-.06,4.68-2.74.14-2.67,4.65-31.94,4.65-42.46l-17.34,3.46Z"/>
      <g>
        <path class="cls-6" d="M67.11,151.37l2.22,3.44,7.64,9.23s-.26.86-1.21,1.08c-.74.18-7.17-5.96-9.95-8.65-.74-.71-.86-1.85-.29-2.71l1.59-2.4Z"/>
        <path class="cls-4" d="M62.77,137.23s3.53-.09,4.76,5.01c1.23,5.1,2.19,11.5,1.12,12.03-3.21,1.59-5.24-.27-5.24-.27l-.64-16.77Z"/>
        <path class="cls-21" d="M63.82,137.45c-.6-.25-1.28-.29-1.91-.1-3.01.86-14.32,4.18-16.19,5.78-2.15,1.84,3.23,12.19,3.15,15.58s-.46,7.39-.76,11.08c-.3,3.69-.71,5.71,2.31,7.28,3.02,1.57,8.17,1.64,12.02-1.3,3.86-2.94,3.16-4.95,3-7.08-.16-2.13-1.47-11.36-1.36-13.97,0,0,1.36-1,2.36-2.72,1.01-1.72-.77-4.87-1.51-6.92-.74-2.05.42-4.4.19-6.07-.12-.86-.67-1.28-1.31-1.55Z"/>
        <path class="cls-9" d="M60.21,140.98c.24,1.86-1.47,3.62-3.82,3.92-2.35.3-4.44-.97-4.68-2.83-.24-1.86,1.47-3.62,3.82-3.92s4.44.97,4.68,2.83Z"/>
        <path class="cls-6" d="M59,141.13c.17,1.33-1.05,2.59-2.73,2.8-1.68.22-3.18-.69-3.35-2.02s1.05-2.59,2.73-2.8,3.18.69,3.35,2.02Z"/>
        <path class="cls-6" d="M57.33,136.76s-2.04-1.68-2.44-.83c-.4.85-.73,4.5-.73,4.5l4.06,1.09-.62-3.7s.81-.69-.27-1.06Z"/>
        <path class="cls-6" d="M63.67,132.76c-.2,3.34-3.06,5.89-6.4,5.69-3.34-.2-5.89-3.06-5.69-6.4.2-3.34,3.06-5.89,6.4-5.69s5.89,3.06,5.69,6.4Z"/>
        <path class="cls-3" d="M54.6,136.99c-.04.19-.07.39-.1.6.41,2.11,3.56,3.03,3.56,3.03l-.47-2.8s.38-.32.27-.65c-1.25-.39-2.82-.74-3.27-.19Z"/>
        <path class="cls-6" d="M63.67,132.76c-.2,3.34-3.06,5.89-6.4,5.69-3.34-.2-5.89-3.06-5.69-6.4.2-3.34,3.06-5.89,6.4-5.69s5.89,3.06,5.69,6.4Z"/>
        <polygon class="cls-6" points="42.7 158.04 43.38 174.24 45.75 174.48 47.29 159.9 42.7 158.04"/>
        <path class="cls-4" d="M50.49,156.68c-.78-3.46-2.33-11.11-2.33-11.11l-.66,7.6c.76,2.26,1.42,4.32,1.39,5.52-.05,1.99-.2,4.19-.37,6.42h0s2.76-4.98,1.98-8.44Z"/>
        <path class="cls-12" d="M46.18,142.79s-1.89.72-2.97,6.54c-1.07,5.82-1.87,11.65.04,12.4,1.91.75,3.51,1.32,4.07-.24s.91-9.06.98-11.75c.07-2.7.17-6.42-2.12-6.95Z"/>
        <path class="cls-6" d="M76.4,163.37s1.03.38,1.77,1.18c.61.66.94,1.22,1.21,1.62.59.88,1.09,2.78.73,3.02-.36.24-2.42-3.19-2.75-2.39-.33.8,0,1.53-.42,1.54-.43.01-1.9-3.44-3.07-4.51-1.16-1.07,2.54-.47,2.54-.47Z"/>
      </g>
      <path class="cls-26" d="M56.1,216.02s.56,0,1.3-.13h0l.89-35.62-2.19,35.76Z"/>
    </g>
    <g>
      <path class="cls-21" d="M52.67,196.77l-1.26-1.65-13.26-7.68c-.42-.25-.77-.91-.77-1.47v-10.85s-.75-1-.75-1l.72-.41h0c.14-.09.32-.09.52.03l15.02,8.7c.43.25.77.91.77,1.47v11.82c-.01.32-.12.54-.29.63h0l-.7.4Z"/>
      <path class="cls-23" d="M43.5,190.55l-.94-.55-5.17-8.98v-5.9s-.76-1-.76-1l.72-.41h0c.14-.09.32-.09.52.03l15.02,8.7c.22.13.43.38.57.66l-9.96,7.44Z"/>
      <path class="cls-23" d="M36.97,174.57l-.34-.44.72-.41h0c.14-.09.32-.09.52.03l.26.15-1.16.67Z"/>
      <path class="cls-21" d="M53.03,182.54c.33.27.59.79.63,1.27l-1.47.85-.7-1.22,1.54-.89Z"/>
      <path class="cls-12" d="M52.18,182.86l-15.02-8.7c-.43-.25-.77.01-.77.58v11.82c-.01.57.33,1.23.76,1.47l15.02,8.7c.42.25.77-.01.77-.58v-11.82c.01-.57-.33-1.23-.76-1.47Z"/>
    </g>
    <path class="cls-6" d="M43.4,174.1s-.63,3.78-.53,4.99c.09,1.21.74,3.21,1.23,3.17.49-.04.02-4.87.88-4.39.86.48.96,1.31,1.35,1.01.39-.29-.68-4.42-.4-6.21.29-1.79-2.53,1.42-2.53,1.42Z"/>
    <path class="cls-3" d="M59.95,132.93c3.04,1.08,3.63.42,3.66.39.03-.18.05-.37.06-.56.04-.67-.04-1.32-.2-1.93l-7.88-1.06s1.24,2.06,4.36,3.17Z"/>
    <path class="cls-5" d="M63.88,126.73c-.72-.61-3.3-3.65-7.93-2.93-2.89.45-5.33,2.42-5.87,6.92-.36,3.03.75,6.02,2.8,8.23.11-.05.23-.1.33-.17,1.16-.76,1.28-1.18,1.28-1.19l.26-2.3c0-.33-.25-.62-.58-.64-.25-.02-.56-.14-.85-.52-.66-.87-.36-2.22.97-2.28.69-.03.96-.4,1.06-.76.09-.31.41-.48.71-.37,1.51.55,5.24,1.73,7.64,1.05,3.07-.87.89-4.45.18-5.06Z"/>
    <path class="cls-9" d="M60.43,135.67l1.85-.51s-.88,1.39-2.18,1.75c-1.29.35-1.49-.74-1.49-.74l1.81-.5Z"/>
    <polygon class="cls-23" points="46.55 178.77 44.97 177.87 45.56 178.84 46.36 179.13 46.55 178.77"/>
  </g>
  <g>
    <g>
      <polygon class="cls-11" points="364.62 229.31 352.38 222.24 340.14 229.31 352.38 236.38 364.62 229.31"/>
      <polygon class="cls-11" points="352.38 222.24 340.14 215.18 327.89 222.24 340.14 229.31 352.38 222.24"/>
      <polygon class="cls-17" points="354.22 216.24 354.22 195.07 364.62 189.07 364.62 210.24 354.22 216.24"/>
      <polygon class="cls-12" points="354.22 195.07 343.82 189.07 343.82 210.24 354.22 216.24 354.22 195.07"/>
      <polygon class="cls-4" points="364.62 189.07 354.22 183.06 343.82 189.07 354.22 195.07 364.62 189.07"/>
    </g>
    <polygon class="cls-2" points="364.62 218.24 354.22 212.24 354.22 216.24 364.62 222.24 364.62 218.24"/>
    <g>
      <polygon class="cls-22" points="343.82 222.24 343.82 190.22 354.22 184.22 354.22 216.24 343.82 222.24"/>
      <polygon class="cls-20" points="343.82 190.22 333.43 184.22 333.43 216.24 343.82 222.24 343.82 190.22"/>
      <polygon class="cls-19" points="354.22 184.22 343.82 178.22 333.43 184.22 343.82 190.22 354.22 184.22"/>
      <polygon class="cls-18" points="343.82 222.24 343.82 190.22 354.22 184.22 354.22 216.24 343.82 222.24"/>
      <polygon class="cls-18" points="343.82 190.22 333.43 184.22 333.43 216.24 343.82 222.24 343.82 190.22"/>
      <polygon class="cls-14" points="354.22 184.22 343.82 178.22 333.43 184.22 343.82 190.22 354.22 184.22"/>
    </g>
    <g>
      <polygon class="cls-1" points="354.22 228.25 354.22 210.24 364.62 204.23 364.62 222.24 354.22 228.25"/>
      <polygon class="cls-8" points="354.22 210.24 343.82 204.23 343.82 222.24 354.22 228.25 354.22 210.24"/>
      <polygon class="cls-16" points="364.62 204.23 354.22 198.23 343.82 204.23 354.22 210.24 364.62 204.23"/>
    </g>
  </g>
  <g>
    <g>
      <path class="cls-7" d="M257.96,112.52c-.46,0-.84-.38-.84-.84v-34.61c0-.46.38-.84.84-.84s.84.38.84.84v34.61c0,.46-.38.84-.84.84Z"/>
      <g>
        <g>
          <rect class="cls-7" x="254.95" y="74.89" width="6.01" height="12.98"/>
          <path class="cls-7" d="M260.08,89.1c-1.17.68-3.08.68-4.25,0-1.17-.68-1.17-1.78,0-2.45s3.08-.68,4.25,0c1.17.68,1.17,1.78,0,2.46Z"/>
        </g>
        <g>
          <rect class="cls-7" x="253.08" y="56.81" width="9.74" height="20.35"/>
          <path class="cls-24" d="M254.95,77.03v4.39c1.76.81,4.25.81,6.01,0v-4.39c-1.76-.81-4.25-.81-6.01,0Z"/>
          <path class="cls-7" d="M261.4,79.15c-1.9,1.1-4.99,1.1-6.89,0s-1.9-2.88,0-3.98,4.99-1.1,6.89,0c1.9,1.1,1.9,2.88,0,3.98Z"/>
        </g>
      </g>
    </g>
    <g>
      <path class="cls-7" d="M291.71,131.52c-.46,0-.84-.38-.84-.84v-34.61c0-.46.38-.84.84-.84s.84.38.84.84v34.61c0,.46-.38.84-.84.84Z"/>
      <g>
        <g>
          <rect class="cls-7" x="288.7" y="93.89" width="6.01" height="12.98"/>
          <path class="cls-7" d="M293.84,108.09c-1.17.68-3.08.68-4.25,0-1.17-.68-1.17-1.78,0-2.46,1.17-.68,3.08-.68,4.25,0,1.17.68,1.17,1.78,0,2.45Z"/>
        </g>
        <g>
          <rect class="cls-7" x="286.84" y="75.8" width="9.74" height="20.35"/>
          <path class="cls-24" d="M288.7,96.02v4.39c1.76.81,4.25.81,6.01,0v-4.39c-1.76-.81-4.25-.81-6.01,0Z"/>
          <path class="cls-7" d="M295.16,98.14c-1.9,1.1-4.99,1.1-6.89,0-1.9-1.1-1.9-2.88,0-3.98,1.9-1.1,4.99-1.1,6.89,0s1.9,2.88,0,3.98Z"/>
        </g>
      </g>
    </g>
    <g>
      <g>
        <polygon class="cls-7" points="324.52 109.57 337.59 101.87 325.15 86.34 321.87 91.69 324.52 109.57"/>
        <path class="cls-7" d="M229.65,24.34l20.85-12s-.78,11.97-.78,12-11.98,3.71-11.98,3.71l-8.09-3.71Z"/>
        <path class="cls-7" d="M328.16,70.52c-1.59-.92-3.1-1.45-4.51-1.67-2.1-11.05-9.79-22.78-18.96-28.08-2.76-1.59-5.38-2.44-7.76-2.63-1.25-13.39-10.56-28.61-21.87-35.14-5.91-3.41-11.27-3.81-15.22-1.73h0s-.19.1-.19.1c-.1.06-.2.11-.3.17l-12.3,7.26,4.09,3.23c-3.67,1.6-5.99,5.72-5.99,11.8,0,11.21,7.87,24.85,17.58,30.45l65.43,46.72c7.29,4.21,13.2.8,13.2-7.62s-5.91-18.66-13.2-22.87Z"/>
        <path class="cls-7" d="M245.75,18.9l28.22-16.49c-5.48-2.86-10.43-3.09-14.14-1.13h0s-.19.1-.19.1c-.1.06-.2.11-.3.17l-12.3,7.26,4.09,3.23c-2.56,1.12-4.46,3.47-5.38,6.86Z"/>
        <path class="cls-7" d="M297.87,67.41l20.59-12.08c-3.53-6.11-8.39-11.45-13.78-14.55-.71-.41-1.42-.77-2.11-1.08l-26.19,15.32,21.49,12.41Z"/>
        <path class="cls-11" d="M252.85,10.16l9.18,5.3,16.81-9.9c-1.23-.95-2.49-1.82-3.78-2.56-2.04-1.17-4-1.98-5.87-2.47l-16.33,9.63Z"/>
        <path class="cls-11" d="M316.19,51.77l-16.43,9.68,5.72,6.38,14.92-8.81c-1.18-2.53-2.6-4.97-4.2-7.25Z"/>
        <path class="cls-11" d="M315.25,78.12c-1.59-.92-3.1-1.45-4.51-1.67-2.1-11.05-9.79-22.78-18.96-28.08-2.76-1.59-5.38-2.44-7.76-2.63-1.25-13.39-10.56-28.61-21.87-35.14-12.16-7.02-22.02-1.33-22.02,12.71,0,.48.01.96.04,1.44-8.89-4.12-15.84.52-15.84,11.06,0,11.21,7.87,24.85,17.58,30.45l73.34,42.34c7.29,4.21,13.2.8,13.2-7.62s-5.91-18.66-13.2-22.87Z"/>
        <g>
          <path class="cls-9" d="M240.16,24.76c-.02-.48-.04-.96-.04-1.44,0-.02,0-.04,0-.06-4.91-1.91-9.13-1.08-11.78,1.99,2.88-2.37,7.06-2.69,11.82-.49Z"/>
          <path class="cls-9" d="M316.32,77.08c-1.59-.92-3.1-1.45-4.51-1.67-2.1-11.05-9.79-22.78-18.96-28.08-2.76-1.59-5.38-2.44-7.76-2.63-1.25-13.39-10.56-28.61-21.87-35.14-7.58-4.37-14.26-3.81-18.22.63,4.04-3.45,10.22-3.58,17.15.42,11.31,6.53,20.62,21.75,21.87,35.14,2.38.18,5,1.03,7.76,2.63,9.17,5.29,16.86,17.03,18.96,28.08,1.41.22,2.92.76,4.51,1.67,7.29,4.21,13.2,14.45,13.2,22.87,0,3.04-.78,5.41-2.11,7.02,1.98-1.52,3.18-4.29,3.18-8.07,0-8.42-5.91-18.66-13.2-22.87Z"/>
        </g>
        <path class="cls-24" d="M238.61,28.1l5.51,2.56-.28-6.07c-.02-.43-.03-.85-.03-1.27,0-5.42,1.64-9.35,4.61-11.06,2.97-1.71,7.19-1.17,11.88,1.54,10.09,5.83,18.9,20.01,20.04,32.29l.29,3.09,3.1.24c1.9.15,3.99.87,6.2,2.14,8.02,4.63,15.24,15.38,17.18,25.57l.49,2.55,2.56.4c1.02.16,2.11.57,3.24,1.22,6.16,3.56,11.36,12.57,11.36,19.68,0,2.66-.74,4.61-2.02,5.36-1.29.74-3.35.41-5.65-.93l-73.34-42.34c-8.53-4.93-15.74-17.41-15.74-27.26,0-3.87,1.14-6.81,3.13-8.08.82-.52,1.81-.78,2.92-.78,1.36,0,2.9.38,4.55,1.15Z"/>
      </g>
      <g>
        <polygon class="cls-7" points="275.22 74.07 277.15 73.1 275.25 71.65 275.22 74.07"/>
        <polygon class="cls-7" points="269.4 47.93 271.28 46.98 271.32 47.97 269.4 47.93"/>
        <polygon class="cls-7" points="280.73 67.96 282.69 66.97 278.92 63.39 280.73 67.96"/>
        <g>
          <path class="cls-7" d="M276.58,73.04l-9.16-5.39c-.47-.27-.84-.96-.84-1.54l.03-10.6,10.84,6.39-.03,10.6c0,.58-.38.82-.84.55Z"/>
          <path class="cls-7" d="M271.26,47l-9.89,6.37c-.42.27-.08,1.28.56,1.65l10.1,5.95,10.1,5.95c.64.38.98-.23.56-.99l-9.82-17.98c-.42-.78-1.18-1.22-1.61-.95Z"/>
        </g>
        <g>
          <path class="cls-11" d="M274.62,74.02l-9.16-5.39c-.47-.27-.84-.96-.84-1.54l.03-10.6,10.84,6.39-.03,10.6c0,.58-.38.82-.84.55Z"/>
          <path class="cls-11" d="M269.3,47.98l-9.89,6.37c-.42.27-.08,1.28.56,1.65l10.1,5.95,10.1,5.95c.64.38.98-.23.56-.99l-9.82-17.98c-.42-.78-1.18-1.22-1.61-.95Z"/>
        </g>
      </g>
    </g>
    <path class="cls-11" d="M257.03,85.62c0,.6-.42.84-.94.54-.52-.3-.94-1.02-.94-1.62s.42-.84.94-.54c.52.3.94,1.02.94,1.62Z"/>
    <path class="cls-11" d="M290.87,104.89c0,.6-.42.84-.94.54-.52-.3-.94-1.02-.94-1.62s.42-.84.94-.54c.52.3.94,1.02.94,1.62Z"/>
  </g>
  <g>
    <g>
      <g>
        <path class="cls-11" d="M230.41,235.75l-42.86-24.44c-1.57-.9-1.37-2.49.44-3.53l24.66-14.24c1.81-1.04,4.55-1.16,6.12-.25l42.86,24.44c1.57.91,1.37,2.49-.44,3.53l-24.66,14.24c-1.81,1.05-4.55,1.16-6.12.25Z"/>
        <path class="cls-24" d="M265.45,209.5h0v-100.06l-39.78-10.41-7.33-4.23c-1.68-.97-4.62-.85-6.56.27l-6.84,3.95h-21.22s6.28,96.58,6.28,96.58c-.05.66.32,1.29,1.13,1.76l39.7,29.95c1.68.97,4.62.85,6.56-.27l26.46-15.27c1.12-.65,1.66-1.48,1.6-2.26Z"/>
        <path class="cls-11" d="M215.3,94.15c-1.23.03-2.51.34-3.52.92l-6.84,3.95h-21.22s0,100.32,0,100.32c-.05.66.32,1.29,1.13,1.76l45.98,26.22c.81.47,1.91.68,3.04.65l.47-100.96-19.06-32.86Z"/>
        <path class="cls-7" d="M231.26,227.52c1.45.62,3.55.59,5.24-.06v-101.65h-5.24v101.71Z"/>
        <path class="cls-11" d="M230.84,127.02l-45.98-26.22c-1.68-.97-1.47-2.67.47-3.79l26.46-15.27c1.94-1.12,4.88-1.24,6.56-.27l45.98,26.22c1.68.97,1.47,2.67-.47,3.79l-26.46,15.27c-1.94,1.12-4.88,1.24-6.56.27Z"/>
        <path class="cls-13" d="M263.85,109.61l-26.46,15.27c-1.94,1.12-4.88,1.24-6.56.27l-45.98-26.22c-.37-.22-.65-.47-.84-.74-.58.93-.32,1.94.84,2.6l45.98,26.22c1.68.97,4.62.85,6.56-.27l26.46-15.27c1.51-.87,1.97-2.09,1.31-3.04-.26.42-.7.83-1.31,1.18Z"/>
        <g>
          <path class="cls-25" d="M232.14,116.39l-30.61-17.74c-.79-.45-.69-1.25.22-1.77l12.38-7.15c.91-.52,2.28-.58,3.07-.13l30.61,17.74c.79.45.69,1.25-.22,1.77l-12.38,7.15c-.91.52-2.28.58-3.07.13Z"/>
          <g>
            <path class="cls-11" d="M215.61,99.45l-1.77-1.02c-.11-.06-.1-.17.03-.25l1.71-.99c.13-.07.32-.08.42-.02l1.77,1.02c.11.06.1.17-.03.25l-1.71.99c-.13.07-.32.08-.42.02Z"/>
            <path class="cls-11" d="M221.54,102.85l-1.77-1.02c-.11-.06-.1-.17.03-.25l1.71-.99c.13-.07.32-.08.42-.02l1.77,1.02c.11.06.1.17-.03.25l-1.71.99c-.13.07-.32.08-.42.02Z"/>
            <path class="cls-11" d="M227.46,106.26l-1.77-1.02c-.11-.06-.1-.17.03-.25l1.71-.99c.13-.07.32-.08.42-.02l1.77,1.02c.11.06.1.17-.03.25l-1.71.99c-.13.07-.32.08-.42.02Z"/>
            <path class="cls-11" d="M233.39,109.67l-1.77-1.02c-.11-.06-.1-.17.03-.25l1.71-.99c.13-.07.32-.08.42-.02l1.77,1.02c.11.06.1.17-.03.25l-1.71.99c-.13.07-.32.08-.42.02Z"/>
          </g>
          <path class="cls-7" d="M201.52,98.65l.04.02c.06-.04.11-.09.18-.13l12.38-7.15c.91-.52,2.28-.58,3.07-.13l30.58,17.72c.73-.52.76-1.23.04-1.65l-30.61-17.74c-.79-.45-2.16-.4-3.07.13l-12.38,7.15c-.91.52-1.01,1.32-.22,1.77Z"/>
        </g>
      </g>
      <g>
        <path class="cls-25" d="M242.56,146.84l17.4-9.97c.98-.57,1.77-2.08,1.77-3.39v-6.22c0-1.31-.79-1.91-1.77-1.34l-17.4,9.97c-.98.57-1.77,2.08-1.77,3.39v6.22c0,1.31.79,1.91,1.77,1.34Z"/>
        <path class="cls-9" d="M260.83,125.74c.27.26.45.7.45,1.3v6.22c0,1.31-.79,2.82-1.77,3.39l-17.4,9.97c-.31.18-.61.23-.86.19.32.31.8.35,1.33.05l17.4-9.97c.98-.57,1.77-2.08,1.77-3.39v-6.22c0-.89-.37-1.44-.91-1.53Z"/>
        <g>
          <path class="cls-24" d="M247.8,140.08l1.6-.92c.21-.12.39-.45.39-.74v-1.71c0-.28-.17-.42-.39-.29l-1.6.92c-.21.12-.39.45-.39.74v1.71c0,.28.17.42.39.29Z"/>
          <path class="cls-9" d="M253.13,137l1.6-.92c.21-.12.39-.45.39-.74v-1.71c0-.28-.17-.42-.39-.29l-1.6.92c-.21.12-.39.45-.39.74v1.71c0,.28.17.42.39.29Z"/>
        </g>
      </g>
      <g>
        <path class="cls-25" d="M242.56,191.82l17.4-9.97c.98-.57,1.77-2.08,1.77-3.39v-6.22c0-1.31-.79-1.91-1.77-1.34l-17.4,9.97c-.98.57-1.77,2.08-1.77,3.39v6.22c0,1.31.79,1.91,1.77,1.34Z"/>
        <path class="cls-9" d="M260.83,170.72c.27.26.45.7.45,1.29v6.22c0,1.31-.79,2.82-1.77,3.39l-17.4,9.97c-.31.18-.61.23-.86.19.32.31.8.35,1.33.05l17.4-9.97c.98-.57,1.77-2.08,1.77-3.39v-6.22c0-.89-.37-1.44-.91-1.53Z"/>
        <g>
          <path class="cls-24" d="M247.8,185.06l1.6-.92c.21-.12.39-.45.39-.74v-1.71c0-.28-.17-.42-.39-.29l-1.6.92c-.21.12-.39.45-.39.74v1.71c0,.28.17.42.39.29Z"/>
          <path class="cls-9" d="M253.13,181.98l1.6-.92c.21-.12.39-.45.39-.74v-1.71c0-.28-.17-.42-.39-.29l-1.6.92c-.21.12-.39.45-.39.74v1.71c0,.28.17.42.39.29Z"/>
        </g>
      </g>
      <g>
        <path class="cls-25" d="M242.56,214.31l17.4-9.97c.98-.57,1.77-2.08,1.77-3.39v-6.22c0-1.31-.79-1.91-1.77-1.34l-17.4,9.97c-.98.57-1.77,2.08-1.77,3.39v6.22c0,1.31.79,1.91,1.77,1.34Z"/>
        <path class="cls-9" d="M260.83,193.2c.27.26.45.7.45,1.29v6.22c0,1.31-.79,2.82-1.77,3.39l-17.4,9.97c-.31.18-.61.23-.86.19.32.31.8.35,1.33.05l17.4-9.97c.98-.57,1.77-2.08,1.77-3.39v-6.22c0-.89-.37-1.44-.91-1.53Z"/>
        <g>
          <path class="cls-24" d="M247.8,207.55l1.6-.92c.21-.12.39-.45.39-.74v-1.71c0-.28-.17-.42-.39-.29l-1.6.92c-.21.12-.39.45-.39.74v1.71c0,.28.17.42.39.29Z"/>
          <path class="cls-9" d="M253.13,204.47l1.6-.92c.21-.12.39-.45.39-.74v-1.71c0-.28-.17-.42-.39-.29l-1.6.92c-.21.12-.39.45-.39.74v1.71c0,.28.17.42.39.29Z"/>
        </g>
      </g>
      <g>
        <path class="cls-25" d="M242.56,169.33l17.4-9.97c.98-.57,1.77-2.08,1.77-3.39v-6.22c0-1.31-.79-1.91-1.77-1.34l-17.4,9.97c-.98.57-1.77,2.08-1.77,3.39v6.22c0,1.31.79,1.91,1.77,1.34Z"/>
        <path class="cls-9" d="M260.83,148.23c.27.26.45.7.45,1.29v6.22c0,1.31-.79,2.82-1.77,3.39l-17.4,9.97c-.31.18-.61.23-.86.19.32.31.8.35,1.33.05l17.4-9.97c.98-.57,1.77-2.08,1.77-3.39v-6.22c0-.89-.37-1.44-.91-1.53Z"/>
        <g>
          <path class="cls-24" d="M247.8,162.57l1.6-.92c.21-.12.39-.45.39-.74v-1.71c0-.28-.17-.42-.39-.29l-1.6.92c-.21.12-.39.45-.39.74v1.71c0,.28.17.42.39.29Z"/>
          <path class="cls-9" d="M253.13,159.49l1.6-.92c.21-.12.39-.45.39-.74v-1.71c0-.28-.17-.42-.39-.29l-1.6.92c-.21.12-.39.45-.39.74v1.71c0,.28.17.42.39.29Z"/>
        </g>
      </g>
    </g>
    <g>
      <path class="cls-7" d="M227.49,140.47l-40.15-23.18c-.9-.52-1.63-1.91-1.63-3.11v-7.66c0-1.2.73-1.75,1.63-1.23l40.15,23.18c.9.52,1.63,1.91,1.63,3.11v7.66c0,1.2-.73,1.75-1.63,1.23Z"/>
      <path class="cls-10" d="M226.33,137.79l-37.85-21.85c-.46-.26-.83-.97-.83-1.58v-5.76c0-.61.37-.89.83-.62l37.85,21.85c.46.26.83.97.83,1.58v5.76c0,.61-.37.89-.83.62Z"/>
      <path class="cls-11" d="M196.37,117.58l-5.65-3.26c-.44-.26-.8-.94-.8-1.53h0c0-.59.36-.86.8-.61l5.65,3.26c.44.26.8.94.8,1.53h0c0,.59-.36.86-.8.61Z"/>
      <path class="cls-25" d="M201.19,119.29c0,.59-.41.83-.93.53s-.93-1.01-.93-1.6.41-.83.93-.53.93,1.01.93,1.6Z"/>
      <path class="cls-25" d="M204.45,121.18c0,.59-.41.83-.93.53s-.93-1.01-.93-1.6.41-.83.93-.53.93,1.01.93,1.6Z"/>
      <path class="cls-11" d="M207.72,123.06c0,.59-.41.83-.93.53s-.93-1.01-.93-1.6.41-.83.93-.53.93,1.01.93,1.6Z"/>
      <path class="cls-25" d="M210.98,124.95c0,.59-.41.83-.93.53s-.93-1.01-.93-1.6.41-.83.93-.53.93,1.01.93,1.6Z"/>
      <path class="cls-25" d="M224.74,134.58l-1.9-1.1c-.28-.16-.51-.6-.51-.98v-2.01c0-.38.23-.55.51-.39l1.9,1.1c.28.16.51.6.51.98v2.01c0,.38-.23.55-.51.39Z"/>
    </g>
    <g>
      <path class="cls-7" d="M227.49,153.98l-40.15-23.18c-.9-.52-1.63-1.91-1.63-3.11v-7.66c0-1.2.73-1.75,1.63-1.23l40.15,23.18c.9.52,1.63,1.91,1.63,3.11v7.66c0,1.2-.73,1.75-1.63,1.23Z"/>
      <path class="cls-10" d="M226.33,151.29l-37.85-21.85c-.46-.26-.83-.97-.83-1.58v-5.76c0-.61.37-.89.83-.62l37.85,21.85c.46.26.83.97.83,1.58v5.76c0,.61-.37.89-.83.62Z"/>
      <path class="cls-11" d="M196.37,131.08l-5.65-3.26c-.44-.26-.8-.94-.8-1.53h0c0-.59.36-.86.8-.61l5.65,3.26c.44.26.8.94.8,1.53h0c0,.59-.36.86-.8.61Z"/>
      <path class="cls-9" d="M201.19,132.79c0,.59-.41.83-.93.53-.51-.3-.93-1.01-.93-1.6s.41-.83.93-.53.93,1.01.93,1.6Z"/>
      <path class="cls-25" d="M204.45,134.68c0,.59-.41.83-.93.53s-.93-1.01-.93-1.6.41-.83.93-.53.93,1.01.93,1.6Z"/>
      <path class="cls-11" d="M207.72,136.56c0,.59-.41.83-.93.53s-.93-1.01-.93-1.6.41-.83.93-.53.93,1.01.93,1.6Z"/>
      <path class="cls-25" d="M210.98,138.45c0,.59-.41.83-.93.53-.51-.3-.93-1.01-.93-1.6s.41-.83.93-.53.93,1.01.93,1.6Z"/>
      <path class="cls-25" d="M224.74,148.08l-1.9-1.1c-.28-.16-.51-.6-.51-.98v-2.01c0-.38.23-.55.51-.39l1.9,1.1c.28.16.51.6.51.98v2.01c0,.38-.23.55-.51.39Z"/>
    </g>
    <g>
      <path class="cls-7" d="M227.49,167.48l-40.15-23.18c-.9-.52-1.63-1.91-1.63-3.11v-7.66c0-1.2.73-1.75,1.63-1.23l40.15,23.18c.9.52,1.63,1.91,1.63,3.11v7.66c0,1.2-.73,1.75-1.63,1.23Z"/>
      <path class="cls-10" d="M226.33,164.79l-37.85-21.85c-.46-.26-.83-.97-.83-1.58v-5.76c0-.61.37-.89.83-.62l37.85,21.85c.46.26.83.97.83,1.58v5.76c0,.61-.37.89-.83.62Z"/>
      <path class="cls-11" d="M196.37,144.58l-5.65-3.26c-.44-.26-.8-.94-.8-1.53h0c0-.59.36-.86.8-.61l5.65,3.26c.44.26.8.94.8,1.53h0c0,.59-.36.86-.8.61Z"/>
      <path class="cls-9" d="M201.19,146.29c0,.59-.41.83-.93.53s-.93-1.01-.93-1.6.41-.83.93-.53.93,1.01.93,1.6Z"/>
      <path class="cls-25" d="M204.45,148.18c0,.59-.41.83-.93.53s-.93-1.01-.93-1.6.41-.83.93-.53.93,1.01.93,1.6Z"/>
      <path class="cls-11" d="M207.72,150.07c0,.59-.41.83-.93.53s-.93-1.01-.93-1.6.41-.83.93-.53.93,1.01.93,1.6Z"/>
      <path class="cls-25" d="M210.98,151.95c0,.59-.41.83-.93.53s-.93-1.01-.93-1.6.41-.83.93-.53.93,1.01.93,1.6Z"/>
      <path class="cls-25" d="M224.74,161.59l-1.9-1.1c-.28-.16-.51-.6-.51-.98v-2.01c0-.38.23-.55.51-.39l1.9,1.1c.28.16.51.6.51.98v2.01c0,.38-.23.55-.51.39Z"/>
    </g>
    <g>
      <path class="cls-7" d="M227.49,180.98l-40.15-23.18c-.9-.52-1.63-1.91-1.63-3.11v-7.66c0-1.2.73-1.75,1.63-1.23l40.15,23.18c.9.52,1.63,1.91,1.63,3.11v7.66c0,1.2-.73,1.75-1.63,1.23Z"/>
      <path class="cls-10" d="M226.33,178.29l-37.85-21.85c-.46-.26-.83-.97-.83-1.58v-5.76c0-.61.37-.89.83-.62l37.85,21.85c.46.26.83.97.83,1.58v5.76c0,.61-.37.89-.83.62Z"/>
      <path class="cls-11" d="M196.37,158.09l-5.65-3.26c-.44-.26-.8-.94-.8-1.53h0c0-.59.36-.86.8-.61l5.65,3.26c.44.26.8.94.8,1.53h0c0,.59-.36.86-.8.61Z"/>
      <path class="cls-25" d="M201.19,159.8c0,.59-.41.83-.93.53s-.93-1.01-.93-1.6.41-.83.93-.53.93,1.01.93,1.6Z"/>
      <path class="cls-25" d="M204.45,161.68c0,.59-.41.83-.93.53s-.93-1.01-.93-1.6.41-.83.93-.53.93,1.01.93,1.6Z"/>
      <path class="cls-11" d="M207.72,163.57c0,.59-.41.83-.93.53s-.93-1.01-.93-1.6.41-.83.93-.53.93,1.01.93,1.6Z"/>
      <path class="cls-25" d="M210.98,165.45c0,.59-.41.83-.93.53s-.93-1.01-.93-1.6.41-.83.93-.53.93,1.01.93,1.6Z"/>
      <path class="cls-11" d="M224.74,175.09l-1.9-1.1c-.28-.16-.51-.6-.51-.98v-2.01c0-.38.23-.55.51-.39l1.9,1.1c.28.16.51.6.51.98v2.01c0,.38-.23.55-.51.39Z"/>
    </g>
    <g>
      <path class="cls-7" d="M227.49,194.48l-40.15-23.18c-.9-.52-1.63-1.91-1.63-3.11v-7.66c0-1.2.73-1.75,1.63-1.23l40.15,23.18c.9.52,1.63,1.91,1.63,3.11v7.66c0,1.2-.73,1.75-1.63,1.23Z"/>
      <path class="cls-10" d="M226.33,191.8l-37.85-21.85c-.46-.26-.83-.97-.83-1.58v-5.76c0-.61.37-.89.83-.62l37.85,21.85c.46.26.83.97.83,1.58v5.76c0,.61-.37.89-.83.62Z"/>
      <path class="cls-11" d="M196.37,171.59l-5.65-3.26c-.44-.26-.8-.94-.8-1.53h0c0-.59.36-.86.8-.61l5.65,3.26c.44.26.8.94.8,1.53h0c0,.59-.36.86-.8.61Z"/>
      <path class="cls-25" d="M201.19,173.3c0,.59-.41.83-.93.53s-.93-1.01-.93-1.6.41-.83.93-.53.93,1.01.93,1.6Z"/>
      <path class="cls-9" d="M204.45,175.18c0,.59-.41.83-.93.53s-.93-1.01-.93-1.6.41-.83.93-.53.93,1.01.93,1.6Z"/>
      <path class="cls-11" d="M207.72,177.07c0,.59-.41.83-.93.53s-.93-1.01-.93-1.6.41-.83.93-.53.93,1.01.93,1.6Z"/>
      <path class="cls-9" d="M210.98,178.96c0,.59-.41.83-.93.53s-.93-1.01-.93-1.6.41-.83.93-.53.93,1.01.93,1.6Z"/>
      <path class="cls-11" d="M224.74,188.59l-1.9-1.1c-.28-.16-.51-.6-.51-.98v-2.01c0-.38.23-.55.51-.39l1.9,1.1c.28.16.51.6.51.98v2.01c0,.38-.23.55-.51.39Z"/>
    </g>
    <g>
      <path class="cls-7" d="M227.49,207.98l-40.15-23.18c-.9-.52-1.63-1.91-1.63-3.11v-7.66c0-1.2.73-1.75,1.63-1.23l40.15,23.18c.9.52,1.63,1.91,1.63,3.11v7.66c0,1.2-.73,1.75-1.63,1.23Z"/>
      <path class="cls-10" d="M226.33,205.3l-37.85-21.85c-.46-.26-.83-.97-.83-1.58v-5.76c0-.61.37-.89.83-.62l37.85,21.85c.46.26.83.97.83,1.58v5.76c0,.61-.37.89-.83.62Z"/>
      <path class="cls-11" d="M196.37,185.09l-5.65-3.26c-.44-.26-.8-.94-.8-1.53h0c0-.59.36-.86.8-.61l5.65,3.26c.44.26.8.94.8,1.53h0c0,.59-.36.86-.8.61Z"/>
      <path class="cls-25" d="M201.19,186.8c0,.59-.41.83-.93.53s-.93-1.01-.93-1.6.41-.83.93-.53.93,1.01.93,1.6Z"/>
      <path class="cls-25" d="M204.45,188.69c0,.59-.41.83-.93.53s-.93-1.01-.93-1.6.41-.83.93-.53c.51.3.93,1.01.93,1.6Z"/>
      <path class="cls-11" d="M207.72,190.57c0,.59-.41.83-.93.53s-.93-1.01-.93-1.6.41-.83.93-.53.93,1.01.93,1.6Z"/>
      <path class="cls-25" d="M210.98,192.46c0,.59-.41.83-.93.53s-.93-1.01-.93-1.6.41-.83.93-.53.93,1.01.93,1.6Z"/>
      <path class="cls-25" d="M224.74,202.09l-1.9-1.1c-.28-.16-.51-.6-.51-.98v-2.01c0-.38.23-.55.51-.39l1.9,1.1c.28.16.51.6.51.98v2.01c0,.38-.23.55-.51.39Z"/>
    </g>
    <g>
      <path class="cls-7" d="M227.49,221.49l-40.15-23.18c-.9-.52-1.63-1.91-1.63-3.11v-7.66c0-1.2.73-1.75,1.63-1.23l40.15,23.18c.9.52,1.63,1.91,1.63,3.11v7.66c0,1.2-.73,1.75-1.63,1.23Z"/>
      <path class="cls-10" d="M226.33,218.8l-37.85-21.85c-.46-.26-.83-.97-.83-1.58v-5.76c0-.61.37-.89.83-.62l37.85,21.85c.46.26.83.97.83,1.58v5.76c0,.61-.37.89-.83.62Z"/>
      <path class="cls-11" d="M196.37,198.59l-5.65-3.26c-.44-.26-.8-.94-.8-1.53h0c0-.59.36-.86.8-.61l5.65,3.26c.44.26.8.94.8,1.53h0c0,.59-.36.86-.8.61Z"/>
      <path class="cls-9" d="M222.32,212.76c0,1.12-.78,1.57-1.75,1.01-.97-.56-1.75-1.91-1.75-3.03s.78-1.57,1.75-1.01c.97.56,1.75,1.91,1.75,3.03Z"/>
      <path class="cls-25" d="M201.19,200.47c0,.59-.41.83-.93.53s-.93-1.01-.93-1.6.41-.83.93-.53c.51.3.93,1.01.93,1.6Z"/>
      <path class="cls-11" d="M204.45,202.36c0,.59-.41.83-.93.53s-.93-1.01-.93-1.6.41-.83.93-.53.93,1.01.93,1.6Z"/>
      <path class="cls-25" d="M207.72,204.24c0,.59-.41.83-.93.53s-.93-1.01-.93-1.6.41-.83.93-.53.93,1.01.93,1.6Z"/>
    </g>
  </g>
  <g>
    <g>
      <g>
        <path class="cls-11" d="M287.38,268.4l-42.86-24.44c-1.57-.91-1.37-2.49.44-3.53l24.66-14.24c1.81-1.04,4.55-1.16,6.12-.25l42.86,24.44c1.57.91,1.37,2.49-.44,3.53l-24.66,14.24c-1.81,1.05-4.55,1.16-6.12.25Z"/>
        <path class="cls-24" d="M322.41,242.15h0v-100.06l-39.78-10.41-7.33-4.23c-1.68-.97-4.62-.85-6.56.27l-6.84,3.95h-21.22s6.28,96.58,6.28,96.58c-.05.66.32,1.29,1.13,1.76l39.7,29.95c1.68.97,4.62.85,6.56-.27l26.46-15.27c1.12-.65,1.66-1.48,1.6-2.26Z"/>
        <path class="cls-11" d="M272.26,126.8c-1.23.03-2.51.34-3.52.92l-6.84,3.95h-21.22s0,100.32,0,100.32c-.05.66.32,1.29,1.13,1.76l45.98,26.22c.81.47,1.91.68,3.04.65l.47-100.96-19.06-32.86Z"/>
        <path class="cls-7" d="M288.22,260.17c1.45.62,3.55.59,5.24-.06v-101.65h-5.24v101.71Z"/>
        <path class="cls-11" d="M287.8,159.67l-45.98-26.22c-1.68-.97-1.47-2.67.47-3.79l26.46-15.27c1.94-1.12,4.88-1.24,6.56-.27l45.98,26.22c1.68.97,1.47,2.67-.47,3.79l-26.46,15.27c-1.94,1.12-4.88,1.24-6.56.27Z"/>
        <path class="cls-13" d="M320.81,142.26l-26.46,15.27c-1.94,1.12-4.88,1.24-6.56.27l-45.98-26.22c-.37-.22-.65-.47-.84-.74-.58.93-.32,1.94.84,2.6l45.98,26.22c1.68.97,4.62.85,6.56-.27l26.46-15.27c1.51-.87,1.97-2.09,1.31-3.04-.26.42-.7.83-1.31,1.18Z"/>
        <g>
          <path class="cls-25" d="M289.1,149.04l-30.61-17.74c-.79-.45-.69-1.25.22-1.77l12.38-7.15c.91-.52,2.28-.58,3.07-.13l30.61,17.74c.79.45.69,1.25-.22,1.77l-12.38,7.15c-.91.52-2.28.58-3.07.13Z"/>
          <g>
            <path class="cls-11" d="M272.57,132.1l-1.77-1.02c-.11-.06-.1-.17.03-.25l1.71-.99c.13-.07.32-.08.42-.02l1.77,1.02c.11.06.1.17-.03.25l-1.71.99c-.13.07-.32.08-.42.02Z"/>
            <path class="cls-11" d="M278.5,135.5l-1.77-1.02c-.11-.06-.1-.17.03-.25l1.71-.99c.13-.07.32-.08.42-.02l1.77,1.02c.11.06.1.17-.03.25l-1.71.99c-.13.07-.32.08-.42.02Z"/>
            <path class="cls-11" d="M284.43,138.91l-1.77-1.02c-.11-.06-.1-.17.03-.25l1.71-.99c.13-.07.32-.08.42-.02l1.77,1.02c.11.06.1.17-.03.25l-1.71.99c-.13.07-.32.08-.42.02Z"/>
            <path class="cls-11" d="M290.35,142.32l-1.77-1.02c-.11-.06-.1-.17.03-.25l1.71-.99c.13-.07.32-.08.42-.02l1.77,1.02c.11.06.1.17-.03.25l-1.71.99c-.13.07-.32.08-.42.02Z"/>
          </g>
          <path class="cls-7" d="M258.49,131.3l.04.02c.06-.04.12-.09.18-.13l12.38-7.15c.91-.52,2.28-.58,3.07-.13l30.58,17.72c.73-.52.76-1.23.04-1.65l-30.61-17.74c-.79-.45-2.16-.4-3.07.13l-12.38,7.15c-.91.52-1.01,1.32-.22,1.77Z"/>
        </g>
      </g>
      <g>
        <path class="cls-25" d="M299.52,179.49l17.4-9.97c.98-.57,1.77-2.08,1.77-3.39v-6.22c0-1.31-.79-1.91-1.77-1.34l-17.4,9.97c-.98.57-1.77,2.08-1.77,3.39v6.22c0,1.31.79,1.91,1.77,1.34Z"/>
        <path class="cls-9" d="M317.79,158.39c.27.26.45.7.45,1.29v6.22c0,1.31-.79,2.82-1.77,3.39l-17.4,9.97c-.31.18-.61.23-.86.19.33.31.8.35,1.33.05l17.4-9.97c.98-.57,1.77-2.08,1.77-3.39v-6.22c0-.89-.37-1.44-.91-1.53Z"/>
        <g>
          <path class="cls-24" d="M304.76,172.73l1.6-.92c.21-.12.39-.45.39-.74v-1.71c0-.28-.17-.42-.39-.29l-1.6.92c-.21.12-.39.45-.39.74v1.71c0,.28.17.42.39.29Z"/>
          <path class="cls-9" d="M310.1,169.65l1.6-.92c.21-.12.39-.45.39-.74v-1.71c0-.28-.17-.42-.39-.29l-1.6.92c-.21.12-.39.45-.39.74v1.71c0,.28.17.42.39.29Z"/>
        </g>
      </g>
      <g>
        <path class="cls-25" d="M299.52,224.47l17.4-9.97c.98-.57,1.77-2.08,1.77-3.39v-6.22c0-1.31-.79-1.91-1.77-1.34l-17.4,9.97c-.98.57-1.77,2.08-1.77,3.39v6.22c0,1.31.79,1.91,1.77,1.34Z"/>
        <path class="cls-9" d="M317.79,203.36c.27.26.45.7.45,1.29v6.22c0,1.31-.79,2.82-1.77,3.39l-17.4,9.97c-.31.18-.61.23-.86.19.33.31.8.35,1.33.05l17.4-9.97c.98-.57,1.77-2.08,1.77-3.39v-6.22c0-.89-.37-1.44-.91-1.53Z"/>
        <g>
          <path class="cls-24" d="M304.76,217.71l1.6-.92c.21-.12.39-.45.39-.74v-1.71c0-.28-.17-.42-.39-.29l-1.6.92c-.21.12-.39.45-.39.74v1.71c0,.28.17.42.39.29Z"/>
          <path class="cls-9" d="M310.1,214.63l1.6-.92c.21-.12.39-.45.39-.74v-1.71c0-.28-.17-.42-.39-.29l-1.6.92c-.21.12-.39.45-.39.74v1.71c0,.28.17.42.39.29Z"/>
        </g>
      </g>
      <g>
        <path class="cls-25" d="M299.52,246.96l17.4-9.97c.98-.57,1.77-2.08,1.77-3.39v-6.22c0-1.31-.79-1.91-1.77-1.34l-17.4,9.97c-.98.57-1.77,2.08-1.77,3.39v6.22c0,1.31.79,1.91,1.77,1.34Z"/>
        <path class="cls-9" d="M317.79,225.85c.27.26.45.7.45,1.3v6.22c0,1.31-.79,2.82-1.77,3.39l-17.4,9.97c-.31.18-.61.23-.86.19.33.31.8.35,1.33.05l17.4-9.97c.98-.57,1.77-2.08,1.77-3.39v-6.22c0-.89-.37-1.44-.91-1.53Z"/>
        <g>
          <path class="cls-24" d="M304.76,240.2l1.6-.92c.21-.12.39-.45.39-.74v-1.71c0-.28-.17-.42-.39-.29l-1.6.92c-.21.12-.39.45-.39.74v1.71c0,.28.17.42.39.29Z"/>
          <path class="cls-9" d="M310.1,237.12l1.6-.92c.21-.12.39-.45.39-.74v-1.71c0-.28-.17-.42-.39-.29l-1.6.92c-.21.12-.39.45-.39.74v1.71c0,.28.17.42.39.29Z"/>
        </g>
      </g>
      <g>
        <path class="cls-25" d="M299.52,201.98l17.4-9.97c.98-.57,1.77-2.08,1.77-3.39v-6.22c0-1.31-.79-1.91-1.77-1.34l-17.4,9.97c-.98.57-1.77,2.08-1.77,3.39v6.22c0,1.31.79,1.91,1.77,1.34Z"/>
        <path class="cls-9" d="M317.79,180.88c.27.26.45.7.45,1.29v6.22c0,1.31-.79,2.82-1.77,3.39l-17.4,9.97c-.31.18-.61.23-.86.19.33.31.8.35,1.33.05l17.4-9.97c.98-.57,1.77-2.08,1.77-3.39v-6.22c0-.89-.37-1.44-.91-1.53Z"/>
        <g>
          <path class="cls-24" d="M304.76,195.22l1.6-.92c.21-.12.39-.45.39-.74v-1.71c0-.28-.17-.42-.39-.29l-1.6.92c-.21.12-.39.45-.39.74v1.71c0,.28.17.42.39.29Z"/>
          <path class="cls-9" d="M310.1,192.14l1.6-.92c.21-.12.39-.45.39-.74v-1.71c0-.28-.17-.42-.39-.29l-1.6.92c-.21.12-.39.45-.39.74v1.71c0,.28.17.42.39.29Z"/>
        </g>
      </g>
    </g>
    <g>
      <path class="cls-7" d="M284.45,173.12l-40.15-23.18c-.9-.52-1.63-1.91-1.63-3.11v-7.66c0-1.2.73-1.75,1.63-1.23l40.15,23.18c.9.52,1.63,1.91,1.63,3.11v7.66c0,1.2-.73,1.75-1.63,1.23Z"/>
      <path class="cls-10" d="M283.3,170.44l-37.85-21.85c-.46-.26-.83-.97-.83-1.58v-5.76c0-.61.37-.89.83-.62l37.85,21.85c.46.26.83.97.83,1.58v5.76c0,.61-.37.89-.83.62Z"/>
      <path class="cls-11" d="M253.34,150.23l-5.65-3.26c-.44-.26-.8-.94-.8-1.53h0c0-.59.36-.86.8-.61l5.65,3.26c.44.26.8.94.8,1.53h0c0,.59-.36.86-.8.61Z"/>
      <path class="cls-25" d="M258.15,151.94c0,.59-.41.83-.93.53-.51-.3-.93-1.01-.93-1.6s.41-.83.93-.53c.51.3.93,1.01.93,1.6Z"/>
      <path class="cls-25" d="M261.41,153.82c0,.59-.41.83-.93.53s-.93-1.01-.93-1.6.41-.83.93-.53.93,1.01.93,1.6Z"/>
      <path class="cls-11" d="M264.68,155.71c0,.59-.41.83-.93.53s-.93-1.01-.93-1.6.41-.83.93-.53.93,1.01.93,1.6Z"/>
      <path class="cls-25" d="M267.95,157.6c0,.59-.41.83-.93.53s-.93-1.01-.93-1.6.41-.83.93-.53.93,1.01.93,1.6Z"/>
      <path class="cls-25" d="M281.71,167.23l-1.9-1.1c-.28-.16-.51-.6-.51-.98v-2.01c0-.38.23-.55.51-.39l1.9,1.1c.28.16.51.6.51.98v2.01c0,.38-.23.55-.51.39Z"/>
    </g>
    <g>
      <path class="cls-7" d="M284.45,186.62l-40.15-23.18c-.9-.52-1.63-1.91-1.63-3.11v-7.66c0-1.2.73-1.75,1.63-1.23l40.15,23.18c.9.52,1.63,1.91,1.63,3.11v7.66c0,1.2-.73,1.75-1.63,1.23Z"/>
      <path class="cls-10" d="M283.3,183.94l-37.85-21.85c-.46-.26-.83-.97-.83-1.58v-5.76c0-.61.37-.89.83-.62l37.85,21.85c.46.26.83.97.83,1.58v5.76c0,.61-.37.89-.83.62Z"/>
      <path class="cls-11" d="M253.34,163.73l-5.65-3.26c-.44-.26-.8-.94-.8-1.53h0c0-.59.36-.86.8-.61l5.65,3.26c.44.26.8.94.8,1.53h0c0,.59-.36.86-.8.61Z"/>
      <path class="cls-9" d="M258.15,165.44c0,.59-.41.83-.93.53-.51-.3-.93-1.01-.93-1.6s.41-.83.93-.53c.51.3.93,1.01.93,1.6Z"/>
      <path class="cls-25" d="M261.41,167.33c0,.59-.41.83-.93.53s-.93-1.01-.93-1.6.41-.83.93-.53.93,1.01.93,1.6Z"/>
      <path class="cls-11" d="M264.68,169.21c0,.59-.41.83-.93.53s-.93-1.01-.93-1.6.41-.83.93-.53.93,1.01.93,1.6Z"/>
      <path class="cls-25" d="M267.95,171.1c0,.59-.41.83-.93.53s-.93-1.01-.93-1.6.41-.83.93-.53c.51.3.93,1.01.93,1.6Z"/>
      <path class="cls-25" d="M281.71,180.73l-1.9-1.1c-.28-.16-.51-.6-.51-.98v-2.01c0-.38.23-.55.51-.39l1.9,1.1c.28.16.51.6.51.98v2.01c0,.38-.23.55-.51.39Z"/>
    </g>
    <g>
      <path class="cls-7" d="M284.45,200.13l-40.15-23.18c-.9-.52-1.63-1.91-1.63-3.11v-7.66c0-1.2.73-1.75,1.63-1.23l40.15,23.18c.9.52,1.63,1.91,1.63,3.11v7.66c0,1.2-.73,1.75-1.63,1.23Z"/>
      <path class="cls-10" d="M283.3,197.44l-37.85-21.85c-.46-.26-.83-.97-.83-1.58v-5.76c0-.61.37-.89.83-.62l37.85,21.85c.46.26.83.97.83,1.58v5.76c0,.61-.37.89-.83.62Z"/>
      <path class="cls-11" d="M253.34,177.23l-5.65-3.26c-.44-.26-.8-.94-.8-1.53h0c0-.59.36-.86.8-.61l5.65,3.26c.44.26.8.94.8,1.53h0c0,.59-.36.86-.8.61Z"/>
      <path class="cls-9" d="M258.15,178.94c0,.59-.41.83-.93.53-.51-.3-.93-1.01-.93-1.6s.41-.83.93-.53c.51.3.93,1.01.93,1.6Z"/>
      <path class="cls-25" d="M261.41,180.83c0,.59-.41.83-.93.53s-.93-1.01-.93-1.6.41-.83.93-.53.93,1.01.93,1.6Z"/>
      <path class="cls-11" d="M264.68,182.71c0,.59-.41.83-.93.53s-.93-1.01-.93-1.6.41-.83.93-.53.93,1.01.93,1.6Z"/>
      <path class="cls-25" d="M267.95,184.6c0,.59-.41.83-.93.53s-.93-1.01-.93-1.6.41-.83.93-.53.93,1.01.93,1.6Z"/>
      <path class="cls-25" d="M281.71,194.24l-1.9-1.1c-.28-.16-.51-.6-.51-.98v-2.01c0-.38.23-.55.51-.39l1.9,1.1c.28.16.51.6.51.98v2.01c0,.38-.23.55-.51.39Z"/>
    </g>
    <g>
      <path class="cls-7" d="M284.45,213.63l-40.15-23.18c-.9-.52-1.63-1.91-1.63-3.11v-7.66c0-1.2.73-1.75,1.63-1.23l40.15,23.18c.9.52,1.63,1.91,1.63,3.11v7.66c0,1.2-.73,1.75-1.63,1.23Z"/>
      <path class="cls-10" d="M283.3,210.94l-37.85-21.85c-.46-.26-.83-.97-.83-1.58v-5.76c0-.61.37-.89.83-.62l37.85,21.85c.46.26.83.97.83,1.58v5.76c0,.61-.37.89-.83.62Z"/>
      <path class="cls-11" d="M253.34,190.74l-5.65-3.26c-.44-.26-.8-.94-.8-1.53h0c0-.59.36-.86.8-.61l5.65,3.26c.44.26.8.94.8,1.53h0c0,.59-.36.86-.8.61Z"/>
      <path class="cls-25" d="M258.15,192.45c0,.59-.41.83-.93.53-.51-.3-.93-1.01-.93-1.6s.41-.83.93-.53c.51.3.93,1.01.93,1.6Z"/>
      <path class="cls-25" d="M261.41,194.33c0,.59-.41.83-.93.53s-.93-1.01-.93-1.6.41-.83.93-.53.93,1.01.93,1.6Z"/>
      <path class="cls-11" d="M264.68,196.22c0,.59-.41.83-.93.53s-.93-1.01-.93-1.6.41-.83.93-.53.93,1.01.93,1.6Z"/>
      <path class="cls-25" d="M267.95,198.1c0,.59-.41.83-.93.53s-.93-1.01-.93-1.6.41-.83.93-.53.93,1.01.93,1.6Z"/>
      <path class="cls-11" d="M281.71,207.74l-1.9-1.1c-.28-.16-.51-.6-.51-.98v-2.01c0-.38.23-.55.51-.39l1.9,1.1c.28.16.51.6.51.98v2.01c0,.38-.23.55-.51.39Z"/>
    </g>
    <g>
      <path class="cls-7" d="M284.45,227.13l-40.15-23.18c-.9-.52-1.63-1.91-1.63-3.11v-7.66c0-1.2.73-1.75,1.63-1.23l40.15,23.18c.9.52,1.63,1.91,1.63,3.11v7.66c0,1.2-.73,1.75-1.63,1.23Z"/>
      <path class="cls-10" d="M283.3,224.45l-37.85-21.85c-.46-.26-.83-.97-.83-1.58v-5.76c0-.61.37-.89.83-.62l37.85,21.85c.46.26.83.97.83,1.58v5.76c0,.61-.37.89-.83.62Z"/>
      <path class="cls-11" d="M253.34,204.24l-5.65-3.26c-.44-.26-.8-.94-.8-1.53h0c0-.59.36-.86.8-.61l5.65,3.26c.44.26.8.94.8,1.53h0c0,.59-.36.86-.8.61Z"/>
      <path class="cls-25" d="M258.15,205.95c0,.59-.41.83-.93.53-.51-.3-.93-1.01-.93-1.6s.41-.83.93-.53c.51.3.93,1.01.93,1.6Z"/>
      <path class="cls-9" d="M261.41,207.83c0,.59-.41.83-.93.53s-.93-1.01-.93-1.6.41-.83.93-.53.93,1.01.93,1.6Z"/>
      <path class="cls-11" d="M264.68,209.72c0,.59-.41.83-.93.53s-.93-1.01-.93-1.6.41-.83.93-.53.93,1.01.93,1.6Z"/>
      <path class="cls-9" d="M267.95,211.6c0,.59-.41.83-.93.53s-.93-1.01-.93-1.6.41-.83.93-.53.93,1.01.93,1.6Z"/>
      <path class="cls-11" d="M281.71,221.24l-1.9-1.1c-.28-.16-.51-.6-.51-.98v-2.01c0-.38.23-.55.51-.39l1.9,1.1c.28.16.51.6.51.98v2.01c0,.38-.23.55-.51.39Z"/>
    </g>
    <g>
      <path class="cls-7" d="M284.45,240.63l-40.15-23.18c-.9-.52-1.63-1.91-1.63-3.11v-7.66c0-1.2.73-1.75,1.63-1.23l40.15,23.18c.9.52,1.63,1.91,1.63,3.11v7.66c0,1.2-.73,1.75-1.63,1.23Z"/>
      <path class="cls-10" d="M283.3,237.95l-37.85-21.85c-.46-.26-.83-.97-.83-1.58v-5.76c0-.61.37-.89.83-.62l37.85,21.85c.46.26.83.97.83,1.58v5.76c0,.61-.37.89-.83.62Z"/>
      <path class="cls-11" d="M253.34,217.74l-5.65-3.26c-.44-.26-.8-.94-.8-1.53h0c0-.59.36-.86.8-.61l5.65,3.26c.44.26.8.94.8,1.53h0c0,.59-.36.86-.8.61Z"/>
      <path class="cls-25" d="M258.15,219.45c0,.59-.41.83-.93.53-.51-.3-.93-1.01-.93-1.6s.41-.83.93-.53c.51.3.93,1.01.93,1.6Z"/>
      <path class="cls-25" d="M261.41,221.34c0,.59-.41.83-.93.53s-.93-1.01-.93-1.6.41-.83.93-.53.93,1.01.93,1.6Z"/>
      <path class="cls-11" d="M264.68,223.22c0,.59-.41.83-.93.53s-.93-1.01-.93-1.6.41-.83.93-.53.93,1.01.93,1.6Z"/>
      <path class="cls-25" d="M267.95,225.11c0,.59-.41.83-.93.53s-.93-1.01-.93-1.6.41-.83.93-.53.93,1.01.93,1.6Z"/>
      <path class="cls-25" d="M281.71,234.74l-1.9-1.1c-.28-.16-.51-.6-.51-.98v-2.01c0-.38.23-.55.51-.39l1.9,1.1c.28.16.51.6.51.98v2.01c0,.38-.23.55-.51.39Z"/>
    </g>
    <g>
      <path class="cls-7" d="M284.45,254.13l-40.15-23.18c-.9-.52-1.63-1.91-1.63-3.11v-7.66c0-1.2.73-1.75,1.63-1.23l40.15,23.18c.9.52,1.63,1.91,1.63,3.11v7.66c0,1.2-.73,1.75-1.63,1.23Z"/>
      <path class="cls-10" d="M283.3,251.45l-37.85-21.85c-.46-.26-.83-.97-.83-1.58v-5.76c0-.61.37-.89.83-.62l37.85,21.85c.46.26.83.97.83,1.58v5.76c0,.61-.37.89-.83.62Z"/>
      <path class="cls-11" d="M253.34,231.24l-5.65-3.26c-.44-.26-.8-.94-.8-1.53h0c0-.59.36-.86.8-.61l5.65,3.26c.44.26.8.94.8,1.53h0c0,.59-.36.86-.8.61Z"/>
      <path class="cls-9" d="M259.18,233.68c0,1.12-.78,1.57-1.75,1.01s-1.75-1.91-1.75-3.03.78-1.57,1.75-1.01,1.75,1.91,1.75,3.03Z"/>
      <path class="cls-25" d="M265.95,237.64c0,.59-.41.83-.93.53s-.93-1.01-.93-1.6.41-.83.93-.53.93,1.01.93,1.6Z"/>
      <path class="cls-11" d="M269.21,239.53c0,.59-.41.83-.93.53-.51-.3-.93-1.01-.93-1.6s.41-.83.93-.53c.51.3.93,1.01.93,1.6Z"/>
      <path class="cls-25" d="M272.48,241.41c0,.59-.41.83-.93.53s-.93-1.01-.93-1.6.41-.83.93-.53.93,1.01.93,1.6Z"/>
      <path class="cls-11" d="M281.71,248.24l-1.9-1.1c-.28-.16-.51-.6-.51-.98v-2.01c0-.38.23-.55.51-.39l1.9,1.1c.28.16.51.6.51.98v2.01c0,.38-.23.55-.51.39Z"/>
    </g>
  </g>
  <path class="cls-7" d="M217.66,243.15c-.2,0-.4-.1-.51-.29-.16-.28-.07-.64.21-.8l7.92-4.58c.9-.52,1.46-1.49,1.46-2.52v-4.19c0-.32.26-.58.58-.58s.58.26.58.58v4.19c0,1.45-.78,2.81-2.04,3.54l-7.92,4.58c-.09.05-.19.08-.29.08Z"/>
  <g>
    <g>
      <g>
        <rect class="cls-7" x="211.55" y="239.47" width="4.82" height="10.4" transform="translate(319.78 -62.65) rotate(60.17)"/>
        <path class="cls-7" d="M220.17,243.07c0-1.09-.76-2.41-1.7-2.96-.94-.55-1.7-.11-1.71.98s.76,2.41,1.7,2.96c.94.55,1.7.11,1.71-.98Z"/>
      </g>
      <g>
        <rect class="cls-7" x="200.04" y="242.25" width="7.81" height="16.32" transform="translate(319.73 -51.07) rotate(60.17)"/>
        <path class="cls-24" d="M209.73,244.32l3.05-1.75c1.26.91,2.26,2.63,2.4,4.18l-3.05,1.75c-1.26-.91-2.26-2.63-2.4-4.18Z"/>
        <path class="cls-7" d="M213.78,247.96c0-1.76-1.23-3.91-2.75-4.79-1.52-.89-2.76-.17-2.77,1.59s1.23,3.91,2.75,4.79,2.76.18,2.77-1.59Z"/>
      </g>
    </g>
    <path class="cls-11" d="M217.33,241.96c.44-.25.44-.67,0-.92-.44-.26-1.16-.26-1.6,0-.44.25-.44.67,0,.92.44.26,1.16.26,1.6,0Z"/>
  </g>
  <g>
    <g>
      <path class="cls-11" d="M179.96,339.21l-99.66-57.54c-2.82-1.63-2.47-4.47.79-6.35l67.86-39.17c3.26-1.88,8.18-2.08,11-.46l99.66,57.54c2.82,1.63,2.47,4.47-.79,6.35l-67.86,39.17c-3.26,1.88-8.18,2.08-11,.46Z"/>
      <path class="cls-7" d="M204.02,336.48c-.1,0-.2-.03-.3-.08l-19.07-11.29c-.28-.16-.37-.52-.2-.8.16-.28.52-.37.8-.2l19.07,11.29c.28.17.37.52.21.8-.11.18-.3.29-.5.29Z"/>
      <path class="cls-25" d="M261.51,282.49l-13.62-1.8-87.94-50.77c-2.82-1.63-7.74-1.42-11,.46l-62.31,35.96-8.24-1.09v4.67h0c-.05,1.08.56,2.12,1.89,2.89l99.66,57.54c2.82,1.63,7.74,1.42,11-.46l67.86-39.17c1.83-1.06,2.74-2.42,2.69-3.7h0v-4.54Z"/>
      <path class="cls-24" d="M195.43,250.41l-6.25-3.61h-68.69l-33.86,19.54-8.24-1.09v4.67h0c-.05,1.08.56,2.12,1.89,2.89l99.66,57.54c1.49.86,3.57,1.2,5.68,1.06l9.8-81.01Z"/>
      <path class="cls-7" d="M82.06,265.74l-3.66-.48v4.67h0c-.05,1.08.56,2.12,1.89,2.89l1.76,1.01v-8.09Z"/>
      <path class="cls-15" d="M180.96,330.82c2.67,1.01,6.49.79,9.35-.58v-10.42h-9.35v11.01Z"/>
      <path class="cls-11" d="M179.96,325.69l-99.66-57.54c-2.82-1.63-2.47-4.47.79-6.35l67.86-39.17c3.26-1.88,8.18-2.08,11-.46l99.66,57.54c2.82,1.63,2.47,4.47-.79,6.35l-67.86,39.17c-3.26,1.88-8.18,2.08-11,.46Z"/>
      <path class="cls-9" d="M258.82,284.36l-67.86,39.17c-3.26,1.88-8.18,2.08-11,.46l-99.66-57.54c-.92-.53-1.5-1.2-1.75-1.92-.44,1.33.12,2.68,1.75,3.62l99.66,57.54c2.82,1.63,7.74,1.42,11-.46l67.86-39.17c2.19-1.26,3.06-2.96,2.54-4.43-.32.97-1.17,1.93-2.54,2.73Z"/>
      <g>
        <path class="cls-25" d="M122.69,249.1l-4.51-2.6c-.36-.21-.32-.57.1-.82l5.32-3.07c.42-.24,1.05-.27,1.41-.06l4.51,2.6c.36.21.32.57-.1.82l-5.32,3.07c-.42.24-1.05.27-1.41.06Z"/>
        <path class="cls-25" d="M129.65,253.12l-4.51-2.6c-.36-.21-.32-.57.1-.82l5.32-3.07c.42-.24,1.05-.27,1.41-.06l4.51,2.6c.36.21.32.57-.1.82l-5.32,3.07c-.42.24-1.05.27-1.41.06Z"/>
        <path class="cls-25" d="M136.61,257.14l-4.51-2.6c-.36-.21-.32-.57.1-.82l5.32-3.07c.42-.24,1.05-.27,1.41-.06l4.51,2.6c.36.21.32.57-.1.82l-5.32,3.07c-.42.24-1.05.27-1.41.06Z"/>
        <path class="cls-25" d="M146.24,253.82l-4.51-2.6c-.36-.21-.32-.57.1-.82l4.47-2.58c.42-.24,1.05-.27,1.41-.06l4.51,2.6c.36.21.32.57-.1.82l-4.47,2.58c-.42.24-1.05.27-1.41.06Z"/>
        <path class="cls-25" d="M153.21,257.84l-4.51-2.6c-.36-.21-.32-.57.1-.82l4.47-2.58c.42-.24,1.05-.27,1.41-.06l4.51,2.6c.36.21.32.57-.1.82l-4.47,2.58c-.42.24-1.05.27-1.41.06Z"/>
        <path class="cls-25" d="M160.17,261.86l-4.51-2.6c-.36-.21-.32-.57.1-.82l4.47-2.58c.42-.24,1.05-.27,1.41-.06l4.51,2.6c.36.21.32.57-.1.82l-4.47,2.58c-.42.24-1.05.27-1.41.06Z"/>
        <path class="cls-25" d="M167.13,265.88l-4.51-2.6c-.36-.21-.32-.57.1-.82l4.47-2.58c.42-.24,1.05-.27,1.41-.06l4.51,2.6c.36.21.32.57-.1.82l-4.47,2.58c-.42.24-1.05.27-1.41.06Z"/>
        <path class="cls-25" d="M174.1,269.9l-4.51-2.6c-.36-.21-.32-.57.1-.82l4.47-2.58c.42-.24,1.05-.27,1.41-.06l4.51,2.6c.36.21.32.57-.1.82l-4.47,2.58c-.42.24-1.05.27-1.41.06Z"/>
        <path class="cls-25" d="M181.06,273.92l-4.51-2.6c-.36-.21-.32-.57.1-.82l4.47-2.58c.42-.24,1.05-.27,1.41-.06l4.51,2.6c.36.21.32.57-.1.82l-4.47,2.58c-.42.24-1.05.27-1.41.06Z"/>
        <path class="cls-25" d="M188.02,277.94l-4.51-2.6c-.36-.21-.32-.57.1-.82l4.47-2.58c.42-.24,1.05-.27,1.41-.06l4.51,2.6c.36.21.32.57-.1.82l-4.47,2.58c-.42.24-1.05.27-1.41.06Z"/>
        <path class="cls-25" d="M194.99,281.96l-4.51-2.6c-.36-.21-.32-.57.1-.82l4.47-2.58c.42-.24,1.05-.27,1.41-.06l4.51,2.6c.36.21.32.57-.1.82l-4.47,2.58c-.42.24-1.05.27-1.41.06Z"/>
        <path class="cls-25" d="M201.95,285.98l-4.51-2.6c-.36-.21-.32-.57.1-.82l4.47-2.58c.42-.24,1.05-.27,1.41-.06l4.51,2.6c.36.21.32.57-.1.82l-4.47,2.58c-.42.24-1.05.27-1.41.06Z"/>
        <path class="cls-25" d="M208.91,290l-4.51-2.6c-.36-.21-.32-.57.1-.82l4.47-2.58c.42-.24,1.05-.27,1.41-.06l4.51,2.6c.36.21.32.57-.1.82l-4.47,2.58c-.42.24-1.05.27-1.41.06Z"/>
        <path class="cls-24" d="M156.5,251.92l-4.51-2.6c-.36-.21-.32-.57.1-.82l4.47-2.58c.42-.24,1.05-.27,1.41-.06l4.51,2.6c.36.21.32.57-.1.82l-4.47,2.58c-.42.24-1.05.27-1.41.06Z"/>
        <path class="cls-24" d="M149.44,247.84l-4.51-2.6c-.36-.21-.32-.57.1-.82l4.47-2.58c.42-.24,1.05-.27,1.41-.06l4.51,2.6c.36.21.32.57-.1.82l-4.47,2.58c-.42.24-1.05.27-1.41.06Z"/>
        <path class="cls-25" d="M142.36,243.75l-9.71-5.61c-.36-.21-.32-.57.1-.82l4.47-2.58c.42-.24,1.05-.27,1.41-.06l9.71,5.61c.36.21.32.57-.1.82l-4.47,2.58c-.42.24-1.05.27-1.41.06Z"/>
        <path class="cls-25" d="M147.31,238.78l-7.88-4.55c-.36-.21-.32-.57.1-.82l4.47-2.58c.42-.24,1.05-.27,1.41-.06l7.88,4.55c.36.21.32.57-.1.82l-4.47,2.58c-.42.24-1.05.27-1.41.06Z"/>
        <path class="cls-24" d="M163.47,255.94l-4.51-2.6c-.36-.21-.32-.57.1-.82l4.47-2.58c.42-.24,1.05-.27,1.41-.06l4.51,2.6c.36.21.32.57-.1.82l-4.47,2.58c-.42.24-1.05.27-1.41.06Z"/>
        <path class="cls-25" d="M170.43,259.96l-4.51-2.6c-.36-.21-.32-.57.1-.82l4.47-2.58c.42-.24,1.05-.27,1.41-.06l4.51,2.6c.36.21.32.57-.1.82l-4.47,2.58c-.42.24-1.05.27-1.41.06Z"/>
        <path class="cls-25" d="M177.39,263.98l-4.51-2.6c-.36-.21-.32-.57.1-.82l4.47-2.58c.42-.24,1.05-.27,1.41-.06l4.51,2.6c.36.21.32.57-.1.82l-4.47,2.58c-.42.24-1.05.27-1.41.06Z"/>
        <path class="cls-25" d="M184.36,268l-4.51-2.6c-.36-.21-.32-.57.1-.82l4.47-2.58c.42-.24,1.05-.27,1.41-.06l4.51,2.6c.36.21.32.57-.1.82l-4.47,2.58c-.42.24-1.05.27-1.41.06Z"/>
        <path class="cls-25" d="M191.32,272.02l-4.51-2.6c-.36-.21-.32-.57.1-.82l4.47-2.58c.42-.24,1.05-.27,1.41-.06l4.51,2.6c.36.21.32.57-.1.82l-4.47,2.58c-.42.24-1.05.27-1.41.06Z"/>
        <path class="cls-25" d="M198.28,276.04l-4.51-2.6c-.36-.21-.32-.57.1-.82l4.47-2.58c.42-.24,1.05-.27,1.41-.06l4.51,2.6c.36.21.32.57-.1.82l-4.47,2.58c-.42.24-1.05.27-1.41.06Z"/>
        <path class="cls-25" d="M205.25,280.06l-4.51-2.6c-.36-.21-.32-.57.1-.82l4.47-2.58c.42-.24,1.05-.27,1.41-.06l4.51,2.6c.36.21.32.57-.1.82l-4.47,2.58c-.42.24-1.05.27-1.41.06Z"/>
        <path class="cls-25" d="M212.21,284.08l-4.51-2.6c-.36-.21-.32-.57.1-.82l4.47-2.58c.42-.24,1.05-.27,1.41-.06l4.51,2.6c.36.21.32.57-.1.82l-4.47,2.58c-.42.24-1.05.27-1.41.06Z"/>
        <path class="cls-25" d="M219.17,288.1l-4.51-2.6c-.36-.21-.32-.57.1-.82l4.47-2.58c.42-.24,1.05-.27,1.41-.06l4.51,2.6c.36.21.32.57-.1.82l-4.47,2.58c-.42.24-1.05.27-1.41.06Z"/>
        <path class="cls-25" d="M231.55,295.25l-9.84-5.68c-.36-.21-.32-.57.1-.82l4.47-2.58c.42-.24,1.05-.27,1.41-.06l9.84,5.68c.36.21.32.57-.1.82l-4.47,2.58c-.42.24-1.05.27-1.41.06Z"/>
        <path class="cls-25" d="M245.11,287.42l-8.3-4.79c-.36-.21-.32-.57.1-.82l4.47-2.58c.42-.24,1.05-.27,1.41-.06l8.3,4.79c.36.21.32.57-.1.82l-4.47,2.58c-.42.24-1.05.27-1.41.06Z"/>
        <path class="cls-25" d="M175.66,255.15l-4.51-2.6c-.36-.21-.32-.57.1-.82l4.47-2.58c.42-.24,1.05-.27,1.41-.06l4.51,2.6c.36.21.32.57-.1.82l-4.47,2.58c-.42.24-1.05.27-1.41.06Z"/>
        <path class="cls-25" d="M168.52,251.03l-4.51-2.6c-.36-.21-.32-.57.1-.82l4.47-2.58c.42-.24,1.05-.27,1.41-.06l4.51,2.6c.36.21.32.57-.1.82l-4.47,2.58c-.42.24-1.05.27-1.41.06Z"/>
        <path class="cls-24" d="M161.39,246.91l-4.51-2.6c-.36-.21-.32-.57.1-.82l4.47-2.58c.42-.24,1.05-.27,1.41-.06l4.51,2.6c.36.21.32.57-.1.82l-4.47,2.58c-.42.24-1.05.27-1.41.06Z"/>
        <path class="cls-25" d="M154.25,242.79l-4.51-2.6c-.36-.21-.32-.57.1-.82l4.47-2.58c.42-.24,1.05-.27,1.41-.06l4.51,2.6c.36.21.32.57-.1.82l-4.47,2.58c-.42.24-1.05.27-1.41.06Z"/>
        <path class="cls-25" d="M182.62,259.17l-4.51-2.6c-.36-.21-.32-.57.1-.82l4.47-2.58c.42-.24,1.05-.27,1.41-.06l4.51,2.6c.36.21.32.57-.1.82l-4.47,2.58c-.42.24-1.05.27-1.41.06Z"/>
        <path class="cls-25" d="M189.59,263.19l-4.51-2.6c-.36-.21-.32-.57.1-.82l4.47-2.58c.42-.24,1.05-.27,1.41-.06l4.51,2.6c.36.21.32.57-.1.82l-4.47,2.58c-.42.24-1.05.27-1.41.06Z"/>
        <path class="cls-25" d="M196.55,267.21l-4.51-2.6c-.36-.21-.32-.57.1-.82l4.47-2.58c.42-.24,1.05-.27,1.41-.06l4.51,2.6c.36.21.32.57-.1.82l-4.47,2.58c-.42.24-1.05.27-1.41.06Z"/>
        <path class="cls-25" d="M203.52,271.23l-4.51-2.6c-.36-.21-.32-.57.1-.82l4.47-2.58c.42-.24,1.05-.27,1.41-.06l4.51,2.6c.36.21.32.57-.1.82l-4.47,2.58c-.42.24-1.05.27-1.41.06Z"/>
        <path class="cls-25" d="M210.48,275.25l-4.51-2.6c-.36-.21-.32-.57.1-.82l4.47-2.58c.42-.24,1.05-.27,1.41-.06l4.51,2.6c.36.21.32.57-.1.82l-4.47,2.58c-.42.24-1.05.27-1.41.06Z"/>
        <path class="cls-25" d="M217.44,279.27l-4.51-2.6c-.36-.21-.32-.57.1-.82l4.47-2.58c.42-.24,1.05-.27,1.41-.06l4.51,2.6c.36.21.32.57-.1.82l-4.47,2.58c-.42.24-1.05.27-1.41.06Z"/>
        <path class="cls-25" d="M224.41,283.29l-4.51-2.6c-.36-.21-.32-.57.1-.82l4.47-2.58c.42-.24,1.05-.27,1.41-.06l4.51,2.6c.36.21.32.57-.1.82l-4.47,2.58c-.42.24-1.05.27-1.41.06Z"/>
        <path class="cls-25" d="M231.37,287.31l-4.51-2.6c-.36-.21-.32-.57.1-.82l4.47-2.58c.42-.24,1.05-.27,1.41-.06l4.51,2.6c.36.21.32.57-.1.82l-4.47,2.58c-.42.24-1.05.27-1.41.06Z"/>
        <path class="cls-25" d="M238.33,291.33l-4.51-2.6c-.36-.21-.32-.57.1-.82l4.47-2.58c.42-.24,1.05-.27,1.41-.06l4.51,2.6c.36.21.32.57-.1.82l-4.47,2.58c-.42.24-1.05.27-1.41.06Z"/>
        <path class="cls-25" d="M171.99,245.21l-4.51-2.6c-.36-.21-.32-.57.1-.82l4.47-2.58c.42-.24,1.05-.27,1.41-.06l4.51,2.6c.36.21.32.57-.1.82l-4.47,2.58c-.42.24-1.05.27-1.41.06Z"/>
        <path class="cls-25" d="M165.07,241.21l-4.51-2.6c-.36-.21-.32-.57.1-.82l4.47-2.58c.42-.24,1.05-.27,1.41-.06l4.51,2.6c.36.21.32.57-.1.82l-4.47,2.58c-.42.24-1.05.27-1.41.06Z"/>
        <path class="cls-25" d="M158.14,237.21l-4.51-2.6c-.36-.21-.32-.57.1-.82l4.47-2.58c.42-.24,1.05-.27,1.41-.06l4.51,2.6c.36.21.32.57-.1.82l-4.47,2.58c-.42.24-1.05.27-1.41.06Z"/>
        <path class="cls-25" d="M151.21,233.21l-4.51-2.6c-.36-.21-.32-.57.1-.82l4.47-2.58c.42-.24,1.05-.27,1.41-.06l4.51,2.6c.36.21.32.57-.1.82l-4.47,2.58c-.42.24-1.05.27-1.41.06Z"/>
        <path class="cls-25" d="M158.33,229.09l-4.51-2.6c-.36-.21-.32-.57.1-.82l1.48-.85c.42-.24,1.05-.27,1.41-.06l4.51,2.6c.36.21.32.57-.1.82l-1.48.85c-.42.24-1.05.27-1.41.06Z"/>
        <path class="cls-25" d="M167.38,234.31l-4.51-2.6c-.36-.21-.32-.57.1-.82l1.48-.85c.42-.24,1.05-.27,1.41-.06l4.51,2.6c.36.21.32.57-.1.82l-1.48.85c-.42.24-1.05.27-1.41.06Z"/>
        <path class="cls-25" d="M174.28,238.3l-4.51-2.6c-.36-.21-.32-.57.1-.82l1.48-.85c.42-.24,1.05-.27,1.41-.06l4.51,2.6c.36.21.32.57-.1.82l-1.48.85c-.42.24-1.05.27-1.41.06Z"/>
        <path class="cls-25" d="M181.18,242.28l-4.51-2.6c-.36-.21-.32-.57.1-.82l1.48-.85c.42-.24,1.05-.27,1.41-.06l4.51,2.6c.36.21.32.57-.1.82l-1.48.85c-.42.24-1.05.27-1.41.06Z"/>
        <path class="cls-25" d="M188.08,246.26l-4.51-2.6c-.36-.21-.32-.57.1-.82l1.48-.85c.42-.24,1.05-.27,1.41-.06l4.51,2.6c.36.21.32.57-.1.82l-1.48.85c-.42.24-1.05.27-1.41.06Z"/>
        <path class="cls-25" d="M226.6,268.5l-4.51-2.6c-.36-.21-.32-.57.1-.82l1.48-.85c.42-.24,1.05-.27,1.41-.06l4.51,2.6c.36.21.32.57-.1.82l-1.48.85c-.42.24-1.05.27-1.41.06Z"/>
        <path class="cls-25" d="M233.5,272.49l-4.51-2.6c-.36-.21-.32-.57.1-.82l1.48-.85c.42-.24,1.05-.27,1.41-.06l4.51,2.6c.36.21.32.57-.1.82l-1.48.85c-.42.24-1.05.27-1.41.06Z"/>
        <path class="cls-25" d="M240.4,276.47l-4.51-2.6c-.36-.21-.32-.57.1-.82l1.48-.85c.42-.24,1.05-.27,1.41-.06l4.51,2.6c.36.21.32.57-.1.82l-1.48.85c-.42.24-1.05.27-1.41.06Z"/>
        <path class="cls-25" d="M247.3,280.46l-4.51-2.6c-.36-.21-.32-.57.1-.82l1.48-.85c.42-.24,1.05-.27,1.41-.06l4.51,2.6c.36.21.32.57-.1.82l-1.48.85c-.42.24-1.05.27-1.41.06Z"/>
        <path class="cls-25" d="M178.96,249.23l-4.51-2.6c-.36-.21-.32-.57.1-.82l4.47-2.58c.42-.24,1.05-.27,1.41-.06l4.51,2.6c.36.21.32.57-.1.82l-4.47,2.58c-.42.24-1.05.27-1.41.06Z"/>
        <path class="cls-25" d="M185.92,253.25l-4.51-2.6c-.36-.21-.32-.57.1-.82l4.47-2.58c.42-.24,1.05-.27,1.41-.06l4.51,2.6c.36.21.32.57-.1.82l-4.47,2.58c-.42.24-1.05.27-1.41.06Z"/>
        <path class="cls-25" d="M192.89,257.27l-4.51-2.6c-.36-.21-.32-.57.1-.82l4.47-2.58c.42-.24,1.05-.27,1.41-.06l4.51,2.6c.36.21.32.57-.1.82l-4.47,2.58c-.42.24-1.05.27-1.41.06Z"/>
        <path class="cls-25" d="M199.85,261.29l-4.51-2.6c-.36-.21-.32-.57.1-.82l4.47-2.58c.42-.24,1.05-.27,1.41-.06l4.51,2.6c.36.21.32.57-.1.82l-4.47,2.58c-.42.24-1.05.27-1.41.06Z"/>
        <path class="cls-25" d="M206.81,265.31l-4.51-2.6c-.36-.21-.32-.57.1-.82l4.47-2.58c.42-.24,1.05-.27,1.41-.06l4.51,2.6c.36.21.32.57-.1.82l-4.47,2.58c-.42.24-1.05.27-1.41.06Z"/>
        <path class="cls-25" d="M213.78,269.33l-4.51-2.6c-.36-.21-.32-.57.1-.82l4.47-2.58c.42-.24,1.05-.27,1.41-.06l4.51,2.6c.36.21.32.57-.1.82l-4.47,2.58c-.42.24-1.05.27-1.41.06Z"/>
        <path class="cls-25" d="M220.74,273.35l-4.51-2.6c-.36-.21-.32-.57.1-.82l4.47-2.58c.42-.24,1.05-.27,1.41-.06l4.51,2.6c.36.21.32.57-.1.82l-4.47,2.58c-.42.24-1.05.27-1.41.06Z"/>
        <path class="cls-25" d="M227.7,277.37l-4.51-2.6c-.36-.21-.32-.57.1-.82l4.47-2.58c.42-.24,1.05-.27,1.41-.06l4.51,2.6c.36.21.32.57-.1.82l-4.47,2.58c-.42.24-1.05.27-1.41.06Z"/>
        <path class="cls-25" d="M234.67,281.39l-4.51-2.6c-.36-.21-.32-.57.1-.82l4.47-2.58c.42-.24,1.05-.27,1.41-.06l4.51,2.6c.36.21.32.57-.1.82l-4.47,2.58c-.42.24-1.05.27-1.41.06Z"/>
        <path class="cls-25" d="M139.15,249.72l-13.28-7.67c-.36-.21-.32-.57.1-.82l4.47-2.58c.42-.24,1.05-.27,1.41-.06l13.28,7.67c.36.21.32.57-.1.82l-4.47,2.58c-.42.24-1.05.27-1.41.06Z"/>
        <path class="cls-25" d="M224.69,299.11l-13.28-7.67c-.36-.21-.32-.57.1-.82l4.47-2.58c.42-.24,1.05-.27,1.41-.06l13.28,7.67c.36.21.32.57-.1.82l-4.47,2.58c-.42.24-1.05.27-1.41.06Z"/>
        <path class="cls-25" d="M196.85,291.92l-4.51-2.6c-.36-.21-.32-.57.1-.82l5.32-3.07c.42-.24,1.05-.27,1.41-.06l4.51,2.6c.36.21.32.57-.1.82l-5.32,3.07c-.42.24-1.05.27-1.41.06Z"/>
        <path class="cls-25" d="M146.28,262.72l-7.21-4.16c-.36-.21-.32-.57.1-.82l5.32-3.07c.42-.24,1.05-.27,1.41-.06l7.21,4.16c.36.21.32.57-.1.82l-5.32,3.07c-.42.24-1.05.27-1.41.06Z"/>
        <path class="cls-25" d="M190.14,288.04l-7.21-4.16c-.36-.21-.32-.57.1-.82l5.32-3.07c.42-.24,1.05-.27,1.41-.06l7.21,4.16c.36.21.32.57-.1.82l-5.32,3.07c-.42.24-1.05.27-1.41.06Z"/>
        <path class="cls-25" d="M156.32,268.52l-7.21-4.16c-.36-.21-.32-.57.1-.82l5.32-3.07c.42-.24,1.05-.27,1.41-.06l7.21,4.16c.36.21.32.57-.1.82l-5.32,3.07c-.42.24-1.05.27-1.41.06Z"/>
        <path class="cls-25" d="M156,260.44l31.35,18.1c.39.22.39.59,0,.81l-5.43,3.13c-.39.22-1.02.22-1.41,0l-31.35-18.1,6.84-3.95Z"/>
        <path class="cls-25" d="M216.31,299.21l5.02,2.9c.3.17.26.47-.08.67l-2.18,1.26c-.34.2-.86.22-1.16.05l-5.02-2.9c-.3-.17-.26-.47.08-.67l2.18-1.26c.34-.2.86-.22,1.16-.05Z"/>
        <path class="cls-25" d="M209.29,295.15l5.02,2.9c.3.17.26.47-.08.67l-2.18,1.26c-.34.2-.86.22-1.16.05l-5.02-2.9c-.3-.17-.26-.47.08-.67l2.18-1.26c.34-.2.86-.22,1.16-.05Z"/>
        <path class="cls-25" d="M202.32,291.13l5.02,2.9c.3.17.26.47-.08.67l-2.18,1.26c-.34.2-.86.22-1.16.05l-5.02-2.9c-.3-.17-.26-.47.08-.67l2.18-1.26c.34-.2.86-.22,1.16-.05Z"/>
        <path class="cls-25" d="M213.13,292.93l5.02,2.9c.3.17.26.47-.08.67l-2.18,1.26c-.34.2-.86.22-1.16.05l-5.02-2.9c-.3-.17-.26-.47.08-.67l2.18-1.26c.34-.2.86-.22,1.16-.05Z"/>
      </g>
    </g>
    <path class="cls-7" d="M154.04,304.03c-.78,0-1.53-.16-2.1-.49h0l-34.81-20.09c-.64-.37-1-.91-1-1.52,0-.69.47-1.37,1.3-1.84l23.04-13.3c1.41-.82,3.5-.89,4.74-.17l34.81,20.09c.64.37,1,.91,1,1.52,0,.69-.47,1.37-1.3,1.84l-23.04,13.3c-.77.44-1.73.67-2.64.67ZM152.49,302.6c.91.52,2.58.44,3.66-.17l23.04-13.3c.47-.27.76-.61.76-.9s-.29-.48-.45-.58l-34.81-20.09c-.91-.52-2.58-.45-3.66.17l-23.04,13.3c-.47.27-.76.61-.76.9s.29.49.46.58l34.81,20.09h0Z"/>
    <g>
      <path class="cls-9" d="M146,282.14l3.41-1.91c.32-.18.87-.15,1.24.06h0c.37.21.41.52.09.7l-3.41,1.91c-.32.18-.87.15-1.24-.06h0c-.37-.21-.41-.52-.09-.7Z"/>
      <path class="cls-9" d="M138.76,286.2l5.03-2.82c.32-.18.87-.15,1.24.06h0c.37.21.41.52.09.7l-5.03,2.82c-.32.18-.87.15-1.24-.06h0c-.37-.21-.41-.52-.09-.7Z"/>
      <path class="cls-9" d="M157.29,288.41l6.51-3.65c.32-.18.87-.15,1.24.06h0c.37.21.41.52.09.7l-6.51,3.65c-.32.18-.87.15-1.24-.06h0c-.37-.21-.41-.52-.09-.7Z"/>
      <path class="cls-9" d="M156.12,282.77l2.13-1.19c.32-.18.87-.15,1.24.06h0c.37.21.41.52.09.7l-2.13,1.19c-.32.18-.87.15-1.24-.06h0c-.37-.21-.41-.52-.09-.7Z"/>
      <path class="cls-9" d="M151.32,279.16l1.37-.77c.32-.18.87-.15,1.24.06h0c.37.21.41.52.09.7l-1.37.77c-.32.18-.87.15-1.24-.06h0c-.37-.21-.41-.52-.09-.7Z"/>
      <path class="cls-9" d="M145.44,276.16l1.7-.95c.32-.18.87-.15,1.24.06h0c.37.21.41.52.09.7l-1.7.95c-.32.18-.87.15-1.24-.06h0c-.37-.21-.41-.52-.09-.7Z"/>
      <path class="cls-9" d="M138.83,279.86l4.48-2.51c.32-.18.87-.15,1.24.06h0c.37.21.41.52.09.7l-4.48,2.51c-.32.18-.87.15-1.24-.06h0c-.37-.21-.41-.52-.09-.7Z"/>
      <path class="cls-9" d="M141.14,275.42l3.22-1.8c.32-.18.87-.15,1.24.06h0c.37.21.41.52.09.7l-3.22,1.8c-.32.18-.87.15-1.24-.06h0c-.37-.21-.41-.52-.09-.7Z"/>
      <path class="cls-9" d="M148.19,287.21l5.69-3.19c.32-.18.87-.15,1.24.06h0c.37.21.41.52.09.7l-5.69,3.19c-.32.18-.87.15-1.24-.06h0c-.37-.21-.41-.52-.09-.7Z"/>
      <path class="cls-9" d="M151.11,288.73l9.92-5.56c.32-.18.87-.15,1.24.06h0c.37.21.41.52.09.7l-9.92,5.56c-.32.18-.87.15-1.24-.06h0c-.37-.21-.41-.52-.09-.7Z"/>
      <path class="cls-9" d="M149.78,283.17l5.69-3.19c.32-.18.87-.15,1.24.06h0c.37.21.41.52.09.7l-5.69,3.19c-.32.18-.87.15-1.24-.06h0c-.37-.21-.41-.52-.09-.7Z"/>
      <path class="cls-9" d="M143.87,289.63l2.07-1.16c.32-.18.87-.15,1.24.06h0c.37.21.41.52.09.7l-2.07,1.16c-.32.18-.87.15-1.24-.06h0c-.37-.21-.41-.52-.09-.7Z"/>
      <path class="cls-9" d="M143.07,280.63l6.84-3.83c.32-.18.87-.15,1.24.06h0c.37.21.41.52.09.7l-6.84,3.83c-.32.18-.87.15-1.24-.06h0c-.37-.21-.41-.52-.09-.7Z"/>
    </g>
  </g>
  <path class="cls-7" d="M244.65,240.6c-.76,0-1.53-.2-2.21-.59l-30.7-17.77c-.96-.55-1.53-1.54-1.54-2.65-.01-1.11.55-2.11,1.49-2.68l8.49-5.14c.28-.17.63-.08.8.2.17.28.08.64-.2.8l-8.49,5.14c-.59.36-.94.98-.93,1.67,0,.69.37,1.3.96,1.65l30.7,17.77c1.03.6,2.31.58,3.32-.04l10.57-6.46c.28-.17.64-.08.8.19.17.28.08.63-.19.8l-10.57,6.46c-.71.43-1.51.65-2.31.65Z"/>
  <g>
    <g>
      <polygon class="cls-11" points="165.82 205.7 153.58 198.63 141.35 205.7 153.58 212.77 165.82 205.7"/>
      <polygon class="cls-17" points="157.14 196.32 157.14 152.31 167.54 146.31 167.54 190.32 157.14 196.32"/>
      <polygon class="cls-12" points="157.14 152.31 146.75 146.31 146.75 190.32 157.14 196.32 157.14 152.31"/>
      <polygon class="cls-4" points="167.54 146.31 157.14 140.31 146.75 146.31 157.14 152.31 167.54 146.31"/>
    </g>
    <polygon class="cls-2" points="167.54 198.32 157.14 192.32 157.14 196.32 167.54 202.32 167.54 198.32"/>
    <g>
      <polygon class="cls-22" points="146.75 202.32 146.75 170.31 157.14 164.31 157.14 196.32 146.75 202.32"/>
      <polygon class="cls-20" points="146.75 170.31 136.35 164.31 136.35 196.32 146.75 202.32 146.75 170.31"/>
      <polygon class="cls-19" points="157.14 164.31 146.75 158.31 136.35 164.31 146.75 170.31 157.14 164.31"/>
      <polygon class="cls-18" points="146.75 202.32 146.75 170.31 157.14 164.31 157.14 196.32 146.75 202.32"/>
      <polygon class="cls-18" points="146.75 170.31 136.35 164.31 136.35 196.32 146.75 202.32 146.75 170.31"/>
      <polygon class="cls-14" points="157.14 164.31 146.75 158.31 136.35 164.31 146.75 170.31 157.14 164.31"/>
    </g>
    <g>
      <polygon class="cls-1" points="157.14 208.33 157.14 190.32 167.54 184.32 167.54 202.32 157.14 208.33"/>
      <polygon class="cls-8" points="157.14 190.32 146.75 184.32 146.75 202.32 157.14 208.33 157.14 190.32"/>
      <polygon class="cls-16" points="167.54 184.32 157.14 178.32 146.75 184.32 157.14 190.32 167.54 184.32"/>
    </g>
  </g>
  <g>
    <g>
      <path class="cls-25" d="M263.72,167.6s-2.12-1.07-3.42.52c-1.3,1.59-3.17,5.35-3.22,7.9s2.01,2.37,3.24,1.77,4.82-5.81,5.04-6.83c.22-1.02-.26-2.4-.6-2.67-.35-.27-1.03-.68-1.03-.68Z"/>
      <path class="cls-11" d="M264.18,167.09l.1,2.2c.02.47-.21.91-.62,1.14-.37.21-.91.37-1.64.25-1.6-.26-1.74-.71-1.86-2.91-.11-2.2,4.01-.69,4.01-.69Z"/>
      <g>
        <path class="cls-25" d="M255.95,163.37s-2.12-1.07-3.42.52-3.17,5.35-3.22,7.9,2.01,2.37,3.24,1.77,4.82-5.81,5.04-6.83c.22-1.02-.26-2.4-.6-2.67-.35-.27-1.03-.68-1.03-.68Z"/>
        <path class="cls-11" d="M256.41,162.86l.1,2.2c.02.47-.21.91-.62,1.14-.37.21-.91.37-1.64.25-1.6-.26-1.74-.71-1.86-2.91-.11-2.2,4.01-.69,4.01-.69Z"/>
        <path class="cls-16" d="M275.34,122.5c-.63-10.22-11.07,1.5-11.07,1.5l-7.14,7-6.43,7.07c-1.26,1.38-1.84,3.24-1.6,5.09l2.6,19.81c.13.98.97,1.7,1.95,1.69.28,0,.6-.03.96-.08,2.32-.36,2.15-2.57,2.15-2.57l-.48-18.53,13.51-8.14s6.16-2.63,5.54-12.84Z"/>
      </g>
      <path class="cls-16" d="M283.11,126.4c-.63-10.22-11.07,1.5-11.07,1.5l-7.14,7-6.43,7.07c-1.26,1.38-1.84,3.24-1.6,5.09l2.6,19.81c.13.98.97,1.7,1.95,1.69.28,0,.6-.03.96-.08,2.32-.36,2.15-2.57,2.15-2.57l-.48-18.53,13.51-8.14s6.16-2.63,5.54-12.84Z"/>
      <path class="cls-21" d="M276.94,93.6c7.91,3.28,7.75,7.96,7.75,7.96,0,0-1.55,17.15-1.02,28.6.22,4.79-25.44,5.15-21.61-7.62,4.51-15.06,2.82-27.25,4.93-29.09s7.9-.7,9.94.15Z"/>
      <path class="cls-6" d="M279.48,97.75c-.41,1.61-2.52,2.45-4.7,1.89-2.18-.56-3.62-2.32-3.2-3.93.41-1.61,2.52-2.45,4.7-1.89,2.18.56,3.62,2.32,3.2,3.93Z"/>
      <path class="cls-9" d="M276.13,100.19c-.47,0-.96-.06-1.45-.19-1.13-.29-2.12-.9-2.77-1.7-.68-.84-.93-1.79-.7-2.69.47-1.81,2.78-2.78,5.16-2.16,1.13.29,2.12.9,2.77,1.7.68.84.93,1.79.7,2.69-.23.9-.91,1.61-1.91,2.02-.55.22-1.17.33-1.8.33ZM274.92,94.02c-1.47,0-2.7.68-2.98,1.78-.17.66.03,1.38.55,2.02.55.68,1.4,1.19,2.38,1.44.98.25,1.96.21,2.78-.12.77-.31,1.29-.84,1.46-1.5h0c.17-.66-.03-1.38-.55-2.02-.55-.68-1.4-1.19-2.38-1.44-.43-.11-.85-.16-1.26-.16Z"/>
      <path class="cls-6" d="M273.76,93.24s.07.32-.07,2.82c-.04.79,2.72,1.52,3.43.81.71-.71.43-1.46.6-4.14.17-2.68-3.96.5-3.96.5Z"/>
      <path class="cls-3" d="M277.72,92.74s-.68,2.49-4.03,3.44l.05-2.26,3.98-1.18Z"/>
      <path class="cls-6" d="M279.85,86.42c.84,3.26-1.12,6.58-4.37,7.42-3.26.84-6.58-1.12-7.42-4.37-.84-3.26,1.12-6.58,4.37-7.42,3.26-.84,6.58,1.12,7.42,4.37Z"/>
      <path class="cls-3" d="M275.35,88.17s-3.35,1.44-5.68,1.45c-2.32.02-1.81-1.93-1.81-1.93l6.89-1,.59,1.47Z"/>
      <path class="cls-14" d="M268.98,88.55s2.92-1.24,5.48-.72c.6.12,1.16.44,1.55.92.13.16.29.3.47.34.45.1,1.2-1.78,2.08-1.83.88-.04,1.47.58.75,1.74s-.48,2.46-.15,2.64c.33.19,3.87-2.52.75-8.7-3.12-6.18-11.04-2.85-12.27-1.6,0,0-1.3,1.13-2.35.12,0,0-1.18,8.86,3.69,7.07Z"/>
      <path class="cls-6" d="M280.25,114.09v4.63c0,.53-.22,1.04-.62,1.4l-9.52,8.68,1.08,1.65,12.57-8.23c.59-.43.97-1.08,1.04-1.8l.85-8.97-5.41,2.64Z"/>
      <path class="cls-21" d="M284.02,99.24s2.89,4.34,3.96,15.77c0,0-4.93,1.6-7.73.69-2.8-.91,3.77-16.46,3.77-16.46Z"/>
      <path class="cls-5" d="M279.72,104.73s-1.13,6.05-1.19,8.89c-.02.78.46,1.49,1.19,1.75h0v-10.65Z"/>
    </g>
    <g>
      <path class="cls-25" d="M277.25,134.82l-2.1-.28-13.58-7.84c-.44-.25-1.2-.22-1.7.07l-9.62,5.55-1.27-.17v1.27h0c0,.17.09.33.29.45l15.39,8.89c.44.25,1.2.22,1.7-.07l10.48-6.05c.28-.16.42-.37.42-.57h0v-1.25Z"/>
      <path class="cls-24" d="M267.05,129.86l-.96-.56h-10.61l-5.23,3.02-1.27-.17v1.27h0c0,.17.09.33.29.45l15.39,8.89c.23.13.55.19.88.16l1.51-13.06Z"/>
      <path class="cls-7" d="M249.54,132.23l-.56-.07v1.27h0c0,.17.09.33.29.45l.27.16v-1.79Z"/>
      <path class="cls-15" d="M264.81,142.83c.41.16,1,.12,1.44-.09v-2.15h-1.44v2.24Z"/>
      <path class="cls-9" d="M264.66,141.49l-15.39-8.89c-.44-.25-.38-.69.12-.98l10.48-6.05c.5-.29,1.26-.32,1.7-.07l15.39,8.89c.44.25.38.69-.12.98l-10.48,6.05c-.5.29-1.26.32-1.7.07Z"/>
      <path class="cls-11" d="M264.4,140.14l-12.8-7.39c-.36-.21-.32-.57.1-.82l5.62-3.16c.42-.24,1.05-.27,1.41-.06l12.8,7.39c.36.21.32.57-.1.82l-5.62,3.16c-.42.24-1.05.27-1.41.06Z"/>
    </g>
    <path class="cls-6" d="M260.47,125.28l-.16,1.06c-.14.9-.11,1.83.07,2.72l.19.94c.11.53.52.94,1.05,1.03h0c.41.08.8-.22.85-.63l.25-2.27s.58.76.86.76-.31-2.27-.95-3.56c-.63-1.29-2.17-.05-2.17-.05Z"/>
    <path class="cls-6" d="M265.68,108.4l-1.65,3.27c-.39.77-.62,1.62-.68,2.48l-.72,11.18-2.17-.05-.99-12.56c-.03-.39-.01-.78.06-1.16l1.13-6.37,5.02,3.2Z"/>
    <g>
      <path class="cls-25" d="M264.14,142.34l-1.29-1.68-13.57-7.86c-.43-.25-.79-.93-.79-1.51v-11.11s-.77-1.02-.77-1.02l.73-.42h0c.14-.09.33-.09.53.03l15.38,8.9c.44.25.79.93.79,1.51v12.1c-.01.33-.13.55-.3.65h0l-.72.41Z"/>
      <path class="cls-24" d="M254.75,135.97l-.96-.56-5.29-9.19v-6.04s-.77-1.02-.77-1.02l.73-.42h0c.14-.09.33-.09.53.03l15.38,8.9c.23.13.44.38.58.68l-10.19,7.62Z"/>
      <path class="cls-7" d="M248.07,119.62l-.35-.45.73-.42h0c.14-.09.33-.09.53.03l.27.16-1.19.69Z"/>
      <path class="cls-15" d="M264.51,127.77c.34.28.61.81.64,1.3l-1.5.87-.72-1.25,1.58-.91Z"/>
      <path class="cls-9" d="M263.64,128.1l-15.38-8.9c-.44-.25-.79.01-.79.59v12.1c-.01.58.34,1.26.77,1.51l15.38,8.9c.44.25.79-.01.79-.59v-12.1c.01-.58-.34-1.26-.77-1.51Z"/>
    </g>
    <path class="cls-6" d="M271.2,130.45l-.25.51c-.28.59-.73,1.08-1.29,1.43l-1.53.94c-.48.29-1.08.32-1.56.04-.02-.01-.03-.02-.05-.03-.49-.3-.53-1-.13-1.41l1.6-1.64s-.9.69-1.15.41c-.18-.2.87-1.19,1.68-1.22.81-.03,1.59-.67,1.59-.67l1.08,1.65Z"/>
    <path class="cls-21" d="M267.15,93.42s-5.85,6.37-8.21,12.21c0,0,2,3.61,6.9,5.02,4.9,1.41,1.31-17.23,1.31-17.23Z"/>
    <path class="cls-5" d="M264.73,110.28l.95-9.16-2.24,8.59c.4.21.83.4,1.29.58Z"/>
    <path class="cls-9" d="M271.53,92.14l-1.57-.43s.75,1.18,1.85,1.48c1.1.3,1.27-.63,1.27-.63l-1.54-.42Z"/>
  </g>
  <g>
    <path class="cls-11" d="M97,243.35l-17.56-10.14c-1.08-.62-.94-1.71.3-2.43l16.96-9.79c1.24-.72,3.13-.8,4.21-.17l17.56,10.14c1.08.62.94,1.71-.3,2.43l-16.96,9.79c-1.24.72-3.13.8-4.21.17Z"/>
    <g>
      <path class="cls-24" d="M124.29,223.23h0v-7.59h-17.01s-5.88-3.41-5.88-3.41c-1.35-.78-3.71-.68-5.27.22l-5.49,3.17h-17.03s0,7.79,0,7.79c-.04.53.26,1.04.9,1.41l21.99,12.7c1.35.78,3.71.68,5.27-.22l21.23-12.26c.9-.52,1.33-1.19,1.28-1.82Z"/>
      <path class="cls-24" d="M98.95,211.71c-.99.02-2.01.27-2.82.74l-5.49,3.17h-17.03s0,7.79,0,7.79c-.04.53.26,1.04.9,1.41l21.99,12.7c.65.37,1.53.54,2.44.52v-26.33Z"/>
      <path class="cls-7" d="M75.54,215.61h-1.93s0,7.8,0,7.8c-.04.53.26,1.04.9,1.41l1.02.59v-9.8Z"/>
      <path class="cls-7" d="M96.85,237.69c1.16.5,2.85.47,4.21-.05v-8.86h-4.21v8.91Z"/>
      <path class="cls-11" d="M96.51,229.75l-21.99-12.7c-1.35-.78-1.18-2.14.38-3.04l21.23-12.26c1.56-.9,3.92-1,5.27-.22l21.99,12.7c1.35.78,1.18,2.14-.38,3.04l-21.23,12.26c-1.56.9-3.92,1-5.27.22Z"/>
      <path class="cls-7" d="M96.9,227.46l-18.43-10.64c-1.13-.65-.99-1.79.32-2.55l17.79-10.27c1.31-.75,3.28-.84,4.41-.18l18.43,10.64c1.13.65.99,1.79-.32,2.55l-17.79,10.27c-1.31.75-3.28.84-4.41.18Z"/>
      <g>
        <path class="cls-11" d="M116.2,225.23c0,.57-.4,1.26-.89,1.54-.49.28-.89.05-.89-.51s.4-1.26.89-1.54c.49-.28.89-.05.89.51Z"/>
        <path class="cls-11" d="M119.06,223.58c0,.57-.4,1.26-.89,1.54-.49.28-.89.05-.89-.51s.4-1.26.89-1.54c.49-.28.89-.05.89.51Z"/>
        <path class="cls-11" d="M121.92,221.93c0,.57-.4,1.26-.89,1.54s-.89.05-.89-.51.4-1.26.89-1.54c.49-.28.89-.05.89.51Z"/>
      </g>
    </g>
    <g>
      <path class="cls-24" d="M124.29,211.1h0v-7.59h-17.01s-5.88-3.41-5.88-3.41c-1.35-.78-3.71-.68-5.27.22l-5.49,3.17h-17.03s0,7.79,0,7.79c-.04.53.26,1.04.9,1.41l21.99,12.7c1.35.78,3.71.68,5.27-.22l21.23-12.26c.9-.52,1.33-1.19,1.28-1.82Z"/>
      <path class="cls-24" d="M98.95,199.59c-.99.02-2.01.27-2.82.74l-5.49,3.17h-17.03s0,7.79,0,7.79c-.04.53.26,1.04.9,1.41l21.99,12.7c.65.37,1.53.54,2.44.52v-26.33Z"/>
      <path class="cls-7" d="M75.54,203.49h-1.93s0,7.8,0,7.8c-.04.53.26,1.04.9,1.41l1.02.59v-9.8Z"/>
      <path class="cls-7" d="M96.85,225.57c1.16.5,2.85.47,4.21-.05v-8.86h-4.21v8.91Z"/>
      <path class="cls-11" d="M96.51,217.62l-21.99-12.7c-1.35-.78-1.18-2.14.38-3.04l21.23-12.26c1.56-.9,3.92-1,5.27-.22l21.99,12.7c1.35.78,1.18,2.14-.38,3.04l-21.23,12.26c-1.56.9-3.92,1-5.27.22Z"/>
      <path class="cls-7" d="M96.9,215.34l-18.43-10.64c-1.13-.65-.99-1.79.32-2.55l17.79-10.27c1.31-.75,3.28-.84,4.41-.18l18.43,10.64c1.13.65.99,1.79-.32,2.55l-17.79,10.27c-1.31.75-3.28.84-4.41.18Z"/>
      <g>
        <path class="cls-11" d="M116.2,213.11c0,.57-.4,1.26-.89,1.54-.49.28-.89.05-.89-.51s.4-1.26.89-1.54c.49-.28.89-.05.89.51Z"/>
        <path class="cls-11" d="M119.06,211.46c0,.57-.4,1.26-.89,1.54-.49.28-.89.05-.89-.51s.4-1.26.89-1.54c.49-.28.89-.05.89.51Z"/>
        <path class="cls-11" d="M121.92,209.81c0,.57-.4,1.26-.89,1.54-.49.28-.89.05-.89-.51s.4-1.26.89-1.54.89-.05.89.51Z"/>
      </g>
    </g>
    <g>
      <path class="cls-24" d="M124.29,198.98h0v-7.59h-17.01s-5.88-3.4-5.88-3.4c-1.35-.78-3.71-.68-5.27.22l-5.49,3.17h-17.03s0,7.79,0,7.79c-.04.53.26,1.04.9,1.41l21.99,12.7c1.35.78,3.71.68,5.27-.22l21.23-12.26c.9-.52,1.33-1.19,1.28-1.82Z"/>
      <path class="cls-24" d="M98.95,187.46c-.99.02-2.01.27-2.82.74l-5.49,3.17h-17.03s0,7.79,0,7.79c-.04.53.26,1.04.9,1.41l21.99,12.7c.65.37,1.53.54,2.44.52v-26.33Z"/>
      <path class="cls-7" d="M75.54,191.36h-1.93s0,7.8,0,7.8c-.04.53.26,1.04.9,1.41l1.02.59v-9.8Z"/>
      <path class="cls-7" d="M96.85,213.44c1.16.5,2.85.47,4.21-.05v-8.86h-4.21v8.91Z"/>
      <path class="cls-11" d="M96.51,205.5l-21.99-12.7c-1.35-.78-1.18-2.14.38-3.04l21.23-12.26c1.56-.9,3.92-1,5.27-.22l21.99,12.7c1.35.78,1.18,2.14-.38,3.04l-21.23,12.26c-1.56.9-3.92,1-5.27.22Z"/>
      <path class="cls-7" d="M96.9,203.21l-18.43-10.64c-1.13-.65-.99-1.79.32-2.55l17.79-10.27c1.31-.75,3.28-.84,4.41-.18l18.43,10.64c1.13.65.99,1.79-.32,2.55l-17.79,10.27c-1.31.75-3.28.84-4.41.18Z"/>
      <g>
        <path class="cls-11" d="M116.2,200.98c0,.57-.4,1.26-.89,1.54-.49.28-.89.05-.89-.51s.4-1.26.89-1.54c.49-.28.89-.05.89.51Z"/>
        <path class="cls-11" d="M119.06,199.33c0,.57-.4,1.26-.89,1.54-.49.28-.89.05-.89-.51s.4-1.26.89-1.54c.49-.28.89-.05.89.51Z"/>
        <path class="cls-11" d="M121.92,197.68c0,.57-.4,1.26-.89,1.54-.49.28-.89.05-.89-.51s.4-1.26.89-1.54c.49-.28.89-.05.89.51Z"/>
      </g>
    </g>
    <g>
      <path class="cls-24" d="M124.29,186.85h0v-7.59h-17.01s-5.88-3.41-5.88-3.41c-1.35-.78-3.71-.68-5.27.22l-5.49,3.17h-17.03s0,7.79,0,7.79c-.04.53.26,1.04.9,1.41l21.99,12.7c1.35.78,3.71.68,5.27-.22l21.23-12.26c.9-.52,1.33-1.19,1.28-1.82Z"/>
      <path class="cls-24" d="M98.95,175.34c-.99.02-2.01.27-2.82.74l-5.49,3.17h-17.03s0,7.79,0,7.79c-.04.53.26,1.04.9,1.41l21.99,12.7c.65.37,1.53.54,2.44.52v-26.33Z"/>
      <path class="cls-7" d="M75.54,179.24h-1.93s0,7.8,0,7.8c-.04.53.26,1.04.9,1.41l1.02.59v-9.8Z"/>
      <path class="cls-7" d="M96.85,201.31c1.16.5,2.85.47,4.21-.05v-8.86h-4.21v8.91Z"/>
      <path class="cls-11" d="M96.51,193.37l-21.99-12.7c-1.35-.78-1.18-2.14.38-3.04l21.23-12.26c1.56-.9,3.92-1,5.27-.22l21.99,12.7c1.35.78,1.18,2.14-.38,3.04l-21.23,12.26c-1.56.9-3.92,1-5.27.22Z"/>
      <path class="cls-7" d="M96.9,191.09l-18.43-10.64c-1.13-.65-.99-1.79.32-2.55l17.79-10.27c1.31-.75,3.28-.84,4.41-.18l18.43,10.64c1.13.65.99,1.79-.32,2.55l-17.79,10.27c-1.31.75-3.28.84-4.41.18Z"/>
      <g>
        <path class="cls-11" d="M116.2,188.85c0,.57-.4,1.26-.89,1.54-.49.28-.89.05-.89-.51s.4-1.26.89-1.54c.49-.28.89-.05.89.51Z"/>
        <path class="cls-11" d="M119.06,187.2c0,.57-.4,1.26-.89,1.54-.49.28-.89.05-.89-.51s.4-1.26.89-1.54c.49-.28.89-.05.89.51Z"/>
        <path class="cls-11" d="M121.92,185.55c0,.57-.4,1.26-.89,1.54-.49.28-.89.05-.89-.51s.4-1.26.89-1.54c.49-.28.89-.05.89.51Z"/>
      </g>
    </g>
    <g>
      <path class="cls-24" d="M124.29,174.73h0v-7.59h-17.01s-5.88-3.4-5.88-3.4c-1.35-.78-3.71-.68-5.27.22l-5.49,3.17h-17.03s0,7.79,0,7.79c-.04.53.26,1.04.9,1.41l21.99,12.7c1.35.78,3.71.68,5.27-.22l21.23-12.26c.9-.52,1.33-1.19,1.28-1.82Z"/>
      <path class="cls-24" d="M98.95,163.21c-.99.02-2.01.27-2.82.74l-5.49,3.17h-17.03s0,7.79,0,7.79c-.04.53.26,1.04.9,1.41l21.99,12.7c.65.37,1.53.54,2.44.52v-26.33Z"/>
      <path class="cls-7" d="M75.54,167.11h-1.93s0,7.8,0,7.8c-.04.53.26,1.04.9,1.41l1.02.59v-9.8Z"/>
      <path class="cls-7" d="M96.85,189.19c1.16.5,2.85.47,4.21-.05v-8.86h-4.21v8.91Z"/>
      <path class="cls-11" d="M96.51,181.25l-21.99-12.7c-1.35-.78-1.18-2.14.38-3.04l21.23-12.26c1.56-.9,3.92-1,5.27-.22l21.99,12.7c1.35.78,1.18,2.14-.38,3.04l-21.23,12.26c-1.56.9-3.92,1-5.27.22Z"/>
      <path class="cls-7" d="M96.9,178.96l-18.43-10.64c-1.13-.65-.99-1.79.32-2.55l17.79-10.27c1.31-.75,3.28-.84,4.41-.18l18.43,10.64c1.13.65.99,1.79-.32,2.55l-17.79,10.27c-1.31.75-3.28.84-4.41.18Z"/>
      <g>
        <rect class="cls-9" x="105.88" y="179.7" width="10.19" height=".36" transform="translate(-74.94 79.33) rotate(-29.92)"/>
        <path class="cls-11" d="M116.2,176.73c0,.57-.4,1.26-.89,1.54-.49.28-.89.05-.89-.51s.4-1.26.89-1.54c.49-.28.89-.05.89.51Z"/>
        <path class="cls-11" d="M119.06,175.08c0,.57-.4,1.26-.89,1.54-.49.28-.89.05-.89-.51s.4-1.26.89-1.54c.49-.28.89-.05.89.51Z"/>
        <path class="cls-11" d="M121.92,173.43c0,.57-.4,1.26-.89,1.54-.49.28-.89.05-.89-.51s.4-1.26.89-1.54c.49-.28.89-.05.89.51Z"/>
      </g>
    </g>
    <g>
      <path class="cls-24" d="M124.29,162.52h0v-7.59h-17.01s-5.88-3.4-5.88-3.4c-1.35-.78-3.71-.68-5.27.22l-5.49,3.17h-17.03s0,7.79,0,7.79c-.04.53.26,1.04.9,1.41l21.99,12.7c1.35.78,3.71.68,5.27-.22l21.23-12.26c.9-.52,1.33-1.19,1.28-1.82Z"/>
      <path class="cls-24" d="M98.95,151c-.99.02-2.01.27-2.82.74l-5.49,3.17h-17.03s0,7.79,0,7.79c-.04.53.26,1.04.9,1.41l21.99,12.7c.65.37,1.53.54,2.44.52v-26.33Z"/>
      <path class="cls-7" d="M75.54,154.9h-1.93s0,7.8,0,7.8c-.04.53.26,1.04.9,1.41l1.02.59v-9.8Z"/>
      <path class="cls-7" d="M96.85,176.98c1.16.5,2.85.47,4.21-.05v-8.86h-4.21v8.91Z"/>
      <path class="cls-11" d="M96.51,169.04l-21.99-12.7c-1.35-.78-1.18-2.14.38-3.04l21.23-12.26c1.56-.9,3.92-1,5.27-.22l21.99,12.7c1.35.78,1.18,2.14-.38,3.04l-21.23,12.26c-1.56.9-3.92,1-5.27.22Z"/>
      <path class="cls-9" d="M123.01,155.06l-21.23,12.26c-1.56.9-3.92,1-5.27.22l-21.99-12.7c-.3-.17-.52-.38-.67-.6-.46.75-.25,1.56.67,2.09l21.99,12.7c1.35.78,3.71.68,5.27-.22l21.23-12.26c1.21-.7,1.58-1.68,1.05-2.44-.21.34-.56.67-1.05.95Z"/>
      <g>
        <path class="cls-11" d="M116.2,164.52c0,.57-.4,1.26-.89,1.54-.49.28-.89.05-.89-.51s.4-1.26.89-1.54c.49-.28.89-.05.89.51Z"/>
        <path class="cls-11" d="M107.45,169.33c0,.57-.4,1.26-.89,1.54-.49.28-.89.05-.89-.51s.4-1.26.89-1.54c.49-.28.89-.05.89.51Z"/>
        <path class="cls-9" d="M107.45,181.91c0,.57-.4,1.26-.89,1.54-.49.28-.89.05-.89-.51s.4-1.26.89-1.54c.49-.28.89-.05.89.51Z"/>
        <path class="cls-11" d="M119.06,162.87c0,.57-.4,1.26-.89,1.54-.49.28-.89.05-.89-.51s.4-1.26.89-1.54c.49-.28.89-.05.89.51Z"/>
        <path class="cls-11" d="M121.92,161.22c0,.57-.4,1.26-.89,1.54s-.89.05-.89-.51.4-1.26.89-1.54.89-.05.89.51Z"/>
      </g>
      <g>
        <path class="cls-7" d="M97.81,161.16l-10.29-5.94c-.63-.36-.55-1,.18-1.42l9.94-5.74c.73-.42,1.83-.47,2.46-.1l10.29,5.94c.63.36.55,1-.18,1.42l-9.94,5.74c-.73.42-1.83.47-2.46.1Z"/>
        <path class="cls-11" d="M98.79,156.19l-1.42-.82c-.09-.05-.08-.14.02-.2l1.37-.79c.1-.06.25-.06.34-.01l1.42.82c.09.05.08.14-.02.2l-1.37.79c-.1.06-.25.06-.34.01Z"/>
        <path class="cls-24" d="M87.52,155.22l.03.02s.09-.07.15-.1l9.94-5.74c.73-.42,1.83-.47,2.46-.1l10.26,5.92c.58-.42.61-.98.03-1.32l-10.29-5.94c-.63-.36-1.73-.32-2.46.1l-9.94,5.74c-.73.42-.81,1.06-.18,1.42Z"/>
      </g>
    </g>
    <g>
      <path class="cls-11" d="M95.66,170.84c0,.6-.42.84-.94.54-.52-.3-.94-1.02-.94-1.62s.42-.84.94-.54c.52.3.94,1.02.94,1.62Z"/>
      <path class="cls-7" d="M92.75,169.17c0,.6-.42.84-.94.54-.52-.3-.94-1.02-.94-1.62s.42-.84.94-.54c.52.3.94,1.02.94,1.62Z"/>
      <path class="cls-11" d="M95.66,174.34c0,.6-.42.84-.94.54-.52-.3-.94-1.02-.94-1.62s.42-.84.94-.54c.52.3.94,1.02.94,1.62Z"/>
      <path class="cls-11" d="M92.75,172.67c0,.6-.42.84-.94.54-.52-.3-.94-1.02-.94-1.62s.42-.84.94-.54c.52.3.94,1.02.94,1.62Z"/>
    </g>
    <g>
      <path class="cls-11" d="M95.66,182.88c0,.6-.42.84-.94.54-.52-.3-.94-1.02-.94-1.62s.42-.84.94-.54.94,1.02.94,1.62Z"/>
      <path class="cls-11" d="M92.75,181.22c0,.6-.42.84-.94.54-.52-.3-.94-1.02-.94-1.62s.42-.84.94-.54c.52.3.94,1.02.94,1.62Z"/>
      <path class="cls-7" d="M95.66,186.39c0,.6-.42.84-.94.54-.52-.3-.94-1.02-.94-1.62s.42-.84.94-.54c.52.3.94,1.02.94,1.62Z"/>
      <path class="cls-11" d="M92.75,184.72c0,.6-.42.84-.94.54-.52-.3-.94-1.02-.94-1.62s.42-.84.94-.54c.52.3.94,1.02.94,1.62Z"/>
    </g>
    <g>
      <path class="cls-11" d="M95.66,194.94c0,.6-.42.84-.94.54-.52-.3-.94-1.02-.94-1.62s.42-.84.94-.54c.52.3.94,1.02.94,1.62Z"/>
      <path class="cls-7" d="M92.75,193.28c0,.6-.42.84-.94.54-.52-.3-.94-1.02-.94-1.62s.42-.84.94-.54c.52.3.94,1.02.94,1.62Z"/>
      <path class="cls-11" d="M95.66,198.45c0,.6-.42.84-.94.54-.52-.3-.94-1.02-.94-1.62s.42-.84.94-.54c.52.3.94,1.02.94,1.62Z"/>
      <path class="cls-7" d="M92.75,196.78c0,.6-.42.84-.94.54-.52-.3-.94-1.02-.94-1.62s.42-.84.94-.54c.52.3.94,1.02.94,1.62Z"/>
    </g>
    <g>
      <path class="cls-7" d="M95.66,207.12c0,.6-.42.84-.94.54-.52-.3-.94-1.02-.94-1.62s.42-.84.94-.54c.52.3.94,1.02.94,1.62Z"/>
      <path class="cls-11" d="M92.75,205.45c0,.6-.42.84-.94.54-.52-.3-.94-1.02-.94-1.62s.42-.84.94-.54c.52.3.94,1.02.94,1.62Z"/>
      <path class="cls-11" d="M95.66,210.62c0,.6-.42.84-.94.54-.52-.3-.94-1.02-.94-1.62s.42-.84.94-.54.94,1.02.94,1.62Z"/>
      <path class="cls-7" d="M92.75,208.96c0,.6-.42.84-.94.54-.52-.3-.94-1.02-.94-1.62s.42-.84.94-.54c.52.3.94,1.02.94,1.62Z"/>
    </g>
    <g>
      <path class="cls-7" d="M95.66,219.18c0,.6-.42.84-.94.54-.52-.3-.94-1.02-.94-1.62s.42-.84.94-.54c.52.3.94,1.02.94,1.62Z"/>
      <path class="cls-11" d="M92.75,217.51c0,.6-.42.84-.94.54-.52-.3-.94-1.02-.94-1.62s.42-.84.94-.54c.52.3.94,1.02.94,1.62Z"/>
      <path class="cls-7" d="M95.66,222.68c0,.6-.42.84-.94.54-.52-.3-.94-1.02-.94-1.62s.42-.84.94-.54c.52.3.94,1.02.94,1.62Z"/>
      <path class="cls-11" d="M92.75,221.02c0,.6-.42.84-.94.54-.52-.3-.94-1.02-.94-1.62s.42-.84.94-.54.94,1.02.94,1.62Z"/>
    </g>
    <g>
      <path class="cls-11" d="M95.66,231.39c0,.6-.42.84-.94.54-.52-.3-.94-1.02-.94-1.62s.42-.84.94-.54.94,1.02.94,1.62Z"/>
      <path class="cls-7" d="M92.75,229.72c0,.6-.42.84-.94.54-.52-.3-.94-1.02-.94-1.62s.42-.84.94-.54c.52.3.94,1.02.94,1.62Z"/>
      <path class="cls-11" d="M95.66,234.89c0,.6-.42.84-.94.54-.52-.3-.94-1.02-.94-1.62s.42-.84.94-.54c.52.3.94,1.02.94,1.62Z"/>
      <path class="cls-11" d="M92.75,233.23c0,.6-.42.84-.94.54-.52-.3-.94-1.02-.94-1.62s.42-.84.94-.54c.52.3.94,1.02.94,1.62Z"/>
    </g>
  </g>
  <g>
    <path class="cls-11" d="M337.17,285.07c-8.15-4.7-21.36-4.7-29.51,0-8.15,4.7-8.15,12.33,0,17.04,8.15,4.7,21.36,4.7,29.51,0,8.15-4.7,8.15-12.33,0-17.04ZM329.2,297.51c-3.75,2.16-9.82,2.16-13.56,0-3.75-2.16-3.75-5.67,0-7.83,3.75-2.16,9.82-2.16,13.56,0,3.75,2.16,3.75,5.67,0,7.83Z"/>
    <g>
      <g>
        <path class="cls-1" d="M304.59,278.61l7.44.12c.55-.72,1.33-1.39,2.35-1.98,4.09-2.36,10.53-2.55,14.99-.55l4.42-4.16,6.81.11c-.34-.22-.68-.44-1.05-.65-9.46-5.46-24.81-5.46-34.27,0-1.74,1-3.16,2.13-4.26,3.32l3.56,3.8Z"/>
        <polygon class="cls-8" points="340.6 261.34 340.6 272.15 333.79 272.04 333.79 261.23 340.6 261.34"/>
        <polygon class="cls-1" points="329.37 265.39 329.37 276.2 333.79 272.04 333.79 261.23 329.37 265.39"/>
        <path class="cls-1" d="M312.03,267.92v10.81l9.79-7.98,7.55,5.45v-10.81l-6.95-3.37s-9.57,2.93-10.06,3.05c-.5.12-.32,2.85-.32,2.85Z"/>
        <polygon class="cls-1" points="304.59 267.8 304.59 278.61 312.03 278.73 312.03 267.92 304.59 267.8"/>
        <polygon class="cls-8" points="301.03 264.01 301.03 274.82 304.59 278.61 304.59 267.8 301.03 264.01"/>
        <path class="cls-16" d="M304.59,267.8l7.44.12c.55-.72,1.33-1.39,2.35-1.98,4.09-2.36,10.53-2.55,14.99-.55l4.42-4.16,6.81.11c-.34-.22-.68-.44-1.05-.65-9.46-5.46-24.81-5.46-34.27,0-1.74,1-3.16,2.13-4.26,3.32l3.56,3.8Z"/>
      </g>
      <g>
        <path class="cls-18" d="M331.61,266.72v9.94l6.44-1.54s-.38-5.81-.52-5.97c-.14-.16-5.93-2.42-5.93-2.42Z"/>
        <g>
          <path class="cls-18" d="M326.74,276.66v10.81l.7.74,4.54-2.62s-.7-8.25-.79-8.42c-.08-.17-4.45-.51-4.45-.51Z"/>
          <path class="cls-18" d="M335.51,273.87l-3.89,3.66c3.24,2.57,2.86,6.19-1.15,8.5-1.1.63-2.37,1.11-3.72,1.43l4.03,4.29-3.57,3.35c4.53-.52,8.85-1.8,12.36-3.82,8.14-4.7,9.27-11.9,3.42-17.3l-7.47-.12Z"/>
          <polygon class="cls-18" points="327.2 284.3 327.2 295.11 336.03 291.7 346.65 281.56 346.61 270.09 335.37 279 327.2 284.3"/>
          <path class="cls-14" d="M335.51,263.06l-3.89,3.66c3.24,2.57,2.86,6.19-1.15,8.5-1.1.63-2.37,1.11-3.72,1.43l4.03,4.29-3.57,3.35c4.53-.52,8.85-1.8,12.36-3.82,8.14-4.7,9.27-11.9,3.42-17.3l-7.47-.12Z"/>
        </g>
      </g>
      <g>
        <path class="cls-12" d="M327.17,291.7l-3.55-3.78c-3.29.2-6.71-.43-9.24-1.88-2.61-1.51-3.68-3.56-3.23-5.52l-8.45-.13-3.25-3.46c-2.84,4.88-.9,10.48,5.83,14.37,4.95,2.86,11.5,4.22,17.98,4.09l3.91-3.67Z"/>
        <polygon class="cls-12" points="323.26 284.56 323.26 295.37 298.19 281.48 298.19 270.67 301.85 272.15 323.26 284.56"/>
        <polygon class="cls-21" points="327.17 280.89 327.17 291.7 323.26 295.37 323.26 284.56 327.17 280.89"/>
        <path class="cls-4" d="M327.17,280.89l-3.55-3.78c-3.29.2-6.71-.43-9.24-1.88-2.61-1.51-3.68-3.56-3.23-5.52l-8.45-.13-3.25-3.46c-2.84,4.88-.9,10.48,5.83,14.37,4.95,2.86,11.5,4.22,17.98,4.09l3.91-3.67Z"/>
      </g>
    </g>
  </g>
  <g>
    <g>
      <path class="cls-18" d="M124.25,126.09l-19.14-11.05c-.38-.22-.72-.23-.99-.08,0,0,0-.01,0-.01l-1.86,1.07s.82.3,1.3.48v13.94c0,1.13.69,2.45,1.54,2.94l18.29,10.56v1.64l1.88-1.08h-.01c.32-.2.52-.62.52-1.23v-14.23c0-1.13-.69-2.45-1.54-2.94Z"/>
      <path class="cls-14" d="M122.36,145.51l-19.14-11.05c-.85-.49-1.54-1.81-1.54-2.94v-14.23c0-1.13.69-1.66,1.54-1.16l19.14,11.05c.85.49,1.54,1.81,1.54,2.94v14.23c0,1.13-.69,1.66-1.54,1.16Z"/>
    </g>
    <g>
      <path class="cls-9" d="M109.66,129.56c0,.82-.58,1.16-1.29.75-.71-.41-1.29-1.41-1.29-2.24s.58-1.16,1.29-.75,1.29,1.41,1.29,2.24Z"/>
      <path class="cls-9" d="M113.57,131.82c0,.82-.58,1.16-1.29.75-.71-.41-1.29-1.41-1.29-2.24s.58-1.16,1.29-.75c.71.41,1.29,1.41,1.29,2.24Z"/>
      <path class="cls-9" d="M117.48,134.08c0,.82-.58,1.16-1.29.75-.71-.41-1.29-1.41-1.29-2.24s.58-1.16,1.29-.75c.71.41,1.29,1.41,1.29,2.24Z"/>
    </g>
  </g>
  <g>
    <g>
      <path class="cls-7" d="M113.36,108.19l-19.14-11.05c-.38-.22-.72-.23-.99-.08,0,0,0-.01,0-.01l-1.86,1.07s.82.3,1.3.48v13.94c0,1.13.69,2.45,1.54,2.94l18.29,10.56v1.64l1.88-1.08h-.01c.32-.2.52-.62.52-1.23v-14.23c0-1.13-.69-2.45-1.54-2.94Z"/>
      <path class="cls-11" d="M111.47,127.62l-19.14-11.05c-.85-.49-1.54-1.81-1.54-2.94v-14.23c0-1.13.69-1.66,1.54-1.16l19.14,11.05c.85.49,1.54,1.81,1.54,2.94v14.23c0,1.13-.69,1.66-1.54,1.16Z"/>
    </g>
    <g>
      <path class="cls-9" d="M98.77,111.67c0,.82-.58,1.16-1.29.75-.71-.41-1.29-1.41-1.29-2.24s.58-1.16,1.29-.75c.71.41,1.29,1.41,1.29,2.24Z"/>
      <path class="cls-9" d="M102.68,113.93c0,.82-.58,1.16-1.29.75-.71-.41-1.29-1.41-1.29-2.24s.58-1.16,1.29-.75c.71.41,1.29,1.41,1.29,2.24Z"/>
      <path class="cls-9" d="M106.59,116.18c0,.82-.58,1.16-1.29.75s-1.29-1.41-1.29-2.24.58-1.16,1.29-.75c.71.41,1.29,1.41,1.29,2.24Z"/>
    </g>
  </g>
  <g>
    <path class="cls-8" d="M65.01,259.79l-19.14-11.05c-.38-.22-.72-.23-.99-.08,0,0,0-.01,0-.01l-1.86,1.07s.82.3,1.3.48v13.94c0,1.13.69,2.45,1.54,2.94l18.29,10.56v1.64l1.88-1.08h-.01c.32-.2.52-.62.52-1.23v-14.23c0-1.13-.69-2.45-1.54-2.94Z"/>
    <path class="cls-1" d="M66.04,278.2h-.01c.32-.2.52-.62.52-1.23v-14.23c0-.55-.16-1.14-.43-1.66l-15.33,8.85,13.37,7.72v1.64l1.88-1.08Z"/>
    <path class="cls-16" d="M63.12,279.22l-19.14-11.05c-.85-.49-1.54-1.81-1.54-2.94v-14.23c0-1.13.69-1.65,1.54-1.16l19.14,11.05c.85.49,1.54,1.81,1.54,2.94v14.23c0,1.13-.69,1.66-1.54,1.16Z"/>
  </g>
  <g>
    <g>
      <g>
        <rect class="cls-7" x="281.11" y="259.02" width="4.82" height="10.4" transform="translate(667.47 211.51) rotate(129.2)"/>
        <path class="cls-7" d="M287.23,269.46c1.02-.39,1.98-1.57,2.15-2.64.17-1.07-.51-1.63-1.53-1.24-1.02.39-1.98,1.57-2.15,2.64-.17,1.07.51,1.63,1.53,1.24Z"/>
      </g>
      <g>
        <rect class="cls-7" x="272.87" y="253.41" width="7.81" height="10.63" transform="translate(652.21 207.76) rotate(129.2)"/>
        <path class="cls-24" d="M282.34,260.15l2.73,2.23c-.39,1.5-1.65,3.05-3.05,3.74l-2.73-2.23c.39-1.5,1.65-3.05,3.05-3.74Z"/>
        <path class="cls-7" d="M280.39,265.24c1.65-.63,3.21-2.54,3.49-4.28.28-1.74-.83-2.64-2.47-2.02-1.65.63-3.21,2.54-3.49,4.28s.83,2.64,2.47,2.02Z"/>
        <path class="cls-7" d="M272.15,258.52c1.65-.63,3.21-2.54,3.49-4.28.28-1.74-.83-2.64-2.47-2.02-1.65.63-3.21,2.54-3.49,4.28s.83,2.64,2.47,2.02Z"/>
        <path class="cls-11" d="M272.37,257.15c.93-.35,1.82-1.44,1.98-2.42.16-.98-.47-1.49-1.4-1.14-.93.35-1.82,1.44-1.98,2.42s.47,1.49,1.4,1.14Z"/>
      </g>
    </g>
    <path class="cls-11" d="M287.26,266.4c.4.32.78.18.86-.33.08-.5-.17-1.17-.57-1.5s-.78-.18-.86.33c-.08.5.17,1.17.57,1.5Z"/>
  </g>
  <path class="cls-7" d="M211.65,339.92c-1.31,0-2.62-.36-3.81-1.08l-5.17-3.06c-.28-.17-.37-.52-.2-.8.16-.28.52-.37.8-.2l5.18,3.07c2.03,1.22,4.45,1.21,6.47-.03,2.02-1.24,3.12-3.39,2.96-5.75l-.11-1.56c-1.82-25.54-5.2-73.08,14.84-78.2,6.9-1.77,11.63-3.46,15.08-4.69,10.28-3.68,10.99-3.48,25.16,7.23.26.19.31.56.11.82-.19.26-.56.31-.82.11-14.08-10.63-14.27-10.57-24.06-7.06-3.47,1.24-8.23,2.94-15.18,4.72-19.09,4.89-15.75,51.79-13.96,76.99l.11,1.56c.2,2.81-1.11,5.36-3.51,6.83-1.21.74-2.54,1.11-3.86,1.11Z"/>
  <g>
    <path class="cls-11" d="M264.36,346.18c-7.4,4.27-19.4,4.27-26.8,0-7.4-4.27-7.4-11.2,0-15.48,7.4-4.27,19.4-4.27,26.8,0,7.4,4.27,7.4,11.2,0,15.48Z"/>
    <g>
      <path class="cls-25" d="M260,333.76c1.07.46,1.74,1.65,1.65,2.92-.04.6-.11,1.17-.24,1.43-.34.71-1.45,1.69-3.23.99-1.78-.7-5.72-4.41-5.87-6.84-.27-4.51,4.88.29,7.69,1.49Z"/>
      <path class="cls-25" d="M249.56,341.21s.43,2.6.22,3.08-1.44,1.49-3.27,1.27c-1.83-.22-7.08-2.03-8.25-5.5-1.81-5.37,10.15.4,10.15.4l1.16.74Z"/>
      <path class="cls-16" d="M244.42,299.66l-.41,40.58c.04,1.41.97,2.6,2.21,2.81.15.03.32.05.49.06,1.26.11,1.99-.43,2.41-1,.34-.46.52-1.04.54-1.64l.52-17.32,2.59-15.49,3.58,27.41c.06.74.41,1.43.98,1.8.39.26.93.46,1.63.44,1.02-.03,1.74-.58,2.17-1.07.34-.39.53-.92.52-1.47l-1.42-16.49-.53-21.04-15.29,2.4Z"/>
      <path class="cls-6" d="M249.68,263.34l.64,3.7s.02,1.26-1.38,1.61c-1.41.35-1.84-.56-1.84-.56l-.64-4.16,3.22-.58Z"/>
      <path class="cls-6" d="M242.16,263.45c2.35,2.34,5.95,2.54,8.03.44,2.08-2.1,1.86-5.71-.5-8.05-2.35-2.34-5.95-2.54-8.03-.44-2.08,2.1-1.86,5.71.5,8.05Z"/>
      <path class="cls-21" d="M249.51,267.1c.1-.04,5.98-3.82,8.15.14,3.54,6.46,3.33,27.25,2.22,29.94-1.04,2.49-3.62,4.33-5.43,5.37-1.61.92-3.42,1.49-5.27,1.5-1.84.01-5.36-1.62-5.23-4.02.59-11.05-.39-20.36-1.29-29.39,0,0,1.13-1.21,6.86-3.54Z"/>
      <path class="cls-26" d="M252.78,307.67l3.58,27.41c.06.74.41,1.43.98,1.8.09.06.2.12.31.17-.74-.56-2.91-23.57-3.31-26.12-.4-2.56-1.55-3.26-1.55-3.26Z"/>
    </g>
    <polygon class="cls-6" points="230.71 268.32 227.52 257.86 229.2 257.16 232.97 265.36 230.71 268.32"/>
    <polygon class="cls-6" points="262.91 260.07 260.52 249.18 258.61 249.2 259.33 258.24 262.91 260.07"/>
    <path class="cls-21" d="M242.65,270.64s-5.74,1.14-9.39-5.54c-.32-.59-1.17-.68-1.51-.16-.59.89-1.36,2.26-.96,3.73,1.78,6.53,11.43,7.97,13.16,11.76,1.73,3.79-1.3-9.8-1.3-9.8Z"/>
    <path class="cls-21" d="M253.24,265.74s4.55.35,5.2-3.58c.34-2.03.44-3.24.46-3.93.01-.47.42-.83.89-.77,1.09.14,2.77.46,3,1.19.34,1.09.98,6.43-3.51,14.63-2.94,5.37-6.04-7.53-6.04-7.53Z"/>
    <path class="cls-6" d="M260.53,249.21l-.04-1.24c-.02-.44-.14-.87-.37-1.24l-1.26-2.07-.33-.41c-.3-.38-.85-.47-1.26-.22l-.29.18c-.37.23-.58.65-.55,1.08l.65,1.77-.82-.16c-.16-.03-.31.07-.34.24h0c-.02.14.05.27.18.32l1.34.54,1.22,1.73,1.87-.52Z"/>
    <path class="cls-6" d="M227.47,257.91l-.38-1.18c-.13-.42-.16-.86-.07-1.29l.48-2.37.17-.5c.16-.46.63-.73,1.11-.63l.33.07c.43.09.77.41.89.83v1.88s.71-.43.71-.43c.14-.08.32-.04.4.1h0c.07.12.05.27-.06.36l-1.08.97-.63,2.29-1.87-.11Z"/>
    <path class="cls-17" d="M245.33,278.55c.52,2.39-.94,20.91,3.83,25.5-1.84.01-5.36-1.62-5.23-4.02.39-7.41.08-14.03-.44-20.31-1.87-2.43-7.03-3.97-10.26-7.09.24.07,11.57,3.56,12.09,5.92Z"/>
    <path class="cls-9" d="M251.62,266.06l-.82-.84s-1.34,1.37-2.42,1.61c0,0-1.3.37-1.93.4l-.53,1.45s4.28-.31,5.7-2.62Z"/>
    <path class="cls-25" d="M245.6,261.76c-.2.1-.43.11-.63,0-.35-.18-.91-1.56-1.63-1.46-1.13.16-2.77,2.53-4.81-.78-1.06-1.72-.44-2.65-.95-3.63,0,0,.18.53,4.62-2.18,4.44-2.71,8.06.59,9.19,2.48s1.85,5.58-1.06,7.66c-.48.34-3.59-.27-3.65-.53-.06-.26.77-.68.3-1.29-.39-.51-.84-.54-1.37-.27Z"/>
  </g>
  <polygon class="cls-1" points="43.03 249.72 53.55 264.53 64.24 262.16 53.33 265.71 43.03 249.72"/>
  <polygon class="cls-1" points="54.79 264.99 55.68 264.74 64.17 279.28 54.79 264.99"/>
  <polygon class="cls-1" points="52.55 264.1 43.1 267.29 52.06 263.27 52.55 264.1"/>
  <g>
    <path class="cls-18" d="M47.83,251.01c0-3.29-2.31-7.3-5.16-8.95-1.39-.8-2.65-.89-3.58-.4h0s-.06.03-.06.03c-.01,0-.02.01-.03.02l-1.8,1.04.85-.05c-.35.6-.55,1.39-.55,2.35,0,3.29,2.31,7.3,5.16,8.95.76.44,1.47.66,2.12.69-.12.23-.4.78-.4.78l1.87-1.08s.08-.04.12-.07l.08-.05s-.02,0-.02,0c.86-.57,1.39-1.69,1.39-3.26Z"/>
    <path class="cls-14" d="M45.96,252.08c0,3.29-2.31,4.63-5.16,2.98s-5.16-5.65-5.16-8.95,2.31-4.63,5.16-2.98,5.16,5.65,5.16,8.95Z"/>
  </g>
  <path class="cls-9" d="M40.64,252.36c-.28-.16-.51-.34-.7-.54-.19-.2-.34-.42-.44-.66-.1-.24-.18-.49-.22-.74-.04-.25-.07-.54-.07-.86l.95.55c0,.18,0,.33.02.45.01.12.03.25.07.38.03.13.09.25.16.34.07.1.17.18.28.24.07.04.13.06.19.06.05,0,.1,0,.13-.02.03-.02.07-.06.09-.12.03-.07.04-.12.06-.18.01-.05.02-.14.03-.26,0-.12,0-.22.01-.29,0-.08,0-.19,0-.35,0-.17,0-.3,0-.42,0-.11-.02-.23-.04-.36-.02-.13-.05-.23-.09-.32-.04-.09-.09-.17-.15-.25-.07-.08-.15-.15-.24-.2-.13-.08-.25-.09-.34-.04-.09.05-.16.15-.2.3l-.83-.48.04-3.6,2.57,1.48v1.02l-1.74-1-.06,1.51c.07-.05.18-.07.31-.05.13.02.28.07.44.16.22.12.41.27.58.45.16.18.29.39.39.63.1.24.17.49.22.76.05.27.07.56.07.87,0,.29-.01.54-.04.75-.02.21-.07.4-.13.58-.06.17-.15.3-.26.37-.11.07-.25.1-.43.08-.18-.02-.38-.1-.62-.24Z"/>
  <path class="cls-14" d="M155.26,108.03c-5.05,0-9.17-4.11-9.17-9.17s4.11-9.17,9.17-9.17,9.17,4.11,9.17,9.17-4.11,9.17-9.17,9.17ZM155.26,91.7c-3.95,0-7.17,3.22-7.17,7.17s3.22,7.17,7.17,7.17,7.17-3.21,7.17-7.17-3.21-7.17-7.17-7.17Z"/>
  <path class="cls-16" d="M124.9,332.13c-3.58,0-6.5-2.92-6.5-6.5s2.92-6.5,6.5-6.5,6.5,2.92,6.5,6.5-2.92,6.5-6.5,6.5ZM124.9,321.13c-2.48,0-4.5,2.02-4.5,4.5s2.02,4.5,4.5,4.5,4.5-2.02,4.5-4.5-2.02-4.5-4.5-4.5Z"/>
  <path class="cls-14" d="M182.9,60.82l-4.41-8.97,8.97-4.41,4.41,8.97-8.97,4.41ZM181.17,52.76l2.65,5.38,5.38-2.65-2.65-5.38-5.38,2.65Z"/>
  <g>
    <rect class="cls-12" x="333.87" y="54.5" width="9.5" height="2" transform="translate(59.94 255.7) rotate(-45)"/>
    <rect class="cls-12" x="337.62" y="50.75" width="2" height="9.5" transform="translate(59.92 255.68) rotate(-45)"/>
  </g>
  <circle class="cls-16" cx="147.09" cy="104.9" r="6.62"/>
  <circle class="cls-16" cx="58.22" cy="202.1" r="4.86"/>
  <path class="cls-14" d="M117.93,334.86c0,2.15-1.75,3.9-3.9,3.9s-3.9-1.75-3.9-3.9,1.75-3.9,3.9-3.9,3.9,1.75,3.9,3.9Z"/>
  <g>
    <path class="cls-12" d="M413.3,187c-.43,1.15-1.71,1.72-2.86,1.29-1.15-.43-1.72-1.71-1.29-2.86s1.71-1.72,2.86-1.29c1.15.43,1.72,1.71,1.29,2.86Z"/>
    <rect class="cls-16" x="396.9" y="168.63" width="9.23" height="9.23" transform="translate(86.94 -130.51) rotate(20.66)"/>
  </g>
</svg>