<?xml version="1.0" encoding="UTF-8"?>
<svg id="_Ñëîé_1" data-name="Ñëîé_1" xmlns="http://www.w3.org/2000/svg" width="309.92" height="312.31" viewBox="0 0 309.92 312.31">
  <defs>
    <style>
      .cls-1 {
        fill: #7e23dc;
      }

      .cls-2 {
        fill: #e8a200;
      }

      .cls-3 {
        fill: #c285f9;
      }

      .cls-4 {
        fill: #ea9c92;
      }

      .cls-5 {
        fill: #8a2ae3;
      }

      .cls-6 {
        fill: #6614cf;
      }

      .cls-7 {
        fill: #ffc2b0;
      }

      .cls-8 {
        fill: #5793ce;
      }

      .cls-9 {
        fill: #fff;
      }

      .cls-10 {
        fill: #b45ef4;
      }

      .cls-11 {
        fill: #ff2c9c;
      }

      .cls-12 {
        fill: #274f89;
      }

      .cls-13 {
        fill: #c4d9e8;
        opacity: .5;
      }

      .cls-14 {
        fill: #fdd762;
      }

      .cls-15 {
        fill: #721bd5;
      }

      .cls-16 {
        fill: #983be9;
      }

      .cls-17 {
        fill: #d29fff;
      }

      .cls-18 {
        fill: #d4ecff;
      }

      .cls-19 {
        fill: #396caa;
      }

      .cls-20 {
        fill: #173d7a;
      }

      .cls-21 {
        fill: #d8892b;
      }
    </style>
  </defs>
  <g>
    <path class="cls-13" d="M163.47,282.49l-110.82-63.98c-3.13-1.81-2.74-4.97.88-7.06l75.46-43.55c3.62-2.09,9.1-2.32,12.23-.51l110.82,63.98c3.13,1.81,2.74,4.97-.88,7.06l-75.46,43.55c-3.62,2.09-9.1,2.32-12.23.51Z"/>
    <path class="cls-20" d="M277.99,118.03l-110.82-63.98c-1.29-.74-2.59-.86-3.76-.46h0s-.2.06-.2.06c-.02,0-.03.01-.05.02l-4,1.53,3.59,1.76c-.02.07-.04.13-.05.2l-18.05,82.16c-.9,4.11.91,8.91,4.04,10.72l108.15,62.44-.39,4.58,4.38-1.7c1.47-.69,2.65-2.24,3.13-4.46l18.05-82.16c.9-4.11-.91-8.91-4.04-10.72Z"/>
    <path class="cls-19" d="M277.99,118.03l-110.82-63.98c-1.29-.74-2.59-.86-3.76-.46h0s-.2.06-.2.06c-.02,0-.03.01-.05.02l-4,1.53,3.59,1.76c-.02.07-.04.13-.05.2l-11.9,54.15,54.22,42.24,76.45-31.11c-.73-1.9-1.96-3.52-3.5-4.42Z"/>
    <path class="cls-12" d="M273.81,130.66l8.44-3.59c.15-3.27-1.2-6.64-3.42-8.45l-13.35,5.62,8.33,6.42Z"/>
    <path class="cls-18" d="M252.62,216.63l-110.82-63.98c-3.13-1.81-4.94-6.61-4.04-10.72l18.05-82.16c.9-4.11,4.18-5.98,7.31-4.17l110.82,63.98c3.13,1.81,4.94,6.61,4.04,10.72l-18.05,82.16c-.9,4.11-4.18,5.98-7.31,4.17Z"/>
    <path class="cls-9" d="M250.22,210.52l-104.22-60.14c-2.87-1.66-4.52-6.05-3.7-9.81l16.52-75.19c.83-3.76,3.82-5.47,6.69-3.81l104.22,60.14c2.87,1.66,4.52,6.05,3.7,9.81l-16.52,75.19c-.83,3.76-3.82,5.47-6.69,3.81Z"/>
    <path class="cls-9" d="M250.22,210.52l-104.22-60.14c-2.87-1.66-4.52-6.05-3.7-9.81l16.52-75.19c.83-3.76,3.82-5.47,6.69-3.81l104.22,60.14c2.87,1.66,4.52,6.05,3.7,9.81l-16.52,75.19c-.83,3.76-3.82,5.47-6.69,3.81Z"/>
    <path class="cls-20" d="M254.15,219.42l-15.15-2-97.78-56.46c-3.13-1.81-8.61-1.58-12.23.51l-69.29,39.99-9.16-1.21v5.2h0c-.06,1.2.62,2.36,2.1,3.21l110.82,63.98c3.13,1.81,8.61,1.58,12.23-.51l75.46-43.55c2.04-1.18,3.05-2.69,2.99-4.11h0v-5.05Z"/>
    <path class="cls-19" d="M180.68,183.75l-6.95-4.01h-76.38l-37.65,21.72-9.16-1.21v5.2h0c-.06,1.2.62,2.36,2.1,3.21l110.82,63.98c1.66.96,3.97,1.34,6.31,1.18l10.9-90.08Z"/>
    <path class="cls-8" d="M54.6,200.79l-4.06-.54v5.2h0c-.06,1.2.62,2.36,2.1,3.21l1.95,1.13v-9Z"/>
    <path class="cls-12" d="M164.58,273.16c2.97,1.13,7.22.88,10.39-.65v-11.59h-10.39v12.24Z"/>
    <path class="cls-18" d="M163.47,267.45l-110.82-63.98c-3.13-1.81-2.74-4.97.88-7.06l75.46-43.55c3.62-2.09,9.1-2.32,12.23-.51l110.82,63.98c3.13,1.81,2.74,4.97-.88,7.06l-75.46,43.55c-3.62,2.09-9.1,2.32-12.23.51Z"/>
    <path class="cls-9" d="M251.16,221.49l-75.46,43.55c-3.62,2.09-9.1,2.32-12.23.51l-110.82-63.98c-1.03-.59-1.67-1.33-1.95-2.13-.49,1.48.13,2.98,1.95,4.03l110.82,63.98c3.13,1.81,8.61,1.58,12.23-.51l75.46-43.55c2.43-1.4,3.4-3.29,2.83-4.93-.36,1.08-1.3,2.15-2.83,3.03Z"/>
    <g>
      <path class="cls-20" d="M99.78,182.29l-5.01-2.89c-.4-.23-.35-.64.11-.91l5.92-3.42c.46-.27,1.17-.3,1.57-.07l5.01,2.89c.4.23.35.64-.11.91l-5.92,3.42c-.46.27-1.17.3-1.57.07Z"/>
      <path class="cls-20" d="M107.53,186.76l-5.01-2.89c-.4-.23-.35-.64.11-.91l5.92-3.42c.46-.27,1.17-.3,1.57-.07l5.01,2.89c.4.23.35.64-.11.91l-5.92,3.42c-.46.27-1.17.3-1.57.07Z"/>
      <path class="cls-20" d="M115.27,191.23l-5.01-2.89c-.4-.23-.35-.64.11-.91l5.92-3.42c.46-.27,1.17-.3,1.57-.07l5.01,2.89c.4.23.35.64-.11.91l-5.92,3.42c-.46.27-1.17.3-1.57.07Z"/>
      <path class="cls-20" d="M125.98,187.54l-5.01-2.89c-.4-.23-.35-.64.11-.91l4.97-2.87c.46-.27,1.17-.3,1.57-.07l5.01,2.89c.4.23.35.64-.11.91l-4.97,2.87c-.46.27-1.17.3-1.57.07Z"/>
      <path class="cls-20" d="M133.72,192.01l-5.01-2.89c-.4-.23-.35-.64.11-.91l4.97-2.87c.46-.27,1.17-.3,1.57-.07l5.01,2.89c.4.23.35.64-.11.91l-4.97,2.87c-.46.27-1.17.3-1.57.07Z"/>
      <path class="cls-20" d="M141.46,196.48l-5.01-2.89c-.4-.23-.35-.64.11-.91l4.97-2.87c.46-.27,1.17-.3,1.57-.07l5.01,2.89c.4.23.35.64-.11.91l-4.97,2.87c-.46.27-1.17.3-1.57.07Z"/>
      <path class="cls-20" d="M149.21,200.95l-5.01-2.89c-.4-.23-.35-.64.11-.91l4.97-2.87c.46-.27,1.17-.3,1.57-.07l5.01,2.89c.4.23.35.64-.11.91l-4.97,2.87c-.46.27-1.17.3-1.57.07Z"/>
      <path class="cls-20" d="M156.95,205.42l-5.01-2.89c-.4-.23-.35-.64.11-.91l4.97-2.87c.46-.27,1.17-.3,1.57-.07l5.01,2.89c.4.23.35.64-.11.91l-4.97,2.87c-.46.27-1.17.3-1.57.07Z"/>
      <path class="cls-20" d="M164.69,209.89l-5.01-2.89c-.4-.23-.35-.64.11-.91l4.97-2.87c.46-.27,1.17-.3,1.57-.07l5.01,2.89c.4.23.35.64-.11.91l-4.97,2.87c-.46.27-1.17.3-1.57.07Z"/>
      <path class="cls-20" d="M172.44,214.36l-5.01-2.89c-.4-.23-.35-.64.11-.91l4.97-2.87c.46-.27,1.17-.3,1.57-.07l5.01,2.89c.4.23.35.64-.11.91l-4.97,2.87c-.46.27-1.17.3-1.57.07Z"/>
      <path class="cls-20" d="M180.18,218.83l-5.01-2.89c-.4-.23-.35-.64.11-.91l4.97-2.87c.46-.27,1.17-.3,1.57-.07l5.01,2.89c.4.23.35.64-.11.91l-4.97,2.87c-.46.27-1.17.3-1.57.07Z"/>
      <path class="cls-20" d="M187.92,223.3l-5.01-2.89c-.4-.23-.35-.64.11-.91l4.97-2.87c.46-.27,1.17-.3,1.57-.07l5.01,2.89c.4.23.35.64-.11.91l-4.97,2.87c-.46.27-1.17.3-1.57.07Z"/>
      <path class="cls-20" d="M195.67,227.77l-5.01-2.89c-.4-.23-.35-.64.11-.91l4.97-2.87c.46-.27,1.17-.3,1.57-.07l5.01,2.89c.4.23.35.64-.11.91l-4.97,2.87c-.46.27-1.17.3-1.57.07Z"/>
      <path class="cls-19" d="M137.39,185.42l-5.01-2.89c-.4-.23-.35-.64.11-.91l4.97-2.87c.46-.27,1.17-.3,1.57-.07l5.01,2.89c.4.23.35.64-.11.91l-4.97,2.87c-.46.27-1.17.3-1.57.07Z"/>
      <path class="cls-19" d="M129.53,180.88l-5.01-2.89c-.4-.23-.35-.64.11-.91l4.97-2.87c.46-.27,1.17-.3,1.57-.07l5.01,2.89c.4.23.35.64-.11.91l-4.97,2.87c-.46.27-1.17.3-1.57.07Z"/>
      <path class="cls-20" d="M121.66,176.34l-10.8-6.23c-.4-.23-.35-.64.11-.91l4.97-2.87c.46-.27,1.17-.3,1.57-.07l10.8,6.23c.4.23.35.64-.11.91l-4.97,2.87c-.46.27-1.17.3-1.57.07Z"/>
      <path class="cls-20" d="M127.16,170.81l-8.76-5.06c-.4-.23-.35-.64.11-.91l4.97-2.87c.46-.27,1.17-.3,1.57-.07l8.76,5.06c.4.23.35.64-.11.91l-4.97,2.87c-.46.27-1.17.3-1.57.07Z"/>
      <path class="cls-19" d="M145.13,189.89l-5.01-2.89c-.4-.23-.35-.64.11-.91l4.97-2.87c.46-.27,1.17-.3,1.57-.07l5.01,2.89c.4.23.35.64-.11.91l-4.97,2.87c-.46.27-1.17.3-1.57.07Z"/>
      <path class="cls-20" d="M152.87,194.36l-5.01-2.89c-.4-.23-.35-.64.11-.91l4.97-2.87c.46-.27,1.17-.3,1.57-.07l5.01,2.89c.4.23.35.64-.11.91l-4.97,2.87c-.46.27-1.17.3-1.57.07Z"/>
      <path class="cls-20" d="M160.62,198.83l-5.01-2.89c-.4-.23-.35-.64.11-.91l4.97-2.87c.46-.27,1.17-.3,1.57-.07l5.01,2.89c.4.23.35.64-.11.91l-4.97,2.87c-.46.27-1.17.3-1.57.07Z"/>
      <path class="cls-20" d="M168.36,203.3l-5.01-2.89c-.4-.23-.35-.64.11-.91l4.97-2.87c.46-.27,1.17-.3,1.57-.07l5.01,2.89c.4.23.35.64-.11.91l-4.97,2.87c-.46.27-1.17.3-1.57.07Z"/>
      <path class="cls-20" d="M176.1,207.77l-5.01-2.89c-.4-.23-.35-.64.11-.91l4.97-2.87c.46-.27,1.17-.3,1.57-.07l5.01,2.89c.4.23.35.64-.11.91l-4.97,2.87c-.46.27-1.17.3-1.57.07Z"/>
      <path class="cls-20" d="M183.85,212.24l-5.01-2.89c-.4-.23-.35-.64.11-.91l4.97-2.87c.46-.27,1.17-.3,1.57-.07l5.01,2.89c.4.23.35.64-.11.91l-4.97,2.87c-.46.27-1.17.3-1.57.07Z"/>
      <path class="cls-20" d="M191.59,216.71l-5.01-2.89c-.4-.23-.35-.64.11-.91l4.97-2.87c.46-.27,1.17-.3,1.57-.07l5.01,2.89c.4.23.35.64-.11.91l-4.97,2.87c-.46.27-1.17.3-1.57.07Z"/>
      <path class="cls-20" d="M199.33,221.18l-5.01-2.89c-.4-.23-.35-.64.11-.91l4.97-2.87c.46-.27,1.17-.3,1.57-.07l5.01,2.89c.4.23.35.64-.11.91l-4.97,2.87c-.46.27-1.17.3-1.57.07Z"/>
      <path class="cls-20" d="M207.08,225.65l-5.01-2.89c-.4-.23-.35-.64.11-.91l4.97-2.87c.46-.27,1.17-.3,1.57-.07l5.01,2.89c.4.23.35.64-.11.91l-4.97,2.87c-.46.27-1.17.3-1.57.07Z"/>
      <path class="cls-20" d="M220.84,233.6l-10.94-6.32c-.4-.23-.35-.64.11-.91l4.97-2.87c.46-.27,1.17-.3,1.57-.07l10.94,6.32c.4.23.35.64-.11.91l-4.97,2.87c-.46.27-1.17.3-1.57.07Z"/>
      <path class="cls-20" d="M235.92,224.9l-9.23-5.33c-.4-.23-.35-.64.11-.91l4.97-2.87c.46-.27,1.17-.3,1.57-.07l9.23,5.33c.4.23.35.64-.11.91l-4.97,2.87c-.46.27-1.17.3-1.57.07Z"/>
      <path class="cls-20" d="M158.69,189.02l-5.01-2.89c-.4-.23-.35-.64.11-.91l4.97-2.87c.46-.27,1.17-.3,1.57-.07l5.01,2.89c.4.23.35.64-.11.91l-4.97,2.87c-.46.27-1.17.3-1.57.07Z"/>
      <path class="cls-20" d="M150.75,184.43l-5.01-2.89c-.4-.23-.35-.64.11-.91l4.97-2.87c.46-.27,1.17-.3,1.57-.07l5.01,2.89c.4.23.35.64-.11.91l-4.97,2.87c-.46.27-1.17.3-1.57.07Z"/>
      <path class="cls-19" d="M142.82,179.85l-5.01-2.89c-.4-.23-.35-.64.11-.91l4.97-2.87c.46-.27,1.17-.3,1.57-.07l5.01,2.89c.4.23.35.64-.11.91l-4.97,2.87c-.46.27-1.17.3-1.57.07Z"/>
      <path class="cls-20" d="M134.88,175.27l-5.01-2.89c-.4-.23-.35-.64.11-.91l4.97-2.87c.46-.27,1.17-.3,1.57-.07l5.01,2.89c.4.23.35.64-.11.91l-4.97,2.87c-.46.27-1.17.3-1.57.07Z"/>
      <path class="cls-20" d="M166.43,193.49l-5.01-2.89c-.4-.23-.35-.64.11-.91l4.97-2.87c.46-.27,1.17-.3,1.57-.07l5.01,2.89c.4.23.35.64-.11.91l-4.97,2.87c-.46.27-1.17.3-1.57.07Z"/>
      <path class="cls-20" d="M174.18,197.96l-5.01-2.89c-.4-.23-.35-.64.11-.91l4.97-2.87c.46-.27,1.17-.3,1.57-.07l5.01,2.89c.4.23.35.64-.11.91l-4.97,2.87c-.46.27-1.17.3-1.57.07Z"/>
      <path class="cls-20" d="M181.92,202.43l-5.01-2.89c-.4-.23-.35-.64.11-.91l4.97-2.87c.46-.27,1.17-.3,1.57-.07l5.01,2.89c.4.23.35.64-.11.91l-4.97,2.87c-.46.27-1.17.3-1.57.07Z"/>
      <path class="cls-20" d="M189.66,206.9l-5.01-2.89c-.4-.23-.35-.64.11-.91l4.97-2.87c.46-.27,1.17-.3,1.57-.07l5.01,2.89c.4.23.35.64-.11.91l-4.97,2.87c-.46.27-1.17.3-1.57.07Z"/>
      <path class="cls-20" d="M197.41,211.37l-5.01-2.89c-.4-.23-.35-.64.11-.91l4.97-2.87c.46-.27,1.17-.3,1.57-.07l5.01,2.89c.4.23.35.64-.11.91l-4.97,2.87c-.46.27-1.17.3-1.57.07Z"/>
      <path class="cls-20" d="M205.15,215.84l-5.01-2.89c-.4-.23-.35-.64.11-.91l4.97-2.87c.46-.27,1.17-.3,1.57-.07l5.01,2.89c.4.23.35.64-.11.91l-4.97,2.87c-.46.27-1.17.3-1.57.07Z"/>
      <path class="cls-20" d="M212.89,220.31l-5.01-2.89c-.4-.23-.35-.64.11-.91l4.97-2.87c.46-.27,1.17-.3,1.57-.07l5.01,2.89c.4.23.35.64-.11.91l-4.97,2.87c-.46.27-1.17.3-1.57.07Z"/>
      <path class="cls-20" d="M220.64,224.78l-5.01-2.89c-.4-.23-.35-.64.11-.91l4.97-2.87c.46-.27,1.17-.3,1.57-.07l5.01,2.89c.4.23.35.64-.11.91l-4.97,2.87c-.46.27-1.17.3-1.57.07Z"/>
      <path class="cls-20" d="M228.38,229.25l-5.01-2.89c-.4-.23-.35-.64.11-.91l4.97-2.87c.46-.27,1.17-.3,1.57-.07l5.01,2.89c.4.23.35.64-.11.91l-4.97,2.87c-.46.27-1.17.3-1.57.07Z"/>
      <path class="cls-20" d="M154.61,177.96l-5.01-2.89c-.4-.23-.35-.64.11-.91l4.97-2.87c.46-.27,1.17-.3,1.57-.07l5.01,2.89c.4.23.35.64-.11.91l-4.97,2.87c-.46.27-1.17.3-1.57.07Z"/>
      <path class="cls-20" d="M146.91,173.51l-5.01-2.89c-.4-.23-.35-.64.11-.91l4.97-2.87c.46-.27,1.17-.3,1.57-.07l5.01,2.89c.4.23.35.64-.11.91l-4.97,2.87c-.46.27-1.17.3-1.57.07Z"/>
      <path class="cls-20" d="M139.2,169.06l-5.01-2.89c-.4-.23-.35-.64.11-.91l4.97-2.87c.46-.27,1.17-.3,1.57-.07l5.01,2.89c.4.23.35.64-.11.91l-4.97,2.87c-.46.27-1.17.3-1.57.07Z"/>
      <path class="cls-20" d="M131.5,164.61l-5.01-2.89c-.4-.23-.35-.64.11-.91l4.97-2.87c.46-.27,1.17-.3,1.57-.07l5.01,2.89c.4.23.35.64-.11.91l-4.97,2.87c-.46.27-1.17.3-1.57.07Z"/>
      <path class="cls-20" d="M139.42,160.04l-5.01-2.89c-.4-.23-.35-.64.11-.91l1.64-.95c.46-.27,1.17-.3,1.57-.07l5.01,2.89c.4.23.35.64-.11.91l-1.64.95c-.46.27-1.17.3-1.57.07Z"/>
      <path class="cls-20" d="M149.48,165.84l-5.01-2.89c-.4-.23-.35-.64.11-.91l1.64-.95c.46-.27,1.17-.3,1.57-.07l5.01,2.89c.4.23.35.64-.11.91l-1.64.95c-.46.27-1.17.3-1.57.07Z"/>
      <path class="cls-20" d="M157.15,170.27l-5.01-2.89c-.4-.23-.35-.64.11-.91l1.64-.95c.46-.27,1.17-.3,1.57-.07l5.01,2.89c.4.23.35.64-.11.91l-1.64.95c-.46.27-1.17.3-1.57.07Z"/>
      <path class="cls-20" d="M164.82,174.7l-5.01-2.89c-.4-.23-.35-.64.11-.91l1.64-.95c.46-.27,1.17-.3,1.57-.07l5.01,2.89c.4.23.35.64-.11.91l-1.64.95c-.46.27-1.17.3-1.57.07Z"/>
      <path class="cls-20" d="M172.49,179.13l-5.01-2.89c-.4-.23-.35-.64.11-.91l1.64-.95c.46-.27,1.17-.3,1.57-.07l5.01,2.89c.4.23.35.64-.11.91l-1.64.95c-.46.27-1.17.3-1.57.07Z"/>
      <path class="cls-20" d="M215.33,203.86l-5.01-2.89c-.4-.23-.35-.64.11-.91l1.64-.95c.46-.27,1.17-.3,1.57-.07l5.01,2.89c.4.23.35.64-.11.91l-1.64.95c-.46.27-1.17.3-1.57.07Z"/>
      <path class="cls-20" d="M223,208.29l-5.01-2.89c-.4-.23-.35-.64.11-.91l1.64-.95c.46-.27,1.17-.3,1.57-.07l5.01,2.89c.4.23.35.64-.11.91l-1.64.95c-.46.27-1.17.3-1.57.07Z"/>
      <path class="cls-20" d="M230.67,212.72l-5.01-2.89c-.4-.23-.35-.64.11-.91l1.64-.95c.46-.27,1.17-.3,1.57-.07l5.01,2.89c.4.23.35.64-.11.91l-1.64.95c-.46.27-1.17.3-1.57.07Z"/>
      <path class="cls-20" d="M238.35,217.15l-5.01-2.89c-.4-.23-.35-.64.11-.91l1.64-.95c.46-.27,1.17-.3,1.57-.07l5.01,2.89c.4.23.35.64-.11.91l-1.64.95c-.46.27-1.17.3-1.57.07Z"/>
      <path class="cls-20" d="M162.36,182.43l-5.01-2.89c-.4-.23-.35-.64.11-.91l4.97-2.87c.46-.27,1.17-.3,1.57-.07l5.01,2.89c.4.23.35.64-.11.91l-4.97,2.87c-.46.27-1.17.3-1.57.07Z"/>
      <path class="cls-20" d="M170.1,186.9l-5.01-2.89c-.4-.23-.35-.64.11-.91l4.97-2.87c.46-.27,1.17-.3,1.57-.07l5.01,2.89c.4.23.35.64-.11.91l-4.97,2.87c-.46.27-1.17.3-1.57.07Z"/>
      <path class="cls-20" d="M177.84,191.37l-5.01-2.89c-.4-.23-.35-.64.11-.91l4.97-2.87c.46-.27,1.17-.3,1.57-.07l5.01,2.89c.4.23.35.64-.11.91l-4.97,2.87c-.46.27-1.17.3-1.57.07Z"/>
      <path class="cls-20" d="M185.59,195.84l-5.01-2.89c-.4-.23-.35-.64.11-.91l4.97-2.87c.46-.27,1.17-.3,1.57-.07l5.01,2.89c.4.23.35.64-.11.91l-4.97,2.87c-.46.27-1.17.3-1.57.07Z"/>
      <path class="cls-20" d="M193.33,200.31l-5.01-2.89c-.4-.23-.35-.64.11-.91l4.97-2.87c.46-.27,1.17-.3,1.57-.07l5.01,2.89c.4.23.35.64-.11.91l-4.97,2.87c-.46.27-1.17.3-1.57.07Z"/>
      <path class="cls-20" d="M201.07,204.78l-5.01-2.89c-.4-.23-.35-.64.11-.91l4.97-2.87c.46-.27,1.17-.3,1.57-.07l5.01,2.89c.4.23.35.64-.11.91l-4.97,2.87c-.46.27-1.17.3-1.57.07Z"/>
      <path class="cls-20" d="M208.81,209.25l-5.01-2.89c-.4-.23-.35-.64.11-.91l4.97-2.87c.46-.27,1.17-.3,1.57-.07l5.01,2.89c.4.23.35.64-.11.91l-4.97,2.87c-.46.27-1.17.3-1.57.07Z"/>
      <path class="cls-20" d="M216.56,213.72l-5.01-2.89c-.4-.23-.35-.64.11-.91l4.97-2.87c.46-.27,1.17-.3,1.57-.07l5.01,2.89c.4.23.35.64-.11.91l-4.97,2.87c-.46.27-1.17.3-1.57.07Z"/>
      <path class="cls-20" d="M224.3,218.19l-5.01-2.89c-.4-.23-.35-.64.11-.91l4.97-2.87c.46-.27,1.17-.3,1.57-.07l5.01,2.89c.4.23.35.64-.11.91l-4.97,2.87c-.46.27-1.17.3-1.57.07Z"/>
      <path class="cls-20" d="M118.09,182.98l-14.77-8.53c-.4-.23-.35-.64.11-.91l4.97-2.87c.46-.27,1.17-.3,1.57-.07l14.77,8.53c.4.23.35.64-.11.91l-4.97,2.87c-.46.27-1.17.3-1.57.07Z"/>
      <path class="cls-20" d="M213.21,237.9l-14.77-8.53c-.4-.23-.35-.64.11-.91l4.97-2.87c.46-.27,1.17-.3,1.57-.07l14.77,8.53c.4.23.35.64-.11.91l-4.97,2.87c-.46.27-1.17.3-1.57.07Z"/>
      <path class="cls-20" d="M182.25,229.9l-5.01-2.89c-.4-.23-.35-.64.11-.91l5.92-3.42c.46-.27,1.17-.3,1.57-.07l5.01,2.89c.4.23.35.64-.11.91l-5.92,3.42c-.46.27-1.17.3-1.57.07Z"/>
      <path class="cls-20" d="M126.02,197.43l-8.02-4.63c-.4-.23-.35-.64.11-.91l5.92-3.42c.46-.27,1.17-.3,1.57-.07l8.02,4.63c.4.23.35.64-.11.91l-5.92,3.42c-.46.27-1.17.3-1.57.07Z"/>
      <path class="cls-20" d="M174.79,225.59l-8.02-4.63c-.4-.23-.35-.64.11-.91l5.92-3.42c.46-.27,1.17-.3,1.57-.07l8.02,4.63c.4.23.35.64-.11.91l-5.92,3.42c-.46.27-1.17.3-1.57.07Z"/>
      <path class="cls-20" d="M137.19,203.88l-8.02-4.63c-.4-.23-.35-.64.11-.91l5.92-3.42c.46-.27,1.17-.3,1.57-.07l8.02,4.63c.4.23.35.64-.11.91l-5.92,3.42c-.46.27-1.17.3-1.57.07Z"/>
      <path class="cls-20" d="M136.83,194.9l34.86,20.13c.43.25.43.65,0,.9l-6.04,3.48c-.43.25-1.13.25-1.57,0l-34.86-20.13,7.6-4.39Z"/>
      <path class="cls-20" d="M203.89,238l5.59,3.22c.33.19.29.52-.09.74l-2.42,1.4c-.38.22-.96.24-1.29.05l-5.59-3.22c-.33-.19-.29-.52.09-.74l2.42-1.4c.38-.22.96-.24,1.29-.05Z"/>
      <path class="cls-20" d="M196.08,233.5l5.59,3.22c.33.19.29.52-.09.74l-2.42,1.4c-.38.22-.96.24-1.29.05l-5.59-3.22c-.33-.19-.29-.52.09-.74l2.42-1.4c.38-.22.96-.24,1.29-.05Z"/>
      <path class="cls-20" d="M188.34,229.03l5.59,3.22c.33.19.29.52-.09.74l-2.42,1.4c-.38.22-.96.24-1.29.05l-5.59-3.22c-.33-.19-.29-.52.09-.74l2.42-1.4c.38-.22.96-.24,1.29-.05Z"/>
      <path class="cls-20" d="M200.36,231.03l5.59,3.22c.33.19.29.52-.09.74l-2.42,1.4c-.38.22-.96.24-1.29.05l-5.59-3.22c-.33-.19-.29-.52.09-.74l2.42-1.4c.38-.22.96-.24,1.29-.05Z"/>
    </g>
  </g>
  <g>
    <g>
      <path class="cls-18" d="M190.1,93.99l-7.41-4.28c-.69-.4-1.09-1.38-.9-2.19h0c.19-.81.9-1.15,1.59-.76l7.41,4.28c.69.4,1.09,1.38.9,2.19h0c-.19.81-.9,1.15-1.59.76Z"/>
      <path class="cls-18" d="M207.75,104.18l-10.93-6.31c-.69-.4-1.09-1.38-.9-2.19h0c.19-.81.9-1.15,1.59-.76l10.93,6.31c.69.4,1.09,1.38.9,2.19h0c-.19.81-.9,1.15-1.59.76Z"/>
      <path class="cls-18" d="M177.18,128.58l-7.41-4.28c-.69-.4-1.09-1.38-.9-2.19h0c.19-.82.9-1.15,1.59-.76l7.41,4.28c.69.4,1.09,1.38.9,2.19h0c-.19.81-.9,1.15-1.59.76Z"/>
      <path class="cls-18" d="M192.92,137.66l-10.93-6.31c-.69-.4-1.09-1.38-.9-2.19h0c.19-.82.9-1.15,1.59-.76l10.93,6.31c.69.4,1.09,1.38.9,2.19h0c-.19.81-.9,1.15-1.59.76Z"/>
      <path class="cls-18" d="M168.24,88.38l-4.63-2.67c-.69-.4-1.09-1.38-.9-2.19h0c.19-.81.9-1.15,1.59-.76l4.63,2.67c.69.4,1.09,1.38.9,2.19h0c-.19.82-.9,1.15-1.59.76Z"/>
      <path class="cls-18" d="M182.51,103.62l-14.14-8.17c-.69-.4-1.09-1.38-.9-2.19h0c.19-.81.9-1.15,1.59-.76l14.14,8.17c.69.4,1.09,1.38.9,2.19h0c-.19.81-.9,1.15-1.59.76Z"/>
      <path class="cls-18" d="M170.14,110.5l-4.63-2.67c-.69-.4-1.09-1.38-.9-2.19h0c.19-.81.9-1.15,1.59-.76l4.63,2.67c.69.4,1.09,1.38.9,2.19h0c-.19.81-.9,1.15-1.59.76Z"/>
      <path class="cls-18" d="M195.3,153.05l-12.36-7.14c-.69-.4-1.09-1.38-.9-2.19h0c.19-.81.9-1.15,1.59-.76l12.36,7.14c.69.4,1.09,1.38.9,2.19h0c-.19.81-.9,1.15-1.59.76Z"/>
      <path class="cls-18" d="M165.62,121.91l-2.97-1.72c-.69-.4-1.09-1.38-.9-2.19h0c.19-.81.9-1.15,1.59-.76l2.97,1.72c.69.4,1.09,1.38.9,2.19h0c-.19.81-.9,1.15-1.59.76Z"/>
      <path class="cls-18" d="M163.49,134.69l-3.69-2.13c-.69-.4-1.09-1.38-.9-2.19h0c.19-.82.9-1.15,1.59-.76l3.69,2.13c.69.4,1.09,1.38.9,2.19h0c-.19.82-.9,1.15-1.59.76Z"/>
      <path class="cls-18" d="M177.84,142.98l-9.73-5.62c-.69-.4-1.09-1.38-.9-2.19h0c.19-.81.9-1.15,1.59-.76l9.73,5.62c.69.4,1.09,1.38.9,2.19h0c-.19.81-.9,1.15-1.59.76Z"/>
      <path class="cls-18" d="M165.37,142.78l-6.99-4.04c-.69-.4-1.09-1.38-.9-2.19h0c.19-.82.9-1.15,1.59-.76l6.99,4.04c.69.4,1.09,1.38.9,2.19h0c-.19.81-.9,1.15-1.59.76Z"/>
      <path class="cls-18" d="M205.9,159.21l-4.49-2.59c-.69-.4-1.09-1.38-.9-2.19h0c.19-.81.9-1.15,1.59-.76l4.49,2.59c.69.4,1.09,1.38.9,2.19h0c-.19.81-.9,1.15-1.59.76Z"/>
      <path class="cls-18" d="M187.36,120.44l-12.36-7.14c-.69-.4-1.09-1.38-.9-2.19h0c.19-.82.9-1.15,1.59-.76l12.36,7.14c.69.4,1.09,1.38.9,2.19h0c-.19.81-.9,1.15-1.59.76Z"/>
      <path class="cls-18" d="M188.48,114.08l-21.55-12.44c-.69-.4-1.09-1.38-.9-2.19h0c.19-.81.9-1.15,1.59-.76l21.55,12.44c.69.4,1.09,1.38.9,2.19h0c-.19.81-.9,1.15-1.59.76Z"/>
      <path class="cls-18" d="M176.44,121.15l-12.36-7.14c-.69-.4-1.09-1.38-.9-2.19h0c.19-.81.9-1.15,1.59-.76l12.36,7.14c.69.4,1.09,1.38.9,2.19h0c-.19.82-.9,1.15-1.59.76Z"/>
      <path class="cls-18" d="M196.73,125.85l-4.49-2.59c-.69-.4-1.09-1.38-.9-2.19h0c.19-.82.9-1.15,1.59-.76l4.49,2.59c.69.4,1.09,1.38.9,2.19h0c-.19.81-.9,1.15-1.59.76Z"/>
      <path class="cls-18" d="M241.07,123.42l-26.6-15.36c-.69-.4-1.09-1.38-.9-2.19h0c.19-.81.9-1.15,1.59-.76l26.6,15.36c.69.4,1.09,1.38.9,2.19h0c-.19.81-.9,1.15-1.59.76Z"/>
      <path class="cls-18" d="M176.09,134.96l-14.86-8.58c-.69-.4-1.09-1.38-.9-2.19h0c.19-.82.9-1.15,1.59-.76l14.86,8.58c.69.4,1.09,1.38.9,2.19h0c-.19.82-.9,1.15-1.59.76Z"/>
      <path class="cls-18" d="M175.96,85.83l-10.93-6.31c-.69-.4-1.09-1.38-.9-2.19h0c.19-.81.9-1.15,1.59-.76l10.93,6.31c.69.4,1.09,1.38.9,2.19h0c-.19.81-.9,1.15-1.59.76Z"/>
      <path class="cls-18" d="M163.42,148.66l-12.65-7.31c-.69-.4-1.09-1.38-.9-2.19h0c.19-.81.9-1.15,1.59-.76l12.65,7.31c.69.4,1.09,1.38.9,2.19h0c-.19.81-.9,1.15-1.59.76Z"/>
    </g>
    <g>
      <path class="cls-18" d="M249.06,175.33l-7.41-4.28c-.69-.4-1.09-1.38-.9-2.19h0c.19-.81.9-1.15,1.59-.76l7.41,4.28c.69.4,1.09,1.38.9,2.19h0c-.19.82-.9,1.15-1.59.76Z"/>
      <path class="cls-18" d="M254.38,150.38l-14.14-8.17c-.69-.4-1.09-1.38-.9-2.19h0c.19-.81.9-1.15,1.59-.76l14.14,8.17c.69.4,1.09,1.38.9,2.19h0c-.19.81-.9,1.15-1.59.76Z"/>
      <path class="cls-18" d="M242.01,157.25l-4.63-2.67c-.69-.4-1.09-1.38-.9-2.19h0c.19-.81.9-1.15,1.59-.76l4.63,2.67c.69.4,1.09,1.38.9,2.19h0c-.19.81-.9,1.15-1.59.76Z"/>
      <path class="cls-18" d="M237.5,168.66l-2.97-1.72c-.69-.4-1.09-1.38-.9-2.19h0c.19-.81.9-1.15,1.59-.76l2.97,1.72c.69.4,1.09,1.38.9,2.19h0c-.19.81-.9,1.15-1.59.76Z"/>
      <path class="cls-18" d="M259.23,167.19l-12.36-7.14c-.69-.4-1.09-1.38-.9-2.19h0c.19-.81.9-1.15,1.59-.76l12.36,7.14c.69.4,1.09,1.38.9,2.19h0c-.19.81-.9,1.15-1.59.76Z"/>
      <path class="cls-18" d="M260.36,160.84l-21.55-12.44c-.69-.4-1.09-1.38-.9-2.19h0c.19-.81.9-1.15,1.59-.76l21.55,12.44c.69.4,1.09,1.38.9,2.19h0c-.19.81-.9,1.15-1.59.76Z"/>
      <path class="cls-18" d="M248.32,167.9l-12.36-7.14c-.69-.4-1.09-1.38-.9-2.19h0c.19-.81.9-1.15,1.59-.76l12.36,7.14c.69.4,1.09,1.38.9,2.19h0c-.19.81-.9,1.15-1.59.76Z"/>
      <path class="cls-18" d="M247.96,181.71l-14.86-8.58c-.69-.4-1.09-1.38-.9-2.19h0c.19-.81.9-1.15,1.59-.76l14.86,8.58c.69.4,1.09,1.38.9,2.19h0c-.19.81-.9,1.15-1.59.76Z"/>
    </g>
  </g>
  <g>
    <polygon class="cls-16" points="276.26 99.61 287.94 94.97 285.32 77.79 279.65 82.81 276.26 99.61"/>
    <path class="cls-10" d="M198.11,19.52l28.21-11.27s-5.2,11.25-5.21,11.27c0,.02-15.06,3.49-15.06,3.49l-7.94-3.49Z"/>
    <path class="cls-16" d="M286.58,66.26c-1.49-.86-3.03-1.36-4.57-1.57,1.56-10.38-2.93-21.34-11.54-26.32-2.59-1.5-5.41-2.36-8.07-2.53,3.37-12.58-1.84-26.89-12.46-33.02-5.55-3.2-11.55-3.58-16.83-1.62h0s-.26.09-.26.09c-.14.05-.27.11-.41.16l-8.84,3.48,3.52,3.03c-4.78,1.51-8.91,5.37-11.1,11.09-4.03,10.54.1,23.35,9.22,28.62l54.21,45.69c6.85,3.96,11,2.3,14.03-5.61,3.02-7.91-.08-17.53-6.93-21.49Z"/>
    <path class="cls-10" d="M218.52,14.41l30.41-12.15c-5.25-2.68-10.84-2.91-15.8-1.06h0s-.26.09-.26.09c-.14.05-.27.11-.41.16l-8.84,3.48,3.52,3.03c-3.34,1.05-6.36,3.26-8.63,6.45Z"/>
    <path class="cls-10" d="M260.85,59.99l20.08-8.01c-1.86-5.74-5.51-10.75-10.57-13.68-.67-.39-1.35-.72-2.03-1.02l-27.66,11.05,20.18,11.66Z"/>
    <path class="cls-3" d="M229.79,6.2l8.62,4.98,14.95-5.95c-1.06-.9-2.2-1.71-3.41-2.4-1.91-1.1-3.88-1.86-5.85-2.32l-14.32,5.7Z"/>
    <path class="cls-3" d="M279.6,48.65l-14.45,5.75,4.26,5.99,12.4-4.93c-.45-2.37-1.19-4.67-2.21-6.81Z"/>
    <path class="cls-5" d="M276.92,70.06c-1.49-.86-3.03-1.36-4.57-1.57,1.56-10.38-3.04-21.41-11.65-26.38-2.59-1.5-5.29-2.3-7.95-2.47,3.37-12.58-1.84-26.89-12.46-33.02-11.42-6.6-24.76-1.25-29.8,11.95-.17.45-.33.9-.48,1.35-8.71-3.88-18.35.49-22.13,10.39-4.03,10.54.1,23.35,9.22,28.62l68.87,39.79c6.85,3.96,14.85.75,17.87-7.16s-.08-17.53-6.93-21.49Z"/>
    <path class="cls-6" d="M202.22,21.98c-1.28,0-2.51.24-3.63.73-2.73,1.19-5.1,3.96-6.49,7.59-3.54,9.26.24,20.99,8.26,25.62l68.87,39.79c2.16,1.25,4.4,1.57,6.14.87,1.74-.7,3.29-2.53,4.24-5.03,2.55-6.68-.18-15.15-5.96-18.49-1.06-.61-2.16-1-3.27-1.15l-2.8-.38.36-2.4c1.44-9.57-2.99-19.68-10.51-24.03-2.07-1.2-4.2-1.88-6.34-2.01l-3.47-.22.78-2.91c3.09-11.54-1.91-24.87-11.38-30.34-4.41-2.55-9.05-3.06-13.07-1.45-4.02,1.61-7.31,5.3-9.25,10.4-.15.4-.29.79-.42,1.19l-1.86,5.7-5.4-2.4c-1.62-.72-3.25-1.08-4.81-1.08Z"/>
    <g>
      <path class="cls-11" d="M237.19,58.43c-.42,1.1.01,2.44.96,2.99.95.55,2.06.1,2.48-1,.42-1.1-.01-2.44-.96-2.99s-2.06-.1-2.48,1Z"/>
      <path class="cls-11" d="M231.64,55.22c-.42,1.1.01,2.44.96,2.99s2.06.1,2.48-1-.01-2.44-.96-2.99c-.95-.55-2.06-.1-2.48,1Z"/>
      <path class="cls-11" d="M226.09,52.02c-.42,1.1.01,2.44.96,2.99.95.55,2.06.1,2.48-1,.42-1.1-.01-2.44-.96-2.99s-2.06-.1-2.48,1Z"/>
    </g>
  </g>
  <g>
    <path class="cls-13" d="M89.37,158.25l-24.52-14.16c-1.5-.87-1.32-2.39.42-3.39l23.67-13.67c1.74-1,4.37-1.11,5.87-.24l24.52,14.16c1.5.87,1.32,2.39-.42,3.39l-23.67,13.67c-1.74,1-4.37,1.11-5.87.24Z"/>
    <g>
      <path class="cls-19" d="M127.47,130.17h0v-10.59h-23.75s-8.21-4.75-8.21-4.75c-1.88-1.09-5.18-.95-7.35.3l-7.66,4.42h-23.77s0,10.88,0,10.88c-.05.74.36,1.45,1.26,1.97l30.7,17.73c1.88,1.09,5.18.95,7.35-.3l29.64-17.12c1.26-.72,1.86-1.66,1.79-2.54Z"/>
      <path class="cls-19" d="M92.1,114.1c-1.38.03-2.81.38-3.94,1.03l-7.66,4.42h-23.77s0,10.88,0,10.88c-.05.74.36,1.45,1.26,1.97l30.7,17.73c.91.52,2.14.76,3.41.73v-36.76Z"/>
      <path class="cls-8" d="M59.41,119.54h-2.69s0,10.89,0,10.89c-.05.74.36,1.45,1.26,1.97l1.43.82v-13.69Z"/>
      <path class="cls-8" d="M89.16,150.36c1.63.7,3.98.66,5.88-.07v-12.37h-5.88v12.44Z"/>
      <path class="cls-18" d="M88.68,139.27l-30.7-17.73c-1.88-1.09-1.65-2.99.53-4.24l29.64-17.12c2.18-1.26,5.47-1.39,7.35-.3l30.7,17.73c1.88,1.09,1.65,2.99-.53,4.24l-29.64,17.12c-2.18,1.26-5.47,1.39-7.35.3Z"/>
      <path class="cls-8" d="M89.24,136.08l-25.73-14.85c-1.58-.91-1.38-2.5.44-3.56l24.84-14.34c1.82-1.05,4.58-1.17,6.16-.26l25.73,14.85c1.58.91,1.38,2.5-.44,3.56l-24.84,14.34c-1.82,1.05-4.58,1.17-6.16.26Z"/>
      <g>
        <path class="cls-18" d="M116.18,132.97c0,.79-.56,1.75-1.24,2.15-.68.4-1.24.07-1.24-.72s.56-1.75,1.24-2.15c.68-.4,1.24-.07,1.24.72Z"/>
        <path class="cls-18" d="M120.17,130.66c0,.79-.56,1.75-1.24,2.15s-1.24.07-1.24-.72.56-1.75,1.24-2.15,1.24-.07,1.24.72Z"/>
        <path class="cls-18" d="M124.16,128.36c0,.79-.56,1.75-1.24,2.15-.68.4-1.24.07-1.24-.72s.56-1.75,1.24-2.15c.68-.4,1.24-.07,1.24.72Z"/>
      </g>
    </g>
    <g>
      <path class="cls-19" d="M127.47,113.24h0v-10.59h-23.75s-8.21-4.75-8.21-4.75c-1.88-1.09-5.18-.95-7.35.3l-7.66,4.42h-23.77s0,10.88,0,10.88c-.05.74.36,1.45,1.26,1.97l30.7,17.73c1.88,1.09,5.18.95,7.35-.3l29.64-17.12c1.26-.72,1.86-1.66,1.79-2.54Z"/>
      <path class="cls-19" d="M92.1,97.17c-1.38.03-2.81.38-3.94,1.03l-7.66,4.42h-23.77s0,10.88,0,10.88c-.05.74.36,1.45,1.26,1.97l30.7,17.73c.91.52,2.14.76,3.41.73v-36.76Z"/>
      <path class="cls-8" d="M59.41,102.61h-2.69s0,10.89,0,10.89c-.05.74.36,1.45,1.26,1.97l1.43.82v-13.69Z"/>
      <path class="cls-8" d="M89.16,133.43c1.63.7,3.98.66,5.88-.07v-12.37h-5.88v12.44Z"/>
      <path class="cls-18" d="M88.68,122.35l-30.7-17.73c-1.88-1.09-1.65-2.99.53-4.24l29.64-17.12c2.18-1.26,5.47-1.39,7.35-.3l30.7,17.73c1.88,1.09,1.65,2.99-.53,4.24l-29.64,17.12c-2.18,1.26-5.47,1.39-7.35.3Z"/>
      <path class="cls-8" d="M89.24,119.15l-25.73-14.85c-1.58-.91-1.38-2.5.44-3.56l24.84-14.34c1.82-1.05,4.58-1.17,6.16-.26l25.73,14.85c1.58.91,1.38,2.5-.44,3.56l-24.84,14.34c-1.82,1.05-4.58,1.17-6.16.26Z"/>
      <g>
        <path class="cls-18" d="M116.18,116.04c0,.79-.56,1.75-1.24,2.15-.68.4-1.24.07-1.24-.72s.56-1.75,1.24-2.15c.68-.4,1.24-.07,1.24.72Z"/>
        <path class="cls-18" d="M120.17,113.74c0,.79-.56,1.75-1.24,2.15s-1.24.07-1.24-.72.56-1.75,1.24-2.15,1.24-.07,1.24.72Z"/>
        <path class="cls-18" d="M124.16,111.43c0,.79-.56,1.75-1.24,2.15-.68.4-1.24.07-1.24-.72s.56-1.75,1.24-2.15c.68-.4,1.24-.07,1.24.72Z"/>
      </g>
    </g>
    <g>
      <path class="cls-19" d="M127.47,96.31h0v-10.59h-23.75s-8.21-4.75-8.21-4.75c-1.88-1.09-5.18-.95-7.35.3l-7.66,4.42h-23.77s0,10.88,0,10.88c-.05.74.36,1.45,1.26,1.97l30.7,17.73c1.88,1.09,5.18.95,7.35-.3l29.64-17.12c1.26-.72,1.86-1.66,1.79-2.54Z"/>
      <path class="cls-19" d="M92.1,80.24c-1.38.03-2.81.38-3.94,1.03l-7.66,4.42h-23.77s0,10.88,0,10.88c-.05.74.36,1.45,1.26,1.97l30.7,17.73c.91.52,2.14.76,3.41.73v-36.76Z"/>
      <path class="cls-8" d="M59.41,85.68h-2.69s0,10.89,0,10.89c-.05.74.36,1.45,1.26,1.97l1.43.82v-13.69Z"/>
      <path class="cls-8" d="M89.16,116.5c1.63.7,3.98.66,5.88-.07v-12.37h-5.88v12.44Z"/>
      <path class="cls-18" d="M88.68,105.42l-30.7-17.73c-1.88-1.09-1.65-2.99.53-4.24l29.64-17.12c2.18-1.26,5.47-1.39,7.35-.3l30.7,17.73c1.88,1.09,1.65,2.99-.53,4.24l-29.64,17.12c-2.18,1.26-5.47,1.39-7.35.3Z"/>
      <path class="cls-9" d="M125.68,85.91l-29.64,17.12c-2.18,1.26-5.47,1.39-7.35.3l-30.7-17.73c-.42-.24-.73-.53-.94-.83-.65,1.04-.35,2.17.94,2.92l30.7,17.73c1.88,1.09,5.18.95,7.35-.3l29.64-17.12c1.69-.98,2.2-2.34,1.47-3.41-.3.48-.79.93-1.47,1.33Z"/>
      <g>
        <path class="cls-18" d="M116.18,99.11c0,.79-.56,1.75-1.24,2.15-.68.4-1.24.07-1.24-.72s.56-1.75,1.24-2.15c.68-.4,1.24-.07,1.24.72Z"/>
        <path class="cls-18" d="M120.17,96.81c0,.79-.56,1.75-1.24,2.15-.68.4-1.24.07-1.24-.72s.56-1.75,1.24-2.15c.68-.4,1.24-.07,1.24.72Z"/>
        <path class="cls-18" d="M124.16,94.5c0,.79-.56,1.75-1.24,2.15-.68.4-1.24.07-1.24-.72s.56-1.75,1.24-2.15c.68-.4,1.24-.07,1.24.72Z"/>
      </g>
      <g>
        <path class="cls-8" d="M90.5,94.43l-14.37-8.29c-.88-.51-.77-1.4.25-1.99l13.87-8.01c1.02-.59,2.56-.65,3.44-.14l14.37,8.29c.88.51.77,1.4-.25,1.99l-13.87,8.01c-1.02.59-2.56.65-3.44.14Z"/>
        <path class="cls-18" d="M91.87,87.48l-1.99-1.15c-.12-.07-.11-.19.03-.27l1.92-1.11c.14-.08.35-.09.48-.02l1.99,1.15c.12.07.11.19-.03.27l-1.92,1.11c-.14.08-.35.09-.48.02Z"/>
        <path class="cls-19" d="M76.13,86.13l.04.02c.07-.05.13-.1.21-.14l13.87-8.01c1.02-.59,2.56-.65,3.44-.14l14.33,8.27c.81-.58.86-1.37.04-1.84l-14.37-8.29c-.88-.51-2.42-.45-3.44.14l-13.87,8.01c-1.02.59-1.13,1.48-.25,1.99Z"/>
      </g>
    </g>
  </g>
  <g>
    <path class="cls-13" d="M271.81,281.01l-24.52-14.16c-1.5-.87-1.32-2.39.42-3.39l23.67-13.67c1.74-1,4.37-1.11,5.87-.24l24.52,14.16c1.5.87,1.32,2.39-.42,3.39l-23.67,13.67c-1.74,1-4.37,1.11-5.87.24Z"/>
    <g>
      <path class="cls-15" d="M309.91,252.93h0v-10.59h-23.75s-8.21-4.75-8.21-4.75c-1.88-1.09-5.18-.95-7.35.3l-7.66,4.42h-23.77s0,10.88,0,10.88c-.05.74.36,1.45,1.26,1.97l30.7,17.73c1.88,1.09,5.18.95,7.35-.3l29.64-17.12c1.26-.72,1.86-1.66,1.79-2.54Z"/>
      <path class="cls-16" d="M274.54,236.86c-1.38.03-2.81.38-3.94,1.03l-7.66,4.42h-23.77s0,10.88,0,10.88c-.05.74.36,1.45,1.26,1.97l30.7,17.73c.91.52,2.14.76,3.41.73v-36.76Z"/>
      <path class="cls-10" d="M241.85,242.3h-2.69s0,10.89,0,10.89c-.05.74.36,1.45,1.26,1.97l1.43.82v-13.69Z"/>
      <path class="cls-1" d="M271.6,273.12c1.63.7,3.98.66,5.88-.07v-12.37h-5.88v12.44Z"/>
      <path class="cls-5" d="M271.12,262.03l-30.7-17.73c-1.88-1.09-1.65-2.99.53-4.24l29.64-17.12c2.18-1.26,5.47-1.39,7.35-.3l30.7,17.73c1.88,1.09,1.65,2.99-.53,4.24l-29.64,17.12c-2.18,1.26-5.47,1.39-7.35.3Z"/>
      <path class="cls-6" d="M271.68,258.84l-25.73-14.85c-1.58-.91-1.38-2.5.44-3.56l24.84-14.34c1.82-1.05,4.58-1.17,6.16-.26l25.73,14.85c1.58.91,1.38,2.5-.44,3.56l-24.84,14.34c-1.82,1.05-4.58,1.17-6.16.26Z"/>
      <g>
        <path class="cls-11" d="M298.62,255.73c0,.79-.56,1.75-1.24,2.15-.68.4-1.24.07-1.24-.72s.56-1.75,1.24-2.15c.68-.4,1.24-.07,1.24.72Z"/>
        <path class="cls-11" d="M302.61,253.42c0,.79-.56,1.75-1.24,2.15-.68.4-1.24.07-1.24-.72s.56-1.75,1.24-2.15c.68-.4,1.24-.07,1.24.72Z"/>
        <path class="cls-11" d="M306.6,251.12c0,.79-.56,1.75-1.24,2.15-.68.4-1.24.07-1.24-.72s.56-1.75,1.24-2.15c.68-.4,1.24-.07,1.24.72Z"/>
      </g>
    </g>
    <g>
      <path class="cls-15" d="M309.91,235.75h0v-10.59h-23.75s-8.21-4.75-8.21-4.75c-1.88-1.09-5.18-.95-7.35.3l-7.66,4.42h-23.77s0,10.88,0,10.88c-.05.74.36,1.45,1.26,1.97l30.7,17.73c1.88,1.09,5.18.95,7.35-.3l29.64-17.12c1.26-.72,1.86-1.66,1.79-2.54Z"/>
      <path class="cls-16" d="M274.54,219.68c-1.38.03-2.81.38-3.94,1.03l-7.66,4.42h-23.77s0,10.88,0,10.88c-.05.74.36,1.45,1.26,1.97l30.7,17.73c.91.52,2.14.76,3.41.73v-36.76Z"/>
      <path class="cls-10" d="M241.85,225.12h-2.69s0,10.89,0,10.89c-.05.74.36,1.45,1.26,1.97l1.43.82v-13.69Z"/>
      <path class="cls-1" d="M271.6,255.94c1.63.7,3.98.66,5.88-.07v-12.37h-5.88v12.44Z"/>
      <path class="cls-5" d="M271.12,244.85l-30.7-17.73c-1.88-1.09-1.65-2.99.53-4.24l29.64-17.12c2.18-1.26,5.47-1.39,7.35-.3l30.7,17.73c1.88,1.09,1.65,2.99-.53,4.24l-29.64,17.12c-2.18,1.26-5.47,1.39-7.35.3Z"/>
      <path class="cls-6" d="M271.68,241.66l-25.73-14.85c-1.58-.91-1.38-2.5.44-3.56l24.84-14.34c1.82-1.05,4.58-1.17,6.16-.26l25.73,14.85c1.58.91,1.38,2.5-.44,3.56l-24.84,14.34c-1.82,1.05-4.58,1.17-6.16.26Z"/>
      <g>
        <path class="cls-11" d="M298.62,238.55c0,.79-.56,1.75-1.24,2.15-.68.4-1.24.07-1.24-.72s.56-1.75,1.24-2.15c.68-.4,1.24-.07,1.24.72Z"/>
        <path class="cls-11" d="M302.61,236.24c0,.79-.56,1.75-1.24,2.15-.68.4-1.24.07-1.24-.72s.56-1.75,1.24-2.15c.68-.4,1.24-.07,1.24.72Z"/>
        <path class="cls-11" d="M306.6,233.94c0,.79-.56,1.75-1.24,2.15-.68.4-1.24.07-1.24-.72s.56-1.75,1.24-2.15c.68-.4,1.24-.07,1.24.72Z"/>
      </g>
    </g>
    <g>
      <path class="cls-15" d="M309.91,218.57h0v-10.59h-23.75s-8.21-4.75-8.21-4.75c-1.88-1.09-5.18-.95-7.35.3l-7.66,4.42h-23.77s0,10.88,0,10.88c-.05.74.36,1.45,1.26,1.97l30.7,17.73c1.88,1.09,5.18.95,7.35-.3l29.64-17.12c1.26-.72,1.86-1.66,1.79-2.54Z"/>
      <path class="cls-16" d="M274.54,202.5c-1.38.03-2.81.38-3.94,1.03l-7.66,4.42h-23.77s0,10.88,0,10.88c-.05.74.36,1.45,1.26,1.97l30.7,17.73c.91.52,2.14.76,3.41.73v-36.76Z"/>
      <path class="cls-10" d="M241.85,207.94h-2.69s0,10.89,0,10.89c-.05.74.36,1.45,1.26,1.97l1.43.82v-13.69Z"/>
      <path class="cls-1" d="M271.6,238.76c1.63.7,3.98.66,5.88-.07v-12.37h-5.88v12.44Z"/>
      <path class="cls-5" d="M271.12,227.67l-30.7-17.73c-1.88-1.09-1.65-2.99.53-4.24l29.64-17.12c2.18-1.26,5.47-1.39,7.35-.3l30.7,17.73c1.88,1.09,1.65,2.99-.53,4.24l-29.64,17.12c-2.18,1.26-5.47,1.39-7.35.3Z"/>
      <path class="cls-10" d="M308.12,208.17l-29.64,17.12c-2.18,1.26-5.47,1.39-7.35.3l-30.7-17.73c-.42-.24-.73-.53-.94-.83-.65,1.04-.35,2.17.94,2.92l30.7,17.73c1.88,1.09,5.18.95,7.35-.3l29.64-17.12c1.69-.98,2.2-2.34,1.47-3.41-.3.48-.79.93-1.47,1.33Z"/>
      <g>
        <path class="cls-11" d="M298.62,221.37c0,.79-.56,1.75-1.24,2.15-.68.4-1.24.07-1.24-.72s.56-1.75,1.24-2.15c.68-.4,1.24-.07,1.24.72Z"/>
        <path class="cls-11" d="M302.61,219.06c0,.79-.56,1.75-1.24,2.15-.68.4-1.24.07-1.24-.72s.56-1.75,1.24-2.15c.68-.4,1.24-.07,1.24.72Z"/>
        <path class="cls-11" d="M306.6,216.76c0,.79-.56,1.75-1.24,2.15-.68.4-1.24.07-1.24-.72s.56-1.75,1.24-2.15c.68-.4,1.24-.07,1.24.72Z"/>
      </g>
      <g>
        <path class="cls-6" d="M272.94,217.15l-14.37-8.29c-.88-.51-.77-1.4.25-1.99l13.87-8.01c1.02-.59,2.56-.65,3.44-.14l14.37,8.29c.88.51.77,1.4-.25,1.99l-13.87,8.01c-1.02.59-2.56.65-3.44.14Z"/>
        <path class="cls-11" d="M274.31,210.21l-1.99-1.15c-.12-.07-.11-.19.03-.27l1.92-1.11c.14-.08.35-.09.48-.02l1.99,1.15c.12.07.11.19-.03.27l-1.92,1.11c-.14.08-.35.09-.48.02Z"/>
        <path class="cls-10" d="M258.57,208.86l.04.02c.07-.05.13-.1.21-.14l13.87-8.01c1.02-.59,2.56-.65,3.44-.14l14.33,8.27c.81-.58.86-1.37.04-1.84l-14.37-8.29c-.88-.51-2.42-.45-3.44.14l-13.87,8.01c-1.02.59-1.13,1.48-.25,1.99Z"/>
      </g>
    </g>
    <path class="cls-6" d="M261.95,247.09l-12.43-7.18c-.77-.44-1.39-1.63-1.39-2.65h0c0-1.02.62-1.49,1.39-1.05l12.43,7.18c.77.44,1.39,1.63,1.39,2.65h0c0,1.02-.62,1.49-1.39,1.05Z"/>
    <path class="cls-10" d="M263.06,246.41l-12.43-7.18c-.77-.44-1.39-1.63-1.39-2.65,0-.17.02-.32.06-.46-.66-.24-1.17.22-1.17,1.15,0,1.02.62,2.21,1.39,2.65l12.43,7.18c.64.37,1.17.1,1.33-.59-.07-.03-.14-.05-.22-.1Z"/>
  </g>
  <g>
    <path class="cls-13" d="M217.41,311.72l-24.52-14.16c-1.5-.87-1.32-2.39.42-3.39l23.67-13.67c1.74-1,4.37-1.11,5.87-.24l24.52,14.16c1.5.87,1.32,2.39-.42,3.39l-23.67,13.67c-1.74,1-4.37,1.11-5.87.24Z"/>
    <g>
      <path class="cls-15" d="M255.51,283.64h0v-10.59h-23.75s-8.21-4.75-8.21-4.75c-1.88-1.09-5.18-.95-7.35.3l-7.66,4.42h-23.77s0,10.88,0,10.88c-.05.74.36,1.45,1.26,1.97l30.7,17.73c1.88,1.09,5.18.95,7.35-.3l29.64-17.12c1.26-.72,1.86-1.66,1.79-2.54Z"/>
      <path class="cls-16" d="M220.14,267.57c-1.38.03-2.81.38-3.94,1.03l-7.66,4.42h-23.77s0,10.88,0,10.88c-.05.74.36,1.45,1.26,1.97l30.7,17.73c.91.52,2.14.76,3.41.73v-36.76Z"/>
      <path class="cls-10" d="M187.45,273.01h-2.69s0,10.89,0,10.89c-.05.74.36,1.45,1.26,1.97l1.43.82v-13.69Z"/>
      <path class="cls-1" d="M217.2,303.83c1.63.7,3.98.66,5.88-.07v-12.37h-5.88v12.44Z"/>
      <path class="cls-5" d="M216.73,292.74l-30.7-17.73c-1.88-1.09-1.65-2.99.53-4.24l29.64-17.12c2.18-1.26,5.47-1.39,7.35-.3l30.7,17.73c1.88,1.09,1.65,2.99-.53,4.24l-29.64,17.12c-2.18,1.26-5.47,1.39-7.35.3Z"/>
      <path class="cls-6" d="M217.28,289.55l-25.73-14.85c-1.58-.91-1.38-2.5.44-3.56l24.84-14.34c1.82-1.05,4.58-1.17,6.16-.26l25.73,14.85c1.58.91,1.38,2.5-.44,3.56l-24.84,14.34c-1.82,1.05-4.58,1.17-6.16.26Z"/>
      <g>
        <path class="cls-11" d="M244.22,286.44c0,.79-.56,1.75-1.24,2.15s-1.24.07-1.24-.72.56-1.75,1.24-2.15,1.24-.07,1.24.72Z"/>
        <path class="cls-11" d="M248.21,284.13c0,.79-.56,1.75-1.24,2.15-.68.4-1.24.07-1.24-.72s.56-1.75,1.24-2.15c.68-.4,1.24-.07,1.24.72Z"/>
        <path class="cls-11" d="M252.2,281.83c0,.79-.56,1.75-1.24,2.15-.68.4-1.24.07-1.24-.72s.56-1.75,1.24-2.15c.68-.4,1.24-.07,1.24.72Z"/>
      </g>
    </g>
    <g>
      <path class="cls-15" d="M255.51,266.46h0v-10.59h-23.75s-8.21-4.75-8.21-4.75c-1.88-1.09-5.18-.95-7.35.3l-7.66,4.42h-23.77s0,10.88,0,10.88c-.05.74.36,1.45,1.26,1.97l30.7,17.73c1.88,1.09,5.18.95,7.35-.3l29.64-17.12c1.26-.72,1.86-1.66,1.79-2.54Z"/>
      <path class="cls-16" d="M220.14,250.39c-1.38.03-2.81.38-3.94,1.03l-7.66,4.42h-23.77s0,10.88,0,10.88c-.05.74.36,1.45,1.26,1.97l30.7,17.73c.91.52,2.14.76,3.41.73v-36.76Z"/>
      <path class="cls-10" d="M187.45,255.83h-2.69s0,10.89,0,10.89c-.05.74.36,1.45,1.26,1.97l1.43.82v-13.69Z"/>
      <path class="cls-1" d="M217.2,286.65c1.63.7,3.98.66,5.88-.07v-12.37h-5.88v12.44Z"/>
      <path class="cls-5" d="M216.73,275.56l-30.7-17.73c-1.88-1.09-1.65-2.99.53-4.24l29.64-17.12c2.18-1.26,5.47-1.39,7.35-.3l30.7,17.73c1.88,1.09,1.65,2.99-.53,4.24l-29.64,17.12c-2.18,1.26-5.47,1.39-7.35.3Z"/>
      <path class="cls-6" d="M217.28,272.37l-25.73-14.85c-1.58-.91-1.38-2.5.44-3.56l24.84-14.34c1.82-1.05,4.58-1.17,6.16-.26l25.73,14.85c1.58.91,1.38,2.5-.44,3.56l-24.84,14.34c-1.82,1.05-4.58,1.17-6.16.26Z"/>
      <g>
        <path class="cls-11" d="M244.22,269.26c0,.79-.56,1.75-1.24,2.15s-1.24.07-1.24-.72.56-1.75,1.24-2.15,1.24-.07,1.24.72Z"/>
        <path class="cls-11" d="M248.21,266.95c0,.79-.56,1.75-1.24,2.15-.68.4-1.24.07-1.24-.72s.56-1.75,1.24-2.15c.68-.4,1.24-.07,1.24.72Z"/>
        <path class="cls-11" d="M252.2,264.65c0,.79-.56,1.75-1.24,2.15-.68.4-1.24.07-1.24-.72s.56-1.75,1.24-2.15c.68-.4,1.24-.07,1.24.72Z"/>
      </g>
    </g>
    <g>
      <path class="cls-15" d="M255.51,249.28h0v-10.59h-23.75s-8.21-4.75-8.21-4.75c-1.88-1.09-5.18-.95-7.35.3l-7.66,4.42h-23.77s0,10.88,0,10.88c-.05.74.36,1.45,1.26,1.97l30.7,17.73c1.88,1.09,5.18.95,7.35-.3l29.64-17.12c1.26-.72,1.86-1.66,1.79-2.54Z"/>
      <path class="cls-16" d="M220.14,233.21c-1.38.03-2.81.38-3.94,1.03l-7.66,4.42h-23.77s0,10.88,0,10.88c-.05.74.36,1.45,1.26,1.97l30.7,17.73c.91.52,2.14.76,3.41.73v-36.76Z"/>
      <path class="cls-10" d="M187.45,238.65h-2.69s0,10.89,0,10.89c-.05.74.36,1.45,1.26,1.97l1.43.82v-13.69Z"/>
      <path class="cls-1" d="M217.2,269.47c1.63.7,3.98.66,5.88-.07v-12.37h-5.88v12.44Z"/>
      <path class="cls-5" d="M216.73,258.38l-30.7-17.73c-1.88-1.09-1.65-2.99.53-4.24l29.64-17.12c2.18-1.26,5.47-1.39,7.35-.3l30.7,17.73c1.88,1.09,1.65,2.99-.53,4.24l-29.64,17.12c-2.18,1.26-5.47,1.39-7.35.3Z"/>
      <path class="cls-10" d="M253.72,238.88l-29.64,17.12c-2.18,1.26-5.47,1.39-7.35.3l-30.7-17.73c-.42-.24-.73-.53-.94-.83-.65,1.04-.35,2.17.94,2.92l30.7,17.73c1.88,1.09,5.18.95,7.35-.3l29.64-17.12c1.69-.98,2.2-2.34,1.47-3.41-.3.48-.79.93-1.47,1.33Z"/>
      <g>
        <path class="cls-11" d="M244.22,252.08c0,.79-.56,1.75-1.24,2.15s-1.24.07-1.24-.72.56-1.75,1.24-2.15,1.24-.07,1.24.72Z"/>
        <path class="cls-11" d="M248.21,249.77c0,.79-.56,1.75-1.24,2.15-.68.4-1.24.07-1.24-.72s.56-1.75,1.24-2.15c.68-.4,1.24-.07,1.24.72Z"/>
        <path class="cls-11" d="M252.2,247.47c0,.79-.56,1.75-1.24,2.15-.68.4-1.24.07-1.24-.72s.56-1.75,1.24-2.15c.68-.4,1.24-.07,1.24.72Z"/>
      </g>
      <path class="cls-11" d="M219.92,240.92l-1.99-1.15c-.12-.07-.11-.19.03-.27l1.92-1.11c.14-.08.35-.09.48-.02l1.99,1.15c.12.07.11.19-.03.27l-1.92,1.11c-.14.08-.35.09-.48.02Z"/>
    </g>
    <path class="cls-6" d="M207.55,277.8l-12.43-7.18c-.77-.44-1.39-1.63-1.39-2.65h0c0-1.02.62-1.49,1.39-1.05l12.43,7.18c.77.44,1.39,1.63,1.39,2.65h0c0,1.02-.62,1.49-1.39,1.05Z"/>
    <path class="cls-10" d="M208.66,277.12l-12.43-7.18c-.77-.44-1.39-1.63-1.39-2.65,0-.17.02-.32.06-.46-.66-.24-1.17.22-1.17,1.15,0,1.02.62,2.21,1.39,2.65l12.43,7.18c.64.37,1.17.1,1.33-.59-.07-.03-.14-.05-.22-.1Z"/>
  </g>
  <g>
    <g>
      <path class="cls-20" d="M206.35,284.89s-3.03-1.53-4.89.75c-1.86,2.28-4.52,7.65-4.61,11.28-.08,3.63,2.87,3.39,4.63,2.53s6.89-8.31,7.2-9.77c.31-1.46-.37-3.43-.86-3.82-.49-.39-1.47-.97-1.47-.97Z"/>
      <path class="cls-2" d="M207.01,284.16l.14,3.14c.03.67-.31,1.3-.89,1.63-.53.3-1.3.53-2.34.36-2.28-.37-2.49-1.02-2.65-4.16-.16-3.14,5.74-.98,5.74-.98Z"/>
      <g>
        <path class="cls-20" d="M195.25,278.85s-3.03-1.53-4.89.75c-1.86,2.28-4.52,7.65-4.61,11.28-.08,3.63,2.87,3.39,4.63,2.53,1.76-.86,6.89-8.31,7.2-9.77.31-1.46-.37-3.43-.86-3.82-.49-.39-1.47-.97-1.47-.97Z"/>
        <path class="cls-2" d="M195.92,278.12l.14,3.14c.03.67-.31,1.3-.89,1.63-.53.3-1.3.53-2.34.36-2.28-.37-2.49-1.02-2.65-4.16-.16-3.14,5.74-.98,5.74-.98Z"/>
        <path class="cls-14" d="M222.97,220.45c-.9-14.6-15.81,2.15-15.81,2.15l-10.21,10.01-9.19,10.1c-1.8,1.97-2.63,4.64-2.28,7.28l3.72,28.32c.18,1.4,1.38,2.43,2.79,2.42.4,0,.85-.04,1.38-.12,3.32-.52,3.07-3.67,3.07-3.67l-.68-26.48,19.31-11.64s8.81-3.75,7.91-18.35Z"/>
      </g>
      <path class="cls-14" d="M234.07,226.01c-.9-14.6-15.81,2.15-15.81,2.15l-10.21,10.01-9.19,10.1c-1.8,1.97-2.63,4.64-2.28,7.28l3.72,28.32c.18,1.4,1.38,2.43,2.79,2.42.4,0,.85-.04,1.38-.12,3.32-.52,3.07-3.67,3.07-3.67l-.68-26.48,19.31-11.64s8.81-3.75,7.91-18.35Z"/>
      <path class="cls-16" d="M225.24,179.14c11.31,4.69,11.08,11.37,11.08,11.37,0,0-2.21,24.51-1.46,40.87.32,6.84-36.35,7.36-30.88-10.89,6.45-21.52,4.03-38.94,7.05-41.57s11.29-1,14.21.22Z"/>
      <path class="cls-7" d="M228.88,185.06c-.59,2.3-3.6,3.51-6.72,2.7-3.12-.8-5.17-3.32-4.58-5.61.59-2.3,3.6-3.51,6.72-2.7,3.12.8,5.17,3.32,4.58,5.61Z"/>
      <path class="cls-9" d="M224.09,188.56c-.68,0-1.37-.09-2.06-.27-3.4-.88-5.63-3.69-4.97-6.27.67-2.58,3.97-3.97,7.38-3.09,1.62.42,3.03,1.28,3.96,2.43.98,1.2,1.33,2.56,1,3.84-.33,1.28-1.3,2.3-2.73,2.88-.79.32-1.67.48-2.58.48ZM222.37,179.74c-2.1,0-3.86.98-4.26,2.55-.52,2,1.36,4.23,4.19,4.95,1.4.36,2.81.3,3.97-.17,1.11-.44,1.85-1.21,2.09-2.15h0c.24-.94-.04-1.97-.79-2.89-.79-.97-2-1.71-3.4-2.06-.61-.16-1.22-.23-1.8-.23Z"/>
      <path class="cls-7" d="M220.71,178.63s.1.45-.1,4.04c-.06,1.13,3.88,2.18,4.9,1.16,1.02-1.02.61-2.08.86-5.91.24-3.83-5.66.72-5.66.72Z"/>
      <path class="cls-4" d="M226.37,177.91s-.97,3.55-5.76,4.92l.07-3.23,5.69-1.69Z"/>
      <path class="cls-7" d="M229.4,168.88c1.2,4.65-1.59,9.4-6.25,10.61-4.65,1.2-9.4-1.59-10.61-6.25-1.2-4.65,1.59-9.4,6.25-10.61,4.65-1.2,9.4,1.59,10.61,6.25Z"/>
      <path class="cls-4" d="M222.98,171.38s-4.79,2.05-8.11,2.08c-3.32.02-2.59-2.76-2.59-2.76l9.85-1.42.85,2.1Z"/>
      <path class="cls-11" d="M213.88,171.92s4.17-1.77,7.84-1.03c.86.17,1.66.63,2.21,1.32.18.22.41.43.67.48.65.15,1.71-2.55,2.97-2.61,1.26-.06,2.1.83,1.07,2.49-1.03,1.66-.69,3.51-.21,3.78s5.53-3.6,1.07-12.43c-4.46-8.83-15.77-4.07-17.53-2.28,0,0-1.85,1.62-3.36.18,0,0-1.69,12.66,5.27,10.11Z"/>
      <path class="cls-7" d="M229.98,208.41v6.62c0,.76-.32,1.48-.88,1.99l-13.6,12.4,1.55,2.36,17.96-13.03c.84-.61,1.38-1.54,1.49-2.57l1.21-11.55-7.73,3.77Z"/>
      <path class="cls-16" d="M235.37,187.2s4.13,6.21,5.66,22.54c0,0-7.05,2.28-11.05.99s5.39-23.53,5.39-23.53Z"/>
      <path class="cls-6" d="M229.23,195.05s-1.62,8.65-1.71,12.71c-.03,1.12.66,2.13,1.71,2.51h0v-15.22Z"/>
    </g>
    <g>
      <path class="cls-20" d="M225.7,238.04l-3.01-.4-19.41-11.2c-.62-.36-1.71-.31-2.43.1l-13.75,7.94-1.82-.24v1.81h0c-.01.24.12.47.42.64l21.99,12.7c.62.36,1.71.31,2.43-.1l14.98-8.64c.4-.23.61-.53.59-.82h0v-1.78Z"/>
      <path class="cls-19" d="M211.12,230.96l-1.38-.8h-15.16l-7.47,4.31-1.82-.24v1.81h0c-.01.24.12.47.42.64l21.99,12.7c.33.19.79.27,1.25.23l2.16-18.66Z"/>
      <path class="cls-8" d="M186.09,234.34l-.81-.11v1.81h0c-.01.24.12.47.42.64l.39.22v-2.56Z"/>
      <path class="cls-12" d="M207.92,249.49c.59.22,1.43.17,2.06-.13v-3.08h-2.06v3.21Z"/>
      <path class="cls-9" d="M207.7,247.57l-21.99-12.7c-.62-.36-.54-.99.17-1.4l14.98-8.64c.72-.41,1.81-.46,2.43-.1l21.99,12.7c.62.36.54.99-.17,1.4l-14.98,8.64c-.72.41-1.81.46-2.43.1Z"/>
      <path class="cls-18" d="M207.33,245.65l-18.29-10.56c-.52-.3-.45-.82.14-1.17l8.03-4.51c.6-.34,1.5-.38,2.02-.08l18.29,10.56c.52.3.45.82-.14,1.17l-8.03,4.51c-.6.34-1.5.38-2.02.08Z"/>
    </g>
    <path class="cls-7" d="M201.71,224.41l-.23,1.52c-.19,1.29-.16,2.61.1,3.89l.27,1.34c.15.75.75,1.34,1.51,1.48h0c.59.11,1.15-.31,1.22-.91l.36-3.24s.83,1.09,1.23,1.09-.45-3.25-1.35-5.09-3.1-.07-3.1-.07Z"/>
    <path class="cls-7" d="M209.16,200.29l-2.36,4.67c-.56,1.1-.89,2.31-.97,3.55l-1.02,15.98-3.1-.07-1.41-17.94c-.04-.55-.02-1.11.08-1.66l1.61-9.1,7.17,4.58Z"/>
    <g>
      <path class="cls-20" d="M206.96,248.79l-1.84-2.41-19.39-11.23c-.62-.36-1.12-1.32-1.12-2.15l.02-15.88-1.12-1.46,1.05-.61h0c.2-.13.47-.12.76.05l21.98,12.73c.62.36,1.12,1.32,1.12,2.15l-.02,17.29c0,.47-.16.79-.41.92h0l-1.02.59Z"/>
      <path class="cls-19" d="M193.54,239.69l-1.38-.8-7.56-13.14v-8.63s-1.11-1.46-1.11-1.46l1.05-.61h0c.2-.13.47-.12.76.05l21.98,12.73c.33.19.62.55.83.97l-14.57,10.89Z"/>
      <path class="cls-8" d="M183.99,216.32l-.49-.65,1.05-.61h0c.2-.13.47-.12.76.05l.39.22-1.7.98Z"/>
      <path class="cls-12" d="M207.48,227.97c.49.4.87,1.15.92,1.85l-2.15,1.24-1.03-1.79,2.26-1.3Z"/>
      <path class="cls-9" d="M206.24,228.44l-21.98-12.73c-.62-.36-1.13.02-1.13.85l-.02,17.29c0,.83.5,1.79,1.12,2.15l21.98,12.73c.62.36,1.13-.02,1.13-.85l.02-17.29c0-.83-.5-1.79-1.12-2.15Z"/>
    </g>
    <path class="cls-7" d="M217.04,231.79l-.35.73c-.41.84-1.04,1.55-1.84,2.04l-2.18,1.35c-.68.42-1.54.45-2.23.05-.02-.01-.05-.03-.07-.04-.69-.43-.76-1.43-.19-2.02l2.28-2.35s-1.28.98-1.64.59c-.26-.29,1.24-1.7,2.4-1.75,1.16-.05,2.28-.95,2.28-.95l1.55,2.36Z"/>
    <path class="cls-16" d="M211.26,178.89s-8.36,9.1-11.74,17.45c0,0,2.86,5.15,9.86,7.17,7,2.02,1.88-24.62,1.88-24.62Z"/>
    <path class="cls-6" d="M207.81,202.97l1.36-13.1-3.19,12.27c.57.3,1.19.57,1.84.83Z"/>
    <path class="cls-9" d="M217.52,177.05l-2.25-.62s1.07,1.69,2.64,2.12c1.57.43,1.81-.9,1.81-.9l-2.2-.61Z"/>
  </g>
  <g>
    <path class="cls-13" d="M39.3,251.59c-6.04,3.48-15.82,3.48-21.86,0-6.04-3.48-6.04-9.13,0-12.62,6.04-3.48,15.82-3.48,21.86,0,6.04,3.48,6.04,9.13,0,12.62Z"/>
    <path class="cls-13" d="M130.51,303.42c-6.04,3.48-15.82,3.48-21.86,0-6.04-3.48-6.04-9.13,0-12.62,6.04-3.48,15.82-3.48,21.86,0,6.04,3.48,6.04,9.13,0,12.62Z"/>
    <g>
      <path class="cls-6" d="M18.61,124.44s.44,9.16,1.14,15.31c.7,6.15,15.52-4.73,15.52-4.73v-7.01l-16.66-3.58Z"/>
      <g>
        <path class="cls-20" d="M26.5,238.36c.22.56,4.06,5.23,7.9,6.4,1.67.51,2.79.57,3.53.49.74-.09,1.19-.85.95-1.55-.66-1.86-2.55-5.73-7.37-8.12-6.51-3.23-5.01,2.78-5.01,2.78Z"/>
        <path class="cls-20" d="M25.22,240.15s1.45,3.39,1.89,6.23c.27,1.73-.68,3.98-1.46,5.47-.49.93-1.72,1.13-2.49.43-1.25-1.14-2.85-3.12-3.12-5.96-.45-4.79,0-5.62,0-5.62l5.18-.56Z"/>
        <path class="cls-14" d="M15.97,182.31s-.5,6.04,0,12.71c.5,6.68,2.29,37.91,2.63,45.42,0,0-.17,2.27,4.24,1.77,4.4-.5,4.05-3.03,4.05-3.03,0,0,6.18-.08,6.38-3.73.19-3.64,6.33-43.52,6.33-57.86l-23.62,4.71Z"/>
        <g>
          <polygon class="cls-7" points="37.46 151.15 41.03 172.96 44.28 172.91 43.98 152.92 37.46 151.15"/>
          <path class="cls-5" d="M35.97,131.84s4.81-.12,6.49,6.83c1.68,6.96,2.99,15.66,1.53,16.39-4.37,2.17-7.14-.37-7.14-.37l-.87-22.85Z"/>
          <path class="cls-16" d="M37.41,132.13c-.82-.34-1.74-.39-2.6-.14-4.1,1.18-19.52,5.7-22.06,7.87-2.94,2.51,4.4,16.61,4.3,21.23-.11,4.62-.63,10.07-1.04,15.1-.41,5.03-.96,7.78,3.15,9.92,4.11,2.14,11.13,2.24,16.38-1.77,5.25-4,4.3-6.74,4.08-9.65s-2.01-15.47-1.85-19.04c0,0,1.85-1.36,3.22-3.7s-1.05-6.64-2.06-9.43.57-5.99.26-8.27c-.16-1.17-.91-1.75-1.79-2.12Z"/>
          <path class="cls-9" d="M32.48,136.94c.33,2.54-2,4.93-5.2,5.34-3.2.41-6.06-1.32-6.38-3.86-.33-2.54,2-4.93,5.2-5.34,3.2-.41,6.06,1.32,6.38,3.86Z"/>
          <path class="cls-7" d="M30.83,137.15c.23,1.81-1.43,3.52-3.72,3.82-2.29.29-4.33-.94-4.56-2.76-.23-1.82,1.43-3.52,3.72-3.82,2.29-.29,4.33.94,4.56,2.76Z"/>
          <path class="cls-7" d="M28.56,131.19s-2.78-2.29-3.33-1.13c-.55,1.16-1,6.13-1,6.13l5.53,1.48-.84-5.04s1.11-.94-.36-1.45Z"/>
          <circle class="cls-7" cx="28.96" cy="125.25" r="8.25" transform="translate(-86.96 69.65) rotate(-51.36)"/>
          <path class="cls-4" d="M24.84,131.51c-.05.26-.1.54-.14.82.56,2.87,4.85,4.13,4.85,4.13l-.63-3.81s.52-.44.37-.88c-1.7-.54-3.84-1.01-4.45-.25Z"/>
          <circle class="cls-7" cx="28.96" cy="125.25" r="8.25" transform="translate(-86.96 69.65) rotate(-51.36)"/>
          <polygon class="cls-7" points="8.63 160.18 9.55 182.27 12.78 182.6 14.88 162.72 8.63 160.18"/>
          <path class="cls-5" d="M19.24,158.34c-1.07-4.72-3.18-15.13-3.18-15.13l-.9,10.36c1.04,3.07,1.93,5.89,1.9,7.53-.06,2.71-.27,5.71-.51,8.74h0s3.76-6.78,2.69-11.5Z"/>
          <path class="cls-10" d="M13.37,139.41s-2.58.99-4.04,8.92c-1.46,7.93-2.55,15.87.05,16.89,2.6,1.02,4.78,1.79,5.55-.33.77-2.12,1.24-12.34,1.34-16.01s.24-8.74-2.89-9.47Z"/>
        </g>
        <path class="cls-21" d="M26.88,239.19s.77-.01,1.77-.18h0l1.21-48.54-2.98,48.73Z"/>
      </g>
      <g>
        <path class="cls-16" d="M22.21,212.97l-1.72-2.24-18.06-10.46c-.58-.34-1.05-1.23-1.05-2.01l.02-14.79-1.04-1.36.98-.57h0c.19-.12.44-.12.71.04l20.47,11.85c.58.34,1.05,1.23,1.05,2.01l-.02,16.11c0,.43-.15.74-.38.86h0s-.95.55-.95.55Z"/>
        <path class="cls-17" d="M9.72,204.49l-1.28-.74-7.04-12.24v-8.04s-1.03-1.36-1.03-1.36l.98-.57h0c.19-.12.44-.12.71.04l20.47,11.85c.31.18.58.51.77.9l-13.57,10.14Z"/>
        <path class="cls-17" d="M.82,182.72l-.46-.6.98-.57h0c.19-.12.44-.12.71.04l.36.21-1.59.92Z"/>
        <path class="cls-16" d="M22.7,193.58c.45.37.81,1.08.86,1.72l-2,1.16-.96-1.66,2.1-1.21Z"/>
        <path class="cls-10" d="M21.54,194.01l-20.47-11.85c-.58-.34-1.05.02-1.05.79L0,199.06c0,.77.47,1.67,1.05,2.01l20.47,11.85c.58.34,1.05-.02,1.05-.79l.02-16.11c0-.77-.47-1.67-1.05-2.01Z"/>
      </g>
      <path class="cls-7" d="M9.58,182.08s-.85,5.15-.72,6.81c.13,1.65,1.01,4.37,1.68,4.32.67-.06.02-6.64,1.2-5.98,1.18.66,1.3,1.78,1.83,1.38.53-.4-.93-6.02-.54-8.46.39-2.44-3.45,1.94-3.45,1.94Z"/>
      <path class="cls-7" d="M44.28,172.91s.85,5.15.72,6.81c-.13,1.65-1.01,4.37-1.68,4.32-.67-.06-.02-6.64-1.2-5.98s-1.3,1.78-1.83,1.38c-.53-.4.93-6.02.54-8.46-.39-2.44,3.45,1.94,3.45,1.94Z"/>
      <path class="cls-4" d="M32.13,125.98c4.14,1.47,4.95.57,4.98.53.04-.25.07-.5.08-.76.05-.91-.05-1.8-.28-2.64l-10.74-1.45s1.7,2.81,5.95,4.32Z"/>
      <path class="cls-6" d="M37.49,117.52c-.98-.84-4.5-4.97-10.8-4-3.94.61-7.26,3.3-8,9.43-.5,4.13,1.02,8.2,3.81,11.21.15-.07.31-.13.45-.23,1.58-1.04,1.75-1.61,1.75-1.62l.35-3.13c-.01-.44-.34-.84-.79-.87-.34-.02-.76-.19-1.16-.7-.91-1.18-.49-3.03,1.32-3.1.95-.04,1.31-.55,1.45-1.03.12-.42.56-.65.97-.5,2.06.75,7.14,2.35,10.41,1.43,4.18-1.18,1.21-6.06.24-6.9Z"/>
      <path class="cls-9" d="M32.79,129.7l2.52-.69s-1.21,1.9-2.96,2.38c-1.76.48-2.03-1.01-2.03-1.01l2.47-.68Z"/>
      <polygon class="cls-17" points="13.87 188.44 11.72 187.21 12.52 188.53 13.61 188.93 13.87 188.44"/>
    </g>
  </g>
  <g>
    <path class="cls-13" d="M71.68,288.47l-24.52-14.16c-1.5-.87-1.32-2.39.42-3.39l23.67-13.67c1.74-1,4.37-1.11,5.87-.24l24.52,14.16c1.5.87,1.32,2.39-.42,3.39l-23.67,13.67c-1.74,1-4.37,1.11-5.87.24Z"/>
    <g>
      <path class="cls-19" d="M109.78,260.38h0v-10.59h-23.75s-8.21-4.75-8.21-4.75c-1.88-1.09-5.18-.95-7.35.3l-7.66,4.42h-23.77s0,10.88,0,10.88c-.05.74.36,1.45,1.26,1.97l30.7,17.73c1.88,1.09,5.18.95,7.35-.3l29.64-17.12c1.26-.72,1.86-1.66,1.79-2.54Z"/>
      <path class="cls-19" d="M74.41,244.31c-1.38.03-2.81.38-3.94,1.03l-7.66,4.42h-23.77s0,10.88,0,10.88c-.05.74.36,1.45,1.26,1.97l30.7,17.73c.91.52,2.14.76,3.41.73v-36.76Z"/>
      <path class="cls-8" d="M41.72,249.75h-2.69s0,10.89,0,10.89c-.05.74.36,1.45,1.26,1.97l1.43.82v-13.69Z"/>
      <path class="cls-8" d="M71.47,280.57c1.63.7,3.98.66,5.88-.07v-12.37h-5.88v12.44Z"/>
      <path class="cls-18" d="M70.99,269.49l-30.7-17.73c-1.88-1.09-1.65-2.99.53-4.24l29.64-17.12c2.18-1.26,5.47-1.39,7.35-.3l30.7,17.73c1.88,1.09,1.65,2.99-.53,4.24l-29.64,17.12c-2.18,1.26-5.47,1.39-7.35.3Z"/>
      <path class="cls-8" d="M71.55,266.29l-25.73-14.85c-1.58-.91-1.38-2.5.44-3.56l24.84-14.34c1.82-1.05,4.58-1.17,6.16-.26l25.73,14.85c1.58.91,1.38,2.5-.44,3.56l-24.84,14.34c-1.82,1.05-4.58,1.17-6.16.26Z"/>
      <g>
        <path class="cls-18" d="M98.49,263.18c0,.79-.56,1.75-1.24,2.15-.68.4-1.24.07-1.24-.72s.56-1.75,1.24-2.15c.68-.4,1.24-.07,1.24.72Z"/>
        <path class="cls-18" d="M102.48,260.88c0,.79-.56,1.75-1.24,2.15-.68.4-1.24.07-1.24-.72s.56-1.75,1.24-2.15c.68-.4,1.24-.07,1.24.72Z"/>
        <path class="cls-18" d="M106.47,258.57c0,.79-.56,1.75-1.24,2.15-.68.4-1.24.07-1.24-.72s.56-1.75,1.24-2.15c.68-.4,1.24-.07,1.24.72Z"/>
      </g>
    </g>
    <g>
      <path class="cls-19" d="M109.78,243.45h0v-10.59h-23.75s-8.21-4.75-8.21-4.75c-1.88-1.09-5.18-.95-7.35.3l-7.66,4.42h-23.77s0,10.88,0,10.88c-.05.74.36,1.45,1.26,1.97l30.7,17.73c1.88,1.09,5.18.95,7.35-.3l29.64-17.12c1.26-.72,1.86-1.66,1.79-2.54Z"/>
      <path class="cls-19" d="M74.41,227.38c-1.38.03-2.81.38-3.94,1.03l-7.66,4.42h-23.77s0,10.88,0,10.88c-.05.74.36,1.45,1.26,1.97l30.7,17.73c.91.52,2.14.76,3.41.73v-36.76Z"/>
      <path class="cls-8" d="M41.72,232.82h-2.69s0,10.89,0,10.89c-.05.74.36,1.45,1.26,1.97l1.43.82v-13.69Z"/>
      <path class="cls-8" d="M71.47,263.64c1.63.7,3.98.66,5.88-.07v-12.37h-5.88v12.44Z"/>
      <path class="cls-18" d="M70.99,252.56l-30.7-17.73c-1.88-1.09-1.65-2.99.53-4.24l29.64-17.12c2.18-1.26,5.47-1.39,7.35-.3l30.7,17.73c1.88,1.09,1.65,2.99-.53,4.24l-29.64,17.12c-2.18,1.26-5.47,1.39-7.35.3Z"/>
      <path class="cls-8" d="M71.55,249.37l-25.73-14.85c-1.58-.91-1.38-2.5.44-3.56l24.84-14.34c1.82-1.05,4.58-1.17,6.16-.26l25.73,14.85c1.58.91,1.38,2.5-.44,3.56l-24.84,14.34c-1.82,1.05-4.58,1.17-6.16.26Z"/>
      <g>
        <path class="cls-18" d="M98.49,246.25c0,.79-.56,1.75-1.24,2.15-.68.4-1.24.07-1.24-.72s.56-1.75,1.24-2.15c.68-.4,1.24-.07,1.24.72Z"/>
        <path class="cls-18" d="M102.48,243.95c0,.79-.56,1.75-1.24,2.15-.68.4-1.24.07-1.24-.72s.56-1.75,1.24-2.15c.68-.4,1.24-.07,1.24.72Z"/>
        <path class="cls-18" d="M106.47,241.64c0,.79-.56,1.75-1.24,2.15-.68.4-1.24.07-1.24-.72s.56-1.75,1.24-2.15c.68-.4,1.24-.07,1.24.72Z"/>
      </g>
    </g>
    <g>
      <path class="cls-19" d="M109.78,226.53h0v-10.59h-23.75s-8.21-4.75-8.21-4.75c-1.88-1.09-5.18-.95-7.35.3l-7.66,4.42h-23.77s0,10.88,0,10.88c-.05.74.36,1.45,1.26,1.97l30.7,17.73c1.88,1.09,5.18.95,7.35-.3l29.64-17.12c1.26-.72,1.86-1.66,1.79-2.54Z"/>
      <path class="cls-19" d="M74.41,210.45c-1.38.03-2.81.38-3.94,1.03l-7.66,4.42h-23.77s0,10.88,0,10.88c-.05.74.36,1.45,1.26,1.97l30.7,17.73c.91.52,2.14.76,3.41.73v-36.76Z"/>
      <path class="cls-8" d="M41.72,215.89h-2.69s0,10.89,0,10.89c-.05.74.36,1.45,1.26,1.97l1.43.82v-13.69Z"/>
      <path class="cls-8" d="M71.47,246.71c1.63.7,3.98.66,5.88-.07v-12.37h-5.88v12.44Z"/>
      <path class="cls-18" d="M70.99,235.63l-30.7-17.73c-1.88-1.09-1.65-2.99.53-4.24l29.64-17.12c2.18-1.26,5.47-1.39,7.35-.3l30.7,17.73c1.88,1.09,1.65,2.99-.53,4.24l-29.64,17.12c-2.18,1.26-5.47,1.39-7.35.3Z"/>
      <path class="cls-8" d="M71.55,232.44l-25.73-14.85c-1.58-.91-1.38-2.5.44-3.56l24.84-14.34c1.82-1.05,4.58-1.17,6.16-.26l25.73,14.85c1.58.91,1.38,2.5-.44,3.56l-24.84,14.34c-1.82,1.05-4.58,1.17-6.16.26Z"/>
      <g>
        <path class="cls-18" d="M98.49,229.32c0,.79-.56,1.75-1.24,2.15-.68.4-1.24.07-1.24-.72s.56-1.75,1.24-2.15c.68-.4,1.24-.07,1.24.72Z"/>
        <path class="cls-18" d="M102.48,227.02c0,.79-.56,1.75-1.24,2.15-.68.4-1.24.07-1.24-.72s.56-1.75,1.24-2.15c.68-.4,1.24-.07,1.24.72Z"/>
        <path class="cls-18" d="M106.47,224.71c0,.79-.56,1.75-1.24,2.15-.68.4-1.24.07-1.24-.72s.56-1.75,1.24-2.15c.68-.4,1.24-.07,1.24.72Z"/>
      </g>
    </g>
    <g>
      <path class="cls-19" d="M109.78,209.6h0v-10.59h-23.75s-8.21-4.75-8.21-4.75c-1.88-1.09-5.18-.95-7.35.3l-7.66,4.42h-23.77s0,10.88,0,10.88c-.05.74.36,1.45,1.26,1.97l30.7,17.73c1.88,1.09,5.18.95,7.35-.3l29.64-17.12c1.26-.72,1.86-1.66,1.79-2.54Z"/>
      <path class="cls-19" d="M74.41,193.52c-1.38.03-2.81.38-3.94,1.03l-7.66,4.42h-23.77s0,10.88,0,10.88c-.05.74.36,1.45,1.26,1.97l30.7,17.73c.91.52,2.14.76,3.41.73v-36.76Z"/>
      <path class="cls-8" d="M41.72,198.97h-2.69s0,10.89,0,10.89c-.05.74.36,1.45,1.26,1.97l1.43.82v-13.69Z"/>
      <path class="cls-8" d="M71.47,229.79c1.63.7,3.98.66,5.88-.07v-12.37h-5.88v12.44Z"/>
      <path class="cls-18" d="M70.99,218.7l-30.7-17.73c-1.88-1.09-1.65-2.99.53-4.24l29.64-17.12c2.18-1.26,5.47-1.39,7.35-.3l30.7,17.73c1.88,1.09,1.65,2.99-.53,4.24l-29.64,17.12c-2.18,1.26-5.47,1.39-7.35.3Z"/>
      <path class="cls-8" d="M71.55,215.51l-25.73-14.85c-1.58-.91-1.38-2.5.44-3.56l24.84-14.34c1.82-1.05,4.58-1.17,6.16-.26l25.73,14.85c1.58.91,1.38,2.5-.44,3.56l-24.84,14.34c-1.82,1.05-4.58,1.17-6.16.26Z"/>
      <g>
        <path class="cls-18" d="M98.49,212.39c0,.79-.56,1.75-1.24,2.15-.68.4-1.24.07-1.24-.72s.56-1.75,1.24-2.15c.68-.4,1.24-.07,1.24.72Z"/>
        <path class="cls-18" d="M102.48,210.09c0,.79-.56,1.75-1.24,2.15-.68.4-1.24.07-1.24-.72s.56-1.75,1.24-2.15c.68-.4,1.24-.07,1.24.72Z"/>
        <path class="cls-18" d="M106.47,207.79c0,.79-.56,1.75-1.24,2.15-.68.4-1.24.07-1.24-.72s.56-1.75,1.24-2.15c.68-.4,1.24-.07,1.24.72Z"/>
      </g>
    </g>
    <g>
      <path class="cls-19" d="M109.78,192.67h0v-10.59h-23.75s-8.21-4.75-8.21-4.75c-1.88-1.09-5.18-.95-7.35.3l-7.66,4.42h-23.77s0,10.88,0,10.88c-.05.74.36,1.45,1.26,1.97l30.7,17.73c1.88,1.09,5.18.95,7.35-.3l29.64-17.12c1.26-.72,1.86-1.66,1.79-2.54Z"/>
      <path class="cls-19" d="M74.41,176.59c-1.38.03-2.81.38-3.94,1.03l-7.66,4.42h-23.77s0,10.88,0,10.88c-.05.74.36,1.45,1.26,1.97l30.7,17.73c.91.52,2.14.76,3.41.73v-36.76Z"/>
      <path class="cls-8" d="M41.72,182.04h-2.69s0,10.89,0,10.89c-.05.74.36,1.45,1.26,1.97l1.43.82v-13.69Z"/>
      <path class="cls-8" d="M71.47,212.86c1.63.7,3.98.66,5.88-.07v-12.37h-5.88v12.44Z"/>
      <path class="cls-18" d="M70.99,201.77l-30.7-17.73c-1.88-1.09-1.65-2.99.53-4.24l29.64-17.12c2.18-1.26,5.47-1.39,7.35-.3l30.7,17.73c1.88,1.09,1.65,2.99-.53,4.24l-29.64,17.12c-2.18,1.26-5.47,1.39-7.35.3Z"/>
      <path class="cls-8" d="M71.55,198.58l-25.73-14.85c-1.58-.91-1.38-2.5.44-3.56l24.84-14.34c1.82-1.05,4.58-1.17,6.16-.26l25.73,14.85c1.58.91,1.38,2.5-.44,3.56l-24.84,14.34c-1.82,1.05-4.58,1.17-6.16.26Z"/>
      <g>
        <rect class="cls-9" x="84.08" y="199.62" width="14.22" height=".5" transform="translate(-87.64 72.27) rotate(-29.97)"/>
        <path class="cls-18" d="M98.49,195.46c0,.79-.56,1.75-1.24,2.15-.68.4-1.24.07-1.24-.72s.56-1.75,1.24-2.15c.68-.4,1.24-.07,1.24.72Z"/>
        <path class="cls-18" d="M102.48,193.16c0,.79-.56,1.75-1.24,2.15-.68.4-1.24.07-1.24-.72s.56-1.75,1.24-2.15c.68-.4,1.24-.07,1.24.72Z"/>
        <path class="cls-18" d="M106.47,190.86c0,.79-.56,1.75-1.24,2.15-.68.4-1.24.07-1.24-.72s.56-1.75,1.24-2.15c.68-.4,1.24-.07,1.24.72Z"/>
      </g>
    </g>
    <g>
      <path class="cls-19" d="M109.78,175.62h0v-10.59h-23.75s-8.21-4.75-8.21-4.75c-1.88-1.09-5.18-.95-7.35.3l-7.66,4.42h-23.77s0,10.88,0,10.88c-.05.74.36,1.45,1.26,1.97l30.7,17.73c1.88,1.09,5.18.95,7.35-.3l29.64-17.12c1.26-.72,1.86-1.66,1.79-2.54Z"/>
      <path class="cls-19" d="M74.41,159.55c-1.38.03-2.81.38-3.94,1.03l-7.66,4.42h-23.77s0,10.88,0,10.88c-.05.74.36,1.45,1.26,1.97l30.7,17.73c.91.52,2.14.76,3.41.73v-36.76Z"/>
      <path class="cls-8" d="M41.72,164.99h-2.69s0,10.89,0,10.89c-.05.74.36,1.45,1.26,1.97l1.43.82v-13.69Z"/>
      <path class="cls-8" d="M71.47,195.81c1.63.7,3.98.66,5.88-.07v-12.37h-5.88v12.44Z"/>
      <path class="cls-18" d="M70.99,184.73l-30.7-17.73c-1.88-1.09-1.65-2.99.53-4.24l29.64-17.12c2.18-1.26,5.47-1.39,7.35-.3l30.7,17.73c1.88,1.09,1.65,2.99-.53,4.24l-29.64,17.12c-2.18,1.26-5.47,1.39-7.35.3Z"/>
      <path class="cls-9" d="M107.99,165.22l-29.64,17.12c-2.18,1.26-5.47,1.39-7.35.3l-30.7-17.73c-.42-.24-.73-.53-.94-.83-.65,1.04-.35,2.17.94,2.92l30.7,17.73c1.88,1.09,5.18.95,7.35-.3l29.64-17.12c1.69-.98,2.2-2.34,1.47-3.41-.3.48-.79.93-1.47,1.33Z"/>
      <g>
        <path class="cls-18" d="M98.49,178.42c0,.79-.56,1.75-1.24,2.15-.68.4-1.24.07-1.24-.72s.56-1.75,1.24-2.15c.68-.4,1.24-.07,1.24.72Z"/>
        <path class="cls-18" d="M86.27,185.14c0,.79-.56,1.75-1.24,2.15s-1.24.07-1.24-.72.56-1.75,1.24-2.15,1.24-.07,1.24.72Z"/>
        <path class="cls-9" d="M86.27,202.7c0,.79-.56,1.75-1.24,2.15s-1.24.07-1.24-.72.56-1.75,1.24-2.15,1.24-.07,1.24.72Z"/>
        <path class="cls-18" d="M102.48,176.12c0,.79-.56,1.75-1.24,2.15-.68.4-1.24.07-1.24-.72s.56-1.75,1.24-2.15c.68-.4,1.24-.07,1.24.72Z"/>
        <path class="cls-18" d="M106.47,173.81c0,.79-.56,1.75-1.24,2.15-.68.4-1.24.07-1.24-.72s.56-1.75,1.24-2.15c.68-.4,1.24-.07,1.24.72Z"/>
      </g>
      <g>
        <path class="cls-8" d="M72.81,173.74l-14.37-8.29c-.88-.51-.77-1.4.25-1.99l13.87-8.01c1.02-.59,2.56-.65,3.44-.14l14.37,8.29c.88.51.77,1.4-.25,1.99l-13.87,8.01c-1.02.59-2.56.65-3.44.14Z"/>
        <path class="cls-18" d="M74.19,166.79l-1.99-1.15c-.12-.07-.11-.19.03-.27l1.92-1.11c.14-.08.35-.09.48-.02l1.99,1.15c.12.07.11.19-.03.27l-1.92,1.11c-.14.08-.35.09-.48.02Z"/>
        <path class="cls-19" d="M58.44,165.44l.04.02c.07-.05.13-.1.21-.14l13.87-8.01c1.02-.59,2.56-.65,3.44-.14l14.33,8.27c.81-.58.86-1.37.04-1.84l-14.37-8.29c-.88-.51-2.42-.45-3.44.14l-13.87,8.01c-1.02.59-1.13,1.48-.25,1.99Z"/>
      </g>
    </g>
  </g>
  <g>
    <path class="cls-20" d="M134.26,289.55c1.7.73,2.78,2.63,2.64,4.67-.07.96-.18,1.86-.38,2.28-.54,1.14-2.32,2.7-5.16,1.58-2.84-1.12-9.14-7.04-9.38-10.92-.44-7.2,7.79.47,12.28,2.38Z"/>
    <path class="cls-20" d="M117.59,301.46s.68,4.15.35,4.91c-.33.76-2.31,2.38-5.22,2.03-2.92-.35-11.31-3.25-13.18-8.78-2.9-8.58,16.2.64,16.2.64l1.85,1.19Z"/>
    <path class="cls-14" d="M109.39,235.1l-.65,64.8c.07,2.25,1.54,4.16,3.53,4.49.25.04.51.08.79.1,2.01.18,3.18-.69,3.85-1.59.54-.73.83-1.66.87-2.62l.83-27.66,4.13-24.73,5.71,43.77c.09,1.18.66,2.28,1.57,2.88.63.42,1.48.74,2.6.71,1.64-.05,2.77-.92,3.46-1.71.55-.62.84-1.47.83-2.34l-2.26-26.34-.84-33.59-24.41,3.83Z"/>
    <path class="cls-7" d="M136.46,213.82c-.12,0-.24,0-.36-.03l-10.35-1.6c-1.27-.2-2.14-1.39-1.94-2.66.2-1.27,1.38-2.14,2.66-1.94l7.14,1.11-2.44-13.96c-.22-1.27.63-2.47,1.89-2.69,1.27-.23,2.47.63,2.69,1.89l3,17.16c.13.74-.11,1.5-.63,2.03-.44.45-1.04.7-1.66.7Z"/>
    <path class="cls-16" d="M127,180.71s3.46-.2,7.92,8.98c4.46,9.18-1.65,12.09-1.65,12.09l-6.27-21.07Z"/>
    <path class="cls-16" d="M117.51,183.11c.16-.06,9.54-6.11,13.01.22,5.66,10.31,5.32,43.52,3.54,47.82-1.65,3.98-5.78,6.91-8.68,8.57-2.57,1.47-5.46,2.37-8.42,2.4-2.93.02-8.56-2.58-8.35-6.42.94-17.64-.62-32.51-2.06-46.93,0,0,1.8-1.94,10.96-5.65Z"/>
    <path class="cls-7" d="M102.7,219.13c.27-.01.53-.08.78-.2.69-.33,1.17-1.03,1.3-1.86l4.46-13.01c.2-1.34-2.15-6.59-3.34-6.81-1.2-.22-4.23,2.16-4.43,3.5l-1.1,11.63-9.33-3.03c-1.14-.6-2.09-1.83-2.77-.7-.68,1.13-.41,2.66.6,3.42l12.51,6.65c.39.3.85.44,1.31.42Z"/>
    <path class="cls-7" d="M90.33,209.04l-.69-1.69c-.25-.61-.63-1.16-1.11-1.6l-2.91-2.68c-.25-.23-.63-.19-.84.08h0c-.16.22-.15.52.04.72l1.21,1.32c.2.21.26.52.16.8l-.46,1.3c-.15.43-.07.92.22,1.27l2.91,3.53,1.46-3.04Z"/>
    <path class="cls-16" d="M106.55,188.76s-6.27,4.83-7.23,19.53c0,0-.14,1.63,3.49,2.61,3.62.98,6.1-1.82,6.1-1.82,0,0,4.22-9.76-2.35-20.32Z"/>
    <path class="cls-7" d="M118.37,177.43l1.02,5.9s.04,2.01-2.21,2.57c-2.25.56-2.94-.89-2.94-.89l-1.02-6.65,5.15-.93Z"/>
    <path class="cls-7" d="M106.22,177.66c2.43,4.71,7.8,6.77,11.99,4.59,4.19-2.18,5.61-7.77,3.18-12.48-2.43-4.71-7.8-6.77-11.99-4.59-4.19,2.18-5.61,7.77-3.18,12.48Z"/>
    <path class="cls-20" d="M112.28,176.77c-.36.05-.71-.05-.96-.31-.44-.45-.62-2.82-1.77-3.02-1.8-.31-5.44,2.5-6.92-3.53-.77-3.13.63-4.24.32-5.98,0,0,.02.89,8.08-1.05,8.07-1.95,11.97,4.84,12.76,8.26.79,3.42.09,9.38-5.35,11.12-.9.29-5.33-2.17-5.3-2.59s1.5-.66,1.08-1.81c-.35-.96-1.02-1.23-1.95-1.08Z"/>
    <path class="cls-21" d="M122.73,247.89l5.71,43.77c.09,1.18.66,2.28,1.57,2.88.15.1.31.19.49.28-1.19-.89-4.65-37.63-5.29-41.72-.64-4.09-2.48-5.21-2.48-5.21Z"/>
  </g>
</svg>