<svg width="620" height="368" viewBox="0 0 620 368" fill="none" xmlns="http://www.w3.org/2000/svg">
<g clip-path="url(#clip0_294_10891)">
<path d="M85.418 363.603C41.9446 322.259 -17.4683 279.569 5.82921 215.083C21.1538 172.668 58.724 160.846 89.9538 134.692C105.366 121.784 95.6729 102.997 95.3857 84.3478C94.7332 36.5945 155.748 -0.460521 211.839 0.31367C272.594 1.1503 298.898 54.5039 349.864 57.3666C369.877 57.635 387.796 47.377 405.502 39.2262C457.969 15.0795 541.22 30.479 545.428 88.8743C546.514 120.41 505.423 171.148 546.593 187.734C579.405 200.954 612.555 205.821 618.467 253.103C626.206 314.988 585.29 348.953 531.97 364.88L85.4148 363.603H85.418Z" fill="#A2D3D1"/>
<path d="M125.789 76.0283H175.271C181.396 76.0283 186.363 80.995 186.363 87.1199V110.186C186.363 116.311 181.396 121.278 175.271 121.278H174.903L178.874 134.583C179.049 135.167 178.371 135.635 177.888 135.263L159.554 121.278H125.789C119.664 121.278 114.697 116.311 114.697 110.186V87.1199C114.697 80.995 119.664 76.0283 125.789 76.0283Z" fill="white"/>
<path d="M175.247 95.3989H127.74C124.709 95.3989 122.252 92.9421 122.252 89.9109C122.252 86.8797 124.709 84.4229 127.74 84.4229H175.247C178.278 84.4229 180.735 86.8797 180.735 89.9109C180.735 92.9421 178.278 95.3989 175.247 95.3989Z" fill="#E4E9F6"/>
<path d="M175.247 112.163H127.74C124.709 112.163 122.252 109.706 122.252 106.675C122.252 103.644 124.709 101.184 127.74 101.184H175.247C178.278 101.184 180.735 103.64 180.735 106.675C180.735 109.706 178.278 112.163 175.247 112.163Z" fill="#E4E9F6"/>
<path d="M486.818 47.3957H436.714C430.511 47.3957 425.485 52.4217 425.485 58.6246V81.9814C425.485 88.1843 430.515 93.2103 436.714 93.2103H437.086L433.065 106.681C432.887 107.274 433.574 107.745 434.064 107.371L452.629 93.2072H486.818C493.021 93.2072 498.047 88.1781 498.047 81.9783V58.6215C498.047 52.4186 493.018 47.3926 486.818 47.3926V47.3957Z" fill="white"/>
<path d="M485.829 67.138H436.515C433.699 67.138 431.417 64.856 431.417 62.0402C431.417 59.2244 433.699 56.9424 436.515 56.9424H485.829C488.645 56.9424 490.927 59.2244 490.927 62.0402C490.927 64.856 488.645 67.138 485.829 67.138Z" fill="#E4E9F6"/>
<path d="M461.77 82.5491H438.148C435.332 82.5491 433.05 80.2671 433.05 77.4513C433.05 74.6355 435.332 72.3535 438.148 72.3535H461.77C464.586 72.3535 466.868 74.6355 466.868 77.4513C466.868 80.2671 464.586 82.5491 461.77 82.5491Z" fill="#E4E9F6"/>
<path d="M43.8055 245.726C46.306 243.837 49.306 242.892 52.8086 242.892C60.3664 242.892 64.3684 247.003 64.3684 252.784C64.3684 256.118 62.7576 259.509 59.4798 262.899C55.3123 267.288 52.3123 269.454 50.4205 269.454C48.5287 269.454 47.2519 268.009 47.2519 266.286C47.2519 264.731 48.6973 263.174 51.1978 260.895C51.3633 260.729 51.5318 260.561 51.6411 260.504C54.4756 257.892 55.3653 256.446 55.3653 254.67C55.3653 252.447 53.8638 251.224 51.6973 251.224C50.6983 251.224 49.5308 251.445 48.1416 251.892C46.7525 252.335 45.7535 252.56 45.1416 252.56C43.587 252.56 41.8076 251.227 41.8076 249.004C41.8076 247.836 42.4757 246.725 43.8087 245.726H43.8055ZM51.4163 282.794C48.0261 282.794 45.7473 280.237 45.7473 277.125C45.7473 274.459 48.0261 271.902 51.4163 271.902C54.3601 271.902 56.639 274.459 56.639 277.125C56.639 280.181 54.4725 282.794 51.4163 282.794Z" fill="white"/>
<path d="M497.791 121.031C499.436 119.788 501.409 119.167 503.71 119.167C508.679 119.167 511.311 121.87 511.311 125.673C511.311 127.864 510.25 130.096 508.096 132.325C505.355 135.213 503.382 136.636 502.139 136.636C500.897 136.636 500.057 135.687 500.057 134.554C500.057 133.53 501.006 132.506 502.651 131.008C502.761 130.898 502.87 130.789 502.945 130.752C504.808 129.035 505.392 128.083 505.392 126.915C505.392 125.454 504.406 124.649 502.979 124.649C502.32 124.649 501.552 124.795 500.641 125.086C499.726 125.379 499.071 125.523 498.668 125.523C497.644 125.523 496.477 124.646 496.477 123.185C496.477 122.417 496.917 121.686 497.791 121.028V121.031ZM502.798 145.405C500.569 145.405 499.071 143.723 499.071 141.678C499.071 139.923 500.569 138.244 502.798 138.244C504.734 138.244 506.232 139.923 506.232 141.678C506.232 143.688 504.805 145.405 502.798 145.405Z" fill="white"/>
<path d="M607.099 256.09H537.715C536.488 256.09 535.492 255.094 535.492 253.871V194.146C535.492 192.919 536.488 191.923 537.715 191.923C538.942 191.923 539.934 192.919 539.934 194.146V251.648H607.099C608.325 251.648 609.321 252.644 609.321 253.871C609.321 255.097 608.325 256.09 607.099 256.09Z" fill="white"/>
<path d="M542.969 241.49C542.413 241.49 541.858 241.284 541.427 240.866C540.543 240.014 540.521 238.606 541.374 237.726L563.797 214.528C564.537 213.763 565.711 213.629 566.604 214.21L577.208 221.087L588.39 208.094C589.189 207.164 590.594 207.061 591.521 207.86C592.452 208.659 592.558 210.061 591.755 210.991L579.309 225.454C578.585 226.297 577.349 226.475 576.418 225.869L565.72 218.93L544.567 240.813C544.13 241.263 543.55 241.49 542.969 241.49Z" fill="white"/>
<path d="M591.805 217.618L588.64 211.206L581.828 209.034L596.99 201.504L591.805 217.618Z" fill="white"/>
<path d="M184.049 52.9456C176.638 52.9456 170.61 46.9175 170.61 39.5065C170.61 32.0955 176.638 26.0674 184.049 26.0674C191.46 26.0674 197.489 32.0955 197.489 39.5065C197.489 46.9175 191.46 52.9456 184.049 52.9456ZM184.049 29.7666C178.68 29.7666 174.31 34.134 174.31 39.5065C174.31 44.879 178.68 49.2463 184.049 49.2463C189.419 49.2463 193.789 44.879 193.789 39.5065C193.789 34.134 189.422 29.7666 184.049 29.7666Z" fill="white"/>
<path d="M551.007 146.48C545.578 146.48 541.161 142.063 541.161 136.634C541.161 131.205 545.578 126.788 551.007 126.788C556.436 126.788 560.853 131.205 560.853 136.634C560.853 142.063 556.436 146.48 551.007 146.48ZM551.007 129.501C547.074 129.501 543.874 132.701 543.874 136.634C543.874 140.567 547.074 143.767 551.007 143.767C554.941 143.767 558.14 140.567 558.14 136.634C558.14 132.701 554.941 129.501 551.007 129.501Z" fill="#A3D5D2"/>
<path d="M34.1816 200.448C29.3086 200.448 25.3408 196.484 25.3408 191.607C25.3408 186.731 29.3054 182.767 34.1816 182.767C39.0577 182.767 43.0224 186.731 43.0224 191.607C43.0224 196.484 39.0577 200.448 34.1816 200.448ZM34.1816 185.202C30.6509 185.202 27.7758 188.077 27.7758 191.607C27.7758 195.138 30.6478 198.013 34.1816 198.013C37.7154 198.013 40.5874 195.138 40.5874 191.607C40.5874 188.077 37.7154 185.202 34.1816 185.202Z" fill="white"/>
<path d="M368.473 72.3536C368.473 75.0102 366.319 77.1642 363.662 77.1642C361.006 77.1642 358.852 75.0102 358.852 72.3536C358.852 69.697 361.006 67.543 363.662 67.543C366.319 67.543 368.473 69.697 368.473 72.3536Z" fill="white"/>
<path d="M86.5013 89.3395C86.5013 94.5622 82.2683 98.7953 77.0456 98.7953C71.8229 98.7953 67.5898 94.5622 67.5898 89.3395C67.5898 84.1169 71.8229 79.8838 77.0456 79.8838C82.2683 79.8838 86.5013 84.1169 86.5013 89.3395Z" fill="#A3D5D2"/>
<path d="M357.278 39.5037C357.278 43.4309 354.094 46.6119 350.17 46.6119C346.246 46.6119 343.062 43.4309 343.062 39.5037C343.062 35.5766 346.246 32.3955 350.17 32.3955C354.094 32.3955 357.278 35.5766 357.278 39.5037Z" fill="#A3D5D2"/>
<path d="M571.548 152.348C571.548 155.701 568.833 158.417 565.48 158.417C562.127 158.417 559.411 155.701 559.411 152.348C559.411 148.995 562.127 146.279 565.48 146.279C568.833 146.279 571.548 148.995 571.548 152.348Z" fill="#A3D5D2"/>
<path d="M394.374 67.1372C394.374 71.3141 390.987 74.7012 386.81 74.7012C382.633 74.7012 379.246 71.3141 379.246 67.1372C379.246 62.9603 382.633 59.5732 386.81 59.5732C390.987 59.5732 394.374 62.9603 394.374 67.1372Z" fill="white"/>
<path d="M215.158 18.4135C215.158 22.6528 211.721 26.0867 207.485 26.0867C203.249 26.0867 199.812 22.6497 199.812 18.4135C199.812 14.1773 203.245 10.7402 207.485 10.7402C211.724 10.7402 215.158 14.1773 215.158 18.4135Z" fill="white"/>
<path d="M369.694 130.678H369.684L362.76 130.703L361.193 147.057L369.276 151.325L377.895 147.104L376.502 130.703L369.694 130.678Z" fill="#F37B51"/>
<path d="M383.92 118.028C382.865 129.451 374.739 138.039 365.77 137.208C356.798 136.381 350.383 126.451 351.435 115.028C352.49 103.606 360.616 95.0181 369.585 95.8485C378.557 96.6757 384.972 106.606 383.92 118.028Z" fill="#F37B51"/>
<path d="M363.31 119.114C361.756 121.318 359.789 124.003 359.789 124.003C359.789 124.003 360.491 126.46 363.666 126.672C362.352 126.041 361.072 125.061 361.721 123.301C362.371 121.537 363.31 119.117 363.31 119.117V119.114Z" fill="#DE623C"/>
<path d="M387.235 108.747C387.769 97.8834 377.674 94.7273 377.674 94.7273C377.674 94.7273 379.871 93.8532 379.2 90.6035C377.667 91.6337 375.76 92.1581 373.915 92.0489C361.49 91.3184 353.78 93.6659 355.206 98.4672C355.715 100.175 347.72 101.383 351.757 112.693C352.469 111.31 352.952 106.206 355.316 104.992C357.685 103.774 356.411 107.792 361.853 106.958C367.344 106.115 370.843 103.684 374.948 105.7C378.239 107.545 382.787 120.566 382.637 121.471C382.974 119.389 387.001 113.52 387.235 108.747Z" fill="#010101"/>
<path d="M351.597 121.237C351.597 121.237 352.899 127.368 354.313 128.964C354.497 126.295 360.398 127.734 362.939 127.852C367.543 128.071 372.035 123.813 373.824 129.778C379.681 129.881 381.291 116.936 381.291 116.936C385.4 129.644 378.191 139.696 364.078 141.569C354.782 142.802 350.283 130.681 351.597 121.237Z" fill="#010101"/>
<path d="M367.082 130.846C367.887 130.381 368.683 129.76 369.47 128.982C369.676 128.78 369.676 128.449 369.473 128.246C369.27 128.04 368.939 128.04 368.736 128.243C366.991 129.966 365.227 130.834 363.489 130.821C361.341 130.806 359.949 129.413 359.936 129.401C359.736 129.195 359.405 129.192 359.199 129.391C358.993 129.591 358.99 129.919 359.187 130.128C359.255 130.197 360.873 131.839 363.46 131.864C364.675 131.876 365.883 131.536 367.079 130.849L367.082 130.846Z" fill="#DE623C"/>
<path d="M370.359 118.696C371.258 118.721 372.007 118.009 372.032 117.11C372.057 116.211 371.345 115.459 370.446 115.437C369.547 115.412 368.798 116.124 368.773 117.023C368.748 117.922 369.46 118.671 370.359 118.696Z" fill="#010101"/>
<path d="M357.37 118.344C358.269 118.369 359.018 117.657 359.043 116.758C359.068 115.859 358.356 115.11 357.457 115.085C356.558 115.06 355.806 115.771 355.784 116.67C355.759 117.57 356.471 118.322 357.37 118.344Z" fill="#010101"/>
<path d="M354.582 115.169C354.851 115.175 355.113 115.047 355.266 114.803C355.687 114.135 356.187 113.742 356.749 113.633C357.72 113.445 358.659 114.116 358.669 114.123C359.018 114.376 359.505 114.301 359.761 113.954C360.017 113.608 359.946 113.121 359.599 112.865C359.54 112.821 358.119 111.785 356.471 112.094C355.46 112.284 354.607 112.915 353.942 113.97C353.711 114.335 353.821 114.819 354.186 115.05C354.308 115.128 354.445 115.169 354.582 115.172V115.169Z" fill="#010101"/>
<path d="M373.535 115.761C373.706 115.768 373.881 115.715 374.028 115.602C374.371 115.34 374.44 114.85 374.178 114.507C373.185 113.195 372.064 112.465 370.85 112.337C369.283 112.171 368.178 113.111 368.131 113.152C367.803 113.436 367.769 113.929 368.053 114.257C368.334 114.581 368.824 114.619 369.152 114.341C369.177 114.322 369.832 113.798 370.706 113.898C371.465 113.985 372.214 114.51 372.929 115.452C373.079 115.649 373.303 115.755 373.531 115.761H373.535Z" fill="#010101"/>
<path d="M381.442 116.983C379.562 118.918 379.325 121.734 380.908 123.27C382.49 124.806 385.297 124.484 387.176 122.549C389.055 120.613 389.293 117.797 387.71 116.261C386.127 114.726 383.318 115.047 381.442 116.983Z" fill="#F37B51"/>
<path d="M383.424 122.408C383.34 122.38 383.262 122.333 383.193 122.265C382.232 121.3 381.988 120.101 382.538 119.055C383.1 117.985 384.333 117.357 385.472 117.566C385.794 117.626 386.006 117.932 385.947 118.253C385.887 118.575 385.581 118.787 385.26 118.728C384.636 118.615 383.899 118.999 383.58 119.605C383.274 120.189 383.434 120.835 384.03 121.431C384.261 121.662 384.258 122.037 384.03 122.265C383.868 122.427 383.63 122.474 383.427 122.405L383.424 122.408Z" fill="#DE623C"/>
<path d="M357.057 344.632C350.936 353.079 335.901 347.897 336.398 359.32C359.261 359.173 368.764 359.32 368.764 359.32C368.733 356.694 368.283 350.467 367.756 348.028L357.057 344.629V344.632Z" fill="#0F123F"/>
<path d="M390.725 344.632C384.604 353.079 369.569 347.897 370.066 359.32C392.929 359.173 402.432 359.32 402.432 359.32C402.401 356.694 401.948 350.467 401.424 348.028L390.725 344.629V344.632Z" fill="#0F123F"/>
<path d="M342.21 215.732C342.21 215.732 340.019 271.583 341.527 283.621C343.034 295.658 351.291 309.138 350.686 348.95C358.14 350.816 368.939 348.95 368.939 348.95C368.939 348.95 370.54 303.931 362.661 283.824C365.864 264.291 376.147 219.557 376.147 219.557L342.21 215.732Z" fill="#798CC6"/>
<path d="M358.196 217.153C358.196 217.153 365.692 277.933 369.36 289.461C373.028 300.99 378.541 309.528 385.184 348.746C392.845 349.13 399.844 349.998 399.844 349.998C399.844 349.998 403.337 299.766 391.409 288.453C391.006 268.646 390.585 217.54 390.585 217.54L358.193 217.149L358.196 217.153Z" fill="#8FA1D2"/>
<path d="M395.136 148.168C395.136 148.168 382.118 143.611 377.776 145.702C364.287 152.195 361.193 145.702 361.193 145.702C356.461 144.653 345.285 144.653 345.285 144.653C343.871 163.534 339.638 223.827 339.638 223.827C339.638 223.827 355.877 227.679 369.457 227.779C383.033 227.692 396.853 224.07 396.853 224.07C396.853 224.07 396.129 197.676 395.526 187.864C395.723 176.87 395.136 162.663 395.136 148.172V148.168Z" fill="#F37268"/>
<path d="M395.136 148.168C407.03 153.285 421.624 165.079 430.605 183.756C433.686 190.162 419.042 191.454 416.123 188.929C413.204 186.403 395.136 167.545 395.136 167.545V148.165V148.168Z" fill="#DB6258"/>
<path d="M345.285 144.653L288.966 167.757L291.775 181.964L343.962 167.139L345.285 144.653Z" fill="#DB6258"/>
<path d="M248.976 142.568C241.877 142.503 217.028 181.197 217.028 181.197L212.505 226.593L224.083 227.049L234.85 187.384L246.085 181.459L248.973 142.568H248.976Z" fill="#0F123F"/>
<path d="M304.88 216.8L305.02 222.875C305.02 222.875 300.684 222.747 300.531 225.707L304.602 225.831C304.602 225.831 307.081 229.031 303.528 235.278C302.111 241.396 306.597 238.808 306.903 240.841C307.355 243.841 313.277 238.696 314.22 232.584C315.438 224.676 313.824 223.724 313.824 223.724L312.032 217.718L304.877 216.794L304.88 216.8Z" fill="#F37B51"/>
<path d="M299.027 147.591C305.96 149.12 318.715 190.265 318.715 190.265L314.888 221.732L303.372 220.443L304.065 195.909L295.437 172.655L299.027 147.591Z" fill="#0F123F"/>
<path d="M283.915 346.321C290.174 354.668 305.542 349.545 305.034 360.837C281.661 360.693 271.946 360.837 271.946 360.837C271.978 358.242 272.44 352.086 272.976 349.676L283.912 346.317L283.915 346.321Z" fill="#010101"/>
<path d="M248.945 346.539C255.204 354.887 270.573 349.764 270.064 361.055C246.691 360.912 236.977 361.055 236.977 361.055C237.008 358.461 237.47 352.305 238.01 349.898L248.945 346.539Z" fill="#010101"/>
<path d="M297.357 218.523C297.357 218.523 301.109 272.305 299.567 284.202C298.025 296.099 289.987 311.42 290.608 350.767C282.988 352.612 271.949 350.767 271.949 350.767C271.949 350.767 270.314 306.276 278.368 286.406C275.093 267.104 264.582 222.894 264.582 222.894L297.357 218.527V218.523Z" fill="#0F123F"/>
<path d="M274.178 220.405C274.178 220.405 272.651 280.402 268.902 291.797C265.15 303.191 259.037 310.696 252.248 349.458C244.418 349.836 233.143 349.998 233.143 349.998C233.143 349.998 238.677 301.14 250.871 289.958C251.283 270.385 247.203 220.718 247.203 220.718L274.178 220.402V220.405Z" fill="#111133"/>
<path d="M284.654 141.039L274.227 138.856L263.704 140.539L273.85 153.672L284.654 141.039Z" fill="#97A5D4"/>
<path d="M281.795 148.01C277.099 151.047 270.784 151.106 265.942 147.591L266.17 131.486L281.161 132.005L281.798 148.01H281.795Z" fill="#F37B51"/>
<path d="M260.358 145.88L263.624 145L263.708 140.539L271.581 148.484L273.985 149.152L276.416 148.599L284.658 141.039L284.53 145.496L287.224 146.361L296.979 149.102L291.888 204.407L293.673 223.624C279.985 226.512 265.109 225.928 250.837 222.282L253.465 203.495L249.298 148.406L260.355 145.883L260.358 145.88Z" fill="#97A5D4"/>
<path d="M276.469 154.88L279.619 197.62L275.804 202.174L271.546 198.375L273.185 154.989L276.469 154.88Z" fill="#111133"/>
<path d="M279.047 149.645L275.13 148.806L270.784 149.73L273.182 155.074L276.481 155.021L279.047 149.645Z" fill="#111133"/>
<path d="M285.519 143.021L285.167 191.304L284.14 225.294C284.14 225.294 293.861 228.762 301.113 223.28L299.155 147.591L285.519 143.021Z" fill="#111133"/>
<path d="M285.282 142.512L285.066 194.654L292.733 154.193L285.282 142.512Z" fill="#1D1952"/>
<path d="M263.418 141.017L265.943 226.618C265.943 226.618 248.346 229.702 241.166 224.954L245.059 197.904L248.521 142.574L263.418 141.02V141.017Z" fill="#111133"/>
<path d="M263.587 140.852L264.957 193.219L255.845 151.996L263.587 140.852Z" fill="#1D1952"/>
<path d="M225.417 222.566L225.276 228.641C225.276 228.641 229.612 228.513 229.765 231.475L225.695 231.6C225.695 231.6 223.216 234.8 226.769 241.046C228.186 247.165 223.7 244.577 223.394 246.609C222.941 249.609 217.016 244.465 216.077 238.352C214.859 230.445 216.473 229.493 216.473 229.493L218.265 223.487L225.42 222.562L225.417 222.566Z" fill="#F37B51"/>
<path d="M261.022 120.016C263.398 130.939 272.279 138.282 280.858 136.415C289.436 134.548 294.465 124.181 292.09 113.258C289.714 102.335 280.833 94.9925 272.254 96.8593C263.676 98.7261 258.647 109.093 261.022 120.016Z" fill="#F37B51"/>
<path d="M286.899 117.432C287.77 117.691 288.687 117.198 288.947 116.327C289.206 115.456 288.712 114.538 287.841 114.279C286.97 114.02 286.053 114.513 285.794 115.384C285.534 116.255 286.028 117.173 286.899 117.432Z" fill="#010101"/>
<path d="M273.46 116.967C273.894 117.769 274.896 118.072 275.698 117.638C276.501 117.204 276.803 116.202 276.369 115.4C275.935 114.597 274.933 114.295 274.131 114.728C273.329 115.162 273.026 116.164 273.46 116.967Z" fill="#010101"/>
<path d="M284.052 116.174C285.232 118.859 286.743 122.143 286.743 122.143C286.743 122.143 285.466 124.606 282.035 124.144C283.571 123.757 285.148 122.989 284.838 120.972C284.529 118.955 284.052 116.171 284.052 116.171V116.174Z" fill="#DE623C"/>
<path d="M271.664 114.466C271.979 114.607 272.36 114.516 272.579 114.229C272.629 114.163 273.899 112.553 275.46 113.233C275.847 113.402 276.294 113.224 276.462 112.84C276.631 112.453 276.453 112.003 276.069 111.838C273.94 110.911 272.061 112.393 271.364 113.308C271.108 113.642 271.174 114.12 271.508 114.376C271.558 114.413 271.608 114.444 271.661 114.466H271.664Z" fill="#111133"/>
<path d="M290.273 114.466C289.958 114.607 289.577 114.516 289.358 114.229C289.308 114.163 288.038 112.553 286.477 113.233C286.09 113.402 285.643 113.224 285.475 112.84C285.306 112.453 285.484 112.003 285.868 111.838C287.997 110.911 289.876 112.393 290.573 113.308C290.829 113.642 290.763 114.12 290.426 114.376C290.376 114.413 290.326 114.444 290.273 114.466Z" fill="#111133"/>
<path d="M262.705 120.463C263.161 116.43 266.576 117.685 267.553 112.409C268.53 107.133 269.492 103.156 274.44 104.605C279.388 106.053 280.73 104.998 282.903 104.033C289.437 101.133 291.853 112.262 291.853 112.262C291.853 112.262 296.579 103.322 291.694 98.4329C286.277 93.0135 284.679 96.7347 279.637 92.7981C274.596 88.8616 266.548 90.2227 264.591 93.3538C262.527 96.6535 261.95 99.1165 256.949 101.027C251.951 102.938 249.129 106.74 252.962 112.287C256.796 117.834 249.126 120.678 255.993 126.17C258.656 128.302 263.567 129.285 264.472 128.342C265.686 127.081 262.412 123.063 262.705 120.466V120.463Z" fill="#111133"/>
<path d="M292.671 119.245C292.671 119.245 291.841 124.674 290.626 126.329C290.214 123.787 287.814 125.913 285.981 125.795C281.555 125.504 274.059 122.514 271.996 128.829C266.392 129.447 263.458 117.4 263.458 117.4C260.642 129.944 268.687 138.719 282.379 139.271C291.401 139.633 294.763 128.183 292.671 119.245Z" fill="#111133"/>
<path d="M287.536 129.348C287.798 129.011 287.536 128.521 287.108 128.561C286.022 128.664 284.23 128.798 282.519 128.755C280.812 128.714 279.026 128.493 277.946 128.34C277.521 128.277 277.234 128.752 277.481 129.104C278.239 130.181 279.825 131.83 282.444 131.892C285.063 131.955 286.724 130.387 287.536 129.348Z" fill="white"/>
<path d="M264.422 117.722C266.273 119.711 266.454 122.555 264.828 124.069C263.198 125.586 260.379 125.199 258.525 123.21C256.674 121.222 256.493 118.378 258.119 116.864C259.749 115.35 262.568 115.734 264.422 117.722Z" fill="#F37B51"/>
<path d="M262.308 123.148C262.393 123.123 262.474 123.076 262.542 123.008C263.529 122.059 263.804 120.854 263.273 119.789C262.73 118.7 261.5 118.041 260.348 118.225C260.023 118.278 259.801 118.581 259.855 118.906C259.908 119.23 260.21 119.452 260.535 119.399C261.166 119.299 261.902 119.702 262.208 120.32C262.505 120.913 262.33 121.562 261.718 122.152C261.481 122.38 261.475 122.755 261.703 122.992C261.865 123.161 262.099 123.214 262.308 123.148Z" fill="#DE623C"/>
<path d="M275.131 148.805L267.563 155.536L261.707 143.555L263.705 140.539L275.131 148.805Z" fill="white"/>
<path d="M275.13 148.805L280.946 154.983L286.421 144.3L284.654 141.038L275.13 148.805Z" fill="white"/>
<path d="M228.322 338.029C227.717 331.973 230.838 285.884 230.838 285.884C239.676 245.364 236.205 216.356 236.205 216.356L221.014 217.424L215.027 240.322L217.864 278.563C217.864 278.563 216.8 281.507 216.235 283.861C213.185 296.626 216.222 311.882 218.102 322.049C218.973 326.76 220.324 336.662 220.362 338.916L216.547 343.848C216.547 343.848 230.358 359.132 232.48 359.229C236.611 359.416 235.393 355.327 235.393 355.327C229.718 349.499 228.491 339.771 228.316 338.036L228.322 338.029Z" fill="#F37B51"/>
<path d="M216.313 349.258L217.071 359.079L218.835 359.161L219.728 350.042C224.426 351.241 227.791 359.766 227.791 359.766C231.028 360.927 239.251 361.723 242.179 360.216C242.885 357.347 235.38 355.336 235.38 355.336C234.703 356.139 230.694 356.754 229.271 355.895C224.033 351.434 221.476 344.947 220.361 338.916C220.361 338.916 212.083 339.494 216.309 349.265L216.313 349.258Z" fill="#F37268"/>
<path d="M223.184 219.303L201.787 216.356C193.602 234.875 190.933 267.119 188.713 278.604C179.795 293.56 176.963 338.91 176.963 338.91L173.148 343.842C173.148 343.842 186.959 359.126 189.082 359.223C193.212 359.41 191.994 355.321 191.994 355.321C186.319 349.492 185.211 341.747 184.846 340.043C184.293 337.483 202.165 287.17 202.165 287.17L204.072 282.397C225.9 246.344 229.483 219.088 229.483 219.088L223.19 219.303H223.184Z" fill="#F37B51"/>
<path d="M172.908 349.258L173.667 359.079L175.431 359.161L176.323 350.042C181.022 351.241 184.387 359.766 184.387 359.766C187.624 360.927 195.847 361.723 198.775 360.216C199.48 357.347 191.976 355.336 191.976 355.336C191.298 356.139 187.29 356.754 185.867 355.895C180.628 351.434 178.072 344.947 176.957 338.916C176.957 338.916 168.678 339.494 172.905 349.265L172.908 349.258Z" fill="#F37268"/>
<path d="M231.029 166.768C237.997 164.342 252.8 156.866 245.786 146.786C238.771 136.705 235.793 140.929 238.49 128.811C241.187 116.689 232.656 107.04 224.392 109.368C216.132 111.697 213.956 118.337 203.879 116.539C193.806 114.741 185.311 124.091 189.02 132.319C192.729 140.548 194.308 144.507 190.706 148.999C187.103 153.491 171.042 158.196 177.597 169.128C184.153 180.06 187.222 179.423 184.843 184.964C182.464 190.502 187.743 196.899 197.033 196.137C206.324 195.372 214.762 191.957 218.28 181.634C221.798 171.307 231.026 166.774 231.026 166.774L231.029 166.768Z" fill="#010101"/>
<path d="M229.181 163.593C232.334 163.921 236.064 165.522 237.419 169.271C238.777 173.02 237.912 182.823 237.912 182.823L229.181 163.593Z" fill="#DB6258"/>
<path d="M211.733 153.479L211.836 167.202C211.836 167.202 218.495 171.254 223.755 168.02C222.947 163.974 221.77 154.749 221.77 154.749L211.733 153.479Z" fill="#F37B51"/>
<path d="M217.097 156.01C224.683 156.01 230.833 147.743 230.833 137.545C230.833 127.347 224.683 119.08 217.097 119.08C209.511 119.08 203.361 127.347 203.361 137.545C203.361 147.743 209.511 156.01 217.097 156.01Z" fill="#F37B51"/>
<path d="M202.446 137.546C210.029 136.575 217.077 132.351 221.061 126.891C223.633 133.272 230.832 137.546 230.832 137.546C230.832 137.546 236.226 125.34 226.415 118.753C217.056 112.472 194.726 116.764 202.446 137.546Z" fill="#010101"/>
<path d="M211.318 141.485C210.513 141.485 209.857 140.833 209.857 140.024C209.857 139.216 210.51 138.563 211.318 138.563C212.127 138.563 212.779 139.216 212.779 140.024C212.779 140.833 212.127 141.485 211.318 141.485Z" fill="#010101"/>
<path d="M222.953 141.485C222.148 141.485 221.492 140.833 221.492 140.024C221.492 139.216 222.145 138.563 222.953 138.563C223.762 138.563 224.414 139.216 224.414 140.024C224.414 140.833 223.762 141.485 222.953 141.485Z" fill="#010101"/>
<path d="M225.526 138.71C225.285 138.71 225.054 138.589 224.923 138.367C224.561 137.758 224.127 137.396 223.624 137.284C222.76 137.093 221.901 137.671 221.892 137.674C221.573 137.892 221.136 137.811 220.918 137.496C220.699 137.178 220.774 136.744 221.09 136.525C221.143 136.488 222.441 135.595 223.909 135.91C224.811 136.104 225.557 136.691 226.125 137.652C226.322 137.986 226.212 138.414 225.878 138.614C225.766 138.679 225.644 138.71 225.522 138.71H225.526Z" fill="#010101"/>
<path d="M208.549 138.782C208.396 138.782 208.24 138.732 208.112 138.629C207.809 138.385 207.762 137.945 208.003 137.643C208.924 136.491 209.945 135.866 211.034 135.782C212.439 135.673 213.407 136.541 213.447 136.578C213.734 136.84 213.753 137.284 213.491 137.568C213.232 137.852 212.792 137.874 212.504 137.614C212.483 137.596 211.908 137.112 211.125 137.181C210.444 137.24 209.76 137.689 209.095 138.52C208.958 138.691 208.752 138.782 208.549 138.782Z" fill="#010101"/>
<path d="M218.545 141.941C220.433 143.302 221.02 143.86 221.751 144.313C221.248 145.999 218.604 146.836 217.852 146.642C219.693 145.734 219.952 144.504 219.952 144.504L218.545 141.938V141.941Z" fill="#DE623C"/>
<path d="M205.412 138.969C206.985 140.963 207.063 143.523 205.587 144.691C204.11 145.858 201.635 145.187 200.061 143.192C198.488 141.198 198.41 138.638 199.886 137.47C201.363 136.303 203.839 136.974 205.412 138.969Z" fill="#F37B51"/>
<path d="M204.032 143.277C203.973 143.277 203.91 143.265 203.851 143.24C203.614 143.14 203.501 142.865 203.601 142.628C203.935 141.838 203.942 141.201 203.623 140.739C203.13 140.025 201.969 139.803 201.126 139.831C200.867 139.84 200.651 139.637 200.642 139.378C200.633 139.119 200.835 138.904 201.095 138.894C202.228 138.857 203.689 139.182 204.394 140.209C204.744 140.721 205.044 141.617 204.463 142.99C204.388 143.168 204.213 143.274 204.032 143.274V143.277Z" fill="#DE623C"/>
<path d="M213.454 149.136C213.257 148.818 213.535 148.418 213.903 148.496C214.837 148.693 216.379 148.986 217.868 149.117C219.354 149.252 220.927 149.236 221.879 149.208C222.254 149.195 222.457 149.639 222.207 149.917C221.442 150.778 219.903 152.052 217.624 151.849C215.346 151.646 214.056 150.12 213.457 149.136H213.454Z" fill="white"/>
<path d="M199.621 162.885C199.621 162.885 181.828 170.78 171.885 191.449C177.691 199.621 183.957 194.761 183.957 194.761L200.533 181.815C200.533 181.815 204.747 174.185 204.204 170.162C203.396 164.183 199.621 162.885 199.621 162.885Z" fill="#DB6258"/>
<path d="M202.68 276.956C196.955 275.919 191.464 275.925 188.242 275.997C190.281 269.179 189.119 226.642 202.04 212.167L235.128 212.604C246.637 232.355 240.541 262.421 247.652 274.408C244.874 275.751 238.839 278.314 228.638 279.344C217.359 280.483 212.351 278.704 202.677 276.956H202.68Z" fill="#111235"/>
<path d="M234.84 203.967C234.84 197.208 240.697 187.081 237.89 180.257C235.846 174.769 232.262 164.873 228.079 163.334C226.106 162.61 225.135 162.054 222.675 161.374C222.675 161.374 222.547 166.602 219.656 166.837C214.09 167.283 211.786 160.125 211.786 160.125C208.786 159.838 197.698 162.984 197.704 164.114C197.735 172.968 201.631 187.284 203.982 196.858C204.419 201.731 204.072 205.512 203.585 208.271C202.693 211.147 201.151 212.626 201.144 213.248C201.144 213.248 222.232 220.424 235.359 213.198C235.359 213.198 234.843 208.534 234.843 203.967H234.84Z" fill="#F58880"/>
<path d="M209.33 160.306C209.33 160.306 215.839 184.58 215.839 194.841C215.839 206.504 209.857 226.168 209.857 226.168L195.223 225.597C195.223 225.597 197.015 217.405 201.479 210.122C206.089 202.602 201.026 186.566 199.912 182.298C198.797 178.031 196.98 164.27 196.98 164.27C196.98 164.27 203.074 160.271 209.327 160.309L209.33 160.306Z" fill="#F37268"/>
<path d="M224.838 162.063C226.293 165.154 231.918 177.816 231.568 185.514C231.219 193.212 230.501 219.647 232.611 226.84C237.868 226.683 240.269 225.098 240.269 225.098C241.018 223.069 233.142 211.428 235.261 202.381C237.384 193.334 239.235 186.888 238.652 183.182C237.996 179.027 234.781 168.494 229.18 163.596C227.204 162.722 224.838 162.067 224.838 162.067V162.063Z" fill="#F37268"/>
<path d="M197.679 210.325L198.619 210.719C198.619 210.719 200.529 208.14 202.483 208.237L201.291 210.75C201.291 210.75 203.535 214.443 209.451 214.053C214.505 215.202 210.968 217.599 212.367 218.561C214.43 219.975 208.643 223.452 203.766 221.954C197.457 220.012 193.355 214.053 193.355 214.053L197.679 210.325Z" fill="#F37B51"/>
<path d="M197.679 210.326L184.28 193.412C184.28 193.412 181.458 188.015 171.884 191.449C171.422 196.596 176.926 203.608 194.001 214.902L197.679 210.326Z" fill="#DB6258"/>
<path d="M411.195 113.835C399.286 110.473 375.498 120.104 382.422 163.421C389.343 206.735 420.488 200.726 420.488 200.726C420.488 200.726 434.78 196.233 436.063 168.715C437.346 141.197 431.221 119.489 411.195 113.838V113.835Z" fill="#0F123F"/>
<path d="M396.629 173.872C394.094 181.174 384.579 195.459 381.182 198.078C378.919 194.856 370.568 196.461 370.568 196.461C370.568 196.461 378.919 176.223 386.461 166.417C389.979 159.812 400.793 161.956 396.629 173.872Z" fill="#7D90C8"/>
<path d="M370.568 196.464C372.189 205.364 382.949 216.934 382.949 216.934C382.949 216.934 384.16 216.237 384.423 210.993C383.09 207.4 381.185 198.081 381.185 198.081C381.185 198.081 376.949 193.53 370.571 196.464H370.568Z" fill="#F37B51"/>
<path d="M400.852 153.176L409.727 151.846L409.022 160.084C409.022 160.084 404.527 168.185 400.262 166.789C395.998 165.394 398.077 161.817 398.077 161.817L400.852 153.176Z" fill="#F37B51"/>
<path d="M416.83 139.808C415.388 149.542 408.02 156.515 400.375 155.382C392.73 154.249 387.701 145.44 389.143 135.703C390.585 125.969 397.953 118.995 405.598 120.128C413.243 121.262 418.272 130.071 416.83 139.808Z" fill="#F37B51"/>
<path d="M408.52 137.183C408.414 137.152 408.317 137.086 408.248 136.986C407.259 135.563 405.264 135.603 405.245 135.603C404.967 135.612 404.733 135.391 404.724 135.113C404.715 134.835 404.933 134.601 405.211 134.592C405.314 134.589 407.771 134.526 409.079 136.405C409.238 136.633 409.182 136.952 408.954 137.111C408.823 137.201 408.664 137.223 408.52 137.18V137.183Z" fill="#0F123F"/>
<path d="M391.469 136.899C391.419 136.88 391.369 136.852 391.325 136.815C391.113 136.634 391.085 136.315 391.266 136.1C392.671 134.445 394.622 134.907 394.703 134.929C394.975 134.998 395.14 135.272 395.072 135.541C395.003 135.813 394.731 135.975 394.46 135.909C394.397 135.894 393.024 135.588 392.037 136.752C391.894 136.921 391.663 136.974 391.466 136.896L391.469 136.899Z" fill="#0F123F"/>
<path d="M398.53 141.019C397.894 141.8 397.344 142.596 396.714 143.077C396.501 143.239 396.454 143.545 396.607 143.767C397.232 144.675 398.877 145.324 399.879 145.652C400.026 145.699 400.126 145.505 400.001 145.415C398.949 144.647 398.474 144.054 398.268 143.723C398.165 143.557 398.15 143.358 398.221 143.177C398.387 142.764 398.715 141.922 398.924 141.232C398.996 140.994 398.687 140.829 398.527 141.023L398.53 141.019Z" fill="#DE623C"/>
<path d="M404.936 148.372C405.129 148.075 404.876 147.688 404.527 147.753C403.637 147.913 402.163 148.15 400.749 148.234C399.335 148.318 397.846 148.262 396.944 148.209C396.588 148.187 396.385 148.599 396.613 148.874C397.315 149.711 398.739 150.963 400.905 150.831C403.072 150.7 404.336 149.289 404.936 148.375V148.372Z" fill="white"/>
<path d="M419.942 138.915C410.898 138.506 399.004 130.159 397.568 125.576C398.801 119.81 403.35 116.551 408.779 118.693C414.207 120.834 423.104 131.514 419.942 138.912V138.915Z" fill="#0F123F"/>
<path d="M399.635 127.895C399.635 127.895 394.253 133.365 388.803 134.613C390.71 128.233 392.071 123.397 395.343 121.83C398.611 120.263 402.223 119.991 402.223 119.991L399.635 127.895Z" fill="#0F123F"/>
<path d="M414.716 138.297C413.021 139.874 412.694 142.274 413.983 143.663C415.272 145.049 417.692 144.896 419.387 143.32C421.082 141.743 421.409 139.343 420.12 137.957C418.831 136.571 416.412 136.724 414.716 138.3V138.297Z" fill="#F37B51"/>
<path d="M416.178 143.032C416.106 143.004 416.04 142.961 415.987 142.898C415.207 142.03 415.051 140.991 415.566 140.12C416.093 139.227 417.18 138.743 418.147 138.971C418.419 139.037 418.588 139.308 418.525 139.58C418.46 139.851 418.188 140.02 417.916 139.958C417.386 139.833 416.74 140.129 416.44 140.635C416.153 141.119 416.259 141.684 416.743 142.221C416.93 142.427 416.911 142.748 416.705 142.936C416.558 143.067 416.356 143.098 416.181 143.029L416.178 143.032Z" fill="#DE623C"/>
<path d="M407.549 138.672C407.549 139.53 406.853 140.226 405.994 140.226C405.136 140.226 404.439 139.53 404.439 138.672C404.439 137.813 405.136 137.117 405.994 137.117C406.853 137.117 407.549 137.813 407.549 138.672Z" fill="#010101"/>
<path d="M396.226 138.672C396.226 139.53 395.53 140.226 394.672 140.226C393.813 140.226 393.117 139.53 393.117 138.672C393.117 137.813 393.813 137.117 394.672 137.117C395.53 137.117 396.226 137.813 396.226 138.672Z" fill="#010101"/>
<path d="M392.542 339.746C393.135 333.818 390.079 288.7 390.079 288.7C381.429 249.035 384.825 220.643 384.825 220.643L399.694 221.688L405.553 244.102L402.775 281.535C402.775 281.535 403.818 284.417 404.37 286.72C407.355 299.217 404.383 314.148 402.544 324.1C401.692 328.714 400.368 338.407 400.334 340.608L404.071 345.437C404.071 345.437 390.554 360.4 388.471 360.493C384.429 360.674 385.621 356.672 385.621 356.672C391.178 350.966 392.377 341.445 392.548 339.746H392.542Z" fill="#F37B51"/>
<path d="M404.295 350.737L403.552 360.349L401.826 360.427L400.952 351.499C396.354 352.673 393.057 361.017 393.057 361.017C389.889 362.154 381.838 362.934 378.972 361.458C378.279 358.648 385.627 356.681 385.627 356.681C386.292 357.468 390.213 358.07 391.606 357.228C396.735 352.86 399.235 346.511 400.328 340.607C400.328 340.607 408.432 341.172 404.295 350.737Z" fill="#DB6258"/>
<path d="M397.568 223.527L418.515 220.643C426.529 238.771 429.139 270.331 431.314 281.576C440.046 296.214 442.818 340.608 442.818 340.608L446.555 345.437C446.555 345.437 433.038 360.4 430.955 360.493C426.913 360.674 428.105 356.672 428.105 356.672C433.662 350.966 434.745 343.386 435.104 341.719C435.644 339.212 418.15 289.964 418.15 289.964L416.283 285.291C394.915 249.999 391.409 223.318 391.409 223.318L397.571 223.527H397.568Z" fill="#F37B51"/>
<path d="M446.786 350.737L446.043 360.349L444.316 360.427L443.442 351.499C438.844 352.673 435.547 361.017 435.547 361.017C432.379 362.154 424.328 362.934 421.462 361.458C420.769 358.648 428.118 356.681 428.118 356.681C428.783 357.468 432.704 358.07 434.096 357.228C439.225 352.86 441.725 346.511 442.818 340.607C442.818 340.607 450.922 341.172 446.786 350.737Z" fill="#DB6258"/>
<path d="M436.512 279.515C434.42 272.516 435.332 222.422 416.864 208.802L385.087 212.151C377.745 224.039 380.439 254.966 382.912 280.421C397.852 285.753 409.73 287.894 436.512 279.519V279.515Z" fill="#111235"/>
<path d="M384.697 204.309C384.697 197.351 378.666 186.924 381.557 179.9C383.664 174.25 387.351 164.061 391.659 162.478C393.691 161.732 395.611 161.913 398.142 161.214C398.142 161.214 397.356 165.843 400.331 166.083C406.062 166.542 409.075 159.197 409.075 159.197C412.165 158.9 422.942 162.119 422.935 163.28C422.901 172.396 418.893 187.137 416.47 196.992C416.021 202.012 416.377 205.901 416.879 208.742C417.797 211.701 418.918 213.397 418.924 214.037C418.924 214.037 397.68 221.254 384.166 213.812C384.166 213.812 384.697 209.007 384.697 204.309Z" fill="#97A5D4"/>
<path d="M422.492 210.924L420.681 211.649C420.681 211.649 418.796 208.649 416.882 208.742L417.837 211.608C417.837 211.608 416.754 214.958 410.957 214.577C406.006 215.704 409.468 218.055 408.098 218.994C406.075 220.38 411.747 223.789 416.529 222.319C422.714 220.418 426.731 214.577 426.731 214.577L422.492 210.924Z" fill="#F37B51"/>
<path d="M422.492 162.734C422.492 162.734 437.626 171.599 444.956 192.849C438.375 200.148 432.828 194.7 432.828 194.7L418.165 180.212C418.165 180.212 413.854 174.918 415.918 168.449C417.713 162.818 422.495 162.73 422.495 162.73L422.492 162.734Z" fill="#F37B51"/>
<path d="M422.492 210.924L433.072 195.428C433.072 195.428 435.572 189.484 444.953 192.849C445.406 197.894 441.754 205.077 425.018 216.147C423.938 213.322 422.489 210.921 422.489 210.921L422.492 210.924Z" fill="#F37B51"/>
<path d="M400.334 166.08C399.822 168.465 401.208 171.322 405.201 169.983C409.984 168.378 412.219 159.397 412.219 159.397L409.219 157.773C409.219 157.773 406.94 163.976 400.331 166.08H400.334Z" fill="white"/>
<path d="M400.334 166.081C399.744 167.308 396.379 170.458 394.784 168.581C393.189 166.705 395.049 161.782 395.049 161.782L398.677 159.94C398.677 159.94 397.253 164.373 400.331 166.081H400.334Z" fill="white"/>
<path d="M422.492 162.734C422.492 162.734 437.626 171.599 444.956 192.849C438.375 200.148 432.257 194.135 432.257 194.135L418.165 180.212C418.165 180.212 413.854 174.918 415.918 168.449C417.713 162.818 422.495 162.73 422.495 162.73L422.492 162.734Z" fill="#7D90C8"/>
<path d="M381.223 218.142C381.332 218.067 381.451 218.02 381.573 217.983C381.56 217.964 381.545 217.948 381.532 217.93C380.783 216.84 380.808 215.52 381.592 214.983C381.72 214.895 381.863 214.836 382.01 214.798C381.791 213.987 381.96 213.203 382.519 212.819C382.74 212.666 382.999 212.598 383.274 212.594C383.003 211.795 383.193 210.949 383.817 210.522C384.601 209.985 385.753 210.303 386.393 211.233C387.033 212.164 386.917 213.353 386.134 213.893C385.937 214.03 385.712 214.109 385.481 214.14C386.024 215.157 385.94 216.284 385.231 216.768C385.103 216.856 384.963 216.915 384.813 216.952C385.032 217.767 384.863 218.548 384.304 218.932C384.098 219.072 383.861 219.144 383.608 219.156C383.883 219.853 383.73 220.611 383.177 220.992C382.516 221.445 381.542 221.176 381.002 220.389C380.461 219.603 380.558 218.598 381.22 218.145L381.223 218.142Z" fill="#F37B51"/>
<path d="M315.282 350.135L309.213 352.954L306.135 346.533L297.319 288.887C298.843 269.604 313.609 228.581 313.609 228.581L330.659 253.374L311.305 292.374C318.909 300.156 314.305 324.106 315.282 350.135Z" fill="#F37B51"/>
<path d="M323.611 229.942C323.764 228.749 342.791 227.045 342.791 227.045C346.393 242.082 346.677 266.398 343.837 282.999C347.998 297.368 346 331.142 343.684 348.368L333.657 348.343C332.998 339.037 333.488 308.569 325.281 282.999C323.658 273.393 322.955 236.341 323.614 229.939L323.611 229.942Z" fill="#F37B51"/>
<path d="M310.037 350.423C308.792 346.923 306.135 346.533 306.135 346.533C300.966 353.919 288.269 349.386 288.691 359.376C307.999 359.248 316.022 359.376 316.022 359.376C315.997 357.082 315.616 351.634 315.17 349.505L314.164 349.696L310.04 350.42L310.037 350.423Z" fill="#F37268"/>
<path d="M313.964 362.045H290.735C289.602 362.045 288.681 361.124 288.681 359.991V359.104H316.021V359.991C316.021 361.124 315.101 362.048 313.964 362.048V362.045Z" fill="white"/>
<path d="M331.265 359.475C331.265 359.475 332.813 353.282 332.95 352.486C333.106 351.58 333.562 349.442 333.653 348.346C333.675 348.078 336.337 346.333 338.37 346.336C341.123 346.339 343.63 348.05 343.683 348.371C344.008 350.438 344.017 352.867 344.545 354.88C344.935 356.379 345.999 359.866 345.999 359.866L331.265 359.475Z" fill="#F37268"/>
<path d="M331.265 358.995C331.627 360.225 336.082 358.805 339.335 358.808C342.066 358.808 345.597 359.941 346 359.501C346.683 360.793 346.121 363.468 346.121 363.468C346.121 363.468 343.278 363.624 339.866 363.468C336.453 363.312 332.508 363.543 331.025 363.072C330.088 361.392 331.271 358.995 331.271 358.995H331.265Z" fill="white"/>
<path d="M299.892 129.094C299.267 120.591 301.727 113.077 308.504 109.253C315.375 105.375 323.985 109.178 323.985 109.178C323.985 109.178 331.271 106.584 337.877 113.86C344.482 121.134 339.485 127.537 342.188 132.844C343.789 135.984 351.925 136.633 349.824 146.866C349.218 149.816 345.669 151.805 342.659 152.002C337.377 152.348 332.458 150.307 330.316 152.348C323.258 159.079 307.621 156.644 305.433 150.488C304.755 148.58 290.689 152.273 292.09 139.271C292.802 132.684 300.447 136.69 299.888 129.091L299.892 129.094Z" fill="#010101"/>
<path d="M315.603 147.462L324.671 146.104L323.95 154.521C323.95 154.521 321.266 162.387 315.915 162.537C310.567 162.687 312.55 156.381 312.55 156.381L315.603 147.462Z" fill="#F37B51"/>
<path d="M299.101 199.699C299.101 192.591 292.939 181.939 295.892 174.762C298.043 168.99 301.636 159.297 306.038 157.68C308.114 156.918 310.199 156.4 312.787 155.682C312.787 155.682 312.031 160.399 315.072 160.643C320.925 161.111 324.028 153.581 324.028 153.581C327.184 153.278 341.532 157.999 342.206 160.309C342.172 169.621 334.03 182.151 331.555 192.219C330.581 203.092 332.906 208.898 332.919 210.135C332.919 210.135 312.362 217.006 298.555 209.404C298.555 209.404 299.098 204.497 299.098 199.696L299.101 199.699Z" fill="#6E86C3"/>
<path d="M332.342 135.282C330.484 145.162 322.689 151.989 314.929 150.531C307.168 149.073 302.383 139.88 304.24 130C306.097 120.119 313.892 113.292 321.653 114.75C329.414 116.208 334.199 125.401 332.342 135.282Z" fill="#F37B51"/>
<path d="M324.042 131.305C323.932 131.28 323.829 131.22 323.751 131.124C322.643 129.741 320.614 129.922 320.592 129.922C320.308 129.95 320.055 129.741 320.027 129.46C319.999 129.176 320.205 128.923 320.489 128.895C320.595 128.882 323.093 128.651 324.557 130.477C324.735 130.699 324.7 131.024 324.475 131.205C324.347 131.308 324.188 131.339 324.038 131.305H324.042Z" fill="#010101"/>
<path d="M307.353 131.158C307.3 131.143 307.25 131.118 307.2 131.083C306.969 130.918 306.912 130.593 307.081 130.362C308.37 128.558 310.396 128.864 310.481 128.879C310.762 128.926 310.952 129.192 310.908 129.473C310.861 129.754 310.599 129.944 310.318 129.9C310.253 129.891 308.829 129.694 307.924 130.965C307.793 131.149 307.562 131.221 307.356 131.158H307.353Z" fill="#010101"/>
<path d="M313.665 135.294C313.056 136 312.538 136.727 311.926 137.133C311.72 137.27 311.686 137.57 311.845 137.804C312.5 138.778 314.171 139.611 315.185 140.048C315.332 140.111 315.426 139.93 315.298 139.827C314.221 138.943 313.724 138.3 313.506 137.948C313.396 137.773 313.375 137.57 313.44 137.398C313.59 137.008 313.887 136.209 314.071 135.547C314.136 135.319 313.818 135.119 313.668 135.294H313.665Z" fill="#DE623C"/>
<path d="M320.286 142.864C320.48 142.555 320.214 142.168 319.855 142.24C318.95 142.421 317.452 142.693 316.006 142.805C314.564 142.921 313.041 142.893 312.116 142.855C311.754 142.84 311.551 143.267 311.792 143.539C312.525 144.382 314.005 145.63 316.215 145.452C318.426 145.278 319.69 143.81 320.28 142.861L320.286 142.864Z" fill="white"/>
<path d="M320.029 132.916C320.029 133.799 320.744 134.514 321.628 134.514C322.511 134.514 323.226 133.799 323.226 132.916C323.226 132.032 322.511 131.317 321.628 131.317C320.744 131.317 320.029 132.032 320.029 132.916Z" fill="#010101"/>
<path d="M308.229 132.916C308.229 133.799 308.944 134.514 309.828 134.514C310.711 134.514 311.426 133.799 311.426 132.916C311.426 132.032 310.711 131.317 309.828 131.317C308.944 131.317 308.229 132.032 308.229 132.916Z" fill="#010101"/>
<path d="M312.594 114.329C316.084 111.007 322.365 109.552 326.477 111.36C331.937 113.761 337.531 124.93 334.009 132.357C326.789 131.748 317.083 126.282 312.597 121.665C311.352 122.776 308.205 125.417 304.206 127.531C303.729 124.003 310.977 115.028 312.594 114.332V114.329Z" fill="#010101"/>
<path d="M330.185 131.295C328.393 132.837 327.962 135.275 329.223 136.743C330.484 138.21 332.96 138.147 334.752 136.605C336.544 135.063 336.974 132.625 335.713 131.158C334.452 129.691 331.977 129.753 330.185 131.295Z" fill="#F37B51"/>
<path d="M331.489 136.187C331.418 136.156 331.352 136.109 331.299 136.043C330.537 135.125 330.415 134.061 330.977 133.19C331.552 132.3 332.679 131.851 333.656 132.119C333.931 132.194 334.093 132.481 334.015 132.756C333.94 133.031 333.653 133.193 333.378 133.118C332.841 132.971 332.167 133.249 331.842 133.752C331.53 134.236 331.617 134.816 332.089 135.381C332.27 135.6 332.242 135.928 332.023 136.109C331.867 136.24 331.658 136.262 331.483 136.184L331.489 136.187Z" fill="#DE623C"/>
<path d="M353.566 277.474C343.149 264.609 350.779 218.985 331.914 205.071L299.498 207.709C288.678 221.732 296.18 251.741 287.292 280.333C302.554 285.781 326.211 286.03 353.57 277.474H353.566Z" fill="#6E86C3"/>
<path d="M340.256 209.342L338.351 210.103C338.351 210.103 336.366 206.947 334.352 207.047L335.354 210.063C335.354 210.063 334.215 213.587 328.118 213.185C322.908 214.368 326.554 216.84 325.112 217.83C322.983 219.288 328.952 222.874 333.978 221.326C340.483 219.325 344.71 213.181 344.71 213.181L340.252 209.342H340.256Z" fill="#F37B51"/>
<path d="M340.256 209.341L351.385 193.043C351.385 193.043 354.013 186.79 363.881 190.333C364.359 195.64 360.516 203.195 342.916 214.839C341.779 211.867 340.256 209.345 340.256 209.345V209.341Z" fill="#F37B51"/>
<path d="M340.255 158.654C340.255 158.654 356.173 167.979 363.881 190.331C356.957 198.004 350.523 191.685 350.523 191.685L335.701 177.038C335.701 177.038 331.168 171.469 333.335 164.667C335.223 158.742 340.252 158.654 340.252 158.654H340.255Z" fill="#F37B51"/>
<path d="M311.47 157.536C311.47 158.37 310.796 159.044 309.959 159.044C309.122 159.044 308.451 158.37 308.451 157.536C308.451 156.703 309.125 156.028 309.959 156.028C310.792 156.028 311.47 156.703 311.47 157.536Z" fill="white"/>
<path d="M311.47 160.555C311.47 161.388 310.796 162.066 309.959 162.066C309.122 162.066 308.451 161.388 308.451 160.555C308.451 159.721 309.125 159.044 309.959 159.044C310.792 159.044 311.47 159.721 311.47 160.555Z" fill="white"/>
<path d="M311.957 163.309C311.957 164.142 311.283 164.82 310.449 164.82C309.616 164.82 308.938 164.142 308.938 163.309C308.938 162.475 309.616 161.798 310.449 161.798C311.283 161.798 311.957 162.472 311.957 163.309Z" fill="white"/>
<path d="M313.702 165.476C313.702 166.309 313.025 166.986 312.191 166.986C311.358 166.986 310.684 166.309 310.684 165.476C310.684 164.642 311.361 163.968 312.191 163.968C313.022 163.968 313.702 164.642 313.702 165.476Z" fill="white"/>
<path d="M316.568 166.327C316.568 167.161 315.89 167.838 315.057 167.838C314.223 167.838 313.549 167.164 313.549 166.327C313.549 165.491 314.223 164.819 315.057 164.819C315.89 164.819 316.568 165.494 316.568 166.327Z" fill="white"/>
<path d="M319.384 165.476C319.384 166.309 318.71 166.986 317.876 166.986C317.043 166.986 316.365 166.309 316.365 165.476C316.365 164.642 317.043 163.968 317.876 163.968C318.71 163.968 319.384 164.642 319.384 165.476Z" fill="white"/>
<path d="M321.859 163.964C321.859 164.798 321.184 165.472 320.348 165.472C319.511 165.472 318.837 164.798 318.837 163.964C318.837 163.131 319.514 162.453 320.348 162.453C321.181 162.453 321.859 163.131 321.859 163.964Z" fill="white"/>
<path d="M323.851 162.067C323.851 162.9 323.176 163.578 322.34 163.578C321.503 163.578 320.832 162.9 320.832 162.067C320.832 161.233 321.509 160.556 322.34 160.556C323.17 160.556 323.851 161.233 323.851 162.067Z" fill="white"/>
<path d="M325.908 160.165C325.908 160.999 325.231 161.676 324.401 161.676C323.57 161.676 322.89 161.002 322.89 160.165C322.89 159.328 323.564 158.657 324.401 158.657C325.237 158.657 325.908 159.335 325.908 160.165Z" fill="white"/>
<path d="M327.419 157.889C327.419 158.722 326.742 159.397 325.908 159.397C325.075 159.397 324.4 158.719 324.4 157.889C324.4 157.058 325.075 156.378 325.908 156.378C326.742 156.378 327.419 157.052 327.419 157.889Z" fill="white"/>
<path d="M328.393 155.399C328.393 156.232 327.718 156.91 326.882 156.91C326.045 156.91 325.374 156.232 325.374 155.399C325.374 154.565 326.051 153.888 326.882 153.888C327.712 153.888 328.393 154.565 328.393 155.399Z" fill="white"/>
<path d="M533.981 367.561H79.7743C78.2915 367.561 77.0928 366.359 77.0928 364.876C77.0928 363.393 78.2946 362.194 79.7743 362.194H533.981C535.464 362.194 536.666 363.396 536.666 364.876C536.666 366.359 535.464 367.561 533.981 367.561Z" fill="#0F123F"/>
<path d="M431.932 271.38H201.107C195.682 271.38 191.283 268.42 191.283 264.771C191.283 261.122 195.682 258.162 201.107 258.162H431.932C437.357 258.162 441.756 261.122 441.756 264.771C441.756 268.42 437.357 271.38 431.932 271.38Z" fill="#97A5D4"/>
<path d="M287.617 364.523C285.144 364.523 283.655 361.779 285.007 359.706L345.953 266.31L351.169 269.715L290.223 363.112C289.649 363.992 288.666 364.523 287.614 364.523H287.617Z" fill="#97A5D4"/>
<path d="M345.42 364.523C347.892 364.523 349.381 361.779 348.029 359.706L287.084 266.31L281.867 269.715L342.813 363.112C343.387 363.992 344.371 364.523 345.423 364.523H345.42Z" fill="#97A5D4"/>
<path d="M441.119 363.043C439.471 363.043 438.135 361.707 438.135 360.059V307.192H444.104V360.059C444.104 361.707 442.767 363.043 441.119 363.043Z" fill="#7B8FC8"/>
<path d="M462.057 363.043C460.408 363.043 459.072 361.707 459.072 360.059V307.192H465.041V360.059C465.041 361.707 463.705 363.043 462.057 363.043Z" fill="#7B8FC8"/>
<path d="M489.528 363.043C487.88 363.043 486.544 361.707 486.544 360.059V307.192H492.513V360.059C492.513 361.707 491.177 363.043 489.528 363.043Z" fill="#7B8FC8"/>
<path d="M510.466 363.043C508.818 363.043 507.481 361.707 507.481 360.059V307.192H513.45V360.059C513.45 361.707 512.114 363.043 510.466 363.043Z" fill="#7B8FC8"/>
<path d="M477.453 228.734V291.646C477.453 292.361 476.872 292.942 476.157 292.942H437.151C433.215 292.942 430.024 296.132 430.024 300.069C430.024 304.005 433.215 307.196 437.151 307.196H484.58C488.516 307.196 491.707 304.005 491.707 300.069V228.737C491.707 224.801 488.516 221.613 484.58 221.613C480.643 221.613 477.453 224.804 477.453 228.737V228.734Z" fill="#97A5D4"/>
<path d="M515.417 221.61H484.577V294.097H515.417V221.61Z" fill="#97A5D4"/>
<path d="M508.293 228.734V291.646C508.293 292.361 507.712 292.942 506.997 292.942H467.991C464.055 292.942 460.864 296.132 460.864 300.069C460.864 304.005 464.055 307.196 467.991 307.196H515.42C519.356 307.196 522.547 304.005 522.547 300.069V228.737C522.547 224.801 519.356 221.613 515.42 221.613C511.483 221.613 508.293 224.804 508.293 228.737V228.734Z" fill="#7B8FC8"/>
<path d="M188.998 363.043C190.646 363.043 191.982 361.707 191.982 360.059V307.192H186.014V360.059C186.014 361.707 187.35 363.043 188.998 363.043Z" fill="#7B8FC8"/>
<path d="M168.061 363.043C169.709 363.043 171.045 361.707 171.045 360.059V307.192H165.076V360.059C165.076 361.707 166.412 363.043 168.061 363.043Z" fill="#7B8FC8"/>
<path d="M140.586 363.043C142.234 363.043 143.57 361.707 143.57 360.059V307.192H137.602V360.059C137.602 361.707 138.938 363.043 140.586 363.043Z" fill="#7B8FC8"/>
<path d="M119.648 363.043C121.297 363.043 122.633 361.707 122.633 360.059V307.192H116.664V360.059C116.664 361.707 118 363.043 119.648 363.043Z" fill="#7B8FC8"/>
<path d="M152.664 228.734V291.646C152.664 292.361 153.245 292.942 153.96 292.942H192.966C196.902 292.942 200.093 296.132 200.093 300.069C200.093 304.005 196.902 307.196 192.966 307.196H145.537C141.601 307.196 138.41 304.005 138.41 300.069V228.737C138.41 224.801 141.601 221.613 145.537 221.613C149.474 221.613 152.664 224.804 152.664 228.737V228.734Z" fill="#97A5D4"/>
<path d="M114.7 294.097H145.54V221.61H114.7V294.097Z" fill="#97A5D4"/>
<path d="M121.824 228.734V291.646C121.824 292.361 122.405 292.942 123.12 292.942H162.126C166.062 292.942 169.253 296.132 169.253 300.069C169.253 304.005 166.062 307.196 162.126 307.196H114.697C110.761 307.196 107.57 304.005 107.57 300.069V228.737C107.57 224.801 110.761 221.613 114.697 221.613C118.634 221.613 121.824 224.804 121.824 228.737V228.734Z" fill="#7B8FC8"/>
<path d="M461.579 204.693C454.998 202.318 444.831 197.129 451.589 187.642C458.345 178.159 458.173 182.298 455.741 170.776C453.309 159.253 461.501 150.191 469.311 152.485C477.122 154.78 479.114 161.098 488.688 159.5C498.262 157.902 506.22 166.855 502.614 174.619C499.012 182.382 497.473 186.122 500.841 190.421C504.209 194.719 519.394 199.349 513.06 209.644C506.729 219.94 503.825 219.309 506.023 224.588C508.224 229.867 503.148 235.876 494.348 235.055C485.545 234.234 477.578 230.907 474.35 221.079C471.122 211.252 461.576 204.7 461.576 204.7L461.579 204.693Z" fill="#111133"/>
<path d="M438.297 354.356L433.096 355.908L429.178 351.906C429.366 351.628 429.185 348.946 428.582 346.087L438.297 344.473C438.684 347.432 438.297 351.362 438.297 354.353V354.356Z" fill="#F37B51"/>
<path d="M433.137 354.974C431.9 351.727 429.256 351.368 429.256 351.368C424.118 358.22 411.503 354.015 411.921 363.284C431.107 363.165 439.08 363.284 439.08 363.284C439.055 361.155 438.675 356.104 438.234 354.125L437.235 354.303L433.14 354.977L433.137 354.974Z" fill="#F37268"/>
<path d="M403.711 355.324L398.298 355.695L395.186 352.38C395.429 352.149 396.019 348.044 396.057 345.122L405.184 345.528C404.91 348.5 404.373 352.408 403.714 355.324H403.711Z" fill="#F37B51"/>
<path d="M398.885 354.974C397.648 351.727 395.004 351.368 395.004 351.368C389.866 358.22 377.251 354.015 377.669 363.284C396.856 363.165 404.828 363.284 404.828 363.284C404.803 361.155 404.423 356.104 403.982 354.125L402.984 354.303L398.888 354.977L398.885 354.974Z" fill="#F37268"/>
<path d="M458.469 264.783C443.688 266.772 402.047 282.203 399.728 284.997C394.933 290.762 397.461 322.139 395.186 348.031L407.289 348.746C413.086 327.661 412.624 318.562 415.246 294.377C415.246 294.377 462.818 297.939 480.009 286.339C497.732 274.376 470.426 261.952 458.473 264.786L458.469 264.783Z" fill="#4163AE"/>
<path d="M439.205 234.044C442.698 234.64 444.044 237.44 444.887 242.604C431.579 250.442 411.809 251.001 411.809 251.001L405.506 247.886C405.506 247.886 421.358 242.176 439.205 234.044Z" fill="#DE623C"/>
<path d="M475.596 219.29C469.77 227.754 447.459 245.953 443.766 246.528L439.293 234.006C439.293 234.006 461.076 210.431 465.041 206.263C471.89 199.03 485.129 205.496 475.596 219.294V219.29Z" fill="#DE623C"/>
<path d="M451.059 217.939C455.729 212.907 461.813 201.55 469.727 202.355C477.64 203.164 478.215 211.561 475.826 216.085C473.441 220.608 465.203 231.753 465.203 231.753L451.059 217.939Z" fill="#F58880"/>
<path d="M452.494 239.226C455.847 240.381 457.763 250.948 456.824 251.756C442.442 257.454 412.514 251.291 412.514 251.291L410.925 245.872C410.925 245.872 433.586 244.486 452.494 239.223V239.226Z" fill="#F37B51"/>
<path d="M499.817 273.668C496.526 256.698 495.109 250.686 493.745 242.697C490.367 222.962 500.297 209.089 483.275 199.63L470.869 201.631C460.839 212.182 454.664 221.763 454.133 228.378C453.406 236.913 461.875 241.545 461.875 241.545L458.466 264.784C458.466 264.784 457.664 266.682 471.652 269.323C485.641 271.964 499.814 273.668 499.814 273.668H499.817Z" fill="#F37268"/>
<path d="M489.618 221.701C483.793 230.261 458.91 252.019 455.17 252.21L452.491 239.226C452.491 239.226 475.099 212.732 479.063 208.518C485.913 201.204 499.152 207.741 489.618 221.698V221.701Z" fill="#F37B51"/>
<path d="M465.827 221.76C470.173 215.435 478.938 203.769 486.855 204.578C494.769 205.387 495.343 213.784 492.955 218.307C490.57 222.831 482.332 233.975 482.332 233.975L465.827 221.76Z" fill="#F58880"/>
<path d="M410.922 245.875C406.346 244.751 396.4 241.408 392.395 251.884C393.4 253.807 397.083 249.059 398.663 248.619C401.173 247.92 403.33 249.24 405.228 251.057C407.953 253.661 412.511 251.291 412.511 251.291L410.922 245.872V245.875Z" fill="#F37B51"/>
<path d="M407.363 258.047H364.383V252.274H413.135C413.135 255.462 410.55 258.047 407.363 258.047Z" fill="#F58880"/>
<path d="M342.281 221.794L364.383 258.047L369.49 255.362L344.704 213.999C341.882 215.482 340.799 218.972 342.281 221.794Z" fill="#F58880"/>
<path d="M488.953 183.463C486.862 192.191 479.613 197.935 472.758 196.296C465.903 194.654 462.041 186.247 464.129 177.519C466.221 168.791 473.47 163.047 480.325 164.685C487.18 166.327 491.045 174.734 488.953 183.463Z" fill="#F37B51"/>
<path d="M485.632 188.061L474.241 195.122C474.241 195.122 473.229 200.157 472.724 201.79C471.681 205.161 475.671 206.635 479.045 204.534C482.42 202.433 483.275 199.63 483.275 199.63L485.632 188.061Z" fill="#F37B51"/>
<path d="M463.343 174.184C466.58 174.462 473.595 173.9 476.151 170.869C477.974 177.028 485.726 182.891 492.138 185.638C492.394 179.319 492.347 167.694 481.021 162.865C472.124 159.072 463.343 174.184 463.343 174.184Z" fill="#111133"/>
<path d="M467.338 179.81C467.035 180.415 466.302 180.662 465.693 180.359C465.084 180.056 464.841 179.323 465.144 178.714C465.447 178.105 466.18 177.862 466.789 178.161C467.394 178.464 467.641 179.201 467.338 179.806V179.81Z" fill="#010101"/>
<path d="M476.969 182.186C476.641 182.841 475.845 183.11 475.189 182.782C474.534 182.454 474.265 181.658 474.593 181.003C474.921 180.347 475.717 180.079 476.372 180.406C477.028 180.734 477.296 181.53 476.969 182.186Z" fill="#010101"/>
<path d="M478.436 181.087C478.345 181.043 478.27 180.968 478.224 180.868C477.559 179.432 475.76 179.154 475.745 179.151C475.492 179.114 475.317 178.88 475.355 178.627C475.392 178.377 475.623 178.199 475.876 178.236C475.97 178.249 478.183 178.583 479.063 180.478C479.169 180.709 479.07 180.984 478.839 181.09C478.707 181.152 478.561 181.143 478.439 181.083L478.436 181.087Z" fill="#111133"/>
<path d="M464.666 178.034C464.622 178.012 464.582 177.981 464.544 177.943C464.366 177.762 464.366 177.469 464.547 177.291C465.955 175.899 467.691 176.476 467.763 176.501C468.003 176.582 468.131 176.848 468.05 177.088C467.969 177.328 467.707 177.456 467.466 177.375C467.41 177.356 466.189 176.969 465.197 177.946C465.053 178.09 464.838 178.118 464.666 178.031V178.034Z" fill="#111133"/>
<path d="M468.128 182.476C467.457 183.169 466.867 183.881 466.224 184.287C466.008 184.424 465.936 184.711 466.064 184.933C466.583 185.854 468.097 186.61 469.027 187.006C469.161 187.062 469.274 186.887 469.164 186.787C468.228 185.966 467.825 185.361 467.657 185.027C467.572 184.861 467.575 184.668 467.657 184.502C467.85 184.121 468.231 183.347 468.49 182.707C468.581 182.486 468.296 182.305 468.131 182.476H468.128Z" fill="#DE623C"/>
<path d="M485.653 183.519C483.986 184.814 483.496 186.971 484.558 188.332C485.619 189.697 487.829 189.75 489.493 188.454C491.16 187.159 491.65 185.001 490.589 183.64C489.527 182.276 487.317 182.223 485.653 183.519Z" fill="#F37B51"/>
<path d="M486.602 187.939C486.54 187.908 486.484 187.861 486.44 187.802C485.8 186.949 485.741 185.994 486.281 185.245C486.833 184.477 487.857 184.124 488.716 184.408C488.956 184.489 489.09 184.748 489.009 184.992C488.928 185.232 488.669 185.367 488.425 185.285C487.954 185.129 487.342 185.348 487.03 185.785C486.73 186.203 486.783 186.721 487.18 187.249C487.333 187.452 487.292 187.742 487.089 187.895C486.946 188.004 486.758 188.014 486.605 187.939H486.602Z" fill="#DE623C"/>
<path d="M475.008 267.481C460.227 269.47 418.523 282.987 416.204 285.778C411.409 291.544 422.082 316.24 425.497 348.031H439.767C439.617 325.38 441.427 304.542 434.457 297.156C434.457 297.156 474.427 294.49 494.357 294.49C504.515 294.49 510.134 260.167 475.011 267.484L475.008 267.481Z" fill="#6E86C3"/>
<path d="M467.503 189.822C467.307 189.556 467.519 189.185 467.85 189.222C468.686 189.322 470.069 189.46 471.387 189.463C472.707 189.463 474.09 189.329 474.927 189.232C475.255 189.194 475.47 189.566 475.27 189.831C474.661 190.649 473.407 191.888 471.384 191.888C469.361 191.888 468.109 190.643 467.503 189.825V189.822Z" fill="white"/>
<path d="M183.662 243.068C180.84 244.947 181.621 255.184 182.688 255.702C197.367 257.494 222.157 245.335 222.157 245.335L223.127 239.896C223.127 239.896 202.421 243.365 183.665 243.068H183.662Z" fill="#F37B51"/>
<path d="M151.412 225.321C156.659 233.713 179.626 255.409 183.188 255.73L186.222 243.431C186.222 243.431 165.606 217.295 161.976 213.122C155.704 205.882 142.818 211.639 151.412 225.321Z" fill="#F37B51"/>
<path d="M163.965 180.487C164.595 171.896 162.111 164.307 155.261 160.443C148.319 156.525 139.622 160.368 139.622 160.368C139.622 160.368 132.261 157.748 125.586 165.097C118.915 172.446 123.96 178.914 121.231 184.274C119.614 187.449 111.395 188.101 113.521 198.44C114.133 201.422 117.719 203.429 120.757 203.629C126.095 203.978 131.062 201.915 133.225 203.978C140.355 210.777 156.151 208.318 158.361 202.099C159.048 200.17 173.258 203.903 171.841 190.767C171.123 184.112 163.4 188.16 163.962 180.484L163.965 180.487Z" fill="#111133"/>
<path d="M150.944 208.258L139.662 206.176L135.429 211.804L144.422 230.238L157.646 219.012L150.944 208.258Z" fill="#F37B51"/>
<path d="M165.565 252.706C165.372 249.197 171.041 234.793 168.057 227.544C165.884 221.713 162.253 211.923 157.808 210.287C155.71 209.516 153.556 208.979 150.94 208.258C150.94 208.258 152.414 215.607 149.342 215.853C143.426 216.328 139.658 206.176 139.658 206.176C136.471 205.87 121.842 210.678 121.849 211.88C121.883 221.285 129.528 235.012 132.026 245.185C133.009 256.171 129.175 269.316 129.163 270.565C129.163 270.565 152.695 277.18 166.642 269.501C166.933 268.433 165.831 257.551 165.565 252.709V252.706Z" fill="#6E86C3"/>
<path d="M132.706 259.276C132.706 259.276 127.512 272.381 126.244 280.632C124.977 288.883 132.126 294.174 132.126 294.174H191.579C191.579 294.174 197.944 283.851 196.112 276.724C194.28 269.597 190.062 268.464 190.062 268.464L132.706 259.276Z" fill="#6E86C3"/>
<path d="M192.376 268.099C184.787 267.028 162.757 275.585 153.363 294.175H179.642L192.376 268.099Z" fill="#DE623C"/>
<path d="M184.05 274.942C185.03 273.868 185.923 272.544 186.706 271.165C188.923 267.262 194.261 266.604 197.277 269.928C208.234 282.01 231.591 309.546 236.798 312.974C238.268 313.942 246.853 318.887 255.016 317.906C255.016 317.906 259.046 319.439 256.362 322.639C254.982 324.284 234.241 325.985 234.241 325.985L232.624 319.895C220.552 310.961 205.521 311.604 192.778 295.268C185.761 286.271 184.053 274.942 184.053 274.942H184.05Z" fill="#DE623C"/>
<path d="M238.44 329.5L246.787 334.917L247.933 333.549L241.165 327.237C245.011 324.203 253.917 326.735 253.917 326.735C256.833 324.849 262.521 318.737 263.108 315.462C261.241 313.133 255.019 317.922 255.019 317.922C255.247 318.958 253.281 322.551 251.72 323.166C244.924 324.634 238.153 322.701 232.627 319.895C232.627 319.895 228.01 326.891 238.443 329.497L238.44 329.5Z" fill="#F37268"/>
<path d="M183.928 276.584C182.407 276.993 181.274 278.266 181.056 279.824C180.463 284.042 177.391 292.58 181.546 301.52C191.741 323.472 197.76 337.935 198.831 343.601C196.168 348.59 206.788 362.213 206.944 363.106L214.589 360.715C214.589 360.715 210.203 354.19 208.624 351.637C204.862 345.552 204.247 338.088 203.638 332.301C201.029 307.598 205.514 292.002 187.643 277.511C186.584 276.653 185.248 276.231 183.934 276.584H183.928Z" fill="#F37B51"/>
<path d="M195.022 354.05L195.774 363.971L197.557 364.055L198.472 354.843C203.217 356.06 206.604 364.68 206.604 364.68C209.872 365.856 218.179 366.671 221.139 365.154C221.857 362.257 214.277 360.212 214.277 360.212C213.59 361.024 209.541 361.639 208.105 360.768C202.82 356.254 199.945 349.698 198.827 343.602C198.827 343.602 190.764 344.173 195.019 354.05H195.022Z" fill="#F37268"/>
<path d="M148.09 199.043L138.928 197.669L139.658 206.173C139.658 206.173 141.413 210.025 143.445 210.287L150.94 208.258L148.09 199.043Z" fill="#F37B51"/>
<path d="M130.453 186.75C132.819 196.627 141.023 203.13 148.781 201.272C156.538 199.415 160.909 189.903 158.545 180.026C156.179 170.148 147.975 163.646 140.218 165.503C132.46 167.361 128.09 176.873 130.453 186.75Z" fill="#F37B51"/>
<path d="M154.912 182.617C155.252 183.304 156.086 183.582 156.772 183.241C157.459 182.901 157.737 182.068 157.397 181.381C157.056 180.694 156.223 180.416 155.536 180.757C154.849 181.097 154.572 181.93 154.912 182.617Z" fill="#010101"/>
<path d="M144.016 185.304C144.385 186.047 145.287 186.347 146.03 185.978C146.773 185.61 147.072 184.708 146.704 183.965C146.336 183.222 145.433 182.919 144.69 183.291C143.948 183.662 143.645 184.561 144.016 185.304Z" fill="#010101"/>
<path d="M142.356 184.062C142.459 184.012 142.546 183.928 142.596 183.815C143.348 182.192 145.381 181.877 145.402 181.873C145.687 181.833 145.886 181.568 145.846 181.283C145.805 180.999 145.543 180.8 145.256 180.84C145.15 180.856 142.643 181.234 141.65 183.378C141.528 183.64 141.644 183.949 141.903 184.071C142.053 184.14 142.218 184.134 142.356 184.065V184.062Z" fill="#111133"/>
<path d="M157.937 180.606C157.987 180.581 158.034 180.547 158.074 180.506C158.277 180.3 158.274 179.969 158.071 179.766C156.479 178.193 154.515 178.845 154.431 178.874C154.159 178.967 154.013 179.264 154.106 179.538C154.2 179.81 154.497 179.957 154.768 179.863C154.834 179.841 156.214 179.404 157.334 180.509C157.497 180.672 157.74 180.703 157.934 180.606H157.937Z" fill="#111133"/>
<path d="M154.018 185.632C154.78 186.416 155.448 187.221 156.176 187.68C156.419 187.833 156.5 188.161 156.357 188.414C155.77 189.453 154.056 190.312 153.004 190.758C152.851 190.824 152.726 190.624 152.851 190.511C153.912 189.581 154.368 188.897 154.558 188.52C154.652 188.332 154.652 188.114 154.558 187.927C154.34 187.496 153.909 186.622 153.616 185.894C153.516 185.645 153.834 185.439 154.021 185.632H154.018Z" fill="#DE623C"/>
<path d="M134.186 186.812C136.072 188.279 136.627 190.717 135.426 192.259C134.224 193.802 131.723 193.864 129.841 192.397C127.955 190.93 127.4 188.492 128.601 186.949C129.8 185.407 132.304 185.345 134.186 186.812Z" fill="#F37B51"/>
<path d="M133.112 191.814C133.184 191.779 133.246 191.726 133.296 191.661C134.021 190.699 134.089 189.616 133.477 188.767C132.853 187.896 131.695 187.499 130.721 187.821C130.446 187.911 130.299 188.208 130.39 188.48C130.481 188.754 130.777 188.901 131.049 188.81C131.583 188.636 132.276 188.882 132.628 189.375C132.969 189.85 132.909 190.437 132.46 191.033C132.285 191.264 132.332 191.592 132.563 191.764C132.725 191.885 132.937 191.898 133.109 191.814H133.112Z" fill="#DE623C"/>
<path d="M145.443 193.509C145.225 193.215 145.462 192.803 145.824 192.847C146.751 192.956 148.284 193.109 149.745 193.109C151.206 193.109 152.739 192.959 153.666 192.847C154.031 192.803 154.265 193.215 154.047 193.509C153.376 194.414 151.986 195.791 149.745 195.791C147.504 195.791 146.114 194.414 145.443 193.509Z" fill="white"/>
<path d="M130.262 185.875C139.521 184.636 152.476 175.202 153.541 170.36C151.749 164.544 142.206 161.622 136.818 164.316C131.43 167.01 126.338 178.558 130.262 185.875Z" fill="#111133"/>
<path d="M216.884 255.896C215.651 255.493 214.98 254.167 215.383 252.937L229.674 209.154C230.077 207.921 231.4 207.25 232.633 207.65C233.866 208.052 234.538 209.376 234.138 210.609L219.847 254.391C219.444 255.624 218.12 256.296 216.887 255.896H216.884Z" fill="white"/>
<path d="M224.476 240.206L227.389 231.284C227.389 231.284 229.914 236.416 227.389 241.286C224.867 246.156 222.463 246.375 222.463 246.375L224.476 240.203V240.206Z" fill="#F37B51"/>
<path d="M220.318 237.815C219.581 236.083 217.849 231.75 219.581 231.772C221.314 231.79 221.598 233.894 221.598 233.894L220.318 237.815Z" fill="#F37B51"/>
<path d="M77.1396 211.745C81.0699 207.781 78.4914 203.713 78.4914 203.713C80.6485 203.251 92.0272 220.489 96.9346 231.444C105.494 222.818 120.572 211.168 124.653 210.491C124.653 210.491 130.153 209.011 132.132 215.663C133.896 221.601 127.016 225.806 127.016 225.806C127.016 225.806 97.5808 246.587 93.226 244.739C86.4518 241.864 80.3207 217.13 77.1428 211.745H77.1396Z" fill="#F37B51"/>
<path d="M70.9928 211.255C73.3934 211.402 76.3653 210.216 77.2893 212.37L82.0313 210.06L82.3185 207.2C78.2446 200.672 68.3143 198.821 67.331 198.734C64.7774 198.509 63.5912 198.247 63.3914 198.587C63.1916 198.927 62.5672 201.203 66.2727 201.646C70.9241 202.205 67.8367 205.923 58.3997 202.383C56.0365 201.497 51.5912 202.649 53.1989 204.375C54.972 206.276 60.0605 210.59 70.9928 211.255Z" fill="#F37B51"/>
<path d="M311.461 235.923C311.461 235.923 306.744 227.02 304.855 217.58C303.213 209.51 303.291 199.877 303.491 194.729C303.538 193.558 305.074 193.159 305.685 194.158C308.654 199.012 314.024 208.771 315.232 217.586C316.096 223.671 316.652 229.792 316.899 235.933L311.461 235.927V235.923Z" fill="#6E86C3"/>
<path d="M316.396 235.923C316.396 235.923 319.542 225.041 323.001 217.78C325.517 212.501 331.243 206.183 334.18 203.123C334.736 202.543 335.704 203.042 335.557 203.832C334.801 207.856 333.06 215.791 330.206 221.208C326.242 228.737 319.639 235.923 319.639 235.923H316.393H316.396Z" fill="#6E86C3"/>
<path d="M300.219 226.268C299.77 225.387 300.613 224.407 301.552 224.722C303.931 225.525 306.135 226.798 308.027 228.475C311.545 231.675 312.2 235.318 312.2 235.318L310.989 235.727C310.989 235.727 304.434 234.531 300.219 226.271V226.268Z" fill="#4163AE"/>
<path d="M324.843 200.822C324.762 199.695 323.317 199.286 322.658 200.204C320.201 203.622 316.077 210.359 314.729 218.616C313.04 228.921 315.007 235.932 315.007 235.932H316.396C316.396 235.932 321.519 226.227 323.513 219.656C325.399 213.45 325.155 205.211 324.84 200.825L324.843 200.822Z" fill="#4163AE"/>
<path d="M319.643 235.924C319.643 235.924 322.589 226.112 332.666 222.378C333.253 222.16 333.818 222.753 333.581 223.331C332.251 226.574 328.465 234.316 322.068 235.924H319.643Z" fill="#4163AE"/>
<path d="M328.565 234.263H305.239L308.233 258.163H325.571L328.565 234.263Z" fill="#7B8FC8"/>
<path d="M303.481 252.953V256.383H304.415C304.867 256.383 305.236 256.752 305.236 257.204V257.342C305.236 257.794 304.867 258.163 304.415 258.163H264.61C264.085 258.163 263.654 257.735 263.654 257.208V252.266C263.654 251.738 264.082 251.311 264.61 251.311H304.415C304.867 251.311 305.236 251.679 305.236 252.132C305.236 252.584 304.867 252.953 304.415 252.953H303.481Z" fill="#F37268"/>
<path d="M268.998 252.952H303.6V256.383H268.998C268.496 256.383 268.09 255.977 268.09 255.474V253.864C268.09 253.361 268.499 252.955 268.998 252.955V252.952Z" fill="white"/>
<path d="M260.139 245.547V249.343H259.206C258.753 249.343 258.385 249.749 258.385 250.252V250.405C258.385 250.907 258.753 251.313 259.206 251.313H299.011C299.536 251.313 299.966 250.842 299.966 250.258V244.792C299.966 244.208 299.539 243.733 299.011 243.733H259.206C258.753 243.733 258.385 244.139 258.385 244.642C258.385 245.144 258.753 245.55 259.206 245.55H260.139V245.547Z" fill="#6E86C3"/>
<path d="M294.575 249.34H260.02V245.544H294.575C295.103 245.544 295.53 245.971 295.53 246.499V248.381C295.53 248.909 295.103 249.337 294.575 249.337V249.34Z" fill="white"/>
<path d="M263.52 234.06H298.933C299.978 234.06 300.824 234.909 300.824 235.951V238.321C300.824 239.367 299.975 240.213 298.933 240.213H263.52C262.474 240.213 261.628 239.363 261.628 238.321V235.951C261.628 234.906 262.477 234.06 263.52 234.06Z" fill="#F37268"/>
<path d="M265.621 240.213H301.958C302.748 240.213 303.388 240.853 303.388 241.643V242.298C303.388 243.088 302.748 243.728 301.958 243.728H265.621C264.831 243.728 264.191 243.088 264.191 242.298V241.643C264.191 240.853 264.831 240.213 265.621 240.213Z" fill="#7B8FC8"/>
</g>
<defs>
<clipPath id="clip0_294_10891">
<rect width="618.822" height="367.26" fill="white" transform="translate(0.591797 0.300781)"/>
</clipPath>
</defs>
</svg>
