<?xml version="1.0" encoding="UTF-8"?>
<svg xmlns="http://www.w3.org/2000/svg" width="420.6" height="347.37" xmlns:xlink="http://www.w3.org/1999/xlink" viewBox="0 0 420.6 347.37">
  <defs>
    <style>
      .cls-1 {
        fill: url(#Degradado_sin_nombre_157);
      }

      .cls-2 {
        fill: url(#Degradado_sin_nombre_169);
      }

      .cls-3 {
        filter: url(#drop-shadow-9);
      }

      .cls-4 {
        filter: url(#drop-shadow-2);
      }

      .cls-5 {
        fill: #3d3d89;
      }

      .cls-6, .cls-7, .cls-8 {
        fill: #fff;
      }

      .cls-9 {
        fill: #a7c8ff;
      }

      .cls-9, .cls-10 {
        mix-blend-mode: multiply;
      }

      .cls-11 {
        filter: url(#drop-shadow-7);
      }

      .cls-12 {
        fill: #ffc700;
      }

      .cls-13 {
        fill: url(#Degradado_sin_nombre_152-2);
        filter: url(#drop-shadow-4);
      }

      .cls-14 {
        fill: url(#Degradado_sin_nombre_152-3);
        filter: url(#drop-shadow-6);
      }

      .cls-15 {
        fill: #4b4ba0;
      }

      .cls-16 {
        isolation: isolate;
      }

      .cls-17 {
        fill: url(#Degradado_sin_nombre_152-4);
        filter: url(#drop-shadow-8);
      }

      .cls-7 {
        filter: url(#drop-shadow-5);
      }

      .cls-18 {
        fill: #1e9aff;
      }

      .cls-19 {
        fill: #ebebf2;
      }

      .cls-20 {
        fill: url(#Degradado_sin_nombre_152-5);
        filter: url(#drop-shadow-10);
      }

      .cls-8 {
        opacity: .15;
      }

      .cls-21 {
        fill: url(#Degradado_sin_nombre_154);
      }

      .cls-22 {
        fill: url(#Degradado_sin_nombre_153);
        filter: url(#drop-shadow-1);
      }

      .cls-23 {
        fill: url(#Degradado_sin_nombre_155);
      }

      .cls-24 {
        fill: url(#Degradado_sin_nombre_154-2);
      }

      .cls-25 {
        fill: url(#Degradado_sin_nombre_152);
        filter: url(#drop-shadow-3);
      }

      .cls-10 {
        fill: url(#Degradado_sin_nombre_156);
      }
    </style>
    <linearGradient id="Degradado_sin_nombre_157" data-name="Degradado sin nombre 157" x1="173.72" y1="271.32" x2="232.63" y2="330.23" gradientUnits="userSpaceOnUse">
      <stop offset=".23" stop-color="#a7c8ff"/>
      <stop offset=".45" stop-color="#aacaff"/>
      <stop offset=".67" stop-color="#b6d2ff"/>
      <stop offset=".89" stop-color="#cae0ff"/>
      <stop offset="1" stop-color="#d8e9ff"/>
    </linearGradient>
    <linearGradient id="Degradado_sin_nombre_155" data-name="Degradado sin nombre 155" x1="94.99" y1="102.42" x2="311.36" y2="318.79" gradientUnits="userSpaceOnUse">
      <stop offset="0" stop-color="#d8e9ff"/>
      <stop offset="1" stop-color="#a7c8ff"/>
    </linearGradient>
    <linearGradient id="Degradado_sin_nombre_154" data-name="Degradado sin nombre 154" x1="104.5" y1="75.96" x2="302.35" y2="273.81" gradientUnits="userSpaceOnUse">
      <stop offset="0" stop-color="#562bff"/>
      <stop offset="1" stop-color="#7da5ff"/>
    </linearGradient>
    <linearGradient id="Degradado_sin_nombre_156" data-name="Degradado sin nombre 156" x1="197.31" y1="267.49" x2="209.05" y2="279.23" gradientUnits="userSpaceOnUse">
      <stop offset="0" stop-color="#a7c8ff"/>
      <stop offset="1" stop-color="#d8e9ff"/>
    </linearGradient>
    <linearGradient id="Degradado_sin_nombre_169" data-name="Degradado sin nombre 169" x1="168.48" y1="278.79" x2="237.87" y2="348.18" gradientUnits="userSpaceOnUse">
      <stop offset="0" stop-color="#a7c8ff"/>
      <stop offset="1" stop-color="#73abff"/>
    </linearGradient>
    <linearGradient id="Degradado_sin_nombre_154-2" data-name="Degradado sin nombre 154" x1="281.84" y1="216.65" x2="380.7" y2="315.51" xlink:href="#Degradado_sin_nombre_154"/>
    <linearGradient id="Degradado_sin_nombre_153" data-name="Degradado sin nombre 153" x1="305.06" y1="240.14" x2="357.49" y2="292.57" gradientUnits="userSpaceOnUse">
      <stop offset="0" stop-color="#35ffff" stop-opacity=".5"/>
      <stop offset="1" stop-color="#35e6bb"/>
    </linearGradient>
    <filter id="drop-shadow-1" x="286.18" y="229.6" width="90" height="91" filterUnits="userSpaceOnUse">
      <feOffset dx="0" dy="8.89"/>
      <feGaussianBlur result="blur" stdDeviation="5.33"/>
      <feFlood flood-color="#1172d5" flood-opacity=".4"/>
      <feComposite in2="blur" operator="in"/>
      <feComposite in="SourceGraphic"/>
    </filter>
    <filter id="drop-shadow-2" x="297.93" y="236.35" width="68" height="68" filterUnits="userSpaceOnUse">
      <feOffset dx="0" dy="3.75"/>
      <feGaussianBlur result="blur-2" stdDeviation="3.75"/>
      <feFlood flood-color="#1e85ff" flood-opacity=".4"/>
      <feComposite in2="blur-2" operator="in"/>
      <feComposite in="SourceGraphic"/>
    </filter>
    <linearGradient id="Degradado_sin_nombre_152" data-name="Degradado sin nombre 152" x1="124.4" y1="66.09" x2="263.23" y2="204.92" gradientUnits="userSpaceOnUse">
      <stop offset="0" stop-color="#35c9e2" stop-opacity=".5"/>
      <stop offset="1" stop-color="#35e6bb"/>
    </linearGradient>
    <filter id="drop-shadow-3" x="90.18" y="71.6" width="208" height="146" filterUnits="userSpaceOnUse">
      <feOffset dx="0" dy="8.89"/>
      <feGaussianBlur result="blur-3" stdDeviation="5.33"/>
      <feFlood flood-color="#1e85ff" flood-opacity=".4"/>
      <feComposite in2="blur-3" operator="in"/>
      <feComposite in="SourceGraphic"/>
    </filter>
    <linearGradient id="Degradado_sin_nombre_152-2" data-name="Degradado sin nombre 152" x1="20.69" y1="126.09" x2="83.97" y2="189.37" xlink:href="#Degradado_sin_nombre_152"/>
    <filter id="drop-shadow-4" x="1.18" y="115.6" width="102" height="102" filterUnits="userSpaceOnUse">
      <feOffset dx="0" dy="8.89"/>
      <feGaussianBlur result="blur-4" stdDeviation="5.33"/>
      <feFlood flood-color="#1e85ff" flood-opacity=".4"/>
      <feComposite in2="blur-4" operator="in"/>
      <feComposite in="SourceGraphic"/>
    </filter>
    <filter id="drop-shadow-5" x="19.93" y="128.35" width="65" height="66" filterUnits="userSpaceOnUse">
      <feOffset dx="0" dy="3.75"/>
      <feGaussianBlur result="blur-5" stdDeviation="3.75"/>
      <feFlood flood-color="#1e85ff" flood-opacity=".4"/>
      <feComposite in2="blur-5" operator="in"/>
      <feComposite in="SourceGraphic"/>
    </filter>
    <linearGradient id="Degradado_sin_nombre_152-3" data-name="Degradado sin nombre 152" x1="88.67" y1="203.51" x2="156.4" y2="271.23" xlink:href="#Degradado_sin_nombre_152"/>
    <filter id="drop-shadow-6" x="63.18" y="199.6" width="119" height="93" filterUnits="userSpaceOnUse">
      <feOffset dx="0" dy="8.89"/>
      <feGaussianBlur result="blur-6" stdDeviation="5.33"/>
      <feFlood flood-color="#1e85ff" flood-opacity=".4"/>
      <feComposite in2="blur-6" operator="in"/>
      <feComposite in="SourceGraphic"/>
    </filter>
    <filter id="drop-shadow-7" x="81.93" y="210.35" width="82" height="62" filterUnits="userSpaceOnUse">
      <feOffset dx="0" dy="3.75"/>
      <feGaussianBlur result="blur-7" stdDeviation="3.75"/>
      <feFlood flood-color="#1e85ff" flood-opacity=".4"/>
      <feComposite in2="blur-7" operator="in"/>
      <feComposite in="SourceGraphic"/>
    </filter>
    <linearGradient id="Degradado_sin_nombre_152-4" data-name="Degradado sin nombre 152" x1="303.79" y1="46.31" x2="393.73" y2="136.25" xlink:href="#Degradado_sin_nombre_152"/>
    <filter id="drop-shadow-8" x="285.18" y="35.6" width="128" height="129" filterUnits="userSpaceOnUse">
      <feOffset dx="0" dy="8.89"/>
      <feGaussianBlur result="blur-8" stdDeviation="5.33"/>
      <feFlood flood-color="#1e85ff" flood-opacity=".4"/>
      <feComposite in2="blur-8" operator="in"/>
      <feComposite in="SourceGraphic"/>
    </filter>
    <filter id="drop-shadow-9" x="300.93" y="52.35" width="97" height="85" filterUnits="userSpaceOnUse">
      <feOffset dx="0" dy="3.75"/>
      <feGaussianBlur result="blur-9" stdDeviation="3.75"/>
      <feFlood flood-color="#1e85ff" flood-opacity=".4"/>
      <feComposite in2="blur-9" operator="in"/>
      <feComposite in="SourceGraphic"/>
    </filter>
    <linearGradient id="Degradado_sin_nombre_152-5" data-name="Degradado sin nombre 152" x1="20.69" y1="42" x2="83.97" y2="105.28" xlink:href="#Degradado_sin_nombre_152"/>
    <filter id="drop-shadow-10" x="1.18" y="31.6" width="102" height="102" filterUnits="userSpaceOnUse">
      <feOffset dx="0" dy="8.89"/>
      <feGaussianBlur result="blur-10" stdDeviation="5.33"/>
      <feFlood flood-color="#1e85ff" flood-opacity=".4"/>
      <feComposite in2="blur-10" operator="in"/>
      <feComposite in="SourceGraphic"/>
    </filter>
  </defs>
  <g class="cls-16">
    <g id="OBJECTS">
      <g>
        <g>
          <path class="cls-19" d="M342.62,62.32c0-3.21-.32-6.34-.94-9.36l15.66-9.04-14.66-25.4-15.61,9.01c-4.72-4.23-10.32-7.51-16.48-9.55V0h-29.33v17.99c-2.74.91-5.37,2.05-7.86,3.42-.3.16-.59.34-.88.51-.29.17-.59.33-.88.51-2.43,1.47-4.74,3.17-6.89,5.09l-15.58-9-14.66,25.4,15.58,9c-.59,2.82-.91,5.67-.96,8.51,0,.34,0,.69,0,1.03,0,.33,0,.66,0,1,.06,2.84.38,5.69.96,8.52l-15.58,9,14.66,25.4,15.58-9c4.84,4.32,10.48,7.52,16.5,9.5v18.02h29.33v-18.08c2.93-.98,5.8-2.26,8.58-3.87,2.84-1.64,5.45-3.54,7.8-5.65l15.71,9.07,14.66-25.4-15.71-9.07c.64-3.09.99-6.3.99-9.58ZM315.13,82.99c-.13.12-.25.23-.38.35-.51.46-1.03.89-1.56,1.31-.25.19-.5.38-.76.57-.44.32-.88.62-1.34.91-.36.23-.73.45-1.1.67-.37.22-.75.42-1.13.62-.48.25-.97.48-1.46.7-.29.13-.58.25-.87.37-.63.25-1.26.49-1.91.7-.16.05-.33.11-.49.16-2.59.78-5.34,1.22-8.19,1.22-15.6,0-28.25-12.65-28.25-28.25,0-3.82.77-7.46,2.14-10.78.07-.16.13-.31.2-.47.25-.58.54-1.15.83-1.72.19-.36.38-.71.58-1.06.2-.35.41-.69.63-1.03.34-.53.69-1.06,1.07-1.57.1-.14.2-.27.3-.41,2.19-2.85,4.96-5.34,8.27-7.25,13.51-7.8,30.78-3.17,38.58,10.34,1.42,2.47,2.43,5.06,3.04,7.7.04.17.07.33.11.5.14.67.26,1.34.35,2.01.04.31.08.63.11.94.06.54.1,1.08.12,1.62.02.43.03.86.03,1.28,0,.43,0,.86-.03,1.29-.03.54-.06,1.07-.12,1.61-.03.32-.07.63-.11.95-.09.67-.21,1.34-.35,2-.04.17-.07.34-.11.51-.62,2.64-1.62,5.23-3.04,7.7-1.42,2.47-3.17,4.63-5.15,6.48Z"/>
          <path class="cls-19" d="M412.3,151.64c0-1.81-.18-3.57-.53-5.28l8.83-5.1-8.27-14.32-8.8,5.08c-2.66-2.39-5.82-4.23-9.29-5.38v-10.14h-16.53v10.14c-1.54.51-3.03,1.16-4.43,1.93-.17.09-.33.19-.5.28-.16.1-.33.19-.49.29-1.37.83-2.67,1.79-3.89,2.87l-8.78-5.07-8.27,14.32,8.78,5.07c-.33,1.59-.51,3.2-.54,4.8,0,.19,0,.39,0,.58,0,.19,0,.37,0,.56.03,1.6.21,3.21.54,4.8l-8.78,5.07,8.27,14.32,8.78-5.07c2.73,2.43,5.91,4.24,9.3,5.35v10.16h16.53v-10.19c1.65-.55,3.27-1.28,4.83-2.18,1.6-.93,3.07-2,4.4-3.18l8.85,5.11,8.27-14.32-8.85-5.11c.36-1.74.56-3.55.56-5.4ZM396.8,163.29c-.07.07-.14.13-.22.2-.28.26-.58.5-.88.74-.14.11-.28.22-.43.32-.25.18-.5.35-.75.51-.2.13-.41.26-.62.38-.21.12-.42.24-.64.35-.27.14-.54.27-.82.4-.16.07-.33.14-.49.21-.35.14-.71.28-1.08.39-.09.03-.18.06-.28.09-1.46.44-3.01.69-4.62.69-8.79,0-15.92-7.13-15.92-15.92,0-2.15.43-4.2,1.21-6.08.04-.09.07-.18.11-.26.14-.33.3-.65.47-.97.11-.2.21-.4.33-.6.11-.2.23-.39.35-.58.19-.3.39-.6.6-.89.06-.08.11-.15.17-.23,1.24-1.61,2.8-3.01,4.66-4.08,7.62-4.4,17.35-1.79,21.75,5.83.8,1.39,1.37,2.85,1.72,4.34.02.09.04.19.06.28.08.38.14.75.2,1.13.02.18.04.35.06.53.03.3.05.61.07.91.01.24.02.48.02.72,0,.24,0,.49-.02.73-.01.3-.04.61-.07.91-.02.18-.04.36-.06.53-.05.38-.12.75-.2,1.13-.02.1-.04.19-.06.29-.35,1.49-.91,2.95-1.71,4.34-.8,1.39-1.79,2.61-2.9,3.66Z"/>
          <path class="cls-19" d="M90.74,249.74c-.91-2.34-2.03-4.54-3.34-6.58l8.89-11.05-17.92-14.42-8.86,11.01c-4.65-1.76-9.67-2.57-14.75-2.31l-5.1-13.16-21.45,8.31,5.1,13.16c-1.75,1.44-3.34,3.02-4.78,4.73-.17.2-.33.41-.5.62-.17.21-.34.41-.5.62-1.36,1.76-2.57,3.66-3.6,5.68l-13.94-2.17-3.53,22.73,13.94,2.17c.37,2.23.94,4.41,1.71,6.5.09.25.19.5.29.76.09.24.18.49.28.73.85,2.06,1.89,4.05,3.12,5.96l-8.85,10.99,17.92,14.42,8.85-10.99c4.76,1.78,9.79,2.53,14.76,2.27l5.1,13.18,21.45-8.31-5.12-13.22c1.86-1.55,3.6-3.3,5.18-5.26,1.61-2.01,2.98-4.13,4.11-6.34l14.05,2.18,3.53-22.73-14.05-2.18c-.4-2.44-1.06-4.88-1.99-7.29ZM76.49,272.64c-.06.12-.12.24-.18.36-.24.48-.5.94-.77,1.4-.13.21-.26.42-.4.63-.23.36-.47.7-.72,1.05-.2.27-.4.54-.62.8-.21.26-.43.52-.65.77-.28.32-.57.63-.87.93-.17.18-.35.35-.53.52-.39.36-.79.72-1.2,1.05-.1.09-.21.17-.32.25-1.67,1.31-3.56,2.4-5.65,3.21-11.41,4.42-24.24-1.25-28.66-12.66-1.08-2.79-1.55-5.67-1.49-8.49,0-.13,0-.26.01-.4.02-.5.06-.99.12-1.49.04-.31.07-.63.12-.94.05-.31.11-.62.17-.93.1-.49.21-.97.34-1.45.03-.13.07-.26.11-.38.79-2.71,2.11-5.31,3.99-7.64,7.67-9.53,21.61-11.04,31.14-3.37,1.74,1.4,3.21,3.02,4.41,4.77.08.11.15.22.22.34.29.45.57.91.83,1.37.12.22.24.43.35.66.19.38.38.76.55,1.15.13.31.26.62.38.93.12.32.24.63.35.95.13.4.26.8.37,1.21.07.24.13.48.19.72.12.52.23,1.04.31,1.56.02.13.04.27.06.4.3,2.1.3,4.28-.04,6.49-.34,2.21-1.01,4.29-1.93,6.2Z"/>
          <g>
            <path class="cls-19" d="M202.53,51.6H2.56c-1.41,0-2.56-1.15-2.56-2.56h0c0-1.41,1.15-2.56,2.56-2.56h199.97c1.41,0,2.56,1.15,2.56,2.56h0c0,1.41-1.15,2.56-2.56,2.56Z"/>
            <path class="cls-19" d="M202.53,69.94H2.56c-1.41,0-2.56-1.15-2.56-2.56h0c0-1.41,1.15-2.56,2.56-2.56h199.97c1.41,0,2.56,1.15,2.56,2.56h0c0,1.41-1.15,2.56-2.56,2.56Z"/>
            <path class="cls-19" d="M202.53,88.27H2.56c-1.41,0-2.56-1.15-2.56-2.56h0c0-1.41,1.15-2.56,2.56-2.56h199.97c1.41,0,2.56,1.15,2.56,2.56h0c0,1.41-1.15,2.56-2.56,2.56Z"/>
            <rect class="cls-19" x="0" y="101.49" width="205.09" height="5.12" rx="2.56" ry="2.56"/>
            <path class="cls-19" d="M202.53,124.95H2.56c-1.41,0-2.56-1.15-2.56-2.56h0c0-1.41,1.15-2.56,2.56-2.56h199.97c1.41,0,2.56,1.15,2.56,2.56h0c0,1.41-1.15,2.56-2.56,2.56Z"/>
            <path class="cls-19" d="M202.53,143.28H2.56c-1.41,0-2.56-1.15-2.56-2.56h0c0-1.41,1.15-2.56,2.56-2.56h199.97c1.41,0,2.56,1.15,2.56,2.56h0c0,1.41-1.15,2.56-2.56,2.56Z"/>
            <path class="cls-19" d="M202.53,161.62H2.56c-1.41,0-2.56-1.15-2.56-2.56h0c0-1.41,1.15-2.56,2.56-2.56h199.97c1.41,0,2.56,1.15,2.56,2.56h0c0,1.41-1.15,2.56-2.56,2.56Z"/>
            <path class="cls-19" d="M202.53,179.96H2.56c-1.41,0-2.56-1.15-2.56-2.56h0c0-1.41,1.15-2.56,2.56-2.56h199.97c1.41,0,2.56,1.15,2.56,2.56h0c0,1.41-1.15,2.56-2.56,2.56Z"/>
            <path class="cls-19" d="M202.53,198.29H2.56c-1.41,0-2.56-1.15-2.56-2.56h0c0-1.41,1.15-2.56,2.56-2.56h199.97c1.41,0,2.56,1.15,2.56,2.56h0c0,1.41-1.15,2.56-2.56,2.56Z"/>
          </g>
        </g>
        <g>
          <ellipse class="cls-19" cx="203.18" cy="314.42" rx="153.55" ry="14.5"/>
          <g>
            <polygon class="cls-1" points="247.67 315.19 158.68 315.19 173.98 271.06 232.37 271.06 247.67 315.19"/>
            <g>
              <path class="cls-23" d="M60.59,136.82h285.18v141.22c0,8.45-6.86,15.3-15.3,15.3H75.89c-8.45,0-15.3-6.86-15.3-15.3v-141.22h0Z"/>
              <path class="cls-5" d="M75.89,92.95h254.57c8.45,0,15.3,6.86,15.3,15.3v148.88H60.59V108.25c0-8.45,6.86-15.3,15.3-15.3Z"/>
              <rect class="cls-21" x="72.05" y="108.4" width="262.74" height="132.97"/>
            </g>
            <circle class="cls-10" cx="203.18" cy="273.36" r="8.3"/>
            <path class="cls-2" d="M270.86,315.19h-135.36c0-4.54,3.68-8.23,8.23-8.23h118.91c4.54,0,8.23,3.68,8.23,8.23h0Z"/>
          </g>
        </g>
        <g>
          <ellipse class="cls-19" cx="331.27" cy="338.48" rx="62.22" ry="8.9"/>
          <g>
            <g>
              <rect class="cls-15" x="291.25" y="197.67" width="80.04" height="137.37" rx="8.89" ry="8.89"/>
              <rect class="cls-24" x="291.25" y="207.23" width="80.04" height="117.68"/>
              <rect class="cls-22" x="302.46" y="237.53" width="57.63" height="57.63" rx="8.89" ry="8.89"/>
              <g class="cls-4">
                <path class="cls-6" d="M331.27,288.41c-12.16,0-22.06-9.9-22.06-22.06s9.9-22.06,22.06-22.06,22.06,9.9,22.06,22.06-9.9,22.06-22.06,22.06ZM331.27,248.37c-9.92,0-17.98,8.07-17.98,17.99s8.07,17.98,17.98,17.98,17.98-8.07,17.98-17.98-8.07-17.99-17.98-17.99Z"/>
                <polygon class="cls-6" points="329.68 274.74 321.97 267.95 325.2 264.28 329.22 267.82 336.9 259.05 340.58 262.26 329.68 274.74"/>
              </g>
            </g>
            <path class="cls-15" d="M341.3,211.9h-20.06c-3.09,0-5.6-2.51-5.6-5.6h31.26c0,3.09-2.51,5.6-5.6,5.6Z"/>
            <path class="cls-8" d="M338.51,207.23h-14.48c-.52,0-.93-.42-.93-.93h0c0-.52.42-.93.93-.93h14.48c.51,0,.93.42.93.93h0c0,.52-.42.93-.93.93Z"/>
          </g>
        </g>
        <g>
          <g>
            <rect class="cls-25" x="106.24" y="79.04" width="175.15" height="112.93" rx="8.89" ry="8.89"/>
            <rect class="cls-5" x="115.13" y="87.93" width="157.37" height="95.15"/>
            <g>
              <rect class="cls-12" x="131.91" y="100.64" width="16.37" height="2.21"/>
              <rect class="cls-12" x="153.46" y="100.64" width="33.5" height="2.21"/>
              <rect class="cls-6" x="138.86" y="109.6" width="16.37" height="2.21"/>
              <rect class="cls-18" x="160.41" y="109.6" width="95.72" height="2.21"/>
              <rect class="cls-6" x="138.86" y="117.92" width="16.37" height="2.21"/>
              <rect class="cls-18" x="160.41" y="117.92" width="95.72" height="2.21"/>
              <rect class="cls-6" x="138.86" y="126.24" width="16.37" height="2.21"/>
              <rect class="cls-18" x="160.41" y="126.24" width="95.72" height="2.21"/>
              <rect class="cls-6" x="138.86" y="134.55" width="16.37" height="2.21"/>
              <rect class="cls-12" x="131.91" y="143.35" width="16.37" height="2.21"/>
              <rect class="cls-12" x="153.46" y="143.35" width="33.5" height="2.21"/>
              <rect class="cls-6" x="160.41" y="152.31" width="61.72" height="2.21"/>
              <rect class="cls-6" x="160.41" y="160.63" width="61.72" height="2.21"/>
              <rect class="cls-18" x="149.79" y="160.63" width="5.43" height="2.21"/>
              <rect class="cls-18" x="138.86" y="168.95" width="16.37" height="2.21"/>
              <rect class="cls-6" x="160.41" y="168.95" width="61.72" height="2.21"/>
              <rect class="cls-6" x="226.58" y="152.31" width="30.25" height="2.21"/>
              <rect class="cls-6" x="226.58" y="160.63" width="30.25" height="2.21"/>
              <rect class="cls-6" x="226.58" y="168.95" width="30.25" height="2.21"/>
              <rect class="cls-18" x="160.41" y="134.55" width="95.72" height="2.21"/>
            </g>
          </g>
          <g>
            <rect class="cls-13" x="18.08" y="123.48" width="68.49" height="68.49" rx="8.89" ry="8.89"/>
            <path class="cls-7" d="M68.11,157.69c0-1.08-.11-2.14-.32-3.16l5.29-3.06-4.96-8.58-5.28,3.05c-1.6-1.43-3.49-2.54-5.57-3.23v-6.08h-9.91v6.08c-.93.31-1.81.69-2.65,1.16-.1.05-.2.11-.3.17-.1.06-.2.11-.3.17-.82.5-1.6,1.07-2.33,1.72l-5.27-3.04-4.96,8.58,5.27,3.04c-.2.95-.31,1.92-.33,2.88,0,.12,0,.23,0,.35,0,.11,0,.22,0,.34.02.96.13,1.92.33,2.88l-5.27,3.04,4.96,8.58,5.27-3.04c1.64,1.46,3.54,2.54,5.58,3.21v6.09h9.91v-6.11c.99-.33,1.96-.77,2.9-1.31.96-.56,1.84-1.2,2.64-1.91l5.31,3.06,4.96-8.58-5.31-3.06c.22-1.05.33-2.13.33-3.24ZM58.82,164.67s-.09.08-.13.12c-.17.15-.35.3-.53.44-.08.07-.17.13-.26.19-.15.11-.3.21-.45.31-.12.08-.25.15-.37.23-.13.07-.25.14-.38.21-.16.08-.33.16-.49.24-.1.04-.2.09-.29.13-.21.09-.43.17-.65.24-.06.02-.11.04-.17.05-.88.27-1.8.41-2.77.41-5.27,0-9.55-4.27-9.55-9.55,0-1.29.26-2.52.72-3.64.02-.05.04-.1.07-.16.09-.2.18-.39.28-.58.06-.12.13-.24.2-.36.07-.12.14-.23.21-.35.12-.18.23-.36.36-.53.03-.05.07-.09.1-.14.74-.96,1.68-1.8,2.79-2.45,4.57-2.64,10.4-1.07,13.04,3.49.48.83.82,1.71,1.03,2.6.01.06.02.11.04.17.05.23.09.45.12.68.01.11.03.21.04.32.02.18.03.36.04.55,0,.14,0,.29,0,.43,0,.15,0,.29,0,.44,0,.18-.02.36-.04.54-.01.11-.02.21-.04.32-.03.23-.07.45-.12.68-.01.06-.02.11-.04.17-.21.89-.55,1.77-1.03,2.6-.48.83-1.07,1.57-1.74,2.19Z"/>
          </g>
          <g>
            <rect class="cls-14" x="79.4" y="207.57" width="86.26" height="59.6" rx="8.89" ry="8.89"/>
            <g class="cls-11">
              <polygon class="cls-6" points="110.06 223.31 93.83 237.37 110.06 251.42 110.06 243.8 102.62 237.37 110.06 230.93 110.06 223.31"/>
              <polygon class="cls-6" points="135.01 251.42 151.25 237.37 135.01 223.31 135.01 230.93 142.45 237.37 135.01 243.8 135.01 251.42"/>
              <polygon class="cls-6" points="120.97 256.01 114.09 256.01 124.11 218.73 130.98 218.73 120.97 256.01"/>
            </g>
          </g>
          <g>
            <rect class="cls-17" x="301.18" y="43.7" width="95.15" height="95.15" rx="8.89" ry="8.89"/>
            <g class="cls-3">
              <path class="cls-6" d="M372.33,73.73c-1.96,0-3.82.44-5.48,1.22-2.28-8.14-9.74-14.11-18.61-14.11s-16.09,5.78-18.5,13.72c-1.42-.54-2.95-.83-4.55-.83-7.12,0-12.89,5.77-12.89,12.89h72.92c0-7.12-5.77-12.89-12.89-12.89Z"/>
              <polygon class="cls-6" points="335.35 108.31 348.76 121.72 362.17 108.31 353.13 108.31 353.13 92.49 344.38 92.49 344.38 108.31 335.35 108.31"/>
            </g>
          </g>
          <g>
            <rect class="cls-20" x="18.08" y="39.4" width="68.49" height="68.49" rx="8.89" ry="8.89"/>
            <rect class="cls-5" x="26.17" y="47.49" width="52.31" height="52.31"/>
            <g>
              <rect class="cls-6" x="35.02" y="57.67" width="4.81" height="2.21"/>
              <rect class="cls-18" x="42.35" y="57.67" width="24.61" height="2.21"/>
              <rect class="cls-6" x="35.02" y="65.1" width="7.48" height="2.21"/>
              <rect class="cls-18" x="45.02" y="65.1" width="24.61" height="2.21"/>
              <rect class="cls-6" x="35.02" y="79.07" width="4.81" height="2.21"/>
              <rect class="cls-18" x="42.35" y="79.07" width="24.61" height="2.21"/>
              <rect class="cls-6" x="35.02" y="86.49" width="7.48" height="2.21"/>
              <rect class="cls-18" x="45.02" y="86.49" width="24.61" height="2.21"/>
              <rect class="cls-6" x="30.58" y="72.53" width="7.48" height="2.21"/>
              <rect class="cls-18" x="40.57" y="72.53" width="33.5" height="2.21"/>
            </g>
          </g>
        </g>
        <g>
          <rect class="cls-9" x="205.04" y="205.7" width="20.06" height="20.06"/>
          <rect class="cls-9" x="234.18" y="205.7" width="20.06" height="20.06"/>
          <rect class="cls-9" x="263.33" y="205.7" width="20.06" height="20.06"/>
          <g>
            <rect class="cls-9" x="293.09" y="151.21" width="30.25" height="2.21"/>
            <rect class="cls-9" x="293.09" y="159.52" width="30.25" height="2.21"/>
            <rect class="cls-9" x="293.09" y="167.84" width="30.25" height="2.21"/>
          </g>
        </g>
      </g>
    </g>
  </g>
</svg>