<svg width="618" height="644" viewBox="0 0 618 644" fill="none" xmlns="http://www.w3.org/2000/svg">
<g clip-path="url(#clip0_294_11774)">
<g style="mix-blend-mode:multiply" opacity="0.3">
<path d="M448.505 342.962L130.894 526.344L130.705 526.379L99.7519 532.927C95.8162 532.222 92.0523 534.852 91.3476 538.787C90.643 542.723 93.2725 546.487 97.2083 547.192L132.75 539.681L271.344 619.702L251.218 623.965C247.283 623.26 243.519 625.89 242.814 629.825C242.109 633.761 244.739 637.525 248.675 638.23L288.754 629.757L300.166 636.339V636.442L373.364 592.754C373.175 594.541 373.107 596.346 373.21 598.167C374.739 625.58 410.539 645.861 453.145 643.489C495.751 641.1 529.059 616.953 527.529 589.54C526.12 564.327 495.717 545.146 457.682 544.098L617.931 453.008V440.909L618 440.857L448.488 342.996L448.505 342.962Z" fill="#07181F"/>
</g>
<g opacity="0.8">
<path d="M193.402 172.95L73.0951 243.966L71.6514 243.244V155.368L193.385 85.0918L194.811 85.8136L193.402 172.95Z" fill="#40445A"/>
<path d="M194.845 173.672L73.0947 243.966V156.107L194.845 85.8135V173.672Z" fill="#30384F"/>
<path d="M84.5235 165.714L81.1377 167.674V164.889L84.5235 162.947V165.714Z" fill="white"/>
<path d="M134.055 137.116L88.2871 163.532V160.765L134.055 134.349V137.116Z" fill="#F5D434"/>
<path d="M84.5235 172.211L81.1377 174.171V171.386L84.5235 169.444V172.211Z" fill="white"/>
<path d="M109.427 157.826L88.2871 170.028V167.261L109.427 155.059V157.826Z" fill="#F5D434"/>
<path d="M84.5235 178.707L81.1377 180.667V177.9L84.5235 175.94V178.707Z" fill="white"/>
<path d="M120.358 158.015L88.2871 176.525V173.758L120.358 155.248V158.015Z" fill="#F5D434"/>
<path d="M84.5235 185.205L81.1377 187.164V184.397L84.5235 182.438V185.205Z" fill="white"/>
<path d="M126.579 160.919L88.2871 183.022V180.254L126.579 158.152V160.919Z" fill="#F5D434"/>
<path d="M84.5235 194.657L81.1377 196.616V193.832L84.5235 191.89V194.657Z" fill="white"/>
<path d="M112.538 178.484L88.3047 192.474V189.707L112.538 175.717V178.484Z" fill="#F1646A"/>
<path d="M84.5235 201.153L81.1377 203.112V200.328L84.5235 198.386V201.153Z" fill="white"/>
<path d="M132.784 173.293L88.3047 198.97V196.203L132.784 170.526V173.293Z" fill="#F1646A"/>
<path d="M84.5235 207.65L81.1377 209.609V206.825L84.5235 204.883V207.65Z" fill="white"/>
<path d="M105.835 195.344L88.3047 205.467V202.7L105.835 192.577V195.344Z" fill="#F1646A"/>
<path d="M84.5235 214.146L81.1377 216.105V213.321L84.5235 211.379V214.146Z" fill="white"/>
<path d="M119.653 193.866L88.3047 211.964V209.197L119.653 191.082V193.866Z" fill="#F1646A"/>
<path d="M156.622 123.434L159.217 121.939V119.825L156.622 121.32V123.434Z" fill="white"/>
<path d="M180.048 107.795L162.088 118.159V120.272L180.048 109.909V107.795Z" fill="white"/>
<path d="M156.622 128.385L159.217 126.889V124.775L156.622 126.271V128.385Z" fill="white"/>
<path d="M170.389 118.33L162.088 123.125V125.222L170.389 120.444V118.33Z" fill="white"/>
<path d="M156.622 133.334L159.217 131.839V129.742L156.622 131.22V133.334Z" fill="white"/>
<path d="M174.686 120.806L162.088 128.076V130.19L174.686 122.92V120.806Z" fill="white"/>
<path d="M156.622 138.284L159.217 136.806V134.692L156.622 136.188V138.284Z" fill="white"/>
<path d="M177.109 124.346L162.088 133.025V135.139L177.109 126.46V124.346Z" fill="white"/>
<path d="M156.622 145.503L159.217 144.008V141.894L156.622 143.389V145.503Z" fill="white"/>
<path d="M173.792 133.472L162.088 140.226V142.34L173.792 135.586V133.472Z" fill="white"/>
<path d="M156.622 150.452L159.217 148.957V146.843L156.622 148.338V150.452Z" fill="white"/>
<path d="M162.088 145.193V147.307L183.571 134.898V132.784L162.088 145.193Z" fill="white"/>
<path d="M156.622 155.403L159.217 153.925V151.811L156.622 153.306V155.403Z" fill="white"/>
<path d="M170.561 145.262L162.088 150.143V152.257L170.561 147.376V145.262Z" fill="white"/>
<path d="M156.622 160.369L159.217 158.874V156.76L156.622 158.255V160.369Z" fill="white"/>
<path d="M162.088 157.207L177.247 148.459V146.362L162.088 155.093V157.207Z" fill="white"/>
</g>
<g opacity="0.8">
<path d="M258.918 171.025L138.611 242.041L137.167 241.319V153.461L258.918 83.167L260.327 83.8888L258.918 171.025Z" fill="#85B8E3"/>
<path d="M260.43 171.867L138.68 242.161V154.302L260.43 84.0088V171.867Z" fill="#BED6F0"/>
<path d="M237.916 162.071L161.194 206.378V165.319L237.916 121.012V162.071Z" fill="#54A4DB"/>
<path d="M231.712 134.435L167.382 171.558V169.788L231.712 132.647V134.435Z" fill="white"/>
<path d="M231.712 140.622L167.382 177.762V175.992L231.712 138.852V140.622Z" fill="white"/>
<path d="M231.712 146.826L167.382 183.966V182.196L231.712 145.056V146.826Z" fill="white"/>
<path d="M260.43 92.4818L138.68 162.776V154.302L260.43 84.0088V92.4818Z" fill="#54A4DB"/>
</g>
<path d="M280.246 49.4131C278.888 51.7677 278.063 54.3972 278.063 56.7862V97.7421C278.063 102.537 287.911 109.274 292.053 106.885L324.485 83.3225C326.599 82.1022 328.507 79.9883 329.881 77.5649C314.551 68.8856 296.453 56.7862 280.263 49.4131H280.246Z" fill="#F5D434"/>
<path d="M324.485 83.3223L292.053 106.885C287.911 109.274 278.063 102.537 278.063 97.742V56.786C278.063 51.9909 281.415 46.1818 285.574 43.7757L321.047 23.3063C325.189 20.9173 335.536 25.8327 335.587 30.0779L331.995 70.312C331.995 75.1071 328.627 80.9162 324.485 83.3223Z" fill="#FAE9AB"/>
<path d="M280.246 49.4131C278.888 51.7677 278.063 54.3972 278.063 56.7862V97.7421C278.063 102.537 287.911 109.274 292.053 106.885L324.485 83.3225C326.599 82.1022 328.507 79.9883 329.881 77.5649C314.551 68.8856 296.453 56.7862 280.263 49.4131H280.246Z" fill="#F5D434"/>
<g style="mix-blend-mode:multiply">
<path d="M280.246 49.4131C278.888 51.7677 278.063 54.3972 278.063 56.7862V97.7421C278.063 102.537 287.911 109.274 292.053 106.885L324.485 83.3225C326.599 82.1022 328.507 79.9883 329.881 77.5649C314.551 68.8856 296.453 56.7862 280.263 49.4131H280.246Z" fill="#F9E495"/>
</g>
<path d="M328.455 85.9689L292.981 106.438C288.839 108.827 285.471 106.885 285.471 102.107V61.1513C285.471 56.3562 288.822 50.5471 292.981 48.1409L328.455 27.6715C332.597 25.2826 335.965 27.2247 335.965 32.0026V72.9586C335.965 77.7536 332.614 83.5628 328.455 85.9689Z" fill="#F5D434"/>
<path d="M297.504 72.9025L292.424 72.8113C292.243 72.8121 292.11 72.7382 292.024 72.5895C291.953 72.4667 291.956 72.3145 292.032 72.1327L294.493 67.6875C294.582 67.5584 294.705 67.4876 294.861 67.4748C295.021 67.4519 295.143 67.5148 295.229 67.6634C295.315 67.812 295.319 67.9606 295.241 68.109L292.863 72.3637L292.623 71.9468L297.501 72.0251C297.673 72.0382 297.798 72.1126 297.876 72.2483C297.936 72.3517 297.952 72.4544 297.925 72.5563C297.904 72.6545 297.854 72.7394 297.774 72.811C297.701 72.8789 297.611 72.9094 297.504 72.9025ZM300.1 73.4844C299.964 73.5628 299.826 73.5694 299.685 73.5043C299.554 73.442 299.477 73.3229 299.453 73.1472L298.115 63.8C298.1 63.714 298.113 63.633 298.155 63.5569C298.198 63.4808 298.257 63.4204 298.335 63.3756C298.477 63.2935 298.614 63.292 298.746 63.371C298.874 63.4436 298.953 63.5575 298.982 63.7129L300.326 73.0697C300.338 73.1659 300.322 73.2488 300.276 73.3184C300.23 73.3881 300.171 73.4434 300.1 73.4844ZM303.937 69.1886C303.889 69.285 303.814 69.3497 303.713 69.3825C303.617 69.4116 303.519 69.4125 303.417 69.3852C303.321 69.3542 303.244 69.287 303.184 69.1836C303.106 69.0479 303.104 68.9026 303.178 68.7477L305.56 64.4777L305.8 64.8945L300.917 64.8316C300.75 64.8249 300.623 64.7473 300.537 64.5986C300.451 64.45 300.455 64.3144 300.548 64.1918C300.643 64.059 300.769 63.9863 300.926 63.9736L306.006 64.0648C306.201 64.0898 306.335 64.1637 306.406 64.2865C306.491 64.4352 306.489 64.5874 306.398 64.7433L303.937 69.1886Z" fill="#757B98"/>
<path style="mix-blend-mode:overlay" opacity="0.7" d="M335.965 42.9335V32.0028C335.965 27.2077 332.597 25.2828 328.455 27.6717L292.981 48.1411C288.839 50.53 285.471 56.3563 285.471 61.1514V90.0767C299.701 69.0917 317.352 52.1112 335.948 42.9335H335.965Z" fill="url(#paint0_linear_294_11774)"/>
<path d="M95.4897 116.028L63.0583 139.591C58.9163 141.98 49.0684 135.243 49.0684 130.448V89.4921C49.0684 84.697 52.4198 78.8879 56.579 76.4817L92.0523 56.0123C96.1943 53.6234 106.541 58.5388 106.592 62.7839L103 103.018C103 107.813 99.6317 113.622 95.4897 116.028Z" fill="#BBE6FB"/>
<path d="M51.2511 82.1191C49.8933 84.4737 49.0684 87.1033 49.0684 89.4922V130.448C49.0684 135.243 58.9163 141.98 63.0583 139.592L95.4897 116.029C97.6037 114.808 99.5114 112.694 100.886 110.271C85.5558 101.592 67.4581 89.4922 51.2683 82.1191H51.2511Z" fill="#54A4DB"/>
<path d="M51.2511 82.1191C49.8933 84.4737 49.0684 87.1033 49.0684 89.4922V130.448C49.0684 135.243 58.9163 141.98 63.0583 139.592L95.4897 116.029C97.6037 114.808 99.5114 112.694 100.886 110.271C85.5558 101.592 67.4581 89.4922 51.2683 82.1191H51.2511Z" fill="#54A4DB"/>
<g style="mix-blend-mode:multiply">
<path d="M51.2511 82.1191C49.8933 84.4737 49.0684 87.1033 49.0684 89.4922V130.448C49.0684 135.243 58.9163 141.98 63.0583 139.592L95.4897 116.029C97.6037 114.808 99.5114 112.694 100.886 110.271C85.5558 101.592 67.4581 89.4922 51.2683 82.1191H51.2511Z" fill="#A1C6E9"/>
</g>
<path d="M99.4596 118.693L63.9862 139.162C59.8442 141.551 56.4756 139.609 56.4756 134.831V93.8749C56.4756 89.0798 59.827 83.2707 63.9862 80.8646L99.4596 60.3952C103.602 58.0062 106.97 59.9483 106.97 64.7262V105.682C106.97 110.477 103.619 116.286 99.4596 118.693Z" fill="#54A4DB"/>
<path style="mix-blend-mode:overlay" opacity="0.7" d="M106.97 75.6571V64.7264C106.97 59.9313 103.602 58.0064 99.4596 60.3953L63.9862 80.8647C59.8442 83.2537 56.4756 89.08 56.4756 93.8751V122.8C70.7062 101.815 88.3569 84.8349 106.953 75.6571H106.97Z" fill="url(#paint1_linear_294_11774)"/>
<path d="M215.436 61.0307L183.005 84.5937C178.863 86.9827 169.015 80.2455 169.015 75.4504V34.4944C169.015 29.6993 172.366 23.8902 176.525 21.4841L211.999 1.03187C216.141 -1.35708 226.487 3.55832 226.539 7.80344L222.947 48.0375C222.947 52.8326 219.578 58.6418 215.436 61.0479V61.0307Z" fill="#F9B9B3"/>
<path d="M171.215 27.1211C169.857 29.4757 169.032 32.1052 169.032 34.4942V75.4501C169.032 80.2452 178.88 86.9824 183.022 84.5935L215.454 61.0305C217.568 59.8102 219.475 57.6963 220.85 55.2729C205.52 46.5936 187.422 34.4942 171.232 27.1211H171.215Z" fill="#F1646A"/>
<g style="mix-blend-mode:multiply">
<path d="M171.215 27.1211C169.857 29.4757 169.032 32.1052 169.032 34.4942V75.4501C169.032 80.2452 178.88 86.9824 183.022 84.5935L215.454 61.0305C217.568 59.8102 219.475 57.6963 220.85 55.2729C205.52 46.5936 187.422 34.4942 171.232 27.1211H171.215Z" fill="#F7A7A1"/>
</g>
<path d="M219.423 63.6945L183.95 84.1639C179.808 86.5528 176.439 84.6107 176.439 79.8328V38.8769C176.439 34.0818 179.791 28.2727 183.95 25.8665L219.423 5.39713C223.565 3.00818 226.934 4.95028 226.934 9.72819V50.6841C226.934 55.4792 223.583 61.2883 219.423 63.6945Z" fill="#F37C7B"/>
<path style="mix-blend-mode:overlay" opacity="0.7" d="M226.916 20.6591V9.72835C226.916 4.93325 223.548 3.00834 219.406 5.3973L183.932 25.8667C179.79 28.2556 176.422 34.0819 176.422 38.877V67.8023C190.652 46.8173 208.303 29.8368 226.899 20.6591H226.916Z" fill="url(#paint2_linear_294_11774)"/>
<path d="M2.18271 214.886C0.842149 217.223 0 219.87 0 222.259V263.215C0 268.01 9.84799 274.747 13.99 272.358L46.4213 248.795C48.5353 247.575 50.443 245.461 51.818 243.038C36.4874 234.358 18.3898 222.259 2.1999 214.886H2.18271Z" fill="#F5D434"/>
<path d="M46.4213 248.778L13.99 272.341C9.84799 274.73 0 267.993 0 263.198V222.242C0 217.447 3.35141 211.638 7.5106 209.232L42.984 188.762C47.126 186.373 57.4724 191.289 57.5239 195.534L53.9319 235.768C53.9319 240.563 50.5633 246.372 46.4213 248.778Z" fill="#FAE9AB"/>
<path d="M2.18271 214.886C0.842149 217.223 0 219.87 0 222.259V263.215C0 268.01 9.84799 274.747 13.99 272.358L46.4213 248.795C48.5353 247.575 50.443 245.461 51.818 243.038C36.4874 234.358 18.3898 222.259 2.1999 214.886H2.18271Z" fill="#F5D434"/>
<g style="mix-blend-mode:multiply">
<path d="M2.18271 214.886C0.842149 217.223 0 219.87 0 222.259V263.215C0 268.01 9.84799 274.747 13.99 272.358L46.4213 248.795C48.5353 247.575 50.443 245.461 51.818 243.038C36.4874 234.358 18.3898 222.259 2.1999 214.886H2.18271Z" fill="#F9E495"/>
</g>
<path d="M50.3912 251.443L14.9178 271.912C10.7758 274.301 7.40723 272.359 7.40723 267.581V226.625C7.40723 221.83 10.7586 216.021 14.9178 213.615L50.3912 193.145C54.5332 190.756 57.9018 192.698 57.9018 197.476V238.432C57.9018 243.227 54.5504 249.036 50.3912 251.443Z" fill="#F5D434"/>
<path style="mix-blend-mode:overlay" opacity="0.7" d="M57.9018 208.407V197.476C57.9018 192.681 54.5332 190.756 50.3912 193.145L14.9178 213.615C10.7758 216.004 7.40723 221.83 7.40723 226.625V255.55C21.6378 234.565 39.2886 217.585 57.8846 208.407H57.9018Z" fill="url(#paint3_linear_294_11774)"/>
<path d="M392.063 508.383L393.077 522.236C393.077 522.236 394.83 530.227 387.956 536.037C381.081 541.846 370.803 539.646 363.276 536.037C357.312 533.184 339.438 525.106 331.91 512.989C330.054 509.999 325.723 503.244 333.663 499.016C338.784 496.301 349.475 500.494 357.071 502.23C361.729 503.296 369.274 504.465 369.274 504.465C369.274 504.465 376.028 499.927 382.868 502.746C389.709 505.565 392.545 502.712 392.063 508.383Z" fill="#30384F"/>
<path d="M363.138 494.239C363.138 494.239 361.402 508.384 374.774 511.357C388.145 514.33 397.46 510.532 399.041 503.004C400.021 498.347 404.524 454.589 407.274 430.081L372.196 402.857L363.155 494.239H363.138Z" fill="#474B5F"/>
<path d="M501.027 439.018C499.377 426.712 494.771 414.905 493.379 402.599L461.996 412.104C461.996 412.104 413.34 390.775 399.677 388.919C391.805 387.853 384.982 387.475 377.729 394.092C368.723 402.324 370.27 412.121 370.27 412.121L370.889 417.895L423.893 446.254C423.893 446.15 443.864 457.201 453.918 460.123C469.3 464.592 489.821 460.948 497.761 456.48C498.844 455.861 500.288 455.105 501.955 454.211C501.92 449.107 501.697 444.036 501.009 438.984L501.027 439.018Z" fill="#474B5F"/>
<path d="M348.581 537.583L349.595 551.436C349.595 551.436 351.348 559.428 344.473 565.237C337.599 571.046 327.321 568.846 319.793 565.237C313.829 562.384 295.955 554.306 288.427 542.189C286.571 539.199 282.24 532.444 290.18 528.217C295.302 525.501 305.992 529.695 313.589 531.431C318.246 532.496 325.791 533.665 325.791 533.665C325.791 533.665 332.546 529.127 339.386 531.946C346.226 534.765 349.062 531.912 348.581 537.583Z" fill="#383E54"/>
<path d="M506.681 614.288C504.739 613.171 503.02 613.291 501.955 614.374L501.852 614.219L492.21 619.65L499.806 633.881L510.651 628.57C511.734 627.848 512.336 626.49 512.336 623.74C512.336 620.045 509.878 616.127 506.664 614.271L506.681 614.288Z" fill="#30384F"/>
<path d="M501.869 630.116C501.869 633.811 499.274 635.307 496.077 633.468C492.88 631.612 490.285 627.126 490.285 623.431C490.285 619.736 492.88 618.24 496.077 620.079C499.274 621.935 501.869 626.421 501.869 630.116Z" fill="#30384F"/>
<path d="M389.829 617.175C391.771 616.058 393.49 616.179 394.556 617.261L394.659 617.107L404.3 622.538L396.704 636.768L385.859 631.458C384.776 630.736 384.175 629.378 384.175 626.628C384.175 622.933 386.633 619.014 389.846 617.158L389.829 617.175Z" fill="#30384F"/>
<path d="M394.642 633.022C394.642 636.717 397.237 638.212 400.434 636.373C403.63 634.517 406.225 630.031 406.225 626.336C406.225 622.641 403.63 621.146 400.434 622.985C397.237 624.841 394.642 629.326 394.642 633.022Z" fill="#30384F"/>
<path d="M497.864 566.045C499.806 564.927 501.525 565.048 502.591 566.13L502.694 565.976L512.336 571.407L504.739 585.637L493.894 580.327C492.811 579.605 492.21 578.247 492.21 575.497C492.21 571.802 494.668 567.883 497.882 566.027L497.864 566.045Z" fill="#30384F"/>
<path d="M502.677 581.891C502.677 585.586 505.272 587.081 508.469 585.242C511.665 583.403 514.261 578.9 514.261 575.205C514.261 571.51 511.665 570.015 508.469 571.854C505.272 573.71 502.677 578.196 502.677 581.891Z" fill="#30384F"/>
<path d="M407.325 566.045C405.383 564.927 403.664 565.048 402.598 566.13L402.495 565.976L392.854 571.407L400.45 585.637L411.295 580.327C412.378 579.605 412.979 578.247 412.979 575.497C412.979 571.802 410.521 567.883 407.308 566.027L407.325 566.045Z" fill="#30384F"/>
<path d="M402.513 581.891C402.513 585.586 399.917 587.081 396.721 585.242C393.524 583.386 390.929 578.9 390.929 575.205C390.929 571.51 393.524 570.015 396.721 571.854C399.917 573.71 402.513 578.196 402.513 581.891Z" fill="#30384F"/>
<path d="M452.182 584.16L402.427 559.961C402.427 559.961 399.849 558.397 396.308 560.322C392.768 562.247 392.441 564.859 392.441 564.859V568.399L443.778 594.128L452.182 584.16Z" fill="#6D6C7D"/>
<path d="M445.909 586.102L498.569 559.978C498.569 559.978 500.872 558.414 504.413 560.339C507.953 562.264 508.005 564.876 508.005 564.876V568.417L454.056 596.07L445.926 586.102H445.909Z" fill="#6D6C7D"/>
<path d="M447.525 569.053H449.759C455.362 569.053 459.899 573.59 459.899 579.193V599.611H437.385V579.193C437.385 573.59 441.922 569.053 447.525 569.053Z" fill="#40445A"/>
<path d="M443.692 543.582V572.267C443.692 572.267 443.761 578.059 449.553 578.059C455.345 578.059 454.125 572.92 454.125 572.92V543.599H443.692V543.582Z" fill="#30384F"/>
<path d="M437.608 517.321V544.338C437.608 544.338 441.389 549.167 448.144 549.167C454.898 549.167 459.332 544.338 459.332 544.338V513.471L437.608 517.338V517.321Z" fill="#40445A"/>
<path d="M318.212 525.536C318.212 525.536 316.528 539.285 329.521 542.173C342.497 545.06 351.571 541.365 353.101 534.061C354.046 529.541 358.429 487.021 361.093 463.217L327.012 436.767L318.229 525.553L318.212 525.536Z" fill="#5F5F72"/>
<path d="M407.325 452.218C421.143 443.384 430.561 438.451 442.059 436.784C458.627 434.378 480.489 441.768 492.708 446.907C500.58 450.224 523.902 460.089 518.437 472.962C514.553 482.105 495.441 488.722 481.451 495.477C467.461 502.231 449.295 514.124 433.861 515.087C418.427 516.049 401.55 507.851 387.56 498.691C373.57 489.53 375.014 476.348 384.191 468.15C391.599 461.516 395.277 459.952 407.342 452.235L407.325 452.218Z" fill="#2676BC"/>
<path d="M502.917 415.747L418.531 441.32C418.531 441.32 369.875 419.992 356.212 418.136C348.34 417.07 341.517 416.692 334.264 423.309C325.258 431.541 326.805 441.338 326.805 441.338L327.424 447.112L380.428 475.471C380.428 475.367 400.399 486.418 410.453 489.34C425.835 493.809 446.356 490.165 454.296 485.697C462.237 481.228 488.034 468.819 497.951 457.906C507.867 446.992 502.9 415.729 502.9 415.729L502.917 415.747Z" fill="#5F5F72"/>
<path d="M376.784 480.661V494.17C376.784 494.17 379.104 508.006 393.576 515.722C408.047 523.439 430.596 529.867 441.527 525.691C452.457 521.514 493.637 500.289 502.643 495.459C511.648 490.63 516.151 488.069 517.767 483.875C519.382 479.682 518.093 466.826 518.093 466.826C518.093 466.826 494.616 485.474 467.616 494.48C440.598 503.485 430.252 508.624 417.053 505.41C403.87 502.196 376.784 480.644 376.784 480.644V480.661Z" fill="#30384F"/>
<path d="M435.77 523.112C431.765 516.702 434.412 509.638 438.726 504.121C430.356 506.476 424.083 507.146 417.036 505.427C403.854 502.213 376.768 480.661 376.768 480.661V494.17C376.768 494.17 379.088 508.005 393.559 515.722C406.982 522.889 427.365 528.921 438.966 526.429C437.832 525.45 436.801 524.367 435.77 523.112Z" fill="#40445A"/>
<path d="M389.949 619.857C389.949 619.857 385.361 612.466 392.442 609.888C399.522 607.31 438.863 587.7 438.863 587.7C438.863 587.7 447.336 588.989 447.336 592.203C447.336 595.417 448.298 599.284 448.298 599.284C448.298 599.284 405.538 619.221 401.344 621.472C397.168 623.724 393.627 622.108 389.932 619.857H389.949Z" fill="#6D6C7D"/>
<path d="M510.102 619.857C510.102 619.857 513.711 612.467 506.647 609.889C499.566 607.311 460.552 586.738 460.552 586.738C460.552 586.738 452.389 588.027 452.389 591.241V598.322C452.389 598.322 494.84 619.221 499.016 621.473C503.193 623.724 506.407 622.109 510.102 619.857Z" fill="#6D6C7D"/>
<path d="M250.05 637.73C246.045 637.73 242.797 634.482 242.797 630.477V466.757H257.285V630.477C257.285 634.482 254.037 637.73 250.032 637.73H250.05Z" fill="#E2E1E7"/>
<path d="M249.637 466.757V637.679C249.774 637.679 249.895 637.714 250.032 637.714C254.037 637.714 257.285 634.465 257.285 630.461V466.74H249.637V466.757Z" fill="#BCBCCB"/>
<path d="M98.3426 546.504C94.3381 546.504 91.0898 543.255 91.0898 539.251V375.53H105.578V539.251C105.578 543.255 102.33 546.504 98.3255 546.504H98.3426Z" fill="#E2E1E7"/>
<path d="M97.9473 375.547V546.469C98.0848 546.469 98.2051 546.504 98.3426 546.504C102.347 546.504 105.595 543.255 105.595 539.251V375.53H97.9473V375.547Z" fill="#BCBCCB"/>
<path d="M531.001 292.879H545.489V456.6C545.489 460.604 542.241 463.852 538.236 463.852C534.232 463.852 530.983 460.604 530.983 456.6V292.879H531.001Z" fill="#E2E1E7"/>
<path d="M537.841 292.879V463.801C537.978 463.801 538.099 463.836 538.236 463.836C542.241 463.836 545.489 460.587 545.489 456.583V292.862H537.841V292.879Z" fill="#BCBCCB"/>
<path d="M386.546 372.626C382.541 372.626 379.293 369.378 379.293 365.373V201.652H393.781V365.373C393.781 369.378 390.533 372.626 386.529 372.626H386.546Z" fill="#D5D5DE"/>
<path d="M386.133 201.67V372.591C386.27 372.591 386.391 372.626 386.528 372.626C390.533 372.626 393.781 369.378 393.781 365.373V201.652H386.133V201.67Z" fill="#C4C4D1"/>
<path d="M559.685 288.153L241.92 471.621L72.4072 373.76L390.19 190.292L559.685 288.153Z" fill="#A2D3D1"/>
<path d="M241.868 483.687V471.57L72.373 373.709V385.808L241.868 483.687Z" fill="#B4B5C5"/>
<path d="M559.617 300.305V288.205L241.852 471.673V483.773L559.617 300.305Z" fill="#9C9EB4"/>
<g style="mix-blend-mode:multiply" opacity="0.3">
<path d="M394.727 296.971L286.949 360.269L241.61 336.535L242.676 346.039L287.516 365.821L395.105 303.467L394.727 296.971Z" fill="#626C8C"/>
</g>
<path d="M241.61 334.815L242.676 344.32L287.516 364.102L286.949 358.55L241.61 334.815Z" fill="#A4A6BA"/>
<path d="M352.808 271.826L394.761 295.441L286.949 358.55L241.61 334.816L352.808 271.826Z" fill="white"/>
<path d="M394.727 295.252L286.949 358.551L287.516 364.102L395.105 301.749L394.727 295.252Z" fill="#888CA6"/>
<path fill-rule="evenodd" clip-rule="evenodd" d="M257.027 335.692L252.937 333.338L257.216 330.846L261.324 333.217L257.027 335.692Z" fill="#626C8C"/>
<path fill-rule="evenodd" clip-rule="evenodd" d="M265.397 330.845L261.289 328.49L265.586 326.016L269.676 328.37L265.397 330.845Z" fill="#626C8C"/>
<path fill-rule="evenodd" clip-rule="evenodd" d="M270.759 327.752L266.651 325.38L270.948 322.905L275.038 325.26L270.759 327.752Z" fill="#626C8C"/>
<path fill-rule="evenodd" clip-rule="evenodd" d="M276.121 324.641L272.014 322.286L276.293 319.794L280.401 322.149L276.121 324.641Z" fill="#626C8C"/>
<path fill-rule="evenodd" clip-rule="evenodd" d="M284.474 319.794L280.366 317.439L284.663 314.947L288.771 317.319L284.474 319.794Z" fill="#626C8C"/>
<path fill-rule="evenodd" clip-rule="evenodd" d="M289.836 316.684L285.729 314.329L290.025 311.854L294.116 314.209L289.836 316.684Z" fill="#626C8C"/>
<path fill-rule="evenodd" clip-rule="evenodd" d="M295.198 313.59L291.091 311.235L295.387 308.743L299.478 311.098L295.198 313.59Z" fill="#626C8C"/>
<path fill-rule="evenodd" clip-rule="evenodd" d="M303.551 308.743L299.461 306.389L303.74 303.896L307.848 306.251L303.551 308.743Z" fill="#626C8C"/>
<path fill-rule="evenodd" clip-rule="evenodd" d="M308.913 305.632L304.806 303.278L309.102 300.803L313.21 303.157L308.913 305.632Z" fill="#626C8C"/>
<path fill-rule="evenodd" clip-rule="evenodd" d="M314.276 302.539L310.168 300.167L314.465 297.692L318.555 300.047L314.276 302.539Z" fill="#626C8C"/>
<path fill-rule="evenodd" clip-rule="evenodd" d="M322.852 297.555L318.744 295.2L323.041 292.726L327.131 295.08L322.852 297.555Z" fill="#626C8C"/>
<path fill-rule="evenodd" clip-rule="evenodd" d="M327.956 294.479L323.935 292.055L328.334 289.598L332.356 292.021L327.956 294.479Z" fill="#626C8C"/>
<path fill-rule="evenodd" clip-rule="evenodd" d="M333.576 291.351L329.469 288.996L333.748 286.504L337.856 288.876L333.576 291.351Z" fill="#626C8C"/>
<path fill-rule="evenodd" clip-rule="evenodd" d="M340.434 287.38L336.326 285.025L340.623 282.533L344.713 284.888L340.434 287.38Z" fill="#626C8C"/>
<path fill-rule="evenodd" clip-rule="evenodd" d="M345.796 284.269L341.688 281.914L345.968 279.439L350.076 281.794L345.796 284.269Z" fill="#626C8C"/>
<path fill-rule="evenodd" clip-rule="evenodd" d="M351.141 281.176L347.051 278.804L351.33 276.329L355.438 278.684L351.141 281.176Z" fill="#626C8C"/>
<path fill-rule="evenodd" clip-rule="evenodd" d="M358.738 285.524L354.63 283.169L358.927 280.694L363.034 283.049L358.738 285.524Z" fill="#626C8C"/>
<path fill-rule="evenodd" clip-rule="evenodd" d="M363.86 288.48L359.77 286.126L364.049 283.634L368.157 285.988L363.86 288.48Z" fill="#626C8C"/>
<path fill-rule="evenodd" clip-rule="evenodd" d="M353.376 288.635L349.285 286.28L353.565 283.788L357.672 286.143L353.376 288.635Z" fill="#626C8C"/>
<path fill-rule="evenodd" clip-rule="evenodd" d="M358.515 291.574L354.407 289.219L358.687 286.744L362.794 289.099L358.515 291.574Z" fill="#626C8C"/>
<path fill-rule="evenodd" clip-rule="evenodd" d="M348.013 291.745L343.923 289.373L348.202 286.898L352.31 289.253L348.013 291.745Z" fill="#626C8C"/>
<path fill-rule="evenodd" clip-rule="evenodd" d="M353.153 294.685L349.045 292.33L353.324 289.838L357.432 292.21L353.153 294.685Z" fill="#626C8C"/>
<path fill-rule="evenodd" clip-rule="evenodd" d="M379.036 297.193L374.945 294.839L379.225 292.347L383.332 294.718L379.036 297.193Z" fill="#626C8C"/>
<path fill-rule="evenodd" clip-rule="evenodd" d="M373.691 300.305L369.583 297.95L373.863 295.458L377.97 297.813L373.691 300.305Z" fill="#626C8C"/>
<path fill-rule="evenodd" clip-rule="evenodd" d="M368.328 303.415L364.221 301.043L368.517 298.568L372.608 300.923L368.328 303.415Z" fill="#626C8C"/>
<path fill-rule="evenodd" clip-rule="evenodd" d="M368.551 297.348L364.461 294.993L368.74 292.519L372.848 294.873L368.551 297.348Z" fill="#626C8C"/>
<path fill-rule="evenodd" clip-rule="evenodd" d="M334.092 299.806L329.984 297.451L334.264 294.977L338.372 297.331L334.092 299.806Z" fill="#626C8C"/>
<path fill-rule="evenodd" clip-rule="evenodd" d="M328.73 302.917L324.622 300.562L328.902 298.07L333.009 300.442L328.73 302.917Z" fill="#626C8C"/>
<path fill-rule="evenodd" clip-rule="evenodd" d="M323.367 306.027L319.26 303.673L323.556 301.181L327.647 303.535L323.367 306.027Z" fill="#626C8C"/>
<path fill-rule="evenodd" clip-rule="evenodd" d="M318.005 309.121L313.897 306.767L318.194 304.292L322.285 306.647L318.005 309.121Z" fill="#626C8C"/>
<path fill-rule="evenodd" clip-rule="evenodd" d="M312.643 312.232L308.535 309.878L312.832 307.386L316.939 309.758L312.643 312.232Z" fill="#626C8C"/>
<path fill-rule="evenodd" clip-rule="evenodd" d="M307.281 315.343L303.19 312.988L307.47 310.496L311.578 312.851L307.281 315.343Z" fill="#626C8C"/>
<path fill-rule="evenodd" clip-rule="evenodd" d="M301.919 318.437L297.828 316.082L302.108 313.607L306.215 315.962L301.919 318.437Z" fill="#626C8C"/>
<path fill-rule="evenodd" clip-rule="evenodd" d="M296.573 321.548L292.466 319.193L296.745 316.701L300.853 319.073L296.573 321.548Z" fill="#626C8C"/>
<path fill-rule="evenodd" clip-rule="evenodd" d="M291.211 324.658L287.104 322.304L291.4 319.812L295.491 322.166L291.211 324.658Z" fill="#626C8C"/>
<path fill-rule="evenodd" clip-rule="evenodd" d="M285.849 327.752L281.741 325.398L286.244 322.785L290.352 325.157L285.849 327.752Z" fill="#626C8C"/>
<path fill-rule="evenodd" clip-rule="evenodd" d="M280.487 330.862L276.379 328.508L280.882 325.896L284.989 328.25L280.487 330.862Z" fill="#626C8C"/>
<path fill-rule="evenodd" clip-rule="evenodd" d="M275.125 333.974L271.034 331.619L275.52 329.007L279.628 331.361L275.125 333.974Z" fill="#626C8C"/>
<path fill-rule="evenodd" clip-rule="evenodd" d="M269.986 336.947L265.878 334.592L270.175 332.117L274.265 334.472L269.986 336.947Z" fill="#626C8C"/>
<path fill-rule="evenodd" clip-rule="evenodd" d="M264.623 340.058L260.516 337.703L264.812 335.211L268.903 337.566L264.623 340.058Z" fill="#626C8C"/>
<path fill-rule="evenodd" clip-rule="evenodd" d="M277.686 338.407L273.578 336.053L277.875 333.561L281.965 335.915L277.686 338.407Z" fill="#626C8C"/>
<path fill-rule="evenodd" clip-rule="evenodd" d="M283.048 335.296L278.94 332.942L283.22 330.467L287.328 332.821L283.048 335.296Z" fill="#626C8C"/>
<path fill-rule="evenodd" clip-rule="evenodd" d="M288.41 332.203L284.303 329.831L288.582 327.356L292.69 329.711L288.41 332.203Z" fill="#626C8C"/>
<path fill-rule="evenodd" clip-rule="evenodd" d="M293.755 329.093L289.664 326.738L293.944 324.246L298.051 326.601L293.755 329.093Z" fill="#626C8C"/>
<path fill-rule="evenodd" clip-rule="evenodd" d="M299.117 325.982L295.026 323.627L299.306 321.152L303.413 323.507L299.117 325.982Z" fill="#626C8C"/>
<path fill-rule="evenodd" clip-rule="evenodd" d="M304.48 322.888L300.372 320.516L304.669 318.041L308.776 320.396L304.48 322.888Z" fill="#626C8C"/>
<path fill-rule="evenodd" clip-rule="evenodd" d="M309.842 319.777L305.734 317.423L310.031 314.931L314.122 317.285L309.842 319.777Z" fill="#626C8C"/>
<path fill-rule="evenodd" clip-rule="evenodd" d="M314.981 316.787L310.891 314.432L315.394 311.837L319.484 314.191L314.981 316.787Z" fill="#626C8C"/>
<path fill-rule="evenodd" clip-rule="evenodd" d="M320.343 313.693L316.235 311.338L320.738 308.726L324.846 311.08L320.343 313.693Z" fill="#626C8C"/>
<path fill-rule="evenodd" clip-rule="evenodd" d="M325.705 310.582L321.598 308.228L326.101 305.615L330.208 307.97L325.705 310.582Z" fill="#626C8C"/>
<path fill-rule="evenodd" clip-rule="evenodd" d="M331.068 307.471L326.96 305.116L331.257 302.642L335.347 304.996L331.068 307.471Z" fill="#626C8C"/>
<path fill-rule="evenodd" clip-rule="evenodd" d="M336.43 304.378L332.322 302.023L336.619 299.531L340.709 301.886L336.43 304.378Z" fill="#626C8C"/>
<path fill-rule="evenodd" clip-rule="evenodd" d="M337.908 309.43L333.594 306.955L337.89 304.48L342.187 306.955L337.908 309.43Z" fill="#626C8C"/>
<path fill-rule="evenodd" clip-rule="evenodd" d="M332.546 312.541L328.249 310.066L332.528 307.574L336.842 310.049L332.546 312.541Z" fill="#626C8C"/>
<path fill-rule="evenodd" clip-rule="evenodd" d="M327.183 315.635L322.887 313.16L327.166 310.686L331.48 313.16L327.183 315.635Z" fill="#626C8C"/>
<path fill-rule="evenodd" clip-rule="evenodd" d="M321.821 318.746L317.524 316.271L321.804 313.796L326.118 316.271L321.821 318.746Z" fill="#626C8C"/>
<path fill-rule="evenodd" clip-rule="evenodd" d="M316.476 321.857L312.162 319.382L316.442 316.89L320.755 319.365L316.476 321.857Z" fill="#626C8C"/>
<path fill-rule="evenodd" clip-rule="evenodd" d="M311.114 324.951L306.8 322.476L311.096 320.001L315.393 322.476L311.114 324.951Z" fill="#626C8C"/>
<path fill-rule="evenodd" clip-rule="evenodd" d="M305.751 328.061L301.438 325.586L305.734 323.111L310.031 325.586L305.751 328.061Z" fill="#626C8C"/>
<path fill-rule="evenodd" clip-rule="evenodd" d="M300.389 331.172L296.075 328.697L300.372 326.205L304.686 328.68L300.389 331.172Z" fill="#626C8C"/>
<path fill-rule="evenodd" clip-rule="evenodd" d="M295.027 334.265L290.73 331.791L295.233 329.195L299.53 331.67L295.027 334.265Z" fill="#626C8C"/>
<path fill-rule="evenodd" clip-rule="evenodd" d="M289.665 337.376L285.368 334.901L289.871 332.289L294.168 334.764L289.665 337.376Z" fill="#626C8C"/>
<path fill-rule="evenodd" clip-rule="evenodd" d="M284.32 340.487L280.006 338.012L284.509 335.399L288.805 337.874L284.32 340.487Z" fill="#626C8C"/>
<path fill-rule="evenodd" clip-rule="evenodd" d="M292.019 341.69L287.911 339.335L292.208 336.86L296.315 339.215L292.019 341.69Z" fill="#626C8C"/>
<path fill-rule="evenodd" clip-rule="evenodd" d="M297.381 338.597L293.273 336.242L297.57 333.75L301.661 336.105L297.381 338.597Z" fill="#626C8C"/>
<path fill-rule="evenodd" clip-rule="evenodd" d="M302.743 335.485L298.636 333.131L302.932 330.639L307.023 333.01L302.743 335.485Z" fill="#626C8C"/>
<path fill-rule="evenodd" clip-rule="evenodd" d="M308.106 332.375L303.998 330.021L308.278 327.546L312.385 329.9L308.106 332.375Z" fill="#626C8C"/>
<path fill-rule="evenodd" clip-rule="evenodd" d="M313.451 329.281L309.36 326.927L313.64 324.435L317.747 326.789L313.451 329.281Z" fill="#626C8C"/>
<path fill-rule="evenodd" clip-rule="evenodd" d="M318.813 326.171L314.723 323.816L319.002 321.324L323.11 323.679L318.813 326.171Z" fill="#626C8C"/>
<path fill-rule="evenodd" clip-rule="evenodd" d="M324.175 323.06L320.067 320.705L324.364 318.23L328.472 320.585L324.175 323.06Z" fill="#626C8C"/>
<path fill-rule="evenodd" clip-rule="evenodd" d="M329.537 319.966L325.43 317.611L329.726 315.119L333.817 317.474L329.537 319.966Z" fill="#626C8C"/>
<path fill-rule="evenodd" clip-rule="evenodd" d="M334.9 316.855L330.792 314.501L335.089 312.009L339.179 314.363L334.9 316.855Z" fill="#626C8C"/>
<path fill-rule="evenodd" clip-rule="evenodd" d="M340.262 313.745L336.154 311.39L340.451 308.915L344.541 311.27L340.262 313.745Z" fill="#626C8C"/>
<path fill-rule="evenodd" clip-rule="evenodd" d="M356.332 304.429L352.241 302.075L356.521 299.6L360.628 301.954L356.332 304.429Z" fill="#626C8C"/>
<path fill-rule="evenodd" clip-rule="evenodd" d="M358.67 309.001L354.579 306.647L361.643 302.539L365.75 304.894L358.67 309.001Z" fill="#626C8C"/>
<path fill-rule="evenodd" clip-rule="evenodd" d="M350.746 313.59L346.639 311.236L353.496 307.266L357.604 309.62L350.746 313.59Z" fill="#626C8C"/>
<path fill-rule="evenodd" clip-rule="evenodd" d="M342.806 318.179L338.716 315.825L345.573 311.854L349.681 314.209L342.806 318.179Z" fill="#626C8C"/>
<path fill-rule="evenodd" clip-rule="evenodd" d="M300.785 342.533L296.694 340.178L303.552 336.208L307.659 338.563L300.785 342.533Z" fill="#626C8C"/>
<path fill-rule="evenodd" clip-rule="evenodd" d="M292.862 347.122L288.754 344.767L295.611 340.797L299.719 343.151L292.862 347.122Z" fill="#626C8C"/>
<path fill-rule="evenodd" clip-rule="evenodd" d="M284.921 351.728L280.83 349.373L287.688 345.386L291.795 347.74L284.921 351.728Z" fill="#626C8C"/>
<path fill-rule="evenodd" clip-rule="evenodd" d="M345.624 310.651L341.517 308.296L350.952 302.831L355.043 305.186L345.624 310.651Z" fill="#626C8C"/>
<path fill-rule="evenodd" clip-rule="evenodd" d="M339.437 296.713L335.347 294.358L341.345 290.869L345.452 293.224L339.437 296.713Z" fill="#626C8C"/>
<path fill-rule="evenodd" clip-rule="evenodd" d="M269.745 342.997L265.654 340.642L272.512 336.672L276.602 339.026L269.745 342.997Z" fill="#626C8C"/>
<path fill-rule="evenodd" clip-rule="evenodd" d="M279.799 348.771L275.691 346.416L286.846 339.954L290.953 342.326L279.799 348.771Z" fill="#626C8C"/>
<path fill-rule="evenodd" clip-rule="evenodd" d="M274.884 345.953L270.57 343.478L279.146 338.511L283.46 340.986L274.884 345.953Z" fill="#626C8C"/>
<path fill-rule="evenodd" clip-rule="evenodd" d="M308.725 337.944L304.617 335.572L337.633 316.443L341.74 318.815L308.725 337.944Z" fill="#626C8C"/>
<path fill-rule="evenodd" clip-rule="evenodd" d="M343.063 306.217L338.956 303.862L341.878 302.161C342.153 302.006 342.101 301.851 342.049 301.662C342.049 301.628 341.843 301.628 341.843 301.628C341.843 301.525 341.963 301.456 341.843 301.387L337.615 298.895L346.415 293.825L355.472 299.016L343.063 306.217Z" fill="#626C8C"/>
<g style="mix-blend-mode:multiply" opacity="0.3">
<path d="M266.514 335.124C266.514 335.124 271.67 337.616 272.735 340.452C273.801 343.305 276.654 347.739 281.088 350.06C285.539 352.363 289.441 352.913 289.441 352.913C289.441 352.913 293.703 356.642 296.9 358.962C300.097 361.283 337.443 382.611 344.198 384.914C350.952 387.217 368.551 387.406 379.396 385.275C390.241 383.144 400.381 379.586 400.381 379.586C400.381 379.586 400.209 370.701 389.536 367.143C378.863 363.586 346.329 361.626 341.895 358.79C337.443 355.937 298.687 340.298 298.687 340.298C298.687 340.298 273.079 324.297 270.243 326.428C267.39 328.559 266.514 335.142 266.514 335.142V335.124Z" fill="#626C8C"/>
</g>
<g style="mix-blend-mode:multiply" opacity="0.3">
<path d="M341.534 288.892C341.534 288.892 343.132 290.852 347.051 292.089C350.969 293.326 352.911 293.515 353.444 295.647C353.977 297.778 342.771 297.073 342.771 297.073C342.771 297.073 343.665 299.376 346.329 300.098C348.993 300.82 350.419 302.401 352.55 304.017C354.682 305.615 359.838 306.87 362.158 306.681C364.461 306.509 366.3 307.213 366.3 307.213L366.884 310.41L412.274 331.739L421.349 324.984C421.349 324.984 395.93 303.828 386.322 301.868C376.715 299.909 360.542 291.556 359.649 291.195C358.755 290.834 346.638 283.547 345.762 284.269C344.885 284.974 341.517 288.892 341.517 288.892H341.534Z" fill="#626C8C"/>
</g>
<path d="M450.24 449.794C443.485 438.21 444.448 423.739 451.202 414.097C465.673 395.776 488.824 393.834 508.124 381.305C512.198 378.864 519.004 377.816 522.183 381.012C520.516 372.969 516.357 371.474 513.59 371.336C507.489 371.01 502.779 375.1 480.471 386.134C453.78 399.316 449.277 398.027 443.176 403.183C437.075 408.322 433.534 420.542 434.497 433.724C435.459 446.906 445.101 457.528 452.818 457.201C454.674 457.132 456.307 456.84 458.06 456.307C454.571 455.104 451.683 452.698 450.24 449.811V449.794Z" fill="#4E4E4E"/>
<path d="M508.125 381.305C488.824 393.851 465.674 395.776 451.203 414.097C444.448 423.739 443.486 438.21 450.24 449.794C451.684 452.681 454.571 455.087 458.06 456.29C463.629 454.606 470.486 450.378 489.804 442.077C504.619 435.701 512.473 430.184 516.821 422.14C519.915 416.383 521.084 409.508 522.287 399.316C523.266 391.015 523.06 385.154 522.201 381.03C519.004 377.816 512.215 378.881 508.142 381.322L508.125 381.305Z" fill="#333333"/>
<path d="M374.704 299.685C374.704 299.685 368.328 286.16 365.544 284.252C362.759 282.344 356.039 282.361 351.468 281.914C348.03 281.588 340.864 283.117 340.399 286.177C339.935 289.236 342.238 289.752 345.28 290.766C348.34 291.797 352.602 292.69 353.96 293.79C355.318 294.89 355.128 296.815 352.74 296.334C350.368 295.87 346.965 293.344 344.232 294.048C342.084 294.598 341.585 297.864 346.174 299.084C350.746 300.304 349.594 301.353 352.379 302.59C355.163 303.827 358.617 305.993 361.763 305.684C365.441 305.306 372.693 310.376 372.693 310.376L381.63 303.243L374.704 299.668V299.685Z" fill="#FABEB7"/>
<path d="M471.826 296.557L434.6 305.615L386.58 293.842C386.58 293.842 376.938 289.906 369.703 298.104C363.962 306.422 366.575 309.241 366.575 309.241L429.358 337.255C429.358 337.255 438.26 342.429 453.127 340.023C466.808 337.805 507.265 348.066 507.265 348.066C507.265 348.066 512.455 331.79 504.446 313.847C495.991 294.925 477.635 293.962 471.843 296.54L471.826 296.557Z" fill="#54A4DB"/>
<path d="M462.167 296.746C462.167 296.746 436.404 302.59 420.713 314.655C407.015 325.19 398.868 349.681 400.192 393.146C401.103 423.412 399.522 424.254 401.395 434.205C402.546 440.324 408.201 449.347 417.086 453.936C427.639 459.367 437.315 463.578 452.113 460.381C467.014 457.167 500.408 440.255 500.408 440.255C500.408 440.255 510.599 417.483 510.599 405.916C510.599 394.349 512.301 352.294 507.643 331.584C499.789 296.557 472.617 294.46 462.167 296.763V296.746Z" fill="#7BB4E2"/>
<path d="M465.519 283.014L468.132 306.938C468.132 306.938 467.255 316.717 453.437 319.157C439.275 321.649 436.645 312.042 436.645 312.042L437.006 306.319L435.185 293.154L465.519 283.031V283.014Z" fill="#FABEB7"/>
<path d="M411.484 239.377C411.484 239.377 408.889 264.229 409.319 272.513C409.697 280.058 413.168 295.251 423.704 299.101C432.452 302.298 442.815 296.849 453.626 289.236C464.454 281.622 467.908 279.766 469.506 273.355C471.105 266.945 482.121 236.163 482.121 236.163L411.467 239.377H411.484Z" fill="#FABEB7"/>
<path d="M483.221 231.557C481.21 221.193 474.731 214.147 467.839 210.486C454.21 203.268 440.581 203.629 428.206 207.478C416.554 211.105 411.002 216.484 408.648 221.193C407.359 223.771 406.689 226.143 406.431 228.292C406.379 231.316 406.998 234.324 408.407 237.091C410.401 240.975 414.165 243.536 416.932 246.819C419.183 249.483 420.558 252.473 420.902 255.945C421.211 259.039 421.452 262.493 421.246 265.81L424.958 267.168C424.958 267.168 424.253 258.265 429.358 257.612C437.178 256.615 437.745 267.907 436.576 271.241C431.575 285.472 439.24 288.067 439.24 288.067C448.143 291.728 457.63 292.673 465.708 286.709C472.411 281.759 477.068 274.369 479.784 266.566C483.513 255.876 485.369 242.677 483.221 231.54V231.557Z" fill="#30384F"/>
<path d="M298.842 355.25L290.06 350.558C290.06 350.558 287.447 352.346 281.913 349.218C275.262 345.454 275.588 341.793 272.993 339.576C269.625 336.688 267.734 336.018 264.314 333.543C260.361 330.69 264.555 323.42 270.587 323.18C272.546 323.094 275.365 323.266 281.191 325.586C284.801 327.029 289.561 332.185 289.561 332.185C289.561 332.185 286.846 327.837 285.54 326.548C284.233 325.276 286.038 322.509 288.685 324.709C291.314 326.909 295.353 332.1 295.491 333.939C295.628 335.778 297.691 341.191 297.691 341.191L306.043 346.021L298.859 355.25H298.842Z" fill="#FABEB7"/>
<path d="M410.04 326.342L355.713 355.267L308.002 336.413C308.002 336.413 298.67 331.532 291.795 342.48C288.272 348.083 291.297 353.909 291.297 353.909C291.297 353.909 332.339 379.053 346.707 383.556C353.805 385.79 361.436 386.581 376.44 385.309C393.145 383.9 406.603 377.85 417.705 372.23C425.37 368.346 435.253 356.109 432.262 341.122C429.186 325.74 419.716 322.492 410.057 326.359L410.04 326.342Z" fill="#54A4DB"/>
<path d="M474.37 379.053C459.744 384.673 444.465 390.637 438.673 392.235C432.881 393.851 425.817 405.744 426.453 419.253C427.089 432.762 429.34 444.655 434.497 449.484C439.635 454.314 448.968 459.453 463.765 452.372C478.563 445.291 498.809 436.611 504.601 432.435C510.393 428.259 515.721 423.171 517.783 417.001C520.035 410.247 522.286 396.429 521.65 383.229C521.066 371.233 514.26 360.079 503.003 365.218C491.745 370.357 486.916 374.224 474.387 379.053H474.37Z" fill="#2676BC"/>
<path d="M443.176 403.167C449.278 398.028 453.781 399.3 480.472 386.118C502.78 375.101 507.489 371.011 513.59 371.32C517.784 371.543 525.174 374.86 522.27 399.3C521.067 409.492 519.898 416.366 516.804 422.124C512.473 430.167 504.602 435.684 489.787 442.06C464.385 452.991 460.518 456.858 452.801 457.168C445.084 457.494 435.442 446.873 434.48 433.691C433.518 420.508 437.058 408.289 443.159 403.15L443.176 403.167Z" fill="#30384F"/>
<path d="M479.818 415.868L495.321 408.013C495.321 408.013 499.497 405.47 503.278 418.308C504.739 423.241 504.292 437.936 504.327 453.369C504.378 478.049 504.224 505.651 504.224 505.651L488.721 513.506C488.721 513.506 487.656 503.417 487.57 490.441C487.381 463.802 487.191 422.725 479.818 415.868Z" fill="#4F5165"/>
<path d="M479.818 415.868L479.749 497.711L471.482 495.133V505.428L488.721 513.505V433.106C488.721 433.106 488.343 425.217 485.146 420.13C479.784 411.605 479.801 415.885 479.801 415.885L479.818 415.868Z" fill="#40445A"/>
<g opacity="0.8">
<path d="M172.176 286.469L51.8867 357.484L50.443 356.763L50.4258 268.904L172.176 198.61L173.603 199.332L172.176 286.469Z" fill="#85B8E3"/>
<path d="M173.637 287.191L51.8867 357.467V269.609L173.62 199.332L173.637 287.191Z" fill="white"/>
<path d="M173.62 207.805L51.8867 278.082V269.609L173.62 199.332V207.805Z" fill="#54A4DB"/>
<path d="M110.425 258.024L63.0068 285.386V283.495L110.425 256.134V258.024Z" fill="#757485"/>
<path d="M110.425 266.171L63.0068 293.549V291.659L110.425 264.28V266.171Z" fill="#757485"/>
<path d="M110.425 274.317L63.0068 301.696V299.805L110.425 272.427V274.317Z" fill="#757485"/>
<path d="M110.425 282.481L63.0068 309.843V307.952L110.425 280.591V282.481Z" fill="#757485"/>
<path d="M110.425 290.628L63.0068 317.989V316.099L110.425 288.737V290.628Z" fill="#757485"/>
<path d="M163.05 279.319L123.263 302.298V246.561L163.05 223.6V279.319Z" fill="#B1CFED"/>
<path d="M110.425 298.774L63.0068 326.153V324.262L110.425 296.884V298.774Z" fill="#757485"/>
</g>
<g style="mix-blend-mode:multiply" opacity="0.3">
<path d="M221.416 301.49V301.679L221.451 301.696C221.588 302.264 222.035 302.831 222.791 303.278L246.749 317.113C247.729 317.68 249.035 317.955 250.341 317.921C250.926 317.921 251.51 317.835 252.06 317.697C252.112 317.697 252.18 317.663 252.232 317.646C252.438 317.594 252.662 317.525 252.851 317.457C253.109 317.353 253.349 317.25 253.59 317.113L318.693 279.526C319.157 279.251 319.501 278.941 319.724 278.615C319.759 278.58 319.776 278.546 319.793 278.494C319.913 278.305 320.016 278.116 320.051 277.91C320.051 277.876 320.051 277.841 320.051 277.824C320.085 277.669 320.085 277.532 320.085 277.429C320.085 277.016 320.016 272.479 320.016 272.479L316.338 274.232L294.718 261.754C292.827 260.672 289.768 260.672 287.894 261.754L239.806 289.528L226.091 297.451C226.091 297.451 226.039 297.4 226.022 297.365C224.733 296.076 221.382 296.987 221.382 296.987L221.416 301.146C221.416 301.267 221.416 301.387 221.416 301.507V301.49Z" fill="#626C8C"/>
</g>
<path d="M333.01 106.868C333.01 106.868 331.205 105.356 329.985 104.651C329.211 104.204 328.679 103.929 328.318 103.757C328.232 103.706 328.146 103.671 328.06 103.637C327.837 103.534 327.716 103.5 327.716 103.5C327.063 103.362 326.29 103.5 325.448 103.998L186.527 184.208C184.327 185.48 182.54 188.574 182.54 191.117V292.863C182.54 294.117 182.987 294.994 183.674 295.424C183.674 295.424 187.541 298.552 188.71 298.5C189.862 298.448 189.862 294.478 189.862 294.478L189.535 293.43L325.448 214.973C327.648 213.701 329.435 210.607 329.435 208.063V116.029C329.538 115.96 329.641 115.891 329.727 115.805C331.583 114.138 332.993 106.902 332.993 106.902L333.01 106.868Z" fill="#A4A6BA"/>
<path d="M329.435 127.423V115.994C329.538 115.926 329.641 115.857 329.744 115.771C331.6 114.104 333.01 106.868 333.01 106.868C333.01 106.868 331.205 105.356 329.985 104.651C329.212 104.204 328.679 103.929 328.318 103.757C328.232 103.706 328.146 103.671 328.06 103.637C327.837 103.534 327.716 103.5 327.716 103.5C327.063 103.362 326.29 103.5 325.448 103.998L186.527 184.208C185.445 184.827 184.465 185.893 183.743 187.13L200.122 197.958L329.332 127.527C329.332 127.527 329.366 127.492 329.435 127.441V127.423Z" fill="#E7E6E9"/>
<path d="M320.068 276.191C320.068 276.191 320.068 276.122 320.068 276.105C320.102 275.951 320.102 275.813 320.102 275.71C320.102 275.298 320.034 270.76 320.034 270.76L316.356 272.513L294.735 260.036C292.844 258.953 289.785 258.953 287.894 260.036L226.091 295.732C226.091 295.732 226.039 295.681 226.022 295.647C224.733 294.358 221.382 295.268 221.382 295.268L221.416 299.428C221.416 299.548 221.416 299.668 221.416 299.789V299.978L221.451 299.995C221.588 300.562 222.035 301.129 222.791 301.576L246.749 315.411C248.64 316.494 251.699 316.494 253.573 315.411L318.676 277.824C319.14 277.549 319.484 277.24 319.707 276.913C319.741 276.879 319.759 276.844 319.776 276.793C319.896 276.604 319.999 276.415 320.034 276.208L320.068 276.191Z" fill="#9C9EB4"/>
<path d="M320.034 270.76L316.356 272.513L294.735 260.036C292.845 258.953 289.786 258.953 287.895 260.036L239.807 287.809L250.342 302.418V316.219C251.528 316.202 252.697 315.927 253.59 315.411L318.694 277.824C319.158 277.549 319.501 277.24 319.725 276.913C319.759 276.879 319.776 276.844 319.794 276.793C319.914 276.604 320.017 276.415 320.051 276.208C320.051 276.174 320.051 276.14 320.051 276.122C320.086 275.968 320.086 275.83 320.086 275.727C320.086 275.315 320.017 270.777 320.017 270.777L320.034 270.76Z" fill="#7B819D"/>
<path d="M318.693 273.407L253.59 310.994C251.699 312.077 248.64 312.077 246.767 310.994L222.809 297.159C220.918 296.076 220.918 294.306 222.809 293.206L287.912 255.619C289.802 254.536 292.862 254.536 294.752 255.619L318.71 269.454C320.601 270.537 320.601 272.307 318.71 273.407H318.693Z" fill="#D1D0D5"/>
<path d="M279.559 278.598L262.217 288.601L262.2 251.374L279.559 241.354V278.598Z" fill="#7B819D"/>
<path d="M262.235 288.206L256.202 284.734V247.49L262.235 250.979V288.206Z" fill="#9C9EB4"/>
<path d="M328.129 212.273L192.611 290.49V192.698L328.111 114.464L328.129 212.273Z" fill="url(#paint4_linear_294_11774)"/>
<path d="M217.6 229.284C216.546 229.893 215.716 229.67 215.107 228.617L213.803 226.358C213.576 225.964 213.268 225.879 212.88 226.103C212.738 226.185 212.593 226.208 212.443 226.174C212.301 226.136 212.188 226.046 212.106 225.903C212.02 225.755 211.997 225.609 212.035 225.466C212.08 225.32 212.173 225.206 212.315 225.124C212.703 224.9 212.783 224.591 212.555 224.196L211.251 221.938C210.643 220.885 210.866 220.054 211.919 219.446C212.061 219.364 212.206 219.345 212.352 219.39C212.499 219.434 212.613 219.528 212.695 219.67C212.777 219.812 212.799 219.955 212.761 220.097C212.722 220.24 212.632 220.352 212.49 220.434C212.096 220.662 212.013 220.973 212.24 221.367L213.544 223.626C213.675 223.852 213.766 224.07 213.819 224.281C213.872 224.492 213.886 224.695 213.861 224.89C214.221 225.036 214.531 225.335 214.792 225.787L216.096 228.046C216.324 228.44 216.635 228.523 217.029 228.296C217.171 228.214 217.313 228.192 217.456 228.23C217.599 228.268 217.713 228.362 217.799 228.51C217.881 228.652 217.903 228.795 217.865 228.938C217.83 229.087 217.742 229.202 217.6 229.284ZM218.315 226.054C218.134 226.159 217.938 226.185 217.728 226.134C217.52 226.073 217.364 225.952 217.26 225.771C217.151 225.584 217.125 225.388 217.179 225.185C217.237 224.97 217.356 224.811 217.537 224.707C217.724 224.599 217.922 224.575 218.129 224.636C218.333 224.691 218.489 224.812 218.597 224.999C218.702 225.18 218.729 225.376 218.678 225.586C218.623 225.79 218.502 225.946 218.315 226.054ZM224.118 222.635C223.557 222.959 222.97 223.159 222.358 223.236C221.749 223.301 221.153 223.252 220.57 223.09C219.99 222.917 219.45 222.638 218.95 222.252C218.457 221.862 218.04 221.373 217.7 220.784C217.364 220.202 217.153 219.604 217.066 218.989C216.982 218.363 217.012 217.759 217.156 217.177C217.303 216.584 217.557 216.04 217.918 215.545C218.279 215.051 218.744 214.639 219.312 214.311C219.845 214.003 220.343 213.808 220.804 213.727C221.272 213.642 221.792 213.646 222.364 213.741C222.443 213.75 222.511 213.771 222.566 213.804C222.625 213.826 222.672 213.859 222.707 213.903C222.745 213.937 222.781 213.985 222.817 214.047C222.893 214.179 222.909 214.317 222.864 214.464C222.822 214.599 222.739 214.711 222.615 214.801C222.488 214.884 222.334 214.913 222.153 214.888C221.769 214.814 221.404 214.798 221.059 214.841C220.72 214.879 220.326 215.028 219.876 215.288C219.467 215.524 219.131 215.829 218.866 216.203C218.602 216.578 218.415 216.99 218.306 217.441C218.204 217.888 218.189 218.35 218.26 218.826C218.328 219.295 218.488 219.748 218.74 220.184C218.996 220.627 219.312 220.999 219.688 221.299C220.061 221.592 220.466 221.806 220.904 221.941C221.349 222.072 221.8 222.117 222.256 222.075C222.709 222.026 223.139 221.884 223.548 221.648C223.901 221.444 224.2 221.193 224.444 220.895C224.69 220.587 224.897 220.241 225.064 219.858C225.137 219.696 225.236 219.588 225.362 219.534C225.49 219.469 225.622 219.457 225.758 219.499C225.889 219.535 225.998 219.628 226.086 219.781C226.126 219.85 226.152 219.927 226.165 220.013C226.173 220.091 226.165 220.174 226.142 220.261C225.94 220.775 225.668 221.232 225.326 221.633C224.992 222.029 224.589 222.363 224.118 222.635ZM232.311 217.905C231.701 218.257 231.085 218.479 230.463 218.57C229.838 218.654 229.235 218.619 228.656 218.463C228.08 218.297 227.545 218.019 227.052 217.63C226.555 217.233 226.131 216.73 225.779 216.12C225.427 215.51 225.205 214.895 225.114 214.273C225.023 213.651 225.052 213.053 225.2 212.477C225.351 211.891 225.622 211.352 226.011 210.859C226.397 210.359 226.895 209.933 227.505 209.581C228.114 209.229 228.729 209.013 229.347 208.933C229.969 208.842 230.572 208.877 231.155 209.039C231.734 209.195 232.27 209.467 232.763 209.857C233.256 210.247 233.678 210.746 234.03 211.356C234.382 211.966 234.606 212.585 234.701 213.214C234.792 213.835 234.762 214.439 234.611 215.025C234.456 215.605 234.185 216.144 233.799 216.644C233.417 217.133 232.92 217.553 232.311 217.905ZM231.747 216.928C232.197 216.668 232.563 216.351 232.845 215.975C233.13 215.589 233.329 215.174 233.443 214.73C233.552 214.279 233.567 213.817 233.488 213.345C233.417 212.869 233.251 212.406 232.991 211.956C232.731 211.506 232.413 211.131 232.036 210.831C231.667 210.527 231.262 210.313 230.821 210.188C230.375 210.057 229.916 210.022 229.443 210.083C228.977 210.14 228.519 210.298 228.069 210.558C227.618 210.818 227.249 211.138 226.96 211.517C226.677 211.892 226.482 212.305 226.373 212.756C226.266 213.197 226.249 213.655 226.321 214.131C226.392 214.607 226.558 215.07 226.818 215.52C227.078 215.97 227.396 216.345 227.773 216.645C228.149 216.945 228.556 217.163 228.995 217.298C229.436 217.422 229.891 217.459 230.362 217.409C230.835 217.349 231.296 217.188 231.747 216.928ZM238.61 214.13C238.457 214.218 238.299 214.24 238.135 214.196C237.971 214.152 237.845 214.054 237.757 213.902L233.695 206.866C233.603 206.707 233.581 206.548 233.629 206.391C233.673 206.228 233.771 206.102 233.924 206.014L235.805 204.928C236.4 204.584 236.999 204.372 237.6 204.293C238.204 204.203 238.792 204.238 239.364 204.397C239.932 204.549 240.455 204.815 240.933 205.195C241.411 205.575 241.822 206.063 242.166 206.659C242.51 207.254 242.729 207.858 242.823 208.469C242.913 209.072 242.884 209.662 242.736 210.237C242.584 210.805 242.32 211.332 241.944 211.817C241.571 212.291 241.086 212.7 240.491 213.044L238.61 214.13ZM238.598 212.862L239.939 212.088C240.521 211.752 240.957 211.324 241.249 210.805C241.543 210.275 241.684 209.704 241.673 209.091C241.657 208.472 241.475 207.861 241.127 207.259C240.775 206.649 240.337 206.186 239.813 205.87C239.288 205.554 238.725 205.394 238.123 205.391C237.527 205.383 236.939 205.548 236.357 205.884L235.016 206.658L238.598 212.862ZM246.749 209.431C246.596 209.519 246.438 209.541 246.274 209.497C246.11 209.453 245.984 209.355 245.896 209.202L241.834 202.167C241.742 202.007 241.72 201.849 241.768 201.692C241.812 201.528 241.91 201.402 242.063 201.314L246.76 198.602C246.92 198.51 247.076 198.485 247.229 198.526C247.378 198.56 247.496 198.653 247.584 198.806C247.668 198.951 247.688 199.097 247.643 199.243C247.598 199.389 247.496 199.508 247.336 199.6L243.179 202L244.637 204.525L247.62 202.803C247.779 202.711 247.935 202.686 248.088 202.727C248.237 202.761 248.354 202.851 248.438 202.996C248.522 203.142 248.543 203.291 248.502 203.444C248.457 203.59 248.355 203.709 248.196 203.801L245.213 205.523L246.713 208.121L250.87 205.721C251.03 205.629 251.184 205.6 251.333 205.634C251.482 205.668 251.598 205.758 251.682 205.904C251.77 206.056 251.794 206.209 251.753 206.362C251.708 206.508 251.606 206.627 251.446 206.719L246.749 209.431ZM254.692 208.087C254.539 208.175 254.385 208.195 254.228 208.148C254.075 208.107 253.954 208.01 253.866 207.857C253.774 207.698 253.749 207.542 253.79 207.389C253.831 207.236 253.927 207.115 254.08 207.027C254.502 206.783 254.592 206.45 254.348 206.027L252.95 203.606C252.67 203.121 252.558 202.673 252.616 202.261C252.421 202.179 252.24 202.057 252.073 201.895C251.905 201.733 251.752 201.531 251.612 201.289L250.214 198.867C249.97 198.445 249.636 198.355 249.214 198.599C249.061 198.687 248.909 198.711 248.756 198.67C248.603 198.629 248.482 198.532 248.394 198.38C248.306 198.227 248.281 198.071 248.318 197.911C248.355 197.751 248.449 197.627 248.602 197.539C249.731 196.887 250.622 197.126 251.274 198.255L252.672 200.677C252.916 201.099 253.245 201.19 253.661 200.95C253.814 200.862 253.966 200.839 254.119 200.88C254.279 200.917 254.405 201.015 254.497 201.175C254.585 201.327 254.605 201.482 254.557 201.639C254.516 201.792 254.42 201.912 254.267 202C253.851 202.24 253.766 202.571 254.01 202.994L255.408 205.415C256.06 206.545 255.821 207.435 254.692 208.087ZM258.385 205.11C258.302 205.158 258.22 205.168 258.14 205.141C258.066 205.109 258.009 205.059 257.969 204.99C257.889 204.851 257.857 204.708 257.874 204.56C257.901 204.415 257.919 204.261 257.927 204.1C257.942 203.934 257.901 203.768 257.805 203.602C257.737 203.484 257.654 203.403 257.554 203.359C257.455 203.314 257.353 203.281 257.247 203.259C257.138 203.229 257.032 203.189 256.928 203.138C256.825 203.087 256.737 202.999 256.665 202.874C256.557 202.687 256.529 202.495 256.582 202.299C256.635 202.102 256.769 201.942 256.983 201.818C257.247 201.666 257.496 201.642 257.732 201.746C257.974 201.846 258.187 202.046 258.37 202.347C258.498 202.569 258.594 202.823 258.658 203.11C258.728 203.392 258.761 203.673 258.757 203.953C258.759 204.229 258.729 204.473 258.666 204.684C258.604 204.896 258.51 205.038 258.385 205.11ZM255.076 198.97C254.882 199.082 254.672 199.111 254.447 199.056C254.224 198.99 254.057 198.861 253.945 198.667C253.829 198.466 253.8 198.256 253.859 198.038C253.92 197.808 254.048 197.637 254.242 197.525C254.443 197.409 254.655 197.384 254.877 197.45C255.096 197.508 255.263 197.638 255.379 197.839C255.491 198.033 255.52 198.242 255.465 198.468C255.407 198.687 255.277 198.854 255.076 198.97Z" fill="white"/>
<path d="M328.232 212.188L192.732 290.422L191.58 289.769L327.097 211.535L328.232 212.188Z" fill="#E7E6E9"/>
<path d="M328.49 212.36L327.063 211.535L327.081 113.742L328.49 114.567V212.36Z" fill="#9497AE"/>
<path d="M333.818 109.205C333.818 106.662 332.03 105.63 329.83 106.902L190.91 187.113C188.71 188.384 186.923 191.478 186.923 194.022V295.767C186.923 298.311 188.71 299.342 190.91 298.07L329.83 217.86C332.03 216.588 333.818 213.494 333.818 210.951V109.205ZM192.612 290.491V192.698L328.112 114.464V212.257L192.612 290.491Z" fill="#C4C4D1"/>
<g opacity="0.8">
<path d="M428.998 194.726L308.708 265.725L307.247 265.003V177.144L428.998 106.851L430.424 107.59L428.998 194.726Z" fill="#40445A"/>
<path d="M430.441 195.448L308.708 265.725L308.69 177.866L430.441 107.59V195.448Z" fill="#30384F"/>
<path d="M320.119 187.473L316.733 189.432V186.665L320.119 184.706V187.473Z" fill="white"/>
<path d="M369.651 158.892L323.9 185.308V182.524L369.651 156.125V158.892Z" fill="#54A4DB"/>
<path d="M320.136 193.97L316.733 195.929V193.162L320.136 191.203V193.97Z" fill="white"/>
<path d="M345.04 179.602L323.9 191.805V189.02L345.04 176.835V179.602Z" fill="#54A4DB"/>
<path d="M320.136 200.466L316.733 202.426V199.659L320.136 197.699V200.466Z" fill="white"/>
<path d="M355.971 179.791L323.9 198.301V195.534L355.971 177.007V179.791Z" fill="#54A4DB"/>
<path d="M320.136 206.963L316.733 208.923V206.156L320.136 204.196V206.963Z" fill="white"/>
<path d="M362.175 182.696L323.9 204.798V202.031L362.175 179.929V182.696Z" fill="#54A4DB"/>
<path d="M320.137 216.416L316.751 218.376V215.609L320.137 213.649V216.416Z" fill="white"/>
<path d="M348.134 200.244L323.9 214.251V211.467L348.134 197.477V200.244Z" fill="#F5D434"/>
<path d="M320.137 222.913L316.751 224.872V222.105L320.137 220.146V222.913Z" fill="white"/>
<path d="M368.38 195.053L323.9 220.747V217.963L368.38 192.286V195.053Z" fill="#F5D434"/>
<path d="M320.137 229.41L316.751 231.369V228.602L320.137 226.643V229.41Z" fill="white"/>
<path d="M341.431 217.121L323.9 227.244V224.459L341.431 214.354V217.121Z" fill="#F5D434"/>
<path d="M320.137 235.906L316.751 237.865V235.098L320.137 233.139V235.906Z" fill="white"/>
<path d="M355.266 215.625L323.9 233.74V230.956L355.266 212.858V215.625Z" fill="#F5D434"/>
<path d="M392.235 145.194L394.813 143.699V141.585L392.235 143.08V145.194Z" fill="white"/>
<path d="M415.661 129.555L397.701 139.935V142.049L415.661 131.669V129.555Z" fill="white"/>
<path d="M392.235 150.145L394.813 148.667V146.553L392.235 148.048V150.145Z" fill="white"/>
<path d="M405.985 140.09L397.701 144.885V146.999L405.985 142.204V140.09Z" fill="white"/>
<path d="M392.235 155.111L394.813 153.616V151.502L392.235 152.997V155.111Z" fill="white"/>
<path d="M410.282 142.582L397.701 149.835V151.949L410.282 144.679V142.582Z" fill="white"/>
<path d="M392.235 160.061L394.813 158.566V156.452L392.235 157.947V160.061Z" fill="white"/>
<path d="M412.722 146.123L397.701 154.802V156.916L412.722 148.237V146.123Z" fill="white"/>
<path d="M392.235 167.262L394.813 165.784V163.67L392.235 165.148V167.262Z" fill="white"/>
<path d="M409.405 155.249L397.701 162.003V164.117L409.405 157.363V155.249Z" fill="white"/>
<path d="M392.235 172.229L394.813 170.734V168.62L392.235 170.115V172.229Z" fill="white"/>
<path d="M397.701 166.953V169.067L419.185 156.658V154.544L397.701 166.953Z" fill="white"/>
<path d="M392.235 177.18L394.813 175.684V173.57L392.235 175.066V177.18Z" fill="white"/>
<path d="M406.174 167.021L397.701 171.92V174.034L406.174 169.135V167.021Z" fill="white"/>
<path d="M392.235 182.129L394.813 180.651V178.537L392.235 180.015V182.129Z" fill="white"/>
<path d="M397.701 178.984L412.843 170.236V168.122L397.701 176.87V178.984Z" fill="white"/>
</g>
<g style="mix-blend-mode:multiply" opacity="0.3">
<path d="M279.129 386.204L216.69 351.676C214.387 350.353 210.657 350.353 208.354 351.676L167.433 373.864C165.13 375.188 165.508 378.573 167.811 379.897L229.769 415.679C232.072 417.003 235.801 417.003 238.104 415.679L278.648 392.271C280.951 390.948 281.432 387.528 279.129 386.204Z" fill="#8085A0"/>
</g>
<path d="M278.648 390.552L238.104 413.961C235.801 415.284 232.072 415.284 229.769 413.961L167.811 378.178C165.508 376.855 165.13 373.469 167.433 372.145L208.354 349.957C210.657 348.634 214.387 348.634 216.69 349.957L279.129 384.485C281.432 385.809 280.951 389.229 278.648 390.552Z" fill="#56576A"/>
<path d="M278.647 388.834L238.104 412.242C235.801 413.565 232.071 413.565 229.768 412.242L167.81 376.459C165.507 375.136 165.507 372.97 167.81 371.647L208.354 348.239C210.657 346.915 214.386 346.915 216.689 348.239L278.647 384.021C280.95 385.345 280.95 387.51 278.647 388.834Z" fill="#BFBFCD"/>
<path opacity="0.6" d="M231.349 408.34L171.986 374.053L212.513 350.645L271.893 384.932L231.349 408.34Z" fill="#2676BC"/>
<path style="mix-blend-mode:overlay" d="M238.533 365.666L212.53 350.645L171.986 374.053L212.874 397.65C212.942 397.289 213.011 396.928 213.114 396.567C216.294 385.104 224.32 373.297 238.55 365.666H238.533Z" fill="url(#paint5_linear_294_11774)"/>
<path d="M256.648 397.547C257.594 398.097 257.594 398.991 256.648 399.541C255.703 400.091 254.156 400.091 253.194 399.541C252.231 398.991 252.249 398.097 253.194 397.547C254.139 396.997 255.686 396.997 256.648 397.547Z" fill="#595A6D"/>
<g style="mix-blend-mode:multiply" opacity="0.3">
<path d="M401.687 278.993C401.516 278.203 401.258 277.309 400.931 276.398C400.897 276.278 400.845 276.175 400.811 276.055C400.725 275.831 400.639 275.608 400.536 275.367C400.467 275.212 400.416 275.075 400.347 274.92C400.261 274.697 400.158 274.491 400.055 274.267C399.969 274.095 399.9 273.923 399.814 273.752C399.711 273.545 399.608 273.339 399.505 273.133C399.402 272.944 399.299 272.755 399.195 272.566C399.092 272.377 398.989 272.17 398.869 271.981C398.749 271.758 398.611 271.534 398.474 271.311C398.37 271.156 398.284 270.984 398.181 270.83C397.941 270.452 397.7 270.091 397.442 269.713C397.356 269.592 397.27 269.489 397.202 269.386C397.013 269.128 396.824 268.87 396.617 268.613C396.514 268.475 396.394 268.338 396.291 268.2C396.102 267.977 395.93 267.753 395.741 267.547C395.621 267.41 395.5 267.272 395.38 267.135C395.191 266.928 395.002 266.722 394.796 266.533C394.675 266.396 394.538 266.275 394.4 266.155C394.194 265.966 393.988 265.777 393.782 265.588C393.644 265.468 393.524 265.364 393.386 265.244C393.146 265.055 392.922 264.866 392.682 264.694C392.561 264.608 392.458 264.522 392.338 264.436C391.977 264.179 391.616 263.938 391.238 263.714C389.811 262.872 388.488 262.202 387.251 261.652C387.251 261.652 387.251 261.652 387.251 261.635C387.199 261.618 387.165 261.601 387.113 261.583C386.838 261.463 386.58 261.36 386.305 261.257C385.962 261.119 385.618 260.999 385.274 260.879C385.137 260.827 384.982 260.758 384.844 260.724C384.724 260.69 384.621 260.672 384.518 260.638C384.157 260.535 383.813 260.466 383.452 260.38C383.246 260.346 383.04 260.277 382.834 260.26C382.301 260.174 381.785 260.14 381.27 260.14C381.235 260.14 381.201 260.14 381.167 260.14C381.046 260.14 380.926 260.174 380.806 260.174C380.427 260.174 380.049 260.226 379.654 260.277C379.465 260.312 379.276 260.346 379.087 260.38C378.726 260.466 378.348 260.569 377.987 260.69C377.815 260.741 377.643 260.793 377.471 260.861C376.939 261.068 376.406 261.308 375.873 261.601C375.461 261.841 375.048 262.082 374.67 262.357C374.584 262.408 374.498 262.477 374.412 262.529C374.378 262.546 374.343 262.58 374.309 262.597C374.292 262.597 374.257 262.632 374.24 262.649C373.914 262.89 373.604 263.13 373.295 263.388C373.278 263.405 373.243 263.439 373.226 263.457C373.089 263.577 372.968 263.68 372.848 263.8C372.848 263.8 372.848 263.8 372.831 263.818C372.625 264.007 372.436 264.196 372.247 264.402C372.212 264.436 372.178 264.471 372.143 264.505C371.817 264.866 371.508 265.227 371.233 265.622C371.233 265.622 371.215 265.657 371.198 265.657C369.411 268.183 368.998 271.174 370.287 274.714C370.287 274.714 381.716 283.84 388.626 285.971C395.535 288.102 401.98 285.232 401.98 280.987C401.98 280.42 401.894 279.75 401.739 279.028L401.687 278.993Z" fill="#626C8C"/>
</g>
<path d="M369.462 273.871C369.462 273.871 381.149 282.843 388.058 284.957C394.968 287.071 401.413 284.235 401.413 279.973C401.413 275.71 397.099 266.43 390.722 262.7C384.346 258.971 380.101 257.922 375.323 260.569C370.545 263.233 367.349 268.011 369.48 273.854L369.462 273.871Z" fill="#BABBCA"/>
<path d="M375.306 260.603C371.559 262.683 368.81 266.068 368.81 270.245C368.844 270.331 368.861 270.399 368.878 270.485C368.878 270.485 380.772 279.612 387.818 281.777C394.091 283.702 399.986 281.588 401.172 278.03C400.21 273.338 396.24 265.948 390.705 262.717C384.329 259.005 380.084 257.939 375.306 260.586V260.603Z" fill="#626C8C"/>
<path d="M375.306 260.604C373.054 261.858 371.181 263.577 370.029 265.639C371.542 266.396 372.985 267.031 374.274 267.427C380.548 269.352 386.443 267.238 387.628 263.68C388.058 262.047 387.663 261.652 386.7 260.638C382.404 258.73 379.001 258.541 375.306 260.604Z" fill="white"/>
<path d="M380.617 260.998C382.439 262.081 383.504 264.212 383.057 264.47C382.61 264.745 380.771 264.075 378.95 262.992C377.128 261.909 376.028 260.809 376.492 260.534C376.939 260.259 378.812 259.898 380.634 260.998H380.617Z" fill="#92BFE6"/>
<path d="M128.677 319.434L96.2458 342.997C92.1038 345.386 82.2559 338.648 82.2559 333.853V292.897C82.2559 288.102 85.6073 282.293 89.7665 279.887L125.24 259.418C129.382 257.029 139.728 261.944 139.78 266.189L136.188 306.423C136.188 311.218 132.819 317.027 128.677 319.434Z" fill="#F9B9B3"/>
<path d="M84.4386 285.524C83.0808 287.879 82.2559 290.509 82.2559 292.898V333.853C82.2559 338.649 92.1038 345.386 96.2458 342.997L128.677 319.434C130.791 318.214 132.699 316.1 134.074 313.676C118.743 304.997 100.646 292.898 84.4558 285.524H84.4386Z" fill="#F1646A"/>
<g style="mix-blend-mode:multiply">
<path d="M84.4386 285.524C83.0808 287.879 82.2559 290.509 82.2559 292.898V333.853C82.2559 338.649 92.1038 345.386 96.2458 342.997L128.677 319.434C130.791 318.214 132.699 316.1 134.074 313.676C118.743 304.997 100.646 292.898 84.4558 285.524H84.4386Z" fill="#F7A7A1"/>
</g>
<path d="M132.647 322.08L97.1737 342.55C93.0317 344.939 89.6631 342.996 89.6631 338.219V297.263C89.6631 292.468 93.0145 286.658 97.1737 284.252L132.647 263.783C136.789 261.394 140.158 263.336 140.158 268.114V309.07C140.158 313.865 136.806 319.674 132.647 322.08Z" fill="#F37C7B"/>
<path style="mix-blend-mode:overlay" opacity="0.7" d="M140.158 279.045V268.114C140.158 263.319 136.789 261.394 132.647 263.783L97.1737 284.252C93.0317 286.641 89.6631 292.468 89.6631 297.263V326.188C103.894 305.203 121.544 288.223 140.14 279.045H140.158Z" fill="url(#paint6_linear_294_11774)"/>
<path d="M406.037 144.953L373.605 168.516C369.463 170.905 359.615 164.168 359.615 159.373V118.417C359.615 113.622 362.967 107.813 367.126 105.407L402.599 84.9371C406.741 82.5482 417.088 87.4636 417.139 91.7087L413.547 131.943C413.547 136.738 410.179 142.547 406.037 144.953Z" fill="#BBE6FB"/>
<path d="M361.798 111.044C360.44 113.399 359.615 116.028 359.615 118.417V159.373C359.615 164.168 369.463 170.905 373.605 168.516L406.037 144.953C408.151 143.733 410.058 141.619 411.433 139.196C396.103 130.517 378.005 118.417 361.815 111.044H361.798Z" fill="#54A4DB"/>
<path d="M361.798 111.044C360.44 113.399 359.615 116.028 359.615 118.417V159.373C359.615 164.168 369.463 170.905 373.605 168.516L406.037 144.953C408.151 143.733 410.058 141.619 411.433 139.196C396.103 130.517 378.005 118.417 361.815 111.044H361.798Z" fill="#54A4DB"/>
<g style="mix-blend-mode:multiply">
<path d="M361.798 111.044C360.44 113.399 359.615 116.028 359.615 118.417V159.373C359.615 164.168 369.463 170.905 373.605 168.516L406.037 144.953C408.151 143.733 410.058 141.619 411.433 139.196C396.103 130.517 378.005 118.417 361.815 111.044H361.798Z" fill="#A1C6E9"/>
</g>
<path d="M410.006 147.6L374.533 168.069C370.391 170.458 367.022 168.516 367.022 163.738V122.782C367.022 117.987 370.374 112.178 374.533 109.772L410.006 89.3024C414.148 86.9135 417.517 88.8556 417.517 93.6335V134.589C417.517 139.385 414.166 145.194 410.006 147.6Z" fill="#54A4DB"/>
<path style="mix-blend-mode:overlay" opacity="0.7" d="M417.517 104.582V93.6512C417.517 88.8561 414.148 86.9312 410.006 89.3201L374.533 109.79C370.391 112.178 367.022 118.005 367.022 122.8V151.725C381.253 130.74 398.904 113.76 417.5 104.582H417.517Z" fill="url(#paint7_linear_294_11774)"/>
</g>
<defs>
<linearGradient id="paint0_linear_294_11774" x1="321.958" y1="94.3046" x2="291.572" y2="2.49318" gradientUnits="userSpaceOnUse">
<stop stop-color="#ECF8FE"/>
<stop offset="1" stop-color="#30384F" stop-opacity="0"/>
</linearGradient>
<linearGradient id="paint1_linear_294_11774" x1="92.963" y1="127.011" x2="62.5769" y2="35.1996" gradientUnits="userSpaceOnUse">
<stop stop-color="#ECF8FE"/>
<stop offset="1" stop-color="#30384F" stop-opacity="0"/>
</linearGradient>
<linearGradient id="paint2_linear_294_11774" x1="212.909" y1="72.013" x2="182.54" y2="-19.7984" gradientUnits="userSpaceOnUse">
<stop stop-color="#ECF8FE"/>
<stop offset="1" stop-color="#30384F" stop-opacity="0"/>
</linearGradient>
<linearGradient id="paint3_linear_294_11774" x1="43.8946" y1="259.761" x2="13.5085" y2="167.95" gradientUnits="userSpaceOnUse">
<stop stop-color="#ECF8FE"/>
<stop offset="1" stop-color="#30384F" stop-opacity="0"/>
</linearGradient>
<linearGradient id="paint4_linear_294_11774" x1="242.229" y1="91.7258" x2="269.247" y2="256.718" gradientUnits="userSpaceOnUse">
<stop stop-color="#54A4DB"/>
<stop offset="1" stop-color="#6FD0F6"/>
</linearGradient>
<linearGradient id="paint5_linear_294_11774" x1="117.108" y1="328.761" x2="264.789" y2="398.883" gradientUnits="userSpaceOnUse">
<stop stop-color="#30384F" stop-opacity="0"/>
<stop offset="1" stop-color="#ECF8FE"/>
</linearGradient>
<linearGradient id="paint6_linear_294_11774" x1="126.15" y1="330.416" x2="95.7644" y2="238.604" gradientUnits="userSpaceOnUse">
<stop stop-color="#ECF8FE"/>
<stop offset="1" stop-color="#30384F" stop-opacity="0"/>
</linearGradient>
<linearGradient id="paint7_linear_294_11774" x1="403.51" y1="155.936" x2="373.124" y2="64.1244" gradientUnits="userSpaceOnUse">
<stop stop-color="#ECF8FE"/>
<stop offset="1" stop-color="#30384F" stop-opacity="0"/>
</linearGradient>
<clipPath id="clip0_294_11774">
<rect width="618" height="643.264" fill="white" transform="translate(0 0.396484)"/>
</clipPath>
</defs>
</svg>
