<?xml version="1.0" encoding="UTF-8"?>
<svg id="Layer_1" xmlns="http://www.w3.org/2000/svg" width="674" height="421.75" xmlns:xlink="http://www.w3.org/1999/xlink" viewBox="0 0 674 421.75">
  <defs>
    <style>
      .cls-1 {
        fill: #1b74bb;
      }

      .cls-2 {
        fill: #438bca;
      }

      .cls-3 {
        fill: #007f56;
      }

      .cls-4 {
        fill: #cf2027;
      }

      .cls-5 {
        fill: #f79b7b;
      }

      .cls-6 {
        fill: #f26d63;
      }

      .cls-7 {
        fill: #00a86e;
      }

      .cls-8 {
        fill: #fff;
      }

      .cls-9 {
        fill: #dd8027;
      }

      .cls-10 {
        fill: none;
      }

      .cls-11 {
        fill: #ced5e8;
      }

      .cls-12 {
        opacity: .8;
      }

      .cls-13 {
        fill: #d0dded;
      }

      .cls-14 {
        fill: #f1625e;
      }

      .cls-15 {
        fill: #1a59a9;
      }

      .cls-16 {
        fill: #585859;
      }

      .cls-17 {
        fill: #010101;
      }

      .cls-18 {
        fill: #fbac39;
      }

      .cls-19 {
        clip-path: url(#clippath);
      }

      .cls-20 {
        opacity: .5;
      }

      .cls-21 {
        fill: #373739;
      }
    </style>
    <clipPath id="clippath">
      <path class="cls-10" d="M300.39,217.24c-1.32,4.03-1.32,4.73-1.32,4.03l.04-115.12c0-.7-.04-.59-.04-83.95h258.87l.03,195.03h-257.59Z"/>
    </clipPath>
  </defs>
  <g>
    <g class="cls-12">
      <g class="cls-20">
        <path class="cls-11" d="M343.06,123.19c-23.98-3.54-46.71-13.3-66.32-28.11-29.29-22.11-90.59-59.73-149.07-40.99-80.66,25.85-81.02,100.62-60.01,141.24,21.01,40.62,169.99,159.57,363.13,140.64,172.83-16.94,206.52-210.8,114.34-245.88-79.95-30.43-107.22,47.1-202.08,33.09Z"/>
      </g>
      <g class="cls-20">
        <ellipse class="cls-11" cx="591.88" cy="94.5" rx="7.49" ry="8.07"/>
      </g>
      <path class="cls-11" d="M102.6,41.36c2.3-.42,4.63.85,5.44,3.04,1.38,3.74-2.24,7.93-7.1,6.06h0c-4.2-3.11-2.37-8.36,1.67-9.1Z"/>
      <circle class="cls-11" cx="571.42" cy="22.4" r="9.76" transform="translate(457.5 582.8) rotate(-80.75)"/>
      <g class="cls-12">
        <path class="cls-11" d="M132.19,33.67c1.47,5.24-1.59,10.69-6.83,12.16-5.24,1.47-10.69-1.59-12.16-6.83-1.47-5.24,1.59-10.69,6.83-12.16,5.24-1.47,10.69,1.59,12.16,6.83Z"/>
      </g>
      <path class="cls-11" d="M522.39,327.48c2.18-.84,4.7-.03,5.91,1.98,2.05,3.42-.72,8.21-5.85,7.27h0c-4.7-2.27-3.88-7.77-.05-9.25Z"/>
      <path class="cls-11" d="M550.03,314.41c2.42,4.88.43,10.8-4.45,13.22s-10.8.43-13.22-4.45c-2.42-4.88-.43-10.8,4.45-13.22,4.88-2.42,10.8-.43,13.22,4.45Z"/>
      <circle class="cls-11" cx="553.03" cy="7.46" r="6.01"/>
    </g>
    <g class="cls-12">
      <path class="cls-11" d="M575.03,116.26c0-53.65-44.68-112.44-100.28-115.99-.98-.06-1.96-.12-2.96-.16-79.7-3.71-85.78,93.5-157.89,104.46-72.11,10.96-127.18-44.39-213.47-8.27C22.93,128.72,1.94,310.97,229.64,318.28c182.18,5.85,345.41-41.95,345.39-202.02Z"/>
    </g>
  </g>
  <g>
    <ellipse class="cls-11" cx="432.17" cy="374.23" rx="175.71" ry="9.06"/>
    <g>
      <path class="cls-11" d="M551.19,348.86h-24.35v25.32h28.47v-21.2c0-2.28-1.85-4.12-4.12-4.12Z"/>
      <rect class="cls-11" x="396.58" y="294.6" width="84.52" height="54.26"/>
      <path class="cls-8" d="M328.48,348.86h201.32c8.79,0,15.92,7.13,15.92,15.92v9.4h-233.17v-9.4c0-8.79,7.13-15.92,15.92-15.92Z"/>
      <rect class="cls-8" x="386.23" y="294.6" width="84.52" height="54.26"/>
      <polygon class="cls-11" points="386.23 311.26 470.74 304.49 470.76 294.6 386.34 294.6 386.23 311.26"/>
    </g>
    <g>
      <g>
        <rect class="cls-11" x="237.29" y="59.24" width="383.46" height="235.37" rx="11.29" ry="11.29"/>
        <path class="cls-16" d="M620.76,70.53v197.05h-34.91V59.24h23.62c6.24,0,11.29,5.06,11.29,11.29Z"/>
        <path class="cls-8" d="M606.4,70.53v212.79c0,6.24-5.06,11.29-11.29,11.29H248.59c-6.24,0-11.29-5.06-11.29-11.29V70.53c0-6.24,5.06-11.29,11.29-11.29h346.52c.17,0,.34,0,.5.01.12,0,.24.01.37.02h.01c.09,0,.17.01.26.03.15.01.29.03.44.05.1.01.19.03.28.05.05,0,.09.01.14.02.09.01.18.03.28.05,5.15,1.05,9.02,5.61,9.02,11.06Z"/>
        <path class="cls-21" d="M597.38,59.47c-.09-.02-.18-.04-.28-.05-.04,0-.09-.02-.14-.02-.1-.02-.19-.03-.28-.05-.15-.02-.29-.04-.44-.05-.09-.01-.17-.02-.26-.03h-.01c-.12-.01-.24-.02-.37-.02-.17,0-.33-.01-.5-.01H248.59c-6.24,0-11.29,5.06-11.29,11.29v197.05h369.11V70.53c0-5.46-3.87-10.01-9.02-11.06ZM591.76,247.9c0,1.7-1.37,3.07-3.07,3.07H255.01c-1.7,0-3.07-1.37-3.07-3.07V76.95c0-1.7,1.37-3.07,3.07-3.07h333.68c1.7,0,3.07,1.37,3.07,3.07v170.95Z"/>
        <rect class="cls-11" x="251.93" y="73.88" width="339.82" height="177.09" rx="3.07" ry="3.07"/>
        <g>
          <path class="cls-8" d="M591.76,76.95v16.13H251.93v-16.13c0-1.7,1.37-3.07,3.07-3.07h333.68c1.7,0,3.07,1.37,3.07,3.07Z"/>
          <g>
            <path class="cls-14" d="M565.44,83.22c0,1.44-1.17,2.61-2.61,2.61s-2.61-1.17-2.61-2.61,1.17-2.61,2.61-2.61,2.61,1.17,2.61,2.61Z"/>
            <circle class="cls-2" cx="571.28" cy="83.22" r="2.61"/>
          </g>
          <path class="cls-13" d="M284.04,80.46h265.47c1.34,0,2.43,1.09,2.43,2.43v.65c0,1.34-1.09,2.43-2.43,2.43h-265.47c-1.34,0-2.43-1.09-2.43-2.43v-.65c0-1.34,1.09-2.43,2.43-2.43Z"/>
          <path class="cls-17" d="M264.2,83.22v2.56c0,.36-.39.59-.7.41l-2.21-1.28-2.21-1.28c-.31-.18-.31-.63,0-.81l2.21-1.28,2.21-1.28c.31-.18.7.05.7.41v2.56Z"/>
          <path class="cls-17" d="M268.09,83.22v2.56c0,.36.39.59.7.41l2.21-1.28,2.21-1.28c.31-.18.31-.63,0-.81l-2.21-1.28-2.21-1.28c-.31-.18-.7.05-.7.41v2.56Z"/>
        </g>
      </g>
      <g>
        <rect class="cls-21" x="576.44" y="82.39" width="6.27" height="1.47" rx=".65" ry=".65" transform="translate(110.97 434.16) rotate(-45)"/>
        <rect class="cls-21" x="578.83" y="80" width="1.47" height="6.27" rx=".65" ry=".65" transform="translate(110.97 434.16) rotate(-45)"/>
      </g>
      <g>
        <g>
          <rect class="cls-8" x="290.35" y="96.98" width="262.09" height="147.12" rx="6.42" ry="6.42"/>
          <g>
            <path class="cls-11" d="M366.21,172.25h-57.46c-.88,0-1.6-.71-1.6-1.6h0c0-.88.71-1.6,1.6-1.6h57.46c.88,0,1.6.71,1.6,1.6h0c0,.88-.71,1.6-1.6,1.6Z"/>
            <path class="cls-11" d="M366.21,158.75h-57.46c-.88,0-1.6-.71-1.6-1.6h0c0-.88.71-1.6,1.6-1.6h57.46c.88,0,1.6.71,1.6,1.6h0c0,.88-.71,1.6-1.6,1.6Z"/>
            <path class="cls-11" d="M366.21,185.76h-57.46c-.88,0-1.6-.71-1.6-1.6h0c0-.88.71-1.6,1.6-1.6h57.46c.88,0,1.6.71,1.6,1.6h0c0,.88-.71,1.6-1.6,1.6Z"/>
          </g>
          <g>
            <path class="cls-11" d="M542.77,172.25h-57.46c-.88,0-1.6-.71-1.6-1.6h0c0-.88.71-1.6,1.6-1.6h57.46c.88,0,1.6.71,1.6,1.6h0c0,.88-.71,1.6-1.6,1.6Z"/>
            <path class="cls-11" d="M542.77,158.75h-57.46c-.88,0-1.6-.71-1.6-1.6h0c0-.88.71-1.6,1.6-1.6h57.46c.88,0,1.6.71,1.6,1.6h0c0,.88-.71,1.6-1.6,1.6Z"/>
            <path class="cls-11" d="M542.77,185.76h-57.46c-.88,0-1.6-.71-1.6-1.6h0c0-.88.71-1.6,1.6-1.6h57.46c.88,0,1.6.71,1.6,1.6h0c0,.88-.71,1.6-1.6,1.6Z"/>
          </g>
          <path class="cls-21" d="M290.35,221.25h262.09v21.49c0,.75-.61,1.36-1.36,1.36h-259.37c-.75,0-1.36-.61-1.36-1.36v-21.49Z"/>
          <g>
            <path class="cls-8" d="M526.69,229.72v-1.94h2.42v-1.72h-3.29c-.48,0-.86.39-.86.86v2.8h1.72Z"/>
            <path class="cls-8" d="M526.69,233.16h-1.72v2.95c0,.48.39.86.86.86h3.29v-1.72h-2.42v-2.08Z"/>
            <path class="cls-8" d="M534.16,229.72h1.72v-2.8c0-.48-.39-.86-.86-.86h-3.16v1.72h2.3v1.94Z"/>
            <path class="cls-8" d="M534.16,233.16v2.08h-2.3v1.72h3.16c.48,0,.86-.39.86-.86v-2.95h-1.72Z"/>
          </g>
          <polygon class="cls-8" points="305.61 231.88 305.61 226.44 310.33 229.16 315.04 231.88 310.33 234.61 305.61 237.33 305.61 231.88"/>
          <g>
            <path class="cls-8" d="M330.51,226.99h1.24c.46,0,.84.38.84.84v8.23c0,.46-.38.84-.84.84h-1.24c-.46,0-.84-.38-.84-.84v-8.23c0-.46.38-.84.84-.84Z"/>
            <rect class="cls-8" x="335.77" y="226.99" width="2.92" height="9.91" rx=".84" ry=".84"/>
          </g>
          <g>
            <rect class="cls-11" x="290.35" y="216.95" width="262.09" height="4.3"/>
            <rect class="cls-14" x="290.35" y="216.95" width="134.48" height="4.3"/>
          </g>
          <g>
            <g>
              <path class="cls-21" d="M510.53,200.24h2.96v6.48h3.96v2.29h-6.92v-8.77Z"/>
              <path class="cls-21" d="M518.25,200.24h2.96v8.77h-2.96v-8.77Z"/>
              <path class="cls-21" d="M532.01,200.24l-3.71,8.77h-2.91l-3.71-8.77h3.18l2.09,5.12,2.14-5.12h2.91Z"/>
              <path class="cls-21" d="M539.59,206.78v2.23h-7.29v-8.77h7.13v2.23h-4.22v1.03h3.71v2.13h-3.71v1.15h4.39Z"/>
            </g>
            <path class="cls-14" d="M505.66,204.55c0,1.99-1.61,3.61-3.61,3.61s-3.61-1.61-3.61-3.61,1.61-3.61,3.61-3.61,3.61,1.61,3.61,3.61Z"/>
          </g>
          <g>
            <g>
              <path class="cls-21" d="M322.36,206.99c0,2-1.9,3.3-4.62,3.3s-4.62-1.3-4.62-3.3c0-1.03.51-1.84,1.38-2.37-.63-.5-1.02-1.18-1.02-2.03,0-1.87,1.75-3.08,4.25-3.08s4.25,1.21,4.25,3.08c0,.85-.38,1.53-1.02,2.03.87.53,1.38,1.34,1.38,2.37ZM318.87,206.87c0-.66-.47-1.07-1.13-1.07s-1.13.41-1.13,1.07.47,1.07,1.13,1.07,1.13-.41,1.13-1.07ZM316.91,202.74c0,.56.35.88.82.88s.82-.32.82-.88-.35-.88-.82-.88-.82.32-.82.88Z"/>
              <path class="cls-21" d="M323.01,204.9c0-3.42,1.94-5.39,4.67-5.39s4.67,1.97,4.67,5.39-1.94,5.39-4.67,5.39-4.67-1.97-4.67-5.39ZM328.85,204.9c0-1.99-.5-2.61-1.18-2.61s-1.18.62-1.18,2.61.5,2.61,1.18,2.61,1.18-.62,1.18-2.61Z"/>
            </g>
            <g>
              <path class="cls-14" d="M307.08,202.01c0,1.75-1.42,3.17-3.17,3.17s-3.17-1.42-3.17-3.17,1.42-3.17,3.17-3.17,3.17,1.42,3.17,3.17Z"/>
              <path class="cls-14" d="M309.83,210.02h-11.84s1.35-3.76,5.83-3.76c.03,0,.06,0,.09,0s.06,0,.09,0c4.49,0,5.83,3.76,5.83,3.76Z"/>
            </g>
          </g>
        </g>
        <g class="cls-19">
          <g>
            <g>
              <g>
                <path class="cls-5" d="M340.3,130.49s-1.58,9.66-8.7,11.39c-5.75,1.4-11.16-4.12-13.03-6.3-.45-.52-.69-.85-.69-.85,0,0-.43.04-1.07.03-1.5-.02-4.16-.33-5.2-2.17-1.49-2.62,3.92-4.42,3.92-4.42,0,0-2.77-2.48-2.08-4.28.68-1.77,4.4-2.14,4.4-2.14,0,0-4-2.6-2.66-4.87,2.02-3.41,6.16.34,6.49.55-.26-.3-5.45-5.67-2.61-6.63,2.48-.84,6.55,1.95,9.24,4.71.43.44.67.69.67.69,0,0,.16-.12.44-.31,1.34-.9,5.46-3.3,8.08-1.11,3.17,2.64,2.81,15.69,2.81,15.69Z"/>
                <path class="cls-6" d="M332.87,136.43c-.18.08-.39.08-.56-.04-.26-.17-.33-.52-.15-.78.94-1.39,1.23-2.82.86-4.23-.94-3.62-5.78-6.12-5.83-6.15-.28-.14-.39-.48-.25-.76.14-.28.48-.39.76-.25.22.11,5.34,2.76,6.41,6.87.45,1.74.11,3.47-1.02,5.14-.06.09-.13.15-.22.19Z"/>
                <path class="cls-6" d="M327.93,122.5c0,.67-.28,1.2-.8,1.54-.11.07-.23.13-.37.19-.29.11-.64.19-1.02.23.28.18.53.38.72.59.2.21.35.43.44.66.12.34.17.85-.25,1.42-.91,1.2-3,1.69-4.7,1.89,1.22.72,2.28,1.7,2.63,2.68.22.63.15,1.23-.22,1.72-.26.34-.69.64-1.22.9-1.33.65-3.28,1.05-4.58,1.27-.45-.52-.69-.85-.69-.85,0,0-.43.05-1.07.04.08-.07.18-.11.29-.12,2.09-.24,5.67-.98,6.37-1.91.09-.12.18-.31.06-.67-.39-1.08-2.42-2.51-4.17-2.94-.28-.07-.46-.33-.42-.62.03-.29.28-.5.57-.49,1.4.03,5.24-.21,6.26-1.58.15-.2.11-.31.09-.36-.09-.26-.41-.52-.85-.78-.9-.53-2.32-1.01-3.34-1.26-.12-.03-.22-.09-.29-.18-.12-.13-.17-.32-.13-.5.07-.3.38-.49.68-.42.19.05.6.15,1.1.31.95.11,1.86.16,2.55.09.41-.04.74-.13.96-.26.13-.08.28-.23.28-.6,0-.47-.23-1.08-.61-1.71-.12-.2-.1-.45.05-.63,0,0,0,0,.01-.01.24-.31.71-.28.91.06.47.79.77,1.61.77,2.31Z"/>
                <path class="cls-21" d="M323.79,111.93c.97.6,1.82,1.16,2.65,1.94.8.76,1.31,1.15,1.86,1.66.04-.06-.04.06,0,0l-10.86-46.06c-.16-.71-1.22-.49-1.09.22l7.44,42.24s0,0,0,0Z"/>
                <path class="cls-21" d="M333.23,137.51c-3.76,2.43-4.82.63-4.82.63l-1.91-10.82c.06-.06.11-.12.16-.19.42-.57.37-1.09.25-1.42-.09-.24-.24-.46-.44-.66-.13-.14-.28-.26-.44-.39l-.04-.24c.28-.05.55-.11.77-.2.14-.06.26-.11.37-.19.34-.22.58-.54.7-.91.46.44,1.02.69,1.69.76.18.02.36.02.55.02l3.16,13.6Z"/>
                <path class="cls-6" d="M336.5,120.62c-.11.1-1.77,1.55-3.71,2.49-1.07.52-2.24.89-3.27.78-.85-.09-1.54-.48-2.04-1.15-1.79-2.4-.26-5.54.82-7.2.43.44.67.69.67.69,0,0,.16-.12.44-.31-.92,1.37-2.47,4.2-1.02,6.15.31.42.72.65,1.25.71,1.99.21,5.09-2.09,6.11-2.99.23-.21.59-.19.8.05.21.23.18.59-.05.8Z"/>
              </g>
              <path class="cls-18" d="M394.62,109.44v-.02s0-.02,0,0v.06s-.04.14-.04.14l-.07.33-.15.73c-.05.25-.11.51-.16.77-.06.26-.11.52-.18.78-.24,1.05-.5,2.12-.79,3.19-.59,2.14-1.21,4.29-1.93,6.4-.73,2.11-1.48,4.22-2.33,6.27-.44,1.02-.86,2.05-1.33,3.05-.44,1.02-.93,2.01-1.4,3-.99,1.97-2.02,3.91-3.14,5.77-.26.48-.56.93-.85,1.4-.29.46-.56.93-.87,1.38-.6.9-1.18,1.81-1.82,2.68-1.22,1.78-2.57,3.44-3.91,5.09-1.39,1.61-2.81,3.19-4.32,4.66-.38.37-.75.75-1.13,1.11l-1.17,1.06-.58.53-.15.13.07-.07.1-.09c.14-.11.28-.21.44-.31.62-.44,1.39-.78,2.1-.98.18-.05.33-.1.5-.12.08-.02.17-.03.25-.04l.21-.04c.14-.02.29-.03.42-.03.11-.01.22-.02.33-.01.05,0,.12.01.15,0,.04,0,.08,0,.12,0,.07,0,.16.02.22.03.05,0,.09,0,.14.02l.06.02s.02,0,.03,0c.16.05-.16,0-.65-.21-.5-.21-1.16-.56-1.88-.98-.72-.43-1.51-.95-2.31-1.52-1.61-1.14-3.3-2.5-4.98-3.95-1.69-1.46-3.39-3.01-5.08-4.63-1.69-1.61-3.38-3.29-5.04-5-1.67-1.71-3.34-3.46-4.97-5.23-.83-.88-1.65-1.77-2.45-2.66l-2.36-2.58-18.22,13.67.61.92.58.85,1.15,1.67c.78,1.1,1.56,2.19,2.35,3.27,1.6,2.15,3.24,4.28,4.94,6.38,1.72,2.09,3.47,4.17,5.32,6.21.93,1.02,1.87,2.04,2.84,3.04.97,1.01,1.97,2.01,3,3,2.07,1.99,4.25,3.94,6.71,5.86,1.23.96,2.54,1.9,3.96,2.83,1.43.93,2.98,1.84,4.8,2.7,1.82.85,3.9,1.68,6.56,2.24l.49.1c.17.03.36.06.54.09.36.05.72.1,1.08.15.37.04.78.07,1.17.09l.59.03c.2,0,.42,0,.63,0,.43,0,.86-.01,1.28-.03.45-.03.91-.08,1.37-.14.23-.03.45-.06.69-.09.24-.04.48-.09.72-.14.48-.1.95-.2,1.43-.34,1.94-.55,3.86-1.45,5.55-2.59.41-.28.8-.58,1.19-.89l.29-.23.26-.22.21-.19.84-.74,1.67-1.49c.54-.51,1.07-1.03,1.61-1.55,2.15-2.06,4.13-4.28,6.06-6.53,1.88-2.29,3.69-4.62,5.33-7.05,1.68-2.41,3.19-4.92,4.63-7.45l1.04-1.92c.35-.64.66-1.29.99-1.94.33-.65.65-1.29.96-1.95l.92-1.96c2.38-5.26,4.3-10.67,5.79-16.18.73-2.76,1.39-5.54,1.89-8.37.25-1.42.49-2.84.68-4.3.05-.36.09-.73.14-1.1.04-.37.09-.74.13-1.12.04-.37.08-.77.11-1.16l.11-1.39-24.06-2.2Z"/>
              <path class="cls-9" d="M337.4,140.48c.07.86.83,1.51,1.7,1.43.86-.07,1.51-.83,1.43-1.7-.07-.86-.83-1.51-1.7-1.43-.86.07-1.51.83-1.43,1.7Z"/>
              <g>
                <path class="cls-9" d="M370.07,167.49c.3,0,.57-.2.65-.51,1.26-5.04,1.1-11.37,1.09-11.64-.01-.37-.32-.66-.69-.65-.37.01-.66.32-.65.69,0,.06.16,6.41-1.05,11.27-.09.36.13.72.49.81.05.01.11.02.16.02Z"/>
                <path class="cls-9" d="M374.37,162.62c.1,0,.2-.02.3-.07.33-.17.47-.57.3-.9-.09-.18-2.26-4.52-3.29-5.82-.23-.29-.65-.34-.94-.11-.29.23-.34.65-.11.94.94,1.18,3.12,5.54,3.14,5.58.12.24.35.37.6.37Z"/>
              </g>
              <g>
                <path class="cls-9" d="M332.57,153.52c.18,0,.35-.07.48-.2,5.62-5.8,18.31-14.95,18.44-15.05.3-.22.37-.64.15-.94-.22-.3-.64-.37-.94-.15-.13.09-12.91,9.32-18.61,15.2-.26.27-.25.69.01.95.13.13.3.19.47.19Z"/>
                <path class="cls-9" d="M338,148.57c.15,0,.3-.05.43-.16.28-.24.32-.66.09-.95l-6.78-8.14c-.24-.28-.66-.32-.95-.09-.28.24-.32.66-.09.95l6.78,8.14c.13.16.32.24.52.24Z"/>
              </g>
            </g>
            <g>
              <g>
                <path class="cls-21" d="M411.21,306.99l9.1-53.68.75-4.39-26.19-9.24-1.49-.53-6.24-2.2s-.5,2.3-1.27,6.24c-.09.48-.19.98-.29,1.5-2.46,12.7-7.06,38.86-8.32,62.3h33.96Z"/>
                <path class="cls-16" d="M406.57,306.99c3.93-21.4,8.99-52.68,9.29-54.51.06-.39-.2-.75-.59-.81-.38-.06-.75.2-.81.59-.07.45-5.32,32.92-9.33,54.73h1.44Z"/>
              </g>
              <g>
                <path class="cls-21" d="M464.19,219.81s1.97,18.7-2.28,29.11c-4.25,10.41-59.32,5.05-73.35-4.32-5.76-3.84,6.5-39.3,6.5-39.3l69.13,14.51Z"/>
                <path class="cls-16" d="M385.57,244.7c.83-.15,1.65-.36,2.44-.63,1.26-.43,2.47-1.01,3.62-1.75,1.19-.77,2.27-1.66,3.23-2.64,6.07-6.12,7.86-15.38,7.94-15.83.07-.38-.18-.75-.57-.83-.38-.07-.75.18-.83.57-.02.11-1.88,9.74-8.04,15.56-.77.73-1.61,1.4-2.51,1.98-1.09.7-2.25,1.25-3.46,1.65-.5.16-1.01.3-1.54.41-.09.48-.19.98-.29,1.5Z"/>
                <path class="cls-16" d="M419.55,249.92c-.02.37.28.69.67.72t0,0c.39.02.72-.27.74-.65.12-2.56.28-5.17.44-7.79.03-.46.06-.92.09-1.38.56-8.54,1.26-16.93,1.79-22.86.04-.48.08-.94.13-1.39.12-1.3.23-2.45.32-3.43-.47-.07-.94-.15-1.4-.23-.09.98-.2,2.14-.32,3.45-.04.45-.08.91-.13,1.39-.53,5.87-1.23,14.19-1.78,22.68-.03.47-.06.94-.09,1.41-.17,2.71-.33,5.43-.46,8.07Z"/>
                <path class="cls-16" d="M417.53,240.91c.22.11,1.21.57,2.47.95.44.13.91.26,1.4.35.44.09.89.15,1.34.17.86.05,1.68-.04,2.37-.37.86-.41,1.42-1.16,1.61-2.16.51-2.64,1.59-13.52,2.32-21.22.05-.47.09-.94.13-1.38.12-1.23.22-2.35.31-3.3-.47-.06-.94-.11-1.41-.18-.09.96-.19,2.09-.31,3.34-.04.45-.09.91-.13,1.38-.73,7.68-1.8,18.55-2.3,21.1-.11.59-.38.97-.85,1.19-.75.36-1.87.28-2.99.04-.48-.1-.95-.24-1.39-.38-.81-.26-1.51-.56-1.94-.76-.35-.17-.77-.03-.95.31-.17.34-.03.75.32.91Z"/>
              </g>
              <g>
                <path class="cls-21" d="M457.34,306.99c2.18-19.92,4.7-46.59,6.12-62.03.05-.48.09-.95.13-1.41.63-6.82,1.01-11.11,1.01-11.11-3.38-1.41-9.51-.44-16.03,1.41-.47.13-.94.27-1.42.41-11.58,3.47-23.86,9.33-23.86,9.33v63.4h34.04Z"/>
                <path class="cls-16" d="M454.02,306.99c1.88-22.15,4.11-54.15,4.14-54.57.03-.39-.27-.73-.66-.76-.39-.02-.73.27-.75.66-.03.42-2.27,32.54-4.15,54.67h1.42Z"/>
                <path class="cls-16" d="M443.26,223.84c.06.33,1.03,5.34,3.9,10.41,1.69,2.99,4.05,5.99,7.27,8.06,2.71,1.74,5.73,2.62,9.03,2.64.05-.48.09-.95.13-1.41-3.08,0-5.89-.81-8.39-2.41-2.88-1.85-5.03-4.55-6.62-7.28-2.93-5.04-3.92-10.18-3.93-10.26-.07-.38-.44-.64-.82-.57-.38.07-.64.44-.57.83Z"/>
              </g>
            </g>
            <g>
              <g>
                <path class="cls-18" d="M386.63,218.63c15.24,14.23,51.29,21.79,79.07,8.26,3.05-8.33,6.4-38.05,7.3-46.94.18-1.77.32-3.54.44-5.31.56-8.52.44-17.11.03-26.09-.02-.49-.05-.98-.07-1.47-.36-7.39-.91-15.05-1.42-23.19-1.01-16.11-6.39-26.03-15.73-27.51-4.34-.69-7.78-1.91-10.31-3.11-.31-.15-.6-.29-.89-.44-3.01-1.54-4.72-2.92-4.72-2.92h-20.83c-1.79,2.61-4.05,4.26-6.48,5.42-.27.13-.54.25-.82.37-7.39,3.19-16.02,2.56-17.79,11.47-1.12,5.6,3.17,17.11,2.72,40.46-.03,1.71-.09,3.49-.18,5.33-.08,1.73-.19,3.51-.33,5.35-.13,1.71-.28,3.49-.46,5.31-.16,1.59-.34,3.23-.54,4.9-.21,1.72-.44,3.48-.7,5.29-1.39,9.7-5.11,32.32-8.3,44.8Z"/>
                <path class="cls-9" d="M458.02,223.49c-.05,0-.11,0-.17-.02-.33-.09-.53-.43-.44-.77,11.57-42.42,9.23-85.53,9.21-85.96-.02-.34.24-.64.59-.66.35-.02.64.24.66.59.02.43,2.37,43.75-9.25,86.37-.08.28-.33.46-.6.46Z"/>
                <path class="cls-9" d="M395.24,168.4c.34,0,.63-.25.67-.6,1.38-12.27,1.4-36.67,1.4-36.92,0-.37-.3-.67-.67-.67s-.67.3-.67.67c0,.24-.02,24.58-1.39,36.77-.04.37.22.7.59.74.03,0,.05,0,.08,0Z"/>
                <path class="cls-9" d="M423.78,214.61c.07.86.83,1.51,1.7,1.43.86-.07,1.51-.83,1.43-1.7-.07-.86-.83-1.51-1.7-1.43-.86.07-1.51.83-1.43,1.7Z"/>
                <path class="cls-9" d="M423.53,222.2c.07.86.83,1.51,1.7,1.43.86-.07,1.51-.83,1.43-1.7s-.83-1.51-1.7-1.43c-.86.07-1.51.83-1.43,1.7Z"/>
                <path class="cls-9" d="M405.19,138.63c-4.09-4.75-2.56-15.32-2.49-15.77.05-.33.33-.57.66-.57h13.87c.33,0,.61.24.66.57.07.45,1.6,11.02-2.49,15.77-1.3,1.51-3.02,2.27-5.11,2.27s-3.81-.77-5.11-2.27ZM403.95,123.63c-.26,2.23-.94,10.42,2.25,14.12,1.05,1.22,2.39,1.81,4.09,1.81s3.05-.59,4.09-1.81c3.19-3.7,2.51-11.89,2.25-14.12h-12.69Z"/>
              </g>
              <g>
                <path class="cls-21" d="M442.22,38.57c-3.88-2.51-16.11-3.77-16.11-3.77,0,0-2.01-5.28-4.28-6.79-5.15-3.43-5.79,3.52-5.79,3.52,0,0-5.03-7.05-9.56-5.03-4.53,2.01,1.26,8.56,1.26,8.56,0,0-6.79-1.26-6.04,4.53.75,5.79,7.3,8.3,7.3,8.3,0,0-2.01,3.27-1.01,8.56s3.27,5.54,3.27,5.54l28.19,2.52s5.79,0,7.3-7.3c1.51-7.3-3.52-10.32-3.52-10.32,0,0,3.27-5.54-1.01-8.3Z"/>
                <g>
                  <path class="cls-5" d="M419.19,86.38v5.29c.62.5,1.25.94,1.87,1.31,9.19,5.52,19.11-1.31,19.11-1.31v-18.36l-18.48,11.51-2.5,1.56Z"/>
                  <path class="cls-21" d="M419.19,86.23v5.45c.62.5,1.25.94,1.87,1.31,7.83-3.1,13.53-11.31,13.53-11.31l-12.9,3.15-2.5,1.41Z"/>
                  <path class="cls-18" d="M440.13,86.3s6.19,1.04,7.89,8.12c-6.03,6.31-11.36,11.77-19.98,13.37v-12.67s7.61-1.9,12.1-8.82Z"/>
                  <path class="cls-18" d="M419,88.13s-5.53,1.19-7.67,8.26c5.57,6.78,8.55,9.33,16.71,11.4v-12.67s-4.55-.07-9.04-6.99Z"/>
                  <g>
                    <g>
                      <polygon class="cls-21" points="415.89 186.58 419.47 195.23 419.47 195.23 421.08 199.11 425.62 210.09 427.82 205.85 428.59 204.35 430.36 200.95 431.13 199.45 432.89 196.05 433.67 194.55 435.43 191.15 435.43 191.15 436.21 189.65 437.86 186.46 437.83 186.11 437.57 183.58 436.98 177.83 436.73 175.29 436.14 169.55 435.88 167.01 435.3 161.27 435.04 158.73 434.45 152.99 434.2 150.45 433.61 144.71 433.35 142.17 432.77 136.43 432.51 133.89 431.93 128.15 431.67 125.61 431.08 119.86 430.82 117.33 430.22 111.39 425.83 111.22 425.7 112.21 425.44 114.22 424.84 118.78 424.57 120.79 423.97 125.35 423.7 127.36 423.1 131.92 422.83 133.93 422.23 138.49 421.97 140.5 421.37 145.06 421.1 147.07 420.5 151.63 420.23 153.64 419.63 158.2 419.37 160.21 418.76 164.77 418.5 166.78 417.9 171.34 417.63 173.36 417.03 177.91 416.76 179.93 416.16 184.48 415.9 186.5 415.89 186.58"/>
                      <g>
                        <polygon class="cls-16" points="425.44 114.22 431.08 119.86 430.82 117.33 425.7 112.21 425.44 114.22"/>
                        <polygon class="cls-16" points="424.57 120.79 431.93 128.15 431.67 125.61 424.84 118.78 424.57 120.79"/>
                        <polygon class="cls-16" points="423.7 127.36 432.77 136.43 432.51 133.89 423.97 125.35 423.7 127.36"/>
                        <polygon class="cls-16" points="422.83 133.93 433.61 144.71 433.35 142.17 423.1 131.92 422.83 133.93"/>
                        <polygon class="cls-16" points="421.97 140.5 434.45 152.99 434.2 150.45 422.23 138.49 421.97 140.5"/>
                        <polygon class="cls-16" points="421.1 147.07 435.3 161.27 435.04 158.73 421.37 145.06 421.1 147.07"/>
                        <polygon class="cls-16" points="420.23 153.64 436.14 169.55 435.88 167.01 420.5 151.63 420.23 153.64"/>
                        <polygon class="cls-16" points="419.37 160.21 436.98 177.83 436.73 175.29 419.63 158.2 419.37 160.21"/>
                        <polygon class="cls-16" points="418.5 166.78 437.83 186.11 437.57 183.58 418.76 164.77 418.5 166.78"/>
                        <polygon class="cls-16" points="417.63 173.36 435.43 191.15 436.21 189.65 417.9 171.34 417.63 173.36"/>
                        <polygon class="cls-16" points="416.76 179.93 432.89 196.05 433.67 194.55 417.03 177.91 416.76 179.93"/>
                        <polygon class="cls-16" points="415.9 186.5 430.36 200.95 431.13 199.45 416.16 184.48 415.9 186.5"/>
                        <polygon class="cls-16" points="419.47 195.23 421.08 199.11 427.82 205.85 428.59 204.35 419.47 195.23"/>
                      </g>
                      <polygon class="cls-16" points="430.22 111.39 428.04 114.64 425.83 111.22 425.45 114.14 428 116.74 430.45 113.65 430.22 111.39"/>
                    </g>
                    <polygon class="cls-21" points="433.89 105.93 428.04 114.64 422.43 105.93 428.04 98.67 433.89 105.93"/>
                    <g>
                      <path class="cls-9" d="M437.29,111.89c.15,0,.3-.05.42-.15,5.8-4.62,10.73-16.57,10.94-17.08.14-.34-.02-.73-.37-.88-.34-.14-.74.02-.88.37-.05.12-4.7,11.37-10,16.08l-8.82-11.98c-.13-.17-.33-.28-.55-.27-.22,0-.42.11-.54.28l-8.23,11.68c-1.26-2.27-4.56-8.29-7.33-13.87-.16-.33-.57-.47-.9-.3-.33.16-.47.57-.3.9,3.5,7.05,7.84,14.79,7.88,14.87.11.2.32.33.55.34.23.01.45-.1.58-.28l8.31-11.79,8.69,11.8c.11.15.27.24.45.27.03,0,.06,0,.09,0Z"/>
                      <path class="cls-9" d="M428.05,99.34c.37,0,.67-.3.67-.67v-3c0-.37-.3-.67-.67-.67s-.67.3-.67.67v3c0,.37.3.67.67.67Z"/>
                    </g>
                  </g>
                </g>
                <path class="cls-6" d="M412.58,62.92s-3.01-3.55-4.71,0c-1.7,3.55-.39,10.74,4.18,9.57l.52-9.57Z"/>
                <path class="cls-5" d="M409.37,75.38s-.02,10.95,11.37,10.92c11.32-.02,19.03-8.91,19.43-9.32,0,0,.01-.01.01-.01l.12-2.3.64-11.94.34-6.38s1.45-11.49-9.48-13.59c-7.98-1.53-15.46-.21-19.24,3.96-.12.13-.24.27-.35.41-1.19,1.46-1.95,3.25-2.15,5.35l-.35,11.46-.09,2.81-.27,8.62Z"/>
                <path class="cls-21" d="M422.44,55.72s4.78,3.56,7.62,1.29c2.84-2.27-3.78-4.74-5.96-4.55-2.18.19-3.08,2.46-1.66,3.26Z"/>
                <path class="cls-21" d="M417.24,55.72s-4.78,3.56-7.62,1.29c-2.84-2.27,3.78-4.74,5.96-4.55,2.18.19,3.08,2.46,1.66,3.26Z"/>
                <path class="cls-6" d="M421.01,76.81c1.82.16,3.19-.98,3.26-1.04.21-.18.23-.5.05-.71-.18-.21-.5-.23-.71-.05-.07.06-1.65,1.37-3.5.54-.25-.11-.55,0-.66.26-.11.25,0,.55.26.66.45.2.89.31,1.31.34Z"/>
                <path class="cls-8" d="M425.94,68.99s-6.95,1.4-10.46,1.08c0,0,1.31,5.17,6.48,3.87,4.02-1.02,3.98-4.95,3.98-4.95Z"/>
                <path class="cls-21" d="M412.23,47.12c1.79-.63,3.08-.04,5.86,1.18,4.02,1.77,8.52.18,12.5-1.86,3.98-2.03,6.36.8,5.01,2.65-1.35,1.86-1.21,3.36.3,5.72,1.5,2.36-2.84,3.47-.44,5.32,1.01.78.95,1.95.54,3.04-.45,1.19.6,2.4,1.84,2.17h0c1.3-.33,3.12-2.62,3.12-2.62l.34-6.38s1.45-11.49-9.48-13.59c-7.98-1.53-15.46-.21-19.24,3.96-.12.13-.24.27-.35.41Z"/>
                <path class="cls-6" d="M424.57,65.35c0,.8,1.64,1.44,3.67,1.44s3.67-.65,3.67-1.44-1.64-1.44-3.67-1.44-3.67.65-3.67,1.44Z"/>
                <path class="cls-6" d="M409.64,66.75c.28.03.58.04.88.04,2.02,0,3.66-.65,3.66-1.44s-1.64-1.44-3.66-1.44c-.27,0-.54.01-.8.04l-.09,2.81Z"/>
                <path class="cls-21" d="M422.99,60.96c0,1.09.5,1.98,1.11,1.98s1.11-.89,1.11-1.98-.5-1.98-1.11-1.98-1.11.89-1.11,1.98Z"/>
                <path class="cls-21" d="M411.99,60.96c0,1.09.5,1.98,1.11,1.98s1.11-.89,1.11-1.98-.5-1.98-1.11-1.98-1.11.89-1.11,1.98Z"/>
                <path class="cls-21" d="M436.61,72.54c.05.12,1.49,3.46,3.56,4.44,0,0,.01-.01.01-.01l.12-2.3s-1.8-.31-3.7-2.13Z"/>
                <path class="cls-5" d="M438.61,64.93s4.38-5.88,7.58-1.26c2.64,3.81-2.35,13.73-7.58,10.33v-9.07Z"/>
                <path class="cls-21" d="M439.21,72.23c.23,0,.42-.17.45-.4.49-4.45,4.21-6,4.37-6.06.23-.09.34-.35.25-.59-.09-.23-.35-.34-.58-.25-.18.07-4.39,1.8-4.93,6.8-.03.25.15.47.4.5.02,0,.03,0,.05,0Z"/>
                <path class="cls-21" d="M443.41,69.5c.13,0,.26-.06.35-.17.16-.19.13-.48-.07-.63-.18-.15-1.79-1.42-3.15-1.07-.24.06-.39.31-.32.55.06.24.31.39.55.32.78-.2,1.96.58,2.36.9.08.07.18.1.28.1Z"/>
                <path class="cls-21" d="M419.43,66.47c.25,0,.45-.2.45-.45s-.2-.45-.45-.45c-1.66,0-2.43-.88-2.69-1.25,1.8-3.7,3.58-7.44,3.6-7.47.11-.22.01-.49-.21-.6-.22-.11-.49-.01-.6.21-.02.04-1.87,3.91-3.7,7.69-.06.12-.06.26,0,.39.04.08.94,1.94,3.61,1.94Z"/>
              </g>
            </g>
          </g>
          <g>
            <g>
              <path class="cls-5" d="M528.38,107.06s6.06,6.12,12.05,3.74c4.83-1.93,5.9-8.65,6.14-11.16.06-.6.06-.96.06-.96,0,0,.33-.19.78-.52,1.06-.78,2.82-2.36,2.63-4.21-.27-2.64-5.07-1.17-5.07-1.17,0,0,.73-3.19-.69-4.13-1.39-.92-4.25.71-4.25.71,0,0,1.55-3.91-.57-4.85-3.19-1.42-4.24,3.39-4.38,3.7.03-.35,1.55-15.08-.98-14.32-2.21.66-4.24,12.97-4.76,16.32-.08.53-.12.83-.12.83,0,0-.18,0-.48,0-1.42.04-5.59.42-6.36,3.32-.92,3.51,5.99,12.69,5.99,12.69Z"/>
              <path class="cls-6" d="M540.79,96.65c-.51,1.14-.77,2.38-.52,3.26.16.57.52.96,1.04,1.12.36.11.82.11,1.33.02,1.29-.21,2.89-.92,3.94-1.43.06-.6.06-.96.06-.96,0,0,.33-.19.78-.52-.09,0-.19.02-.27.06-1.62.89-4.56,2.19-5.55,1.88-.13-.04-.29-.13-.38-.45-.27-.97.45-3.03,1.49-4.24.17-.19.16-.48,0-.66-.17-.19-.46-.22-.66-.06-.99.73-3.86,2.52-5.29,2.06-.21-.07-.24-.16-.25-.21-.06-.23.03-.59.22-1,.38-.84,1.15-1.91,1.76-2.61.07-.08.11-.18.12-.27.02-.16-.04-.32-.16-.43-.21-.18-.52-.16-.7.05-.27.31-1.22,1.43-1.79,2.59-.21.42-.36.85-.42,1.24-.04.25-.03.49.03.7.09.3.31.7.91.89,1.26.4,3.01-.31,4.34-1.04Z"/>
              <path class="cls-6" d="M533.19,92.47c.2.06.34.22.36.43.05.65.2,1.21.44,1.54.19.26.37.29.51.29.22,0,.5-.12.82-.3.79-.45,1.79-1.34,2.66-2.21,0,.1-.05.19-.12.27-.61.7-1.38,1.77-1.76,2.61-.1.07-.2.13-.3.18-.32.18-.62.31-.9.39-.13.03-.24.05-.36.05-.54.02-1.01-.22-1.36-.7-.36-.5-.56-1.24-.63-2.05-.03-.34.29-.6.62-.51,0,0,.01,0,.02,0Z"/>
              <path class="cls-6" d="M526.07,98.04c.13.01,2.06.21,3.93-.11,1.04-.17,2.06-.5,2.74-1.11.56-.5.86-1.13.88-1.87.06-2.64-2.64-4.11-4.26-4.75-.08.53-.12.83-.12.83,0,0-.18,0-.48,0,1.36.51,3.91,1.75,3.87,3.89,0,.46-.19.83-.54,1.15-1.32,1.17-4.72,1.1-5.91.97-.27-.03-.52.17-.55.44-.03.27.17.52.44.55Z"/>
              <path class="cls-6" d="M536.73,107.53c.17-.03.32-.14.38-.31.1-.26-.03-.54-.29-.64-1.38-.52-2.32-1.4-2.77-2.59-1.17-3.07,1.02-7.34,1.05-7.38.13-.24.03-.54-.21-.67-.24-.13-.54-.03-.67.21-.1.19-2.42,4.71-1.09,8.19.56,1.48,1.69,2.54,3.35,3.17.09.03.17.04.26.03Z"/>
            </g>
            <path class="cls-18" d="M462.96,99.91l10.36,9c1.66,1.55,3.32,3.08,4.99,4.61,1.66,1.53,3.32,3.05,4.99,4.55,1.67,1.5,3.33,2.99,4.99,4.45,1.66,1.46,3.33,2.89,4.98,4.26,1.64,1.38,3.29,2.71,4.83,3.85.76.57,1.51,1.09,2.11,1.48l.4.26.16.1s.04.03.06.05c.06.06.1.1.13.14.05.07.05.12.11.18.06.06.22.1.51.08.58-.04,1.66-.41,2.91-1.13,1.24-.72,2.62-1.76,3.98-2.98,1.36-1.23,2.75-2.61,4.09-4.11,2.69-3.01,5.28-6.4,7.73-9.95,2.46-3.55,4.2-6.29,6.42-10.07,3.59,4.34,9.11,6.49,15.1,5.77-1.69,4.59-3.64,9.05-5.84,13.48-2.23,4.41-4.69,8.78-7.68,13.06-1.5,2.14-3.12,4.27-4.99,6.35-1.87,2.08-3.95,4.13-6.49,6.07-1.27.96-2.66,1.9-4.23,2.75-1.57.84-3.31,1.61-5.25,2.19-1.94.57-4.09.96-6.33,1-2.24.05-4.56-.25-6.71-.86-1.08-.3-2.12-.67-3.1-1.1l-.72-.33-.61-.3c-.21-.1-.38-.19-.57-.29-.18-.1-.38-.2-.55-.29-1.4-.76-2.6-1.49-3.75-2.22-2.28-1.45-4.33-2.89-6.34-4.35-2-1.46-3.92-2.94-5.82-4.42-1.89-1.48-3.76-2.98-5.59-4.49-1.83-1.52-3.65-3.03-5.44-4.57-1.79-1.54-3.56-3.09-5.33-4.65-1.75-1.57-3.5-3.14-5.23-4.73l-2.59-2.4-1.28-1.22c-.43-.41-.85-.81-1.3-1.25l16.89-17.97Z"/>
            <g>
              <path class="cls-9" d="M472.85,142.43c-.12,0-.25-.04-.36-.11-6.84-4.79-19.01-14.88-19.13-14.98-.27-.22-.3-.61-.08-.88.22-.27.61-.3.88-.08.12.1,12.25,10.16,19.05,14.92.28.2.35.59.15.87-.12.17-.32.27-.51.27Z"/>
              <path class="cls-9" d="M458.7,131.51s-.06,0-.09,0l-4.82-.7c-.34-.05-.58-.37-.53-.71.05-.34.37-.58.71-.53l4.82.7c.34.05.58.37.53.71-.05.31-.31.54-.62.54Z"/>
            </g>
            <path class="cls-9" d="M538.45,118.24c.25-.13.39-.41.33-.7-.07-.34-.41-.56-.76-.49-9.08,1.98-13.6-6.68-13.64-6.77-.16-.31-.54-.44-.86-.28,0,0,0,0,0,0-.31.16-.43.54-.27.85.05.1,5.02,9.62,15.05,7.43.06-.01.11-.03.16-.06Z"/>
            <path class="cls-9" d="M533.79,118.41c.13-.07.23-.17.29-.31l2.99-6.98c.14-.32-.01-.7-.33-.84-.32-.14-.7.01-.84.33l-2.99,6.98c-.14.32.01.7.33.84.18.08.38.06.54-.02Z"/>
            <path class="cls-9" d="M528.44,111.7c.28.54.95.75,1.49.47.54-.28.75-.95.47-1.49-.28-.54-.95-.75-1.49-.47-.54.28-.75.95-.47,1.49Z"/>
            <g>
              <path class="cls-9" d="M499.63,140.69c.17-.09.3-.26.33-.46,0-.04.68-4.02,1.86-6.34.16-.31.04-.7-.28-.86-.31-.16-.7-.03-.86.28-1.27,2.5-1.95,6.54-1.98,6.71-.06.35.18.67.52.73.14.02.28,0,.4-.06Z"/>
              <path class="cls-9" d="M503.77,139.26s.08-.05.12-.08c.27-.23.3-.63.08-.9-.02-.02-1.79-2.16-2.21-4.24-.07-.34-.41-.57-.75-.5-.34.07-.57.41-.5.75.49,2.4,2.4,4.7,2.49,4.8.2.23.52.29.78.16Z"/>
            </g>
          </g>
        </g>
      </g>
    </g>
  </g>
  <g>
    <ellipse class="cls-11" cx="144.84" cy="412.94" rx="144.84" ry="8.81"/>
    <g>
      <path class="cls-5" d="M135.8,167.6l14.63,53.5-5.22-6.01c1.93,1.03,4.17,1.82,6.64,2.37,2.47.56,5.17.88,7.99,1.02,2.82.15,5.76.12,8.77,0,3.01-.13,6.08-.35,9.2-.62h.02c4.6-.39,8.65,3.02,9.04,7.62.37,4.39-2.74,8.27-7.01,8.97-3.22.51-6.49,1-9.84,1.39-3.36.39-6.8.68-10.36.76-3.56.08-7.25-.06-11.07-.61-3.81-.55-7.76-1.55-11.62-3.21-2.47-1.07-4.23-3.09-5.03-5.46l-.19-.56-17.55-52.61c-1.97-5.91,1.22-12.31,7.14-14.28,5.91-1.97,12.31,1.22,14.28,7.14.06.19.13.41.18.59Z"/>
      <g>
        <g>
          <path class="cls-9" d="M141.44,361.54c-.22,0-.44-.04-.66-.12l-76.64-27.63c-1-.36-1.53-1.47-1.16-2.47.36-1,1.47-1.53,2.47-1.16l76.64,27.63c1,.36,1.53,1.47,1.16,2.47-.28.79-1.03,1.28-1.82,1.28Z"/>
          <path class="cls-9" d="M61.61,361.54c-.79,0-1.53-.49-1.82-1.28-.36-1,.16-2.11,1.16-2.48l77.55-28.09c1-.36,2.11.16,2.48,1.16.36,1-.16,2.11-1.16,2.48l-77.55,28.09c-.22.08-.44.12-.66.12Z"/>
          <path class="cls-18" d="M148.25,410.92c-1.63,0-3.05-1.21-3.28-2.87l-13.84-103.37h-57.93l-13.63,103.36c-.24,1.81-1.9,3.09-3.71,2.85-1.81-.24-3.09-1.9-2.85-3.71l14.01-106.23c.22-1.65,1.62-2.88,3.28-2.88h63.73c1.66,0,3.06,1.23,3.28,2.87l14.23,106.23c.24,1.81-1.03,3.48-2.84,3.72-.15.02-.3.03-.44.03Z"/>
          <path class="cls-18" d="M115.57,301.38h-41.39c-13.11,0-27.15-7.18-29.17-20.13-2.69-17.33-3.36-34.1-2.61-49.5.85-17.41,9.17-33.61,22.85-44.41h0s8.27,36.03-2.13,85.76c3.97,18.9,52.43,28.29,52.43,28.29Z"/>
        </g>
        <g>
          <path class="cls-21" d="M106.95,90.07s-4.92-11.86-17.95-9.62c-9.1,1.56-12.98,12.9-12.45,30.42.78,25.49-7.84,40.85-7.84,40.85l11.44,2.6s29.13-43.7,26.79-64.24Z"/>
          <g>
            <g>
              <path class="cls-21" d="M211.33,366.63h-18.49s-4.28-20.52-5.71-32.02c-1.44-11.51-2.18-38.78-2.18-38.78,0,0-14.73,4.79-45.57,2.98-68.33-3.99-42.42-54.19-42.42-54.19,2.31,3.19,16.45.98,26.12,2.5,29.67,2.85,55.39,14.49,70.83,21.15,3.72,1.6,7.02,3.3,9.92,5.09,3.72,2.29,6.05,9.26,7.46,18.41,4.22,27.52.05,74.87.05,74.87Z"/>
              <path class="cls-16" d="M195.13,356.74c-.31,0-.58-.22-.65-.53-2.67-13.2-3.56-29.63-4.28-42.83-.6-10.95-1.16-21.29-2.57-22.53-1.14-1.01-5.87-.22-11.85.77-11.91,1.98-29.91,4.96-49.75.35-10.81-2.52-18.76-7.77-23.62-15.61-8.39-13.52-4.56-30.29-4.52-30.46.08-.36.44-.58.8-.49.36.08.58.44.49.8-.04.16-3.73,16.41,4.37,29.46,4.67,7.53,12.34,12.58,22.79,15.01,19.59,4.56,37.43,1.6,49.24-.36,7.07-1.17,11.34-1.88,12.95-.46,1.74,1.54,2.23,9.1,3.01,23.45.72,13.16,1.61,29.53,4.26,42.64.07.36-.16.71-.52.78-.04,0-.09.01-.13.01Z"/>
              <path class="cls-16" d="M211.68,357.09s0,0-.01,0l-20.56-.44c-.37,0-.66-.31-.65-.68,0-.37.31-.66.68-.65l20.56.44c.37,0,.66.31.65.68,0,.36-.3.65-.66.65Z"/>
            </g>
            <g>
              <polygon class="cls-5" points="210.82 390.31 197.77 390.31 195.26 375.01 193.88 366.63 210.09 366.63 210.35 375.01 210.82 390.31"/>
              <g>
                <polygon class="cls-18" points="210.82 390.31 197.77 390.31 195.9 378.92 195.26 375.01 210.35 375.01 210.47 379.06 210.82 390.31"/>
                <polygon class="cls-9" points="210.47 379.06 195.9 378.92 195.26 375.01 210.35 375.01 210.47 379.06"/>
              </g>
              <g>
                <path class="cls-1" d="M243.02,410.92h-49.35c-.37-.67-.57-1.61-.65-2.74-.31-4.18,1.02-10.84,1.67-15.04.08-.49.15-.95.2-1.36.09-.7.15-1.29.15-1.72,0-3.43,3.03-2.84,3.03-2.84,4.99,4.9,10.65-2.45,13.95-.04,0,0,.13.1.44.33.28.22.7.56,1.28,1.05.84.7,2.02,1.72,3.62,3.16,3.92,3.53,10.58,5.85,16.25,8.22.72.3,1.39.6,2.02.91.47.23.92.46,1.34.68,4.64,2.5,6.11,4.9,6.45,6.64.32,1.67-.4,2.74-.4,2.74Z"/>
                <path class="cls-15" d="M236.97,401.54c-1.27,1.01-4.1,3.04-6.37,3.04-.1,0-.2,0-.3-.01-1.6-.13-7.48-3.02-12.27-5.65-2.74-1.51-5.25-2.99-7.05-4.18-2.95-1.95-3.47-2.69-3.58-3.21-.43-1.95,2.79-3.3,5.05-4.01.28.22.7.56,1.28,1.05-2.8.76-5.11,1.96-5,2.65.28.58,3.2,2.8,10.18,6.63,5.33,2.92,10.38,5.27,11.5,5.37,1.52.12,3.75-1.26,5.21-2.35.47.23.92.46,1.34.68Z"/>
                <path class="cls-15" d="M243.02,410.92h-49.35c-.37-.67-.57-1.61-.65-2.74h50.41c.32,1.67-.41,2.74-.41,2.74Z"/>
                <path class="cls-15" d="M198.7,410.92h-1.47c1.46-1.67,2.83-4.24,2.65-7.9-.24-4.88-3.16-8.16-5.2-9.88.08-.49.15-.95.2-1.36,2.19,1.67,5.88,5.34,6.17,11.18.17,3.5-.98,6.11-2.36,7.96Z"/>
                <path class="cls-8" d="M216.52,394.64c-.36,0-.7-.25-.79-.62-.11-.44.16-.88.59-.99l3.08-.77c.44-.11.88.16.99.59.11.44-.16.88-.59.99l-3.08.77c-.07.02-.13.02-.2.02Z"/>
                <path class="cls-8" d="M213.46,392.08c-.36,0-.7-.25-.79-.62-.11-.44.16-.88.59-.99l3.08-.77c.44-.11.88.16.99.59.11.44-.16.88-.59.98l-3.08.77c-.07.02-.13.02-.2.02Z"/>
                <path class="cls-8" d="M219.61,396.43c-.36,0-.7-.25-.79-.62-.11-.44.16-.88.59-.99l3.08-.77c.44-.11.88.16.99.59.11.44-.16.88-.59.99l-3.08.77c-.07.02-.13.02-.2.02Z"/>
                <path class="cls-8" d="M222.69,398.16c-.36,0-.7-.25-.79-.62-.11-.44.16-.88.59-.99l3.08-.77c.44-.11.88.16.99.59.11.44-.16.88-.59.98l-3.08.77c-.07.02-.13.02-.2.02Z"/>
                <path class="cls-8" d="M226.05,399.75c-.36,0-.7-.25-.79-.62-.11-.44.16-.88.59-.99l3.08-.77c.44-.11.88.16.99.59.11.44-.16.88-.59.99l-3.08.77c-.07.02-.13.02-.2.02Z"/>
                <path class="cls-8" d="M229.7,401.11c-.36,0-.7-.25-.79-.62-.11-.44.16-.88.59-.99l3.08-.77c.44-.11.88.16.99.59.11.44-.16.88-.59.98l-3.08.77c-.07.02-.13.02-.2.02Z"/>
              </g>
            </g>
          </g>
          <g>
            <path class="cls-15" d="M62.74,228.7s-.58,3.99,4.76,5.11l55.68,1.86s3.76-1.89,3.08-6.55c0,0-23.51-13.2-63.52-.41Z"/>
            <g>
              <path class="cls-5" d="M123.93,247.11c-28.9,15.9-60.46,3.1-60.46,3.1,1.54-4.21,2.69-8.96,3.52-13.28.96-5.03,1.5-9.47,1.75-11.8,12.29-.67,42.43-1.96,54.24.84l.09,4.73.86,16.41Z"/>
              <path class="cls-6" d="M102.58,239.49c-.21,1.49-.89,2.63-1.5,2.54-.62-.09-.94-1.37-.73-2.86.21-1.49.89-2.63,1.5-2.54.62.09.94,1.37.73,2.86Z"/>
              <path class="cls-6" d="M123.07,230.7c-12.31-.75-36.52-1.01-56.08,6.22.96-5.03,1.5-9.47,1.75-11.8,12.29-.67,42.43-1.96,54.24.84l.09,4.73Z"/>
            </g>
            <g>
              <path class="cls-1" d="M136.8,207.83c-.12.36-.26.69-.41,1-.06.12-.12.24-.18.35-1.55,2.87-3.94,5.36-5.95,7.13-.42.37-.82.7-1.19,1-.74.6-1.37,1.07-1.8,1.38-.4.28-.63.43-.63.43,0,.03,0,.05,0,.09-.02.21-.04.44-.06.68-.07.91-.13,1.99-.17,3.23-.04.99-.07,2.08-.09,3.26-.01.87-.03,1.78-.04,2.72-16.33-7.3-49.97-2.69-63.52-.41.25-1.17.47-2.32.68-3.44.96-5.17,1.5-9.82,1.71-13.99.32-6.2-.22-15.52-1.54-25.15-.08-.63-.17-1.25-.26-1.87-.06-.41-.12-.81-.19-1.22-.46-3.02-1-6.05-1.61-8.99-2.67-12.82-.8-26.27,12.2-27.86.94-.12,1.87-.22,2.77-.32,6.12-.65,11.16-.88,12.56-.93.26,0,.39-.01.39-.01l25.12,7.3,2.39.69c1.37.44,2.64.87,3.82,1.29.5.18.99.36,1.45.53,1.22.46,2.32.9,3.32,1.35,2.01.89,3.6,1.76,4.86,2.65,5.51,3.91,4.66,8.33,4.52,17.06,0,.04,0,.08,0,.12,0,.11,0,.22,0,.34,0,.05,0,.1,0,.15,0,.36,0,.71,0,1.07,0,1.13.05,2.25.12,3.37.09,1.65.24,3.29.42,4.89.07.64.14,1.28.22,1.92.07.6.15,1.19.23,1.78,1.01,7.64,2.25,14.34.89,18.42Z"/>
              <path class="cls-15" d="M134.93,175.9c0,.11,0,.22,0,.34,0,.05,0,.1,0,.15,0,.36,0,.71,0,1.07l-5.28,3.31c-.16.1-.34.13-.52.1-.2-.03-.38-.15-.5-.33-.22-.35-.11-.8.23-1.02l5.6-3.51c.14-.09.31-.13.47-.11Z"/>
              <path class="cls-15" d="M100.13,204.18c-.2,0-.4-.08-.55-.24-.27-.3-.25-.77.05-1.04l4.91-4.42c.3-.27.77-.25,1.04.05.27.3.25.77-.05,1.04l-4.91,4.42c-.14.13-.32.19-.49.19Z"/>
              <path class="cls-15" d="M135.91,189.42l-3.36,3.03c-.14.13-.32.19-.49.19-.2,0-.4-.08-.55-.24-.27-.3-.25-.77.05-1.04l4.12-3.71c.07.6.15,1.19.23,1.78Z"/>
              <path class="cls-15" d="M90.17,186.4c-.11-.17-.16-.38-.11-.59.09-.4.49-.64.89-.55l6.43,1.52c.4.09.64.49.55.89-.09.4-.49.64-.89.55l-6.43-1.52c-.18-.04-.34-.15-.44-.3Z"/>
              <path class="cls-15" d="M67.23,199.02c-.2,0-.4-.08-.55-.24-.27-.3-.25-.77.05-1.04l4.91-4.42c.3-.27.77-.25,1.04.05.27.3.25.77-.05,1.04l-4.91,4.42c-.14.13-.32.19-.49.19Z"/>
              <path class="cls-15" d="M124.39,197.97c.06-.19.21-.36.4-.44.37-.16.81,0,.97.38l2.64,6.06c.16.37,0,.81-.38.97-.37.16-.81,0-.97-.38l-2.64-6.06c-.08-.17-.08-.36-.02-.53Z"/>
              <path class="cls-15" d="M136.8,207.83c-.12.36-.26.69-.41,1-.06.12-.12.24-.18.35l-3.59-1.13c-.18-.06-.32-.18-.41-.33-.1-.17-.14-.39-.07-.59.12-.39.54-.6.92-.48l3.74,1.18Z"/>
              <path class="cls-15" d="M116.52,208.36c.2-.02.41.04.57.19.3.27.32.74.05,1.04l-4.44,4.89c-.27.3-.74.32-1.04.05-.3-.27-.32-.74-.05-1.04l4.44-4.89c.13-.14.3-.22.47-.24Z"/>
              <path class="cls-15" d="M113.91,197.08c-.2-.03-.38-.15-.5-.33-.22-.34-.11-.8.23-1.02l5.6-3.51c.34-.22.8-.11,1.02.23.22.34.11.8-.23,1.02l-5.6,3.51c-.16.1-.34.13-.52.1Z"/>
              <path class="cls-15" d="M117.47,175.8c.13.15.21.35.18.57-.04.4-.41.7-.81.65l-6.57-.72c-.4-.04-.7-.41-.65-.81.04-.4.41-.7.81-.65l6.57.72c.19.02.35.11.47.24Z"/>
              <path class="cls-15" d="M107.92,161.55c.05-.2.18-.37.37-.47.36-.19.8-.06,1,.3l3.13,5.82c.19.36.06.81-.3,1s-.81.06-1-.3l-3.13-5.82c-.09-.17-.11-.35-.07-.52Z"/>
              <path class="cls-15" d="M130.25,216.32c-.42.37-.82.7-1.19,1l-.86-2.2c-.07-.18-.07-.36,0-.53.07-.19.22-.35.42-.43.38-.15.81.04.96.41l.68,1.74Z"/>
              <path class="cls-15" d="M69.85,205.12c-.1-.18-.12-.39-.04-.6.14-.38.56-.58.94-.44l6.22,2.24c.38.14.58.56.44.94-.14.38-.56.58-.94.44l-6.22-2.24c-.18-.06-.32-.19-.4-.34Z"/>
              <path class="cls-15" d="M72.9,213.53c.2,0,.4.09.55.25.27.3.24.77-.06,1.04l-4.95,4.38c-.3.27-.77.24-1.04-.06-.27-.3-.24-.77.06-1.04l4.95-4.38c.14-.13.32-.19.49-.18Z"/>
              <path class="cls-15" d="M81.87,220.48c.12.16.19.37.15.58-.07.4-.45.67-.85.6l-6.51-1.11c-.4-.07-.67-.45-.6-.85.07-.4.45-.67.85-.6l6.51,1.11c.19.03.35.13.45.27Z"/>
              <path class="cls-15" d="M87.31,158.62c-.05-.19-.03-.41.09-.59.22-.34.68-.44,1.02-.22l5.55,3.58c.34.22.44.68.22,1.02-.22.34-.68.44-1.02.22l-5.55-3.58c-.16-.1-.27-.26-.31-.43Z"/>
              <path class="cls-15" d="M125.2,162.84c.18-.1.39-.12.6-.05.38.14.58.56.45.94l-2.21,6.23c-.14.38-.56.58-.94.45-.38-.14-.58-.56-.45-.94l2.21-6.23c.06-.18.19-.32.34-.4Z"/>
              <path class="cls-15" d="M122.23,154.73l-3.41,4.38c-.25.32-.71.38-1.03.13-.32-.25-.38-.71-.13-1.03l3.12-4c.5.18.99.36,1.45.53Z"/>
              <path class="cls-15" d="M88.86,215.16c.07.21.25.36.45.4.1.02.21.02.31-.02.11-.04,10.8-3.5,22.04,1.16,5.71,2.37,10.79,3.27,14.9,3.19.02-.24.04-.47.06-.68,0-.03,0-.06,0-.08,0,0,.23-.15.63-.43-4.04.2-9.21-.66-15.14-3.11-11.67-4.84-22.43-1.34-22.88-1.19-.32.1-.49.44-.38.76Z"/>
              <path class="cls-15" d="M114.57,152.21c-1.41,2.18-4.31,4.65-10.19,4.23-8.11-.59-13.45-8.33-15.31-11.51.25-.01.39-.01.39-.01l25.12,7.3Z"/>
              <path class="cls-8" d="M105.94,166.57c.24.05.48.08.72.1,2.24.18,4.06-.47,5.4-1.93,3.9-4.26,2.3-13.98,2.23-14.39-.06-.33-.37-.55-.69-.49-.33.06-.55.37-.49.69.02.1,1.57,9.55-1.93,13.38-1.09,1.19-2.54,1.7-4.41,1.55-7.86-.63-16.67-20.6-16.76-20.8-.13-.3-.49-.44-.79-.31-.3.13-.44.49-.31.79.36.83,8.71,19.72,17.04,21.41Z"/>
              <path class="cls-5" d="M130.42,158.72c-.52,5.76.9,15.27,4.62,22.11-.09-1.48-.13-2.96-.11-4.44,0-.05,0-.1,0-.15,0-.15,0-.3,0-.45.14-8.73.99-13.15-4.52-17.06Z"/>
              <path class="cls-5" d="M84.22,168.86c-2.88,11.12-13.42,20.04-20.62,17.26-.09-.62-.17-1.25-.26-1.87-.06-.41-.12-.81-.18-1.22-.46-3.02-1-6.05-1.61-8.99-2.67-12.82-.79-26.27,12.2-27.86.94-.12,1.87-.22,2.78-.32,6.51,2.77,11.03,10.2,7.71,23Z"/>
              <path class="cls-5" d="M85.7,160.38l16.88,61.74-6.02-6.94c2.23,1.18,4.81,2.1,7.67,2.74,2.85.64,5.97,1.01,9.22,1.18,3.26.17,6.65.14,10.12,0,3.47-.14,7.02-.4,10.62-.71h.02c5.31-.45,9.98,3.48,10.43,8.79.43,5.06-3.16,9.55-8.1,10.35-3.71.59-7.49,1.15-11.36,1.6-3.87.45-7.84.78-11.96.88-4.11.09-8.37-.06-12.77-.7-4.39-.64-8.95-1.78-13.41-3.71-2.85-1.23-4.88-3.57-5.8-6.3l-.21-.64-20.26-60.72c-2.28-6.82,1.41-14.2,8.23-16.48,6.82-2.28,14.2,1.41,16.48,8.23.07.21.15.47.21.69Z"/>
              <g>
                <path class="cls-6" d="M93.26,220.15c-.17,0-.34-.09-.43-.25-.14-.24-.05-.54.19-.68.16-.09,3.85-2.17,7.71-2.47.28-.02.52.18.54.46.02.28-.18.52-.46.54-3.63.28-7.26,2.32-7.29,2.34-.08.04-.16.07-.25.07Z"/>
                <path class="cls-6" d="M99.39,217.92c-.09,0-.18-.02-.26-.07-2.33-1.41-5.15-1.63-5.18-1.63-.28-.02-.48-.26-.46-.53.02-.28.25-.48.53-.46.12,0,3.09.23,5.62,1.77.24.14.31.45.17.69-.09.16-.26.24-.43.24Z"/>
              </g>
              <path class="cls-15" d="M114.45,185.38c7.47,1.51,10.74-6.21,10.77-6.29.13-.31-.02-.66-.33-.78-.31-.13-.66.02-.78.33-.12.29-2.94,6.88-9.42,5.57-6.81-1.38-19.51-14.77-19.63-14.91-.23-.24-.61-.25-.85-.02-.24.23-.25.61-.02.85.53.56,13.09,13.81,20.27,15.26Z"/>
            </g>
            <g>
              <path class="cls-21" d="M102.7,136.75s-11.99-2.26-15.37-14.36c-3.22-11.52-.74-17.5,2.61-23.72,2.52-4.69,10.52-11.02,21.73-8.75,11.32,2.29,19.79,8.11,21.04,17.42,2.34,17.42-11.72,38.68-30.01,29.41Z"/>
              <path class="cls-18" d="M87.9,124.26c-.22,0-.43-.11-.54-.32-.22-.38-5.26-9.45-1.07-21.39,2.62-7.46,7.77-10.79,11.64-12.28,4.18-1.61,7.69-1.45,7.84-1.45.34.02.61.31.59.66-.02.34-.3.61-.65.59h0s-3.44-.14-7.38,1.38c-5.24,2.03-8.89,5.9-10.86,11.51-3.99,11.38.93,20.27.98,20.36.17.3.07.68-.23.85-.1.06-.2.08-.31.08Z"/>
              <g>
                <path class="cls-6" d="M125.96,124.45s3.9-3.08,4.93,1c1.03,4.08-1.87,11.33-6.41,9.13l1.48-10.13Z"/>
                <path class="cls-18" d="M122.15,131.95c-1.94.64-3.65,2.36-4.09,4.49-.64,3.18,1.42,6.28,4.59,6.93,3.18.64,6.28-1.42,6.93-4.59.48-2.38-.55-4.72-2.44-6.01-.63-.44-1.36-.75-2.16-.91-.02,0-.04,0-.06,0-.11.4-.07.72.16.97.64.17,1.22.46,1.73.84,1.47,1.12,2.26,3.01,1.87,4.94-.54,2.68-3.17,4.42-5.85,3.88-2.68-.54-4.42-3.17-3.88-5.85.4-1.95,1.84-3.33,3.65-3.77l-.46-.9Z"/>
                <g>
                  <path class="cls-5" d="M114.14,141.94l-1.63,10.22s-7.65,7.81-21.62-6.2c3.75-2.79,5.18-9.27,4.74-13.45,0,0,1.1.66,2.8,2.2.33.3.76.53,1.17.82,3.69,2.51,9.35,5.78,14.54,6.42Z"/>
                  <path class="cls-21" d="M114.14,141.94l-.77,4.84c-4.19-1.87-11.6-5.86-14.94-12.08.36.26.76.53,1.17.82,3.69,2.51,9.35,5.78,14.54,6.42Z"/>
                </g>
                <path class="cls-5" d="M129.74,121.99c-.22,1.08-.42,2.11-.63,3.09-.22,1.06-.43,2.06-.64,3-1.55,7.07-2.82,10.86-4.88,12.28-10.43,7.17-27.4-7.35-27.95-7.82,0,0-.01-.01-.01-.01-.01-.83-.01-1.66,0-2.47.13-6.88,1.3-13.06,3.16-18.77.93-6.24,5.77-11.24,12-12.18,6.46-.97,11.32,2.77,14.36,4.42,4.59,2.5,6.39,9.45,4.59,18.47Z"/>
                <path class="cls-21" d="M99.14,104.87s7.3-14.04,21.86-10.12c14.56,3.92,15.33,10.68,15.59,14.06s-7.54-2.61-7.54-2.61c0,0-.27,6.76-2.87,4.68-3.19-2.56-6.75-8.07-6.75-8.07,0,0-8.67,8.52-16.91,6.22-4.68-1.31-3.38-4.17-3.38-4.17Z"/>
                <path class="cls-6" d="M117.03,135.76c-1.89,0-3.19-1.31-3.25-1.38-.2-.21-.2-.54.01-.74.21-.2.53-.2.73,0,.07.07,1.57,1.56,3.55.88.27-.09.57.05.66.32s-.05.57-.32.66c-.49.17-.95.23-1.38.23Z"/>
                <path class="cls-8" d="M112.67,127.26s7.02,2.08,10.66,2.08c0,0-1.82,5.2-7.02,3.38-4.05-1.42-3.64-5.46-3.64-5.46Z"/>
                <path class="cls-21" d="M125.71,112.64s-1.82-.19-1.53,1.58c.3,1.77,4.25.69,6.21,4.23,0,0,1.89-3.71-4.68-5.81Z"/>
                <path class="cls-21" d="M117.6,111s1.75.54.79,2.05c-.96,1.51-4.18-1.02-7.36,1.48,0,0-.3-4.15,6.57-3.53Z"/>
                <path class="cls-6" d="M114.43,123.67c-.17.83-2.03,1.16-4.15.73-2.12-.43-3.7-1.45-3.53-2.29.17-.83,2.02-1.16,4.15-.73,2.12.43,3.7,1.45,3.53,2.29Z"/>
                <g>
                  <path class="cls-8" d="M135.16,124.22l-5.67-.97c-.03.24-.09.48-.14.71,0,.04-.02.08-.04.12l5.71.97c.23.04.45-.12.49-.35.04-.23-.1-.45-.35-.49Z"/>
                  <g>
                    <path class="cls-8" d="M120.02,119.38c0-.29-.01-.58-.05-.86-.19-1.54-.87-2.96-1.91-4.06-.96-1.01-2.21-1.75-3.66-2.07-.02,0-.05-.01-.07-.02-3.32-.68-6.59,1.06-7.94,4.02-.12.26-.22.52-.31.79-.08.24-.14.49-.2.74-.38,1.86,0,3.7.92,5.2.31.51.7.98,1.13,1.39.94.91,2.13,1.57,3.5,1.85,2.31.48,4.58-.22,6.21-1.68,1.1-.98,1.91-2.32,2.23-3.87,0,0,0-.01,0-.02.1-.47.14-.95.14-1.42ZM111.6,125.53s-.07-.01-.1-.02c-1.79-.4-3.24-1.54-4.09-3.03-.73-1.29-1.02-2.83-.7-4.39.07-.32.16-.63.27-.93,0-.02.02-.04.02-.06.89-2.31,3.06-3.88,5.5-4.02.54-.03,1.09,0,1.65.12,1.2.25,2.24.82,3.07,1.61,1.52,1.45,2.28,3.63,1.83,5.83-.7,3.4-4.04,5.6-7.44,4.89Z"/>
                    <path class="cls-8" d="M132.72,116.46c-.19-.1-.39-.19-.6-.28-.24-.1-.49-.18-.74-.26-.18-.05-.35-.1-.54-.13-.34-.07-.67-.11-1-.13-.4-.03-.8-.02-1.19.03-1.09.12-2.12.48-3.03,1.05-1,.62-1.85,1.49-2.43,2.54-.16.27-.29.55-.41.83,0,.02-.01.03-.02.05-.15.38-.27.78-.36,1.19-.57,2.76.54,5.48,2.63,7.1.68.53,1.46.94,2.32,1.19.13.04.26.08.4.1.07.02.13.03.2.05.69.14,1.38.18,2.05.12.11,0,.22-.02.32-.03.29-.04.58-.09.87-.17.53-.14,1.05-.34,1.53-.59,1.83-.96,3.23-2.7,3.68-4.88.66-3.19-.93-6.33-3.67-7.77ZM135.57,124.06c-.03.14-.06.27-.1.4-.05.19-.11.37-.18.56-.5,1.33-1.42,2.41-2.58,3.12-.42.26-.88.47-1.36.63-.3.1-.6.17-.92.22-.09.02-.18.03-.27.04-.66.08-1.35.06-2.04-.08-.06-.01-.13-.03-.19-.04-.04,0-.08-.02-.11-.03-1.01-.26-1.91-.76-2.64-1.43-.11-.1-.21-.2-.31-.3-1.39-1.44-2.07-3.53-1.64-5.64.1-.47.25-.93.44-1.35.63-1.38,1.73-2.45,3.06-3.08.82-.39,1.73-.6,2.67-.6.15,0,.3,0,.46.02.27.02.54.06.81.11.2.04.39.09.58.15.26.08.51.18.76.29.19.09.38.19.57.29,2.27,1.33,3.55,4,2.99,6.71Z"/>
                    <path class="cls-8" d="M97.35,117.68s-.1-.03-.14-.06c-.2-.13-.25-.39-.13-.58,2.84-4.44,9.67-.45,9.73-.41.2.12.27.38.15.58-.12.2-.38.27-.58.15-.06-.04-6.19-3.61-8.59.14-.1.15-.28.22-.44.19Z"/>
                  </g>
                </g>
                <path class="cls-8" d="M123.09,120.35c-.11-.02-.2-.09-.27-.18-.91-1.4-2.85-.77-2.87-.77-.22.07-.46-.05-.53-.27-.07-.22.05-.46.27-.53.89-.3,2.84-.45,3.85,1.11.13.2.07.46-.13.58-.1.06-.21.08-.32.06Z"/>
                <g class="cls-12">
                  <path class="cls-6" d="M129.11,125.08c-.22,1.06-.43,2.06-.64,3-1.93-.47-3.32-1.42-3.16-2.21.16-.79,1.83-1.12,3.8-.8Z"/>
                </g>
                <g>
                  <path class="cls-21" d="M115.92,119.48c-.23,1.15-.94,1.97-1.58,1.84-.64-.13-.97-1.16-.74-2.31.23-1.15.94-1.97,1.58-1.84.64.13.97,1.16.74,2.31Z"/>
                  <path class="cls-21" d="M127.26,121.78c-.23,1.15-.94,1.97-1.58,1.84-.64-.13-.97-1.16-.74-2.31.23-1.15.94-1.97,1.58-1.84.64.13.97,1.16.74,2.31Z"/>
                  <path class="cls-21" d="M121.41,124.86c.55.11.94.09.97.09.13,0,.26-.07.35-.17.09-.1.12-.24.11-.37l-.73-5.35c-.04-.26-.28-.45-.54-.41-.26.04-.45.28-.41.54l.65,4.77c-.48-.07-1.2-.27-1.85-.81-.2-.17-.51-.14-.68.06-.17.2-.14.51.06.68.71.59,1.48.86,2.07.98Z"/>
                </g>
                <path class="cls-21" d="M100.31,128.64c-.08.12-2.3,3.31-4.67,3.89,0,0,0,0,0,0,0,0,0-.01,0-.01-.02-.83-.01-1.66,0-2.47.08,0,2.35.07,4.68-1.41Z"/>
                <path class="cls-5" d="M99.83,120.26s-3.34-7.08-7.67-2.93c-3.57,3.43-.45,14.87,5.75,12.42l1.92-9.5Z"/>
                <path class="cls-18" d="M91.62,126.37c-1.94.64-3.65,2.36-4.09,4.49-.64,3.18,1.42,6.28,4.59,6.93,3.18.64,6.28-1.42,6.93-4.59.48-2.38-.55-4.72-2.44-6.01-.63-.44-1.36-.75-2.16-.91-.02,0-.04,0-.06,0-.11.4-.06.72.16.97.64.17,1.22.46,1.73.84,1.47,1.12,2.26,3.01,1.87,4.94-.54,2.68-3.17,4.42-5.85,3.88-2.68-.54-4.42-3.17-3.88-5.85.39-1.95,1.84-3.33,3.65-3.77l-.46-.9Z"/>
                <path class="cls-21" d="M97.65,127.78s.03,0,.05,0c.26.02.5-.17.52-.44.49-5.35-3.55-8.06-3.72-8.17-.22-.15-.52-.08-.67.14-.15.22-.08.52.14.67h0c.15.1,3.73,2.52,3.29,7.28-.02.25.15.47.38.52Z"/>
                <path class="cls-21" d="M93.83,124.03c.1.02.22,0,.32-.05.48-.25,1.89-.81,2.66-.44.24.12.53.02.64-.22.12-.24.02-.53-.22-.64-1.34-.65-3.3.34-3.52.46-.24.12-.33.41-.2.65.07.13.19.22.33.25Z"/>
              </g>
              <path class="cls-21" d="M104.13,108.25s-4.49,12.19-4.73,14.65c-.33,3.35-4.76-8.13-.31-17.93l5.04,3.28Z"/>
            </g>
          </g>
          <g>
            <path class="cls-21" d="M179.14,366.69h-18.49s-4.28-20.52-5.71-32.02c-1.44-11.51-2.18-38.78-2.18-38.78,0,0-14.73,4.79-45.57,2.98-68.33-3.99-42.42-54.19-42.42-54.19,2.31,3.19,19.63,7.58,29.29,9.11,29.67,2.85,52.22,7.89,67.66,14.55,3.72,1.6,7.02,3.3,9.92,5.09,3.72,2.29,6.05,9.26,7.46,18.41,4.22,27.52.05,74.87.05,74.87Z"/>
            <path class="cls-16" d="M162.95,356.81c-.31,0-.58-.22-.65-.53-2.67-13.2-3.56-29.63-4.28-42.83-.6-10.95-1.16-21.29-2.57-22.53-1.14-1.01-5.87-.22-11.85.77-11.91,1.98-29.91,4.96-49.75.35-10.81-2.52-18.76-7.77-23.62-15.61-8.39-13.52-4.56-30.29-4.52-30.46.08-.36.44-.58.8-.49.36.08.58.44.49.8-.04.16-3.73,16.41,4.37,29.46,4.67,7.53,12.34,12.58,22.79,15.01,19.59,4.56,37.43,1.6,49.24-.36,7.07-1.17,11.34-1.88,12.95-.46,1.74,1.54,2.23,9.1,3.01,23.45.72,13.16,1.61,29.53,4.26,42.64.07.36-.16.71-.52.78-.04,0-.09.01-.13.01Z"/>
            <path class="cls-16" d="M179.5,357.15s0,0-.01,0l-20.56-.44c-.37,0-.66-.31-.65-.68,0-.37.31-.66.68-.65l20.56.44c.37,0,.66.31.65.68,0,.36-.3.65-.66.65Z"/>
          </g>
          <g>
            <polygon class="cls-5" points="178.63 390.38 165.59 390.38 163.07 375.07 161.7 366.69 177.91 366.69 178.16 375.07 178.63 390.38"/>
            <g>
              <polygon class="cls-18" points="178.63 390.38 165.59 390.38 163.71 378.98 163.07 375.07 178.16 375.07 178.29 379.12 178.63 390.38"/>
              <polygon class="cls-9" points="178.29 379.12 163.71 378.98 163.07 375.07 178.16 375.07 178.29 379.12"/>
            </g>
            <g>
              <path class="cls-1" d="M210.83,410.99h-49.35c-.37-.67-.57-1.61-.65-2.74-.31-4.18,1.02-10.84,1.67-15.04.08-.49.15-.95.2-1.36.09-.7.15-1.29.15-1.72,0-3.43,3.03-2.84,3.03-2.84,4.99,4.9,10.65-2.44,13.95-.04,0,0,.13.1.44.33.28.22.7.56,1.28,1.05.84.7,2.02,1.72,3.62,3.16,3.92,3.53,10.58,5.85,16.25,8.22.72.3,1.39.6,2.02.91.47.23.92.46,1.34.68,4.64,2.5,6.11,4.9,6.45,6.64.32,1.67-.4,2.74-.4,2.74Z"/>
              <path class="cls-15" d="M204.79,401.61c-1.27,1.01-4.1,3.04-6.37,3.04-.1,0-.2,0-.3-.01-1.6-.13-7.48-3.02-12.27-5.65-2.74-1.51-5.25-2.99-7.05-4.18-2.95-1.95-3.47-2.69-3.58-3.21-.43-1.95,2.79-3.3,5.05-4.01.28.22.7.56,1.28,1.05-2.8.76-5.11,1.96-5,2.64.28.58,3.2,2.8,10.18,6.63,5.33,2.92,10.38,5.27,11.5,5.37,1.52.12,3.75-1.26,5.21-2.35.47.23.92.46,1.34.68Z"/>
              <path class="cls-15" d="M210.83,410.99h-49.35c-.37-.67-.57-1.61-.65-2.74h50.41c.32,1.67-.41,2.74-.41,2.74Z"/>
              <path class="cls-15" d="M166.52,410.99h-1.47c1.46-1.67,2.83-4.24,2.65-7.9-.24-4.88-3.16-8.16-5.2-9.88.08-.49.15-.95.2-1.36,2.19,1.67,5.88,5.34,6.17,11.18.17,3.5-.98,6.11-2.36,7.96Z"/>
              <path class="cls-8" d="M184.34,394.71c-.36,0-.7-.25-.79-.62-.11-.44.16-.88.59-.99l3.08-.77c.44-.11.88.16.99.59.11.44-.16.88-.59.99l-3.08.77c-.07.02-.13.02-.2.02Z"/>
              <path class="cls-8" d="M181.28,392.14c-.36,0-.7-.25-.79-.62-.11-.44.16-.88.59-.99l3.08-.77c.44-.11.88.16.99.59.11.44-.16.88-.59.99l-3.08.77c-.07.02-.13.02-.2.02Z"/>
              <path class="cls-8" d="M187.42,396.5c-.36,0-.7-.25-.79-.62-.11-.44.16-.88.59-.99l3.08-.77c.44-.11.88.16.99.59.11.44-.16.88-.59.99l-3.08.77c-.07.02-.13.02-.2.02Z"/>
              <path class="cls-8" d="M190.51,398.22c-.36,0-.7-.25-.79-.62-.11-.44.16-.88.59-.98l3.08-.77c.44-.11.88.16.99.59.11.44-.16.88-.59.99l-3.08.77c-.07.02-.13.02-.2.02Z"/>
              <path class="cls-8" d="M193.87,399.81c-.36,0-.7-.25-.79-.62-.11-.44.16-.88.59-.98l3.08-.77c.44-.11.88.16.99.59.11.44-.16.88-.59.99l-3.08.77c-.07.02-.13.02-.2.02Z"/>
              <path class="cls-8" d="M197.51,401.17c-.36,0-.7-.25-.79-.62-.11-.44.16-.88.59-.99l3.08-.77c.44-.11.88.16.99.59.11.44-.16.88-.59.98l-3.08.77c-.07.02-.13.02-.2.02Z"/>
            </g>
          </g>
        </g>
      </g>
      <g>
        <path class="cls-7" d="M247.24,243.94v4.1c0,2.36-1.42,4.27-3.18,4.27H22.59c-1.76,0-3.18-1.91-3.18-4.27v-4.1c0-2.36,1.42-4.27,3.18-4.27h221.46c1.76,0,3.18,1.91,3.18,4.27Z"/>
        <rect class="cls-3" x="19.41" y="245.24" width="227.83" height="1.88"/>
        <path class="cls-3" d="M240.59,262.84H32.41c-.93,0-1.69-.76-1.69-1.69v-8.9h211.55v8.9c0,.93-.76,1.69-1.69,1.69Z"/>
        <rect class="cls-3" x="45.07" y="315.08" width="186.17" height="7.26"/>
        <polygon class="cls-7" points="31.65 412.28 67.69 262.84 55.03 262.84 18.99 412.28 31.65 412.28"/>
        <polygon class="cls-7" points="244.41 412.28 208.37 262.84 221.03 262.84 257.07 412.28 244.41 412.28"/>
      </g>
      <g>
        <g>
          <g>
            <rect class="cls-18" x="37.97" y="205.44" width="3.95" height="29.81" transform="translate(-32.91 8.59) rotate(-8.71)"/>
            <polygon class="cls-5" points="39.64 205.31 35.73 205.91 36.59 202.93 37.04 201.38 37.93 202.72 39.64 205.31"/>
            <rect class="cls-21" x="40.06" y="232.92" width="3.95" height="2.17" transform="translate(-34.95 9.07) rotate(-8.71)"/>
            <path class="cls-14" d="M44.15,236.52l-3.39.52c-.14.02-.28-.08-.3-.22l-.22-1.45,3.91-.6.22,1.45c.02.14-.08.28-.22.3Z"/>
            <polygon class="cls-21" points="37.93 202.72 36.59 202.93 37.04 201.38 37.93 202.72"/>
            <rect class="cls-9" x="39.78" y="231.39" width="3.95" height="1.55" transform="translate(-34.67 9) rotate(-8.71)"/>
            <path class="cls-9" d="M36.93,207.21l3.34,21.82c.03.16.18.28.34.25h0c.16-.03.28-.18.25-.34l-3.34-21.82c-.03-.16-.18-.28-.34-.25h0c-.16.03-.28.18-.25.34Z"/>
            <path class="cls-9" d="M38.45,206.98l3.34,21.82c.03.16.18.28.34.25h0c.17-.03.28-.18.25-.34l-3.34-21.82c-.03-.16-.18-.28-.34-.25h0c-.16.03-.28.18-.25.34Z"/>
          </g>
          <g>
            <rect class="cls-7" x="42.8" y="205.45" width="3.95" height="29.81" transform="translate(-.72 .15) rotate(-.19)"/>
            <polygon class="cls-5" points="46.71 205.45 42.75 205.46 44.05 202.64 44.72 201.17 45.39 202.63 46.71 205.45"/>
            <rect class="cls-21" x="42.85" y="233.1" width="3.95" height="2.17" transform="translate(-.77 .15) rotate(-.19)"/>
            <path class="cls-14" d="M46.55,236.98h-3.43c-.15.01-.26-.11-.26-.25v-1.46s3.95-.01,3.95-.01v1.46c0,.15-.11.26-.26.26Z"/>
            <polygon class="cls-21" points="45.39 202.63 44.05 202.64 44.72 201.17 45.39 202.63"/>
            <rect class="cls-3" x="42.84" y="231.54" width="3.95" height="1.55" transform="translate(-.76 .15) rotate(-.19)"/>
            <path class="cls-3" d="M43.74,206.93l.07,22.07c0,.17.14.3.3.3h0c.17,0,.3-.14.3-.3l-.07-22.07c0-.17-.14-.3-.3-.3h0c-.17,0-.3.14-.3.3Z"/>
            <path class="cls-3" d="M45.29,206.92l.07,22.07c0,.17.14.3.3.3h0c.17,0,.3-.14.3-.3l-.07-22.07c0-.17-.14-.3-.3-.3h0c-.17,0-.3.14-.3.3Z"/>
          </g>
          <g>
            <rect class="cls-1" x="34.57" y="218.37" width="29.81" height="3.95" transform="translate(-175.64 238.34) rotate(-81.91)"/>
            <polygon class="cls-5" points="53.53 205.87 49.61 205.31 51.3 202.7 52.17 201.35 52.64 202.89 53.53 205.87"/>
            <rect class="cls-21" x="45.55" y="232.95" width="3.95" height="2.17" transform="translate(33.39 -4.36) rotate(8.09)"/>
            <path class="cls-14" d="M48.83,237.05l-3.39-.48c-.14-.02-.24-.15-.22-.3l.21-1.45,3.91.56-.21,1.45c-.02.14-.15.24-.3.22Z"/>
            <polygon class="cls-21" points="52.64 202.89 51.3 202.7 52.17 201.35 52.64 202.89"/>
            <rect class="cls-15" x="47.02" y="230.21" width="1.55" height="3.95" transform="translate(-188.81 246.84) rotate(-81.91)"/>
            <path class="cls-15" d="M50.38,206.9l-3.1,21.85c-.02.17.09.32.26.34h0c.17.02.32-.09.34-.26l3.1-21.85c.02-.17-.09-.32-.26-.34h0c-.17-.02-.32.09-.34.26Z"/>
            <path class="cls-15" d="M51.91,207.12l-3.1,21.85c-.02.17.09.32.26.34h0c.17.02.32-.09.34-.26l3.1-21.85c.02-.17-.09-.32-.26-.34h0c-.17-.02-.32.09-.34.26Z"/>
          </g>
        </g>
        <g>
          <polygon class="cls-14" points="54.81 217.24 54.61 218.84 54.42 220.29 54.13 222.49 53.95 223.93 53.66 226.15 53.48 227.57 53.19 229.81 53.01 231.21 52.72 233.47 52.54 234.85 52.24 237.13 52.07 238.49 51.92 239.67 36.38 239.67 36.23 238.49 36.05 237.13 35.76 234.85 35.58 233.47 35.29 231.21 35.11 229.81 34.82 227.57 34.63 226.15 34.35 223.93 34.16 222.49 33.88 220.29 33.69 218.84 33.48 217.24 54.81 217.24"/>
          <g>
            <polygon class="cls-4" points="54.61 218.84 54.42 220.29 33.88 220.29 33.69 218.84 54.61 218.84"/>
            <polygon class="cls-4" points="54.13 222.49 53.95 223.93 34.35 223.93 34.16 222.49 54.13 222.49"/>
            <polygon class="cls-4" points="53.66 226.15 53.48 227.57 34.82 227.57 34.63 226.15 53.66 226.15"/>
            <polygon class="cls-4" points="53.19 229.81 53.01 231.21 35.29 231.21 35.11 229.81 53.19 229.81"/>
            <polygon class="cls-4" points="52.72 233.47 52.54 234.85 35.76 234.85 35.58 233.47 52.72 233.47"/>
            <polygon class="cls-4" points="52.24 237.13 52.07 238.49 36.23 238.49 36.05 237.13 52.24 237.13"/>
          </g>
        </g>
      </g>
      <g>
        <g>
          <path class="cls-21" d="M245.95,160.42l-13.25,56.04-.35,1.47-.89,3.77c-.39,1.64-1.84,2.79-3.52,2.79h-89.26c-2.34,0-4.06-2.18-3.52-4.45l14.49-61.28c.39-1.63,1.84-2.78,3.52-2.78h89.26c2.34,0,4.06,2.18,3.52,4.45Z"/>
          <polygon class="cls-16" points="232.7 216.45 232.35 217.93 139.67 217.93 139.67 216.45 232.7 216.45"/>
          <g>
            <path class="cls-18" d="M174.65,169.83c-.74,3.97-4.56,7.19-8.53,7.19s-6.59-3.22-5.85-7.19c.74-3.97,4.56-7.19,8.53-7.19s6.59,3.22,5.85,7.19Z"/>
            <g>
              <path class="cls-21" d="M166.53,168.46c-.15.79-.55,1.44-.89,1.44s-.51-.64-.36-1.44c.15-.79.55-1.44.89-1.44s.51.64.36,1.44Z"/>
              <path class="cls-21" d="M170.28,168.46c-.15.79-.55,1.44-.89,1.44s-.51-.64-.36-1.44c.15-.79.55-1.44.89-1.44s.51.64.36,1.44Z"/>
            </g>
            <path class="cls-21" d="M166.87,173.34c-3.09,0-3.22-3.09-3.23-3.12,0-.17.13-.34.31-.37.18-.04.32.07.33.24,0,.11.12,2.63,2.71,2.63s3.64-2.52,3.69-2.63c.07-.17.26-.28.42-.24.16.04.24.2.17.37-.01.03-1.3,3.12-4.39,3.12Z"/>
          </g>
          <path class="cls-14" d="M215.91,203.41c.08,3.72,6.38,8.38,6.38,8.38,0,0,7.32-4.66,8.21-8.38.96-4.03-3.64-5.27-7.05-2.23-2.75-3.04-7.62-1.8-7.54,2.23Z"/>
          <path class="cls-16" d="M202.58,192.62c-.43,3.86-3.9,6.98-7.75,6.98s-6.64-3.13-6.21-6.98c.43-3.86,3.9-6.98,7.75-6.98s6.64,3.13,6.21,6.98Z"/>
          <path class="cls-16" d="M156.7,155.97l-15.43,68.52h-2.6c-2.34,0-4.06-2.18-3.52-4.45l14.49-61.28c.39-1.63,1.84-2.79,3.52-2.79h3.54Z"/>
          <polygon class="cls-8" points="182.56 224.49 179.85 239.72 188.79 239.72 191.5 224.49 182.56 224.49"/>
          <path class="cls-8" d="M166.46,237.1l1.83-2.57c.65-.92,1.71-1.46,2.84-1.46h24.52c1.3,0,2.49.72,3.09,1.87l1.23,2.36c.58,1.1-.22,2.43-1.47,2.43h-30.69c-1.35,0-2.13-1.52-1.35-2.62Z"/>
        </g>
        <path class="cls-8" d="M115.37,239.71h73.66l.8-2.78c.5-1.75-.81-3.49-2.63-3.49h-67.97c-1.22,0-2.29.81-2.63,1.98l-1.23,4.29Z"/>
      </g>
      <g>
        <rect class="cls-14" x="177.1" y="113.07" width="37.15" height="24.59" rx="2.29" ry="2.29"/>
        <polygon class="cls-14" points="210.02 133.98 207.04 145.2 201.85 134.65 210.02 133.98"/>
        <path class="cls-8" d="M203.9,123.55c-.66,4.2-8.51,9.46-8.51,9.46,0,0-7.55-5.27-7.98-9.48-.47-4.56,4.93-5.95,8.32-2.51,3.58-3.43,8.9-2.03,8.17,2.53Z"/>
      </g>
    </g>
  </g>
  <g>
    <g>
      <ellipse class="cls-11" cx="618.53" cy="413.34" rx="55.48" ry="5.48"/>
      <g>
        <rect class="cls-21" x="580.05" y="367.78" width="74.86" height="5.93" rx="2.41" ry="2.41"/>
        <path class="cls-16" d="M583.34,302.09h68.43c1.14,0,2.06.92,2.06,2.06v8.41c0,1.14-.92,2.06-2.06,2.06h-68.43c-1.14,0-2.06-.92-2.06-2.06v-8.41c0-1.14.92-2.06,2.06-2.06Z"/>
        <g>
          <g>
            <g>
              <path class="cls-7" d="M599.49,248.79s-28.85-5.7-36.9-25.83c-8.05-20.13,21.39-35.23,36.9-24.42,16.6,11.56,0,50.25,0,50.25Z"/>
              <path class="cls-21" d="M616.65,301.68c-.25,0-.48-.19-.52-.45-2.76-18.7-13.91-45.6-22.76-64.87-9.61-20.9-18.67-37.58-18.76-37.75-.14-.25-.04-.57.21-.71.25-.14.57-.04.71.21.09.17,9.17,16.88,18.8,37.81,8.89,19.34,20.07,46.34,22.85,65.16.04.29-.15.55-.44.59-.03,0-.05,0-.08,0Z"/>
            </g>
            <path class="cls-21" d="M598.41,246.84c-.19,0-.37-.1-.46-.27-12.55-23.37-32.93-40.33-33.13-40.5-.22-.18-.25-.51-.07-.73.18-.22.51-.25.73-.07.21.17,20.74,17.25,33.39,40.81.14.25.04.57-.21.71-.08.04-.16.06-.25.06Z"/>
            <path class="cls-21" d="M598.98,248.52c-.15,0-.29-.06-.4-.18-9.15-10.77-18.53-17.47-24.78-21.19-6.78-4.03-11.45-5.54-11.49-5.55-.27-.09-.43-.38-.34-.66.09-.27.38-.43.66-.34.19.06,4.81,1.54,11.68,5.63,6.33,3.76,15.82,10.54,25.07,21.43.19.22.16.55-.06.74-.1.08-.22.12-.34.12Z"/>
            <path class="cls-21" d="M596.44,242.39c-.22,0-.42-.14-.49-.35-7.03-20.65-4.45-45.74-4.42-45.99.03-.29.29-.49.57-.46.29.03.49.29.46.57-.03.25-2.59,25.12,4.37,45.54.09.27-.05.57-.33.66-.06.02-.11.03-.17.03Z"/>
            <path class="cls-21" d="M598.21,246.48c-.25,0-.47-.18-.51-.44-2.15-13.07-.5-23.73,1.27-30.37,1.92-7.21,4.32-11.27,4.42-11.44.15-.25.47-.33.72-.18.25.15.33.47.18.72-.02.04-2.44,4.14-4.32,11.22-1.73,6.53-3.35,17.03-1.24,29.89.05.28-.15.55-.43.6-.03,0-.06,0-.09,0Z"/>
          </g>
          <g>
            <g>
              <path class="cls-7" d="M629.93,254.05s29.14-3.99,38.37-23.6c9.23-19.62-19.27-36.43-35.39-26.56-17.26,10.56-2.97,50.16-2.97,50.16Z"/>
              <path class="cls-21" d="M618.88,299.97h0c-.29,0-.52-.24-.52-.53.11-9.63,2.21-20.6,6.24-32.6,3.22-9.59,7.66-19.86,13.22-30.52,9.45-18.15,18.97-31.34,19.07-31.47.17-.23.5-.29.73-.12.23.17.29.5.12.73-.09.13-9.57,13.27-18.99,31.35-8.68,16.67-19.08,41.06-19.33,62.64,0,.29-.24.52-.52.52Z"/>
            </g>
            <path class="cls-21" d="M631.16,252.17c-.09,0-.19-.02-.27-.08-.25-.15-.32-.47-.17-.72,14.02-22.77,35.53-38.61,35.75-38.77.23-.17.56-.12.73.11.17.23.12.56-.11.73-.21.16-21.56,15.88-35.47,38.47-.1.16-.27.25-.44.25Z"/>
            <path class="cls-21" d="M630.49,253.81c-.13,0-.26-.05-.36-.14-.21-.2-.22-.53-.02-.74,9.89-10.33,19.76-16.53,26.3-19.91,7.1-3.67,11.79-4.88,11.99-4.93.28-.07.56.1.63.38.07.28-.1.56-.38.63-.05.01-4.8,1.24-11.8,4.86-6.46,3.34-16.21,9.48-25.99,19.69-.1.11-.24.16-.38.16Z"/>
            <path class="cls-21" d="M633.39,247.84c-.07,0-.13-.01-.2-.04-.27-.11-.39-.41-.29-.68,8.16-19.98,7.07-44.95,7.06-45.2-.01-.29.21-.53.5-.55.28-.02.53.21.55.5.01.25,1.11,25.45-7.13,45.65-.08.2-.28.32-.48.32Z"/>
            <path class="cls-21" d="M631.38,251.82s-.08,0-.12-.01c-.28-.06-.46-.34-.39-.62,2.88-12.72,1.88-23.29.54-29.91-1.46-7.18-3.62-11.41-3.64-11.46-.13-.26-.03-.57.22-.7.26-.13.57-.03.7.22.09.18,2.24,4.37,3.73,11.69,1.37,6.74,2.39,17.48-.53,30.39-.05.24-.27.41-.51.41Z"/>
          </g>
          <g>
            <g>
              <path class="cls-7" d="M618.71,216.09s-24.69-15.98-24.72-37.66c-.03-21.68,32.91-24.8,43.32-9.02,11.14,16.89-18.61,46.68-18.61,46.68Z"/>
              <path class="cls-21" d="M615.26,271.6s-.08,0-.12-.01c-.28-.07-.45-.35-.39-.63,4.36-18.39,3.97-47.51,2.88-68.69-1.18-22.97-3.43-41.83-3.45-42.01-.03-.29.17-.55.46-.58.28-.03.55.17.58.46.02.19,2.27,19.08,3.46,42.08,1.1,21.25,1.48,50.47-2.9,68.98-.06.24-.27.4-.51.4Z"/>
            </g>
            <path class="cls-21" d="M618.62,213.92c-.26,0-.49-.2-.52-.46-3-26.36-15.65-49.66-15.78-49.89-.14-.25-.05-.57.21-.71.25-.14.57-.05.71.21.13.23,12.88,23.71,15.9,50.28.03.29-.17.55-.46.58-.02,0-.04,0-.06,0Z"/>
            <path class="cls-21" d="M618.53,215.68c-.22,0-.42-.14-.49-.36-4.51-13.4-10.74-23.09-15.17-28.86-4.8-6.26-8.58-9.38-8.62-9.41-.22-.18-.26-.51-.07-.73.18-.22.51-.26.73-.07.16.13,3.89,3.21,8.76,9.55,4.49,5.84,10.79,15.64,15.35,29.19.09.27-.05.57-.33.66-.06.02-.11.03-.17.03Z"/>
            <path class="cls-21" d="M618.44,209.05s-.02,0-.03,0c-.29-.01-.51-.26-.49-.55,1.11-21.78,12.81-44.13,12.92-44.36.14-.26.45-.35.71-.22.25.13.35.45.22.71-.12.22-11.71,22.37-12.8,43.92-.01.28-.24.5-.52.5Z"/>
            <path class="cls-21" d="M618.57,213.5s-.07,0-.11-.01c-.28-.06-.46-.34-.4-.62,2.84-12.94,8.34-22.3,12.46-27.88,4.47-6.06,8.21-9.01,8.37-9.13.23-.18.56-.14.73.09.18.23.14.56-.09.73-.04.03-3.81,3.01-8.2,8.96-4.05,5.49-9.46,14.71-12.25,27.45-.05.24-.27.41-.51.41Z"/>
          </g>
          <path class="cls-1" d="M648.88,268.8l-.86,2.28-.54,1.45-1.56,4.14-.55,1.45-1.6,4.26-.54,1.44-6.88,18.26h-37.58l-6.88-18.26-.54-1.44-1.6-4.26-.55-1.45-1.56-4.14-.54-1.45-.86-2.28c-.59-1.57.57-3.24,2.24-3.24h58.17c1.67,0,2.83,1.67,2.24,3.24Z"/>
          <g>
            <polygon class="cls-15" points="648.01 271.08 647.47 272.53 587.63 272.53 587.09 271.08 648.01 271.08"/>
            <polygon class="cls-15" points="645.91 276.67 645.36 278.12 589.74 278.12 589.19 276.67 645.91 276.67"/>
            <polygon class="cls-15" points="643.76 282.38 643.22 283.82 591.89 283.82 591.34 282.38 643.76 282.38"/>
          </g>
        </g>
        <polygon class="cls-21" points="607.49 314.61 605.4 321.33 576.39 414.83 570.72 414.83 589.12 323.24 590.85 314.61 607.49 314.61"/>
        <polygon class="cls-21" points="664.55 414.83 658.88 414.83 629.01 318.56 627.79 314.61 644.41 314.61 644.83 316.71 644.84 316.71 664.55 414.83"/>
        <rect class="cls-16" x="580.05" y="354.89" width="74.86" height="5.93" rx="2.41" ry="2.41"/>
      </g>
    </g>
    <g>
      <g>
        <ellipse class="cls-11" cx="195.8" cy="47.56" rx="27.12" ry="26.78"/>
        <ellipse class="cls-1" cx="195.8" cy="44.08" rx="27.12" ry="26.78"/>
        <path class="cls-8" d="M195.8,65.85c-12.16,0-22.04-9.77-22.04-21.77s9.89-21.77,22.04-21.77,22.04,9.77,22.04,21.77-9.89,21.77-22.04,21.77Z"/>
        <path class="cls-11" d="M217.85,44.08c0,.58-.02,1.15-.07,1.72-.89-11.2-10.41-20.05-21.98-20.05s-21.08,8.85-21.98,20.05c-.04-.57-.07-1.14-.07-1.72,0-12.01,9.89-21.77,22.04-21.77s22.04,9.76,22.04,21.77Z"/>
      </g>
      <path class="cls-21" d="M195.8,46.34c-.17,0-.34-.08-.44-.22l-10.81-14.38c-.18-.24-.13-.58.11-.76.24-.18.59-.13.77.11l10.55,14.03,11.99-5.2c.28-.12.6,0,.73.28.12.28,0,.6-.28.72l-12.39,5.37c-.07.03-.15.05-.22.05Z"/>
    </g>
  </g>
</svg>