<?xml version="1.0" encoding="UTF-8"?>
<svg xmlns="http://www.w3.org/2000/svg" width="2880.06" height="2800" xmlns:xlink="http://www.w3.org/1999/xlink" viewBox="0 0 2880.06 2800">
  <defs>
    <style>
      .cls-1 {
        fill: url(#linear-gradient-15);
      }

      .cls-2 {
        fill: url(#linear-gradient-28);
      }

      .cls-3 {
        fill: url(#linear-gradient-2);
      }

      .cls-4 {
        fill: url(#linear-gradient-25);
      }

      .cls-5 {
        fill: url(#linear-gradient-10);
      }

      .cls-6 {
        fill: url(#linear-gradient-12);
      }

      .cls-7 {
        fill: url(#linear-gradient-27);
      }

      .cls-8 {
        opacity: .67;
      }

      .cls-9, .cls-10, .cls-11, .cls-12 {
        fill: #fff;
      }

      .cls-13 {
        fill: url(#linear-gradient-26);
      }

      .cls-10, .cls-14 {
        opacity: .3;
      }

      .cls-10, .cls-11 {
        mix-blend-mode: soft-light;
      }

      .cls-15 {
        fill: url(#linear-gradient-4);
      }

      .cls-14 {
        fill: url(#linear-gradient-20);
      }

      .cls-14, .cls-16 {
        mix-blend-mode: multiply;
      }

      .cls-17 {
        fill: url(#linear-gradient-3);
      }

      .cls-18 {
        fill: url(#linear-gradient-5);
      }

      .cls-19 {
        fill: #26264f;
      }

      .cls-20 {
        fill: url(#linear-gradient-22);
      }

      .cls-21 {
        fill: url(#linear-gradient-24);
      }

      .cls-22 {
        isolation: isolate;
      }

      .cls-23 {
        fill: url(#linear-gradient-8);
      }

      .cls-24 {
        fill: url(#linear-gradient-14);
      }

      .cls-25 {
        fill: url(#linear-gradient-29);
      }

      .cls-26 {
        fill: url(#linear-gradient-17);
      }

      .cls-27 {
        fill: url(#linear-gradient-7);
      }

      .cls-28 {
        fill: #d8dee8;
      }

      .cls-29 {
        fill: url(#linear-gradient-9);
      }

      .cls-30 {
        fill: #ebeff2;
      }

      .cls-31 {
        fill: url(#linear-gradient-11);
      }

      .cls-16 {
        fill: url(#linear-gradient-13);
        opacity: .4;
      }

      .cls-32 {
        fill: url(#linear-gradient-19);
      }

      .cls-33 {
        fill: url(#linear-gradient-6);
      }

      .cls-34 {
        fill: url(#linear-gradient-21);
      }

      .cls-11 {
        opacity: .48;
      }

      .cls-35 {
        fill: url(#linear-gradient-16);
      }

      .cls-36 {
        fill: url(#linear-gradient);
      }

      .cls-37 {
        fill: url(#linear-gradient-23);
      }

      .cls-12 {
        opacity: .68;
      }

      .cls-38 {
        fill: url(#linear-gradient-18);
      }

      .cls-39 {
        fill: #f4f7fa;
      }
    </style>
    <linearGradient id="linear-gradient" x1="176.38" y1="1817.25" x2="1871.79" y2="1817.25" gradientUnits="userSpaceOnUse">
      <stop offset="0" stop-color="#444b8c"/>
      <stop offset="1" stop-color="#26264f"/>
    </linearGradient>
    <linearGradient id="linear-gradient-2" x1="246.02" y1="1806.11" x2="1814.45" y2="1806.11" gradientUnits="userSpaceOnUse">
      <stop offset="0" stop-color="#aa80f9"/>
      <stop offset="1" stop-color="#6165d7"/>
    </linearGradient>
    <linearGradient id="linear-gradient-3" y1="2469.14" x2="2730.44" y2="2469.14" xlink:href="#linear-gradient"/>
    <linearGradient id="linear-gradient-4" x1="1263.79" y1="1483.5" x2="1968.8" y2="789.18" gradientUnits="userSpaceOnUse">
      <stop offset="0" stop-color="#e38ddd"/>
      <stop offset="1" stop-color="#9571f6"/>
    </linearGradient>
    <linearGradient id="linear-gradient-5" x1="2000.83" y1="1284.94" x2="2209.59" y2="1284.94" gradientUnits="userSpaceOnUse">
      <stop offset="0" stop-color="#40447e"/>
      <stop offset="1" stop-color="#3c3b6b"/>
    </linearGradient>
    <linearGradient id="linear-gradient-6" x1="2209.32" y1="1444.33" x2="2380.74" y2="1444.33" gradientTransform="translate(3173.43 -1121.15) rotate(76.72)" xlink:href="#linear-gradient-5"/>
    <linearGradient id="linear-gradient-7" x1="2159.34" y1="848.12" x2="2422.32" y2="848.12" gradientUnits="userSpaceOnUse">
      <stop offset="0" stop-color="#ffc444"/>
      <stop offset="1" stop-color="#f36f56"/>
    </linearGradient>
    <linearGradient id="linear-gradient-8" x1="1182.03" y1="752.69" x2="2348.42" y2="752.69" gradientUnits="userSpaceOnUse">
      <stop offset="0" stop-color="#fcb148"/>
      <stop offset=".05" stop-color="#fdb946"/>
      <stop offset=".14" stop-color="#fec144"/>
      <stop offset=".32" stop-color="#ffc444"/>
      <stop offset=".48" stop-color="#fdb946"/>
      <stop offset=".78" stop-color="#f99c4c"/>
      <stop offset=".87" stop-color="#f8924f"/>
      <stop offset="1" stop-color="#f8924f"/>
    </linearGradient>
    <linearGradient id="linear-gradient-9" x1="1386.87" y1="1378.84" x2="2143.59" y2="1378.84" xlink:href="#linear-gradient-8"/>
    <linearGradient id="linear-gradient-10" x1="1527.13" y1="852.37" x2="2216.17" y2="852.37" xlink:href="#linear-gradient"/>
    <linearGradient id="linear-gradient-11" x1="1116.66" y1="846.84" x2="1379.63" y2="846.84" xlink:href="#linear-gradient-7"/>
    <linearGradient id="linear-gradient-12" x1="1086.64" y1="846.84" x2="1201.63" y2="846.84" xlink:href="#linear-gradient-7"/>
    <linearGradient id="linear-gradient-13" x1="1386.87" y1="1378.84" x2="1890.88" y2="1378.84" xlink:href="#linear-gradient-8"/>
    <linearGradient id="linear-gradient-14" x1="1655.72" y1="2036.98" x2="1728.63" y2="1472.86" gradientUnits="userSpaceOnUse">
      <stop offset="0" stop-color="#fcb148"/>
      <stop offset=".05" stop-color="#fdb946"/>
      <stop offset=".14" stop-color="#fec144"/>
      <stop offset=".32" stop-color="#ffc444"/>
      <stop offset=".4" stop-color="#fec045"/>
      <stop offset=".71" stop-color="#faa24b"/>
      <stop offset=".87" stop-color="#f8924f"/>
      <stop offset="1" stop-color="#f8924f"/>
    </linearGradient>
    <linearGradient id="linear-gradient-15" x1="1333.09" x2="1541.85" xlink:href="#linear-gradient-5"/>
    <linearGradient id="linear-gradient-16" x1="1541.58" y1="1444.33" x2="1712.99" y2="1444.33" gradientTransform="translate(1497.92 -727.63) rotate(45)" xlink:href="#linear-gradient-5"/>
    <linearGradient id="linear-gradient-17" x1="1839" y1="1448.2" x2="1969.42" y2="1448.2" xlink:href="#linear-gradient-5"/>
    <linearGradient id="linear-gradient-18" x1="1676.91" y1="1521.99" x2="2167.37" y2="1521.99" xlink:href="#linear-gradient-2"/>
    <linearGradient id="linear-gradient-19" x1="1964.58" y1="1408.51" x2="2656.94" y2="1408.51" xlink:href="#linear-gradient-2"/>
    <linearGradient id="linear-gradient-20" x1="1964.58" y1="1408.51" x2="2499.95" y2="1408.51" xlink:href="#linear-gradient-2"/>
    <linearGradient id="linear-gradient-21" x1="2205.5" y1="1683.62" x2="1706.45" y2="2499.46" gradientUnits="userSpaceOnUse">
      <stop offset="0" stop-color="#ff9085"/>
      <stop offset="1" stop-color="#fb6fbb"/>
    </linearGradient>
    <linearGradient id="linear-gradient-22" x1="1789.24" y1="2147.37" x2="1673.86" y2="2507.41" xlink:href="#linear-gradient-21"/>
    <linearGradient id="linear-gradient-23" x1="1882.59" y1="2262.28" x2="1818.21" y2="2463.18" xlink:href="#linear-gradient-21"/>
    <linearGradient id="linear-gradient-24" x1="1985.47" y1="2313.86" x2="1945.26" y2="2439.33" xlink:href="#linear-gradient-21"/>
    <linearGradient id="linear-gradient-25" x1="2154.06" y1="1986.28" x2="1977.62" y2="2536.87" xlink:href="#linear-gradient-21"/>
    <linearGradient id="linear-gradient-26" x1="2255.39" y1="2027.59" x2="2098.72" y2="2516.53" xlink:href="#linear-gradient-21"/>
    <linearGradient id="linear-gradient-27" x1="2376.63" y1="1947.86" x2="2188.48" y2="2535.01" xlink:href="#linear-gradient-21"/>
    <linearGradient id="linear-gradient-28" x1="2461.9" y1="2061.41" x2="2323.99" y2="2491.77" xlink:href="#linear-gradient-21"/>
    <linearGradient id="linear-gradient-29" x1="2543.65" y1="2186" x2="2460.62" y2="2445.11" xlink:href="#linear-gradient-21"/>
  </defs>
  <g class="cls-22">
    <g id="Illustration">
      <g>
        <path class="cls-39" d="M1484.84.64C747.56-21.13,108.92,513.84,12.43,1215.79c-105.49,767.49,475.14,1458.04,1189.59,1568.64,888.65,137.57,1750.59-658.29,1673.2-1521.68C2816.91,612.25,2234.31,22.77,1484.84.64Z"/>
        <g>
          <g>
            <path class="cls-19" d="M2730.44,2450.56l-2554.06-21.77v64.42c0,17.48,11.14,32.35,26.23,35l722.21,126.85c8.57,1.51,17.26,1.9,25.91,1.19l1751.95-144.62c15.64-1.29,27.76-16.2,27.76-34.17v-26.89Z"/>
            <g>
              <path class="cls-19" d="M1803.58,2347.34l-1600.79,117.84c-28.65,2.11-51.94-20.3-51.94-50.05v-1192.06c0-29.75,23.29-53.87,51.94-53.87h1600.79c23.6,0,42.68,21.8,42.68,48.7v1077.6c0,26.9-19.08,50.11-42.68,51.84Z"/>
              <path class="cls-36" d="M1829.11,2347.34l-1600.79,117.84c-28.65,2.11-51.94-20.3-51.94-50.05v-1192.06c0-29.75,23.29-53.87,51.94-53.87h1600.79c23.6,0,42.68,21.8,42.68,48.7v1077.6c0,26.9-19.08,50.11-42.68,51.84Z"/>
              <path class="cls-3" d="M1779.24,2271.36l-1490.97,102.36c-23.31,1.6-42.25-16.79-42.25-41.08v-1043.65c0-24.29,18.94-44.06,42.25-44.16l1490.97-6.43c19.47-.08,35.21,17.78,35.21,39.91v950.58c0,22.12-15.75,41.14-35.21,42.48Z"/>
              <path class="cls-9" d="M1085.25,1201.79c0,11.08-8.24,20.08-18.41,20.11-10.19.03-18.45-8.94-18.45-20.04s8.27-20.11,18.45-20.11c10.17,0,18.41,8.97,18.41,20.04Z"/>
              <path class="cls-11" d="M228.31,2465.18l1592.69-117.24,8.1-.6c10.83-.8,20.67-6.15,28.19-14.27-114.61-6.27-185.8-46.94-231.72-88.97-92.22-84.4-76.22-167.63-175.67-223.12-124.04-69.21-221.57,18.49-315.69-68.04-57.06-52.46-29.05-91.58-99.26-169.98-77.77-86.83-128.4-57.64-206.56-135.79-98.82-98.81-49.4-175.69-134.52-246.64-103.27-86.07-214.64-6.41-312.94-88.95-42.4-35.6-65.67-87.36-77.81-142.4h-74.79c-28.65,0-51.94,24.12-51.94,53.87v1192.06c0,29.75,23.29,52.16,51.93,50.05Z"/>
            </g>
            <path class="cls-17" d="M1892.91,2340.8l-1716.53,124.04,748.44,131.45c8.57,1.51,17.26,1.91,25.91,1.19l1779.71-146.92-810.23-108.92c-9.06-1.22-18.2-1.5-27.3-.84Z"/>
            <polygon class="cls-19" points="426.85 2465.9 1855.91 2361.1 2298.19 2420.08 881.44 2532.11 426.85 2465.9"/>
          </g>
          <g>
            <g class="cls-8">
              <path class="cls-9" d="M800.95,1693.34c30.46-59.19,87.34-102.25,153.81-111.94l4.63-286.87c-189.95,9.47-354.92,132.53-429.24,305.61l270.79,93.21Z"/>
              <path class="cls-9" d="M1171.39,1811.04c-15.99,95.4-96.07,171.34-193.4,176.1-28.86,1.41-56.36-3.58-81.26-13.76l-149.16,254.04c69.08,33.91,147.64,50.5,230.42,45.14,244.26-15.82,440.08-217.8,462.04-460.74l-268.64-.79Z"/>
              <path class="cls-9" d="M701.3,2201.21l149.9-254.45c-45.05-35.66-73.91-91.73-73.91-155.94,0-15.51,1.7-30.69,4.9-45.33l-271.35-92.53c-14.39,47.21-22.15,97.18-22.15,148.72,0,170.65,84.67,316.77,212.61,399.54Z"/>
            </g>
            <path class="cls-15" d="M1007.67,1580.88c88.83,11.38,157.62,84.01,165.82,176.34l442.73,2.64c0-.2,0-.4,0-.6,0-349.6-260.87-634.99-600.89-654.5l-7.67,476.12Z"/>
          </g>
        </g>
        <g>
          <path class="cls-30" d="M153.14,310.96v720.51c0,23.92,19.77,43.31,44.15,43.31h1482.73c23.47,0,42.49-19.01,42.49-42.47V325.89l-1569.37-14.93Z"/>
          <path class="cls-28" d="M1680.02,235.76l-1482.73-15.8c-24.38-.26-44.15,18.92-44.15,42.84v73.83l1569.37,14.43v-72.39c0-23.45-19.02-42.67-42.49-42.92Z"/>
          <g>
            <g>
              <path class="cls-28" d="M515.23,696.04l81.72-280.24c123.65,40.26,213.04,154.89,213.71,289.6l-295.43-9.37Z"/>
              <g>
                <path class="cls-9" d="M734.28,722.76c-4.58,64.08-35.84,120.81-82.92,159.53l-128.24-166.44,211.16,6.91Z"/>
                <path class="cls-9" d="M496.96,686.35c-49.47-46.89-109.15-103.56-156.58-148.82,42.08-39.1,98.95-62.85,161.47-62.38,18.96.14,37.38,2.51,55.01,6.83l-59.9,204.37Z"/>
                <path class="cls-9" d="M486.64,703.88l-179.43,128.92c-25.1-36.8-39.75-81.05-39.75-128.61,0-58.65,22.28-112.06,58.95-152.53,13.14,12.53,27.74,26.44,43.75,41.66,48.49,46.12,97.2,92.3,116.48,110.56Z"/>
                <path class="cls-9" d="M491.84,724.63l-3.47,210.38c-68.31-3.94-128.87-36.75-169.24-86.24l172.71-124.14Z"/>
                <path class="cls-9" d="M511.73,733.61l123.79,160.61c-36.15,24.88-79.85,39.91-127.11,41.11l3.33-201.72Z"/>
              </g>
            </g>
            <polygon class="cls-9" points="1612.31 554.55 852.49 549.53 852.49 478.27 1612.31 483.97 1612.31 554.55"/>
            <polygon class="cls-9" points="1612.31 682.27 852.49 678.49 852.49 607.22 1612.31 611.69 1612.31 682.27"/>
            <polygon class="cls-9" points="1612.31 809.99 852.49 807.44 852.49 736.18 1612.31 739.41 1612.31 809.99"/>
            <polygon class="cls-9" points="1612.31 937.71 852.49 936.39 852.49 865.13 1612.31 867.13 1612.31 937.71"/>
          </g>
          <path class="cls-9" d="M254.52,278.27c0,10.62-8.77,19.15-19.6,19.04-10.83-.1-19.6-8.8-19.6-19.43s8.78-19.15,19.6-19.04c10.82.11,19.6,8.81,19.6,19.43Z"/>
        </g>
        <g>
          <g>
            <rect class="cls-9" x="2171.41" y="1218.27" width="100.96" height="330.03" transform="translate(-151.94 2485.65) rotate(-56.81)"/>
            <circle class="cls-18" cx="2105.21" cy="1284.94" r="104.38"/>
            <circle class="cls-33" cx="2295.03" cy="1444.33" r="85.71" transform="translate(362.05 3346.13) rotate(-76.72)"/>
          </g>
          <g>
            <ellipse class="cls-27" cx="2290.83" cy="848.12" rx="131.49" ry="184.78"/>
            <path class="cls-23" d="M1888.96,400.38h-247.48c-253.75,0-459.46,205.71-459.46,459.46h0c0,135.41,109.77,245.17,245.17,245.17h676.05c135.4,0,245.17-109.77,245.17-245.17h0c0-253.75-205.71-459.46-459.46-459.46Z"/>
            <path class="cls-29" d="M1845.5,1607.41h-160.55c-164.63,0-298.08-133.46-298.08-298.08h0c0-87.85,71.21-159.06,159.06-159.06h438.6c87.85,0,159.06,71.21,159.06,159.06h0c0,164.63-133.46,298.08-298.08,298.08Z"/>
            <g>
              <path class="cls-5" d="M2113.59,1005.91h-470.42c-63.75,0-116.05-48.87-116.05-109.14v-92.43c0-60.28,52.3-107.47,116.05-105.44l470.42,15.01c56.93,1.82,102.57,48.68,102.57,104.69v85.89c0,56.01-45.64,101.42-102.57,101.42Z"/>
              <g>
                <path class="cls-9" d="M1793.9,845.64c0,40.26-34.27,72.46-76.88,71.92-43-.54-78.14-34.15-78.14-75.07s35.14-73.1,78.14-71.89c42.62,1.19,76.88,34.79,76.88,75.04Z"/>
                <path class="cls-9" d="M2111.8,852.1c0,38.9-32,70.04-71.79,69.54-40.13-.51-72.93-32.96-72.93-72.48s32.79-70.64,72.93-69.51c39.79,1.12,71.79,33.55,71.79,72.45Z"/>
              </g>
            </g>
            <path class="cls-10" d="M1935.94,1040.56c-69.96-82.2-38.87-147.94-130.34-259.34-125.85-153.27-272.66-135.93-306.29-239.89-9.32-28.81-10.39-68.34,14.61-123-191.68,55.29-331.89,232.01-331.89,441.5h0c0,135.41,109.77,245.17,245.17,245.17h589.17c-35.29-19.24-61.08-41.71-80.43-64.45Z"/>
            <ellipse class="cls-31" cx="1248.15" cy="846.84" rx="131.49" ry="184.78"/>
            <ellipse class="cls-6" cx="1144.13" cy="846.84" rx="57.5" ry="80.8"/>
            <path class="cls-16" d="M1885.04,1443.31c-22.03-103.45-265.68-100.95-272.31-168.57-5.11-52.13,134.78-103.73,152.36-110.22,15.03-5.55,29.96-10.24,44.73-14.26h-263.9c-87.85,0-159.06,71.21-159.06,159.06h0c0,164.63,133.46,298.09,298.08,298.09h160.56c15.43,0,30.58-1.17,45.37-3.43-13.97-17.32-23.08-36.26-25.28-56.93-4.88-45.83,27.99-63.65,19.45-103.74Z"/>
            <ellipse class="cls-24" cx="1769.18" cy="1159.13" rx="253.57" ry="30.7"/>
          </g>
          <g>
            <rect class="cls-9" x="1503.66" y="1218.27" width="100.96" height="330.03" transform="translate(-454.19 1926.82) rotate(-56.81)"/>
            <circle class="cls-1" cx="1437.47" cy="1284.94" r="104.38"/>
            <polygon class="cls-9" points="1675.9 1415.81 1917.67 1415.81 1908.07 1515.85 1671.1 1507.92 1675.9 1415.81"/>
            <circle class="cls-35" cx="1627.29" cy="1444.33" r="85.71" transform="translate(-544.67 1573.7) rotate(-45)"/>
            <path class="cls-26" d="M1938.75,1413.04c-14.65-8.2-35.34-13.98-64.45-12.91-13.83.5-25.25,11.01-26.87,24.75l-8.43,71.53h124.72l4.07-17.09c6.21-26.09-5.64-53.17-29.04-66.27Z"/>
          </g>
          <g>
            <path class="cls-38" d="M2158.98,1498.1l-449.92-7.77c-6.19-.11-12.04,2.83-15.66,7.86l-13.72,19.1c-6.83,9.51-.25,22.79,11.45,23.11l476.25,13.25-8.39-55.55Z"/>
            <path class="cls-32" d="M2641.93,1279.14l-463.93-21.6c-13.73-.64-26.77,6-34.34,17.47l-179.08,271.7,490.63,12.8c13.47.35,26.2-6.11,33.87-17.19l165.04-238.54c7.03-10.16.14-24.07-12.2-24.65Z"/>
            <path class="cls-14" d="M2143.66,1275.01c7.56-11.48,20.61-18.12,34.34-17.48l10.17.47c.53,15.06,4.21,29.04,12.64,40.69,26.29,36.37,75.16,18.23,108.13,57.06,36.22,42.66-2.83,88.01,29.45,127.62,33.98,41.68,95.23,13.61,161.56,43.23l-10.87,15.71c-7.66,11.08-20.4,17.54-33.87,17.19l-490.63-12.8,179.08-271.7Z"/>
          </g>
        </g>
        <g>
          <g>
            <path class="cls-12" d="M1554.14,1855.48v601.05c0,19.95,14.91,35.35,33.27,34.38l1056.67-55.48c15.83-.83,28.64-16.48,28.64-34.95v-556.44l-1118.58,11.44Z"/>
            <path class="cls-34" d="M2644.09,1773.55l-1056.67,5.46c-18.36.1-33.27,16.35-33.27,36.3v61.59l1118.58-13.03v-57.02c0-18.47-12.81-33.38-28.64-33.3Z"/>
            <path class="cls-9" d="M1630.38,1826.74c0,8.83-6.57,16.04-14.69,16.12-8.13.08-14.72-7.03-14.72-15.87s6.59-16.06,14.72-16.12c8.12-.06,14.69,7.05,14.69,15.87Z"/>
          </g>
          <g>
            <polygon class="cls-9" points="1782.28 2402.9 1699.14 2406.83 1699.14 1960.06 1782.28 1958.62 1782.28 2402.9"/>
            <polygon class="cls-20" points="1782.28 2402.9 1699.14 2406.83 1699.14 2194.71 1782.28 2191.96 1782.28 2402.9"/>
            <polygon class="cls-9" points="1896.44 2397.5 1814.57 2401.37 1814.57 1958.06 1896.44 1956.64 1896.44 2397.5"/>
            <polygon class="cls-37" points="1896.44 2397.5 1814.57 2401.37 1814.57 2296.14 1896.44 2292.85 1896.44 2397.5"/>
            <polygon class="cls-9" points="2008.85 2392.19 1928.23 2396 1928.23 1956.09 2008.85 1954.69 2008.85 2392.19"/>
            <polygon class="cls-21" points="2008.85 2392.19 1928.23 2396 1928.23 2341.18 2008.85 2337.67 2008.85 2392.19"/>
            <polygon class="cls-9" points="2119.56 2386.96 2040.16 2390.71 2040.16 1954.15 2119.56 1952.77 2119.56 2386.96"/>
            <polygon class="cls-4" points="2119.56 2386.96 2040.16 2390.71 2040.16 2048.71 2119.56 2046.82 2119.56 2386.96"/>
            <polygon class="cls-9" points="2228.6 2381.8 2150.39 2385.5 2150.39 1952.24 2228.6 1950.88 2228.6 2381.8"/>
            <polygon class="cls-13" points="2228.6 2381.8 2150.39 2385.5 2150.39 2084.66 2228.6 2082.59 2228.6 2381.8"/>
            <polygon class="cls-9" points="2336.02 2376.73 2258.97 2380.37 2258.97 1950.35 2336.02 1949.02 2336.02 2376.73"/>
            <polygon class="cls-7" points="2336.02 2376.73 2258.97 2380.37 2258.97 2012.88 2336.02 2011.21 2336.02 2376.73"/>
            <polygon class="cls-9" points="2441.84 2371.72 2365.94 2375.31 2365.94 1948.5 2441.84 1947.18 2441.84 2371.72"/>
            <polygon class="cls-2" points="2441.84 2371.72 2365.94 2375.31 2365.94 2113.15 2441.84 2110.95 2441.84 2371.72"/>
            <polygon class="cls-9" points="2546.11 2366.8 2471.33 2370.33 2471.33 1946.67 2546.11 1945.38 2546.11 2366.8"/>
            <polygon class="cls-25" points="2546.11 2366.8 2471.33 2370.33 2471.33 2223.24 2546.11 2220.49 2546.11 2366.8"/>
          </g>
        </g>
      </g>
    </g>
  </g>
</svg>