<?xml version="1.0" encoding="UTF-8"?>
<svg id="_Слой_1" data-name="Слой_1" xmlns="http://www.w3.org/2000/svg" width="542.35" height="409.97" xmlns:xlink="http://www.w3.org/1999/xlink" viewBox="0 0 542.35 409.97">
  <defs>
    <style>
      .cls-1 {
        fill: url(#linear-gradient-13);
      }

      .cls-2 {
        fill: #1a598c;
      }

      .cls-3 {
        opacity: .76;
      }

      .cls-4 {
        fill: #78c2ff;
      }

      .cls-5 {
        fill: url(#linear-gradient-2);
      }

      .cls-6 {
        fill: url(#linear-gradient-10);
      }

      .cls-7 {
        fill: url(#linear-gradient-12);
      }

      .cls-8 {
        fill: #2b3b57;
      }

      .cls-9 {
        fill: #2d314f;
      }

      .cls-10 {
        fill: #4d78eb;
      }

      .cls-11 {
        fill: #464240;
      }

      .cls-12 {
        fill: #d4d8e8;
      }

      .cls-13 {
        fill: #fff;
      }

      .cls-14 {
        fill: #754836;
      }

      .cls-15 {
        fill: #292c47;
      }

      .cls-16 {
        fill: #4aafff;
      }

      .cls-17 {
        fill: #6069a8;
      }

      .cls-18 {
        fill: url(#linear-gradient-4);
      }

      .cls-19 {
        fill: #5e5853;
      }

      .cls-20 {
        fill: #414773;
      }

      .cls-21 {
        fill: #e0e0e0;
      }

      .cls-22 {
        fill: url(#linear-gradient-3);
      }

      .cls-23 {
        fill: url(#linear-gradient-5);
      }

      .cls-24 {
        fill: #202338;
      }

      .cls-25 {
        fill: #6e6760;
      }

      .cls-26 {
        fill: #807066;
      }

      .cls-27 {
        fill: url(#linear-gradient-8);
      }

      .cls-28 {
        fill: #424773;
      }

      .cls-29 {
        fill: #ffc655;
      }

      .cls-30 {
        fill: #6aafe8;
      }

      .cls-31 {
        fill: #e55353;
      }

      .cls-32 {
        fill: #2273b5;
      }

      .cls-33 {
        fill: #325bb3;
      }

      .cls-34 {
        fill: #eddad3;
      }

      .cls-35 {
        fill: url(#linear-gradient-7);
      }

      .cls-36 {
        fill: url(#linear-gradient-9);
      }

      .cls-37 {
        fill: url(#linear-gradient-11);
      }

      .cls-38 {
        fill: url(#linear-gradient-6);
      }

      .cls-39 {
        fill: #ffcb55;
      }

      .cls-40 {
        fill: #a1d4ff;
      }

      .cls-41 {
        fill: #91887f;
      }

      .cls-42 {
        fill: #ff8761;
      }

      .cls-43 {
        fill: #eb4747;
      }

      .cls-44 {
        fill: #a77860;
      }

      .cls-45 {
        fill: #1487e3;
      }

      .cls-46 {
        fill: url(#linear-gradient);
      }

      .cls-47 {
        fill: #353a3d;
      }

      .cls-48 {
        fill: #eea886;
      }

      .cls-49 {
        fill: #e2d2ca;
      }

      .cls-50 {
        fill: #3788cc;
      }

      .cls-51 {
        fill: #ff7e55;
      }
    </style>
    <linearGradient id="linear-gradient" x1="114.97" y1="219.57" x2="415.4" y2="219.57" gradientTransform="translate(516.69 439.13) rotate(-180)" gradientUnits="userSpaceOnUse">
      <stop offset="0" stop-color="#40d5e6"/>
      <stop offset="1" stop-color="#57f"/>
    </linearGradient>
    <linearGradient id="linear-gradient-2" x1="132.69" y1="206.27" x2="383.52" y2="206.27" gradientTransform="translate(516.21 412.53) rotate(-180)" gradientUnits="userSpaceOnUse">
      <stop offset="0" stop-color="#404b61"/>
      <stop offset=".49" stop-color="#3b475f"/>
      <stop offset="1" stop-color="#2f3e5c"/>
    </linearGradient>
    <linearGradient id="linear-gradient-3" x1="463.69" y1="298.88" x2="528.23" y2="298.88" gradientUnits="userSpaceOnUse">
      <stop offset="0" stop-color="#3076a1"/>
      <stop offset="1" stop-color="#639c38"/>
    </linearGradient>
    <linearGradient id="linear-gradient-4" x1="458.09" y1="289.47" x2="542.35" y2="289.47" xlink:href="#linear-gradient-3"/>
    <linearGradient id="linear-gradient-5" x1="438.73" y1="276.72" x2="493.08" y2="276.72" xlink:href="#linear-gradient-3"/>
    <linearGradient id="linear-gradient-6" x1="453.83" y1="288.48" x2="470.31" y2="288.48" xlink:href="#linear-gradient-3"/>
    <linearGradient id="linear-gradient-7" x1="416.54" y1="291.74" x2="469.74" y2="291.74" xlink:href="#linear-gradient-3"/>
    <linearGradient id="linear-gradient-8" x1="452.16" y1="412.28" x2="496.92" y2="238.21" xlink:href="#linear-gradient-3"/>
    <linearGradient id="linear-gradient-9" x1="468.43" y1="322.05" x2="488.1" y2="322.05" xlink:href="#linear-gradient-3"/>
    <linearGradient id="linear-gradient-10" x1="451.54" y1="357.51" x2="487.9" y2="357.51" gradientUnits="userSpaceOnUse">
      <stop offset="0" stop-color="#ff9340"/>
      <stop offset="1" stop-color="#ffce45"/>
    </linearGradient>
    <linearGradient id="linear-gradient-11" x1="451.54" y1="357.51" x2="487.9" y2="357.51" gradientUnits="userSpaceOnUse">
      <stop offset="0" stop-color="#c97332"/>
      <stop offset="1" stop-color="#ffce45"/>
    </linearGradient>
    <linearGradient id="linear-gradient-12" x1="258.39" y1="280.11" x2="258.39" y2="446.69" gradientTransform="matrix(1,0,0,1,0,0)" xlink:href="#linear-gradient"/>
    <linearGradient id="linear-gradient-13" x1="-59.07" y1="405.67" x2="270.42" y2="405.67" gradientTransform="matrix(1,0,0,1,0,0)" xlink:href="#linear-gradient"/>
  </defs>
  <path class="cls-46" d="M123.13,119.41h270.43v190.84c0,5.23-4.24,9.47-9.47,9.47h-251.48c-5.23,0-9.47-4.24-9.47-9.47V119.41h0Z" transform="translate(516.69 439.13) rotate(180)"/>
  <rect class="cls-5" x="132.69" y="129.22" width="250.83" height="154.09" transform="translate(516.21 412.53) rotate(180)"/>
  <path class="cls-30" d="M106.34,129.93h-63.8l.11-.57c1.02-5.26,5.66-9.07,11.03-9.07.77,0,1.55.08,2.3.24,3.32-6.32,9.78-10.23,16.94-10.23,6.1,0,11.86,2.93,15.46,7.85,1.31-.4,2.68-.6,4.07-.6,6.94,0,12.75,4.97,13.81,11.82l.08.55ZM43.71,128.98h61.5c-1.2-6-6.59-10.47-12.77-10.47-1.4,0-2.78.22-4.1.66l-.34.11-.2-.29c-3.41-4.84-8.98-7.73-14.89-7.73-6.92,0-13.15,3.84-16.26,10.03l-.17.34-.37-.09c-.79-.2-1.62-.3-2.44-.3-4.71,0-8.81,3.22-9.96,7.73Z"/>
  <path class="cls-30" d="M340.66,51.4l-.22-.11c-22.64-11.56-19.6-33.95-19.57-34.17l.06-.41h.41c14.4,0,18.92-4.64,18.96-4.69l.35-.37.35.37s4.57,4.68,18.96,4.68h.41l.06.41c.03.22,3.07,22.61-19.57,34.17l-.22.11ZM321.77,17.66c-.29,3.03-1.24,22.25,18.88,32.67,20.13-10.42,19.17-29.63,18.89-32.67-12.5-.08-17.59-3.56-18.89-4.66-1.3,1.1-6.39,4.59-18.88,4.66Z"/>
  <g>
    <path class="cls-22" d="M464.55,348.93c-3.41-15.57,3.96-19.46,11.08-23.22,5.82-3.07,11.32-5.97,11.02-15.15-.39-12.17,7.9-16.59,15.21-20.5,5.44-2.91,10.58-5.65,11.35-11.19,1.84-13.32,14.13-29.88,14.26-30.04l.76.57c-.12.16-12.26,16.53-14.08,29.61-.83,6.02-6.18,8.87-11.84,11.9-7.41,3.96-15.08,8.05-14.71,19.63.31,9.77-5.71,12.95-11.53,16.02-7.12,3.76-13.84,7.31-10.59,22.17l-.93.2Z"/>
    <path class="cls-18" d="M468.29,344.96c-.16,0-.33,0-.49-.02-3.08-.23-6.1-2.57-9.5-7.36l-.21-.3.24-.28c.05-.07,5.51-6.71,3.51-19.19-.47-2.91-1.09-5.14-1.59-6.93-.73-2.61-1.22-4.34-.41-5.71,1.03-1.75,3.81-2.66,11.64-4.53,8.34-1.99,11.12-11.38,13.58-19.67,2.32-7.81,4.51-15.17,11-14.94,5.96.23,15.02-9.11,23-17.35,7.41-7.64,14.41-14.84,18.88-14.7,1.07.04,1.98.49,2.69,1.34,3.99,4.75.27,11.95-3.33,18.92-3.07,5.94-5.97,11.56-4.1,15.26,2.35,4.65,2.67,8.86.95,12.17-2.04,3.92-6.79,6.45-14.13,7.51-6.71.97-7.44,8.29-8.2,16.04-.9,9.04-1.91,19.29-13.17,20.27-8.36.72-14,6.59-18.97,11.77-3.96,4.12-7.39,7.7-11.37,7.7ZM459.28,337.32c3.1,4.29,5.91,6.48,8.59,6.68,3.74.28,7.15-3.28,11.1-7.39,5.09-5.3,10.86-11.31,19.58-12.06,10.47-.91,11.4-10.31,12.31-19.41.81-8.13,1.57-15.81,9.02-16.89,7.02-1.02,11.54-3.37,13.43-7,1.58-3.03,1.25-6.94-.96-11.3-2.08-4.14.92-9.96,4.11-16.13,3.46-6.69,7.03-13.61,3.45-17.87-.54-.64-1.19-.97-2-1-4.04-.13-10.9,6.92-18.16,14.41-8.42,8.68-17.11,17.64-23.48,17.64-.08,0-.16,0-.24,0-5.75-.21-7.75,6.49-10.05,14.26-2.53,8.54-5.4,18.21-14.28,20.32-7.08,1.69-10.18,2.63-11.04,4.08-.61,1.03-.19,2.51.5,4.97.51,1.81,1.14,4.07,1.62,7.03,1.86,11.6-2.41,18.21-3.49,19.66Z"/>
    <path class="cls-23" d="M468.64,341.7c-.11,0-.22,0-.33-.02-5.05-.46-8.94-11.53-12.69-22.23-1.78-5.08-3.46-9.87-5.1-12.95-1.27-2.39-2.89-4.88-4.45-7.28-4.16-6.41-8.46-13.04-7.06-18.86.74-3.06,2.93-5.61,6.71-7.79,8.28-4.77,7-7.46,4.21-13.37-2.05-4.33-4.85-10.26-4.96-19.6-.05-4.01-.14-7.48-.22-10.54-.26-9.84-.4-14.78,1.71-16.57.87-.74,2.09-.93,3.83-.6,2.98.57,4.27,2.97,5.63,5.52,1.74,3.25,3.71,6.93,9.67,8.18,5.59,1.17,10.96,2.76,12.44,6.48,1.04,2.61.06,6.04-3.02,10.5-.75,1.08-1,2-.78,2.81.49,1.79,3.27,3.09,6.49,4.6,4.59,2.14,10.29,4.8,11.91,10.32,1.3,4.45-.21,9.99-4.61,16.95-10.42,16.47-10,27.64-9.63,37.49.27,7.3.53,14.2-3.87,21.9-1.94,3.4-3.87,5.06-5.88,5.06ZM448.79,212.7c-.74,0-1.3.17-1.72.53-1.75,1.49-1.62,6.58-1.37,15.81.08,3.06.17,6.54.22,10.56.11,9.13,2.86,14.95,4.87,19.21,2.77,5.86,4.44,9.39-4.6,14.6-3.54,2.04-5.59,4.39-6.26,7.18-1.3,5.42,2.89,11.87,6.94,18.12,1.57,2.42,3.2,4.93,4.49,7.35,1.67,3.14,3.37,7.97,5.16,13.08,3.49,9.93,7.44,21.19,11.88,21.59,1.7.15,3.48-1.38,5.3-4.57,4.27-7.47,4.03-13.92,3.75-21.4-.37-9.99-.8-21.32,9.78-38.03,4.25-6.72,5.72-12.01,4.5-16.17-1.5-5.1-6.76-7.56-11.4-9.72-3.44-1.6-6.41-2.99-7.01-5.21-.3-1.1,0-2.27.92-3.6,2.88-4.17,3.83-7.31,2.92-9.6-1.32-3.3-6.68-4.83-11.75-5.9-6.39-1.34-8.56-5.4-10.31-8.66-1.31-2.44-2.44-4.55-4.97-5.03-.49-.09-.93-.14-1.31-.14Z"/>
    <path class="cls-38" d="M468.74,347.6l-.91-.29c5.09-16.09-4.12-52.21-6.86-60.99-1.35-4.32-.1-10.83,1.1-17.12,1.56-8.12,3.17-16.53-.94-19.68-7.71-5.92-7.31-19.6-7.29-20.18l.95.04c0,.14-.41,13.77,6.92,19.39,4.58,3.51,2.91,12.2,1.29,20.61-1.18,6.18-2.41,12.56-1.13,16.65,3.4,10.87,11.94,45.51,6.86,61.57Z"/>
    <path class="cls-35" d="M430.22,243.06c-2.12-5.38-10.4-4.56-9.64,3.04.76,7.61,6.09,15.73-2.03,28.66-8.12,12.94,10.4,15.47,16.99,23.59,6.59,8.12,8.88,19.28,14.46,26.38,5.58,7.1,9.38,24.1,13.95,17.75,4.57-6.34.27-14.59.78-26,.51-11.41,10.67-18.64.51-26-10.16-7.36-20.38-9.61-17.02-26.2,1.48-7.32-11.4-4.49-17.99-21.23Z"/>
    <path class="cls-13" d="M471.35,343.96c-.06-.34-5.7-33.77-18.33-42.93-12.88-9.34-15.22-17.97-19.72-38.33l.93-.2c4.44,20.1,6.75,28.62,19.34,37.76,12.95,9.39,18.48,42.16,18.71,43.55l-.94.16Z"/>
    <path class="cls-27" d="M459.96,342.76s3.75-9.28-3.08-22.47c-6.83-13.19-12.36-11.16,4.11-21.31,16.46-10.15.1-42.11,14.12-46.17,14.01-4.06,26.19-55.79,36.84-49.21,10.66,6.59-3.55,31.96,4.06,39.56,7.61,7.61,8.63,17.29-7.1,25.14-15.73,7.84,11.16,37.78-10.15,46.91-21.31,9.13-15.2,44.94-38.8,27.54Z"/>
    <path class="cls-13" d="M466.46,352.6c-.02-.12-2.32-12,4.92-27.35,7.37-15.64,10.91-32.74,9.44-45.74-.79-7.04,3.72-9.79,8.08-12.46,4.29-2.62,8.73-5.33,8.49-12.27-.22-6.27,2.43-20.96,2.54-21.58l.94.17c-.03.15-2.75,15.21-2.53,21.37.26,7.49-4.42,10.35-8.95,13.12-4.3,2.62-8.35,5.1-7.63,11.54,1.48,13.17-2.08,30.46-9.53,46.25-7.1,15.05-4.88,26.64-4.85,26.76l-.93.19Z"/>
    <path class="cls-13" d="M483.68,287.04c4.79-4.44,11.11-5.08,9.79,1.51-1.32,6.59-5.84,8.48-3.58,12.62,2.26,4.14,6.03,8.29-.38,13.37-6.41,5.09-9.98,5.65-11.87,15.26-1.88,9.61-1.51,16.17-9.8,16.58-8.29.41-5.09-11.68-2.45-17.14,0,0,3.96-6.23,1.32-14.42-2.64-8.19-7.72-12.61,3.01-15.39,10.74-2.78,10.71-9.39,13.94-12.39Z"/>
    <path class="cls-36" d="M468.46,352.52c-.03-1.18-.6-28.85,4.58-33.51,5.29-4.76,6.3-13.16,6.44-17.75.18-5.98,7.9-9.53,8.23-9.67l.39.87c-.08.03-7.51,3.45-7.67,8.83-.17,5.79-1.48,13.69-6.75,18.43-4.85,4.37-4.27,32.5-4.26,32.78l-.95.02Z"/>
    <polygon class="cls-6" points="487.9 341.22 479.31 373.8 460.12 373.8 451.54 341.22 487.9 341.22"/>
    <path class="cls-37" d="M487.9,341.22s-18.9,3.55-18.9,32.58h-8.87l-8.59-32.58h36.36Z"/>
  </g>
  <rect class="cls-45" x="124.35" y="256.09" width="25.27" height="2.86"/>
  <polygon class="cls-4" points="119.08 177.14 78.74 177.14 78.74 125.56 79.7 125.56 79.7 176.19 119.08 176.19 119.08 177.14"/>
  <polygon class="cls-4" points="289.8 143.15 288.85 143.15 288.85 89.96 340.18 89.96 340.18 45.23 341.14 45.23 341.14 90.92 289.8 90.92 289.8 143.15"/>
  <polygon class="cls-4" points="455.63 202.4 402.22 202.4 402.22 201.45 454.67 201.45 454.67 170.44 455.63 170.44 455.63 202.4"/>
  <path class="cls-51" d="M56.34,245.5s-1.14,16.05,1.99,17.97c1.96,1.2,9.79,5.26,9.56,6.02-.23.76-4.42,6.77-4.42,6.77,0,0-15.04-9.91-15.53-13.03-.47-3.05.74-23.5,2.81-24.44,1.55-.71,2.37-.12,4.32,1.33,2.74,2.03,1.27,5.38,1.27,5.38Z"/>
  <path class="cls-28" d="M54.59,362.28s-.47,3.25-.53,3.73c-.06.49-5.2-.29-5.2-.29l-.42-3.87s5.5-.04,6.15.42Z"/>
  <path class="cls-15" d="M54.12,365.6s1.63,1.96,3.21,2.81c1.58.85,4.05,1.19,4.99,2.07.67.64,2.45,3.38-4.1,3.32-6.55-.06-9.71.39-10.41-.66-.7-1.05,1.01-7.76,1.01-7.76,0,0,1.55.56,5.3.22Z"/>
  <path class="cls-28" d="M80.34,362.28s-.47,3.25-.53,3.73-5.2-.29-5.2-.29l-.42-3.87s5.5-.04,6.15.42Z"/>
  <path class="cls-15" d="M79.87,365.6s1.63,1.96,3.21,2.81c1.58.85,7.38,1.55,8.31,2.44.67.64,1.79,3.2-7.42,2.96-6.55-.17-9.71.39-10.41-.66-.7-1.05,1.02-7.76,1.02-7.76,0,0,1.46.6,5.3.22Z"/>
  <path class="cls-15" d="M56.44,278.85s-4.83,7.68-4.47,14.62c.36,6.94-.43,14.36-1.16,21.61-.81,8.09-3.01,24.91-3.13,29.24-.12,4.33.16,20.6.16,20.6l8.39-.06s2.98-32.88,4.42-36.29c1.44-3.42,7.36-28.12,7.6-30.85.24-2.73-11.8-18.87-11.8-18.87Z"/>
  <path class="cls-15" d="M81.89,279.89s1.91,18.87,2.39,23.12c.48,4.25.15,22.66.39,25.32.24,2.66-1.61,30.75-2.06,36.1l-9.22-.06s-.64-22.72-.64-33.76-2.83-23.89-6.08-31.18c-3.25-7.29-10.68-7.46-12.67-20.97,0,0,25.18-2.85,27.88,1.43Z"/>
  <path class="cls-48" d="M61.55,214.09s5.76-3.85,9.8.27c4.04,4.12,6.03,13.81,3.13,15.75-2.91,1.93-7.83,2.44-10.17-.18-2.34-2.62-4.84-6.63-5.45-9.55-.62-2.92,1.23-5.06,2.69-6.29Z"/>
  <path class="cls-48" d="M72.52,230.76s-.08,4.05.37,4.91c.45.86-8.41.89-8.41.89,0,0-.72-4.69-2.08-8.66-1.36-3.97,10.12,2.86,10.12,2.86Z"/>
  <path class="cls-14" d="M62.63,227.83s.83.84,3.16-.11c2.34-.95,4.54-4.88,5.47-5.47.93-.59.8-1.19.8-1.19l.85.78,1.09-.19s-1.66-2.66-.46-4.18c1.2-1.53-3.74-8.99-10.89-4.43,0,0-5.59,3.06-4.57,6.41,1.02,3.35,2.8,7.02,4.54,8.4Z"/>
  <path class="cls-49" d="M73.42,235.57s-.03-1.65-.78-1.81c-.75-.16-8.25-.88-9.17-.52v1.92s1.77,1.09,9.94.41Z"/>
  <path class="cls-48" d="M71.61,219.86c-.27-.54-2.11-1.83-2.25.05-.14,1.88,1.8,3.9,2.54,3.51.73-.38.4-2.2-.29-3.56Z"/>
  <path class="cls-14" d="M59.88,215.08s-8.24,2.21,2.41,12.44l-2.41-12.44Z"/>
  <path class="cls-48" d="M133.48,258.88l-8.39-.08c.72-.42,1.9-1.18,1.64-1.53-.37-.49-2.75.59-3.71.69-.89.09-2.37-.02-3.5.39l-2.65,1.13,2.43,2.25s4.39.63,5.68.72c2.09.15,8.48-2.34,8.59-2.72.19-.68-.08-.85-.08-.85Z"/>
  <path class="cls-51" d="M84.38,237.86c-5.34-.94-10.96-2.29-10.96-2.29l-9.94-.41s-9.12,2.01-12.72,3.63c-.34.15-.34,8.14-1.28,10.24l2.98,6.29s1.72,12.45,2.08,17.99c.16,2.54-3.55,23.84-3.55,23.84,0,0,3.98,1.17,10.77,1.92,6.79.75,23.74-.27,23.85-1.07.11-.8-3.28-29.84-3.43-31.35-.23-2.31.67-12.97.67-12.97,1.28,1.72,8.67,8.16,12.28,10.21,2.57,1.46,8.86.57,10.72.38,4.01-.41,15.1-1.2,15.32-1.6.17-.24-.64-4.28-1.1-4.43-.41-.14-14.72-.84-18.31-.66-1.46.08-6.21-5.23-6.21-5.23,0,0-8.21-13.16-11.15-14.48Z"/>
  <polygon class="cls-39" points="23.23 197.66 49.51 197.66 49.51 216.71 49.51 220.72 45.5 216.71 23.23 216.71 23.23 197.66"/>
  <g>
    <g>
      <path class="cls-30" d="M446.46,137.04h-25.54v-25.54h25.54v25.54ZM421.78,136.19h23.83v-23.83h-23.83v23.83Z"/>
      <path class="cls-30" d="M510.01,120.87h-58.45v-6.24h58.45v6.24ZM452.42,120.02h56.74v-4.54h-56.74v4.54Z"/>
      <path class="cls-30" d="M510.01,149.89h-89.09v-6.24h89.09v6.24ZM421.78,149.04h87.38v-4.54h-87.38v4.54Z"/>
      <path class="cls-30" d="M477.67,161.88h-56.74v-6.24h56.74v6.24ZM421.78,161.03h55.04v-4.54h-55.04v4.54Z"/>
      <path class="cls-30" d="M491.15,132.77h-39.58v-6.24h39.58v6.24ZM452.42,131.92h37.88v-4.54h-37.88v4.54Z"/>
    </g>
    <path class="cls-30" d="M520.16,175.46h-109.37v-77.53h109.37v77.53ZM411.63,174.6h107.67v-75.82h-107.67v75.82Z"/>
  </g>
  <polygon class="cls-30" points="372.22 63.21 364.04 63.21 364.04 62.25 371.27 62.25 371.27 55.03 372.22 55.03 372.22 63.21"/>
  <polygon class="cls-30" points="317.19 63.21 309.01 63.21 309.01 55.03 309.96 55.03 309.96 62.25 317.19 62.25 317.19 63.21"/>
  <polygon class="cls-30" points="309.96 8.18 309.01 8.18 309.01 0 317.19 0 317.19 .95 309.96 .95 309.96 8.18"/>
  <polygon class="cls-30" points="372.22 8.18 371.27 8.18 371.27 .96 364.04 .96 364.04 0 372.22 0 372.22 8.18"/>
  <rect class="cls-30" x="371.27" y="20.4" width=".95" height="22.41"/>
  <rect class="cls-30" x="309.01" y="20.4" width=".96" height="22.41"/>
  <path class="cls-4" d="M79.22,126.04c-1.93,0-3.5-1.57-3.5-3.5s1.57-3.5,3.5-3.5,3.5,1.57,3.5,3.5-1.57,3.5-3.5,3.5ZM79.22,119.99c-1.41,0-2.55,1.14-2.55,2.55s1.14,2.55,2.55,2.55,2.55-1.14,2.55-2.55-1.14-2.55-2.55-2.55Z"/>
  <path class="cls-4" d="M340.66,45.71c-1.93,0-3.5-1.57-3.5-3.5s1.57-3.5,3.5-3.5,3.5,1.57,3.5,3.5-1.57,3.5-3.5,3.5ZM340.66,39.66c-1.4,0-2.55,1.14-2.55,2.55s1.14,2.55,2.55,2.55,2.55-1.14,2.55-2.55-1.14-2.55-2.55-2.55Z"/>
  <path class="cls-4" d="M455.15,171.08c-1.93,0-3.5-1.57-3.5-3.5s1.57-3.5,3.5-3.5,3.5,1.57,3.5,3.5-1.57,3.5-3.5,3.5ZM455.15,165.03c-1.41,0-2.55,1.14-2.55,2.55s1.14,2.55,2.55,2.55,2.55-1.14,2.55-2.55-1.14-2.55-2.55-2.55Z"/>
  <path class="cls-40" d="M102.45,28.78h-24.04V4.73h24.04v24.04ZM79.36,27.82h22.13V5.69h-22.13v22.14Z"/>
  <rect class="cls-40" x="89.95" y="11.29" width=".95" height="11.21"/>
  <rect class="cls-40" x="84.83" y="16.41" width="11.21" height=".95"/>
  <path class="cls-40" d="M468.83,57.78h-34.37v-24.53h34.37v24.53ZM435.42,56.83h32.46v-22.63h-32.46v22.63Z"/>
  <polygon class="cls-40" points="451.65 48.11 434.64 34.09 435.25 33.35 451.65 46.87 468.05 33.35 468.66 34.09 451.65 48.11"/>
  <rect class="cls-40" x="461.71" y="41.84" width=".95" height="17.92" transform="translate(91.89 332.01) rotate(-43.49)"/>
  <rect class="cls-40" x="432.15" y="50.32" width="17.92" height=".95" transform="translate(100.9 336.13) rotate(-46.56)"/>
  <path class="cls-40" d="M162.44,82.42l-.36-.93c-.32-.04-.63-.11-.94-.22l-.73.68-2.12-1.51.41-.91c-.2-.26-.37-.53-.51-.82l-1-.03-.43-2.56.93-.36c.04-.32.11-.64.22-.94l-.68-.73,1.51-2.12.91.41c.26-.2.53-.37.82-.51l.03-1,2.56-.43.36.93c.32.04.64.11.94.22l.73-.68,2.12,1.51-.41.91c.2.26.37.53.51.82l1,.03.43,2.56-.93.36c-.04.32-.12.64-.22.94l.69.73-1.51,2.12-.91-.41c-.25.2-.53.37-.82.51l-.03,1-2.56.43ZM160.98,80.45l.21.08c.38.15.78.24,1.19.27l.22.02.31.8,1.41-.24.03-.86.21-.09c.37-.17.72-.38,1.03-.64l.17-.14.78.35.83-1.16-.59-.62.08-.21c.15-.38.24-.78.27-1.18l.02-.22.8-.31-.24-1.41-.86-.03-.09-.2c-.17-.37-.38-.72-.64-1.03l-.14-.17.35-.78-1.16-.83-.63.59-.21-.08c-.38-.15-.78-.24-1.18-.27l-.22-.02-.31-.8-1.41.24-.03.86-.21.09c-.37.17-.72.38-1.03.64l-.17.14-.78-.35-.83,1.16.59.62-.08.21c-.14.38-.24.78-.27,1.19l-.02.22-.8.31.24,1.41.86.03.09.2c.17.37.38.72.65,1.03l.14.17-.35.78,1.16.83.62-.59ZM162.75,79.26c-.58,0-1.15-.18-1.63-.52-1.27-.9-1.57-2.67-.66-3.94.9-1.27,2.67-1.57,3.94-.66.62.44,1.02,1.09,1.15,1.83.12.74-.05,1.49-.48,2.11-.44.62-1.09,1.02-1.83,1.15-.16.03-.32.04-.48.04ZM162.76,74.32c-.66,0-1.31.31-1.72.89-.33.46-.46,1.02-.36,1.57.09.56.4,1.04.86,1.37h0c.46.33,1.02.46,1.57.36.55-.09,1.04-.4,1.37-.86.33-.46.46-1.02.36-1.57-.09-.56-.4-1.04-.86-1.37-.37-.26-.8-.39-1.22-.39Z"/>
  <path class="cls-40" d="M142.59,85.41l-.8-2.09c-.86-.1-1.7-.29-2.51-.57l-1.63,1.53-4.42-3.15.91-2.04c-.53-.67-.99-1.4-1.36-2.18l-2.23-.07-.9-5.35,2.09-.8c.1-.86.29-1.7.57-2.51l-1.53-1.63,3.14-4.42,2.04.91c.67-.54,1.4-.99,2.18-1.36l.07-2.23,5.35-.9.8,2.09c.86.1,1.7.29,2.51.57l1.63-1.53,4.42,3.15-.91,2.04c.54.67.99,1.4,1.36,2.18l2.23.07.9,5.35-2.09.8c-.1.86-.29,1.7-.58,2.51l1.53,1.63-3.15,4.42-2.04-.91c-.67.54-1.4.99-2.18,1.36l-.07,2.23-5.35.9ZM139.06,81.65l.28.11c.91.35,1.86.56,2.83.65l.3.03.73,1.91,3.81-.64.06-2.04.27-.12c.89-.4,1.72-.91,2.46-1.54l.23-.19,1.87.83,2.24-3.15-1.4-1.49.11-.28c.35-.91.57-1.86.65-2.83l.03-.3,1.91-.73-.64-3.81-2.04-.06-.12-.27c-.4-.89-.92-1.72-1.54-2.46l-.19-.23.83-1.87-3.15-2.24-1.49,1.4-.28-.11c-.91-.35-1.86-.56-2.83-.65l-.3-.03-.73-1.91-3.81.64-.07,2.04-.27.12c-.89.4-1.72.91-2.46,1.54l-.23.19-1.87-.83-2.24,3.15,1.4,1.49-.11.28c-.35.9-.56,1.86-.65,2.83l-.03.3-1.91.73.64,3.81,2.04.06.12.27c.4.89.92,1.72,1.54,2.46l.19.23-.83,1.87,3.15,2.24,1.49-1.4ZM143.07,78.15c-1.24,0-2.49-.37-3.57-1.14-2.77-1.97-3.42-5.83-1.45-8.61,1.97-2.77,5.83-3.42,8.6-1.45,2.77,1.97,3.42,5.83,1.45,8.6-1.2,1.69-3.11,2.59-5.04,2.59ZM143.08,66.77c-1.63,0-3.24.76-4.26,2.19-.81,1.14-1.13,2.52-.89,3.89.23,1.37.98,2.58,2.12,3.38,2.34,1.67,5.61,1.12,7.28-1.23.81-1.13,1.12-2.52.89-3.89-.23-1.37-.98-2.58-2.12-3.38-.92-.65-1.97-.96-3.02-.96Z"/>
  <path class="cls-4" d="M17.79,90.43c-9.81,0-17.79-7.98-17.79-17.79h.95c0,9.29,7.55,16.84,16.84,16.84s16.84-7.55,16.84-16.84-7.55-16.84-16.84-16.84v-.95c9.81,0,17.79,7.98,17.79,17.79s-7.98,17.79-17.79,17.79ZM17.79,87.96c-8.45,0-15.32-6.87-15.32-15.32s6.87-15.32,15.32-15.32,15.32,6.87,15.32,15.32h-.95c0-7.92-6.44-14.37-14.37-14.37s-14.37,6.44-14.37,14.37,6.44,14.37,14.37,14.37v.95Z"/>
  <polygon class="cls-4" points="15.61 78.53 9.2 72.11 9.87 71.44 15.61 77.18 25.72 67.08 26.39 67.75 15.61 78.53"/>
  <polygon class="cls-7" points="393.55 290.8 258.38 290.8 123.22 290.8 93.64 401.37 259.27 401.37 423.13 401.37 393.55 290.8"/>
  <path class="cls-13" d="M133.45,310.2h16.61c.69,0,1.22.54,1.09,1.12l-1.61,7.22c-.1.45-.56.77-1.09.77h-16.89c-.71,0-1.24-.56-1.08-1.15l1.89-7.22c.11-.43.56-.74,1.08-.74Z"/>
  <polygon class="cls-13" points="157.68 310.2 170.23 310.2 168.56 319.31 155.77 319.31 157.68 310.2"/>
  <polygon class="cls-13" points="176.51 310.2 189.06 310.2 187.75 319.31 174.96 319.32 176.51 310.2"/>
  <polygon class="cls-13" points="195.34 310.2 207.9 310.2 206.94 319.31 194.15 319.31 195.34 310.2"/>
  <polygon class="cls-13" points="214.18 310.2 226.73 310.2 226.13 319.31 213.34 319.31 214.18 310.2"/>
  <polygon class="cls-13" points="233.01 310.2 245.57 310.2 245.33 319.31 232.53 319.32 233.01 310.2"/>
  <polygon class="cls-13" points="383.72 310.2 364.89 310.2 366.92 319.31 386.11 319.31 383.72 310.2"/>
  <polygon class="cls-13" points="358.61 310.2 346.05 310.2 347.73 319.31 360.52 319.31 358.61 310.2"/>
  <polygon class="cls-13" points="339.78 310.2 327.22 310.2 328.53 319.31 341.33 319.32 339.78 310.2"/>
  <polygon class="cls-13" points="320.94 310.2 308.39 310.2 309.34 319.31 322.14 319.31 320.94 310.2"/>
  <polygon class="cls-13" points="302.11 310.2 289.55 310.2 290.15 319.31 302.94 319.31 302.11 310.2"/>
  <polygon class="cls-13" points="283.28 310.2 270.72 310.2 270.96 319.31 283.75 319.32 283.28 310.2"/>
  <polygon class="cls-13" points="251.84 310.2 264.4 310.2 264.61 319.31 251.84 319.31 251.84 310.2"/>
  <polygon class="cls-13" points="127.93 326.1 154.16 326.1 152.67 335.5 125.93 335.5 127.93 326.1"/>
  <polygon class="cls-13" points="387.82 326.1 355.39 326.1 357.23 335.5 390.28 335.5 387.82 326.1"/>
  <polygon class="cls-13" points="348.9 326.1 335.93 326.1 337.41 335.5 350.62 335.5 348.9 326.1"/>
  <polygon class="cls-13" points="329.44 326.1 316.47 326.1 317.58 335.5 330.8 335.5 329.44 326.1"/>
  <polygon class="cls-13" points="309.98 326.1 297.01 326.1 297.75 335.5 310.97 335.5 309.98 326.1"/>
  <polygon class="cls-13" points="290.53 326.1 277.55 326.1 277.92 335.5 291.14 335.5 290.53 326.1"/>
  <polygon class="cls-13" points="124.01 342.86 150.83 342.86 148.87 352.2 121.56 352.2 124.01 342.86"/>
  <polygon class="cls-13" points="157.54 342.86 170.95 342.86 169.36 352.2 155.7 352.2 157.54 342.86"/>
  <polygon class="cls-13" points="177.65 342.86 191.06 342.86 278.23 342.86 278.61 352.2 176.19 352.2 177.65 342.86"/>
  <polygon class="cls-13" points="284.95 342.86 298.36 342.86 299.09 352.2 285.43 352.2 284.95 342.86"/>
  <polygon class="cls-13" points="305.06 342.86 318.47 342.86 319.57 352.2 305.92 352.2 305.06 342.86"/>
  <polygon class="cls-13" points="325.18 342.86 338.59 342.86 340.06 352.2 326.4 352.2 325.18 342.86"/>
  <polygon class="cls-13" points="345.3 342.86 358.71 342.86 360.54 352.2 346.89 352.2 345.3 342.86"/>
  <polygon class="cls-13" points="365.41 342.86 392.24 342.86 394.68 352.2 367.37 352.2 365.41 342.86"/>
  <polygon class="cls-13" points="271.09 326.1 258.23 326.1 258.23 335.5 271.34 335.5 271.09 326.1"/>
  <polygon class="cls-13" points="251.64 326.1 238.66 326.1 238.29 335.5 251.51 335.5 251.64 326.1"/>
  <polygon class="cls-13" points="232.18 326.1 219.21 326.1 218.47 335.5 231.68 335.5 232.18 326.1"/>
  <polygon class="cls-13" points="212.72 326.1 199.75 326.1 198.64 335.5 211.86 335.5 212.72 326.1"/>
  <polygon class="cls-13" points="193.26 326.1 180.29 326.1 178.81 335.5 192.03 335.5 193.26 326.1"/>
  <polygon class="cls-13" points="173.8 326.1 160.83 326.1 158.98 335.5 172.2 335.5 173.8 326.1"/>
  <polygon class="cls-13" points="134.06 304.47 136.2 296.33 142.29 296.33 140.3 304.47 134.06 304.47"/>
  <polygon class="cls-13" points="148.39 296.33 160.58 296.33 158.87 304.47 146.47 304.47 148.39 296.33"/>
  <polygon class="cls-13" points="166.68 296.33 178.87 296.33 177.48 304.47 165.08 304.47 166.68 296.33"/>
  <polygon class="cls-13" points="184.97 296.33 197.16 296.33 196.09 304.47 183.69 304.47 184.97 296.33"/>
  <polygon class="cls-13" points="203.25 296.33 215.45 296.33 214.7 304.47 202.3 304.47 203.25 296.33"/>
  <polygon class="cls-13" points="221.54 296.33 233.74 296.33 233.31 304.47 220.9 304.47 221.54 296.33"/>
  <polygon class="cls-13" points="239.83 296.33 252.03 296.33 251.92 304.47 239.51 304.47 239.83 296.33"/>
  <polygon class="cls-13" points="258.12 296.33 270.31 296.33 270.53 304.47 258.12 304.47 258.12 296.33"/>
  <polygon class="cls-13" points="276.41 296.33 288.6 296.33 289.14 304.47 276.73 304.47 276.41 296.33"/>
  <polygon class="cls-13" points="294.7 296.33 306.89 296.33 307.75 304.47 295.34 304.47 294.7 296.33"/>
  <polygon class="cls-13" points="312.99 296.33 325.18 296.33 326.35 304.47 313.95 304.47 312.99 296.33"/>
  <polygon class="cls-13" points="331.28 296.33 343.47 296.33 344.96 304.47 332.56 304.47 331.28 296.33"/>
  <polygon class="cls-13" points="349.57 296.33 361.76 296.33 363.57 304.47 351.17 304.47 349.57 296.33"/>
  <polygon class="cls-13" points="367.86 296.33 380.05 296.33 382.18 304.47 369.77 304.47 367.86 296.33"/>
  <path class="cls-1" d="M414.52,409.97H102.25c-4.75,0-8.61-3.85-8.61-8.61h329.49c0,4.75-3.85,8.61-8.61,8.61Z"/>
  <path class="cls-10" d="M296.69,365.64c-.32-1.95-2-3.37-3.98-3.37h-68.65c-1.97,0-3.66,1.43-3.98,3.37l-4.29,25.95c-.41,2.46,1.49,4.69,3.98,4.69h77.23c2.49,0,4.38-2.23,3.98-4.69l-4.29-25.95Z"/>
  <g>
    <rect class="cls-21" x="149.62" y="142.3" width="27.94" height="2.86"/>
    <rect class="cls-21" x="185.39" y="163.84" width="20.17" height="2.86"/>
    <rect class="cls-45" x="208.71" y="163.84" width="13.39" height="2.86"/>
    <rect class="cls-45" x="149.94" y="218.02" width="13.39" height="2.86"/>
    <rect class="cls-21" x="224.74" y="163.84" width="32.32" height="2.86"/>
    <rect class="cls-21" x="149.94" y="207.17" width="20.77" height="2.86"/>
    <rect class="cls-21" x="178.9" y="228.79" width="12.68" height="2.86"/>
    <rect class="cls-45" x="149.94" y="228.79" width="25.12" height="2.86"/>
    <rect class="cls-21" x="149.94" y="239.56" width="13.86" height="2.86"/>
    <rect class="cls-4" x="183" y="142.3" width="19.84" height="2.86"/>
    <rect class="cls-45" x="183" y="174.61" width="19.84" height="2.86"/>
    <rect class="cls-21" x="173.09" y="185.38" width="8.48" height="2.86"/>
    <rect class="cls-4" x="164.61" y="196.31" width="19.04" height="2.86"/>
    <rect class="cls-45" x="186.53" y="196.31" width="26.28" height="2.86"/>
    <rect class="cls-45" x="149.94" y="185.46" width="19.84" height="2.86"/>
    <rect class="cls-45" x="149.94" y="196.31" width="11.77" height="2.86"/>
    <rect class="cls-42" x="185.56" y="185.46" width="11.1" height="2.86"/>
    <rect class="cls-42" x="150.28" y="250.33" width="11.1" height="2.86"/>
    <rect class="cls-4" x="149.86" y="163.84" width="19.84" height="2.86"/>
    <rect class="cls-4" x="167.41" y="218.02" width="19.84" height="2.86"/>
    <rect class="cls-4" x="167.65" y="239.56" width="19.84" height="2.86"/>
    <rect class="cls-4" x="202.89" y="239.56" width="19.84" height="2.86"/>
    <rect class="cls-4" x="149.86" y="174.61" width="28.28" height="2.86"/>
    <rect class="cls-4" x="282.37" y="142.3" width="19.84" height="2.86"/>
    <rect class="cls-4" x="211.71" y="250.33" width="19.84" height="2.86"/>
    <rect class="cls-4" x="308.38" y="142.3" width="13.28" height="2.86"/>
    <rect class="cls-4" x="353.3" y="153.07" width="13.28" height="2.86"/>
    <rect class="cls-45" x="208.18" y="142.3" width="25.27" height="2.86"/>
    <rect class="cls-45" x="306.65" y="153.07" width="25.27" height="2.86"/>
    <rect class="cls-45" x="275.66" y="163.84" width="25.27" height="2.86"/>
    <rect class="cls-45" x="242.75" y="174.61" width="25.27" height="2.86"/>
    <rect class="cls-4" x="304.11" y="163.84" width="17.97" height="2.86"/>
    <rect class="cls-42" x="252.15" y="142.3" width="25.27" height="2.86"/>
    <rect class="cls-42" x="223.31" y="174.61" width="14.82" height="2.86"/>
    <rect class="cls-42" x="211.71" y="218.18" width="14.82" height="2.86"/>
    <rect class="cls-21" x="238.13" y="142.3" width="9.25" height="2.86"/>
    <rect class="cls-21" x="208.18" y="174.61" width="9.25" height="2.86"/>
    <rect class="cls-21" x="338.02" y="153.07" width="9.25" height="2.86"/>
    <rect class="cls-45" x="149.62" y="153.07" width="14.47" height="2.86"/>
    <rect class="cls-45" x="188.24" y="207.25" width="11.43" height="2.86"/>
    <rect class="cls-45" x="167.65" y="153.07" width="4.67" height="2.86"/>
    <rect class="cls-21" x="263.58" y="153.07" width="38.62" height="2.86"/>
    <rect class="cls-21" x="226.52" y="239.56" width="38.62" height="2.86"/>
    <rect class="cls-42" x="175.76" y="153.07" width="4.77" height="2.86"/>
    <rect class="cls-45" x="247.38" y="153.07" width="12.64" height="2.86"/>
    <rect class="cls-42" x="260.01" y="163.84" width="12.64" height="2.86"/>
    <rect class="cls-42" x="195.04" y="250.33" width="12.64" height="2.86"/>
    <rect class="cls-45" x="217.15" y="153.07" width="26.89" height="2.86"/>
    <rect class="cls-45" x="192.12" y="218.18" width="15.71" height="2.86"/>
    <rect class="cls-45" x="191.11" y="239.56" width="7.86" height="2.86"/>
    <rect class="cls-4" x="204.08" y="153.07" width="9.25" height="2.86"/>
    <rect class="cls-42" x="172.94" y="163.84" width="9.25" height="2.86"/>
    <rect class="cls-42" x="174.79" y="207.25" width="9.25" height="2.86"/>
    <rect class="cls-45" x="184.43" y="153.07" width="16.12" height="2.86"/>
  </g>
  <g class="cls-3">
    <path class="cls-13" d="M303.55,178.19h116.88c2.22,0,4.01,1.8,4.01,4.01v81.03c0,2.22-1.8,4.01-4.01,4.01h-116.88c-2.22,0-4.01-1.8-4.01-4.01v-81.03c0-2.22,1.8-4.01,4.01-4.01Z"/>
  </g>
  <path class="cls-16" d="M390.84,224.02h20.12c.85,0,1.54.69,1.54,1.54v3.11c0,.85-.69,1.54-1.54,1.54h-20.13c-.85,0-1.54-.69-1.54-1.54v-3.11c0-.85.69-1.54,1.54-1.54Z"/>
  <path class="cls-16" d="M390.83,235.61h20.13c.85,0,1.54.69,1.54,1.54v3.11c0,.85-.69,1.54-1.54,1.54h-20.13c-.85,0-1.54-.69-1.54-1.54v-3.11c0-.85.69-1.54,1.54-1.54Z"/>
  <path class="cls-16" d="M390.83,247.2h20.13c.85,0,1.54.69,1.54,1.54v3.11c0,.85-.69,1.54-1.54,1.54h-20.13c-.85,0-1.54-.69-1.54-1.54v-3.11c0-.85.69-1.54,1.54-1.54Z"/>
  <g>
    <path class="cls-16" d="M378.08,210.22c-5.16-14.43-18.96-23.3-33.5-22.86-3.52.11-7.08.76-10.58,2.01-10.59,3.79-18.18,12.22-21.3,22.19-2.16,6.91-2.18,14.55.45,21.89.26.73.54,1.45.85,2.15,1.38,3.18,3.19,6.05,5.34,8.58,9.02,10.61,23.99,15.09,37.88,10.12,17.93-6.41,27.27-26.15,20.85-44.08ZM354.32,246.17c-10.41,3.72-21.64.36-28.4-7.59-1.61-1.89-2.97-4.05-4.01-6.44-.23-.53-.44-1.06-.64-1.61-1.97-5.5-1.96-11.23-.34-16.41,2.34-7.47,8.03-13.8,15.97-16.64,2.62-.94,5.29-1.43,7.93-1.51,10.9-.33,21.24,6.32,25.11,17.14,4.81,13.44-2.19,28.24-15.63,33.05Z"/>
    <path class="cls-2" d="M320.94,214.13l-8.24-2.57c3.12-9.97,10.71-18.4,21.3-22.19,3.5-1.25,7.06-1.9,10.58-2.01l.26,8.63c-2.64.08-5.31.57-7.93,1.51-7.94,2.84-13.63,9.16-15.97,16.64Z"/>
    <path class="cls-32" d="M321.91,232.15l-7.91,3.44c-.3-.7-.59-1.42-.85-2.15-2.62-7.34-2.61-14.98-.45-21.89l8.24,2.57c-1.62,5.18-1.63,10.91.34,16.41.2.55.41,1.09.64,1.61Z"/>
    <path class="cls-50" d="M319.34,244.17c-2.15-2.53-3.96-5.4-5.34-8.58l7.91-3.44c1.03,2.38,2.39,4.54,4.01,6.44l-6.57,5.59Z"/>
  </g>
  <g>
    <path class="cls-48" d="M357.12,242.28s-1.67-2.92.98-10.76c2.56-7.58,11.43-6.89,14.25-2.04,2.82,4.85,1.87,7.87-2.28,13.35-4.15,5.48-11.22,1.95-12.94-.56Z"/>
    <path class="cls-48" d="M377.72,377.04s.44,3.22.49,3.7c.05.48,4.88-.29,4.88-.29l.39-3.83s-5.16-.04-5.77.41Z"/>
    <path class="cls-20" d="M378.16,380.34s-1.53,1.94-3.01,2.78c-1.48.85-3.8,1.18-4.68,2.05-.63.63-2.3,3.35,3.84,3.29,6.14-.05,9.1.38,9.76-.66.66-1.04-.95-7.69-.95-7.69,0,0-1.5.42-4.97.22Z"/>
    <path class="cls-48" d="M344.3,377.04s.44,3.22.49,3.7c.05.48,4.88-.29,4.88-.29l.39-3.83s-5.16-.04-5.77.41Z"/>
    <path class="cls-20" d="M344.74,380.34s-1.53,1.94-3.01,2.78c-1.48.85-6.92,1.54-7.8,2.41-.63.63-1.68,3.17,6.96,2.93,6.14-.17,9.1.38,9.76-.66.66-1.04-.95-7.69-.95-7.69,0,0-1.91.34-4.97.22Z"/>
    <path class="cls-9" d="M376.09,296.95s2.47,7.69,2.15,14.32c-.33,6.63,1.28,13.88,1.94,20.8.73,7.72,3.73,25.99,3.83,30.12.11,4.13-.46,17.31-.46,17.31l-5.99.14s-5.03-31.94-6.34-35.2c-1.3-3.26-7.77-26.49-7.99-29.1-.22-2.61,12.86-18.39,12.86-18.39Z"/>
    <path class="cls-9" d="M351.24,296.15s-3.64,20.33-4.07,24.39c-.43,4.06-.72,19.63-.94,22.16-.22,2.53-1.45,33.17-2.61,36.94h6.68s6.86-22.27,6.86-32.81,4.54-22.91,7.48-29.86c2.93-6.95,9.65-7.12,11.45-20.02,0,0-22.41-4.89-24.85-.8Z"/>
    <path class="cls-48" d="M359.54,244.35s.75,2.19,0,3.76c-.75,1.56,9.63.63,9.63.63,0,0-.47-3.24.89-5.9,1.36-2.66-10.52,1.51-10.52,1.51Z"/>
    <path class="cls-8" d="M376.57,298.62s-3.74,3.84-25.67-.6l.33-1.88,24.93.94.4,1.54Z"/>
    <path class="cls-48" d="M357.97,248.62s-3.84.39-4.93.6c-1.1.21-8.47-1.32-9.99-1.48-1.51-.16-7.97-4.58-8.18-5.1-.21-.52-3.93-9.93-4.13-11.97-.21-2.04-3.62-.99-3.33.42.55,2.62,1.25,8.99,1.64,10.84.42,1.99,1.53,6.51,2.16,7.06.63.56,6.44,4.97,12.12,6.85,5.69,1.88,9.97,4.65,9.97,4.65h28.04s10.9-15.59,11.14-17.94c.23-2.35-7.62-17.96-9.18-19.92-1.57-1.96-3.83.64-3.83.64,0,0,4.69,13.77,5.32,15.72.63,1.96-5.46,10.56-7.13,10.58-1.67.03-5.96-.52-7.86-.6-1.91-.08-3.92-.91-3.92-.91l-7.91.55Z"/>
    <path class="cls-29" d="M345.89,259.03s3.43,2.28,3.75,6.2c.31,3.92,1.57,10.1,2.19,12.21.63,2.11-.55,17.46-.7,18.55-.16,1.1,21.69,3.7,25.05,1.1,0,0,.94-14.33,1.33-18.4.39-4.07,2.27-13.93,2.9-15.26.63-1.33,8.22-11.98,8.53-13.39,0,0-3.93-6.26-6.75-6.34,0,0-4.48,5.25-5.93,5.48-1.46.23-10.4-1.4-10.41-1.42,0,0-.98,1.33-6.17-.24,0,0-6.18.7-7.19.83-1.22.16-9.68-1.06-9.68-1.06,0,0-3.4,5.73-2.8,8.63l5.88,3.11Z"/>
    <path class="cls-48" d="M330.94,231.9s-.77-3.63.16-4.67c.53-.59,1.79-2.16,1.9-2.39.12-.23,1.47-1.01,1.47-1.38s-1.33-.84-2.48.23c-1.15,1.07-1.87,1.3-2.33,1.18-.46-.12-1.12-3.95-1.18-4.9-.06-.95-.42-3.46-1.02-3.29-.59.17-.57,1.27-.57,1.27,0,0-.69-1.9-1.15-1.53-.46.37-.4,1.3-.4,1.3,0,0-.87-1.07-1.1-.29-.23.78,0,1.47,0,1.47,0,0-.89-.49-.95.72-.06,1.21.26,4.76.89,6.03.63,1.27,3.01,4.59,3.29,5.88.28,1.3,3.47.37,3.47.37Z"/>
    <path class="cls-48" d="M380.23,225.52s-2.61-4.38-3.5-4.78c-.89-.39-2.14-.61-3.24-1.4-1.1-.78-2.54-1.43-2.47-1.7.08-.26,1.37-.16,2.75.44,1.38.6,1.99.31,2.12,0,.13-.31-.74-2.52-1.15-3.05-.42-.52-3.39-3.51-2.9-3.96.5-.44,2.43,1.2,2.74,1.54,0,0-1.54-3.23-.94-3.39.6-.16,1.72.99,1.72.99,0,0-.13-2.77,2.84,1.72,0,0-.63-1.49.29-.99.91.5,1.8,3.29,2.09,4.7.29,1.41,1.59,5.9,2.7,6.98,1.11,1.08-3.07,2.88-3.07,2.88Z"/>
    <path class="cls-47" d="M370.06,242.84s-1.37.12-4.3-.89c-2.92-1.01-3.14-6.12-3.77-5.51-1.29,1.24-2.51.38-3-.35,0,0,1.43-1.88.77-2.78-.66-.9-1.74-1.56-1.74-1.56,0,0,2.06-9.91,11.41-5.39,10.96,5.29.63,16.49.63,16.49Z"/>
    <path class="cls-12" d="M359.54,248.11l.33-1.43s5.97-.12,9.23.35l.34,1.71s-4.17,1.89-9.9-.63Z"/>
    <path class="cls-48" d="M361.02,235.18c.54-.9,2.55-1.51,2.78,1.04.18,1.98-3.58,4.14-3.62,2.3-.03-1.84.47-2.74.84-3.34Z"/>
    <path class="cls-31" d="M330.8,231.07s-2.15.05-3.2,1c0,0-.07.6.17,1.07,0,0,1.87-.87,3.3-1.03,0,0-.02-.78-.27-1.03Z"/>
    <path class="cls-47" d="M328.26,231.61c-.2.47.02,1.01.49,1.21.47.2,1.01-.02,1.21-.49.2-.47-.02-1.01-.49-1.21-.47-.2-1.01.02-1.21.49Z"/>
  </g>
  <path class="cls-17" d="M275.35,155.05s3.08,5.22,4.38,6.07c1.77,1.16.66,2.33-.18,2.33-.84,0-5.12.31-6.06-.76s-1.41-4.28-2.29-5.12c-.88-.84-1.78-4.17.43-4.98,1.95-.72,3.72,2.46,3.72,2.46Z"/>
  <path class="cls-24" d="M274.01,152.75s3.53,6.11,4.13,7.02c.61.9-1.14.9-2.23.47-1.09-.43-3.82-4.81-4.21-5.61-.47-.95-.08-2.04-.08-2.04l2.39.17Z"/>
  <polygon class="cls-17" points="270.44 156.04 271.25 162.31 271.69 162.33 271.55 157.82 270.44 156.04"/>
  <path class="cls-17" d="M244.81,155.05s3.08,5.22,4.38,6.07c1.77,1.16.66,2.33-.18,2.33-.84,0-5.12.31-6.06-.76-.94-1.07-1.41-4.28-2.29-5.12-.88-.84-1.81-4.26.43-4.98,1.96-.64,3.72,2.46,3.72,2.46Z"/>
  <path class="cls-24" d="M243.66,152.77s3.34,6.1,3.95,7c.61.9-1.15.9-2.23.47-1.09-.43-3.82-4.81-4.21-5.61-.47-.95-.08-2.04-.08-2.04l2.57.18Z"/>
  <polygon class="cls-17" points="239.9 156.04 240.72 162.31 241.15 162.33 241.02 157.82 239.9 156.04"/>
  <path class="cls-24" d="M231.15,107.55l27.86,12.7s3.11,1.01,3.46,4.46c1.09,10.78,9.15,27.88,9.15,27.88,2.59,1.26,2.39.17,2.39.17-1.63-5.23-3.62-26.8-4.32-35.48-.15-1.84-.24-3.09-.26-3.5-.01-.27-.31-.63-.83-1.05-3.82-3.1-19.56-9.52-19.56-9.52-11.81-.3-17.89,4.33-17.89,4.33Z"/>
  <path class="cls-24" d="M225.9,113c.86,7.53,11.61,6.67,11.61,6.67h13.03s-3.42,7.62-4.75,14.04c-1.4,6.82-4.71,18.88-4.71,18.88,0,0,.22.41,2.57.18,0,0,10.23-20.39,14.14-25.51.84-1.1,3.26-7.09,3.67-10.66.14-1.2.05-2.13-.39-2.51-.45-.38-1.49-1.09-2.88-1.97-4.08-2.57-11.17-6.54-15.12-7.42-5.29-1.19-13.65-3.42-13.65-3.42,0,0-4.4,4.18-3.54,11.71Z"/>
  <path class="cls-11" d="M234.77,54.99s-1.95-3.7-1-7.65c.95-3.94,4.61-7.87,9.97-6.07,5.36,1.8,9.69,5.97,6.48,10.78-3.21,4.81,2.91,6.98,1.35,9.27-1.56,2.29-.97,4.68-.31,5.21.66.53,2.79,2.43,2.55,4.68-.23,2.25-10.39-6.55-10.39-6.55,0,0-5.53-11.12-8.64-9.68Z"/>
  <path class="cls-43" d="M251.09,102.31s-.81,3.92-21.62-1.03c0,0,6.98-2.32,21.62,1.03Z"/>
  <path class="cls-33" d="M229.24,102.38c-.32.62-.65,1.23-.97,1.85,7.61.22,15.21.44,22.82.67-1.2-4.03-.81-9.49-.6-13.63.26-5.06,3.05-8.58,2.75-13.69,1.5.24,1.76.29,3.27.52-2.31-6.57-3.09-9.82-10.25-12.35-2.33-.82-3.86-.99-6.39-.78-8.29.68-10.79.78-14.87,8.3,6.38,1.02,5.33,3.3,7.26,9.65.94,3.09,1.93,6.54,1.42,9.81-.5,3.21-4.45,6.73-4.45,9.66Z"/>
  <path class="cls-48" d="M242.47,67.34c-3.39-.64-2.67-2.53-2.67-2.53,0,0,.16-1.07.22-2.41.02-.34.02-.71.02-1.08,0-.56-.03-1.13-.09-1.67-.28-2.28,6.16-.92,6.16-.92,0,0-.37,4.61.52,5.99.89,1.38-.76,3.26-4.15,2.62Z"/>
  <path class="cls-48" d="M236,64.79s6.85,7.9,9.38,9.74c0,0,2.91-2.63,1.12-9.57,0,0-3.31-1.66-10.49-.17Z"/>
  <path class="cls-48" d="M236.19,45.77s-3.56,6.85-.03,13.34c3.53,6.49,10.45-2.83,10.9-3.92.45-1.09,2.82-7.27-1.9-9.15-4.73-1.88-7.96-2.13-8.97-.27Z"/>
  <path class="cls-11" d="M237.37,48.2s-2.45,3.21-2.74,5.59c0,0-.97-4.49,1.78-8.81,2.75-4.31,9.76-.21,10.7,1.52.94,1.72,3.69,3.24-.93,10.65,0,0-8.31-5.77-8.81-8.95Z"/>
  <path class="cls-44" d="M243.05,59.79s-.62,1.35-3.03,2.6c.02-.34.02-.71.02-1.08,0,0,1.63-.2,3.01-1.53Z"/>
  <path class="cls-48" d="M207.12,96.22s-1.69.75-2.49.41c-.8-.34-2.04-.41-2.43-.41-.52,0-2.16-.58-2.13.05.03.64,2.66,1.09,3.2,1.29.54.2-1.61,1.38-1.81,1.91-.2.53,2.22,3.97,3.59,2.99,1.37-.98,2.11-2.94,2.39-3.07.28-.12,1.03-.67,1.03-.67l-1.33-2.5Z"/>
  <path class="cls-48" d="M201.71,99.16s-3.96,3.29-4.03,3.73c-.06.44.15.65.53.36.38-.29,3.93-3.06,3.93-3.06,0,0-3.97,4.69-4.11,5.04-.08.2.3.63.52.49.22-.14,4.45-4.55,4.45-4.55,0,0-3.7,4.39-3.72,4.71-.02.29.43.6.73.29.3-.31,3.98-4.18,3.98-4.18,0,0-2.47,3.37-2.32,3.66.09.18.41.56,1.02-.33.61-.89,2.28-2.83,2.28-2.83l-3.26-3.34Z"/>
  <path class="cls-51" d="M249.18,119.67h-11.67s-10.75.86-11.61-6.67c-.86-7.53,3.54-11.71,3.54-11.71,0,0,5.68,1.51,10.64,2.71,2.48-.53,5.47-.87,8.97-.78,0,0,21.02,6.95,20.39,10.6,0,0-8.79-4.7-20.25,5.85Z"/>
  <polygon class="cls-19" points="241.59 106.63 263.84 106.3 252.6 112 241.59 106.63"/>
  <path class="cls-33" d="M248.5,103.78s-5.01,1.94-11.14.19l-.29-2.29,12.63.7-1.2,1.4Z"/>
  <polygon class="cls-41" points="252.6 112 241.59 107.74 241.59 106.63 253.47 110.91 252.6 112"/>
  <g>
    <path class="cls-34" d="M248.42,104.84c-.06.82.77,1.41,1.53,1.09l1.29-.55c.39-.17.61-.58.55-.99-.54-3.37-1.69-16.47,0-18.71.62-.83,1.01-1.56,1.23-2.2,1.11,2.87,2.5,6.57,3.05,8.56l10.51,13.98,3.53.89c-4.4-10.6-7.93-16.21-7.93-16.21-.69-1.85-2.66-7.44-4.41-12.42-1.1-3.14-2.12-6.04-2.66-7.6-.28-.79-.82-1.46-1.54-1.89-1.63-.97-4.34-2.51-6.8-3.7,0,0-.02,0-.03-.01-.08-.04-.16-.08-.24-.11,0,0,0,0,0,0h0c4.68,7.08,2.85,27.07,1.93,39.85,0,0,0,.02,0,.03Z"/>
    <path class="cls-34" d="M231.05,65.57c-1.5.23-5.21,3.84-7.19,7.48-2.25,4.16-4.54,8.89-6.26,10.44-3.16,2.86-12,12.98-12.42,12.73-.16-.09,2.42,3.02,2.75,3.17.16.07,14.54-12.38,15.91-14.28,1.31-1.8,4.81-9.35,5.86-9.18,0,0,0,0,0,0,0,0,0,0,0,0,.08.17,1.35,2.93,2.56,6.97.02.07.04.13.06.2.83,2.81.75,5.87.3,9.3-.34,2.59-2.27,6.83-3.44,8.89-.14.25-.1.72.05,1.08h0c.09.21.22.39.38.45l4.22,1.56.99.37c.71.26,1.46.13,2.02-.28.46-.33.79-.85.87-1.47.94-7.22,2.12-14.59,3.07-17.37,4.15-12.19-1.62-21.34-1.62-21.34,0,0-6.81.78-8.12,1.27Z"/>
  </g>
  <polygon class="cls-25" points="252.6 112 259.22 93.93 280.56 94.28 274.25 110.93 252.6 112"/>
  <path class="cls-26" d="M266.05,101.93c-.65,1.3-.45,2.72.44,3.17.89.45,2.15-.25,2.8-1.55.65-1.3.46-2.72-.44-3.17-.89-.45-2.15.25-2.8,1.55Z"/>
  <path class="cls-11" d="M243.56,52.59s1.37,2.13.1,3.96c-1.26,1.83.32,3.64.59,5.58.27,1.94-5.27,7.1.9,9.7,6.17,2.6,8.13-1.7,6.55-4.06-1.57-2.36-2.69-4.28-2.82-7.65-.13-3.37-1.24-8.62-5.33-7.53Z"/>
  <polygon class="cls-4" points="198.89 27.07 225.17 27.07 225.17 46.12 225.17 50.14 221.16 46.12 198.89 46.12 198.89 27.07"/>
</svg>