<?xml version="1.0" encoding="UTF-8"?>
<svg xmlns="http://www.w3.org/2000/svg" width="1750" height="1050" viewBox="0 0 1750 1050">
  <defs>
    <style>
      .cls-1 {
        fill: #88c3ee;
      }

      .cls-2 {
        fill: #e5e5e6;
      }

      .cls-3 {
        fill: #4f4f4f;
      }

      .cls-4 {
        fill: #d1562c;
      }

      .cls-5 {
        fill: none;
      }

      .cls-6 {
        isolation: isolate;
      }

      .cls-7 {
        fill: #6792b1;
      }

      .cls-8 {
        fill: #a5a6a9;
      }

      .cls-9 {
        fill: #dbdbdb;
      }

      .cls-10 {
        fill: #59595b;
      }

      .cls-11, .cls-12 {
        mix-blend-mode: multiply;
      }

      .cls-12 {
        opacity: .5;
      }
    </style>
  </defs>
  <g class="cls-6">
    <g id="Objects">
      <g>
        <path class="cls-2" d="M804.51,137.4h-70.85v-70.85h70.85v70.85ZM738.03,133.04h62.11v-62.11h-62.11v62.11Z"/>
        <path class="cls-2" d="M1077.06,786.57c-41.83,0-75.75,33.91-75.75,75.75s33.91,75.75,75.75,75.75,75.75-33.91,75.75-75.75-33.91-75.75-75.75-75.75ZM1077.06,931.5c-38.21,0-69.18-30.97-69.18-69.18s30.97-69.18,69.18-69.18,69.18,30.97,69.18,69.18-30.97,69.18-69.18,69.18Z"/>
        <path class="cls-2" d="M455.2,169.11c-33.16,0-60.04,26.88-60.04,60.04s26.88,60.04,60.04,60.04,60.04-26.88,60.04-60.04-26.88-60.04-60.04-60.04ZM455.2,283.99c-30.29,0-54.84-24.55-54.84-54.84s24.55-54.84,54.84-54.84,54.84,24.55,54.84,54.84-24.55,54.84-54.84,54.84Z"/>
        <path class="cls-2" d="M1716.31,702.09h-99.93v-99.93h99.93v99.93ZM1622.54,695.93h87.61v-87.61h-87.61v87.61Z"/>
        <path class="cls-2" d="M199.99,590.05h-116.44v-116.44h116.44v116.44Z"/>
        <g>
          <path class="cls-2" d="M1575.18,504.77c0-6.73,5.46-12.19,12.19-12.19s12.19,5.46,12.19,12.19-5.46,12.19-12.19,12.19-12.19-5.46-12.19-12.19Z"/>
          <g class="cls-12">
            <path class="cls-2" d="M1587.38,516.96c-6.73,0-12.19-5.46-12.19-12.19s5.46-12.19,12.19-12.19v24.39Z"/>
          </g>
        </g>
        <g>
          <path class="cls-8" d="M242.09,648.57c0-8.62,6.99-15.62,15.62-15.62s15.62,6.99,15.62,15.62-6.99,15.62-15.62,15.62-15.62-6.99-15.62-15.62Z"/>
          <g class="cls-12">
            <path class="cls-2" d="M257.71,664.19c-8.62,0-15.62-6.99-15.62-15.62s6.99-15.62,15.62-15.62v31.23Z"/>
          </g>
        </g>
        <g>
          <circle class="cls-2" cx="296.36" cy="696.29" r="9.24"/>
          <g class="cls-12">
            <path class="cls-2" d="M296.36,705.53c-5.1,0-9.24-4.14-9.24-9.24s4.14-9.24,9.24-9.24v18.48Z"/>
          </g>
        </g>
        <g>
          <rect class="cls-8" x="355.16" y="735.75" width="22.11" height="134.83"/>
          <rect class="cls-8" x="476.98" y="721.67" width="22.11" height="148.91"/>
          <rect class="cls-8" x="447.8" y="757.59" width="22.11" height="112.99"/>
          <rect class="cls-4" x="417.46" y="777.83" width="22.11" height="92.75"/>
          <rect class="cls-7" x="385.81" y="685.08" width="22.11" height="185.5"/>
          <polygon class="cls-10" points="500.82 887.88 335.12 887.88 335.12 669.71 338.62 669.71 338.62 884.38 500.82 884.38 500.82 887.88"/>
          <rect class="cls-10" x="505.29" y="884.38" width="9.57" height="3.5"/>
          <rect class="cls-10" x="518.16" y="884.38" width="9.57" height="3.5"/>
          <polygon class="cls-10" points="531.56 875.83 546.53 886.13 531.56 896.43 531.56 875.83"/>
        </g>
        <g>
          <g>
            <polygon class="cls-7" points="1335.82 790.81 1309.68 804.62 1283.55 790.81 1309.68 777 1335.82 790.81"/>
            <polygon class="cls-9" points="1283.55 790.81 1283.55 819.08 1309.68 832.89 1309.68 804.62 1283.55 790.81"/>
            <polygon class="cls-8" points="1335.74 790.81 1335.74 819.08 1309.6 832.89 1309.6 804.62 1335.74 790.81"/>
          </g>
          <g>
            <polygon class="cls-7" points="1354.85 927.17 1328.71 940.99 1302.58 927.17 1328.71 913.36 1354.85 927.17"/>
            <polygon class="cls-9" points="1302.58 927.17 1302.58 955.44 1328.71 969.26 1328.71 940.99 1302.58 927.17"/>
            <polygon class="cls-8" points="1354.77 927.17 1354.77 955.44 1328.63 969.26 1328.63 940.99 1354.77 927.17"/>
          </g>
          <g>
            <polygon class="cls-7" points="1158.47 905.97 1132.33 919.79 1106.19 905.97 1132.33 892.16 1158.47 905.97"/>
            <polygon class="cls-9" points="1106.19 905.97 1106.19 934.24 1132.33 948.06 1132.33 919.79 1106.19 905.97"/>
            <polygon class="cls-8" points="1158.39 905.97 1158.39 934.24 1132.25 948.06 1132.25 919.79 1158.39 905.97"/>
          </g>
          <rect class="cls-10" x="1171.04" y="955.6" width="23.62" height="23.62"/>
          <rect class="cls-10" x="1284.8" y="728.83" width="23.62" height="23.62"/>
          <rect class="cls-10" x="1352.82" y="757.8" width="23.62" height="23.62"/>
          <rect class="cls-10" x="1386.23" y="931.99" width="23.62" height="23.62"/>
          <rect class="cls-10" x="1070.75" y="955.6" width="23.62" height="23.62"/>
          <rect class="cls-10" x="1065.63" y="854.65" width="23.62" height="23.62"/>
          <g>
            <polygon class="cls-4" points="1276.04 846.41 1231.95 869.71 1187.87 846.41 1231.95 823.11 1276.04 846.41"/>
            <polygon class="cls-9" points="1187.87 846.41 1187.87 894.09 1231.95 917.39 1231.95 869.71 1187.87 846.41"/>
            <polygon class="cls-8" points="1275.9 846.41 1275.9 894.09 1231.82 917.39 1231.82 869.71 1275.9 846.41"/>
          </g>
        </g>
        <g>
          <polygon class="cls-7" points="891.01 154.99 855.67 137.18 891.01 119.37 891.01 154.99"/>
          <g>
            <path class="cls-9" d="M1122.77,516.63l83.5-3.37c-1.98-49.98-14.86-97.15-36.34-139.21l-74.47,37.95c16.14,31.61,25.82,67.07,27.31,104.63Z"/>
            <path class="cls-9" d="M870.11,779.68c-69.28,0-132.06-27.87-177.73-73l-58.74,59.44c60.77,60.05,144.28,97.13,236.47,97.13,5.78,0,11.53-.15,17.23-.43l-4.28-83.46c-4.29.22-8.61.33-12.95.33Z"/>
            <path class="cls-9" d="M1099.87,632.54l75.93,34.94c5.07-11.01,9.57-22.34,13.45-33.95l-79.22-26.67c-2.93,8.78-6.33,17.35-10.16,25.67Z"/>
            <path class="cls-9" d="M1005.28,740.56l44.67,70.64c40.95-25.95,75.91-60.51,102.34-101.12l-70.09-45.52c-19.86,30.53-46.14,56.5-76.92,76.01Z"/>
            <path class="cls-9" d="M1120.2,564.34c-1.65,11.08-4.01,21.92-7.05,32.47l80.27,23.32c4.05-14.07,7.21-28.53,9.42-43.29l-82.64-12.5Z"/>
            <path class="cls-9" d="M1121.53,553.91l83.08,9.03c.65-6.12,1.15-12.29,1.47-18.51l-83.46-4.37c-.24,4.65-.61,9.27-1.1,13.85Z"/>
            <path class="cls-8" d="M1083.84,391.66l70.64-44.67c-56.7-89.47-154.45-150.34-266.77-156.13l-4.37,83.46c84.42,4.35,157.89,50.1,200.5,117.35Z"/>
            <path class="cls-9" d="M626.21,593.74l-80.61,22.11c3.95,14.45,8.85,28.51,14.61,42.12l76.98-32.58c-4.33-10.22-8.01-20.79-10.98-31.66Z"/>
            <path class="cls-9" d="M893.65,778.6l7.78,83.21c35.12-3.24,68.67-11.88,99.83-25.08l-32.58-76.98c-23.41,9.92-48.64,16.41-75.03,18.85Z"/>
            <path class="cls-9" d="M617.26,526.83c0-75.87,33.42-143.93,86.34-190.28l-54.6-63.26c-70.66,61.67-115.3,152.39-115.3,253.55,0,25.9,2.93,51.11,8.47,75.33l81.46-18.71c-4.16-18.2-6.37-37.15-6.37-56.62Z"/>
            <path class="cls-9" d="M663.83,673.1l-68.17,48.34c8.62,12.14,18.03,23.68,28.15,34.55l61.18-56.93c-7.61-8.17-14.68-16.85-21.16-25.97Z"/>
            <path class="cls-9" d="M978.36,755.4l35.77,75.54c2.94-1.39,5.86-2.83,8.75-4.31l-37.95-74.47c-2.17,1.11-4.37,2.19-6.58,3.24Z"/>
            <path class="cls-9" d="M641.54,635.07l-75.54,35.77c6.4,13.49,13.67,26.49,21.74,38.91l70.14-45.44c-6.06-9.34-11.53-19.11-16.34-29.25Z"/>
            <path class="cls-9" d="M859.92,274.17l-3.37-83.5c-21.44.85-42.37,3.71-62.6,8.39l19.17,81.36c15.13-3.48,30.77-5.61,46.8-6.25Z"/>
            <path class="cls-9" d="M790.94,286.62l-26.61-79.24c-32.81,10.86-63.39,26.64-90.85,46.45l48.52,68.05c20.82-15.07,44.03-27.05,68.95-35.26Z"/>
          </g>
        </g>
        <g>
          <path class="cls-4" d="M319.99,914.86c-10.86,0-20.7,4.32-27.93,11.32l27.93,28.83v-40.15Z"/>
          <path class="cls-8" d="M285.47,989.12l32.75-23.21-27.93-28.83c-7.53,7.3-12.22,17.51-12.22,28.83,0,8.65,2.75,16.66,7.4,23.21Z"/>
          <path class="cls-9" d="M367.37,960.41c-.25-1.39-.58-2.77-.97-4.11-.17-.58-.35-1.15-.54-1.72-.42-1.24-.9-2.45-1.44-3.64-.23-.52-.47-1.03-.73-1.53-.56-1.11-1.17-2.2-1.82-3.25-.29-.46-.58-.92-.89-1.37-.76-1.11-1.57-2.19-2.43-3.22-.34-.41-.69-.81-1.05-1.21-.8-.89-1.64-1.74-2.52-2.56-.39-.36-.79-.72-1.19-1.06-.91-.79-1.86-1.53-2.84-2.24-.44-.32-.88-.63-1.33-.92-1.03-.68-2.08-1.32-3.17-1.91-.49-.26-.99-.52-1.49-.76-1.28-.63-2.61-1.19-3.96-1.68-.56-.2-1.12-.39-1.68-.57-1.32-.41-2.67-.76-4.04-1.04-.63-.13-1.27-.24-1.91-.34-1.52-.23-3.07-.38-4.64-.44-.55-.02-1.09-.04-1.64-.04-.44,0-.8.36-.8.8v39.74l-2.84,2.01-7.75,5.49-17.43,12.36-4.4,3.12c-.17.12-.29.31-.33.51-.04.21.01.42.14.6.05.07.1.14.15.2.71.98,1.46,1.92,2.25,2.83.35.4.7.8,1.06,1.19.82.88,1.68,1.71,2.56,2.51.4.36.8.71,1.21,1.05,1.04.86,2.1,1.68,3.21,2.43.45.31.92.59,1.38.88,1.06.66,2.14,1.27,3.25,1.83.5.25,1.01.5,1.52.73,1.19.54,2.41,1.01,3.65,1.43.57.19,1.14.38,1.71.54,1.34.39,2.71.73,4.09.99.65.12,1.3.21,1.96.3,1.74.23,3.5.36,5.28.37.04,0,.07,0,.11,0,.74,0,1.47-.02,2.2-.06,1.98-.11,3.92-.35,5.81-.73,1-.2,1.99-.44,2.97-.71,2.99-.83,5.84-1.99,8.52-3.44,2.72-1.48,5.25-3.26,7.55-5.3,1.3-1.14,2.52-2.37,3.66-3.66,2.03-2.3,3.82-4.83,5.3-7.55,1.45-2.67,2.61-5.53,3.44-8.51.27-.98.51-1.97.72-2.97.38-1.89.63-3.83.73-5.81.04-.73.06-1.46.06-2.2,0-.04,0-.08,0-.11,0-1.79-.14-3.55-.36-5.28-.09-.66-.19-1.31-.31-1.95Z"/>
        </g>
        <g>
          <rect class="cls-10" x="584.03" y="851.7" width="88.33" height="145.82"/>
          <rect class="cls-9" x="597.02" y="866.34" width="62.35" height="106.85"/>
          <path class="cls-9" d="M622.46,987.57c0-3.17,2.57-5.74,5.74-5.74s5.74,2.57,5.74,5.74-2.57,5.74-5.74,5.74-5.74-2.57-5.74-5.74Z"/>
          <rect class="cls-4" x="604.97" y="874.58" width="11.47" height="11.47"/>
          <rect class="cls-4" x="622.46" y="874.58" width="11.47" height="11.47"/>
          <rect class="cls-4" x="639.95" y="874.58" width="11.47" height="11.47"/>
          <rect class="cls-4" x="604.97" y="890.76" width="11.47" height="11.47"/>
          <rect class="cls-4" x="622.46" y="890.76" width="11.47" height="11.47"/>
          <rect class="cls-4" x="639.95" y="890.76" width="11.47" height="11.47"/>
          <rect class="cls-4" x="604.97" y="906.94" width="11.47" height="11.47"/>
          <rect class="cls-4" x="622.46" y="906.94" width="11.47" height="11.47"/>
          <rect class="cls-4" x="639.95" y="906.94" width="11.47" height="11.47"/>
          <rect class="cls-4" x="604.97" y="923.12" width="11.47" height="11.47"/>
          <rect class="cls-4" x="622.46" y="923.12" width="11.47" height="11.47"/>
          <rect class="cls-4" x="604.97" y="939.44" width="11.47" height="11.47"/>
          <rect class="cls-4" x="622.46" y="939.44" width="11.47" height="11.47"/>
          <rect class="cls-4" x="639.95" y="923.12" width="11.47" height="11.47"/>
          <rect class="cls-8" x="604.97" y="956.14" width="46.45" height="9.86"/>
          <path class="cls-2" d="M667.22,978.9h-76.29l-.81-118.63h76.29l.81,118.63ZM592.67,977.15h72.79l-.79-115.13h-72.79l.79,115.13Z"/>
        </g>
        <g>
          <rect class="cls-7" x="1442.21" y="710.29" width="15.65" height="20.79" transform="translate(-84.89 1236.43) rotate(-45)"/>
          <path class="cls-8" d="M1447.63,647.11c19.65,19.65,19.65,51.51,0,71.16-19.65,19.65-51.51,19.65-71.16,0-19.65-19.65-19.65-51.51,0-71.16,19.65-19.65,51.51-19.65,71.16,0Z"/>
          <path class="cls-10" d="M1437.2,657.54c13.89,13.89,13.89,36.42,0,50.31-13.89,13.89-36.42,13.89-50.31,0-13.89-13.89-13.89-36.42,0-50.31,13.89-13.89,36.42-13.89,50.31,0Z"/>
          <rect class="cls-8" x="1448.72" y="726.3" width="25.69" height="11.81" transform="translate(-89.66 1247.95) rotate(-45)"/>
          <rect class="cls-4" x="1477.55" y="727.46" width="19.46" height="60.92" transform="translate(-100.31 1273.68) rotate(-45)"/>
          <path class="cls-10" d="M1412.05,727.87c-11.57,0-23.15-4.41-31.96-13.22-17.62-17.62-17.62-46.3,0-63.92,17.62-17.62,46.3-17.62,63.92,0,17.62,17.62,17.62,46.3,0,63.92-8.81,8.81-20.39,13.22-31.96,13.22ZM1412.05,639.26c-11.13,0-22.25,4.24-30.72,12.71-16.94,16.94-16.94,44.51,0,61.45,16.94,16.94,44.51,16.94,61.45,0,16.94-16.94,16.94-44.51,0-61.45-8.47-8.47-19.6-12.71-30.72-12.71Z"/>
        </g>
        <g>
          <g>
            <path class="cls-8" d="M318.91,258.91c0,2.93-2.38,5.31-5.31,5.31s-5.31-2.38-5.31-5.31,2.38-5.31,5.31-5.31,5.31,2.38,5.31,5.31Z"/>
            <path class="cls-8" d="M343.94,258.91c0,2.93-2.38,5.31-5.31,5.31s-5.31-2.38-5.31-5.31,2.38-5.31,5.31-5.31,5.31,2.38,5.31,5.31Z"/>
            <path class="cls-8" d="M378.85,303.95c0,2.93-2.38,5.31-5.31,5.31s-5.31-2.38-5.31-5.31,2.38-5.31,5.31-5.31,5.31,2.38,5.31,5.31Z"/>
            <path class="cls-8" d="M460.06,263.47c0,2.93-2.38,5.31-5.31,5.31s-5.31-2.38-5.31-5.31,2.38-5.31,5.31-5.31,5.31,2.38,5.31,5.31Z"/>
            <path class="cls-8" d="M443.51,292.48c0,2.93-2.38,5.31-5.31,5.31s-5.31-2.38-5.31-5.31,2.38-5.31,5.31-5.31,5.31,2.38,5.31,5.31Z"/>
            <path class="cls-8" d="M378.85,278.55c0,2.93-2.38,5.31-5.31,5.31s-5.31-2.38-5.31-5.31,2.38-5.31,5.31-5.31,5.31,2.38,5.31,5.31Z"/>
            <path class="cls-8" d="M290.34,258.91c0,2.93-2.38,5.31-5.31,5.31s-5.31-2.38-5.31-5.31,2.38-5.31,5.31-5.31,5.31,2.38,5.31,5.31Z"/>
            <path class="cls-8" d="M267.02,188.6c0,2.93-2.38,5.31-5.31,5.31s-5.31-2.38-5.31-5.31,2.38-5.31,5.31-5.31,5.31,2.38,5.31,5.31Z"/>
            <path class="cls-8" d="M331.67,213.27c0,2.93-2.38,5.31-5.31,5.31s-5.31-2.38-5.31-5.31,2.38-5.31,5.31-5.31,5.31,2.38,5.31,5.31Z"/>
            <g>
              <path class="cls-8" d="M363.39,258.91c0,2.93-2.38,5.31-5.31,5.31s-5.31-2.38-5.31-5.31,2.38-5.31,5.31-5.31,5.31,2.38,5.31,5.31Z"/>
              <path class="cls-8" d="M385.03,189.75c0,2.93-2.38,5.31-5.31,5.31s-5.31-2.38-5.31-5.31,2.38-5.31,5.31-5.31,5.31,2.38,5.31,5.31Z"/>
            </g>
            <g>
              <path class="cls-8" d="M374.35,331.61c-2.93,0-5.31-2.38-5.31-5.31s2.38-5.31,5.31-5.31,5.31,2.38,5.31,5.31-2.38,5.31-5.31,5.31Z"/>
              <path class="cls-8" d="M443.51,353.25c-2.93,0-5.31-2.38-5.31-5.31s2.38-5.31,5.31-5.31,5.31,2.38,5.31,5.31-2.38,5.31-5.31,5.31Z"/>
            </g>
            <path class="cls-8" d="M322.53,368.12c0-2.93,2.38-5.31,5.31-5.31s5.31,2.38,5.31,5.31-2.38,5.31-5.31,5.31-5.31-2.38-5.31-5.31Z"/>
            <path class="cls-8" d="M297.5,368.12c0-2.93,2.38-5.31,5.31-5.31s5.31,2.38,5.31,5.31-2.38,5.31-5.31,5.31-5.31-2.38-5.31-5.31Z"/>
            <path class="cls-8" d="M278.05,368.12c0-2.93,2.38-5.31,5.31-5.31s5.31,2.38,5.31,5.31-2.38,5.31-5.31,5.31-5.31-2.38-5.31-5.31Z"/>
            <path class="cls-8" d="M351.1,368.12c0-2.93,2.38-5.31,5.31-5.31s5.31,2.38,5.31,5.31-2.38,5.31-5.31,5.31-5.31-2.38-5.31-5.31Z"/>
            <path class="cls-8" d="M374.42,438.43c0-2.93,2.38-5.31,5.31-5.31s5.31,2.38,5.31,5.31-2.38,5.31-5.31,5.31-5.31-2.38-5.31-5.31Z"/>
            <path class="cls-8" d="M307.45,449.33c0-2.93,2.38-5.31,5.31-5.31s5.31,2.38,5.31,5.31-2.38,5.31-5.31,5.31-5.31-2.38-5.31-5.31Z"/>
            <path class="cls-8" d="M309.77,413.76c0-2.93,2.38-5.31,5.31-5.31s5.31,2.38,5.31,5.31-2.38,5.31-5.31,5.31-5.31-2.38-5.31-5.31Z"/>
            <g>
              <path class="cls-8" d="M374.35,343.53c-2.93,0-5.31,2.38-5.31,5.31s2.38,5.31,5.31,5.31,5.31-2.38,5.31-5.31-2.38-5.31-5.31-5.31Z"/>
              <path class="cls-8" d="M419.98,355.8c-2.93,0-5.31,2.38-5.31,5.31s2.38,5.31,5.31,5.31,5.31-2.38,5.31-5.31-2.38-5.31-5.31-5.31Z"/>
            </g>
            <g>
              <path class="cls-8" d="M263.44,276.75c0,2.93,2.38,5.31,5.31,5.31s5.31-2.38,5.31-5.31-2.38-5.31-5.31-5.31-5.31,2.38-5.31,5.31Z"/>
              <path class="cls-8" d="M198.79,265.27c0,2.93,2.38,5.31,5.31,5.31s5.31-2.38,5.31-5.31-2.38-5.31-5.31-5.31-5.31,2.38-5.31,5.31Z"/>
            </g>
            <g>
              <path class="cls-8" d="M182.23,288.33c0,2.93,2.38,5.31,5.31,5.31s5.31-2.38,5.31-5.31-2.38-5.31-5.31-5.31-5.31,2.38-5.31,5.31Z"/>
              <path class="cls-8" d="M263.44,303.42c0,2.93,2.38,5.31,5.31,5.31s5.31-2.38,5.31-5.31-2.38-5.31-5.31-5.31-5.31,2.38-5.31,5.31Z"/>
            </g>
            <g>
              <path class="cls-8" d="M269.09,356.61c2.93,0,5.31-2.38,5.31-5.31s-2.38-5.31-5.31-5.31-5.31,2.38-5.31,5.31,2.38,5.31,5.31,5.31Z"/>
              <path class="cls-8" d="M199.93,378.26c2.93,0,5.31-2.38,5.31-5.31s-2.38-5.31-5.31-5.31-5.31,2.38-5.31,5.31,2.38,5.31,5.31,5.31Z"/>
            </g>
            <g>
              <path class="cls-8" d="M269.09,320.17c2.93,0,5.31,2.38,5.31,5.31s-2.38,5.31-5.31,5.31-5.31-2.38-5.31-5.31,2.38-5.31,5.31-5.31Z"/>
              <path class="cls-8" d="M223.46,332.43c2.93,0,5.31,2.38,5.31,5.31s-2.38,5.31-5.31,5.31-5.31-2.38-5.31-5.31,2.38-5.31,5.31-5.31Z"/>
            </g>
            <path class="cls-8" d="M256.41,437.28c0-2.93,2.38-5.31,5.31-5.31s5.31,2.38,5.31,5.31-2.38,5.31-5.31,5.31-5.31-2.38-5.31-5.31Z"/>
            <rect class="cls-10" x="269.49" y="258.54" width="104.05" height="111.15"/>
            <rect class="cls-1" x="283.26" y="273.25" width="76.51" height="81.73"/>
            <g>
              <rect class="cls-9" x="290.34" y="278.77" width="6" height="5.31"/>
              <rect class="cls-9" x="298.97" y="278.77" width="6" height="5.31"/>
              <rect class="cls-9" x="307.6" y="278.77" width="6" height="5.31"/>
              <rect class="cls-9" x="316.23" y="278.77" width="6" height="5.31"/>
              <rect class="cls-9" x="324.86" y="278.77" width="6" height="5.31"/>
              <rect class="cls-9" x="337.32" y="278.77" width="6" height="5.31"/>
              <rect class="cls-9" x="290.34" y="326.24" width="6" height="5.31"/>
              <rect class="cls-9" x="298.97" y="326.24" width="6" height="5.31"/>
              <rect class="cls-9" x="290.34" y="334.46" width="6" height="5.31"/>
              <rect class="cls-9" x="298.97" y="334.46" width="6" height="5.31"/>
              <rect class="cls-9" x="307.6" y="326.24" width="6" height="5.31"/>
              <rect class="cls-9" x="316.23" y="326.24" width="6" height="5.31"/>
              <rect class="cls-9" x="328.69" y="326.24" width="6" height="5.31"/>
              <rect class="cls-9" x="337.32" y="326.24" width="6" height="5.31"/>
              <rect class="cls-9" x="290.34" y="287.17" width="6" height="5.31"/>
              <rect class="cls-9" x="298.97" y="287.17" width="6" height="5.31"/>
              <rect class="cls-9" x="307.6" y="287.17" width="6" height="5.31"/>
              <rect class="cls-9" x="316.23" y="287.17" width="6" height="5.31"/>
              <rect class="cls-9" x="324.86" y="287.17" width="6" height="5.31"/>
              <rect class="cls-9" x="333.49" y="287.17" width="6" height="5.31"/>
              <rect class="cls-9" x="290.34" y="344.86" width="6" height="5.31"/>
              <rect class="cls-9" x="298.97" y="344.86" width="6" height="5.31"/>
              <rect class="cls-9" x="307.6" y="344.86" width="6" height="5.31"/>
              <rect class="cls-9" x="320.06" y="344.86" width="6" height="5.31"/>
              <rect class="cls-9" x="328.69" y="344.86" width="6" height="5.31"/>
              <rect class="cls-9" x="337.32" y="344.86" width="6" height="5.31"/>
              <rect class="cls-9" x="290.34" y="295.56" width="6" height="5.31"/>
              <rect class="cls-9" x="290.34" y="303.95" width="8.63" height="7.64"/>
              <rect class="cls-9" x="290.34" y="315.11" width="8.63" height="7.64"/>
              <rect class="cls-9" x="346.06" y="278.77" width="6" height="5.31"/>
              <rect class="cls-9" x="346.06" y="326.24" width="6" height="5.31"/>
              <rect class="cls-9" x="346.06" y="334.46" width="6" height="5.31"/>
              <rect class="cls-9" x="346.06" y="287.17" width="6" height="5.31"/>
              <rect class="cls-9" x="346.06" y="344.86" width="6" height="5.31"/>
              <rect class="cls-9" x="346.06" y="295.56" width="6" height="5.31"/>
              <rect class="cls-9" x="344.15" y="303.95" width="8.63" height="7.64"/>
              <rect class="cls-9" x="343.38" y="315.11" width="8.63" height="7.64"/>
              <rect class="cls-9" x="307.15" y="315.11" width="8.63" height="7.64"/>
              <rect class="cls-9" x="322.05" y="315.11" width="8.63" height="7.64"/>
              <rect class="cls-9" x="307.6" y="334.46" width="8.63" height="7.64"/>
              <rect class="cls-9" x="321.74" y="334.46" width="8.63" height="7.64"/>
              <rect class="cls-9" x="335.88" y="334.46" width="8.63" height="7.64"/>
              <rect class="cls-9" x="302.8" y="295.56" width="6" height="5.31"/>
              <rect class="cls-9" x="311.43" y="295.56" width="6" height="5.31"/>
              <rect class="cls-9" x="327.71" y="295.56" width="6" height="5.31"/>
              <rect class="cls-9" x="336.34" y="295.56" width="6" height="5.31"/>
              <rect class="cls-9" x="301.97" y="305.11" width="6" height="5.31"/>
              <rect class="cls-9" x="310.6" y="305.11" width="6" height="5.31"/>
              <rect class="cls-9" x="319.23" y="305.11" width="6" height="5.31"/>
              <rect class="cls-9" x="327.86" y="305.11" width="6" height="5.31"/>
              <rect class="cls-9" x="335.73" y="305.11" width="6" height="5.31"/>
              <rect class="cls-9" x="332.05" y="316.27" width="6" height="5.31"/>
            </g>
          </g>
          <path class="cls-8" d="M334.62,177.3c0,3.06-2.48,5.53-5.53,5.53s-5.53-2.48-5.53-5.53,2.48-5.53,5.53-5.53,5.53,2.48,5.53,5.53Z"/>
        </g>
        <g>
          <polygon class="cls-8" points="499.54 37.71 499.54 51.21 627.41 51.21 627.41 210.63 639.91 210.63 639.91 37.71 499.54 37.71"/>
          <path class="cls-9" d="M476.72,233.89h122.37v-26.95h24.34V55.2h-146.71v178.69ZM585.97,207.03h-97.62v-1.75h97.62v1.75ZM610.11,195.69h-121.76v-1.75h121.76v1.75ZM610.11,185.02h-121.76v-1.75h121.76v1.75ZM610.11,173.74h-121.76v-1.75h121.76v1.75ZM610.11,163.08h-121.76v-1.75h121.76v1.75ZM572.62,151.19v-38.09h35.04v38.09h-35.04ZM521.36,79.44h88.75v1.75h-88.75v-1.75ZM488.35,88.99h121.76v1.75h-121.76v-1.75ZM488.35,99.66h121.76v1.75h-121.76v-1.75ZM488.35,113.1h77.39v38.09h-77.39v-38.09Z"/>
          <polygon class="cls-8" points="599.09 233.89 623.43 206.94 599.09 206.94 599.09 233.89"/>
          <rect class="cls-10" x="521.36" y="79.44" width="88.75" height="1.75"/>
          <rect class="cls-10" x="488.35" y="88.99" width="121.76" height="1.75"/>
          <rect class="cls-10" x="488.35" y="99.66" width="121.76" height="1.75"/>
          <rect class="cls-10" x="488.35" y="161.33" width="121.76" height="1.75"/>
          <rect class="cls-10" x="488.35" y="171.99" width="121.76" height="1.75"/>
          <rect class="cls-10" x="488.35" y="183.27" width="121.76" height="1.75"/>
          <rect class="cls-10" x="488.35" y="193.94" width="121.76" height="1.75"/>
          <rect class="cls-10" x="488.35" y="205.28" width="97.62" height="1.75"/>
          <rect class="cls-1" x="488.35" y="113.1" width="77.39" height="38.09"/>
          <rect class="cls-4" x="572.62" y="113.1" width="35.04" height="38.09"/>
        </g>
        <g>
          <path class="cls-10" d="M159.62,348.53v-10.55h-6.08c-.24-1.91-.65-3.77-1.21-5.56l4.93-2.85-5.27-9.14-4.54,2.62c-1.24-1.62-2.63-3.12-4.17-4.47l2.45-4.25-9.14-5.27-2.31,4c-1.96-.78-4.02-1.36-6.15-1.73v-4.42h-10.55v4.42c-2.15.37-4.23.96-6.2,1.75l-2.2-3.81-9.14,5.27,2.35,4.07c-1.57,1.38-2.99,2.92-4.25,4.6l-4.19-2.42-5.27,9.14,4.65,2.69c-.58,1.86-.98,3.79-1.2,5.77h-5.61v10.55h6.25c.42,1.79,1,3.51,1.72,5.16l-5.61,3.24,5.27,9.14,6.14-3.55c1.15,1.22,2.39,2.35,3.72,3.38l-3.62,6.27,9.14,5.27,3.83-6.63c1.5.48,3.04.85,4.63,1.1v7.68h10.55v-7.82c1.56-.29,3.08-.7,4.55-1.22l3.85,6.67,9.14-5.27-3.78-6.55c1.27-1.03,2.45-2.15,3.54-3.36l6.34,3.66,5.27-9.14-6-3.46c.66-1.6,1.18-3.27,1.57-5h6.58ZM146.59,341.81c0,13.11-10.62,23.73-23.73,23.73s-23.73-10.62-23.73-23.73,10.62-23.73,23.73-23.73,23.73,10.62,23.73,23.73Z"/>
          <path class="cls-10" d="M122.86,322.21c-10.82,0-19.6,8.78-19.6,19.6s8.78,19.6,19.6,19.6,19.6-8.78,19.6-19.6-8.78-19.6-19.6-19.6ZM122.86,358.01c-8.95,0-16.2-7.25-16.2-16.2s7.25-16.2,16.2-16.2,16.2,7.25,16.2,16.2-7.25,16.2-16.2,16.2Z"/>
        </g>
        <g>
          <path class="cls-8" d="M936.83,104.61c0,4.55,3.69,8.24,8.24,8.24s8.25-3.69,8.25-8.24-3.69-8.25-8.25-8.25-8.24,3.69-8.24,8.25Z"/>
          <path class="cls-8" d="M922.19,89.11l8.45,7.51c3.41-4.53,8.57-7.41,14.32-7.41s11.29,3.11,14.69,7.93l8.53-7.39c-5.39-7.6-13.79-12.49-23.22-12.49s-17.36,4.62-22.77,11.86Z"/>
          <path class="cls-8" d="M908.83,77.25l8.45,7.51c6.52-8.89,16.5-14.6,27.67-14.6s21.68,6.01,28.18,15.3l8.54-7.39c-8.49-12.06-21.78-19.85-36.71-19.85s-27.62,7.44-36.13,19.04Z"/>
        </g>
        <g>
          <rect class="cls-8" x="1478.43" y="540.98" width="24.34" height="16.08"/>
          <rect class="cls-9" x="1478.43" y="519.55" width="24.34" height="16.08"/>
          <rect class="cls-3" x="1478.43" y="563.21" width="24.34" height="50.2"/>
          <rect class="cls-8" x="1447.7" y="540.98" width="24.34" height="16.08"/>
          <rect class="cls-8" x="1447.7" y="519.55" width="24.34" height="16.08"/>
          <rect class="cls-9" x="1447.7" y="498.28" width="24.34" height="16.08"/>
          <rect class="cls-9" x="1447.7" y="476.84" width="24.34" height="16.08"/>
          <rect class="cls-3" x="1447.7" y="563.21" width="24.34" height="50.2"/>
          <rect class="cls-8" x="1509.96" y="562.81" width="24.34" height="16.08"/>
          <rect class="cls-9" x="1509.96" y="541.38" width="24.34" height="16.08"/>
          <rect class="cls-3" x="1537.6" y="597.33" width="24.34" height="16.08"/>
          <rect class="cls-3" x="1509.96" y="585.04" width="24.34" height="28.37"/>
        </g>
        <g>
          <path class="cls-10" d="M111.05,608.28l-2.59-2.35,4.7-5.18,2.59,2.35-4.7,5.18ZM118.11,600.51l-2.59-2.35,4.7-5.18,2.59,2.35-4.7,5.18ZM125.16,592.73l-2.59-2.35,4.7-5.18,2.59,2.35-4.7,5.18ZM132.22,584.96l-2.59-2.35,4.7-5.18,2.59,2.35-4.7,5.18ZM214.63,581.33l-5.79-3.93,1.97-2.9,5.79,3.93-1.97,2.9ZM219.32,578.95l-2.59-2.35,4.7-5.18,2.59,2.35-4.7,5.18ZM139.28,577.18l-2.59-2.35,4.7-5.18,2.59,2.35-4.7,5.18ZM205.95,575.43l-5.79-3.93,1.97-2.9,5.79,3.93-1.97,2.9ZM226.38,571.17l-2.59-2.35,4.7-5.18,2.59,2.35-4.7,5.18ZM197.26,569.53l-5.79-3.93,1.97-2.9,5.79,3.93-1.97,2.9ZM146.33,569.41l-2.59-2.35,4.7-5.18,2.59,2.35-4.7,5.18ZM188.58,563.63l-5.79-3.93,1.97-2.9,5.79,3.93-1.97,2.9ZM233.44,563.4l-2.59-2.35,4.7-5.18,2.59,2.35-4.7,5.18ZM153.39,561.63l-2.59-2.35,4.7-5.18,2.59,2.35-4.7,5.18ZM179.89,557.73l-5.79-3.93,1.97-2.9,5.79,3.93-1.97,2.9ZM312.96,557l-2.2-2.72,5.45-4.4,2.2,2.72-5.45,4.4ZM308.15,555.68l-4.06-5.7,2.85-2.03,4.06,5.7-2.85,2.03ZM240.49,555.62l-2.59-2.35,4.7-5.18,2.59,2.35-4.7,5.18ZM160.45,553.86l-2.59-2.35,4.7-5.18,2.59,2.35-4.7,5.18ZM171.2,551.83l-5.79-3.93,1.97-2.9,5.79,3.93-1.97,2.9ZM321.13,550.4l-2.2-2.72,5.45-4.4,2.2,2.72-5.45,4.4ZM247.55,547.85l-2.59-2.35,4.7-5.18,2.59,2.35-4.7,5.18ZM302.05,547.13l-4.06-5.7,2.85-2.03,4.06,5.7-2.85,2.03ZM329.3,543.81l-2.2-2.72,5.45-4.4,2.2,2.72-5.45,4.4ZM254.61,540.07l-2.59-2.35,4.7-5.18,2.59,2.35-4.7,5.18ZM295.96,538.58l-4.06-5.7,2.85-2.03,4.06,5.7-2.85,2.03ZM337.47,537.21l-2.2-2.72,5.45-4.4,2.2,2.72-5.45,4.4ZM261.66,532.29l-2.59-2.35,4.7-5.18,2.59,2.35-4.7,5.18ZM345.65,530.62l-2.2-2.72,5.45-4.4,2.2,2.72-5.45,4.4ZM289.86,530.03l-4.06-5.7,2.85-2.03,4.06,5.7-2.85,2.03ZM268.72,524.52l-2.59-2.35,4.7-5.18,2.59,2.35-4.7,5.18ZM283.77,521.48l-4.06-5.7,2.85-2.03,4.06,5.7-2.85,2.03ZM275.78,516.74l-2.59-2.35,4.04-4.45,2.72.16.57.8-1.25.89.55.5-4.04,4.45Z"/>
          <path class="cls-7" d="M117.02,607.11c0,4.01-3.25,7.27-7.27,7.27s-7.27-3.25-7.27-7.27,3.25-7.27,7.27-7.27,7.27,3.25,7.27,7.27Z"/>
          <circle class="cls-8" cx="164.32" cy="546.1" r="7.27"/>
          <path class="cls-8" d="M223,579.41c0,4.01-3.25,7.27-7.27,7.27s-7.27-3.25-7.27-7.27,3.25-7.27,7.27-7.27,7.27,3.25,7.27,7.27Z"/>
          <path class="cls-4" d="M285.79,511.11c0,4.01-3.25,7.27-7.27,7.27s-7.27-3.25-7.27-7.27,3.25-7.27,7.27-7.27,7.27,3.25,7.27,7.27Z"/>
          <circle class="cls-8" cx="310.85" cy="555.63" r="7.27"/>
          <path class="cls-8" d="M359.75,522.91c0,4.01-3.25,7.27-7.27,7.27s-7.27-3.25-7.27-7.27,3.25-7.27,7.27-7.27,7.27,3.25,7.27,7.27Z"/>
        </g>
        <g>
          <polygon class="cls-8" points="435.46 987.76 466.15 987.76 466.15 970.55 435.46 970.55 435.46 962.47 418.77 979.16 435.46 995.84 435.46 987.76"/>
          <polygon class="cls-8" points="474.04 942.82 443.35 942.82 443.35 960.03 474.04 960.03 474.04 968.11 490.73 951.42 474.04 934.74 474.04 942.82"/>
        </g>
        <g>
          <g>
            <polygon class="cls-9" points="1465.91 921.71 1490.43 862.39 1504.2 925.09 1465.91 921.71"/>
            <polygon class="cls-8" points="1490.43 862.39 1514.9 907.8 1504.2 925.09 1490.43 862.39"/>
            <polygon class="cls-9" points="1573.5 975.31 1598.02 915.99 1611.79 978.69 1573.5 975.31"/>
            <polygon class="cls-8" points="1598.02 915.99 1622.49 961.4 1611.79 978.69 1598.02 915.99"/>
            <polygon class="cls-1" points="1502.24 995.42 1537.89 909.17 1557.92 1000.32 1502.24 995.42"/>
            <polygon class="cls-8" points="1537.89 909.17 1573.47 975.19 1557.92 1000.32 1537.89 909.17"/>
          </g>
          <g>
            <path class="cls-10" d="M1536.52,805.91l-7.29-3.42,1.29-.79,6.05,2.85.24-6.69,1.28-.78-.28,8.05,7.37,3.46-1.29.79-6.13-2.88-.23,6.77-1.29.79.29-8.14Z"/>
            <path class="cls-10" d="M1545.78,800.25l-7.29-3.42,1.29-.79,6.05,2.85.24-6.69,1.28-.78-.28,8.05,7.37,3.46-1.29.79-6.13-2.88-.23,6.77-1.29.79.29-8.14Z"/>
            <path class="cls-10" d="M1560.15,791.47c1.66,2.72,2.3,6.81-.44,8.48-2.74,1.67-6.08-.76-7.74-3.48-1.47-2.4-2.49-6.7.44-8.48,2.92-1.79,6.28,1.08,7.74,3.48ZM1559.05,792.18c-1.17-1.92-3.71-4.55-6-3.15-2.26,1.38-1.11,4.86.04,6.73,1.26,2.06,3.75,4.51,5.99,3.14,2.23-1.36,1.16-4.77-.03-6.72Z"/>
            <path class="cls-10" d="M1560.13,785.04l-.64-1.05,1.91-1.16,7.05,11.53-1.14.7-6.41-10.49-.77.47Z"/>
          </g>
          <g>
            <path class="cls-10" d="M1598.59,846.95l-7.29-3.42,1.29-.79,6.05,2.85.24-6.69,1.28-.78-.28,8.05,7.37,3.46-1.29.79-6.13-2.88-.23,6.77-1.29.79.29-8.14Z"/>
            <path class="cls-10" d="M1607.84,841.3l-7.29-3.42,1.29-.79,6.05,2.85.24-6.69,1.28-.78-.28,8.05,7.37,3.46-1.29.79-6.13-2.88-.23,6.77-1.29.79.29-8.14Z"/>
            <path class="cls-10" d="M1622.22,832.51c1.66,2.72,2.3,6.81-.44,8.48-2.74,1.67-6.08-.76-7.75-3.48-1.47-2.4-2.49-6.7.44-8.48,2.92-1.78,6.28,1.08,7.74,3.48ZM1621.12,833.23c-1.17-1.92-3.71-4.55-6-3.15-2.26,1.38-1.11,4.86.04,6.73,1.26,2.06,3.75,4.51,5.99,3.14,2.23-1.36,1.16-4.77-.03-6.72Z"/>
            <path class="cls-10" d="M1634.21,831.71l.64,1.05-7.24,4.43,1.26-7.99c.22-1.36.52-2.87-.23-4.1-.84-1.37-2.49-1.75-3.82-.94-1.45.88-1.64,2.5-.85,3.94l-1.14.7c-1.15-2.06-.7-4.43,1.31-5.66,1.94-1.18,4.39-.72,5.62,1.28,1.06,1.74.54,3.75.26,5.61l-.73,4.71,4.92-3.01Z"/>
          </g>
          <g>
            <path class="cls-10" d="M1635.28,867.94l-7.29-3.42,1.29-.79,6.05,2.85.24-6.69,1.28-.78-.28,8.05,7.37,3.46-1.29.79-6.13-2.88-.23,6.77-1.29.79.29-8.14Z"/>
            <path class="cls-10" d="M1644.54,862.29l-7.29-3.42,1.29-.79,6.05,2.85.24-6.69,1.28-.78-.28,8.05,7.37,3.46-1.29.79-6.13-2.88-.23,6.77-1.29.79.29-8.14Z"/>
            <path class="cls-10" d="M1658.91,853.5c1.66,2.72,2.3,6.81-.44,8.48-2.74,1.67-6.08-.76-7.74-3.48-1.47-2.4-2.49-6.7.44-8.48,2.92-1.78,6.28,1.08,7.74,3.48ZM1657.81,854.22c-1.17-1.92-3.71-4.55-6-3.15-2.26,1.38-1.11,4.86.04,6.73,1.26,2.06,3.75,4.51,5.99,3.14,2.23-1.36,1.16-4.77-.03-6.72Z"/>
            <path class="cls-10" d="M1663.67,849.12l.31-.19c1.28-.78,1.35-2.18.78-3.12-.63-1.03-2-1.44-3.14-.74-1.06.65-1.38,2.03-.85,3.18l-1.09.67c-.93-1.76-.27-3.93,1.3-4.89,1.65-1.01,3.87-.51,4.87,1.12.66,1.08.57,2.29.21,3.17,1.56-.04,2.93.72,3.67,1.92,1.17,1.91.54,4.55-1.43,5.75-1.84,1.13-4.27.62-5.49-.97l1.08-.66c.98,1.11,2.55,1.34,3.78.58,1.35-.83,1.86-2.62.99-4.05-.9-1.48-2.7-1.73-4.03-.92l-.31.19-.64-1.05Z"/>
          </g>
        </g>
        <path class="cls-2" d="M525.47,311.03c-15.05,0-27.25,12.2-27.25,27.25s12.2,27.25,27.25,27.25,27.25-12.2,27.25-27.25-12.2-27.25-27.25-27.25ZM525.47,361.91c-13.05,0-23.63-10.58-23.63-23.63s10.58-23.63,23.63-23.63,23.63,10.58,23.63,23.63-10.58,23.63-23.63,23.63Z"/>
        <path class="cls-8" d="M1630.6,514.37c-11.94,0-21.62,9.68-21.62,21.62s9.68,21.62,21.62,21.62,21.62-9.68,21.62-21.62-9.68-21.62-21.62-21.62ZM1630.6,554.75c-10.36,0-18.75-8.39-18.75-18.75s8.39-18.75,18.75-18.75,18.75,8.4,18.75,18.75-8.39,18.75-18.75,18.75Z"/>
        <path class="cls-2" d="M343.82,88c-11.94,0-21.62,9.68-21.62,21.62s9.68,21.62,21.62,21.62,21.62-9.68,21.62-21.62-9.68-21.62-21.62-21.62ZM343.82,128.37c-10.36,0-18.75-8.4-18.75-18.75s8.4-18.75,18.75-18.75,18.75,8.4,18.75,18.75-8.4,18.75-18.75,18.75Z"/>
        <g>
          <circle class="cls-2" cx="1426.1" cy="991.53" r="12.19"/>
          <g class="cls-12">
            <path class="cls-2" d="M1426.1,1003.73c-6.73,0-12.19-5.46-12.19-12.19s5.46-12.19,12.19-12.19v24.39Z"/>
          </g>
        </g>
        <g>
          <path class="cls-2" d="M286.35,88.69c0-6.74,5.46-12.19,12.19-12.19s12.19,5.46,12.19,12.19-5.46,12.19-12.19,12.19-12.19-5.46-12.19-12.19Z"/>
          <g class="cls-12">
            <path class="cls-2" d="M298.54,100.88c-6.73,0-12.19-5.46-12.19-12.19s5.46-12.19,12.19-12.19v24.39Z"/>
          </g>
        </g>
        <path class="cls-2" d="M206.92,680.94h-70.85v-70.85h70.85v70.85ZM140.44,676.57h62.11v-62.11h-62.11v62.11Z"/>
        <path class="cls-8" d="M85.63,375.75c.47-1.37.77-2.82.89-4.3l-2.97-1.44c0-.48-.01-.96-.06-1.45-.01-.17-.04-.33-.05-.5l2.79-1.76c-.29-1.47-.75-2.86-1.36-4.17l-3.3.24c-.32-.57-.68-1.12-1.07-1.64l1.53-2.92c-.97-1.1-2.07-2.09-3.27-2.93l-2.73,1.85c-.56-.33-1.14-.63-1.75-.89l-.13-3.29c-1.37-.47-2.81-.77-4.3-.9l-1.44,2.97c-.48,0-.96.01-1.45.06-.17.02-.34.04-.5.06l-1.76-2.79c-1.47.29-2.87.75-4.18,1.37l.24,3.3c-.57.32-1.12.68-1.64,1.07l-2.92-1.54c-1.1.97-2.09,2.07-2.93,3.27l1.85,2.73c-.33.56-.63,1.14-.89,1.75l-3.29.13c-.47,1.37-.77,2.81-.89,4.3l2.97,1.44c0,.48.01.96.05,1.45.01.17.04.33.06.5l-2.79,1.76c.29,1.46.75,2.86,1.37,4.17l3.29-.24c.32.57.68,1.12,1.07,1.64l-1.53,2.92c.97,1.11,2.07,2.09,3.27,2.93l2.73-1.85c.56.33,1.14.63,1.74.89l.13,3.29c1.37.47,2.81.77,4.3.9l1.44-2.97c.48,0,.96-.01,1.45-.06.17-.01.33-.04.5-.06l1.76,2.8c1.47-.29,2.87-.75,4.17-1.37l-.24-3.3c.57-.32,1.12-.68,1.64-1.07l2.92,1.53c1.1-.97,2.09-2.07,2.93-3.27l-1.85-2.73c.33-.56.63-1.14.89-1.74l3.29-.13ZM68.95,377.4c-4.15.36-7.81-2.71-8.17-6.86-.36-4.15,2.71-7.81,6.86-8.17,4.15-.36,7.81,2.71,8.18,6.86.36,4.15-2.71,7.82-6.86,8.17Z"/>
        <g>
          <rect class="cls-9" x="1557.02" y="662.11" width="99.89" height="64.83"/>
          <polygon class="cls-3" points="1606.97 701.54 1557.02 670.96 1557.02 668.83 1606.97 699.41 1656.91 668.83 1656.91 670.96 1606.97 701.54"/>
          <polygon class="cls-3" points="1557.02 726.94 1557.02 725.65 1592.12 690.93 1593.4 692.23 1558.32 726.94 1557.02 726.94"/>
          <polygon class="cls-3" points="1656.91 726.94 1655.93 726.94 1620.85 692.23 1622.13 690.93 1656.91 725.34 1656.91 726.94"/>
        </g>
        <g>
          <rect class="cls-10" x="679.1" y="115.22" width="81.73" height="47.09"/>
          <polygon class="cls-8" points="701.68 107.11 701.68 101.98 681.8 101.98 681.8 107.11 681.8 109.07 681.8 115.22 687.27 115.22 687.27 109.99 752.66 109.99 752.66 115.22 758.13 115.22 758.13 107.11 701.68 107.11"/>
        </g>
        <g>
          <rect class="cls-8" x="1422.68" y="248.56" width="255.34" height="167.44"/>
          <rect class="cls-9" x="1444.81" y="271.44" width="211.08" height="121.67"/>
          <polygon class="cls-4" points="1562.31 385.29 1546.97 294.52 1528.08 334.93 1482.26 334.93 1482.26 330.03 1524.96 330.03 1549.19 278.22 1563.35 362.04 1574.56 319.36 1618.44 319.36 1618.44 324.26 1578.34 324.26 1562.31 385.29"/>
          <rect class="cls-10" x="1512.27" y="416" width="76.15" height="21.52"/>
          <rect class="cls-8" x="1489.92" y="437.51" width="120.86" height="11.61"/>
          <path class="cls-2" d="M1665.28,403.25h-229.86v-141.95h229.86v141.95ZM1437.17,401.5h226.36v-138.45h-226.36v138.45Z"/>
        </g>
        <g>
          <path class="cls-2" d="M870.58,899.47c-10.36,0-18.76,8.4-18.76,18.76s8.4,18.76,18.76,18.76,18.76-8.4,18.76-18.76-8.4-18.76-18.76-18.76ZM870.58,934.5c-8.99,0-16.27-7.28-16.27-16.27s7.29-16.27,16.27-16.27,16.27,7.28,16.27,16.27-7.29,16.27-16.27,16.27Z"/>
          <g>
            <path class="cls-10" d="M785.37,929.91c-22.61,0-40.94,18.33-40.94,40.94s18.33,40.94,40.94,40.94,40.94-18.33,40.94-40.94-18.33-40.94-40.94-40.94ZM785.37,1005.77c-19.29,0-34.92-15.63-34.92-34.92s15.63-34.92,34.92-34.92,34.92,15.63,34.92,34.92-15.63,34.92-34.92,34.92Z"/>
            <circle class="cls-9" cx="785.37" cy="970.85" r="29.38" transform="translate(-265.37 1645.59) rotate(-83.74)"/>
            <g>
              <rect class="cls-10" x="784.13" y="941.15" width="2.74" height="7.56"/>
              <rect class="cls-10" x="771.15" y="944.56" width="2.74" height="7.56" transform="translate(-370.6 513.14) rotate(-29.99)"/>
              <rect class="cls-10" x="761.62" y="954" width="2.74" height="7.56" transform="translate(-447.97 1139.6) rotate(-60)"/>
              <rect class="cls-10" x="755.67" y="969.35" width="7.56" height="2.74"/>
              <rect class="cls-10" x="759.08" y="982.33" width="7.56" height="2.74" transform="translate(-389.65 513.24) rotate(-30)"/>
              <rect class="cls-10" x="768.53" y="991.86" width="7.56" height="2.74" transform="translate(-474.01 1165.46) rotate(-60)"/>
              <rect class="cls-10" x="783.88" y="992.98" width="2.74" height="7.56"/>
              <rect class="cls-10" x="796.85" y="989.57" width="2.74" height="7.56" transform="translate(-389.75 532.25) rotate(-30)"/>
              <rect class="cls-10" x="806.39" y="980.13" width="2.74" height="7.56" transform="translate(-448.2 1191.57) rotate(-60)"/>
              <rect class="cls-10" x="807.51" y="969.6" width="7.56" height="2.74"/>
              <rect class="cls-10" x="804.1" y="956.62" width="7.56" height="2.74" transform="translate(-370.77 532.32) rotate(-30)"/>
              <rect class="cls-10" x="794.66" y="947.09" width="7.56" height="2.74" transform="translate(-422.17 1165.71) rotate(-60)"/>
            </g>
            <path class="cls-10" d="M785.37,1004.07c-18.32,0-33.22-14.9-33.22-33.22s14.9-33.22,33.22-33.22,33.22,14.9,33.22,33.22-14.9,33.22-33.22,33.22ZM785.37,939.37c-17.35,0-31.47,14.12-31.47,31.47s14.12,31.47,31.47,31.47,31.47-14.12,31.47-31.47-14.12-31.47-31.47-31.47Z"/>
            <rect class="cls-4" x="783.35" y="964.81" width="20.04" height="2.74" transform="translate(-360.45 484.88) rotate(-27.97)"/>
            <path class="cls-10" d="M780.35,971.29c0-2.47,2.01-4.48,4.48-4.48s4.48,2.01,4.48,4.48-2.01,4.48-4.48,4.48-4.48-2-4.48-4.48Z"/>
          </g>
          <path class="cls-10" d="M893.1,973.7h-7v-3.5h7v3.5ZM882.6,973.7h-7v-3.5h7v3.5ZM872.1,973.7h-7v-3.5h7v3.5ZM861.6,973.7h-7v-3.5h7v3.5ZM851.1,973.7h-7v-3.5h7v3.5ZM840.6,973.7h-7v-3.5h7v3.5Z"/>
          <g>
            <rect class="cls-1" x="891.93" y="949.29" width="112.34" height="46.09"/>
            <rect class="cls-10" x="899.09" y="956.97" width="98" height="30.74"/>
            <g>
              <g>
                <polygon class="cls-2" points="928.38 963.48 928.38 963.48 928.38 970.22 928.38 970.22 929.54 971.79 930.69 970.22 930.7 970.22 930.7 970.21 930.7 963.49 930.7 963.48 930.69 963.48 929.54 961.91 928.38 963.48"/>
                <polygon class="cls-2" points="928.43 974.11 928.43 974.11 928.43 980.85 928.43 980.85 929.59 982.42 930.74 980.85 930.75 980.85 930.75 980.84 930.75 980.84 930.75 980.84 930.75 974.12 930.75 974.12 930.75 974.12 930.75 974.11 930.74 974.11 929.59 972.54 928.43 974.11"/>
                <polygon class="cls-2" points="939.2 963.48 939.19 963.48 939.19 970.22 939.2 970.22 940.36 971.79 941.51 970.22 941.52 970.22 941.52 970.21 941.52 963.49 941.52 963.48 941.51 963.48 940.36 961.91 939.2 963.48"/>
                <polygon class="cls-2" points="939.25 974.11 939.24 974.11 939.24 980.85 939.25 980.85 940.41 982.42 941.56 980.85 941.57 980.85 941.57 980.84 941.57 980.84 941.57 980.84 941.57 974.12 941.57 974.12 941.57 974.12 941.57 974.11 941.56 974.11 940.41 972.54 939.25 974.11"/>
                <path class="cls-2" d="M931.59,960.62h0s0,0,0,0ZM938.31,960.62h-6.73s-1.57,1.16-1.57,1.16l1.57,1.16h0s6.74,0,6.74,0h0s1.57-1.16,1.57-1.16l-1.57-1.15h0s0,0,0,0h0s0,0,0,0Z"/>
                <path class="cls-2" d="M931.44,981.63h0s0,0,0,0ZM938.16,981.63h-6.73s-1.57,1.16-1.57,1.16l1.57,1.16h0s6.74,0,6.74,0h0s1.57-1.17,1.57-1.17l-1.57-1.15h0s0,0,0,0h0s0,0,0,0Z"/>
              </g>
              <g>
                <polygon class="cls-2" points="958.43 963.48 958.42 963.48 958.42 970.22 958.43 970.22 959.58 971.79 960.74 970.22 960.74 970.22 960.74 970.21 960.74 963.49 960.74 963.48 960.74 963.48 959.58 961.91 958.43 963.48"/>
                <polygon class="cls-2" points="958.47 974.11 958.47 974.11 958.47 980.85 958.47 980.85 959.63 982.42 960.78 980.85 960.79 980.85 960.79 980.84 960.79 980.84 960.79 980.84 960.79 974.12 960.79 974.12 960.79 974.12 960.79 974.11 960.78 974.11 959.63 972.54 958.47 974.11"/>
                <polygon class="cls-2" points="969.24 963.48 969.24 963.48 969.24 970.22 969.25 970.22 970.4 971.79 971.55 970.22 971.56 970.22 971.56 970.21 971.56 963.49 971.56 963.48 971.55 963.48 970.4 961.91 969.24 963.48"/>
                <polygon class="cls-2" points="969.29 974.11 969.28 974.11 969.28 980.85 969.29 980.85 970.45 982.42 971.6 980.85 971.61 980.85 971.61 980.84 971.61 980.84 971.61 980.84 971.61 974.12 971.61 974.12 971.61 974.12 971.61 974.11 971.6 974.11 970.45 972.54 969.29 974.11"/>
                <path class="cls-2" d="M961.63,960.62h0s0,0,0,0ZM968.35,960.62h-6.73s-1.57,1.16-1.57,1.16l1.57,1.16h0s6.74,0,6.74,0h0s1.57-1.16,1.57-1.16l-1.57-1.15h0s0,0,0,0h0s0,0,0,0Z"/>
                <path class="cls-2" d="M961.48,981.63h0s0,0,0,0ZM968.2,981.63h-6.73s-1.57,1.16-1.57,1.16l1.57,1.16h0s6.74,0,6.74,0h0s1.57-1.17,1.57-1.17l-1.57-1.15h0s0,0,0,0h0s0,0,0,0Z"/>
              </g>
              <g>
                <polygon class="cls-2" points="903.83 963.48 903.82 963.48 903.82 970.22 903.83 970.22 904.98 971.79 906.14 970.22 906.14 970.22 906.14 970.21 906.14 963.49 906.14 963.48 906.14 963.48 904.98 961.91 903.83 963.48"/>
                <polygon class="cls-2" points="903.88 974.11 903.87 974.11 903.87 980.85 903.88 980.85 905.03 982.42 906.18 980.85 906.19 980.85 906.19 980.84 906.19 980.84 906.19 980.84 906.19 974.12 906.19 974.12 906.19 974.12 906.19 974.11 906.19 974.11 905.03 972.54 903.88 974.11"/>
                <polygon class="cls-2" points="914.64 963.48 914.64 963.48 914.64 970.22 914.65 970.22 915.8 971.79 916.96 970.22 916.96 970.22 916.96 970.21 916.96 963.49 916.96 963.48 916.96 963.48 915.8 961.91 914.64 963.48"/>
                <polygon class="cls-2" points="914.69 974.11 914.68 974.11 914.68 980.85 914.69 980.85 915.85 982.42 917 980.85 917.01 980.85 917.01 980.84 917.01 980.84 917.01 980.84 917.01 974.12 917.01 974.12 917.01 974.12 917.01 974.11 917 974.11 915.85 972.54 914.69 974.11"/>
                <path class="cls-2" d="M907.03,960.62h0s0,0,0,0ZM913.75,960.62h-6.73s-1.57,1.16-1.57,1.16l1.57,1.16h0s6.74,0,6.74,0h0s1.57-1.16,1.57-1.16l-1.57-1.15h0s0,0,0,0h0s0,0,0,0Z"/>
                <path class="cls-2" d="M906.89,981.63h0s0,0,0,0ZM913.61,981.63h-6.73s-1.57,1.16-1.57,1.16l1.57,1.16h0s6.74,0,6.74,0h0s1.57-1.17,1.57-1.17l-1.57-1.15h0s0,0,0,0h0s0,0,0,0Z"/>
              </g>
              <g>
                <polygon class="cls-2" points="921.52 962.46 921.51 962.46 921.51 970.09 921.52 970.09 922.67 971.86 923.83 970.09 923.83 970.09 923.83 970.08 923.83 962.48 923.83 962.47 923.83 962.46 923.83 962.46 922.67 960.69 921.52 962.46"/>
                <path class="cls-2" d="M923.88,982.1h0,0ZM921.57,974.48h-.01v7.63h.01l1.16,1.77,1.15-1.77h0v-7.61h0,0s0-.01,0-.01l-1.15-1.78-1.16,1.78Z"/>
              </g>
              <g>
                <polygon class="cls-2" points="945.26 962.46 945.25 962.46 945.25 970.09 945.26 970.09 946.41 971.86 947.57 970.09 947.58 970.09 947.58 970.08 947.58 962.48 947.58 962.47 947.58 962.46 947.57 962.46 946.41 960.69 945.26 962.46"/>
                <path class="cls-2" d="M947.62,982.1h0,0ZM945.31,974.48h-.01v7.63h.01l1.16,1.77,1.15-1.77h0v-7.61h0,0s0-.01,0-.01l-1.15-1.78-1.16,1.78Z"/>
              </g>
              <g>
                <polygon class="cls-2" points="952.27 962.46 952.26 962.46 952.26 970.09 952.27 970.09 953.42 971.86 954.58 970.09 954.58 970.09 954.58 970.08 954.58 962.48 954.58 962.47 954.58 962.46 954.58 962.46 953.42 960.69 952.27 962.46"/>
                <path class="cls-2" d="M954.63,982.1h0,0ZM952.32,974.48h-.01v7.63h.01l1.16,1.77,1.15-1.77h0v-7.61h0,0s0-.01,0-.01l-1.15-1.78-1.16,1.78Z"/>
              </g>
              <g>
                <polygon class="cls-2" points="975.69 962.46 975.69 962.46 975.69 970.09 975.7 970.09 976.85 971.86 978.01 970.09 978.01 970.09 978.01 970.08 978.01 962.48 978.01 962.47 978.01 962.46 978.01 962.46 976.85 960.69 975.69 962.46"/>
                <path class="cls-2" d="M978.06,982.1h0,0ZM975.75,974.48h-.01v7.63h.01l1.16,1.77,1.15-1.77h0v-7.61h0,0s0-.01,0-.01l-1.15-1.78-1.16,1.78Z"/>
              </g>
              <g>
                <polygon class="cls-2" points="983.03 962.46 983.02 962.46 983.02 970.09 983.03 970.09 984.19 971.86 985.34 970.09 985.35 970.09 985.35 970.08 985.35 962.48 985.35 962.47 985.35 962.46 985.34 962.46 984.19 960.69 983.03 962.46"/>
                <path class="cls-2" d="M985.4,982.1h0,0ZM983.08,974.48h-.01v7.63h.01l1.16,1.77,1.15-1.77h0v-7.61h0,0s0-.01,0-.01l-1.15-1.78-1.16,1.78Z"/>
              </g>
              <g>
                <polygon class="cls-2" points="990.62 962.46 990.62 962.46 990.62 970.09 990.63 970.09 991.78 971.86 992.94 970.09 992.94 970.09 992.94 970.08 992.94 962.48 992.94 962.47 992.94 962.46 992.94 962.46 991.78 960.69 990.62 962.46"/>
                <path class="cls-2" d="M992.99,982.1h0,0ZM990.67,974.48h-.01v7.63h.01l1.16,1.77,1.15-1.77h0v-7.61h0,0s0-.01,0-.01l-1.15-1.78-1.16,1.78Z"/>
              </g>
            </g>
          </g>
          <path class="cls-10" d="M812.03,1013.12l-1.87-2.96c13.58-8.58,21.68-23.28,21.68-39.32,0-25.63-20.85-46.47-46.47-46.47v-3.5c27.56,0,49.97,22.42,49.97,49.97,0,17.25-8.72,33.05-23.32,42.28Z"/>
          <circle class="cls-7" cx="834.61" cy="971.95" r="5.99"/>
        </g>
        <path class="cls-10" d="M112.65,180.31c0,29.84,23.72,54.23,53.29,55.34.07.05.13.1.2.15l.1-.14c.6.02,1.21.05,1.81.05.8,0,1.6-.03,2.4-.06l.11.16c.07-.05.14-.11.22-.16,29.29-1.43,52.67-25.7,52.67-55.33s-23.39-53.9-52.67-55.33c-.07-.05-.14-.11-.22-.16l-.11.15c-.8-.03-1.59-.06-2.4-.06-.61,0-1.21.03-1.81.05l-.1-.14c-.07.05-.13.1-.2.15-29.57,1.12-53.29,25.5-53.29,55.34ZM207.96,146.03c-4.25,3.43-8.83,6.25-13.62,8.45-4.15-10.15-10.77-19.17-19.51-26.38,13.19,1.71,24.86,8.31,33.13,17.92ZM220.69,180.8h-21.32c0-.17.01-.33.01-.49,0-8.12-1.4-15.96-4.04-23.26,5.05-2.31,9.88-5.27,14.36-8.89,6.89,8.9,11,20.05,11,32.15,0,.16,0,.33-.01.49ZM208.04,214.49c-4.32-3.26-8.98-5.93-13.84-8.02,2.97-7.17,4.72-14.89,5.08-22.95h21.31c-.72,11.79-5.32,22.52-12.55,30.96ZM174.83,232.51c7.92-6.52,14.1-14.53,18.27-23.52,4.6,1.97,9,4.48,13.1,7.55-8.13,8.56-19.09,14.39-31.37,15.97ZM169.42,203.75c7.19.24,14.35,1.64,21.13,4.21-4.57,9.77-11.6,18.33-20.72,24.96-.14,0-.27,0-.41.01v-29.18ZM169.42,183.52h27.12c-.36,7.71-2.04,15.09-4.88,21.93-7.14-2.72-14.67-4.19-22.24-4.44v-17.5ZM169.42,163.11c7.97-.26,15.9-1.91,23.39-4.97,2.5,6.97,3.82,14.43,3.82,22.17,0,.16-.01.32-.01.48l-27.2-.02v-17.66ZM169.42,127.69c.14,0,.27,0,.41,0,10.02,7.28,17.52,16.89,21.99,27.87-7.18,2.94-14.77,4.53-22.4,4.79v-32.67ZM166.67,160.4c-7.5-.06-14.98-1.42-22.12-4.07,4.41-11.23,11.96-21.05,22.12-28.48v32.56ZM166.67,180.77l-26.61-.02c0-.15-.01-.3-.01-.45,0-7.46,1.24-14.66,3.57-21.41,7.44,2.77,15.24,4.19,23.06,4.25v17.62ZM166.67,200.98c-7.43.06-14.85,1.31-21.93,3.76-2.67-6.66-4.25-13.8-4.6-21.24h26.53v17.48ZM145.8,207.27c6.74-2.31,13.8-3.5,20.87-3.56v29.06c-9.25-6.77-16.35-15.52-20.87-25.51ZM129.23,215.84c4.38-3.15,9.08-5.69,13.99-7.61,4.2,9.35,10.55,17.65,18.75,24.37-12.9-1.49-24.39-7.65-32.73-16.76ZM115.5,183.49h21.9c.35,7.78,1.98,15.25,4.76,22.21-5.18,2.03-10.14,4.72-14.75,8.07-6.88-8.34-11.23-18.82-11.92-30.28ZM125.78,148.96c4.77,3.7,9.92,6.68,15.28,8.93-2.45,7.07-3.75,14.61-3.75,22.42,0,.15.01.3.01.45h-21.92c0-.16-.01-.3-.01-.45,0-11.74,3.86-22.59,10.38-31.35ZM127.47,146.8c8.45-10.21,20.66-17.17,34.49-18.77-9.03,7.41-15.81,16.76-19.95,27.29-5.11-2.15-9.99-4.99-14.54-8.51Z"/>
        <path class="cls-4" d="M99,440.43c-18.32,0-33.18,14.86-33.18,33.18s14.85,33.18,33.18,33.18,33.18-14.85,33.18-33.18-14.86-33.18-33.18-33.18ZM94.91,444.42h8.03v24.35h-8.03v-24.35ZM99,500.06c-14.57,0-26.43-11.86-26.43-26.43,0-11.6,7.52-21.47,17.94-25.02v7.19c-6.65,3.18-11.26,9.98-11.26,17.83,0,10.89,8.86,19.75,19.75,19.75s19.75-8.86,19.75-19.75c0-7.85-4.61-14.65-11.26-17.83v-7.19c10.42,3.55,17.94,13.42,17.94,25.02,0,14.57-11.86,26.43-26.43,26.43Z"/>
        <g>
          <path d="M426.55,490.63h-30.21v104.8h-10.79v-104.8h-30.36v-10.79h71.36v10.79Z"/>
          <path d="M451.67,490.63v32.37h41.61v10.79h-41.61v50.86h47.62v10.79h-58.88v-115.59h58.88v10.79h-47.62Z"/>
          <path d="M616.58,579.1c-10.94,11.56-26.82,17.88-42.54,17.88-32.67,0-59.34-26.66-59.34-59.34s26.66-59.34,59.34-59.34c15.57,0,31.6,6.32,42.38,17.72l-7.71,7.24c-11.1-10.48-23.12-14.18-34.68-14.18-26.66,0-48.55,21.73-48.55,48.55s21.89,48.55,48.55,48.55c11.71,0,23.27-3.7,34.68-14.18l7.86,7.09Z"/>
          <path d="M717.22,479.84v115.59h-10.79v-52.4h-60.57v52.4h-10.79v-115.59h10.79v52.4h60.57v-52.4h10.79Z"/>
          <path d="M744.35,479.84l73.05,88.93v-88.93h10.79v115.59h-2.77l-72.75-88.47v88.47h-10.79v-115.59h2.47Z"/>
          <path d="M848.23,537.64c0-32.67,26.97-59.34,59.65-59.34s59.65,26.66,59.65,59.34-26.97,59.34-59.65,59.34-59.65-26.51-59.65-59.34ZM859.02,537.64c0,26.82,22.19,48.55,48.86,48.55s48.86-21.73,48.86-48.55-22.19-48.55-48.86-48.55-48.86,21.73-48.86,48.55Z"/>
          <path d="M998.96,584.65h37.3v10.79h-48.7v-115.59h11.41v104.8Z"/>
          <path d="M1047.04,537.64c0-32.67,26.97-59.34,59.65-59.34s59.65,26.66,59.65,59.34-26.97,59.34-59.65,59.34-59.65-26.51-59.65-59.34ZM1057.83,537.64c0,26.82,22.19,48.55,48.86,48.55s48.86-21.73,48.86-48.55-22.19-48.55-48.86-48.55-48.86,21.73-48.86,48.55Z"/>
          <path d="M1194.08,537.64c0,26.66,21.89,48.55,48.55,48.55,11.56,0,22.96-4.16,31.75-11.71v-31.44h-33.14v-10.79h43.77v63.19h-10.63v-7.71c-9.56,6.01-20.5,9.25-31.75,9.25-32.67,0-59.34-26.66-59.34-59.34s26.66-59.34,59.34-59.34c14.03,0,28.36,5.09,38.99,14.64l-7.24,7.86c-8.78-7.55-20.19-11.71-31.75-11.71-26.66,0-48.55,21.89-48.55,48.55Z"/>
          <path d="M1348.66,539.03v56.41h-10.79v-56.41l-38.99-59.18h12.95l31.44,47.78,31.6-47.78h12.95l-39.15,59.18Z"/>
        </g>
        <g>
          <g>
            <path class="cls-10" d="M1065.76,165.79c-4.45,0-8.07-3.62-8.07-8.07s3.62-8.07,8.07-8.07,8.07,3.62,8.07,8.07-3.62,8.07-8.07,8.07ZM1065.76,151.74c-3.29,0-5.97,2.68-5.97,5.97s2.68,5.97,5.97,5.97,5.97-2.68,5.97-5.97-2.68-5.97-5.97-5.97Z"/>
            <path class="cls-4" d="M1101.76,129.44c0,3.88-3.14,7.02-7.02,7.02s-7.02-3.14-7.02-7.02,3.14-7.02,7.02-7.02,7.02,3.14,7.02,7.02Z"/>
            <path class="cls-8" d="M1142.24,129.44c0,3.88-3.14,7.02-7.02,7.02s-7.02-3.14-7.02-7.02,3.14-7.02,7.02-7.02,7.02,3.14,7.02,7.02Z"/>
            <path class="cls-10" d="M1163.8,165.94c-4.45,0-8.07-3.62-8.07-8.07s3.62-8.07,8.07-8.07,8.07,3.62,8.07,8.07-3.62,8.07-8.07,8.07ZM1163.8,151.9c-3.29,0-5.97,2.68-5.97,5.97s2.68,5.97,5.97,5.97,5.97-2.68,5.97-5.97-2.68-5.97-5.97-5.97Z"/>
            <path class="cls-4" d="M1204.05,157.87c0,3.88-3.14,7.02-7.02,7.02s-7.02-3.14-7.02-7.02,3.14-7.02,7.02-7.02,7.02,3.14,7.02,7.02Z"/>
            <path class="cls-8" d="M1226.65,181.19c0,3.88-3.14,7.02-7.02,7.02s-7.02-3.14-7.02-7.02,3.14-7.02,7.02-7.02,7.02,3.14,7.02,7.02Z"/>
            <path class="cls-8" d="M1259.34,181.19c0,3.88-3.14,7.02-7.02,7.02s-7.02-3.14-7.02-7.02,3.14-7.02,7.02-7.02,7.02,3.14,7.02,7.02Z"/>
            <circle class="cls-8" cx="1275.98" cy="157.71" r="7.02"/>
            <path class="cls-8" d="M1007.53,157.71c0,3.88-3.14,7.02-7.02,7.02s-7.02-3.14-7.02-7.02,3.14-7.02,7.02-7.02,7.02,3.14,7.02,7.02Z"/>
            <path class="cls-4" d="M1331.81,157.71c0,3.88-3.14,7.02-7.02,7.02s-7.02-3.14-7.02-7.02,3.14-7.02,7.02-7.02,7.02,3.14,7.02,7.02Z"/>
          </g>
          <g>
            <path class="cls-10" d="M1497.2,106.33c-4.45,0-8.07-3.62-8.07-8.07s3.62-8.07,8.07-8.07,8.07,3.62,8.07,8.07-3.62,8.07-8.07,8.07ZM1497.2,92.29c-3.29,0-5.97,2.68-5.97,5.97s2.68,5.97,5.97,5.97,5.97-2.68,5.97-5.97-2.68-5.97-5.97-5.97Z"/>
            <path class="cls-8" d="M1461.2,126.53c0-3.88,3.14-7.02,7.02-7.02s7.02,3.14,7.02,7.02-3.14,7.02-7.02,7.02-7.02-3.14-7.02-7.02Z"/>
            <path class="cls-4" d="M1420.72,126.53c0-3.88,3.14-7.02,7.02-7.02s7.02,3.14,7.02,7.02-3.14,7.02-7.02,7.02-7.02-3.14-7.02-7.02Z"/>
            <path class="cls-10" d="M1399.17,106.17c-4.45,0-8.07-3.62-8.07-8.07s3.62-8.07,8.07-8.07,8.07,3.62,8.07,8.07-3.62,8.07-8.07,8.07ZM1399.17,92.13c-3.29,0-5.97,2.68-5.97,5.97s2.68,5.97,5.97,5.97,5.97-2.68,5.97-5.97-2.68-5.97-5.97-5.97Z"/>
            <circle class="cls-8" cx="1365.94" cy="98.1" r="7.02"/>
            <path class="cls-8" d="M1336.32,74.78c0-3.88,3.14-7.02,7.02-7.02s7.02,3.14,7.02,7.02-3.14,7.02-7.02,7.02-7.02-3.14-7.02-7.02Z"/>
            <path class="cls-4" d="M1303.62,74.78c0-3.88,3.14-7.02,7.02-7.02s7.02,3.14,7.02,7.02-3.14,7.02-7.02,7.02-7.02-3.14-7.02-7.02Z"/>
            <path class="cls-8" d="M1279.96,98.26c0-3.88,3.14-7.02,7.02-7.02s7.02,3.14,7.02,7.02-3.14,7.02-7.02,7.02-7.02-3.14-7.02-7.02Z"/>
            <path class="cls-8" d="M1540.8,98.26c0-3.88,3.14-7.02,7.02-7.02s7.02,3.14,7.02,7.02-3.14,7.02-7.02,7.02-7.02-3.14-7.02-7.02Z"/>
            <path class="cls-10" d="M1238.18,106.33c-4.45,0-8.07-3.62-8.07-8.07s3.62-8.07,8.07-8.07,8.07,3.62,8.07,8.07-3.62,8.07-8.07,8.07ZM1238.18,92.29c-3.29,0-5.97,2.68-5.97,5.97s2.68,5.97,5.97,5.97,5.97-2.68,5.97-5.97-2.68-5.97-5.97-5.97Z"/>
          </g>
          <g>
            <circle class="cls-4" cx="1029.7" cy="157.71" r="7.02"/>
            <path class="cls-8" d="M1101.7,92.56c0,3.88-3.14,7.02-7.02,7.02s-7.02-3.14-7.02-7.02,3.14-7.02,7.02-7.02,7.02,3.14,7.02,7.02Z"/>
            <path class="cls-8" d="M1177.04,93.35c0,3.88-3.14,7.02-7.02,7.02s-7.02-3.14-7.02-7.02,3.14-7.02,7.02-7.02,7.02,3.14,7.02,7.02Z"/>
            <path class="cls-8" d="M1204.05,122.39c0,3.88-3.14,7.02-7.02,7.02s-7.02-3.14-7.02-7.02,3.14-7.02,7.02-7.02,7.02,3.14,7.02,7.02Z"/>
            <path class="cls-10" d="M1344.04,130.46c-4.45,0-8.07-3.62-8.07-8.07s3.62-8.07,8.07-8.07,8.07,3.62,8.07,8.07-3.62,8.07-8.07,8.07ZM1344.04,116.42c-3.29,0-5.97,2.68-5.97,5.97s2.68,5.97,5.97,5.97,5.97-2.68,5.97-5.97-2.68-5.97-5.97-5.97Z"/>
            <path class="cls-8" d="M1387.21,146.05c0,3.88-3.14,7.02-7.02,7.02s-7.02-3.14-7.02-7.02,3.14-7.02,7.02-7.02,7.02,3.14,7.02,7.02Z"/>
            <path class="cls-4" d="M1036.48,93.35c0,3.88-3.14,7.02-7.02,7.02s-7.02-3.14-7.02-7.02,3.14-7.02,7.02-7.02,7.02,3.14,7.02,7.02Z"/>
          </g>
        </g>
        <g>
          <rect class="cls-8" x="1485.77" y="174.2" width="23.29" height="23.29"/>
          <rect class="cls-10" x="1540.48" y="174.2" width="23.29" height="23.29"/>
          <rect class="cls-8" x="1594.09" y="174.2" width="23.29" height="23.29"/>
          <rect class="cls-8" x="1647.7" y="174.2" width="23.29" height="23.29"/>
          <path class="cls-1" d="M1535.81,101.76c0,9.39,7.64,17.03,17.03,17.03.93,0,1.87-.08,2.81-.24h50.16c.06,0,.11,0,.16-.01,8.88-.29,16.08-7.71,16.08-16.61s-7.19-16.35-16.12-16.61c-.89-5.13-5.3-8.9-10.6-8.9-2.13,0-4.22.64-5.98,1.82-4.35-6.47-11.5-10.3-19.34-10.3-10.64,0-20.06,7.4-22.61,17.67-6.85,2.32-11.58,8.87-11.58,16.14Z"/>
        </g>
        <g>
          <g>
            <path class="cls-8" d="M161.58,946.14l-98.34-56.78v-113.55l98.34-56.78,98.34,56.78v113.55l-98.34,56.78ZM66.74,887.34l94.84,54.76,94.84-54.76v-109.51l-94.84-54.76-94.84,54.76v109.51Z"/>
            <path class="cls-10" d="M261.14,890.84l-8.31-3.76.92-2.04-.02-.03.05-.03.49-1.09.78.35,1.71-.99,4.38,7.58ZM62.01,890.84l6.22-10.77,3.03,1.75-2.55,4.42.59,1.3-7.29,3.29ZM72.49,886.1l-1.44-3.19,6.38-2.88,1.44,3.19-6.38,2.88ZM249.64,885.64l-6.38-2.88,1.44-3.19,6.38,2.88-1.44,3.19ZM251.98,881.97l-3.5-6.06,3.03-1.75,3.5,6.06-3.03,1.75ZM82.06,881.77l-1.44-3.19,6.38-2.88,1.44,3.19-6.38,2.88ZM240.07,881.31l-6.38-2.88,1.44-3.19,6.38,2.88-1.44,3.19ZM73.01,878.78l-3.03-1.75,3.5-6.06,3.03,1.75-3.5,6.06ZM91.62,877.45l-1.44-3.19,6.38-2.88,1.44,3.19-6.38,2.88ZM230.51,876.98l-6.38-2.88,1.44-3.19,6.38,2.88-1.44,3.19ZM101.19,873.12l-1.44-3.19,6.38-2.88,1.44,3.19-6.38,2.88ZM246.73,872.88l-3.5-6.06,3.03-1.75,3.5,6.06-3.03,1.75ZM220.94,872.66l-6.38-2.88,1.44-3.19,6.38,2.88-1.44,3.19ZM78.26,869.69l-3.03-1.75,3.5-6.06,3.03,1.75-3.5,6.06ZM110.76,868.8l-1.44-3.19,6.38-2.88,1.44,3.19-6.38,2.88ZM211.37,868.33l-6.38-2.88,1.44-3.19,6.38,2.88-1.44,3.19ZM120.33,864.47l-1.44-3.19,6.38-2.88,1.44,3.19-6.38,2.88ZM201.8,864.01l-6.38-2.88,1.44-3.19,6.38,2.88-1.44,3.19ZM241.48,863.78l-3.5-6.06,3.03-1.75,3.5,6.06-3.03,1.75ZM83.51,860.6l-3.03-1.75,3.5-6.06,3.03,1.75-3.5,6.06ZM129.89,860.15l-1.44-3.19,6.38-2.88,1.44,3.19-6.38,2.88ZM192.24,859.68l-6.38-2.88,1.44-3.19,6.38,2.88-1.44,3.19ZM139.46,855.82l-1.44-3.19,6.38-2.88,1.44,3.19-6.38,2.88ZM182.67,855.36l-6.38-2.88,1.44-3.19,6.38,2.88-1.44,3.19ZM236.23,854.69l-3.5-6.06,3.03-1.75,3.5,6.06-3.03,1.75ZM88.76,851.5l-3.03-1.75,3.5-6.06,3.03,1.75-3.5,6.06ZM149.03,851.49l-1.44-3.19,6.38-2.88,1.44,3.19-6.38,2.88ZM173.1,851.03l-6.38-2.88,1.44-3.19,6.38,2.88-1.44,3.19ZM158.6,847.17l-1.44-3.19,4.42-2,3.4,1.54-1.44,3.19-1.95-.88-2.98,1.35ZM230.98,845.6l-3.5-6.06,3.03-1.75,3.5,6.06-3.03,1.75ZM94.01,842.41l-3.03-1.75,3.5-6.06,3.03,1.75-3.5,6.06ZM225.73,836.5l-3.5-6.06,3.03-1.75,3.5,6.06-3.03,1.75ZM99.26,833.32l-3.03-1.75,3.5-6.06,3.03,1.75-3.5,6.06ZM220.48,827.41l-3.5-6.06,3.03-1.75,3.5,6.06-3.03,1.75ZM104.51,824.22l-3.03-1.75,3.5-6.06,3.03,1.75-3.5,6.06ZM215.23,818.32l-3.5-6.06,3.03-1.75,3.5,6.06-3.03,1.75ZM109.76,815.13l-3.03-1.75,3.5-6.06,3.03,1.75-3.5,6.06ZM209.98,809.23l-3.5-6.06,3.03-1.75,3.5,6.06-3.03,1.75ZM115.01,806.04l-3.03-1.75,3.5-6.06,3.03,1.75-3.5,6.06ZM204.73,800.13l-3.5-6.06,3.03-1.75,3.5,6.06-3.03,1.75ZM120.26,796.94l-3.03-1.75,3.5-6.06,3.03,1.75-3.5,6.06ZM199.48,791.04l-3.5-6.06,3.03-1.75,3.5,6.06-3.03,1.75ZM125.51,787.85l-3.03-1.75,3.5-6.06,3.03,1.75-3.5,6.06ZM194.23,781.95l-3.5-6.06,3.03-1.75,3.5,6.06-3.03,1.75ZM130.76,778.76l-3.03-1.75,3.5-6.06,3.03,1.75-3.5,6.06ZM188.98,772.85l-3.5-6.06,3.03-1.75,3.5,6.06-3.03,1.75ZM136.01,769.66l-3.03-1.75,3.5-6.06,3.03,1.75-3.5,6.06ZM183.73,763.76l-3.5-6.06,3.03-1.75,3.5,6.06-3.03,1.75ZM141.26,760.57l-3.03-1.75,3.5-6.06,3.03,1.75-3.5,6.06ZM178.48,754.67l-3.5-6.06,3.03-1.75,3.5,6.06-3.03,1.75ZM146.51,751.48l-3.03-1.75,3.5-6.06,3.03,1.75-3.5,6.06ZM173.23,745.57l-3.5-6.06,3.03-1.75,3.5,6.06-3.03,1.75ZM151.76,742.38l-3.03-1.75,3.5-6.06,3.03,1.75-3.5,6.06ZM167.98,736.48l-3.5-6.06,3.03-1.75,3.5,6.06-3.03,1.75ZM157.01,733.29l-3.03-1.75,3.5-6.06,3.03,1.75-3.5,6.06ZM162.73,727.39l-2.53-4.38-.97-.56,2.34-4.06,4.19,7.25-3.03,1.75Z"/>
            <path class="cls-10" d="M161.58,947.62l-2.34-4.06.97-.56,2.53-4.38,3.03,1.75-4.19,7.25ZM157.48,940.52l-3.5-6.06,3.03-1.75,3.5,6.06-3.03,1.75ZM167.51,937.34l-3.03-1.75,3.5-6.06,3.03,1.75-3.5,6.06ZM152.23,931.43l-3.5-6.06,3.03-1.75,3.5,6.06-3.03,1.75ZM172.76,928.24l-3.03-1.75,3.5-6.06,3.03,1.75-3.5,6.06ZM146.98,922.34l-3.5-6.06,3.03-1.75,3.5,6.06-3.03,1.75ZM178.01,919.15l-3.03-1.75,3.5-6.06,3.03,1.75-3.5,6.06ZM141.73,913.25l-3.5-6.06,3.03-1.75,3.5,6.06-3.03,1.75ZM183.26,910.06l-3.03-1.75,3.5-6.06,3.03,1.75-3.5,6.06ZM136.48,904.15l-3.5-6.06,3.03-1.75,3.5,6.06-3.03,1.75ZM188.51,900.96l-3.03-1.75,3.5-6.06,3.03,1.75-3.5,6.06ZM131.23,895.06l-3.5-6.06,3.03-1.75,3.5,6.06-3.03,1.75ZM193.76,891.87l-3.03-1.75,3.5-6.06,3.03,1.75-3.5,6.06ZM125.98,885.97l-3.5-6.06,3.03-1.75,3.5,6.06-3.03,1.75ZM199.01,882.78l-3.03-1.75,3.5-6.06,3.03,1.75-3.5,6.06ZM120.73,876.87l-3.5-6.06,3.03-1.75,3.5,6.06-3.03,1.75ZM204.26,873.68l-3.03-1.75,3.5-6.06,3.03,1.75-3.5,6.06ZM115.48,867.78l-3.5-6.06,3.03-1.75,3.5,6.06-3.03,1.75ZM209.51,864.59l-3.03-1.75,3.5-6.06,3.03,1.75-3.5,6.06ZM110.23,858.69l-3.5-6.06,3.03-1.75,3.5,6.06-3.03,1.75ZM214.76,855.5l-3.03-1.75,3.5-6.06,3.03,1.75-3.5,6.06ZM104.98,849.59l-3.5-6.06,3.03-1.75,3.5,6.06-3.03,1.75ZM220.01,846.4l-3.03-1.75,3.5-6.06,3.03,1.75-3.5,6.06ZM99.73,840.5l-3.5-6.06,3.03-1.75,3.5,6.06-3.03,1.75ZM225.26,837.31l-3.03-1.75,3.5-6.06,3.03,1.75-3.5,6.06ZM94.48,831.41l-3.5-6.06,3.03-1.75,3.5,6.06-3.03,1.75ZM230.51,828.22l-3.03-1.75,3.5-6.06,3.03,1.75-3.5,6.06ZM161.58,824.02l-4.42-2,1.44-3.19,2.98,1.35,1.95-.88,1.44,3.19-3.4,1.54ZM89.23,822.31l-3.5-6.06,3.03-1.75,3.5,6.06-3.03,1.75ZM168.16,821.05l-1.44-3.19,6.38-2.88,1.44,3.19-6.38,2.88ZM153.97,820.58l-6.38-2.88,1.44-3.19,6.38,2.88-1.44,3.19ZM235.76,819.12l-3.03-1.75,3.5-6.06,3.03,1.75-3.5,6.06ZM177.73,816.72l-1.44-3.19,6.38-2.88,1.44,3.19-6.38,2.88ZM144.4,816.26l-6.38-2.88,1.44-3.19,6.38,2.88-1.44,3.19ZM83.98,813.22l-3.5-6.06,3.03-1.75,3.5,6.06-3.03,1.75ZM187.3,812.39l-1.44-3.19,6.38-2.88,1.44,3.19-6.38,2.88ZM134.83,811.93l-6.38-2.88,1.44-3.19,6.38,2.88-1.44,3.19ZM241.01,810.03l-3.03-1.75,3.5-6.06,3.03,1.75-3.5,6.06ZM196.87,808.07l-1.44-3.19,6.38-2.88,1.44,3.19-6.38,2.88ZM125.26,807.6l-6.38-2.88,1.44-3.19,6.38,2.88-1.44,3.19ZM78.73,804.13l-3.5-6.06,3.03-1.75,3.5,6.06-3.03,1.75ZM206.44,803.74l-1.44-3.19,6.38-2.88,1.44,3.19-6.38,2.88ZM115.7,803.28l-6.38-2.88,1.44-3.19,6.38,2.88-1.44,3.19ZM246.26,800.94l-3.03-1.75,3.5-6.06,3.03,1.75-3.5,6.06ZM216,799.42l-1.44-3.19,6.38-2.88,1.44,3.19-6.38,2.88ZM106.13,798.95l-6.38-2.88,1.44-3.19,6.38,2.88-1.44,3.19ZM225.57,795.09l-1.44-3.19,6.38-2.88,1.44,3.19-6.38,2.88ZM73.48,795.03l-3.5-6.06,3.03-1.75,3.5,6.06-3.03,1.75ZM96.56,794.63l-6.38-2.88,1.44-3.19,6.38,2.88-1.44,3.19ZM251.51,791.84l-3.03-1.75,3.5-6.06,3.03,1.75-3.5,6.06ZM235.14,790.77l-1.44-3.19,6.38-2.88,1.44,3.19-6.38,2.88ZM86.99,790.3l-6.38-2.88,1.44-3.19,6.38,2.88-1.44,3.19ZM244.71,786.44l-1.44-3.19,6.38-2.88,1.44,3.19-6.38,2.88ZM77.43,785.98l-6.38-2.88,1.44-3.19,6.38,2.88-1.44,3.19ZM68.23,785.94l-6.22-10.77,7.29,3.29-.59,1.3,2.55,4.42-3.03,1.75ZM256.76,782.75l-1.71-.99-.78.35-.49-1.09-.05-.03.02-.03-.92-2.04,8.31-3.76-4.38,7.58Z"/>
            <g>
              <path class="cls-7" d="M144.52,721.06c0-9.42,7.64-17.06,17.06-17.06s17.06,7.64,17.06,17.06-7.64,17.06-17.06,17.06-17.06-7.64-17.06-17.06Z"/>
              <g class="cls-12">
                <path class="cls-7" d="M161.58,738.12c-9.42,0-17.06-7.64-17.06-17.06s7.64-17.06,17.06-17.06v34.12Z"/>
              </g>
            </g>
            <path class="cls-9" d="M142.54,944.12c0-10.51,8.52-19.03,19.03-19.03s19.03,8.52,19.03,19.03-8.52,19.03-19.03,19.03-19.03-8.52-19.03-19.03Z"/>
            <g class="cls-11">
              <path class="cls-9" d="M161.58,963.15c-10.51,0-19.03-8.52-19.03-19.03s8.52-19.03,19.03-19.03v38.07Z"/>
            </g>
            <path class="cls-9" d="M45.96,779c0-10.51,8.52-19.03,19.03-19.03s19.03,8.52,19.03,19.03-8.52,19.03-19.03,19.03-19.03-8.52-19.03-19.03Z"/>
            <g>
              <path class="cls-4" d="M237.33,777.88c0-11.79,9.56-21.36,21.36-21.36s21.36,9.56,21.36,21.36-9.56,21.36-21.36,21.36-21.36-9.56-21.36-21.36Z"/>
              <g class="cls-12">
                <path class="cls-4" d="M258.69,799.24c-11.79,0-21.36-9.56-21.36-21.36s9.56-21.36,21.36-21.36v42.71Z"/>
              </g>
            </g>
            <circle class="cls-8" cx="161.58" cy="832.59" r="41.69" transform="translate(-677.56 709.47) rotate(-70.67)"/>
            <g>
              <path class="cls-7" d="M64.99,858.18c-15.92,0-28.82,12.9-28.82,28.82s12.9,28.82,28.82,28.82,28.82-12.9,28.82-28.82-12.9-28.82-28.82-28.82ZM64.99,901.61c-8.07,0-14.61-6.54-14.61-14.61s6.54-14.61,14.61-14.61,14.61,6.54,14.61,14.61-6.54,14.61-14.61,14.61Z"/>
              <g class="cls-12">
                <path class="cls-7" d="M64.99,906.28c-10.65,0-19.28-8.63-19.28-19.28s8.63-19.28,19.28-19.28v-9.53c-15.92,0-28.82,12.9-28.82,28.82s12.9,28.82,28.82,28.82v-9.54Z"/>
              </g>
            </g>
            <g class="cls-11">
              <path class="cls-9" d="M208.88,829.59c.06.99.1,1.99.1,2.99,0,26.18-21.22,47.39-47.39,47.39s-47.39-21.22-47.39-47.39,21.22-47.39,47.39-47.39v-31.14c-43.38,0-78.54,35.16-78.54,78.54s35.16,78.54,78.54,78.54,78.54-35.16,78.54-78.54c0-1-.03-2-.06-2.99h-31.18Z"/>
            </g>
            <g class="cls-11">
              <path class="cls-9" d="M64.99,798.04c-10.51,0-19.03-8.52-19.03-19.03s8.52-19.03,19.03-19.03v38.07Z"/>
            </g>
          </g>
          <g>
            <circle class="cls-2" cx="258.69" cy="887.6" r="14.96" transform="translate(-650.08 1057.56) rotate(-84.34)"/>
            <g class="cls-12">
              <path class="cls-2" d="M258.69,902.56c-8.26,0-14.96-6.7-14.96-14.96s6.7-14.96,14.96-14.96v29.91Z"/>
            </g>
          </g>
        </g>
        <g>
          <g>
            <path class="cls-7" d="M1294.33,280.34c-22.07,0-39.95,17.89-39.95,39.95s17.89,39.95,39.95,39.95,39.95-17.89,39.95-39.95-17.89-39.95-39.95-39.95ZM1294.33,347.03c-14.76,0-26.73-11.97-26.73-26.73s11.97-26.73,26.73-26.73,26.73,11.97,26.73,26.73-11.97,26.73-26.73,26.73Z"/>
            <g class="cls-12">
              <path class="cls-7" d="M1294.33,347.03c-14.76,0-26.73-11.97-26.73-26.73s11.97-26.73,26.73-26.73v-13.22c-22.07,0-39.95,17.89-39.95,39.95s17.89,39.95,39.95,39.95v-13.22Z"/>
            </g>
          </g>
          <path class="cls-1" d="M1238.68,253.84c-8.99,0-16.29,7.29-16.29,16.29s7.29,16.29,16.29,16.29,16.29-7.29,16.29-16.29-7.29-16.29-16.29-16.29ZM1238.68,278.38c-4.56,0-8.26-3.7-8.26-8.25s3.7-8.25,8.26-8.25,8.26,3.7,8.26,8.25-3.7,8.25-8.26,8.25Z"/>
          <g class="cls-12">
            <path class="cls-1" d="M1238.68,281.02c-6.02,0-10.9-4.88-10.9-10.9s4.88-10.9,10.9-10.9v-5.39c-8.99,0-16.29,7.29-16.29,16.29s7.29,16.29,16.29,16.29v-5.39Z"/>
          </g>
          <path class="cls-4" d="M1330.06,232.37c0,9.87-8,17.86-17.86,17.86s-17.86-8-17.86-17.86,8-17.86,17.86-17.86,17.86,8,17.86,17.86Z"/>
          <circle class="cls-8" cx="1222.39" cy="364.96" r="17.86" transform="translate(99.96 971.26) rotate(-45)"/>
          <path class="cls-8" d="M1360.22,258.8c0,5.58-4.53,10.11-10.11,10.11s-10.11-4.53-10.11-10.11,4.53-10.11,10.11-10.11,10.11,4.53,10.11,10.11Z"/>
          <path class="cls-8" d="M1375.05,360.25c0,5.58-4.53,10.11-10.11,10.11s-10.11-4.53-10.11-10.11,4.53-10.11,10.11-10.11,10.11,4.53,10.11,10.11Z"/>
        </g>
        <g>
          <path class="cls-2" d="M513.97,338.98c0-6.73,5.46-12.19,12.19-12.19s12.19,5.46,12.19,12.19-5.46,12.19-12.19,12.19-12.19-5.46-12.19-12.19Z"/>
          <g class="cls-12">
            <path class="cls-2" d="M526.17,351.18c-6.73,0-12.19-5.46-12.19-12.19s5.46-12.19,12.19-12.19v24.39Z"/>
          </g>
        </g>
        <rect class="cls-5" width="1750" height="1050"/>
      </g>
    </g>
  </g>
</svg>