<?xml version="1.0" encoding="UTF-8"?>
<svg id="_x2018_лой_x5F_1" xmlns="http://www.w3.org/2000/svg" width="2694.02" height="1685.27" viewBox="0 0 2694.02 1685.27">
  <defs>
    <style>
      .cls-1 {
        fill: #ed7d2b;
      }

      .cls-2 {
        fill: #2b478b;
      }

      .cls-3 {
        fill: #152949;
      }

      .cls-4 {
        fill: #233862;
      }

      .cls-5 {
        fill: #82b378;
      }

      .cls-6 {
        fill: #8c9df4;
      }

      .cls-7 {
        fill: #ed975d;
      }

      .cls-8 {
        fill: #b3c2ff;
      }

      .cls-9 {
        fill: #849def;
      }

      .cls-10 {
        fill: #fff;
      }

      .cls-11 {
        fill: #ff8939;
      }

      .cls-12 {
        fill: #6c7aff;
      }

      .cls-13 {
        fill: #5e6ecc;
      }

      .cls-14 {
        fill: #ed985f;
      }

      .cls-15 {
        fill: #798ee8;
      }

      .cls-16 {
        fill: #707fe5;
      }

      .cls-17 {
        fill: #a4b5ff;
      }

      .cls-18 {
        fill: #505aba;
      }

      .cls-19 {
        fill: #ebf3fa;
      }

      .cls-20 {
        fill: #3d4ca5;
      }

      .cls-21 {
        fill: #163560;
      }

      .cls-22 {
        fill: #e58638;
      }

      .cls-23 {
        fill: #ffb27d;
      }

      .cls-24 {
        fill: #fca56b;
      }

      .cls-25 {
        fill: #f77d48;
      }

      .cls-26 {
        fill: #6b80dd;
      }

      .cls-27 {
        fill: #2c3a64;
      }

      .cls-28 {
        fill: #1f3b72;
      }

      .cls-29 {
        fill: #bbd0ff;
      }

      .cls-30 {
        fill: #d2e0ff;
      }

      .cls-31 {
        fill: #ed7b2e;
      }

      .cls-32 {
        fill: #a8d29f;
      }

      .cls-33 {
        fill: #c0d4ff;
      }

      .cls-34 {
        fill: #214c7f;
      }

      .cls-35 {
        fill: #86a2e2;
      }

      .cls-36 {
        fill: #f99746;
      }

      .cls-37 {
        fill: #ed917e;
      }

      .cls-38 {
        fill: #739af0;
      }

      .cls-39 {
        opacity: .5;
      }

      .cls-40 {
        fill: #aec3ff;
      }
    </style>
  </defs>
  <path class="cls-19" d="M2567.36,1681.39c-154.07,0-2398.49.55-2399.79-3.47l-.22-.51s-.22-.5-.22-.74c-.86-2.01-345.81-566.27,190.46-959.08,209.83-153.7-13.13-255.16,153.73-426.26,191.76-196.62,401.03,20.89,614.26-68.27,37.68-15.74,75.48-41.07,113.33-79.94C1326.68,53.06,1447.11,11.4,1571.45,2.05c238.26-17.81,506.38,82.35,644.75,228.75,27.86,29.48,154.54,182.01,54.68,391.66-63.05,132.37,201.08,258.79,294.93,409.95,238.62,384.3,3.72,643.97,1.55,648.98Z"/>
  <g class="cls-39">
    <g class="cls-39">
      <path class="cls-40" d="M869.69,624.6s-17.48-146.4-92.5-233.77c-9.97-11.61-29.05-4.22-28.73,11.08,0,.25.01.51.02.77.97,26.12,84.97,136.28,121.21,221.92Z"/>
    </g>
    <g class="cls-39">
      <path class="cls-40" d="M878.81,666.52s-74.76-182.99-202.44-263.92c-7.79-4.94-18.33-3.15-23.55,4.45-3.4,4.95-4.93,12.68-1.11,24.75,10.17,32.19,152.58,140.53,227.11,234.72Z"/>
    </g>
  </g>
  <g>
    <path class="cls-5" d="M1809.98,619.99s-66.94-41.21-32.8-91.97c0,0,26.91-30.92,54.66-38.01,0,0-17.83,77.06-3.29,79.49,14.54,2.43,13.68-87.3,13.68-87.3,0,0,73.62-31.73,101.83-27.82,0,0-47.91,73.98-33.21,72.76,14.69-1.22,68.12-75.89,68.12-75.89,0,0,74.58-10.64,84.64,33.71,10.06,44.35-10.03,65.48-21.11,67.77-11.08,2.29-81.39-1.54-79.94,7.67,1.45,9.21,48.36,25.8,75.19,18.67,0,0-32.22,70.97-70.45,65.73-38.22-5.24-49.12-29.49-72.8-32.3-23.68-2.81-41.3,2.87-29.69,9.75,11.61,6.89,51.99,4.25,70.51,21.36,18.51,17.11,33.63,27.8-2.31,33.63-35.94,5.83-99.7-1.38-111.36-29.32l-11.66-27.94Z"/>
    <g>
      <path class="cls-5" d="M2029.23,497.27s-194.44,54.19-219.25,122.72c0,0-.37,31.1-21.03,65.94l-.57,13.71s22.03-45.77,33.26-51.71c0,0-40.45-62.08,207.59-150.66Z"/>
      <path class="cls-5" d="M1788.95,685.93s-31.45,43.71-16.84,99.1l7.7-1.73s-4.9-60.55,11.84-90.21c16.74-29.66-2.69-7.16-2.69-7.16Z"/>
    </g>
  </g>
  <g>
    <path class="cls-32" d="M1539.13,618.34s-112.41,9.94-116.63-77.77c0,0,4.47-58.67,30.34-90.63,0,0,45.54,104.02,64.37,94.35,18.83-9.67-59.1-112.25-59.1-112.25,0,0,57.56-99.66,93.39-119.34,0,0,8.27,126.26,24.14,112.26,15.87-14.01,13.37-145.79,13.37-145.79,0,0,76.74-76.2,126.36-33.76,49.61,42.44,44.6,84,33.8,96.13-10.79,12.13-95.04,68.02-85.47,77.38,9.57,9.36,77.8-11.76,102.59-42.97,0,0,23.75,109.35-24.76,136.09-48.51,26.74-81.84,8.16-111.52,25.23-29.67,17.07-45.1,38.72-25.82,36.69,19.28-2.03,63.51-39.69,99.49-35.86,35.98,3.82,62.56,3.17,26.18,40.71-36.38,37.53-115.99,83.9-153.36,61.73l-37.38-22.18Z"/>
    <g>
      <path class="cls-32" d="M1686.35,289.05s-177.42,229.12-147.22,329.29c0,0,26.24,36.13,32.32,93.96l11.1,16.27s-13.88-71.58-6.04-88.05c0,0-99.8-36.8,109.84-351.47Z"/>
      <path class="cls-32" d="M1571.45,712.31s1.27,77.29,65.58,128.55l7.38-8.59s-57.56-65.52-63.72-114.02-9.24-5.94-9.24-5.94Z"/>
    </g>
  </g>
  <g>
    <g>
      <path class="cls-29" d="M482.83,1482.49s-31.49-36.73-1.94-60.06c0,0,21.58-13.06,39.18-12,0,0-24.93,41.81-16.87,45.97,8.07,4.16,24.42-48.59,24.42-48.59,0,0,49.11-4.76,64.91,2.83,0,0-41.98,34.36-33.14,36.4,8.84,2.04,54.19-31.67,54.19-31.67,0,0,45.71,7.78,43.27,35.66-2.44,27.88-18.19,36.49-25.11,35.75-6.92-.74-47.41-16.2-48.29-10.53-.88,5.67,23.49,24.21,40.56,25.07,0,0-32.22,35.54-53.64,25.28-21.42-10.26-23.24-26.51-36.59-32.61-13.35-6.1-24.75-6.08-19.23.14,5.51,6.22,29.67,12.26,37.31,25.77,7.63,13.5,14.48,22.61-7.67,19.28-22.16-3.33-58.17-19.55-59.76-38.11l-1.58-18.57Z"/>
      <g>
        <path class="cls-29" d="M634.39,1451.77s-124.14-4.78-151.56,30.72c0,0-6.06,18.16-24.72,34.69l-2.91,7.93s21.51-22.68,29.21-24.05c0,0-12.04-43.98,149.98-49.29Z"/>
        <path class="cls-29" d="M458.11,1517.19s-26.65,19.71-28.5,54.92l4.84.43s8.51-36.41,23.89-50.65c15.38-14.24-.23-4.7-.23-4.7Z"/>
      </g>
    </g>
    <g>
      <path class="cls-40" d="M372.75,1436.3s50.08-28.05,26.71-66.11c0,0-18.7-23.37-38.73-29.38,0,0,10.68,56.76,0,58.1-10.69,1.34-7.35-64.11-7.35-64.11,0,0-52.76-25.38-73.46-23.37,0,0,32.72,55.43,22.04,54.09-10.68-1.34-47.41-57.43-47.41-57.43,0,0-54.09-10.02-62.77,22.04-8.68,32.05,5.34,48.08,13.36,50.09,8.01,2,59.43,1.33,58.1,8.01-1.34,6.68-36.06,17.36-55.43,11.35,0,0,21.37,52.76,49.42,50.08,28.05-2.67,36.73-20.03,54.09-21.37,17.36-1.34,30.05,3.34,21.37,8.01-8.68,4.67-38.06,1.53-52.09,13.45-14.02,11.92-25.38,19.27.67,24.61,26.04,5.34,72.79,2,82.14-18.03l9.35-20.03Z"/>
      <g>
        <path class="cls-40" d="M216.48,1340.14s140.24,45.41,156.27,96.16c0,0-.67,22.7,13.36,48.75v10.02s-14.69-34.06-22.71-38.73c0,0,31.39-44.07-146.92-116.2Z"/>
        <path class="cls-40" d="M386.11,1485.05s21.63,32.84,9.3,72.82l-5.56-1.49s5.4-44.03-5.91-66.18c-11.31-22.15,2.18-5.15,2.18-5.15Z"/>
      </g>
    </g>
    <g>
      <path class="cls-30" d="M452.43,1397.62s-66.02-36.97-35.21-87.15c0,0,24.65-30.81,51.06-38.73,0,0-14.08,74.82,0,76.58,14.08,1.76,9.68-84.51,9.68-84.51,0,0,69.54-33.45,96.83-30.81,0,0-43.13,73.06-29.05,71.3,14.08-1.76,62.5-75.7,62.5-75.7,0,0,71.3-13.21,82.75,29.05,11.44,42.25-7.04,63.38-17.61,66.02-10.56,2.64-78.35,1.76-76.59,10.56,1.76,8.8,47.54,22.89,73.06,14.96,0,0-28.17,69.54-65.14,66.02-36.97-3.52-48.42-26.41-71.3-28.17-22.89-1.76-39.61,4.4-28.17,10.56,11.44,6.16,50.18,2.02,68.66,17.73,18.49,15.72,33.45,25.4-.88,32.44-34.33,7.04-95.95,2.64-108.28-23.77l-12.32-26.41Z"/>
      <g>
        <path class="cls-30" d="M658.42,1270.86s-184.86,59.86-205.99,126.76c0,0,.88,29.93-17.61,64.26v13.2s19.37-44.89,29.93-51.06c0,0-41.37-58.1,193.66-153.17Z"/>
        <path class="cls-30" d="M434.83,1461.88s-28.51,43.29-12.26,95.99l7.33-1.97s-7.12-58.04,7.8-87.24c14.91-29.19-2.87-6.78-2.87-6.78Z"/>
      </g>
    </g>
    <path class="cls-33" d="M450.21,1672.15c71.43,0,129.33-57.9,129.33-129.33h-258.65c0,71.42,57.9,129.33,129.33,129.33Z"/>
    <path class="cls-33" d="M581.32,1678.73h-262.22c0-8.81,7.14-15.96,15.96-15.96h230.31c8.81,0,15.96,7.14,15.96,15.96h0Z"/>
    <rect class="cls-35" x="316.63" y="1542.82" width="265.85" height="3.97"/>
  </g>
  <path class="cls-15" d="M1332.36,947.65l-57.87,688.11s-6.06,41.71,24.96,41.79c51.01.12,253.91,0,253.91,0,0,0-38.39-8.68-37.93-28.22.55-23.03,67.64-708.19,67.64-708.19l-250.72,6.51Z"/>
  <path class="cls-40" d="M1572.47,1665.03c-10.03.03-206.47.36-256.15-.28-21.65-.27-25.45-19.25-25.63-31.54-.09-5.89.66-10.24.66-10.24l1.5-17.88,3.84-45.58,3.39-40.27,4.35-51.75,3.67-43.68,41.12-488.95,250.72-6.51s-28.26,286.74-48.24,495.46c-2.23,23.25-4.35,45.55-6.32,66.37-.64,6.65-1.25,13.14-1.84,19.47-1.85,19.75-3.55,37.88-5.02,53.89-.78,8.44-1.49,16.28-2.14,23.46-2.55,28.15-4.05,46.12-4.07,49.54,0,1.99.16,3.85.49,5.57,4.12,21.93,35.91,22.92,39.67,22.92Z"/>
  <polygon class="cls-40" points="723.48 572.9 864.45 1139.13 883.75 1216.68 949.41 1480.41 2169.17 1480.41 1927.18 572.9 723.48 572.9"/>
  <polygon class="cls-15" points="723.48 572.9 703.95 579.41 923.43 1500.11 949.41 1480.42 723.48 572.9"/>
  <polygon class="cls-9" points="923.43 1500.11 2135.69 1500.11 2169.17 1480.42 949.41 1480.42 923.43 1500.11"/>
  <rect class="cls-40" x="1349.14" y="1665.03" width="262.47" height="12.47" transform="translate(2960.75 3342.54) rotate(180)"/>
  <polygon class="cls-6" points="1544.89 1500.11 1543.54 1509.64 1296.69 1559.51 1300.08 1519.24 1301.7 1500.11 1544.89 1500.11"/>
  <g class="cls-39">
    <path class="cls-6" d="M1572.47,1665.03c-10.03.03-206.47.36-256.15-.28-21.65-.27-25.45-19.25-25.63-31.54l245.68-46.22c-2.55,28.15-4.05,46.12-4.07,49.54,0,1.99.16,3.85.49,5.57,4.12,21.93,35.91,22.92,39.67,22.92Z"/>
  </g>
  <polygon class="cls-6" points="723.48 572.9 1927.18 572.9 2122.48 1302.26 905.05 1302.26 723.48 572.9"/>
  <polygon class="cls-18" points="2065.71 1270.65 938.68 1270.65 898.41 1110.21 882.83 1048.13 876.47 1022.82 835.08 857.94 832.94 849.36 811.05 762.21 801.26 723.21 792.92 689.94 786.1 662.82 773.33 611.98 1884.12 611.98 1898.14 662.82 1905.61 689.94 1914.78 723.21 1925.53 762.21 1996.36 1019.11 1996.36 1019.12 2002.35 1040.89 2005.14 1050.99 2054.04 1228.35 2065.71 1270.65"/>
  <polygon class="cls-13" points="1619.03 1241.59 1039.15 1241.59 1007.29 1085.42 994.96 1036.32 989.94 1016.29 957.19 885.86 955.5 879.07 938.18 810.13 930.44 779.28 923.84 752.97 918.44 731.51 908.35 691.29 1475.75 691.29 1619.03 1241.59"/>
  <polygon class="cls-6" points="1362.37 1302.26 949.82 1482.54 905.05 1302.26 1362.37 1302.26"/>
  <g>
    <path class="cls-27" d="M2301.87,905.08c.06-1.62,1.32-19.12,27.97-20.04,0,0-13.11,1.56-15.37,7.33,0,0,8.92-7.12,16.19-4.83,7.27,2.29,11.54,15.02,11.58,19.21.04,4.19-4,17.69-8.61,18.84-1.75.43-3.76.32-5.59,0,1.23,1.92,2.43,4.03,3.58,6.39,10.63,21.83-.33,43.17-9.34,40.81-5.78-1.51-7.41,8.34-7.41,8.34l-56.1-45.42s20.61-42.64,43.09-30.64Z"/>
    <path class="cls-23" d="M2148.98,1178.05c4.69,4.15,17.13-10.1,18.85-11.99.09-.18.18-.27.18-.27l-3.79-10.55s-16.32-.63-19.03,2.07c-2.7,2.71-1.35,16.32,3.79,20.74Z"/>
    <path class="cls-2" d="M2282.34,1548.25l11.92,4.44s51.76-71.79,58.13-134.94c1.14-11.28-1.2-35.18-.31-40.29.41-2.38.91-5.25,1.49-8.54,1.68-9.64,4-22.83,6.64-37.85,6.09-34.57,13.98-78.75,20.11-111.24l-3.21-1.03-34.74-11.21-7.18-22.8-25.87-6.81s-5.78,11.3-10.94,64.71c-.95,7-1.82,14.73-2.47,23.11-2.01,25.57-2.16,57.28,2.46,93.54,1.19,9.28,6.11,45.76,5.54,57.06-2.61,51.63-21.56,131.87-21.56,131.87Z"/>
    <path class="cls-4" d="M2295.9,1265.78l56.17,111.68c.41-2.38.91-5.25,1.49-8.54,1.68-9.64,4-22.83,6.64-37.85,6.09-34.57,13.98-78.75,20.11-111.24l-3.21-1.03-34.74-11.21-7.18-22.8-25.87-6.81s-5.78,11.3-10.94,64.71c-.95,7-1.82,14.73-2.47,23.11Z"/>
    <path class="cls-2" d="M2320.62,1192.3l1.3-11.15c21.79,5.79,80-16.17,80-16.17,0,0,21.11,18.55,18.34,63.02-1.35,21.71-3.82,113.94-6.4,141.24-.93,9.89,5.49,35.35,8.07,42.22,25.33,67.49-3.9,150.6-3.9,150.6l-7.58-3.06s-47.98-173.97-52.93-192.4c-9.35-34.84-16.88-80.17-21.9-115.16-.69.03-14.98-59.14-14.98-59.14Z"/>
    <path class="cls-23" d="M2304.08,1062.91c37.46,2.05,29.23-53.78,26.94-53.5-4.58-2.39-12.81-14.02-17.57-33.47l-1.62.75-27.03,12.71s2.87,8.79,4.99,17.21c1.65,6.59,2.84,12.95,1.85,14.73-2.13.87-3.41,1.41-3.41,1.41,0,0,0,0,0,.03-.27.69,5.86,39.59,15.85,40.13Z"/>
    <path class="cls-14" d="M2284.81,989.41s2.87,8.79,4.99,17.21c15.8-4.41,20.59-21.01,22.04-29.92l-27.03,12.7Z"/>
    <path class="cls-23" d="M2281.48,998.71s37.8-8.75,31.99-32.2c-5.81-23.45-4.84-40.38-29.22-35.78-24.38,4.59-26.83,14.7-26.8,23,.04,8.3,14.05,46.66,24.03,44.99Z"/>
    <path class="cls-27" d="M2255.33,940.41c4.06-8.5,8.84-8.05,11.84-6.54,17.76-16.43,35.18-3.01,35.18-3.01,6.7,16.2,21.23,22.81,21.23,22.81,0,0-5.81,5.95-22.63,5.81-5.14-.04-10.31-2.4-15.01-5.65,9.07,9.14,19.71,14.7,19.71,14.7-21.07-4.03-35.19-28.42-36.64-31.01-1.78,2.64-5.2,8.25-5.49,12.98-.39,6.44,1.83,18.94-1.86,19.41,0,0-12.42-16.76-6.32-29.51Z"/>
    <path class="cls-4" d="M2373.92,1568.25h60.02s1.44-9.15-1.7-16.09c-3-6.66-7.71-9.69-6.58-17.74-3.81,3.93-10.03,8.32-18.71,7.16-1.06,1.72-6.86,10.95-10.41,13.5-3.92,2.82-21.41,1.81-22.62,13.17Z"/>
    <path class="cls-4" d="M2245.05,1568.25h60.02s2.24-9.57-1.7-16.09c-3.49-5.76-2.15-9.05.43-13.82-2.72,1.11-6.24,2.12-10.11,1.9-2.99-.17-6.15-1.53-8.93-3.14-2.58,2.94-13.64,15.48-17.1,17.96-3.92,2.82-21.41,1.81-22.62,13.17Z"/>
    <path class="cls-6" d="M2403.03,1094.08c-3.23-10.47-6.56-20.51-9.94-29.78-7.68-21.07-12.57-32.07-16.71-40.59-7.88-16.21-43.12-15.19-43.12-15.19-6.79,24.46-25.44,39.7-25.44,39.7-9.94-5.84-17.35-26.37-17.35-26.37l-21.76,11.58h0c-.08.08-6.74,4.01-12.61,20.89-8.73,25.12-22.9,60.78-32.73,71.69-2.29,2.54-9.01,6.39-17.14,10.48h0c-.17.27-.31.41-.4.41.52,1.2,2.9,6.86,6.72,12.61,3.1,4.67,7.18,9.39,12.01,11.83,3.71-1.79,10.39-4.42,13.22-6.16,10.24-6.26,25.5-15.29,37.43-34.31l3.33,44.74,6.02,80.93c9.26,2.88,18.07,5.13,26.43,6.86.55-6.78,2.74-14.9,2.74-14.9-.09,4.26,4.88,12.4,7.83,16.83,76.86,12.31,112.89-21.21,112.89-21.21-2.99-29.68-15.94-89.7-31.44-140.02Z"/>
    <path class="cls-16" d="M2325.49,1003.99s6.39.43,7.77,4.52c0,0-8.34,33.59-25.43,39.7l17.66-44.22Z"/>
    <path class="cls-16" d="M2307.82,1048.21s-16.32-29.46-16.26-33.44c0,0-6.21,5.5-5.8,9.58,0,0,13.75,22.02,22.06,23.86Z"/>
    <path class="cls-16" d="M2351.59,1036.26c-.46,1.59-33.78,81.21-63.66,110.57-13.08,12.85,28.6,9.14,29,6.75.4-2.39,34.66-117.32,34.66-117.32Z"/>
    <path class="cls-16" d="M2279.6,1168.11l2.85,44.92c91.13-21.17,83.48-166.31,83.48-166.31l-45.76,94.49-40.16,26.25s-.15.22-.41.64Z"/>
    <path class="cls-40" d="M2205.72,1136.75c.02.1.06.14.12.14-.03-.07-.06-.13-.07-.17-.07-.14-.09-.14-.05.02Z"/>
    <g>
      <path class="cls-36" d="M2250.8,1074.9l18.15,80.88c2.89,12.88-6.86,23.32-21.79,23.32h-435.7c-14.92,0-29.36-10.44-32.25-23.32l-18.15-80.88c-.11-.5-.21-.98-.26-1.48-1.87-12.2,7.7-21.84,22.05-21.84h435.7c14.35,0,28.25,9.65,31.85,21.84.17.5.29.98.4,1.48Z"/>
      <g>
        <g>
          <polygon class="cls-19" points="1812.42 1142.63 1808.15 1142.63 1796.86 1092.31 1801.13 1092.31 1812.42 1142.63"/>
          <polygon class="cls-19" points="1841.87 1113.08 1811.25 1113.08 1808.06 1098.84 1838.68 1098.84 1841.87 1113.08"/>
          <polygon class="cls-19" points="1856.14 1133.5 1815.83 1133.5 1812.64 1119.25 1852.95 1119.25 1856.14 1133.5"/>
        </g>
        <g>
          <polygon class="cls-19" points="1910.37 1142.63 1906.09 1142.63 1894.8 1092.31 1899.08 1092.31 1910.37 1142.63"/>
          <polygon class="cls-19" points="1916.91 1113.08 1886.29 1113.08 1883.09 1098.84 1913.71 1098.84 1916.91 1113.08"/>
          <polygon class="cls-19" points="1926.33 1133.5 1886.02 1133.5 1882.83 1119.25 1923.14 1119.25 1926.33 1133.5"/>
        </g>
        <g>
          <polygon class="cls-19" points="2008.32 1142.63 2004.04 1142.63 1992.75 1092.31 1997.03 1092.31 2008.32 1142.63"/>
          <polygon class="cls-19" points="1991.94 1113.08 1961.32 1113.08 1958.12 1098.84 1988.74 1098.84 1991.94 1113.08"/>
          <polygon class="cls-19" points="1996.52 1133.5 1956.21 1133.5 1953.01 1119.25 1993.32 1119.25 1996.52 1133.5"/>
        </g>
        <g>
          <polygon class="cls-19" points="2070.99 1096.38 2020.67 1096.38 2019.71 1092.11 2070.03 1092.11 2070.99 1096.38"/>
          <polygon class="cls-19" points="2042.34 1100.39 2049.21 1131.01 2034.97 1131.01 2028.1 1100.39 2042.34 1100.39"/>
          <polygon class="cls-19" points="2062.75 1100.39 2071.8 1140.7 2057.55 1140.7 2048.51 1100.39 2062.75 1100.39"/>
        </g>
        <g>
          <polygon class="cls-19" points="2150.19 1119.61 2099.87 1119.61 2098.91 1115.34 2149.23 1115.34 2150.19 1119.61"/>
          <polygon class="cls-19" points="2116.72 1102.16 2123.6 1132.79 2109.35 1132.79 2102.48 1102.16 2116.72 1102.16"/>
          <polygon class="cls-19" points="2136.05 1097.32 2145.1 1137.63 2130.85 1137.63 2121.81 1097.32 2136.05 1097.32"/>
        </g>
        <g>
          <polygon class="cls-19" points="2229.43 1143.02 2179.11 1143.02 2178.15 1138.75 2228.47 1138.75 2229.43 1143.02"/>
          <polygon class="cls-19" points="2191.43 1103.76 2198.3 1134.38 2184.06 1134.38 2177.19 1103.76 2191.43 1103.76"/>
          <polygon class="cls-19" points="2209.67 1094.07 2218.71 1134.38 2204.47 1134.38 2195.42 1094.07 2209.67 1094.07"/>
        </g>
      </g>
    </g>
    <g>
      <path class="cls-23" d="M2207.03,1171.86c4.97-.02,12.8-.36,17.33-2.1,0,0-14.47-.21-11.4-4.78.56-.83,7.75-.2,15.79-.2,3.29,0,11.43,4.51,11.01,4.72,5.82-.77,11.11-1.9,12.82-2.27.45-.09.63-.18.63-.18l5.14,14.97s-1.08.27-2.98.63c-4.78,1.17-14.61,3.7-23.9,7.31-12.99,5.14-22.54-1.25-26.87-5.77-2.75-2.87-4.91-6.67-4.76-9.43.16-3.02,4.15-2.88,7.18-2.9Z"/>
      <path class="cls-23" d="M2241.95,1173.01l3.16,11.54s3.97-.72,10.28-1.89c1.89-.37,2.97-.64,2.97-.64,5.05-.99,11.09-2.34,17.67-3.79h.1c11.27-2.7,23.89-5.95,34.54-9.56.95-.33,1.89-.67,2.81-1,6.29-2.32-5.87-34.26-11.37-30.29-1.46,1.06-3.02,2.15-4.66,3.27-9.12,6.2-20.74,13.1-31.05,18.91-5.05,2.89-9.83,5.5-13.8,7.67-6.4,3.52-10.64,5.77-10.64,5.77Z"/>
      <path class="cls-6" d="M2297.44,1140.65s-.66,21.81,19.75,32.41c23.6-8.52,36.22-43.71,45.96-67.88,1.35-3.33,2.62-6.67,3.87-9.92,4.51-12.08,8.12-23.99,10.28-34.27,1.35-6.13-24.89-37.06-28.23-29.75-5.14,11.63-10.55,26.69-15.6,41.66-2.8,8.21-5.5,16.42-8.21,23.99-1.54,4.6-3.07,8.92-4.51,12.89-2.8,7.58-5.32,13.71-7.57,17.59-1.45,2.53-5.59,6.04-11.09,10.01-1.46,1.06-3.02,2.15-4.66,3.27Z"/>
    </g>
  </g>
  <polygon class="cls-20" points="1898.14 662.82 786.1 662.82 773.33 611.98 1884.12 611.98 1898.14 662.82"/>
  <g>
    <path class="cls-19" d="M842.45,637.85c1.45,4.56-1.44,8.28-6.44,8.31-5.01.03-10.24-3.63-11.68-8.19-1.45-4.56,1.44-8.28,6.44-8.31,5-.03,10.24,3.63,11.68,8.19Z"/>
    <path class="cls-19" d="M879.95,637.59c1.45,4.56-1.44,8.28-6.44,8.31-5,.03-10.24-3.63-11.68-8.19-1.45-4.56,1.44-8.28,6.44-8.31,5.01-.03,10.24,3.63,11.68,8.19Z"/>
    <path class="cls-19" d="M917.45,637.33c1.45,4.56-1.44,8.28-6.44,8.31-5.01.03-10.24-3.63-11.68-8.19-1.45-4.56,1.44-8.28,6.44-8.31,5.01-.03,10.24,3.63,11.68,8.19Z"/>
  </g>
  <path class="cls-36" d="M930.44,779.28s130.89.5,225.81,73.26c94.92,72.77,81.24,138.06,160,154.42,129.06,26.82,48.94-110.93,216.54-96.6l86.23,331.22h-579.88l-44.19-205.27-64.52-257.04Z"/>
  <path class="cls-10" d="M1346.13,1011.66c-8.88,0-18.85-1.18-30.12-3.52-43.47-9.03-59.5-33.42-79.79-64.3-16.81-25.58-37.74-57.42-80.69-90.35-26.96-20.67-74.53-48.5-148.02-63.7-43.96-9.09-76.75-9.32-77.08-9.32v-2.39c.34,0,33.36.23,77.56,9.37,40.8,8.44,99.77,26.41,148.99,64.14,43.27,33.17,64.32,65.2,81.23,90.93,20.77,31.6,35.78,54.44,78.28,63.27,60.53,12.58,74.21-11.21,90.06-38.75,17.66-30.68,37.68-65.46,126.34-57.87l-.2,2.38c-87.16-7.45-106.76,26.62-124.07,56.68-8.02,13.93-15.6,27.1-29.03,35.23-9.05,5.47-19.99,8.19-33.46,8.19Z"/>
  <path class="cls-31" d="M961.01,900.31l33.28,132.6,44.86,208.68h579.88l-29.24-108.35s-85.84-47.84-202.25-6.14c-116.41,41.7-245.28,3.21-253.57-90.58-9.35-105.76-106.52-156.7-172.96-136.2Z"/>
  <path class="cls-10" d="M1107.51,963.04c-33.33-51.53-94.8-77.44-146.16-61.59l-.7-2.28c52.36-16.15,114.97,10.16,148.87,62.58l-2,1.3Z"/>
  <g>
    <rect class="cls-10" x="1305.56" y="997.55" width="18.94" height="18.94" transform="translate(110.45 -129.81) rotate(5.9)"/>
    <rect class="cls-10" x="1324.72" y="847.01" width="3.14" height="324.24" transform="translate(68.54 2102.5) rotate(-78.27)"/>
    <path class="cls-10" d="M1162.15,975.6c.31-2.99,2.98-5.16,5.97-4.85s5.16,2.98,4.85,5.97-2.98,5.16-5.97,4.85c-2.99-.31-5.16-2.98-4.85-5.97Z"/>
    <path class="cls-10" d="M1479.61,1041.54c.31-2.99,2.98-5.16,5.97-4.85,2.99.31,5.16,2.98,4.85,5.97-.31,2.99-2.98,5.16-5.97,4.85-2.99-.31-5.16-2.98-4.85-5.97Z"/>
  </g>
  <g>
    <rect class="cls-10" x="1082.54" y="803.89" width="18.94" height="18.94" transform="translate(855.41 -527.55) rotate(43.31)"/>
    <rect class="cls-10" x="1088.39" y="734.87" width="3.14" height="151.96" transform="translate(-253.73 1010.82) rotate(-45.11)"/>
    <path class="cls-10" d="M1031.91,753.8c1.89-2.33,5.32-2.69,7.65-.8,2.33,1.89,2.69,5.32.8,7.65-1.89,2.33-5.32,2.69-7.65.8-2.33-1.89-2.69-5.32-.8-7.65Z"/>
    <path class="cls-10" d="M1139.57,861.05c1.89-2.33,5.32-2.69,7.65-.8s2.69,5.32.8,7.65c-1.89,2.33-5.32,2.69-7.65.8-2.33-1.89-2.69-5.32-.8-7.65Z"/>
  </g>
  <g>
    <rect class="cls-10" x="1445.58" y="909.54" width="18.94" height="18.94" transform="translate(40.5 1899.22) rotate(-67)"/>
    <rect class="cls-10" x="1406.93" y="917.23" width="96.92" height="3.14" transform="translate(14.19 1859.7) rotate(-65.4)"/>
    <path class="cls-10" d="M1433.49,968.02c-2.84-.97-4.37-4.05-3.4-6.9.96-2.84,4.05-4.37,6.9-3.4,2.84.96,4.37,4.05,3.4,6.9-.97,2.84-4.05,4.37-6.9,3.4Z"/>
    <path class="cls-10" d="M1473.8,879.88c-2.84-.97-4.37-4.05-3.4-6.9.96-2.84,4.05-4.37,6.9-3.4,2.84.96,4.37,4.05,3.4,6.9-.97,2.84-4.05,4.37-6.9,3.4Z"/>
  </g>
  <g>
    <path class="cls-30" d="M1552.51,721.85l29.47,121.81c1.26,5.21-3.66,9.44-10.99,9.44h-303.16c-7.33,0-14.29-4.23-15.55-9.44l-29.47-121.81c-1.26-5.21,3.66-9.44,10.99-9.44h303.16c7.33,0,14.29,4.23,15.55,9.44Z"/>
    <g>
      <g>
        <polygon class="cls-2" points="1299.65 793.1 1267.39 793.1 1259.58 760.83 1291.84 760.83 1299.65 793.1"/>
        <polygon class="cls-2" points="1319.69 809.23 1287.42 809.23 1279.62 776.97 1311.88 776.97 1319.69 809.23"/>
      </g>
      <g>
        <polygon class="cls-2" points="1374.98 793.1 1342.71 793.1 1334.91 760.83 1367.17 760.83 1374.98 793.1"/>
        <g>
          <polygon class="cls-38" points="1395.01 809.23 1362.75 809.23 1354.94 776.97 1387.21 776.97 1395.01 809.23"/>
          <path class="cls-28" d="M1396.72,810.61h-35.02l-8.47-35.02h35.02l8.47,35.02ZM1363.79,807.86h29.51l-7.14-29.51h-29.51l7.14,29.51Z"/>
        </g>
      </g>
      <g>
        <polygon class="cls-38" points="1450.3 793.1 1418.04 793.1 1410.23 760.83 1442.5 760.83 1450.3 793.1"/>
        <path class="cls-2" d="M1452.01,794.48h-35.02l-8.47-35.02h35.02l8.47,35.02ZM1419.08,791.72h29.51l-7.14-29.51h-29.51l7.14,29.51Z"/>
        <polygon class="cls-38" points="1470.34 809.23 1438.07 809.23 1430.27 776.97 1462.53 776.97 1470.34 809.23"/>
        <path class="cls-2" d="M1472.05,810.61h-35.02l-8.47-35.02h35.02l8.47,35.02ZM1439.12,807.86h29.51l-7.14-29.51h-29.51l7.14,29.51Z"/>
        <polygon class="cls-2" points="1452.01 794.41 1433.01 794.41 1428.45 775.58 1447.45 775.58 1452.01 794.41"/>
      </g>
      <g>
        <polygon class="cls-2" points="1525.63 793.1 1493.36 793.1 1485.56 760.83 1517.82 760.83 1525.63 793.1"/>
        <polygon class="cls-2" points="1545.67 809.23 1513.4 809.23 1505.59 776.97 1537.86 776.97 1545.67 809.23"/>
        <polygon class="cls-38" points="1524.72 792.32 1509.94 792.32 1506.39 777.67 1521.17 777.67 1524.72 792.32"/>
      </g>
    </g>
  </g>
  <g>
    <path class="cls-20" d="M713.77,1106.49h-111.72c-14.9,0-29.65-12.08-32.95-26.98l-84.06-379.52c-3.3-14.9,6.1-26.98,21-26.98h111.72c14.9,0,29.65,12.08,32.95,26.98l84.06,379.52c3.3,14.9-6.1,26.98-21,26.98Z"/>
    <rect class="cls-40" x="498.04" y="758.36" width="165.67" height=".72"/>
    <rect class="cls-40" x="517.85" y="847.78" width="165.67" height=".72"/>
    <rect class="cls-40" x="537.66" y="937.21" width="165.67" height=".72"/>
    <path class="cls-10" d="M599.39,731.99c.21-1.92-8.35-34.82-8.35-34.82l30.37,24.6-14.92-.53-7.1,10.76Z"/>
    <path class="cls-30" d="M690.91,1067.61h-58.84l-13.02-58.76h58.84l13.01,58.76ZM634.7,1064.33h52.14l-11.56-52.22h-52.14l11.56,52.22Z"/>
    <polygon class="cls-25" points="648.64 1034.19 593.15 1034.19 580.86 978.7 636.35 978.7 648.64 1034.19"/>
    <rect class="cls-25" x="619.82" y="1035.86" width="70.32" height="4.74" transform="translate(-566.61 917.25) rotate(-52.1)"/>
    <g>
      <path class="cls-30" d="M524.69,731.99c.21-1.92-8.35-34.82-8.35-34.82l30.37,24.6-14.92-.53-7.1,10.76Z"/>
      <g>
        <polygon class="cls-30" points="536.45 797.18 531.98 797.18 530.21 789.19 560.56 789.19 562.26 796.86 557.79 796.86 557.08 793.66 535.67 793.66 536.45 797.18"/>
        <polygon class="cls-30" points="553.71 816.67 549.23 816.67 543.64 791.43 548.12 791.43 553.71 816.67"/>
        <polygon class="cls-30" points="557.73 818.26 545.91 818.26 544.92 813.79 556.74 813.79 557.73 818.26"/>
      </g>
      <polygon class="cls-30" points="618.26 821.05 614.22 818.14 635.54 784.6 639.58 787.51 618.26 821.05"/>
      <g>
        <path class="cls-30" d="M567.03,899.23c-8.54,0-17.02-6.94-18.91-15.48-1.89-8.54,3.52-15.48,12.05-15.48s17.02,6.94,18.91,15.48c1.89,8.54-3.52,15.48-12.05,15.48ZM561.07,872.35c-6.28,0-10.26,5.11-8.87,11.39,1.39,6.28,7.63,11.39,13.91,11.39s10.26-5.11,8.87-11.39c-1.39-6.28-7.63-11.39-13.91-11.39Z"/>
        <path class="cls-30" d="M596.48,912.66c-.53,0-1.12-.21-1.61-.62l-20.58-17.33c-.96-.81-1.23-2.11-.59-2.89.64-.78,1.94-.76,2.9.05l20.58,17.33c.96.81,1.23,2.11.59,2.89-.31.38-.78.57-1.29.57Z"/>
      </g>
      <polygon class="cls-30" points="641.08 866.84 648.74 880.86 663.49 880.86 653.48 889.53 661.14 903.56 647.29 894.89 637.28 903.56 638.73 889.53 624.88 880.86 639.63 880.86 641.08 866.84"/>
    </g>
  </g>
  <g>
    <path class="cls-37" d="M2065.34,744.07s.4,22.1-2.91,21.69c-3.32-.41-7.82-18.53-7.85-18.26-.04.27,1.5,19.05-2.67,19.99-4.17.94-8.4-19.88-8.4-19.88,0,0,2.8,17.87-.14,18.34-2.93.48-7.55-16.85-8.76-16.9-1.21-.05,3.89,14.86.32,15.62-3.57.76-11.55-20.21-8.84-22.88,2.7-2.67,6.91.19,6.91.19,0,0,5.19-3.85,9.18-1.67,0,0,9.35-1.87,12.16,2.28,0,0,5.83-5.02,11,1.49Z"/>
    <g>
      <path class="cls-30" d="M2125.66,659.42l75.81,273.36c3.24,11.7-4.16,21.18-16.53,21.18h-511.73c-12.37,0-25.03-9.48-28.27-21.18l-75.81-273.36c-3.24-11.7,4.16-21.18,16.53-21.18h511.73c12.37,0,25.03,9.48,28.27,21.18Z"/>
      <g>
        <polygon class="cls-8" points="1727.69 782.75 1661.6 782.75 1643.27 716.66 1709.36 716.66 1727.69 782.75"/>
        <polygon class="cls-18" points="1707.01 766.56 1673.3 766.56 1663.95 732.85 1697.66 732.85 1707.01 766.56"/>
        <rect class="cls-25" x="1644.71" y="747.11" width="81.54" height="5.19" transform="translate(90.7 1676.84) rotate(-54.15)"/>
        <polygon class="cls-25" points="1680.65 746.92 1614.56 746.92 1596.23 680.84 1662.32 680.84 1680.65 746.92"/>
      </g>
      <g>
        <polygon class="cls-25" points="1718.19 860.73 1665.06 860.73 1650.33 807.6 1703.46 807.6 1718.19 860.73"/>
        <polygon class="cls-1" points="1770.83 860.73 1717.7 860.73 1702.97 807.6 1756.1 807.6 1770.83 860.73"/>
        <polygon class="cls-11" points="1823.96 860.73 1770.83 860.73 1756.1 807.6 1809.23 807.6 1823.96 860.73"/>
        <polygon class="cls-38" points="1877.1 860.73 1823.96 860.73 1809.23 807.6 1862.36 807.6 1877.1 860.73"/>
        <polygon class="cls-6" points="1930.23 860.73 1877.1 860.73 1862.36 807.6 1915.49 807.6 1930.23 860.73"/>
        <polygon class="cls-26" points="1983.36 860.73 1930.23 860.73 1915.49 807.6 1968.62 807.6 1983.36 860.73"/>
        <polygon class="cls-18" points="2036.49 860.73 1983.36 860.73 1968.62 807.6 2021.75 807.6 2036.49 860.73"/>
        <polygon class="cls-2" points="2089.62 860.73 2036.49 860.73 2021.75 807.6 2074.88 807.6 2089.62 860.73"/>
        <polygon class="cls-17" points="1732.93 913.86 1679.8 913.86 1665.06 860.73 1718.19 860.73 1732.93 913.86"/>
        <polygon class="cls-6" points="1785.57 913.86 1732.44 913.86 1717.7 860.73 1770.83 860.73 1785.57 913.86"/>
        <polygon class="cls-18" points="1838.7 913.86 1785.57 913.86 1770.83 860.73 1823.96 860.73 1838.7 913.86"/>
        <polygon class="cls-2" points="1891.83 913.86 1838.7 913.86 1823.96 860.73 1877.1 860.73 1891.83 913.86"/>
      </g>
      <path class="cls-11" d="M2092.23,703.63h-278.31c-3.82,0-7.82-3.13-8.88-6.95h0c-1.06-3.82,1.2-6.95,5.03-6.95h278.31c3.82,0,7.82,3.13,8.88,6.95h0c1.06,3.82-1.2,6.95-5.03,6.95Z"/>
      <path class="cls-38" d="M2101.97,738.75h-278.31c-3.83,0-7.82-3.13-8.88-6.95h0c-1.06-3.82,1.2-6.95,5.03-6.95h278.31c3.82,0,7.82,3.13,8.88,6.95h0c1.06,3.82-1.2,6.95-5.03,6.95Z"/>
      <path class="cls-18" d="M2111.71,773.86h-278.31c-3.82,0-7.82-3.13-8.88-6.95h0c-1.06-3.82,1.2-6.95,5.02-6.95h278.31c3.82,0,7.82,3.13,8.88,6.95h0c1.06,3.82-1.2,6.95-5.03,6.95Z"/>
      <g>
        <path class="cls-18" d="M1766.6,686.45h8.38c4.4,0,7.64,2.36,8.64,5.99.86,3.09-.48,4.94-2.91,5.69l7.05,7.12h-3.89l-6.49-6.55h-4.08l1.82,6.55h-3.3l-5.21-18.8ZM1777.32,695.77c2.36,0,3.53-1.24,2.98-3.2-.56-2.01-2.31-3.12-4.76-3.12h-4.81l1.75,6.31h4.83Z"/>
        <path class="cls-18" d="M1776.26,731.34c-1.46-5.26,1.33-9.72,7-9.72,3.28,0,5.54.91,7.93,2.55l-1.4,2.5c-1.79-1.24-3.43-2.01-5.82-2.01-3.46,0-5.25,3.03-4.24,6.69,1.07,3.87,4.41,6.71,8.25,6.71,1.77,0,3.23-.56,4.14-1.42l-.98-3.52h-4.81l-.8-2.87h8l2.19,7.9c-1.41,1.58-3.7,2.93-7.03,2.93-5.88,0-10.91-4.19-12.45-9.72Z"/>
        <path class="cls-18" d="M1786.77,759.18h8.43c2.15,0,4,.59,5.38,1.67,1.06.83,1.78,1.85,2.14,3.17.62,2.26-.33,3.46-1.52,4.19,2.41.75,4.29,2.01,5.01,4.62.93,3.36-1.34,5.16-5.53,5.16h-8.7l-5.21-18.8ZM1796.72,767.1c2.12,0,3.31-.83,2.82-2.61-.41-1.48-1.84-2.39-3.97-2.39h-4.75l1.38,5h4.51ZM1799.9,775.05c2.26,0,3.38-.89,2.9-2.63-.44-1.58-1.96-2.52-4.57-2.52h-5.24l1.43,5.16h5.48Z"/>
      </g>
    </g>
  </g>
  <g>
    <g>
      <path class="cls-23" d="M1065.04,692.62c-1.47,1.69-1.66,3.58-.93,5.59,0,0,0,.02.01.03,1.35,3.73,5.81,7.89,10.98,12.05.66.53,1.25,1.02,1.76,1.47.13.12.27.24.4.35.1.09.2.19.3.27,4.83,4.45,3.01,5.47,11.68,14.5,9.89,10.29,16.7,10.47,18.64,9.54,1.64-.8-1.69-6.26-5.38-12.39-.18-.3-.35-.59-.54-.89-.49-.82-.98-1.64-1.47-2.46-4.32-7.38-3.21-10.85-2.19-21.83.83-8.93,13.89-49.88,13.89-49.88l-18.95-3.26s-5.71,32.61-12,37.63c-3.36,2.68-7.13,2.71-10.36,4.69-.23.14-.45.28-.67.42-1.84,1.22-3.71,2.47-5.19,4.17Z"/>
      <path class="cls-4" d="M1065.04,692.62c-1.47,1.69-1.66,3.58-.93,5.59,0,0,0,.02.01.03,1.65,3.72,6,7.87,11,12.01.65.54,1.23,1.04,1.74,1.51.13.12.27.24.4.35.1.09.2.19.3.27,4.83,4.45,3.01,5.47,11.68,14.5,9.89,10.29,16.7,10.47,18.64,9.54,1.64-.8-1.69-6.26-5.38-12.39-1.93-.71-10.87-4.34-17.63-12.99-5.74-7.32-9.63-16.66-13.54-22.38-.43-.08-.69-.13-1.11-.21-1.84,1.22-3.71,2.47-5.19,4.17Z"/>
      <path class="cls-23" d="M1217.85,680.78c1.17,5.85,9.51,4.87,18.83,2.6,9.32-2.28,7.1.43,20.36-1.04,13.26-1.47,17.28-6.41,17.68-8.38.36-1.75-6.19-2.37-13.22-3.18-.88-.1-1.77-.21-2.66-.32-7.93-1-13.74-6.12-20.95-10.32-6.83-3.98-17.01-20.21-17.01-20.21l-18.18,1.44s9.54,14.49,13.23,20.79c2.17,3.71,2.06,8.61,1.79,12.39-.14,2.06-.27,4.16.14,6.22Z"/>
      <path class="cls-4" d="M1236.68,683.38c9.32-2.28,7.1.43,20.36-1.04,13.26-1.47,17.28-6.41,17.68-8.38.36-1.75-6.19-2.37-13.22-3.18l-.07.14s-7.95,5.64-18.99,5.9c-9,.22-18.52-2.36-24.74-2.26-.14,2.06-.27,4.16.14,6.22,1.17,5.85,9.51,4.87,18.83,2.6Z"/>
      <path class="cls-22" d="M1148.17,564.51l-17,45.74-22.19,59.72s-6.02.58-11.79-1.08c-5.31-1.54-11.4-5.55-11.4-5.55,0,0,6.16-64.13,17.66-100.94,2.95-9.45,6.25-17.09,9.89-21.39,17.82-21.06,34.84,23.49,34.84,23.49Z"/>
      <path class="cls-36" d="M1130.88,491.87c-9.68-3.12-34.92-.05-62.31,4.91-7.57,1.37-15.19-2.09-19.18-8.66h0l-68.92-5.38s-22.74,50.43-10.29,82.56c1.83,4.72,5.85,7.67,12.04,7.77,0,0,0,0,0,0,0,0,41.64.06,54.96.06,34.27,0,72.53-23.56,77.48-24.55,8.1-1.62,11.34,14.58,19.44,31.59s76.15,75.34,76.15,75.34c0,0,10.46.1,14.78-1.52,4.65-1.74,6.35-4.01,6.35-4.01,0,0-75.4-150.02-100.52-158.12Z"/>
      <path class="cls-3" d="M1042.08,285.74c-5.12-3.05-10.11-3.51-13.16-3.43-2.13.06-4.25-.08-6.36-.39-26.3-3.86-42.14,34.35-43.07,45.89-1.7,21.19-12.92,24.43-28.7,37.7-31.64,26.61-22.36,57.54-5.06,69.03,10.38,6.89,28.68,0,28.68,0,.26.18,50.04-27.83,74.58-41.34,36.79-5.23,7.86-98.67-6.92-107.47Z"/>
      <path class="cls-23" d="M1028.42,381.71c.11.07-12.07,4.23-20.22.62-7.66-3.39-13.47-16-13.36-16,3.49-.16,7.31-3.21,10.26-23.21l1.48.53,24.96,8.98s-1.81,8.01-2.98,15.63c-.98,6.4-1.51,12.53-.15,13.44Z"/>
      <path class="cls-7" d="M1031.55,352.63s-1,4.32-2.45,12.39c-14.34-2.58-20.49-13.62-22.51-21.37l24.96,8.98Z"/>
      <path class="cls-23" d="M1035.27,360.58s-34.15-4.58-30.97-25.81c3.18-21.22.92-36.11,22.86-34.08,21.94,2.03,24.95,10.76,25.61,18.1.66,7.34-8.53,42.43-17.5,41.78Z"/>
      <path class="cls-3" d="M1051.52,307.17s-21.86,18.84-36.73,20.36c-14.87,1.52-20.5-3.25-20.5-3.25,0,0,8.76-7.28,14.04-19.02,1.55-3.46,4.84-5.84,8.62-6.16,10.62-.92,30.75-1.33,34.57,8.08Z"/>
      <path class="cls-3" d="M1037.86,305.48s7.31,7.07,9.62,12.32c2.22,5.06,2.89,17.17,1.12,21.97,0,0,11.39-22.16,4.94-32.92-6.84-11.41-15.68-1.37-15.68-1.37Z"/>
      <path class="cls-6" d="M1057.18,432.01c-1.03,69.13-.28,54.68-7.84,61.24-1.82,1.58-6.94,2.52-13.69,2.97-21.2,1.41-58.46-2.09-59.87-6-4.89-13.55-1.44-17.76-5.52-38.52-.42-2.21-.95-4.6-1.57-7.2-3.4-14.25-6.71-19.1,5.35-42,10.94-20.74,22.31-37.57,23.33-36.97,28.87,17.14,31.2,2.73,31.2,2.73,0,0,29.11,30.02,28.61,63.74Z"/>
      <path class="cls-36" d="M1131.17,610.25l-22.19,59.72s-6.02.58-11.79-1.08c-5.31-1.54-11.4-5.55-11.4-5.55,0,0,6.16-64.13,17.66-100.94l27.73,47.84Z"/>
      <path class="cls-6" d="M1028.58,368.27s29.71,5.04,33.19,17.83c3.49,12.79,14.97,90.42,14.97,90.42,0,0-8.38,8.18-15.35,1.2-6.98-6.98-21.95-72.63-21.95-72.63l-10.86-36.82Z"/>
      <path class="cls-16" d="M1035.65,496.22c-21.2,1.41-58.46-2.09-59.87-6-4.89-13.55-1.44-17.76-5.52-38.52l10.22-28.79s-1.69,32.06,7.76,40.49c9.44,8.43,38.71,16.28,43.3,23.32,2.22,3.38,3.67,6.77,4.1,9.49Z"/>
      <path class="cls-23" d="M1011.36,482.73s20.91-4.66,24.29-2.8c3.37,1.86,11.62,8.61,12.65,10.97,1.03,2.35-7.51-1.79-10.29-2.53-1.8-.48-6.54,1.16-8.88,1.95-9.87,3.29-15.92,1.6-15.92,1.6l-1.85-9.18Z"/>
      <path class="cls-6" d="M997.36,365.52s-28.08,1.73-37.8,15.29c-13.68,19.08-40.83,100.42-25.27,111.26,17.52,12.22,79.73,3.2,79.73,3.2,0,0,2.07-9.68-.81-14.36-2.88-4.68-49.69-12.24-51.85-14.4-2.16-2.16,27.01-42.13,27.01-48.61s8.99-52.37,8.99-52.37Z"/>
      <path class="cls-23" d="M1036.66,485.75s4.38,5.65,5.82,6.33c1.44.67,2.36.51,2.36.51l-2.95-5.31-5.23-1.52Z"/>
      <path class="cls-23" d="M1035.65,479.93l12.74,6.19s-.54.89-2.11.81c-1.57-.07-5.52-1.52-5.52-1.52l-5.1-5.48Z"/>
    </g>
    <g>
      <polygon class="cls-3" points="1144.43 494.48 1011.36 494.48 1011.36 497.41 1143.25 497.41 1144.43 494.48"/>
      <polygon class="cls-3" points="1042.48 497.41 1143.25 497.41 1173.56 422.03 1072.95 422.03 1042.48 497.41"/>
      <path class="cls-19" d="M1117.81,459.72c.76-2.65-.77-4.8-3.42-4.8s-5.41,2.15-6.17,4.8.77,4.8,3.42,4.8,5.41-2.15,6.17-4.8Z"/>
    </g>
  </g>
  <rect class="cls-10" x="1101.67" y="960.42" width="13.7" height="13.7" transform="translate(907.2 -490.09) rotate(41.03)"/>
  <g>
    <path class="cls-22" d="M975.67,1140.3c-2.06-6.85-3.09-7.47-3.09-7.47,0,0-64.07,7.99-74.94,7.28-6.45-.42-83.4-26.08-83.4-26.08l-46.72,44.8s115.87,19.09,132.2,17.84c26.99-2.07,68.18-25.89,68.18-25.89,0,0,9.39-5.12,7.77-10.5Z"/>
    <path class="cls-34" d="M800.55,1651.75s.9,21.71,5.06,26.99l58,.34c-.41-2.24-.65-7.42-8.67-8.82-10.13-1.76-22.04-8.83-28.17-22.23-6.46-14.09-26.23,3.72-26.23,3.72Z"/>
    <path class="cls-34" d="M686.73,1648.62s-4.04,28.84,1.45,29.35c.73.07,23.37.43,33.18.59,11.53.19,30.48-.21,30.48-.21,2.38.1,3.94-2.48,2.73-4.54-1.33-2.25-3.87-4.66-8.71-5.59-10.1-1.94-26.93-9.36-32.83-22.86-6.21-14.2-26.28,3.26-26.28,3.26Z"/>
    <path class="cls-16" d="M830.7,1353.04s-16.13,56.43-62.35,154.43c-46.22,97.99-48.22,145.22-48.22,145.22,0,0-7,2.47-16.28,1.49-10.04-1.07-17.13-5.55-17.13-5.55,0,0,2.99-116.64,24.83-166.09,21.83-49.45,26.28-184.78,26.28-184.78l92.87,55.29Z"/>
    <path class="cls-6" d="M856.6,1304.49s1.28,87.38-13.83,194.67c-15.12,107.29-8.05,157.18-8.05,157.18,0,0-4.01,2.92-16.33,2.87-14.43-.06-21.82-6.02-21.82-6.02,0,0-21.64-107.33-15.44-161.03,6.2-53.7-29.63-184.27-29.63-184.27l105.1-3.41Z"/>
    <path class="cls-23" d="M821.48,1086.67c-.15,6.86-1.07,14.32-3.81,17.98l-15.39,8.08-17.06-12.65s6.25-13.86,4.72-34.13c-.15-1.22-.76-8.99-.76-9.14l8.53,4.26,23.16,11.58s0,.46.15,1.07c.15,2.29.46,7.31.46,12.95Z"/>
    <path class="cls-36" d="M736.23,1315.28c5.58,25.54,125.1,14.33,123.54-1.26-.06-.52-.37-7.74-.8-17.46-.91-21.04-2.29-53.91-2.46-56.48,0-.04-.01-.09-.01-.13-2.15-21.71-4.22-42.94-4.35-56.81-.12-12.03-1.78-24.32-3.98-35.49-2.03-10.3-4.53-19.66-6.7-26.95-1.53-5.14-4.38-9.65-8.15-13.2-2.69-2.52-5.84-4.56-9.31-5.94-.95-.4-1.91-.73-2.9-1.01-14.06-4.08-28.25-9.28-33.52-7.73-14.28,4.2-30.18,29.5-37.69,61.56-14.06,60-17.31,144.27-13.66,160.91Z"/>
    <path class="cls-24" d="M821.48,1086.67c-8.68-3.5-25.29-11.43-29.86-20.42-1.98-3.96,1.07-5.18,6.09-5.18l23.16,11.58s0,.46.15,1.07c.15,2.29.46,7.31.46,12.95Z"/>
    <path class="cls-23" d="M832.02,1071.23s-41.59,12.97-49.27-13.05c-7.68-26.02-18.22-41.88,8.01-51.26,26.23-9.38,34.34-.98,39.02,7.08,4.68,8.06,12.86,53.19,2.24,57.23Z"/>
    <path class="cls-21" d="M828.15,1011.49s-2.65,30.28-8.92,28.97c-6.26-1.31-11.94-2.29-11.03,6.84.92,9.13,1.21,20.1-18.09,21.72-19.3,1.62-38.66-48.59-33.36-58.02,15.3-27.19,93.5-32.68,71.39.49Z"/>
    <path class="cls-22" d="M858.97,1296.55c-.91-21.04-2.29-53.91-2.46-56.48,0-.04-.01-.09-.01-.13l-70.6-42.21s-2.73,98.55,73.08,98.83Z"/>
    <g>
      <g>
        <path class="cls-21" d="M1102.54,961.97l12.72,11.07s-21.81,23.35-19.78,47.92l-32.56,27.49-26.96-23.47,22.54-37.39s24.17-.88,44.03-25.62Z"/>
        <path class="cls-10" d="M1069.45,1001.91c2.63-3.02,7.2-3.34,10.22-.71,3.02,2.63,3.34,7.2.71,10.22-2.63,3.02-7.2,3.34-10.22.71-3.02-2.63-3.34-7.2-.71-10.22Z"/>
        <rect class="cls-10" x="1088.37" y="960.34" width="2.76" height="58.57" transform="translate(917.49 -472.3) rotate(41.04)"/>
      </g>
      <rect class="cls-12" x="1028.63" y="1035.61" width="35.75" height="8.98" transform="translate(939.75 -431.49) rotate(41.03)"/>
      <path class="cls-21" d="M762.03,1368.37l-1.31-1.14c-7.09-6.17-7.83-16.91-1.67-24l271.02-311.48,26.97,23.47-271.02,311.48c-6.17,7.09-16.91,7.83-24,1.67Z"/>
    </g>
    <path class="cls-23" d="M914.53,1207.32s5.21-4.63,6.43-7.82c.42-1.11,3.97-6.13,10.03-5.69,5.53.41,15.37-11.38,15.37-11.38,1.43,3.12,6.37,14.81-.7,20.73-5.76,4.83-19.64,13.2-28.06,18.7-9.04,5.91-3.08-14.55-3.08-14.55Z"/>
    <path class="cls-36" d="M915.22,1205.59s-70.03,11.91-76.24,8.88c-9.9-4.82,3.84-75.88,3.84-75.88,0,0,.59-16.1-18.22-19.9-16.35-3.3-32.12,8.94-32.12,8.94,0,0-14.34,12.83-12.51,27.07,4.06,31.55,10.38,95.73,31.48,105.57,27.22,12.69,105.99-35.18,105.99-35.18,0,0,2.62-3.21,2.25-9.18-.33-5.26-4.48-10.32-4.48-10.32Z"/>
    <path class="cls-23" d="M978.59,1145.4s17.68-6.44,16.12-15.48c-1.56-9.04-7.07-7.9-10.39-4.78-3.33,3.12-1.48,19.12-5.73,20.26Z"/>
    <path class="cls-23" d="M919.74,1202.69s2.41-7.08,4.98-10.12c2.57-3.04,3.66-8.18,4.83-6.47,1.17,1.71-.93,7.87,0,10.21.94,2.34-9.81,6.38-9.81,6.38Z"/>
  </g>
  <rect class="cls-40" x="2169.17" y="1568.25" width="316.66" height="109.98"/>
  <rect class="cls-4" y="1677.51" width="2694.02" height="7.76" rx="3.18" ry="3.18"/>
</svg>