<?xml version="1.0" encoding="UTF-8"?>
<svg id="Speech_Bubble" xmlns="http://www.w3.org/2000/svg" width="480.11" height="449.36" viewBox="0 0 480.11 449.36">
  <defs>
    <style>
      .cls-1 {
        fill: #ffa8a7;
      }

      .cls-2 {
        opacity: .85;
      }

      .cls-3, .cls-4 {
        opacity: .6;
      }

      .cls-5, .cls-6, .cls-7, .cls-8, .cls-9, .cls-10, .cls-4, .cls-11, .cls-12 {
        fill: #fff;
      }

      .cls-5, .cls-13 {
        opacity: .2;
      }

      .cls-14 {
        opacity: .03;
      }

      .cls-15 {
        fill: #fafafa;
      }

      .cls-16 {
        opacity: .05;
      }

      .cls-17 {
        fill: #b16668;
      }

      .cls-18 {
        fill: #263238;
      }

      .cls-19 {
        fill: #f0f0f0;
      }

      .cls-20, .cls-8 {
        opacity: .3;
      }

      .cls-21, .cls-9 {
        opacity: .8;
      }

      .cls-21, .cls-22 {
        fill: #ba68c8;
      }

      .cls-23 {
        fill: #37474f;
      }

      .cls-7, .cls-24 {
        opacity: .5;
      }

      .cls-25 {
        opacity: .4;
      }

      .cls-26 {
        opacity: .55;
      }

      .cls-27 {
        fill: #455a64;
      }

      .cls-10 {
        opacity: .35;
      }

      .cls-28 {
        fill: #ebebeb;
      }

      .cls-29 {
        fill: #f28f8f;
      }

      .cls-30 {
        fill: #f5f5f5;
      }

      .cls-31 {
        opacity: .1;
      }

      .cls-11, .cls-32 {
        opacity: .7;
      }

      .cls-12 {
        opacity: .65;
      }
    </style>
  </defs>
  <path id="Floor-2" data-name="Floor" class="cls-30" d="M70.31,408.76c-93.75-54.13-93.75-141.88,0-196,93.75-54.12,245.74-54.12,339.49,0,93.75,54.13,93.75,141.88,0,196-93.75,54.12-245.74,54.12-339.49,0Z"/>
  <path id="Shadow" class="cls-28" d="M17.58,337.01l90.55-52.28c1.55-.89,4.05-.89,5.6,0l83.72,48.33c1.55.89,1.55,2.34,0,3.23l-90.55,52.28c-1.55.89-4.05.89-5.6,0l-83.72-48.33c-1.55-.89-1.55-2.34,0-3.23Z"/>
  <path id="Shadow-2" data-name="Shadow" class="cls-28" d="M424.33,333.52c21.81,12.59,21.81,33.02,0,45.61-21.81,12.59-57.18,12.59-79,0-21.81-12.59-21.81-33.02,0-45.61,21.82-12.59,57.18-12.6,79,0Z"/>
  <g id="Plants-2" data-name="Plants">
    <g>
      <path class="cls-22" d="M409.95,342.59s-2.03-28.31,10.51-54.62c7.01-14.7,17.68-20.79,23.87-20.86,6.94-.08,13.25,7.09,6.18,16.55-6.72,8.99-18.27,11.77-27.25,36.05-5.92,16-6.31,26.93-6.31,26.93l-7.01-4.05Z"/>
      <path class="cls-7" d="M409.95,342.59s-2.03-28.31,10.51-54.62c7.01-14.7,17.68-20.79,23.87-20.86,6.94-.08,13.25,7.09,6.18,16.55-6.72,8.99-18.27,11.77-27.25,36.05-5.92,16-6.31,26.93-6.31,26.93l-7.01-4.05Z"/>
      <path class="cls-6" d="M414.9,335.95c.24,0,.43-.19.43-.43,0-30.76,17.16-54.81,29.34-62.07.2-.12.27-.39.15-.59-.12-.21-.39-.27-.59-.15-12.36,7.36-29.76,31.71-29.76,62.81,0,.24.19.43.43.43Z"/>
    </g>
    <g>
      <path class="cls-22" d="M416.96,346.63c1.69-6.91,6.28-13.72,15.34-20.54,9.06-6.81,21.17-12.65,20.18-19.6-.99-6.95-10.17-6.47-16.89-3.39-6.72,3.07-22.45,16.39-22.13,41.51l3.5,2.02Z"/>
      <path class="cls-12" d="M416.96,346.63c1.69-6.91,6.28-13.72,15.34-20.54,9.06-6.81,21.17-12.65,20.18-19.6-.99-6.95-10.17-6.47-16.89-3.39-6.72,3.07-22.45,16.39-22.13,41.51l3.5,2.02Z"/>
      <path class="cls-6" d="M416,338.62c.2,0,.39-.15.42-.35,2.68-14.69,21.62-31.5,29.79-33.53.23-.06.37-.29.31-.52-.06-.23-.29-.37-.52-.31-8.56,2.13-27.65,18.94-30.43,34.21-.04.23.11.46.35.5.03,0,.05,0,.08,0Z"/>
    </g>
  </g>
  <g id="Gears-2" data-name="Gears">
    <g id="Gears-3" data-name="Gears">
      <g>
        <path class="cls-22" d="M250.59,193.53l-4.82-2.77h0c-.13-.07-.3-.08-.49,0l-5.7,2.57c-.4.18-.82-.02-.95-.44-.33-1.05.91-1.04.4-1.88-.23-.38-.28-.99-.09-1.38l3.8-7.66c.2-.4.05-.89-.34-1.12l-5.79-3.33c-.38-.22-.89-.1-1.13.27l-4.73,7.12c-.24.37-.8.63-1.24.62-.54-.01-1.09.01-1.65.08l1.67-4.26-4.83-2.77h0c-.14-.07-.32-.06-.52.05l-6.4,3.7c-.38.22-.72.76-.76,1.2l-.64,7.12c-.04.44-.34,1.03-.67,1.33-1.25,1.15-2.44,2.41-3.56,3.76-.28.34-.84.5-1.26.36l-4.11-1.44c-.42-.15-.93.05-1.15.43l-4.71,8.15c-.22.38-.13.93.21,1.21l3.3,2.84c.33.29.47.85.32,1.27-.61,1.65-1.11,3.31-1.48,4.96-.1.43-.46.99-.82,1.24l-5.85,4.12c-.36.25-.65.82-.65,1.26v7.39c0,.23.09.39.23.48h0s4.82,2.77,4.82,2.77l3.02-3.16c.18.38.37.75.58,1.09.23.38.28.99.09,1.38l-3.8,7.66c-.2.4-.05.89.34,1.12l5.79,3.33c.38.22.89.1,1.13-.27l3.07-8.06c.24-.37.8-.63,1.24-.62.98.03,2.01-.08,3.08-.31.43-.1.81.16.85.6l.62,6.22c.02.21.11.36.25.44h0s4.81,2.76,4.81,2.76l3.78-5.55c.38-.22.72-.76.76-1.2l-1.02-8.07c.04-.44.41-.91.82-1.08,1.83-.77,3.68-2.09,4.97-3.49.3-.32.86-.49,1.28-.34l2.52.89c.42.15.93-.04,1.15-.43l4.71-8.15c.22-.38.13-.93-.21-1.21l-2.17-1.87c-.33-.29-.47-.85-.35-1.28.52-1.82.64-4.21.59-5.91-.01-.44.25-1,.61-1.26l7.51-3.17c.36-.25.65-.82.65-1.26l2.79-3.35.13-2.7ZM222.63,222.83c-5.97,3.45-9.69,1-9.69-5.9s4.94-15.35,10.91-18.79c5.97-3.45,9.59-.94,9.59,5.96s-4.84,15.28-10.82,18.73Z"/>
        <path class="cls-8" d="M250.59,193.53l-4.82-2.77h0c-.13-.07-.3-.08-.49,0l-5.7,2.57c-.4.18-.82-.02-.95-.44-.33-1.05.91-1.04.4-1.88-.23-.38-.28-.99-.09-1.38l3.8-7.66c.2-.4.05-.89-.34-1.12l-5.79-3.33c-.38-.22-.89-.1-1.13.27l-4.73,7.12c-.24.37-.8.63-1.24.62-.54-.01-1.09.01-1.65.08l1.67-4.26-4.83-2.77h0c-.14-.07-.32-.06-.52.05l-6.4,3.7c-.38.22-.72.76-.76,1.2l-.64,7.12c-.04.44-.34,1.03-.67,1.33-1.25,1.15-2.44,2.41-3.56,3.76-.28.34-.84.5-1.26.36l-4.11-1.44c-.42-.15-.93.05-1.15.43l-4.71,8.15c-.22.38-.13.93.21,1.21l3.3,2.84c.33.29.47.85.32,1.27-.61,1.65-1.11,3.31-1.48,4.96-.1.43-.46.99-.82,1.24l-5.85,4.12c-.36.25-.65.82-.65,1.26v7.39c0,.23.09.39.23.48h0s4.82,2.77,4.82,2.77l3.02-3.16c.18.38.37.75.58,1.09.23.38.28.99.09,1.38l-3.8,7.66c-.2.4-.05.89.34,1.12l5.79,3.33c.38.22.89.1,1.13-.27l3.07-8.06c.24-.37.8-.63,1.24-.62.98.03,2.01-.08,3.08-.31.43-.1.81.16.85.6l.62,6.22c.02.21.11.36.25.44h0s4.81,2.76,4.81,2.76l3.78-5.55c.38-.22.72-.76.76-1.2l-1.02-8.07c.04-.44.41-.91.82-1.08,1.83-.77,3.68-2.09,4.97-3.49.3-.32.86-.49,1.28-.34l2.52.89c.42.15.93-.04,1.15-.43l4.71-8.15c.22-.38.13-.93-.21-1.21l-2.17-1.87c-.33-.29-.47-.85-.35-1.28.52-1.82.64-4.21.59-5.91-.01-.44.25-1,.61-1.26l7.51-3.17c.36-.25.65-.82.65-1.26l2.79-3.35.13-2.7ZM222.63,222.83c-5.97,3.45-9.69,1-9.69-5.9s4.94-15.35,10.91-18.79c5.97-3.45,9.59-.94,9.59,5.96s-4.84,15.28-10.82,18.73Z"/>
        <path class="cls-31" d="M223.04,232.13l-9.33-3.91-7.96-4.1-3.36,6,1.61-2.5c.18.38.37.75.58,1.09.23.38.28.99.09,1.38l-3.8,7.66c-.2.4-.05.89.34,1.12l5.79,3.33c.38.22.89.1,1.13-.27l3.07-8.06c.24-.37.8-.63,1.24-.62.98.03,2.01-.08,3.08-.31.43-.1.81.16.85.6l.62,6.22c.02.21.11.36.25.44h0s4.81,2.76,4.81,2.76l1.79-2.62-.8-8.2Z"/>
        <path class="cls-31" d="M237.92,209.51v-12.37l-5.22-4.42-2.47,4.18c2.07.82,3.22,3.31,3.22,7.2,0,6.9-4.84,15.28-10.82,18.73-3.5,2.02-6.22,2-7.87.26l-1.79,3.03s8.78,2.71,12.81,1.02c4.03-1.69,12.14-17.64,12.14-17.64Z"/>
        <g>
          <path class="cls-22" d="M241.48,184.52l1.26-2.53c.2-.4.05-.89-.34-1.12l-5.79-3.33c-.38-.22-.89-.1-1.13.27l-4.73,7.12c-.08.12-.19.21-.31.3l6.96,4.01,4.09-4.72Z"/>
          <path class="cls-22" d="M202.89,214.3c-.14.19-.29.37-.45.48l-5.85,4.12c-.15.1-.28.26-.39.44l5.23,3.01,7.76-4.42-6.31-3.63Z"/>
          <path class="cls-22" d="M206.44,194.62c-.33.01-.66.19-.82.48l-4.71,8.15c-.1.18-.13.39-.11.6l5.72,3.29,6.44-8.72-6.53-3.8Z"/>
          <path class="cls-22" d="M217.13,183.11l6.69,3.84,5.7-3.29v-2.3l-4.83-2.77h0c-.14-.07-.32-.06-.52.05l-6.4,3.7c-.26.15-.5.45-.64.77Z"/>
          <path class="cls-22" d="M250.59,193.53h0c-.13-.08-.31-.09-.51,0l-5.7,2.57c-.4.18-.81-.02-.95-.44-.22-.72-1.58-2.64-1.46-3.41l3.3-1.49c.19-.09.37-.08.5,0h0s4.82,2.76,4.82,2.76Z"/>
        </g>
        <g class="cls-32">
          <g>
            <path class="cls-6" d="M241.48,184.52l1.26-2.53c.2-.4.05-.89-.34-1.12l-5.79-3.33c-.38-.22-.89-.1-1.13.27l-4.73,7.12c-.08.12-.19.21-.31.3l6.96,4.01,4.09-4.72Z"/>
            <path class="cls-6" d="M230.95,185.17l6.37,3.66,3.89-4.49,1.24-2.5c.12-.24.02-.57-.21-.7l-5.79-3.33c-.24-.14-.56-.06-.72.17l-4.73,7.12s-.03.05-.05.07Z"/>
          </g>
          <g>
            <path class="cls-6" d="M202.89,214.3c-.14.19-.29.37-.45.48l-5.85,4.12c-.15.1-.28.26-.39.44l5.23,3.01,7.76-4.42-6.31-3.63Z"/>
            <path class="cls-6" d="M196.66,219.24l4.77,2.74,7.13-4.06-5.6-3.22c-.12.14-.23.25-.35.33l-5.85,4.12s-.07.05-.1.09Z"/>
          </g>
          <path class="cls-6" d="M206.44,194.62c-.33.01-.66.19-.82.48l-4.71,8.15c-.1.18-.13.39-.11.6l5.72,3.29,6.44-8.72-6.53-3.8Z"/>
          <g>
            <path class="cls-6" d="M217.13,183.11l6.69,3.84,5.7-3.29v-2.3l-4.83-2.77h0c-.14-.07-.32-.06-.52.05l-6.4,3.7c-.26.15-.5.45-.64.77Z"/>
            <path class="cls-6" d="M217.55,182.99l6.26,3.6,5.39-3.11v-1.93l-4.67-2.68s-.12,0-.2.05l-6.4,3.7c-.13.07-.26.21-.37.38Z"/>
          </g>
          <g>
            <path class="cls-6" d="M250.59,193.53h0c-.13-.08-.31-.09-.51,0l-5.7,2.57c-.4.18-.81-.02-.95-.44-.22-.72-1.6-2.7-1.46-3.41l3.3-1.49c.19-.09.37-.08.5,0h0s4.82,2.76,4.82,2.76Z"/>
            <path class="cls-6" d="M242.29,192.47c.06.44.55,1.33.86,1.89.27.5.5.92.59,1.21.04.12.11.21.21.25.09.04.2.04.31-.01l5.43-2.44-3.6-2.07h0s-.47-.27-.47-.27c-.03-.02-.11-.02-.21.02l-3.11,1.4Z"/>
          </g>
        </g>
        <path class="cls-22" d="M250.81,201.4v-7.39c0-.44-.33-.65-.73-.47l-5.7,2.57c-.4.18-.82-.02-.95-.44-.33-1.05-.76-1.99-1.27-2.83-.23-.38-.28-.99-.09-1.38l3.8-7.66c.2-.4.05-.89-.34-1.12l-4.12-2.38c-.38-.22-.89-.1-1.13.27l-4.73,7.12c-.24.37-.8.63-1.24.62-.98-.03-2.01.08-3.08.31-.43.1-.81-.16-.85-.6l-.62-6.22c-.04-.44-.39-.62-.77-.4l-6.4,3.7c-.38.22-.72.76-.76,1.2l-.64,7.12c-.04.44-.34,1.03-.67,1.33-1.25,1.15-2.44,2.41-3.56,3.76-.28.34-.84.5-1.26.36l-4.11-1.44c-.42-.15-.93.05-1.15.43l-4.71,8.15c-.22.38-.13.93.21,1.21l3.3,2.84c.33.29.47.85.32,1.27-.61,1.65-1.11,3.31-1.48,4.96-.1.43-.46.99-.82,1.24l-5.85,4.12c-.36.25-.65.82-.65,1.26v7.39c0,.44.33.65.73.47l5.7-2.57c.4-.18.82.02.95.44.33,1.05.76,1.99,1.27,2.83.23.38.28.99.09,1.38l-3.8,7.66c-.2.4-.05.89.34,1.12l4.12,2.38c.38.22.89.1,1.13-.27l4.73-7.12c.24-.37.8-.63,1.24-.62.98.03,2.01-.08,3.08-.31.43-.1.81.16.85.6l.62,6.22c.04.44.39.62.77.4l6.4-3.7c.38-.22.72-.76.76-1.19l.64-7.12c.04-.44.34-1.03.67-1.33,1.25-1.15,2.44-2.41,3.56-3.76.28-.34.84-.5,1.26-.36l4.11,1.43c.42.15.93-.05,1.15-.43l4.71-8.15c.22-.38.13-.93-.21-1.21l-3.3-2.84c-.33-.29-.47-.85-.32-1.27.61-1.65,1.11-3.31,1.48-4.96.1-.43.46-.99.82-1.24l5.85-4.12c.36-.25.65-.82.65-1.26ZM225.78,224.64c-5.97,3.45-10.82.65-10.82-6.24s4.84-15.28,10.82-18.73c5.97-3.45,10.82-.65,10.82,6.24s-4.84,15.28-10.82,18.73Z"/>
        <g class="cls-26">
          <path class="cls-6" d="M250.81,201.4v-7.39c0-.44-.33-.65-.73-.47l-5.7,2.57c-.4.18-.82-.02-.95-.44-.33-1.05-.76-1.99-1.27-2.83-.23-.38-.28-.99-.09-1.38l3.8-7.66c.2-.4.05-.89-.34-1.12l-4.12-2.38c-.38-.22-.89-.1-1.13.27l-4.73,7.12c-.24.37-.8.63-1.24.62-.98-.03-2.01.08-3.08.31-.43.1-.81-.16-.85-.6l-.62-6.22c-.04-.44-.39-.62-.77-.4l-6.4,3.7c-.38.22-.72.76-.76,1.2l-.64,7.12c-.04.44-.34,1.03-.67,1.33-1.25,1.15-2.44,2.41-3.56,3.76-.28.34-.84.5-1.26.36l-4.11-1.44c-.42-.15-.93.05-1.15.43l-4.71,8.15c-.22.38-.13.93.21,1.21l3.3,2.84c.33.29.47.85.32,1.27-.61,1.65-1.11,3.31-1.48,4.96-.1.43-.46.99-.82,1.24l-5.85,4.12c-.36.25-.65.82-.65,1.26v7.39c0,.44.33.65.73.47l5.7-2.57c.4-.18.82.02.95.44.33,1.05.76,1.99,1.27,2.83.23.38.28.99.09,1.38l-3.8,7.66c-.2.4-.05.89.34,1.12l4.12,2.38c.38.22.89.1,1.13-.27l4.73-7.12c.24-.37.8-.63,1.24-.62.98.03,2.01-.08,3.08-.31.43-.1.81.16.85.6l.62,6.22c.04.44.39.62.77.4l6.4-3.7c.38-.22.72-.76.76-1.19l.64-7.12c.04-.44.34-1.03.67-1.33,1.25-1.15,2.44-2.41,3.56-3.76.28-.34.84-.5,1.26-.36l4.11,1.43c.42.15.93-.05,1.15-.43l4.71-8.15c.22-.38.13-.93-.21-1.21l-3.3-2.84c-.33-.29-.47-.85-.32-1.27.61-1.65,1.11-3.31,1.48-4.96.1-.43.46-.99.82-1.24l5.85-4.12c.36-.25.65-.82.65-1.26ZM225.78,224.64c-5.97,3.45-10.82.65-10.82-6.24s4.84-15.28,10.82-18.73c5.97-3.45,10.82-.65,10.82,6.24s-4.84,15.28-10.82,18.73Z"/>
        </g>
        <g class="cls-13">
          <path class="cls-6" d="M225.94,224.92c6.05-3.49,10.97-12.02,10.97-19,0-3.45-1.18-6.04-3.32-7.27-2.14-1.24-4.97-.97-7.96.76-6.05,3.49-10.97,12.02-10.97,19.01,0,3.45,1.18,6.04,3.33,7.27.89.51,1.89.77,2.97.77,1.54,0,3.23-.51,4.99-1.52ZM214.97,218.4c0-6.9,4.84-15.28,10.82-18.73,5.97-3.45,10.82-.65,10.82,6.24,0,6.9-4.84,15.28-10.82,18.73-5.97,3.45-10.82.65-10.82-6.24Z"/>
          <path class="cls-6" d="M206.02,241.63l4.12,2.38c.38.22.89.1,1.13-.27l4.73-7.12c.24-.37.8-.63,1.24-.62.98.03,2.01-.08,3.08-.31.43-.1.81.16.85.6l.62,6.22c.04.44.39.62.77.4l6.4-3.7c.38-.22.72-.76.76-1.19l.64-7.12c.04-.44.34-1.03.67-1.33,1.25-1.15,2.44-2.41,3.56-3.76.28-.34.84-.5,1.26-.36l4.11,1.43c.42.15.93-.05,1.15-.43l4.71-8.15c.22-.38.13-.93-.21-1.21l-3.3-2.84c-.33-.29-.47-.85-.32-1.27.61-1.65,1.11-3.31,1.48-4.96.1-.43.46-.99.82-1.24l5.85-4.12c.36-.25.65-.82.65-1.26v-7.39c0-.44-.33-.65-.73-.47l-5.7,2.57c-.4.18-.82-.02-.95-.44-.33-1.05-.76-1.99-1.27-2.83-.23-.38-.28-.99-.09-1.38l3.8-7.66c.2-.4.05-.89-.34-1.12l-4.12-2.38c-.38-.22-.89-.1-1.13.27l-4.73,7.12c-.24.37-.8.63-1.24.62-.98-.03-2.01.08-3.08.31-.43.1-.81-.16-.85-.6l-.62-6.22c-.04-.44-.39-.62-.77-.4l-6.4,3.7c-.38.22-.72.76-.76,1.2l-.64,7.12c-.04.44-.34,1.03-.67,1.33-1.25,1.15-2.44,2.41-3.56,3.76-.28.34-.84.5-1.26.36l-4.11-1.44c-.42-.15-.93.05-1.15.43l-4.71,8.15c-.22.38-.13.93.21,1.21l3.3,2.84c.33.29.47.85.32,1.27-.61,1.65-1.11,3.31-1.48,4.96-.1.43-.46.99-.82,1.24l-5.85,4.12c-.36.25-.65.82-.65,1.26v7.39c0,.44.33.65.73.47l5.7-2.57c.4-.18.82.02.95.44.33,1.05.76,1.99,1.27,2.83.23.38.28.99.09,1.38l-3.8,7.66c-.2.4-.05.89.34,1.12ZM205.96,240.65l3.8-7.66c.24-.48.2-1.2-.1-1.68-.5-.82-.92-1.75-1.24-2.76-.09-.3-.29-.52-.56-.64-.12-.06-.26-.08-.39-.08-.14,0-.29.03-.43.09l-5.7,2.57c-.09.04-.17.05-.22.02-.04-.03-.07-.1-.07-.21v-7.39c0-.34.24-.81.52-1l5.85-4.12c.42-.3.83-.91.94-1.43.36-1.61.86-3.27,1.47-4.92.2-.54.02-1.25-.41-1.62l-3.3-2.84c-.22-.19-.28-.57-.14-.82l4.71-8.15c.15-.25.5-.39.78-.29l4.11,1.44c.53.19,1.24-.01,1.6-.45,1.12-1.36,2.31-2.61,3.53-3.73.39-.36.72-1.02.77-1.53l.64-7.12c.03-.34.31-.78.61-.95l6.4-3.7c.09-.05.17-.07.21-.04.05.02.08.1.09.2l.62,6.22c.03.3.17.55.4.72.23.17.53.23.83.16,1.03-.23,2.04-.33,3.01-.31.58.02,1.21-.31,1.51-.76l4.73-7.12c.15-.23.48-.31.72-.17l4.12,2.38c.24.14.33.46.21.7l-3.8,7.66c-.24.48-.19,1.2.1,1.68.5.82.92,1.75,1.24,2.76.09.3.29.52.56.64.26.11.55.11.82-.01l5.7-2.57c.09-.04.17-.05.22-.02.04.03.07.1.07.2v7.39c0,.34-.24.81-.52,1l-5.85,4.12c-.42.3-.83.91-.94,1.43-.36,1.61-.86,3.27-1.47,4.92-.2.54-.02,1.25.41,1.62l3.3,2.84c.22.19.28.57.14.82l-4.71,8.15c-.15.25-.5.39-.78.29l-4.11-1.43c-.53-.19-1.24.01-1.6.45-1.13,1.36-2.31,2.61-3.53,3.73-.38.35-.72,1.03-.77,1.53l-.64,7.12c-.03.34-.31.78-.61.95l-6.4,3.7c-.09.05-.17.07-.21.04-.05-.02-.08-.1-.09-.2l-.62-6.22c-.03-.3-.17-.55-.4-.72-.23-.17-.53-.23-.83-.16-1.03.23-2.05.33-3.01.31-.56-.01-1.21.31-1.51.76l-4.73,7.12c-.15.23-.48.3-.72.17l-4.12-2.38c-.24-.14-.33-.46-.21-.7Z"/>
        </g>
      </g>
      <g>
        <path class="cls-22" d="M286.04,146.09h0c-.2-.12-.47-.1-.75.08l-3.61,2.37c-.49.32-1.11.16-1.45-.33-.22-.31-.45-.6-.7-.86-.41-.43-.63-1.16-.42-1.72l5.73-3.63-4.28-2.47h0c-.09-.05-.18-.09-.28-.11l-2.72-.61c-.58-.13-1.27.19-1.54.71l-2.56,4.87c-.27.52-.97,1.02-1.54,1.16-.05.01-.11.03-.16.05.16-.46.22-1.13.22-1.13l-4.29-2.48h0c-.23-.13-.53-.1-.8.12l-4.07,3.2c-.46.36-.81,1.14-.77,1.73l.24,3.88c.04.59-.25,1.42-.63,1.88-.67.8-1.3,1.64-1.89,2.5-.33.49-1.07.87-1.66.84l-2.62-.13c-.59-.03-1.26.38-1.5.92l-2.46,5.52c-.22.49-.03,1.06.42,1.33h0s2.9,1.68,2.9,1.68c.09.24.12.5.07.75-.2.89-.35,1.77-.45,2.63-.07.59-.45,1.39-.88,1.79l-3.61,3.32c-.43.4-.71,1.2-.61,1.78l.68,3.94c.04.26.16.44.33.53h0s4.3,2.49,4.3,2.49l.06-4.93c.49-.32,1.11-.16,1.45.33.22.31.45.6.7.86.41.43.63,1.16.42,1.72l-1.84,4.97c-.16.44,0,.88.36,1.1h0s4.3,2.48,4.3,2.48l1.17-3.2,1.66-4.13c.27-.52.97-1.02,1.54-1.16.55-.14,1.11-.32,1.67-.55.55-.22,1.11.02,1.28.59l.92,3.05c.07.23.2.39.35.48h0s4.31,2.49,4.31,2.49l-.75-4.77,1.32-1.04c.46-.37.81-1.14.77-1.73l-.24-3.87c-.04-.59.25-1.42.63-1.88.67-.8,1.68-1.22,2.27-2.09.33-.49.69-1.28,1.28-1.25l2.62.13c.59.03,1.26-.38,1.5-.92l2.46-5.52c.24-.54,0-1.16-.55-1.4l-2.12-.9c-.54-.23-.86-.88-.73-1.46.2-.89.35-1.77.45-2.63.07-.59.45-1.39.88-1.79l3.61-3.32c.31-.28.53-.77.6-1.23l3.28-2.56-4.28-2.47ZM269.65,171.54c-4.41,3.47-8.64,2.53-9.44-2.11-.8-4.64,2.81-10.53,7.23-14,4.41-3.47,7.96-3.21,8.76,1.43.8,4.64-2.13,11.21-6.55,14.68Z"/>
        <path class="cls-8" d="M286.04,146.09h0c-.2-.12-.47-.1-.75.08l-3.61,2.37c-.49.32-1.11.16-1.45-.33-.22-.31-.45-.6-.7-.86-.41-.43-.63-1.16-.42-1.72l5.73-3.63-4.28-2.47h0c-.09-.05-.18-.09-.28-.11l-2.72-.61c-.58-.13-1.27.19-1.54.71l-2.56,4.87c-.27.52-.97,1.02-1.54,1.16-.05.01-.11.03-.16.05.16-.46.22-1.13.22-1.13l-4.29-2.48h0c-.23-.13-.53-.1-.8.12l-4.07,3.2c-.46.36-.81,1.14-.77,1.73l.24,3.88c.04.59-.25,1.42-.63,1.88-.67.8-1.3,1.64-1.89,2.5-.33.49-1.07.87-1.66.84l-2.62-.13c-.59-.03-1.26.38-1.5.92l-2.46,5.52c-.22.49-.03,1.06.42,1.33h0s2.9,1.68,2.9,1.68c.09.24.12.5.07.75-.2.89-.35,1.77-.45,2.63-.07.59-.45,1.39-.88,1.79l-3.61,3.32c-.43.4-.71,1.2-.61,1.78l.68,3.94c.04.26.16.44.33.53h0s4.3,2.49,4.3,2.49l.06-4.93c.49-.32,1.11-.16,1.45.33.22.31.45.6.7.86.41.43.63,1.16.42,1.72l-1.84,4.97c-.16.44,0,.88.36,1.1h0s4.3,2.48,4.3,2.48l1.17-3.2,1.66-4.13c.27-.52.97-1.02,1.54-1.16.55-.14,1.11-.32,1.67-.55.55-.22,1.11.02,1.28.59l.92,3.05c.07.23.2.39.35.48h0s4.31,2.49,4.31,2.49l-.75-4.77,1.32-1.04c.46-.37.81-1.14.77-1.73l-.24-3.87c-.04-.59.25-1.42.63-1.88.67-.8,1.68-1.22,2.27-2.09.33-.49.69-1.28,1.28-1.25l2.62.13c.59.03,1.26-.38,1.5-.92l2.46-5.52c.24-.54,0-1.16-.55-1.4l-2.12-.9c-.54-.23-.86-.88-.73-1.46.2-.89.35-1.77.45-2.63.07-.59.45-1.39.88-1.79l3.61-3.32c.31-.28.53-.77.6-1.23l3.28-2.56-4.28-2.47ZM269.65,171.54c-4.41,3.47-8.64,2.53-9.44-2.11-.8-4.64,2.81-10.53,7.23-14,4.41-3.47,7.96-3.21,8.76,1.43.8,4.64-2.13,11.21-6.55,14.68Z"/>
        <path class="cls-31" d="M281.1,154.22l-5.32-2.59-1.24,2.02c.81.6,1.39,1.65,1.66,3.2.8,4.64-2.13,11.21-6.55,14.68-2.64,2.08-5.21,2.56-7.03,1.63l-.47.77s3.03,4.61,6.79,3.75c1.58-.36,3.44-1.33,5.2-2.66.06-.54.3-1.16.61-1.54.67-.8,1.68-1.22,2.27-2.09.33-.49.69-1.28,1.28-1.25l.4.02c.44-.7.82-1.42,1.1-2.15,1.75-4.56,1.3-13.8,1.3-13.8Z"/>
        <g>
          <path class="cls-22" d="M253.54,170.66l-3.57,3.28c-.26.24-.45.63-.55,1.03l5.3,3.06v-.28c.5-.32,1.11-.16,1.45.33,0,0,0,0,0,0l5.11-2.95-7.74-4.47Z"/>
          <path class="cls-22" d="M262.63,160.73c.4-.62.84-1.23,1.31-1.82l-5.09-2.94c-.25.1-.51.17-.75.16l-2.62-.13c-.37-.02-.78.14-1.08.39l7.83,4.52.39-.19Z"/>
          <path class="cls-22" d="M290.31,148.55c-.2-.11-.46-.09-.73.09l-3.61,2.37c-.49.32-1.1.16-1.45-.33-.22-.31-.45-.6-.71-.86-.41-.43-.63-1.16-.42-1.72l.34-.92,1.55-1.02c.28-.18.55-.19.75-.07h0s4.28,2.46,4.28,2.46Z"/>
          <path class="cls-22" d="M279.66,147.49s-.08-.1-.12-.15c-.41-.43-.63-1.16-.42-1.72l5.73-3.63-4.28-2.47h0c-.09-.05-.18-.09-.28-.11l-2.72-.61c-.58-.13-1.27.19-1.54.71l-2.56,4.87c-.12.24-.34.46-.58.65l5.77,3.33,1-.89Z"/>
          <path class="cls-22" d="M262.15,146.38l5.3,3.06,4.36-3.99c.12-.44.18-.98.18-.98l-4.29-2.48h0c-.23-.13-.53-.1-.8.12l-4.07,3.2c-.3.24-.54.65-.67,1.07Z"/>
        </g>
        <g class="cls-32">
          <g>
            <path class="cls-6" d="M253.54,170.66l-3.57,3.28c-.26.24-.45.63-.55,1.03l5.3,3.06v-.28c.5-.32,1.11-.16,1.45.33,0,0,0,0,0,0l5.11-2.95-7.74-4.47Z"/>
            <path class="cls-6" d="M255.28,177.16c.35,0,.7.13.99.39l4.18-2.41-6.85-3.95-3.34,3.07c-.13.12-.25.3-.33.52l4.56,2.63h.01c.24-.17.51-.25.78-.25Z"/>
          </g>
          <g>
            <path class="cls-6" d="M262.63,160.73c.4-.62.84-1.23,1.31-1.82l-5.09-2.94c-.25.1-.51.17-.75.16l-2.62-.13c-.37-.02-.78.14-1.08.39l7.83,4.52.39-.19Z"/>
            <path class="cls-6" d="M255.31,156.43l6.95,4.01.09-.04c.3-.46.63-.92.97-1.37l-4.49-2.6c-.26.09-.51.13-.73.12l-2.62-.13c-.05,0-.11,0-.16,0Z"/>
          </g>
          <g>
            <path class="cls-6" d="M290.31,148.55c-.2-.11-.46-.09-.73.09l-3.61,2.37c-.49.32-1.1.16-1.45-.33-.22-.31-.45-.6-.71-.86-.41-.43-.63-1.16-.42-1.72l.34-.92,1.55-1.02c.28-.18.55-.19.75-.07h0s4.28,2.46,4.28,2.46Z"/>
            <path class="cls-6" d="M284.09,147.46l-.29.79c-.14.37.01.95.33,1.28.25.26.5.56.75.91.19.27.55.43.87.22l3.45-2.27-2.73-1.58v.02l-.64-.38c-.06-.04-.18-.01-.3.07l-1.43.94Z"/>
          </g>
          <g>
            <path class="cls-6" d="M279.66,147.49s-.08-.1-.12-.15c-.41-.43-.63-1.16-.42-1.72l5.73-3.63-4.28-2.47h0c-.09-.05-.18-.09-.28-.11l-2.72-.61c-.58-.13-1.27.19-1.54.71l-2.56,4.87c-.12.24-.34.46-.58.65l5.77,3.33,1-.89Z"/>
            <path class="cls-6" d="M273.58,144.97l5.02,2.9.47-.42c-.43-.6-.57-1.37-.36-1.96l.05-.13,5.26-3.34-3.68-2.12c-.06-.04-.11-.06-.17-.07l-2.72-.61c-.38-.09-.89.15-1.08.5l-2.56,4.87c-.07.13-.15.25-.26.37Z"/>
          </g>
          <g>
            <path class="cls-6" d="M262.15,146.38l5.3,3.06,4.36-3.99c.12-.44.18-.98.18-.98l-4.29-2.48h0c-.23-.13-.53-.1-.8.12l-4.07,3.2c-.3.24-.54.65-.67,1.07Z"/>
            <path class="cls-6" d="M262.67,146.19l4.72,2.73,4.04-3.7c.04-.18.08-.38.1-.53l-3.19-1.84h0s-.86-.49-.86-.49c-.12-.07-.26.02-.33.08l-4.07,3.2c-.15.12-.3.32-.41.55Z"/>
          </g>
        </g>
        <path class="cls-22" d="M291.33,153.04l-.68-3.94c-.1-.58-.58-.79-1.07-.47l-3.61,2.37c-.49.32-1.11.16-1.45-.33-.22-.31-.45-.6-.7-.86-.41-.43-.63-1.16-.42-1.72l1.84-4.97c.2-.55-.1-1.11-.67-1.24l-2.72-.61c-.58-.13-1.27.19-1.54.71l-2.56,4.87c-.27.52-.97,1.02-1.54,1.16-.55.14-1.11.32-1.67.55-.55.22-1.11-.02-1.28-.59l-.92-3.05c-.17-.57-.68-.73-1.15-.36l-4.07,3.2c-.46.36-.81,1.14-.77,1.73l.24,3.87c.04.59-.25,1.42-.63,1.88-.67.8-1.3,1.64-1.89,2.5-.33.49-1.07.87-1.66.84l-2.62-.13c-.59-.03-1.26.38-1.5.92l-2.46,5.52c-.24.54,0,1.16.55,1.4l2.11.9c.54.23.86.88.73,1.46-.2.89-.35,1.77-.45,2.63-.07.59-.45,1.39-.88,1.79l-3.61,3.32c-.43.4-.71,1.2-.61,1.78l.68,3.94c.1.58.58.79,1.07.47l3.61-2.37c.49-.32,1.11-.16,1.45.33.22.31.45.6.7.86.41.43.63,1.16.42,1.72l-1.84,4.97c-.2.55.1,1.11.67,1.24l2.72.61c.58.13,1.27-.19,1.54-.71l2.56-4.87c.27-.52.97-1.02,1.54-1.16.55-.14,1.11-.32,1.67-.55.55-.22,1.11.02,1.28.59l.92,3.05c.17.57.68.73,1.15.36l4.07-3.2c.46-.36.81-1.14.77-1.73l-.24-3.87c-.04-.59.26-1.42.63-1.88.67-.8,1.3-1.64,1.89-2.5.33-.49,1.07-.87,1.66-.84l2.62.13c.59.03,1.26-.38,1.5-.92l2.46-5.52c.24-.54,0-1.16-.55-1.4l-2.12-.9c-.54-.23-.86-.88-.73-1.46.2-.89.35-1.77.45-2.63.07-.59.45-1.39.88-1.79l3.61-3.32c.43-.4.71-1.2.61-1.78ZM273.94,174.01c-4.41,3.47-8.64,2.53-9.44-2.11-.8-4.64,2.13-11.21,6.55-14.68,4.41-3.47,8.64-2.53,9.44,2.11.8,4.64-2.13,11.21-6.55,14.68Z"/>
        <g class="cls-26">
          <path class="cls-6" d="M291.33,153.04l-.68-3.94c-.1-.58-.58-.79-1.07-.47l-3.61,2.37c-.49.32-1.11.16-1.45-.33-.22-.31-.45-.6-.7-.86-.41-.43-.63-1.16-.42-1.72l1.84-4.97c.2-.55-.1-1.11-.67-1.24l-2.72-.61c-.58-.13-1.27.19-1.54.71l-2.56,4.87c-.27.52-.97,1.02-1.54,1.16-.55.14-1.11.32-1.67.55-.55.22-1.11-.02-1.28-.59l-.92-3.05c-.17-.57-.68-.73-1.15-.36l-4.07,3.2c-.46.36-.81,1.14-.77,1.73l.24,3.87c.04.59-.25,1.42-.63,1.88-.67.8-1.3,1.64-1.89,2.5-.33.49-1.07.87-1.66.84l-2.62-.13c-.59-.03-1.26.38-1.5.92l-2.46,5.52c-.24.54,0,1.16.55,1.4l2.11.9c.54.23.86.88.73,1.46-.2.89-.35,1.77-.45,2.63-.07.59-.45,1.39-.88,1.79l-3.61,3.32c-.43.4-.71,1.2-.61,1.78l.68,3.94c.1.58.58.79,1.07.47l3.61-2.37c.49-.32,1.11-.16,1.45.33.22.31.45.6.7.86.41.43.63,1.16.42,1.72l-1.84,4.97c-.2.55.1,1.11.67,1.24l2.72.61c.58.13,1.27-.19,1.54-.71l2.56-4.87c.27-.52.97-1.02,1.54-1.16.55-.14,1.11-.32,1.67-.55.55-.22,1.11.02,1.28.59l.92,3.05c.17.57.68.73,1.15.36l4.07-3.2c.46-.36.81-1.14.77-1.73l-.24-3.87c-.04-.59.26-1.42.63-1.88.67-.8,1.3-1.64,1.89-2.5.33-.49,1.07-.87,1.66-.84l2.62.13c.59.03,1.26-.38,1.5-.92l2.46-5.52c.24-.54,0-1.16-.55-1.4l-2.12-.9c-.54-.23-.86-.88-.73-1.46.2-.89.35-1.77.45-2.63.07-.59.45-1.39.88-1.79l3.61-3.32c.43-.4.71-1.2.61-1.78ZM273.94,174.01c-4.41,3.47-8.64,2.53-9.44-2.11-.8-4.64,2.13-11.21,6.55-14.68,4.41-3.47,8.64-2.53,9.44,2.11.8,4.64-2.13,11.21-6.55,14.68Z"/>
        </g>
        <g class="cls-13">
          <path class="cls-6" d="M268.86,176.52c1.65,0,3.52-.75,5.34-2.18,4.52-3.55,7.52-10.32,6.7-15.08-.36-2.12-1.45-3.63-3.05-4.24-1.99-.77-4.57-.08-7.06,1.87-4.52,3.55-7.52,10.32-6.7,15.08.37,2.12,1.45,3.63,3.06,4.24.54.21,1.11.31,1.72.31ZM264.5,171.9c-.8-4.64,2.13-11.21,6.55-14.68,4.41-3.47,8.64-2.53,9.44,2.11.8,4.64-2.13,11.21-6.55,14.68-4.41,3.47-8.64,2.53-9.44-2.11Z"/>
          <path class="cls-6" d="M263.14,189.94c.58.13,1.27-.19,1.54-.71l2.56-4.87c.27-.52.97-1.02,1.54-1.16.55-.14,1.11-.32,1.67-.55.55-.22,1.11.02,1.28.59l.92,3.05c.17.57.68.73,1.15.36l4.07-3.2c.46-.37.81-1.14.77-1.73l-.24-3.87c-.04-.59.26-1.42.63-1.88.67-.8,1.3-1.64,1.89-2.5.33-.49,1.07-.87,1.66-.84l2.62.13c.59.03,1.26-.38,1.5-.92l2.46-5.52c.24-.54,0-1.16-.55-1.4l-2.12-.9c-.54-.23-.86-.88-.73-1.46.2-.89.35-1.77.45-2.63.07-.59.45-1.39.88-1.79l3.61-3.32c.43-.4.71-1.2.61-1.78l-.68-3.94c-.1-.58-.58-.79-1.07-.47l-3.61,2.37c-.49.32-1.11.16-1.45-.33-.22-.31-.45-.6-.7-.86-.41-.43-.63-1.16-.42-1.72l1.84-4.97c.2-.55-.1-1.11-.67-1.24l-2.72-.61c-.58-.13-1.27.19-1.54.71l-2.56,4.87c-.27.52-.97,1.02-1.54,1.16-.55.14-1.11.32-1.67.55-.55.22-1.11-.02-1.28-.59l-.92-3.05c-.17-.57-.68-.73-1.15-.36l-4.07,3.2c-.46.36-.81,1.14-.77,1.73l.24,3.87c.04.59-.25,1.42-.63,1.88-.67.8-1.3,1.64-1.89,2.5-.33.49-1.07.87-1.66.84l-2.62-.13c-.59-.03-1.26.38-1.5.92l-2.46,5.52c-.24.54,0,1.16.55,1.4l2.11.9c.54.23.86.88.73,1.46-.2.89-.35,1.77-.45,2.63-.07.59-.45,1.39-.88,1.79l-3.61,3.32c-.43.4-.71,1.2-.61,1.78l.68,3.94c.1.58.58.79,1.07.47l3.61-2.37c.49-.32,1.11-.16,1.45.33.22.31.45.6.7.86.41.43.63,1.16.42,1.72l-1.84,4.97c-.2.55.1,1.11.67,1.24l2.72.61ZM260.16,188.68c-.07-.13-.08-.28-.02-.43l1.84-4.97c.25-.67.03-1.58-.51-2.15-.24-.25-.46-.52-.66-.81-.31-.44-.77-.67-1.24-.67-.27,0-.54.08-.78.24l-3.61,2.37c-.11.07-.22.1-.29.07-.07-.03-.12-.13-.14-.26l-.68-3.94c-.08-.44.15-1.09.48-1.4l3.61-3.32c.5-.46.93-1.34,1.02-2.05.1-.84.25-1.71.45-2.59.18-.78-.25-1.63-.97-1.94l-2.11-.9c-.16-.07-.28-.19-.34-.35-.06-.16-.06-.33.01-.49l2.46-5.52c.17-.38.67-.71,1.1-.67l2.62.13c.74.03,1.6-.4,2.03-1.02.59-.86,1.22-1.69,1.87-2.47.46-.55.77-1.48.73-2.17l-.24-3.88c-.03-.45.26-1.09.61-1.37l4.07-3.2c.11-.09.22-.12.3-.1.08.02.15.12.19.25l.92,3.05c.11.38.36.68.7.84.35.17.76.17,1.14.02.54-.22,1.09-.4,1.62-.54.72-.18,1.5-.77,1.81-1.37l2.56-4.87c.18-.35.68-.59,1.08-.5l2.72.61c.16.04.28.12.35.25.07.13.07.28.02.43l-1.84,4.97c-.25.67-.03,1.58.51,2.15.24.25.46.52.66.81.48.69,1.35.88,2.02.44l3.61-2.37c.11-.07.22-.1.29-.07.07.03.12.13.14.26l.68,3.94c.08.44-.15,1.09-.48,1.4l-3.61,3.32c-.5.46-.93,1.34-1.01,2.05-.1.84-.25,1.71-.45,2.59-.18.78.25,1.63.97,1.94l2.12.9c.16.07.28.19.34.35.06.16.06.33-.01.49l-2.46,5.52c-.17.38-.68.7-1.1.67l-2.62-.13c-.74-.04-1.6.4-2.03,1.02-.59.86-1.22,1.69-1.87,2.47-.46.55-.77,1.48-.73,2.17l.24,3.88c.03.45-.26,1.09-.61,1.37l-4.07,3.2c-.11.09-.22.12-.3.1-.08-.03-.15-.12-.19-.25l-.92-3.05c-.11-.38-.36-.68-.7-.84-.35-.17-.76-.17-1.14-.02-.54.22-1.09.4-1.62.54-.72.18-1.5.77-1.81,1.37l-2.56,4.87c-.18.35-.69.59-1.08.5l-2.72-.61c-.16-.04-.28-.12-.35-.25Z"/>
        </g>
      </g>
    </g>
  </g>
  <g id="Clouds-2" data-name="Clouds">
    <g class="cls-32">
      <path class="cls-22" d="M143.67,68.73c-.92,0-1.8-.23-2.58-.68-2.19-1.27-3.45-4.15-3.45-7.91,0-6.86,4.2-14.88,9.37-17.86l.72-.42c-.15-1.04-.22-2.13-.22-3.26,0-10.71,6.55-23.2,14.59-27.84,3.56-2.05,7.02-2.34,9.76-.81,2.9,1.62,4.75,5.17,5.19,9.85,2-3.16,4.45-5.66,6.98-7.13,2.88-1.66,5.69-1.88,7.9-.6,2.64,1.53,4.16,5.02,4.16,9.59,0,.73-.04,1.49-.12,2.25,1.37-.71,2.71-.76,3.78-.14,1.35.78,2.12,2.54,2.12,4.83,0,4.18-2.56,9.06-5.71,10.87l-48.7,28.11c-1.31.75-2.6,1.13-3.8,1.13ZM168.03,9.91c-1.71,0-3.57.56-5.48,1.66-7.79,4.5-14.14,16.63-14.14,27.05,0,1.19.09,2.35.26,3.43.03.19-.06.37-.22.47l-.99.57c-4.91,2.84-8.91,10.49-8.91,17.06,0,3.42,1.09,6.02,2.99,7.11,1.51.87,3.45.71,5.46-.45l48.7-28.11c2.9-1.67,5.25-6.19,5.25-10.08,0-1.95-.61-3.43-1.67-4.04-.85-.49-1.96-.39-3.13.29h0l-.52.3c-.15.09-.34.08-.49-.02-.14-.1-.22-.27-.2-.44.14-1.04.22-2.06.22-3.04,0-4.23-1.35-7.44-3.7-8.8-1.91-1.1-4.39-.89-6.98.6-2.73,1.58-5.36,4.44-7.41,8.07-.1.18-.31.27-.51.22-.2-.05-.34-.23-.35-.43-.14-5.09-1.9-8.94-4.81-10.57-1.02-.57-2.16-.85-3.38-.85ZM195.93,24.47h0,0Z"/>
    </g>
    <g class="cls-20">
      <path class="cls-22" d="M188.55,62.88c-.62,0-1.2-.15-1.72-.45-1.44-.83-2.27-2.71-2.27-5.16,0-4.41,2.7-9.55,6.02-11.47l.36-.21c-.08-.64-.13-1.3-.13-1.98,0-6.84,4.19-14.83,9.34-17.8,2.31-1.33,4.56-1.52,6.35-.52,1.79,1,2.96,3.11,3.32,5.91,1.23-1.84,2.7-3.3,4.23-4.18,1.88-1.09,3.72-1.22,5.18-.38,1.73,1,2.72,3.27,2.72,6.23,0,.38-.02.76-.05,1.15.83-.35,1.62-.34,2.29.04.91.53,1.43,1.69,1.43,3.21,0,2.75-1.63,5.84-3.7,7.04l-30.87,17.82c-.85.49-1.7.74-2.49.74ZM204,25.58c-1.05,0-2.21.34-3.39,1.03-4.9,2.83-8.88,10.45-8.88,17,0,.74.05,1.47.16,2.15.03.19-.06.37-.22.47l-.63.36c-3.07,1.77-5.56,6.56-5.56,10.67,0,2.11.66,3.7,1.81,4.36.91.53,2.05.43,3.29-.29l30.87-17.82c1.79-1.03,3.25-3.84,3.25-6.25,0-1.18-.35-2.06-.97-2.41-.49-.28-1.12-.22-1.82.18h0l-.33.19c-.15.09-.34.08-.49-.02-.15-.1-.22-.27-.2-.44.09-.65.14-1.29.14-1.9,0-2.62-.82-4.6-2.26-5.43-1.16-.67-2.67-.53-4.26.38-1.71.98-3.35,2.78-4.64,5.05-.1.18-.31.27-.51.22-.2-.05-.34-.23-.35-.43-.09-3.17-1.17-5.56-2.96-6.56-.62-.35-1.31-.52-2.06-.52Z"/>
    </g>
  </g>
  <g id="Conection">
    <path class="cls-22" d="M179.78,173.12l-1.38-2.38,105.2-60.72c1.62-.94,2.63-2.68,2.63-4.55v-8.96h2.75v8.96c0,2.85-1.53,5.51-4,6.94l-105.2,60.72Z"/>
    <g>
      <path class="cls-27" d="M290.88,89.8c0-.48-.32-.97-.96-1.33-1.28-.74-3.35-.74-4.62,0-.64.37-.96.85-.96,1.33h0v8.6h0c0,.48.32.97.96,1.33,1.28.74,3.35.74,4.62,0,.64-.37.96-.85.96-1.33h0v-8.6h0Z"/>
      <path class="cls-23" d="M292.88,81.2c0-.78-.51-1.56-1.54-2.15-2.06-1.19-5.39-1.19-7.45,0-1.03.59-1.54,1.37-1.54,2.15h0v8.45h.02c-.07.83.42,1.67,1.52,2.3,2.06,1.19,5.39,1.19,7.45,0,1.09-.63,1.59-1.47,1.52-2.3h.02v-8.45h0Z"/>
    </g>
  </g>
  <g id="Cloud">
    <g id="Cloud-2" data-name="Cloud">
      <path class="cls-21" d="M339.15,33.52h0s-.3-.19-.3-.19c-.06-.03-.12-.07-.18-.11l-6.63-3.83c0-.15,0-.31,0-.47,0-8.15-2.74-13.85-7.06-16.25h.01s-12.75-7.37-12.75-7.37h0c-3.51-2-8.07-1.82-13.07,1.07-2.21,1.27-4.33,2.98-6.31,5-.84-.86-1.76-1.6-2.76-2.19h0s-12.33-7.09-12.33-7.09h0c-4.51-2.98-10.55-2.92-17.2.92-13.96,8.06-25.27,29.68-25.27,48.28,0,2.2.16,4.25.46,6.16l-1.74,1.01c-8.88,5.13-16.08,18.88-16.08,30.72h0c0,6.54,2.2,11.2,5.66,13.2h0s12.9,7.45,12.9,7.45h0c2.8,1.6,6.43,1.47,10.39-.81l23.38-13.5,62.28-35.96c5.33-3.08,9.65-11.33,9.65-18.43h0c0-3.72-1.19-6.37-3.08-7.63Z"/>
      <path class="cls-5" d="M339.15,33.52h0s-.3-.19-.3-.19c-.06-.03-.12-.07-.18-.11l-6.63-3.83c0-.15,0-.31,0-.47,0-8.15-2.74-13.85-7.06-16.25h.01s-12.75-7.37-12.75-7.37h0c-3.51-2-8.07-1.82-13.07,1.07-2.21,1.27-4.33,2.98-6.31,5-.84-.86-1.76-1.6-2.76-2.19h0s-12.33-7.09-12.33-7.09h0c-4.51-2.98-10.55-2.92-17.2.92-13.96,8.06-25.27,29.68-25.27,48.28,0,2.2.16,4.25.46,6.16l-1.74,1.01c-8.88,5.13-16.08,18.88-16.08,30.72h0c0,6.54,2.2,11.2,5.66,13.2h0s12.9,7.45,12.9,7.45h0c2.8,1.6,6.43,1.47,10.39-.81l23.38-13.5,62.28-35.96c5.33-3.08,9.65-11.33,9.65-18.43h0c0-3.72-1.19-6.37-3.08-7.63Z"/>
      <path class="cls-10" d="M325,12.68h-.01c-3.48-1.94-8.01-1.72-12.94,1.13-2.32,1.34-4.55,3.16-6.61,5.32l-11.69-6.79-1.15-.67c.09-.1.19-.2.28-.29,1.98-2.02,4.1-3.72,6.3-5,5-2.89,9.57-3.07,13.08-1.05h0s12.75,7.35,12.75,7.35Z"/>
      <path class="cls-9" d="M292.87,11.38c.3.3.59.62.86.96l-1.15-.67c.09-.1.19-.2.28-.29Z"/>
      <path class="cls-10" d="M289.8,9.02h0c-4.4-2.44-10.1-2.16-16.34,1.44-6.33,3.66-12.12,10.11-16.55,17.8l-12.86-7.42c4.43-7.69,10.22-14.14,16.55-17.81,6.65-3.83,12.69-3.89,17.2-.9h0s12.02,6.9,12.02,6.9Z"/>
      <path class="cls-10" d="M248.66,64.91l-1.75,1c-6.01,3.47-11.26,10.92-14.01,19.04l-12.87-7.43c2.19-6.48,5.97-12.51,10.47-16.46l5.29-3.58,12.87,7.43Z"/>
      <path class="cls-22" d="M332.58,33.86l-.92.53c.25-1.84.39-3.66.39-5.45,0-14.73-8.95-21.5-20-15.12-5.12,2.96-9.8,8.23-13.34,14.5-.5-17.73-11.61-25.73-25.25-17.85-13.96,8.06-25.27,29.68-25.27,48.28,0,2.2.16,4.25.47,6.16l-1.74,1.01c-8.88,5.13-16.08,18.88-16.08,30.72h0c0,11.84,7.2,17.54,16.08,12.41l23.38-13.5h0l62.28-35.96c5.33-3.08,9.65-11.33,9.65-18.43h0c0-7.1-4.32-10.37-9.65-7.29Z"/>
      <path class="cls-11" d="M332.58,33.86l-.92.53c.25-1.84.39-3.66.39-5.45,0-14.73-8.95-21.5-20-15.12-5.12,2.96-9.8,8.23-13.34,14.5-.5-17.73-11.61-25.73-25.25-17.85-13.96,8.06-25.27,29.68-25.27,48.28,0,2.2.16,4.25.47,6.16l-1.74,1.01c-8.88,5.13-16.08,18.88-16.08,30.72h0c0,11.84,7.2,17.54,16.08,12.41l23.38-13.5h0l62.28-35.96c5.33-3.08,9.65-11.33,9.65-18.43h0c0-7.1-4.32-10.37-9.65-7.29Z"/>
      <path class="cls-11" d="M240.65,107.63c-3.96,0-6.52-4.32-6.52-11.01,0-10.59,6.61-23.35,14.43-27.87l1.74-1.01c1.18-.68,1.82-2.02,1.61-3.37h0c-.28-1.78-.42-3.68-.42-5.65,0-17.53,10.6-37.91,23.62-45.43,2.98-1.72,5.8-2.59,8.38-2.59,7.05,0,11.62,6.78,11.93,17.68h0c.09,3.34,4.52,4.43,6.16,1.53h0c3.39-6,7.69-10.71,12.11-13.26,2.25-1.3,4.37-1.96,6.29-1.96,5.33,0,8.77,5.58,8.77,14.23,0,1.6-.12,3.28-.36,5.01h0c-.37,2.71,2.54,4.67,4.91,3.3l.92-.53c.81-.47,1.57-.72,2.18-.72,1.74,0,2.52,2.59,2.52,5.16,0,5.94-3.66,13.08-8,15.58l-85.67,49.46c-1.66.96-3.22,1.45-4.62,1.45h0Z"/>
    </g>
  </g>
  <g id="Server-2" data-name="Server">
    <g>
      <path class="cls-22" d="M112.7,64.64l69.92,40.37c1.29.75,2.34,2.56,2.34,4.05v222.17c0,1.49-1.05,3.31-2.34,4.05l-75.63,43.67c-1.29.75-3.39.75-4.68,0l-69.92-40.37c-1.29-.75-2.34-2.56-2.34-4.05V112.35c0-1.49,1.05-3.31,2.34-4.05l75.63-43.67c1.29-.75,3.39-.75,4.68,0Z"/>
      <path class="cls-11" d="M112.7,64.64l69.92,40.37c1.29.75,2.34,2.56,2.34,4.05v222.17c0,1.49-1.05,3.31-2.34,4.05l-75.63,43.67c-1.29.75-3.39.75-4.68,0l-69.92-40.37c-1.29-.75-2.34-2.56-2.34-4.05V112.35c0-1.49,1.05-3.31,2.34-4.05l75.63-43.67c1.29-.75,3.39-.75,4.68,0Z"/>
      <g>
        <path class="cls-22" d="M30.06,112.35v222.17c0,1.49,1.05,3.31,2.33,4.05l69.93,40.37c.64.38,1.49.56,2.33.56v-227.57c-.84,0-1.69-.19-2.33-.56l-69.93-40.37-.64-.53-.83-.69c-.53.8-.86,1.73-.86,2.57Z"/>
        <path class="cls-7" d="M30.06,112.35v222.17c0,1.49,1.05,3.31,2.33,4.05l69.93,40.37c.64.38,1.49.56,2.33.56v-227.57c-.84,0-1.69-.19-2.33-.56l-69.93-40.37-.64-.53-.83-.69c-.53.8-.86,1.73-.86,2.57Z"/>
      </g>
      <g>
        <path class="cls-22" d="M32.4,108.3l75.63-43.67c1.29-.75,3.39-.75,4.68,0l69.92,40.37c1.29.75,1.29,1.96,0,2.7l-75.63,43.67c-1.29.75-3.39.75-4.68,0l-69.92-40.37c-1.29-.75-1.29-1.95,0-2.7Z"/>
        <path class="cls-9" d="M32.4,108.3l75.63-43.67c1.29-.75,3.39-.75,4.68,0l69.92,40.37c1.29.75,1.29,1.96,0,2.7l-75.63,43.67c-1.29.75-3.39.75-4.68,0l-69.92-40.37c-1.29-.75-1.29-1.95,0-2.7Z"/>
      </g>
    </g>
    <g>
      <path class="cls-27" d="M115.1,266.9c-.3,0-.58-.07-.84-.22-.59-.34-.91-1.02-.91-1.91v-19.93c0-1.66,1.13-3.62,2.57-4.45l58.08-33.53c.77-.45,1.52-.51,2.11-.16.59.34.91,1.02.91,1.91v19.93c0,1.66-1.13,3.62-2.57,4.45l-58.08,33.53c-.44.26-.87.38-1.27.38ZM174.45,207.64l-58.08,33.53c-1.14.66-2.11,2.33-2.11,3.65v19.93c0,.54.17.95.46,1.12.29.17.72.11,1.2-.16l58.08-33.53c1.14-.66,2.11-2.33,2.11-3.65v-19.93c0-.54-.17-.95-.45-1.12-.29-.17-.73-.11-1.2.16h0Z"/>
      <path class="cls-22" d="M172.17,216.03c0,1.4-1.05,3.14-2.34,3.88l-49.3,28.46c-1.29.75-2.34.22-2.34-1.18s1.05-3.14,2.34-3.88l49.3-28.46c1.29-.75,2.34-.22,2.34,1.18Z"/>
      <path class="cls-18" d="M172.17,226.17c0,1.4-1.05,3.14-2.34,3.88l-49.3,28.46c-1.29.75-2.34.22-2.34-1.18s1.05-3.14,2.34-3.88l49.3-28.46c1.29-.75,2.34-.22,2.34,1.18Z"/>
      <path class="cls-22" d="M169.84,224.98l-20.92,12.08v5.07s20.92-12.08,20.92-12.08c1.29-.75,2.34-2.48,2.34-3.88s-1.05-1.93-2.34-1.18Z"/>
    </g>
    <g>
      <path class="cls-22" d="M93.69,155.62c-2.42-1.4-4.39-.13-4.39,2.86v117.58c0,2.98,1.96,6.54,4.39,7.95s4.39.13,4.39-2.86v-117.58c0-2.98-1.96-6.54-4.39-7.95Z"/>
      <path class="cls-23" d="M93.69,281.44c-1.21-.7-2.19-2.48-2.19-3.97v-117.91c0-1.49.98-2.13,2.2-1.43,1.21.7,2.19,2.48,2.19,3.97v117.91c0,1.49-.98,2.13-2.2,1.43Z"/>
      <path class="cls-22" d="M93.69,281.44c-1.21-.7-2.19-2.48-2.19-3.97v-62.9s4.39,2.53,4.39,2.53v62.9c0,1.49-.98,2.13-2.2,1.43Z"/>
      <path class="cls-8" d="M93.69,281.44c-1.21-.7-2.19-2.48-2.19-3.97v-62.9s4.39,2.53,4.39,2.53v62.9c0,1.49-.98,2.13-2.2,1.43Z"/>
      <path class="cls-22" d="M80.52,148.02c-2.42-1.4-4.39-.13-4.39,2.86v117.58c0,2.98,1.96,6.54,4.39,7.95,2.42,1.41,4.39.13,4.39-2.86v-117.58c0-2.98-1.96-6.54-4.39-7.95Z"/>
      <path class="cls-22" d="M80.52,273.84c-1.21-.7-2.19-2.48-2.19-3.97v-117.91c0-1.49.98-2.13,2.19-1.43,1.21.7,2.19,2.48,2.19,3.97v117.91c0,1.49-.98,2.13-2.2,1.43Z"/>
      <path class="cls-8" d="M80.52,273.84c-1.21-.7-2.19-2.48-2.19-3.97v-117.91c0-1.49.98-2.13,2.19-1.43,1.21.7,2.19,2.48,2.19,3.97v117.91c0,1.49-.98,2.13-2.2,1.43Z"/>
      <path class="cls-22" d="M67.36,140.42c-2.42-1.4-4.39-.13-4.39,2.86v117.58c0,2.98,1.96,6.54,4.39,7.95,2.42,1.41,4.39.13,4.39-2.86v-117.58c0-2.98-1.96-6.54-4.39-7.95Z"/>
      <path class="cls-23" d="M67.36,266.24c-1.21-.7-2.19-2.48-2.19-3.97v-117.91c0-1.49.98-2.13,2.2-1.43,1.21.7,2.19,2.48,2.19,3.97v117.91c0,1.49-.98,2.13-2.2,1.43Z"/>
      <path class="cls-22" d="M67.36,266.24c-1.21-.7-2.19-2.48-2.19-3.97v-88.45s4.39,2.53,4.39,2.53v88.45c0,1.49-.98,2.13-2.2,1.43Z"/>
      <path class="cls-8" d="M67.36,266.24c-1.21-.7-2.19-2.48-2.19-3.97v-88.45s4.39,2.53,4.39,2.53v88.45c0,1.49-.98,2.13-2.2,1.43Z"/>
      <path class="cls-22" d="M54.19,132.82c-2.42-1.4-4.39-.13-4.39,2.86v117.58c0,2.98,1.96,6.54,4.39,7.95,2.42,1.4,4.39.13,4.39-2.86v-117.58c0-2.98-1.96-6.54-4.39-7.95Z"/>
      <path class="cls-23" d="M54.19,258.64c-1.21-.7-2.19-2.48-2.19-3.97v-117.91c0-1.49.98-2.13,2.19-1.43,1.21.7,2.19,2.48,2.19,3.97v117.91c0,1.49-.98,2.13-2.2,1.43Z"/>
      <path class="cls-22" d="M54.19,258.64c-1.21-.7-2.19-2.48-2.19-3.97v-25.27s4.39,2.53,4.39,2.53v25.27c0,1.49-.98,2.13-2.2,1.43Z"/>
      <path class="cls-8" d="M54.19,258.64c-1.21-.7-2.19-2.48-2.19-3.97v-25.27s4.39,2.53,4.39,2.53v25.27c0,1.49-.98,2.13-2.2,1.43Z"/>
      <path class="cls-22" d="M41.03,125.22c-2.42-1.4-4.39-.13-4.39,2.86v117.58c0,2.98,1.96,6.54,4.39,7.95,2.42,1.41,4.39.13,4.39-2.86v-117.58c0-2.98-1.96-6.54-4.39-7.95Z"/>
      <path class="cls-23" d="M41.03,251.04c-1.21-.7-2.19-2.48-2.19-3.97v-117.91c0-1.49.98-2.13,2.2-1.43,1.21.7,2.19,2.48,2.19,3.97v117.91c0,1.49-.98,2.13-2.2,1.43Z"/>
      <path class="cls-22" d="M41.03,251.04c-1.21-.7-2.19-2.48-2.19-3.97v-67.97s4.39,2.53,4.39,2.53v67.97c0,1.49-.98,2.13-2.2,1.43Z"/>
      <path class="cls-8" d="M41.03,251.04c-1.21-.7-2.19-2.48-2.19-3.97v-67.97s4.39,2.53,4.39,2.53v67.97c0,1.49-.98,2.13-2.2,1.43Z"/>
    </g>
    <g>
      <path class="cls-27" d="M174.22,121.7l-58.08,33.53c-1.29.75-2.34,2.56-2.34,4.05v66.8c0,1.49,1.05,2.1,2.34,1.35l58.08-33.53c1.29-.75,2.34-2.56,2.34-4.05v-66.8c0-1.49-1.05-2.1-2.34-1.35Z"/>
      <path class="cls-18" d="M114.44,157.07c-.39.71-.64,1.49-.64,2.21v66.8c0,1.49,1.05,2.1,2.34,1.35l58.08-33.53c.67-.39,1.27-1.07,1.7-1.84l-61.48-34.99Z"/>
      <path class="cls-23" d="M116.14,155.23c-1.29.75-2.34,2.56-2.34,4.05v64.21s55.85-32.25,55.85-32.25c1.29-.75,2.34-2.56,2.34-4.05v-64.2s-55.85,32.25-55.85,32.25Z"/>
    </g>
    <g id="Server-3" data-name="Server">
      <g>
        <path class="cls-23" d="M46.28,338.81c.57.33,1.04,1.13,1.04,1.79s-.46.93-1.04.6c-.57-.33-1.04-1.13-1.04-1.79s.46-.93,1.04-.6Z"/>
        <path class="cls-23" d="M54.91,343.8c.57.33,1.03,1.13,1.03,1.79s-.46.92-1.03.6c-.57-.33-1.03-1.13-1.03-1.79s.46-.92,1.03-.6Z"/>
        <path class="cls-23" d="M63.39,348.69c.57.33,1.03,1.12,1.03,1.78s-.46.92-1.03.59c-.57-.33-1.03-1.12-1.03-1.78s.46-.92,1.03-.59Z"/>
        <path class="cls-23" d="M71.94,353.63c.57.33,1.02,1.12,1.02,1.77s-.46.92-1.02.59c-.57-.33-1.02-1.12-1.02-1.77s.46-.92,1.02-.59Z"/>
      </g>
      <g>
        <g>
          <path class="cls-30" d="M36.22,288.1l8.77,5.04c1.37.79,2.49,2.72,2.49,4.3v5.03c0,1.58-1.11,2.23-2.49,1.43l-8.77-5.04c-1.37-.79-2.49-2.72-2.49-4.3v-5.03c0-1.58,1.11-2.23,2.49-1.43Z"/>
          <g>
            <path class="cls-22" d="M38.58,293.77l1.14-.66h0s0,0,0,0h0c.39-.22.93-.19,1.52.16,1.19.69,2.16,2.36,2.16,3.74,0,.69-.24,1.17-.63,1.4h0s0,0,0,0h0s-1.06.61-1.06.61l-.19-.32c-.2-.05-.4-.12-.62-.24-1.19-.69-2.16-2.36-2.16-3.74,0-.2.03-.38.07-.55l-.23-.39Z"/>
            <path class="cls-13" d="M38.58,293.77l1.14-.66h0s0,0,0,0h0c.39-.22.93-.19,1.52.16,1.19.69,2.16,2.36,2.16,3.74,0,.69-.24,1.17-.63,1.4h0s0,0,0,0h0s-1.06.61-1.06.61l-.19-.32c-.2-.05-.4-.12-.62-.24-1.19-.69-2.16-2.36-2.16-3.74,0-.2.03-.38.07-.55l-.23-.39Z"/>
            <path class="cls-22" d="M40.15,293.89c1.19.69,2.16,2.36,2.16,3.74s-.97,1.94-2.16,1.25c-1.19-.69-2.16-2.36-2.16-3.74,0-1.38.97-1.94,2.16-1.25Z"/>
          </g>
        </g>
        <g>
          <path class="cls-23" d="M54.51,296.76l42.51,24.52c.76.44,1.38,1.51,1.38,2.39v11.74c0,.88-.62,1.23-1.38.8l-42.51-24.52c-.76-.44-1.38-1.51-1.38-2.39v-11.74c0-.88.62-1.23,1.38-.8Z"/>
          <path class="cls-22" d="M55.72,301.93c0,.82.62,1.85,1.38,2.29l37.34,21.54c.76.44,1.38.13,1.38-.7,0-.82-.62-1.85-1.38-2.29l-37.34-21.54c-.76-.44-1.38-.13-1.38.7Z"/>
          <path class="cls-18" d="M55.72,307.9c0,.82.62,1.85,1.38,2.29l37.34,21.54c.76.44,1.38.13,1.38-.7,0-.82-.62-1.85-1.38-2.29l-37.34-21.54c-.76-.44-1.38-.13-1.38.7Z"/>
          <path class="cls-22" d="M57.1,307.2l25.8,14.87v2.98s-25.8-14.87-25.8-14.87c-.76-.44-1.38-1.46-1.38-2.29s.62-1.14,1.38-.7Z"/>
        </g>
      </g>
      <g>
        <path class="cls-27" d="M132,276.53c-.34,0-.66-.08-.94-.24-.66-.38-1.03-1.15-1.03-2.16v-5.52c0-1.91,1.3-4.16,2.96-5.12l40.61-23.45c.88-.51,1.72-.58,2.39-.19.66.38,1.03,1.15,1.03,2.16v5.52c0,1.92-1.3,4.17-2.96,5.12l-40.61,23.45c-.5.29-.99.44-1.45.44ZM175.05,240.51c-.29,0-.63.11-.99.31l-40.61,23.45c-1.35.78-2.5,2.76-2.5,4.33v5.52c0,.67.2,1.16.57,1.37.37.21.89.14,1.47-.19l40.61-23.45c1.35-.78,2.5-2.76,2.5-4.33v-5.52c0-.67-.2-1.16-.57-1.37-.14-.08-.3-.12-.48-.12Z"/>
        <g>
          <path class="cls-22" d="M173.68,245.1v2.68c0,.35-.24.77-.55.95l-.61.35c-.3.17-.55.03-.55-.32v-2.68c0-.35.24-.77.55-.95l.61-.35c.3-.17.55-.03.55.31Z"/>
          <path class="cls-22" d="M170.93,246.69v2.68c0,.35-.24.77-.55.95l-.61.35c-.3.17-.55.03-.55-.32v-2.68c0-.35.24-.77.55-.95l.61-.35c.3-.17.55-.03.55.32Z"/>
          <path class="cls-22" d="M168.17,248.28v2.68c0,.35-.24.77-.55.95l-.61.35c-.3.17-.55.03-.55-.31v-2.68c0-.35.24-.77.55-.95l.61-.35c.3-.17.55-.03.55.32Z"/>
          <path class="cls-22" d="M165.41,249.87v2.68c0,.35-.24.77-.55.95l-.61.35c-.3.17-.55.03-.55-.32v-2.68c0-.35.24-.77.55-.95l.61-.35c.3-.17.55-.03.55.32Z"/>
          <path class="cls-23" d="M162.65,251.46v2.68c0,.35-.24.77-.55.95l-.61.35c-.3.17-.55.03-.55-.32v-2.68c0-.35.24-.77.55-.95l.61-.35c.3-.17.55-.03.55.31Z"/>
          <path class="cls-23" d="M159.9,253.05v2.68c0,.35-.24.77-.55.95l-.61.35c-.3.17-.55.03-.55-.31v-2.68c0-.35.24-.77.55-.95l.61-.35c.3-.17.55-.03.55.32Z"/>
          <path class="cls-22" d="M157.14,254.64v2.68c0,.35-.24.77-.55.95l-.61.35c-.3.17-.55.03-.55-.31v-2.68c0-.35.24-.77.55-.95l.61-.35c.3-.17.55-.03.55.32Z"/>
          <path class="cls-22" d="M154.38,256.23v2.68c0,.35-.24.77-.55.95l-.61.35c-.3.17-.55.03-.55-.32v-2.68c0-.35.24-.77.55-.95l.61-.35c.3-.17.55-.03.55.32Z"/>
          <path class="cls-22" d="M151.62,257.82v2.68c0,.35-.24.77-.55.95l-.61.35c-.3.17-.55.03-.55-.32v-2.68c0-.35.24-.77.55-.95l.61-.35c.3-.17.55-.03.55.31Z"/>
          <path class="cls-23" d="M148.86,259.41v2.68c0,.35-.24.77-.55.95l-.61.35c-.3.17-.55.03-.55-.31v-2.68c0-.35.24-.77.55-.95l.61-.35c.3-.17.55-.03.55.32Z"/>
          <path class="cls-22" d="M146.11,261v2.68c0,.35-.24.77-.55.95l-.61.35c-.3.17-.55.03-.55-.32v-2.68c0-.35.24-.77.55-.95l.61-.35c.3-.17.55-.03.55.32Z"/>
          <path class="cls-22" d="M143.35,262.59v2.68c0,.35-.24.77-.55.95l-.61.35c-.3.17-.55.03-.55-.32v-2.68c0-.35.24-.77.55-.95l.61-.35c.3-.17.55-.03.55.31Z"/>
          <path class="cls-23" d="M140.59,264.18v2.68c0,.35-.24.77-.55.95l-.61.35c-.3.17-.55.03-.55-.31v-2.68c0-.35.24-.77.55-.95l.61-.35c.3-.17.55-.03.55.31Z"/>
          <path class="cls-22" d="M137.83,265.77v2.68c0,.35-.24.77-.55.95l-.61.35c-.3.17-.55.03-.55-.32v-2.68c0-.35.24-.77.55-.95l.61-.35c.3-.17.55-.03.55.32Z"/>
          <path class="cls-23" d="M135.07,267.36v2.68c0,.35-.24.77-.55.95l-.61.35c-.3.17-.55.03-.55-.32v-2.68c0-.35.24-.77.55-.95l.61-.35c.3-.17.55-.03.55.32Z"/>
        </g>
      </g>
      <g>
        <g>
          <path class="cls-23" d="M126.39,272.73l-1.14-.66h0s0,0,0,0h0c-.39-.22-.93-.19-1.52.16-1.19.69-2.16,2.36-2.16,3.74,0,.69.24,1.17.63,1.4h0s0,0,0,0h0s1.06.61,1.06.61l.19-.32c.2-.05.4-.12.62-.24,1.19-.69,2.16-2.36,2.16-3.74,0-.2-.03-.38-.07-.55l.23-.39Z"/>
          <path class="cls-27" d="M124.82,272.85c-1.19.69-2.16,2.36-2.16,3.74s.97,1.94,2.16,1.25c1.19-.69,2.16-2.36,2.16-3.74,0-1.38-.97-1.94-2.16-1.25Z"/>
        </g>
        <g>
          <path class="cls-23" d="M117.01,278.14l-1.14-.66h0s0,0,0,0h0c-.39-.22-.93-.19-1.52.16-1.19.69-2.16,2.36-2.16,3.74,0,.69.24,1.17.63,1.4h0s0,0,0,0h0s1.06.61,1.06.61l.19-.32c.2-.05.4-.12.62-.24,1.19-.69,2.16-2.36,2.16-3.74,0-.2-.03-.38-.07-.55l.23-.39Z"/>
          <path class="cls-27" d="M115.44,278.26c-1.19.69-2.16,2.36-2.16,3.74s.97,1.94,2.16,1.25c1.19-.69,2.16-2.36,2.16-3.74,0-1.38-.97-1.94-2.16-1.25Z"/>
        </g>
      </g>
      <g>
        <g>
          <path class="cls-27" d="M54.51,272.48l42.51,24.52c.76.44,1.38,1.51,1.38,2.39v11.74c0,.88-.62,1.23-1.38.8l-42.51-24.52c-.76-.44-1.38-1.51-1.38-2.39v-11.74c0-.88.62-1.23,1.38-.8Z"/>
          <path class="cls-22" d="M55.72,277.65c0,.82.62,1.85,1.38,2.29l37.34,21.54c.76.44,1.38.13,1.38-.7,0-.82-.62-1.85-1.38-2.29l-37.34-21.54c-.76-.44-1.38-.13-1.38.7Z"/>
          <path class="cls-18" d="M55.72,283.62c0,.82.62,1.85,1.38,2.29l37.34,21.54c.76.44,1.38.13,1.38-.7,0-.82-.62-1.85-1.38-2.29l-37.34-21.54c-.76-.44-1.38-.13-1.38.7Z"/>
          <path class="cls-22" d="M57.1,282.93l20.63,11.89v2.98s-20.63-11.89-20.63-11.89c-.76-.44-1.38-1.46-1.38-2.29s.62-1.14,1.38-.7Z"/>
        </g>
        <g>
          <path class="cls-30" d="M36.22,263.88l8.77,5.04c1.37.79,2.49,2.72,2.49,4.3v5.03c0,1.58-1.11,2.23-2.49,1.43l-8.77-5.04c-1.37-.79-2.49-2.72-2.49-4.3v-5.03c0-1.58,1.11-2.23,2.49-1.43Z"/>
          <g>
            <path class="cls-22" d="M38.58,269.55l1.14-.66h0s0,0,0,0h0c.39-.22.93-.19,1.52.16,1.19.69,2.16,2.36,2.16,3.74,0,.69-.24,1.17-.63,1.4h0s0,0,0,0h0s-1.06.61-1.06.61l-.19-.32c-.2-.05-.4-.12-.62-.24-1.19-.69-2.16-2.36-2.16-3.74,0-.2.03-.38.07-.55l-.23-.39Z"/>
            <path class="cls-13" d="M38.58,269.55l1.14-.66h0s0,0,0,0h0c.39-.22.93-.19,1.52.16,1.19.69,2.16,2.36,2.16,3.74,0,.69-.24,1.17-.63,1.4h0s0,0,0,0h0s-1.06.61-1.06.61l-.19-.32c-.2-.05-.4-.12-.62-.24-1.19-.69-2.16-2.36-2.16-3.74,0-.2.03-.38.07-.55l-.23-.39Z"/>
            <path class="cls-22" d="M40.15,269.68c1.19.69,2.16,2.36,2.16,3.74s-.97,1.94-2.16,1.25c-1.19-.69-2.16-2.36-2.16-3.74,0-1.38.97-1.94,2.16-1.25Z"/>
          </g>
        </g>
        <g>
          <path class="cls-23" d="M54.51,272.48l42.51,24.52c.76.44,1.38,1.51,1.38,2.39v11.74c0,.88-.62,1.23-1.38.8l-42.51-24.52c-.76-.44-1.38-1.51-1.38-2.39v-11.74c0-.88.62-1.23,1.38-.8Z"/>
          <path class="cls-22" d="M55.72,277.65c0,.82.62,1.85,1.38,2.29l37.34,21.54c.76.44,1.38.13,1.38-.7,0-.82-.62-1.85-1.38-2.29l-37.34-21.54c-.76-.44-1.38-.13-1.38.7Z"/>
          <path class="cls-18" d="M55.72,283.62c0,.82.62,1.85,1.38,2.29l37.34,21.54c.76.44,1.38.13,1.38-.7,0-.82-.62-1.85-1.38-2.29l-37.34-21.54c-.76-.44-1.38-.13-1.38.7Z"/>
          <path class="cls-22" d="M57.1,282.93l20.63,11.89v2.98s-20.63-11.89-20.63-11.89c-.76-.44-1.38-1.46-1.38-2.29s.62-1.14,1.38-.7Z"/>
        </g>
      </g>
      <g>
        <path class="cls-30" d="M36.22,312.45l8.77,5.04c1.37.79,2.49,2.72,2.49,4.3v5.03c0,1.58-1.11,2.23-2.49,1.43l-8.77-5.04c-1.37-.79-2.49-2.72-2.49-4.3v-5.03c0-1.58,1.11-2.23,2.49-1.43Z"/>
        <g>
          <path class="cls-22" d="M38.58,318.12l1.14-.66h0s0,0,0,0h0c.39-.22.93-.19,1.52.16,1.19.69,2.16,2.36,2.16,3.74,0,.69-.24,1.17-.63,1.4h0s0,0,0,0h0s-1.06.61-1.06.61l-.19-.32c-.2-.05-.4-.12-.62-.24-1.19-.69-2.16-2.36-2.16-3.74,0-.2.03-.38.07-.55l-.23-.39Z"/>
          <path class="cls-13" d="M38.58,318.12l1.14-.66h0s0,0,0,0h0c.39-.22.93-.19,1.52.16,1.19.69,2.16,2.36,2.16,3.74,0,.69-.24,1.17-.63,1.4h0s0,0,0,0h0s-1.06.61-1.06.61l-.19-.32c-.2-.05-.4-.12-.62-.24-1.19-.69-2.16-2.36-2.16-3.74,0-.2.03-.38.07-.55l-.23-.39Z"/>
          <path class="cls-22" d="M40.15,318.24c1.19.69,2.16,2.36,2.16,3.74s-.97,1.94-2.16,1.25c-1.19-.69-2.16-2.36-2.16-3.74,0-1.38.97-1.94,2.16-1.25Z"/>
        </g>
      </g>
      <g>
        <path class="cls-23" d="M54.51,321.05l42.51,24.52c.76.44,1.38,1.51,1.38,2.39v11.74c0,.88-.62,1.23-1.38.8l-42.51-24.52c-.76-.44-1.38-1.51-1.38-2.39v-11.74c0-.88.62-1.23,1.38-.8Z"/>
        <path class="cls-22" d="M55.72,326.22c0,.82.62,1.85,1.38,2.29l37.34,21.54c.76.44,1.38.13,1.38-.7,0-.82-.62-1.85-1.38-2.29l-37.34-21.54c-.76-.44-1.38-.13-1.38.7Z"/>
        <path class="cls-18" d="M55.72,332.19c0,.82.62,1.85,1.38,2.29l37.34,21.54c.76.44,1.38.13,1.38-.7,0-.82-.62-1.85-1.38-2.29l-37.34-21.54c-.76-.44-1.38-.13-1.38.7Z"/>
        <path class="cls-22" d="M57.1,331.49l20.63,11.89v2.98s-20.63-11.89-20.63-11.89c-.76-.44-1.38-1.46-1.38-2.29s.62-1.14,1.38-.7Z"/>
      </g>
    </g>
    <g>
      <path class="cls-31" d="M164.99,110.05l-56.68,32.73c-.81.47-2.12.47-2.93,0l-56.68-32.73c-.81-.47-.81-1.23,0-1.69l56.68-31.6c.81-.47,2.12-.47,2.93,0l56.68,31.6c.81.47.81,1.23,0,1.69Z"/>
      <path class="cls-22" d="M108.24,140.98l54.24-31.32c.77-.45,1.4-1.54,1.4-2.43v-1.83c0-.9-.63-1.98-1.4-2.43l-54.24-31.32c-.78-.45-2.03-.45-2.81,0l-54.24,31.32c-.78.45-1.4,1.54-1.4,2.43v1.83c0,.9.63,1.98,1.4,2.43l54.24,31.32c.78.45,2.03.45,2.81,0Z"/>
      <path class="cls-7" d="M108.24,140.98l54.24-31.32c.77-.45,1.4-1.54,1.4-2.43v-1.83c0-.9-.63-1.98-1.4-2.43l-54.24-31.32c-.78-.45-2.03-.45-2.81,0l-54.24,31.32c-.78.45-1.4,1.54-1.4,2.43v1.83c0,.9.63,1.98,1.4,2.43l54.24,31.32c.78.45,2.03.45,2.81,0Z"/>
      <path class="cls-16" d="M108.24,140.98l54.24-31.32c.77-.45,1.4-1.54,1.4-2.43v-1.83c0-.9-.63-1.98-1.4-2.43l-54.24-31.32c-.78-.45-2.03-.45-2.81,0l-54.24,31.32c-.78.45-1.4,1.54-1.4,2.43v1.83c0,.9.63,1.98,1.4,2.43l54.24,31.32c.78.45,2.03.45,2.81,0Z"/>
      <path class="cls-22" d="M162.48,104.6l-54.24,31.32c-.78.45-2.03.45-2.81,0l-54.24-31.32c-.78-.45-.78-1.17,0-1.62l54.24-30.23c.77-.45,2.03-.45,2.81,0l54.24,30.23c.77.45.77,1.17,0,1.62Z"/>
      <path class="cls-11" d="M162.48,104.6l-54.24,31.32c-.78.45-2.03.45-2.81,0l-54.24-31.32c-.78-.45-.78-1.17,0-1.62l54.24-30.23c.77-.45,2.03-.45,2.81,0l54.24,30.23c.77.45.77,1.17,0,1.62Z"/>
      <path class="cls-22" d="M106.83,136.25v5.07c.51,0,1.02-.11,1.4-.33l54.24-31.32c.78-.44,1.4-1.53,1.4-2.43v-1.83c0-.79-.49-1.73-1.15-2.25.51.44.42,1.05-.26,1.44l-54.24,31.32c-.39.23-.9.34-1.4.34Z"/>
      <path class="cls-4" d="M106.83,136.25v5.07c.51,0,1.02-.11,1.4-.33l54.24-31.32c.78-.44,1.4-1.53,1.4-2.43v-1.83c0-.79-.49-1.73-1.15-2.25.51.44.42,1.05-.26,1.44l-54.24,31.32c-.39.23-.9.34-1.4.34Z"/>
    </g>
    <g>
      <path class="cls-18" d="M108.24,125.78l36.69-21.18c.78-.45,1.4-1.54,1.4-2.43v-1.83c0-.89-.63-1.98-1.4-2.43l-23.52-13.58c-.78-.45-1.84-1.39-2.37-2.11l-11.23-15.13c-.53-.72-1.59-.94-2.37-.49l-36.69,21.18c-.77.45-1.4,1.54-1.4,2.43v11.96c0,.9.63,1.98,1.4,2.43l36.69,21.18c.78.45,2.03.45,2.81,0Z"/>
      <path class="cls-27" d="M105.43,120.71l-23.52-13.58c-.37-.22-.81-.55-1.23-.91-.45-.39-.87-.83-1.14-1.2l-11.23-15.13c-.53-.72-.34-1.66.44-2.11l36.69-21.18c.78-.45,1.84-.23,2.37.49l11.23,15.13c.53.72,1.4,1.75,2.17,2.2l23.72,13.5c.78.45.78,1.17,0,1.62l-36.69,21.18c-.78.45-2.03.45-2.81,0Z"/>
      <path class="cls-23" d="M68.74,87.78l36.69-21.18c.78-.45,1.84-.23,2.37.49l11.23,15.13c.28.37.7.8,1.15,1.2,0,0-39.49,22.81-39.5,22.8-.45-.39-.87-.82-1.14-1.2l-11.23-15.13c-.53-.72-.34-1.66.44-2.11Z"/>
      <g>
        <path class="cls-22" d="M136.03,98.28c-.91-.52-2.38-.52-3.29,0-.91.52-.91,1.38,0,1.9.91.52,2.38.52,3.29,0,.91-.52.91-1.38,0-1.9Z"/>
        <path class="cls-22" d="M129.44,102.08c-.91-.52-2.38-.52-3.29,0-.91.52-.91,1.38,0,1.9.91.52,2.38.52,3.29,0,.91-.52.91-1.38,0-1.9Z"/>
        <path class="cls-18" d="M122.86,105.88c-.91-.52-2.38-.52-3.29,0-.91.52-.91,1.38,0,1.9.91.52,2.38.52,3.29,0,.91-.52.91-1.38,0-1.9Z"/>
        <path class="cls-18" d="M116.28,109.68c-.91-.52-2.38-.52-3.29,0-.91.52-.91,1.38,0,1.9.91.52,2.38.52,3.29,0,.91-.52.91-1.38,0-1.9Z"/>
        <path class="cls-22" d="M131.09,95.43c-.91-.52-2.38-.52-3.29,0-.91.52-.91,1.38,0,1.9.91.52,2.38.52,3.29,0,.91-.52.91-1.38,0-1.9Z"/>
        <path class="cls-18" d="M124.51,99.23c-.91-.52-2.38-.52-3.29,0-.91.52-.91,1.38,0,1.9.91.52,2.38.52,3.29,0,.91-.52.91-1.38,0-1.9Z"/>
        <path class="cls-22" d="M117.93,103.03c-.91-.52-2.38-.52-3.29,0-.91.52-.91,1.38,0,1.9.91.52,2.38.52,3.29,0,.91-.52.91-1.38,0-1.9Z"/>
        <path class="cls-18" d="M111.34,106.83c-.91-.52-2.38-.52-3.29,0s-.91,1.38,0,1.9c.91.52,2.38.52,3.29,0,.91-.52.91-1.38,0-1.9Z"/>
        <path class="cls-18" d="M126.15,92.58c-.91-.52-2.38-.52-3.29,0-.91.52-.91,1.38,0,1.9.91.52,2.38.52,3.29,0,.91-.52.91-1.38,0-1.9Z"/>
        <path class="cls-22" d="M119.57,96.38c-.91-.52-2.38-.52-3.29,0-.91.52-.91,1.38,0,1.9.91.52,2.38.52,3.29,0,.91-.52.91-1.38,0-1.9Z"/>
        <path class="cls-18" d="M112.99,100.18c-.91-.52-2.38-.52-3.29,0-.91.52-.91,1.38,0,1.9.91.52,2.38.52,3.29,0,.91-.52.91-1.38,0-1.9Z"/>
        <path class="cls-22" d="M109.66,113.41c-.91-.52-2.38-.52-3.29,0-.91.52-.91,1.38,0,1.9.91.52,2.38.52,3.29,0,.91-.52.91-1.38,0-1.9Z"/>
        <path class="cls-18" d="M104.72,110.56c-.91-.52-2.38-.52-3.29,0s-.91,1.38,0,1.9c.91.52,2.38.52,3.29,0,.91-.52.91-1.38,0-1.9Z"/>
        <path class="cls-18" d="M106.41,103.99c-.91-.52-2.38-.52-3.29,0-.91.52-.91,1.38,0,1.9.91.52,2.38.52,3.29,0,.91-.52.91-1.38,0-1.9Z"/>
        <path class="cls-22" d="M121.22,89.73c-.91-.52-2.38-.52-3.29,0s-.91,1.38,0,1.9c.91.52,2.38.52,3.29,0,.91-.52.91-1.38,0-1.9Z"/>
        <path class="cls-18" d="M114.63,93.53c-.91-.52-2.38-.52-3.29,0-.91.52-.91,1.38,0,1.9.91.52,2.38.52,3.29,0,.91-.52.91-1.38,0-1.9Z"/>
        <path class="cls-22" d="M108.05,97.33c-.91-.52-2.38-.52-3.29,0-.91.52-.91,1.38,0,1.9.91.52,2.38.52,3.29,0,.91-.52.91-1.38,0-1.9Z"/>
        <path class="cls-18" d="M101.47,101.14c-.91-.52-2.38-.52-3.29,0-.91.52-.91,1.38,0,1.9.91.52,2.38.52,3.29,0,.91-.52.91-1.38,0-1.9Z"/>
        <path class="cls-22" d="M99.79,107.71c-.91-.52-2.38-.52-3.29,0-.91.52-.91,1.38,0,1.9.91.52,2.38.52,3.29,0,.91-.52.91-1.38,0-1.9Z"/>
        <path class="cls-18" d="M94.85,104.86c-.91-.52-2.38-.52-3.29,0-.91.52-.91,1.38,0,1.9.91.52,2.38.52,3.29,0,.91-.52.91-1.38,0-1.9Z"/>
      </g>
      <path class="cls-23" d="M106.76,121.05v5.06c.53.01,1.07-.09,1.48-.32l36.69-21.18c.78-.44,1.4-1.53,1.4-2.43v-1.83c0-.79-.49-1.73-1.15-2.25.51.44.42,1.05-.26,1.44l-36.69,21.18c-.41.24-.95.35-1.48.33Z"/>
      <g>
        <path class="cls-18" d="M114.18,81.59l-.03-.04c-.35-.48-1.06-.63-1.58-.33l-31.93,18.43c-.52.3-.65.93-.29,1.41l.03.04c.36.48,1.06.62,1.58.33l31.92-18.43c.52-.3.65-.93.29-1.41Z"/>
        <path class="cls-22" d="M114.18,81.59l-.03-.04c-.35-.48-1.06-.63-1.58-.33l-23.74,13.7,1.32,1.78,23.73-13.7c.52-.3.65-.93.29-1.41Z"/>
        <path class="cls-18" d="M111.54,78.04l-.03-.04c-.35-.48-1.06-.63-1.58-.33l-31.93,18.43c-.52.3-.65.93-.29,1.41l.03.04c.36.48,1.06.62,1.58.33l31.92-18.43c.52-.3.65-.93.29-1.41Z"/>
        <path class="cls-22" d="M111.54,78.04l-.03-.04c-.35-.48-1.06-.63-1.58-.33l-7.94,4.58,1.32,1.78,7.93-4.57c.52-.3.65-.93.29-1.41Z"/>
        <path class="cls-18" d="M108.91,74.5l-.03-.04c-.35-.48-1.06-.63-1.58-.33l-31.93,18.43c-.52.3-.65.93-.29,1.41l.03.04c.36.48,1.06.62,1.58.33l31.92-18.43c.52-.3.65-.93.29-1.41Z"/>
        <path class="cls-22" d="M108.91,74.5l-.03-.04c-.35-.48-1.06-.63-1.58-.33l-16.63,9.57,1.32,1.78,16.62-9.57c.52-.3.65-.93.29-1.41Z"/>
        <path class="cls-18" d="M106.27,70.96l-.03-.04c-.35-.48-1.06-.63-1.58-.33l-31.93,18.43c-.52.3-.65.93-.29,1.41l.03.04c.36.48,1.06.62,1.58.33l31.92-18.43c.52-.3.65-.93.29-1.41Z"/>
        <path class="cls-22" d="M106.27,70.96l-.03-.04c-.35-.48-1.06-.63-1.58-.33l-28.98,16.73,1.32,1.78,28.97-16.73c.52-.3.65-.93.29-1.41Z"/>
      </g>
    </g>
    <g>
      <g>
        <path class="cls-6" d="M112.08,360.3l-.02-8.53c0-.88.62-1.95,1.38-2.39l10.17-5.87c.76-.44,1.38-.08,1.38.8l.02,8.53c0,.88-.62,1.95-1.38,2.39l-10.17,5.87c-.76.44-1.38.08-1.38-.8Z"/>
        <g>
          <path class="cls-22" d="M118.28,355.09l-1.14-.66h0s0,0,0,0h0c-.39-.23-.62-.71-.62-1.39,0-1.38.97-3.05,2.16-3.74.6-.34,1.13-.38,1.53-.15h0s0,0,0,0h0l1.06.61-.18.33c.06.19.1.41.1.66,0,1.38-.97,3.05-2.16,3.74-.18.1-.35.17-.51.22l-.22.39Z"/>
          <path class="cls-13" d="M118.28,355.09l-1.14-.66h0s0,0,0,0h0c-.39-.23-.62-.71-.62-1.39,0-1.38.97-3.05,2.16-3.74.6-.34,1.13-.38,1.53-.15h0s0,0,0,0h0l1.06.61-.18.33c.06.19.1.41.1.66,0,1.38-.97,3.05-2.16,3.74-.18.1-.35.17-.51.22l-.22.39Z"/>
          <path class="cls-22" d="M117.6,353.66c0-1.38.97-3.05,2.16-3.74,1.19-.69,2.16-.13,2.16,1.25,0,1.38-.97,3.05-2.16,3.74-1.19.69-2.16.13-2.16-1.25Z"/>
        </g>
      </g>
      <g>
        <path class="cls-27" d="M112.08,344.31l-.02-42.9c0-.88.62-1.95,1.38-2.39l10.17-5.87c.76-.44,1.38-.08,1.38.8l.02,42.9c0,.88-.62,1.95-1.38,2.39l-10.17,5.87c-.76.44-1.38.08-1.38-.8Z"/>
        <path class="cls-22" d="M115.96,340.68c.71-.41,1.29-1.46,1.29-2.34l-.02-36.94c0-.88-.58-1.26-1.29-.84s-1.29,1.46-1.29,2.34l.02,36.94c0,.88.58,1.26,1.29.84Z"/>
        <path class="cls-18" d="M121.12,337.7c.71-.41,1.29-1.46,1.29-2.34l-.02-36.94c0-.88-.58-1.26-1.29-.84-.71.41-1.29,1.46-1.29,2.34l.02,36.94c0,.88.58,1.26,1.29.84Z"/>
        <path class="cls-22" d="M119.83,336.85l-.02-26.36,2.58-1.49.02,26.36c0,.88-.58,1.92-1.29,2.34-.71.41-1.29.03-1.29-.84Z"/>
      </g>
    </g>
    <g>
      <g>
        <path class="cls-6" d="M129.55,350.23l-.02-8.53c0-.88.62-1.95,1.38-2.39l10.17-5.87c.76-.44,1.38-.08,1.38.8l.02,8.52c0,.88-.62,1.95-1.38,2.39l-10.17,5.87c-.76.44-1.38.08-1.38-.8Z"/>
        <g>
          <path class="cls-22" d="M135.75,345.01l-1.14-.66h0s0,0,0,0h0c-.39-.23-.62-.71-.62-1.39,0-1.38.97-3.05,2.16-3.74.6-.34,1.13-.38,1.53-.15h0s0,0,0,0h0s1.06.61,1.06.61l-.18.33c.06.19.1.41.1.66,0,1.38-.97,3.05-2.16,3.74-.18.1-.35.17-.51.22l-.22.39Z"/>
          <path class="cls-13" d="M135.75,345.01l-1.14-.66h0s0,0,0,0h0c-.39-.23-.62-.71-.62-1.39,0-1.38.97-3.05,2.16-3.74.6-.34,1.13-.38,1.53-.15h0s0,0,0,0h0s1.06.61,1.06.61l-.18.33c.06.19.1.41.1.66,0,1.38-.97,3.05-2.16,3.74-.18.1-.35.17-.51.22l-.22.39Z"/>
          <path class="cls-22" d="M135.08,343.59c0-1.38.97-3.05,2.16-3.74,1.19-.69,2.16-.13,2.16,1.25,0,1.38-.97,3.05-2.16,3.74-1.19.69-2.16.13-2.16-1.25Z"/>
        </g>
      </g>
      <g>
        <path class="cls-27" d="M129.55,334.24l-.02-42.9c0-.88.62-1.95,1.38-2.39l10.17-5.87c.76-.44,1.38-.08,1.38.8l.02,42.9c0,.88-.62,1.95-1.38,2.39l-10.17,5.87c-.76.44-1.38.08-1.38-.8Z"/>
        <path class="cls-18" d="M134.7,291.34c0-.88-.58-1.26-1.29-.84-.71.41-1.29,1.46-1.29,2.34l.02,36.94c0,.88.58,1.26,1.29.84.71-.41,1.29-1.46,1.29-2.34l-.02-36.94Z"/>
        <path class="cls-22" d="M134.7,320.11l-2.58,1.49.02,8.16c0,.88.58,1.26,1.29.84.71-.41,1.29-1.46,1.29-2.34l-.02-8.16Z"/>
        <path class="cls-18" d="M138.6,327.62c.71-.41,1.29-1.46,1.29-2.34l-.02-36.94c0-.88-.58-1.26-1.29-.84s-1.29,1.46-1.29,2.34l.02,36.94c0,.88.58,1.26,1.29.84Z"/>
        <path class="cls-22" d="M137.31,326.78l-.02-26.36,2.58-1.49.02,26.36c0,.88-.58,1.92-1.29,2.34-.71.41-1.29.03-1.29-.84Z"/>
      </g>
    </g>
    <g>
      <g>
        <path class="cls-6" d="M147.03,340.14l-.02-8.53c0-.88.62-1.95,1.38-2.39l10.17-5.87c.76-.44,1.38-.08,1.38.8l.02,8.53c0,.88-.62,1.95-1.38,2.39l-10.17,5.87c-.76.44-1.38.08-1.38-.8Z"/>
        <g>
          <path class="cls-22" d="M153.23,334.92l-1.14-.66h0s0,0,0,0h0c-.39-.23-.62-.71-.62-1.39,0-1.38.97-3.05,2.16-3.74.6-.34,1.13-.38,1.53-.15h0s0,0,0,0h0l1.06.61-.18.33c.06.19.1.41.1.66,0,1.38-.97,3.05-2.16,3.74-.18.1-.35.17-.51.22l-.22.39Z"/>
          <path class="cls-13" d="M153.23,334.92l-1.14-.66h0s0,0,0,0h0c-.39-.23-.62-.71-.62-1.39,0-1.38.97-3.05,2.16-3.74.6-.34,1.13-.38,1.53-.15h0s0,0,0,0h0l1.06.61-.18.33c.06.19.1.41.1.66,0,1.38-.97,3.05-2.16,3.74-.18.1-.35.17-.51.22l-.22.39Z"/>
          <path class="cls-22" d="M152.55,333.5c0-1.38.97-3.05,2.16-3.74,1.19-.69,2.16-.13,2.16,1.25,0,1.38-.97,3.05-2.16,3.74-1.19.69-2.16.13-2.16-1.25Z"/>
        </g>
      </g>
      <g>
        <path class="cls-27" d="M147.03,324.15l-.02-42.9c0-.88.62-1.95,1.38-2.39l10.17-5.87c.76-.44,1.38-.08,1.38.8l.02,42.9c0,.88-.62,1.95-1.38,2.39l-10.17,5.87c-.76.44-1.38.08-1.38-.8Z"/>
        <path class="cls-22" d="M150.9,320.52c.71-.41,1.29-1.46,1.29-2.34l-.02-36.94c0-.88-.58-1.26-1.29-.84-.71.41-1.29,1.46-1.29,2.34l.02,36.94c0,.88.58,1.26,1.29.84Z"/>
        <path class="cls-18" d="M156.07,317.53c.71-.41,1.29-1.46,1.29-2.34l-.02-36.94c0-.88-.58-1.26-1.29-.84-.71.41-1.29,1.46-1.29,2.34l.02,36.94c0,.88.58,1.26,1.29.84Z"/>
        <path class="cls-22" d="M154.78,316.69l-.02-26.36,2.58-1.49.02,26.36c0,.88-.58,1.92-1.29,2.34-.71.41-1.29.03-1.29-.84Z"/>
      </g>
    </g>
    <g>
      <g>
        <path class="cls-6" d="M164.5,330.05l-.02-8.53c0-.88.62-1.95,1.38-2.39l10.17-5.87c.76-.44,1.38-.08,1.38.8l.02,8.52c0,.88-.62,1.95-1.38,2.39l-10.17,5.87c-.76.44-1.38.08-1.38-.8Z"/>
        <g>
          <path class="cls-22" d="M170.7,324.84l-1.14-.66h0s0,0,0,0h0c-.39-.23-.62-.71-.62-1.39,0-1.38.97-3.05,2.16-3.74.6-.34,1.13-.38,1.53-.15h0s0,0,0,0h0s1.06.61,1.06.61l-.18.33c.06.19.1.41.1.66,0,1.38-.97,3.05-2.16,3.74-.18.1-.35.17-.51.22l-.22.39Z"/>
          <path class="cls-13" d="M170.7,324.84l-1.14-.66h0s0,0,0,0h0c-.39-.23-.62-.71-.62-1.39,0-1.38.97-3.05,2.16-3.74.6-.34,1.13-.38,1.53-.15h0s0,0,0,0h0s1.06.61,1.06.61l-.18.33c.06.19.1.41.1.66,0,1.38-.97,3.05-2.16,3.74-.18.1-.35.17-.51.22l-.22.39Z"/>
          <path class="cls-22" d="M170.02,323.41c0-1.38.97-3.05,2.16-3.74,1.19-.69,2.16-.13,2.16,1.25,0,1.38-.97,3.05-2.16,3.74-1.19.69-2.16.13-2.16-1.25Z"/>
        </g>
      </g>
      <g>
        <path class="cls-27" d="M164.5,314.06l-.02-42.9c0-.88.62-1.95,1.38-2.39l10.17-5.87c.76-.44,1.38-.08,1.38.8l.02,42.9c0,.88-.62,1.95-1.38,2.39l-10.17,5.87c-.76.44-1.38.08-1.38-.8Z"/>
        <path class="cls-22" d="M168.38,310.43c.71-.41,1.29-1.46,1.29-2.34l-.02-36.94c0-.88-.58-1.26-1.29-.84-.71.41-1.29,1.46-1.29,2.34l.02,36.94c0,.88.58,1.26,1.29.84Z"/>
        <path class="cls-18" d="M173.55,307.45c.71-.41,1.29-1.46,1.29-2.34l-.02-36.94c0-.88-.58-1.26-1.29-.84s-1.29,1.46-1.29,2.34l.02,36.94c0,.88.58,1.26,1.29.84Z"/>
        <path class="cls-22" d="M172.25,306.6l-.02-12.95,2.58-1.49.02,12.95c0,.88-.58,1.92-1.29,2.34s-1.29.03-1.29-.84Z"/>
      </g>
    </g>
    <g>
      <path class="cls-23" d="M163.03,338.81c-.57.33-1.04,1.13-1.04,1.79s.46.93,1.04.6c.57-.33,1.04-1.13,1.04-1.79s-.46-.93-1.03-.6Z"/>
      <path class="cls-23" d="M154.4,343.8c-.57.33-1.03,1.13-1.03,1.79s.46.92,1.03.6c.57-.33,1.03-1.13,1.03-1.79,0-.66-.46-.92-1.03-.6Z"/>
      <path class="cls-23" d="M145.92,348.69c-.57.33-1.03,1.12-1.03,1.78s.46.92,1.03.59c.57-.33,1.03-1.12,1.03-1.78s-.46-.92-1.03-.59Z"/>
      <path class="cls-23" d="M137.37,353.63c-.57.33-1.02,1.12-1.02,1.77s.46.92,1.02.59c.57-.33,1.02-1.12,1.02-1.77s-.46-.92-1.02-.59Z"/>
    </g>
    <g>
      <g>
        <path class="cls-22" d="M129.28,200.97c-.21,0-.43-.06-.62-.17-.38-.22-.62-.63-.62-1.07v-9.12c0-.68.55-1.23,1.23-1.23s1.23.55,1.23,1.23v6.98l27.39-15.82v-8.41c0-.68.55-1.23,1.23-1.23s1.23.55,1.23,1.23v9.12c0,.44-.24.85-.62,1.07l-29.86,17.24c-.19.11-.4.17-.62.17Z"/>
        <path class="cls-22" d="M134.8,179.05c-.15,0-.3-.03-.44-.08-.64-.25-.95-.96-.71-1.59l8.95-23.22c.16-.43.55-.73,1-.78.45-.06.9.15,1.16.52l8.95,12.88c.39.56.25,1.33-.31,1.72-.56.39-1.33.25-1.72-.31l-7.62-10.97-8.11,21.05c-.19.49-.66.79-1.15.79Z"/>
        <path class="cls-22" d="M143.75,185.38c-.68,0-1.23-.55-1.23-1.23v-26.86c0-.68.55-1.23,1.23-1.23s1.23.55,1.23,1.23v26.86c0,.68-.55,1.23-1.23,1.23Z"/>
      </g>
      <g class="cls-13">
        <path class="cls-6" d="M129.28,200.97c-.21,0-.43-.06-.62-.17-.38-.22-.62-.63-.62-1.07v-9.12c0-.68.55-1.23,1.23-1.23s1.23.55,1.23,1.23v6.98l27.39-15.82v-8.41c0-.68.55-1.23,1.23-1.23s1.23.55,1.23,1.23v9.12c0,.44-.24.85-.62,1.07l-29.86,17.24c-.19.11-.4.17-.62.17Z"/>
        <path class="cls-6" d="M134.8,179.05c-.15,0-.3-.03-.44-.08-.64-.25-.95-.96-.71-1.59l8.95-23.22c.16-.43.55-.73,1-.78.45-.06.9.15,1.16.52l8.95,12.88c.39.56.25,1.33-.31,1.72-.56.39-1.33.25-1.72-.31l-7.62-10.97-8.11,21.05c-.19.49-.66.79-1.15.79Z"/>
        <path class="cls-6" d="M143.75,185.38c-.68,0-1.23-.55-1.23-1.23v-26.86c0-.68.55-1.23,1.23-1.23s1.23.55,1.23,1.23v26.86c0,.68-.55,1.23-1.23,1.23Z"/>
      </g>
    </g>
  </g>
  <g id="Folder">
    <path class="cls-22" d="M209.31,341.86c-.26,0-.52-.07-.75-.2-.47-.27-.75-.76-.75-1.3v-72.9c0-.63.21-1.33.58-1.97.37-.64.87-1.16,1.41-1.48l21.8-12.58c.68-.39,1.42-.42,2.03-.07.49.28.82.72.98,1.26l1.76,5.88c.12.39.36.68.68.8.32.12.68.08,1.03-.12l51.29-29.59c.56-.32,1.11-.39,1.57-.19l.19.1c.44.28.69.81.69,1.49v61.17c0,1.29-.88,2.81-1.99,3.45l-79.76,46.04c-.24.14-.49.2-.75.2ZM232.69,252.01c-.21,0-.43.07-.65.19l-21.8,12.58c-.4.24-.8.66-1.09,1.16-.29.5-.46,1.06-.46,1.52v72.9c0,.22.11.42.31.53.19.11.42.11.61,0l79.76-46.04c.84-.49,1.55-1.71,1.55-2.68v-61.17c0-.35-.1-.62-.26-.73l-.12-.06c-.15-.07-.43,0-.73.16l-51.29,29.59c-.59.34-1.24.4-1.81.18-.58-.23-1-.72-1.2-1.38l-1.76-5.88c-.1-.32-.29-.58-.54-.72-.17-.09-.34-.14-.52-.14Z"/>
  </g>
  <g id="Folder-2" data-name="Folder">
    <g>
      <path class="cls-22" d="M302.35,237.54c0-.54-.19-.93-.49-1.12h0s-.02-.01-.02-.01c-.01,0-.02-.01-.04-.02l-3.3-1.91s0,0,0,0h0s0,0,0,0c-.32-.18-.76-.15-1.25.13l-50.72,29.26-1.37-4.56c-.14-.45-.41-.78-.74-.98h.01s-3.33-1.93-3.33-1.93h0c-.46-.26-1.05-.28-1.62.05l-21.8,12.58c-.98.56-1.77,1.94-1.77,3.07v72.69c0,.54.19.92.48,1.12h0s.03.02.03.02c0,0,0,0,.01,0l3.3,1.9s.02.01.04.02l.03.02h0c.32.15.74.12,1.21-.15l79.57-45.94c.98-.57,1.77-1.94,1.77-3.07v-61.17Z"/>
      <g class="cls-24">
        <path class="cls-6" d="M244.39,258.29c-.46-.25-1.03-.25-1.59.07l-21.8,12.58c-.48.29-.92.77-1.25,1.33l-3.32-1.92c.32-.56.76-1.05,1.25-1.33l21.8-12.58c.57-.33,1.16-.31,1.62-.04h0s3.29,1.89,3.29,1.89Z"/>
        <path class="cls-6" d="M301.74,236.35c-.31-.13-.72-.08-1.16.17l-51.28,29.59c-.98.56-2.04.15-2.37-.94l-.39-1.31,50.72-29.26c.28-.16.55-.24.79-.24.17,0,.33.04.46.11h0l3.23,1.87Z"/>
      </g>
      <path class="cls-13" d="M219.48,347.59c.05.07.11.13.17.19l-3.22-1.85s0,0-.02,0l-.03-.02c-.12-.08-.22-.2-.3-.34-.03-.07-.07-.13-.08-.2-.06-.16-.09-.35-.09-.57v-72.69c0-.07,0-.14,0-.21.02-.15.04-.29.07-.44.02-.07.04-.15.06-.22.07-.22.16-.44.27-.65.03-.07.07-.15.11-.21l3.32,1.92c-.32.55-.52,1.18-.52,1.74v72.69c0,.11,0,.21.02.31,0,.06.02.11.03.17,0,.03.02.06.02.09.02.04.03.08.05.11.02.07.07.14.11.2Z"/>
    </g>
  </g>
  <g id="Folder-3" data-name="Folder">
    <path class="cls-23" d="M273.12,335.66c-.69,0-1.26-.56-1.26-1.26v-1.68c0-.25.2-.46.46-.46s.46.2.46.46v1.68c0,.29.3.41.51.29l1.01-.59c.22-.13.5-.05.63.17.13.22.05.5-.17.63l-1.02.59c-.2.11-.41.17-.63.17ZM276.89,333.61c-.16,0-.31-.08-.4-.23-.13-.22-.05-.5.17-.63l3.92-2.26c.22-.13.5-.05.63.17.13.22.05.5-.17.63l-3.92,2.26c-.07.04-.15.06-.23.06ZM272.33,330.48c-.25,0-.46-.2-.46-.46v-4.52c0-.25.2-.46.46-.46s.46.21.46.46v4.52c0,.25-.2.46-.46.46ZM283.16,329.99c-.16,0-.31-.08-.4-.23-.13-.22-.05-.5.17-.63l3.92-2.26c.22-.13.5-.05.63.17.13.22.05.5-.17.63l-3.92,2.26c-.07.04-.15.06-.23.06ZM289.43,326.38c-.16,0-.31-.08-.4-.23-.13-.22-.05-.5.17-.63l3.92-2.26c.22-.13.5-.05.63.17.13.22.05.5-.17.63l-3.92,2.26c-.07.04-.15.06-.23.06ZM272.33,323.24c-.25,0-.46-.21-.46-.46v-4.52c0-.25.2-.46.46-.46s.46.2.46.46v4.52c0,.25-.2.46-.46.46ZM295.69,322.76c-.16,0-.31-.08-.4-.23-.13-.22-.05-.5.17-.63l3.92-2.26c.22-.13.5-.05.63.17.13.22.05.5-.17.63l-3.92,2.26c-.07.04-.15.06-.23.06ZM301.96,319.14c-.16,0-.31-.08-.4-.23-.13-.22-.05-.5.17-.63l3.92-2.26c.22-.13.5-.05.63.17.13.22.05.5-.17.63l-3.92,2.26c-.07.04-.15.06-.23.06ZM272.33,316c-.25,0-.46-.21-.46-.46v-4.52c0-.25.2-.46.46-.46s.46.2.46.46v4.52c0,.25-.2.46-.46.46ZM308.23,315.52c-.16,0-.31-.08-.4-.23-.13-.22-.05-.5.17-.63l3.92-2.26c.22-.13.5-.05.63.17.13.22.05.5-.17.63l-3.92,2.26c-.07.04-.15.06-.23.06ZM314.5,311.9c-.16,0-.31-.08-.4-.23-.13-.22-.05-.5.17-.63l3.92-2.26c.22-.13.5-.05.63.17.13.22.05.5-.17.63l-3.92,2.26c-.07.04-.15.06-.23.06ZM272.33,308.77c-.25,0-.46-.2-.46-.46v-4.52c0-.25.2-.46.46-.46s.46.21.46.46v4.52c0,.25-.2.46-.46.46ZM320.76,308.29c-.16,0-.31-.08-.4-.23-.13-.22-.05-.5.17-.63l3.92-2.26c.22-.13.5-.05.63.17.13.22.05.5-.17.63l-3.92,2.26c-.07.04-.15.06-.23.06ZM327.03,304.67c-.16,0-.31-.08-.4-.23-.13-.22-.05-.5.17-.63l3.92-2.26c.22-.13.5-.05.63.17.13.22.05.5-.17.63l-3.92,2.26c-.07.04-.15.06-.23.06ZM272.33,301.53c-.25,0-.46-.21-.46-.46v-4.52c0-.25.2-.46.46-.46s.46.2.46.46v4.52c0,.25-.2.46-.46.46ZM333.3,301.05c-.16,0-.31-.08-.4-.23-.13-.22-.05-.5.17-.63l.57-.33c.59-.34,1.11-1.24,1.11-1.92v-1.08c0-.25.21-.46.46-.46s.46.21.46.46v1.08c0,1.01-.69,2.21-1.57,2.72l-.57.33c-.07.04-.15.06-.23.06ZM335.21,294.61c-.25,0-.46-.2-.46-.46v-4.52c0-.25.21-.46.46-.46s.46.2.46.46v4.52c0,.25-.2.46-.46.46ZM272.33,294.29c-.25,0-.46-.2-.46-.46v-4.52c0-.25.2-.46.46-.46s.46.21.46.46v4.52c0,.25-.2.46-.46.46ZM335.21,287.37c-.25,0-.46-.2-.46-.46v-4.52c0-.25.21-.46.46-.46s.46.2.46.46v4.52c0,.25-.2.46-.46.46ZM272.33,287.06c-.25,0-.46-.21-.46-.46v-4.52c0-.25.2-.46.46-.46s.46.2.46.46v4.52c0,.25-.2.46-.46.46ZM335.21,280.13c-.25,0-.46-.21-.46-.46v-4.52c0-.25.21-.46.46-.46s.46.2.46.46v4.52c0,.25-.2.46-.46.46ZM272.33,279.82c-.25,0-.46-.2-.46-.46v-.11c0-.5.16-1.04.45-1.55.29-.5.68-.91,1.11-1.17l1.42-.82c.22-.13.5-.05.63.17.13.22.05.5-.17.63l-1.41.82c-.28.17-.57.47-.78.84-.21.36-.33.76-.33,1.09v.11c0,.25-.2.46-.46.46ZM277.43,275.22c-.16,0-.31-.08-.4-.23-.13-.22-.05-.5.17-.63l3.92-2.26c.22-.13.5-.05.63.17.13.22.05.5-.17.63l-3.92,2.26c-.07.04-.15.06-.23.06ZM294.39,273.92c-.66,0-1.24-.41-1.5-1.06-.09-.24.02-.5.26-.6.23-.1.5.02.6.26.19.46.65.61,1.09.36l2.09-1.2c.22-.13.5-.05.63.17.13.22.05.5-.17.63l-2.09,1.2c-.28.16-.6.25-.9.25ZM335.21,272.9c-.25,0-.46-.2-.46-.46v-4.52c0-.25.21-.46.46-.46s.46.2.46.46v4.52c0,.25-.2.46-.46.46ZM283.7,271.6c-.16,0-.31-.08-.4-.23-.13-.22-.05-.5.17-.63l3.92-2.26c.22-.13.5-.05.63.17.13.22.05.5-.17.63l-3.92,2.26c-.07.04-.15.06-.23.06ZM299.5,271.17c-.16,0-.31-.08-.4-.23-.13-.22-.05-.5.17-.63l3.92-2.26c.22-.13.5-.05.63.17.13.22.05.5-.17.63l-3.92,2.26c-.07.04-.15.06-.23.06ZM292.53,270.55c-.2,0-.38-.13-.44-.33l-.59-1.97c-.06-.21-.19-.38-.35-.48-.27-.15-.5-.11-.77.04l-.19.11c-.22.12-.5.05-.63-.17-.13-.22-.05-.5.17-.63l.19-.11c.55-.32,1.16-.33,1.65-.05.4.23.67.59.8,1.02l.59,1.97c.07.24-.06.5-.31.57-.04.01-.09.02-.13.02ZM305.77,267.56c-.16,0-.31-.08-.4-.23-.13-.22-.05-.5.17-.63l3.92-2.26c.22-.13.5-.05.63.17.13.22.05.5-.17.63l-3.92,2.26c-.07.04-.15.06-.23.06ZM335.21,265.66c-.25,0-.46-.2-.46-.46v-4.52c0-.25.21-.46.46-.46s.46.21.46.46v4.52c0,.25-.2.46-.46.46ZM312.04,263.94c-.16,0-.31-.08-.4-.23-.13-.22-.05-.5.17-.63l3.92-2.26c.22-.13.5-.05.63.17.13.22.05.5-.17.63l-3.92,2.26c-.07.04-.15.06-.23.06ZM318.3,260.32c-.16,0-.31-.08-.4-.23-.13-.22-.05-.5.17-.63l3.92-2.26c.22-.13.5-.05.63.17.13.22.05.5-.17.63l-3.92,2.26c-.07.04-.15.06-.23.06ZM335.21,258.42c-.25,0-.46-.21-.46-.46v-4.52c0-.25.21-.46.46-.46s.46.2.46.46v4.52c0,.25-.2.46-.46.46ZM324.57,256.71c-.16,0-.31-.08-.4-.23-.13-.22-.05-.5.17-.63l3.92-2.26c.22-.13.5-.05.63.17.13.22.05.5-.17.63l-3.92,2.26c-.07.04-.15.06-.23.06ZM330.84,253.09c-.16,0-.31-.08-.4-.23-.13-.22-.05-.5.17-.63l3.02-1.74c.45-.26.92-.32,1.29-.15l.13.07s.06.04.08.05c.2.15.24.44.09.64-.15.2-.43.24-.62.1l-.08-.05s-.02,0-.06,0c-.1,0-.23.04-.37.12l-3.02,1.74c-.07.04-.15.06-.23.06Z"/>
  </g>
  <g id="Character-2" data-name="Character">
    <g id="Botom">
      <g>
        <g>
          <path class="cls-1" d="M366.1,327.64c-.16-4.04-1.75-41.72-1.75-41.72l18.83,11.42c-3.03,23.26-4.31,30.36-4.52,34.23h0c.03.09.09.42.07,1-.19,4.6-5.49,6.89-9.66,9.81-1.65,1.15-6.45,4.56-11.25,6.75-3,1.37-9,1.29-9.67-.63,5.08-3.58,10.95-7.49,15.04-11.64,1.95-1.98,3.1-4.37,2.91-9.21Z"/>
          <g>
            <path class="cls-18" d="M342.22,353.19c-.24,0-.69,2.76.55,4,1.43,1.42,5.71,3.83,11.49,3.25,5.78-.58,8.97-2.36,11.35-4.34,2.38-1.97,5.71-4.75,8.34-5.27,2.44-.48,5.11-1.55,5.91-2.32.8-.77.82-4.32.82-4.32l-38.45,9Z"/>
            <path class="cls-27" d="M378.73,330.44s.63,0,.75.82c.14.98.31,3.85.63,5.47.45,2.25.8,6.87.42,8.68-.38,1.81-4.37,2.92-6.93,3.85-2.61.95-5.66,3-8.36,5.2-2.79,2.28-8.57,4.46-12.32,4.37-5.73-.13-9.38-1.92-10.44-4.16-1.32-2.77-.81-4.69,5.88-7.7,1.27-.57,5.7-3.09,7.47-4.32,4-2.78,6.63-5.76,8.67-10.49.24-.55.49-1.17,1-1.43.39-.2.85-.16,1.28-.07,1.09.21,4.25.75,5.23,1.29.87.48,2.1,1.05,2.04,2.26-.02.42-.15.83-.29,1.22-.09.24-.16.57.03.72.19.14.44,0,.62-.16.71-.63,1.25-1.46,1.86-2.21.33-.4.68-.78,1.08-1.09.37-.28.83-.41,1.16-.74,0,0,.18-.95.22-1.51Z"/>
            <path class="cls-15" d="M348.17,346.97c8.27.92,11.73,6.64,10.68,10.77-2.08.7-4.22,1.14-5.93,1.1-5.73-.13-9.61-1.93-10.68-4.17-1.24-2.62-.03-5.53,5.93-7.7Z"/>
            <g>
              <path class="cls-19" d="M359.43,348.23c.09,0,.18-.02.26-.09.18-.14.21-.42.08-.61-1.1-1.55-4.35-3.68-7.38-3.44-.22.02-.39.23-.38.46.01.24.2.42.43.4,2.82-.21,5.81,1.87,6.68,3.1.08.11.19.17.31.17Z"/>
              <path class="cls-19" d="M362.77,346.11c.09,0,.18-.02.26-.09.18-.14.21-.42.08-.61-1.1-1.55-4.36-3.68-7.38-3.44-.22.02-.39.23-.38.46.01.24.2.42.43.4,2.82-.22,5.81,1.87,6.68,3.1.08.11.19.17.31.17Z"/>
              <path class="cls-19" d="M366.08,343.4c.09,0,.18-.02.26-.09.18-.14.21-.42.08-.61-1.1-1.55-4.37-3.68-7.38-3.44-.22.02-.39.22-.38.46.02.24.2.42.43.4,2.82-.21,5.81,1.87,6.68,3.1.08.11.19.17.31.17Z"/>
              <path class="cls-19" d="M369.34,340.67c.09,0,.18-.02.25-.08.18-.14.22-.41.09-.6-1.51-2.2-5.05-3.75-8.07-3.51-.22.02-.39.23-.38.46.01.24.2.41.43.4,2.72-.21,6.02,1.21,7.36,3.16.08.11.19.17.31.18Z"/>
            </g>
          </g>
        </g>
        <g>
          <path class="cls-1" d="M399.48,295.41l20.49-3.6c.27,12.75-.6,29.76-1,41.52-.08,2.25.85,17.49.14,22.15-1.06,7-10.02,6.35-10.68,2.2-.66-4.15-.96-21.82-1.07-23.66-.27-7.67-4.18-20.64-6.83-34.33-.13-.67-.92-3.62-1.04-4.28Z"/>
          <g>
            <path class="cls-18" d="M405.2,360.69c0,4.09.51,6.84,1.92,9.33,1.41,2.49,4.31,3.42,7.34,2.9,3.03-.52,6.97-2.16,8.05-5.63,1.08-3.47,1.06-5.89.62-9.71l-17.94,3.12Z"/>
            <path class="cls-27" d="M419.01,332.04c1.22.16,1.18,5.5,1.54,11.02.39,5.92,2.13,8.47,2.5,13.33.43,5.55-.04,7.99-2.33,11.2-2.29,3.2-9.88,6.02-13.21,1.03-2.72-4.07-2.57-8.38-1.95-13.87.64-5.67,1.14-9.65,1.16-13.98.02-4.14-.58-8,.52-8.4.04.61.08,1.38.12,1.98.04.46.02,2.7.71,2.76.1-.52.12-1.01.11-1.55,0-.47.07-.97.42-1.31.35-.34,1.45-.57,1.95-.63,1.23-.15,2.46-.27,3.69-.3.62-.01,1.23,0,1.85.04.5.04,1.08.11,1.55.3.28.12.54.32.63.6.07.2.04.42.02.63-.02.38,0,.76.08,1.14.03.17.14.37.32.34.14-.02.21-.18.22-.32.05-.66-.01-1.15,0-1.93,0-.36.03-.7.05-1.06.02-.35.04-.69.04-1.05Z"/>
            <path class="cls-15" d="M423.2,359.6c0,3.43-.36,5.76-2.16,8.27-2.29,3.2-10.47,6-13.81,1.01-1.66-2.48-1.97-5.32-2.03-8.19,2.41-3.54,14.76-4.42,18-1.09Z"/>
            <g>
              <path class="cls-19" d="M408.73,354.89c.05,0,.1-.01.15-.03.05-.02,5.21-1.9,10.68-.37.24.06.5-.06.57-.28.07-.22-.07-.46-.31-.53-5.78-1.61-11.06.32-11.28.4-.23.09-.35.33-.25.55.07.17.26.27.44.27Z"/>
              <path class="cls-19" d="M419.53,350.37c.17,0,.34-.1.41-.26.09-.22-.02-.46-.25-.55-5.41-2.06-11.02.2-11.26.3-.23.09-.33.34-.23.56.1.21.38.31.6.21.05-.02,5.51-2.22,10.54-.29.06.02.13.03.19.03Z"/>
              <path class="cls-19" d="M419.46,346.48c.17,0,.33-.1.4-.25.1-.22,0-.47-.24-.56-5.94-2.38-11.26.15-11.48.26-.22.11-.31.36-.19.57.12.21.4.29.62.18.05-.02,5.17-2.44,10.7-.23.07.03.13.04.2.04Z"/>
              <path class="cls-28" d="M419.36,342.11c.17,0,.33-.1.4-.25.1-.21,0-.46-.23-.56-5.56-2.32-11.33.26-11.57.37-.23.1-.32.36-.2.57.11.21.39.3.61.19.06-.03,5.63-2.51,10.79-.36.07.03.14.04.2.04Z"/>
            </g>
          </g>
        </g>
        <path class="cls-27" d="M412.78,196.43c.01,23.19,3.05,69.63,3.05,69.63.28,2.85,3.88,15.47,4.13,25.76.41,16.53-.22,28-.22,28,0,0-8.67,3.39-14.93.78,0,0-8.01-33.26-10.1-44.03-2.49-12.83-5.66-26.72-5.66-26.72l-4.23,26.9s.74,7.65-.57,17.62c-.89,6.79-3.56,25.5-3.56,25.5,0,0-9.01,3.3-15.72-.77,0,0-1.84-43.33-1.92-49.6-.12-8.39.35-31.51.75-71.75l48.98-1.33Z"/>
        <path class="cls-23" d="M389.05,249.84l-6.24-33.21s-6.67-.1-11.71-5.26c0,0,.54,5.06,9.86,8.3l5.95,29.48-2.1,27.59,4.23-26.9Z"/>
      </g>
    </g>
    <g id="Top">
      <g>
        <g>
          <path class="cls-1" d="M364.8,135.19c-6.66,3.74-22.16,13.09-26.79,16.06,0,0-14.44-8.7-19.76-12.39-2.34-1.62-2.82-2.54-3.08-3.64-.43-1.81-.62-2.84-1.28-4.29-.72-1.57-1.13-2.11-1.97-4.09-.84-1.98-1.63-5.99-1.33-7.79-.5-.83-2.57-.79-3.39,1.39-.82,2.18-.41,4.55-.31,5.66.11,1.23.35,2.53-.02,2.75-.37.21-2.15-.62-3.93-.97-1.78-.35-3.36-1.05-5.29-.4-1.93.65-1.76,2.47-1.49,3.11.29.67,1.09,1.14,1.09,1.14,0,0-1.04-.13-1.86.65-.82.77-.73,2.72.08,3.42,0,0-1.25.02-1.45,1.4-.17,1.16,0,2.3,1.17,2.72,0,0-.95.26-.99.82-.04.56,0,1.9.99,2.51.98.61,3.34.66,3.34.66,0,0,.19.41,1.31.94.39.18,1.33.64,2.87,1.25,1.72.68,2.77.94,4.16,1.14,1.39.2,2.2-.03,6.07,3.45,2.49,2.24,12.57,10.52,17.52,13.86,8.26,5.59,9.23,5.32,17.71,1.17,8.36-4.1,20.78-10.34,20.78-10.34l6.45-22.43s-5.58-.57-10.6,2.25Z"/>
          <path class="cls-29" d="M301.19,128.84c.25.17.48.35.69.56.21.22.4.44.54.74l-.07-.06c1.25.25,2.55.75,3.42,1.8.21.26.4.55.52.88.11.33.16.72,0,1.09-.08.16-.17.33-.36.47-.2.13-.42.13-.59.12-.35-.03-.65-.1-.96-.14-.62-.08-1.26-.08-1.91-.15-.65-.06-1.3-.24-1.89-.49-1.18-.53-2.32-1.13-3.33-1.93.53.35,1.12.62,1.69.89.58.27,1.15.54,1.75.75.59.21,1.2.35,1.82.41.62.06,1.26.04,1.92.11.32.03.65.09.94.12.3.03.41-.05.54-.33.22-.47-.06-1.1-.43-1.56-.76-.96-1.95-1.53-3.16-1.86h-.05s-.02-.06-.02-.06c-.09-.25-.26-.51-.44-.73-.19-.22-.39-.44-.62-.63Z"/>
          <path class="cls-29" d="M304.11,134.07c.56-.02,1.11.4,1.26.98.18.59-.15,1.22-.61,1.58-.83.75-1.86,1.3-3.05,1.43-.6.01-1.15-.17-1.68-.35-.52-.19-1.04-.38-1.54-.6-1.02-.42-2.03-.84-3.03-1.31,1.06.3,2.11.64,3.15.99,1.04.33,2.08.84,3.09.84.49,0,1.02-.21,1.5-.41.48-.21.92-.52,1.37-.84.42-.29.71-.78.61-1.29-.07-.51-.52-.95-1.07-1.02Z"/>
          <path class="cls-29" d="M302.36,137.74c.49-.04,1.04.07,1.43.46.19.19.3.49.26.78-.05.27-.09.51-.24.77-.32.51-.83.69-1.26.94-.45.22-.93.47-1.5.48-.58-.01-1.04-.29-1.49-.42-.46-.14-.95-.21-1.43-.31-.98-.17-1.96-.33-2.94-.52,1,.02,1.99.09,2.99.2.5.05,1,.13,1.5.26.51.14.95.37,1.38.36.43.01.89-.19,1.32-.4.43-.22.91-.43,1.15-.77.12-.17.19-.42.25-.63.05-.21-.01-.43-.15-.6-.28-.37-.79-.54-1.27-.59Z"/>
          <path class="cls-29" d="M301.49,140.89c.17.12.28.34.3.56.01.23-.06.45-.15.65-.22.4-.49.67-.78.99-.16.14-.32.28-.5.4-.17.13-.41.23-.6.27-.41.1-.82.15-1.23.14l1.12-.46c.19-.09.33-.14.48-.27.15-.12.29-.25.43-.39.28-.26.57-.57.8-.85.22-.29.35-.67.14-1.04Z"/>
          <path class="cls-29" d="M306.09,133.77c-.63,1.06-1.07,4.37.43,6.5,1.5,2.13,2.97,2.67,2.97,2.67,0,0-1.91-.52-3.36-2.04-1.45-1.52-1.74-2.71-1.74-2.71l-.46.72c-.11-.5-.11-.89-1.27-1.16,0,0,1.31-.59,1.86-1.13.56-.54,1.39-1.39.21-2.48,0,0,.47.1.91.07.44-.03.44-.44.44-.44Z"/>
        </g>
        <path class="cls-27" d="M378.49,130.91c-8.06-.37-11.17.9-17.71,5.04-7.05,4.46-15.88,10.69-15.88,10.69,0,0,5.74,4.51,7.99,17.03l16.86-7.89,8.74-24.88Z"/>
        <path class="cls-29" d="M338.01,151.25c4.37,3.07,5.58,6.87,5.58,6.87,0,0,.39-5.29-3.96-7.89l-1.61,1.02Z"/>
      </g>
      <path class="cls-22" d="M363.91,151.37c1.98-14.68,8.08-19.04,10.93-19.75s7.83-1.63,17.49-.65c9.66.97,16.35,3.51,16.35,3.51,5.02,1.4,4.94,11.76,4.69,20.49-.22,7.5-.4,18.48-.52,27.84-.08,5.97.25,12.17.33,16.81-10.55,6.96-38.13,10.1-49.54,3.51,0,0-.38-8.59-.5-15.87-.24-15.32.14-31.22.76-35.88Z"/>
      <g>
        <g>
          <path class="cls-18" d="M370.24,103.57c-1.31-.98-2.44-2.1-3.05-3.89-.66-1.93-.9-3.46-.74-5.51.04-.46.28-1.51.52-1.89.43-.71,1.32-.91,2.12-1.03.51-.07,1.02-.14,1.53-.19-.91-.98-1.84-1.99-2.3-3.27-.34-.95-.4-2-.16-2.98.06-.27.16-.54.34-.73.42-.45,1.14-.37,1.72-.21,4.72,1.32,9.3.98,10.9.9,2.9-.15,4.35-.49,8.33-.84,3.98-.35,11.07,1.5,12.26,9,5.32.9,5.97,9.5,4.43,13.12-2.84,6.66-5.54,11.07-6.98,15.87-.27-.2-18.08-10.61-22.16-13.53-1.53-1.09-3.06-2.19-4.59-3.28-.74-.53-1.47-1.01-2.16-1.53Z"/>
          <path class="cls-1" d="M404.35,117c-3.18,2.36-5.24.08-5.24.08l.04,16.2c-6.59,8.54-24.17,7.14-16.55-1.48l-.16-3.88s-2.66.15-4.86-.22c-.96-.16-2.06-.57-2.82-1.06-1.81-1.13-3.09-2.65-3.87-5.2-.92-3.04-1.46-7.1-1.48-11.61-.02-4.71.46-10.78,2.02-13.94,2.82-2.48,11.2-2.72,18.25-.7.13,1.76-.05,3.3,1.35,5.23.69.95,1.78,1.67,2.69,2.12.19,3.42.32,4.34.96,5.85.35.87,1.05,2.17,2.79,1.54.82-.3,1.43-2.11,2.28-3.32,1.14-1.62,4.73-2.39,6.47,1.13,1.76,3.58.29,7.61-1.88,9.24Z"/>
          <path class="cls-29" d="M382.45,127.92c3.56-.35,9.9-1.7,11.74-3.87,1.84-2.17,3.26-7.19,3.26-7.19,0,0-.71,5.64-2.1,8.09s-4.47,3.44-6.71,4.12c-2.24.68-6.1,1.02-6.1,1.02l-.08-2.16Z"/>
        </g>
        <g>
          <path class="cls-18" d="M384.86,103.15l3.41,1.48c.39-.97-.06-2.1-1-2.51-.94-.41-2.02.05-2.41,1.03Z"/>
          <path class="cls-18" d="M374.99,102.96l-3.28,1.73c-.46-.94-.1-2.1.8-2.57.91-.48,2.02-.1,2.48.84Z"/>
          <path class="cls-17" d="M385.96,116.16l-6.17,2.36c.72,1.72,2.69,2.59,4.39,1.94,1.71-.65,2.5-2.58,1.78-4.31Z"/>
          <path class="cls-29" d="M385.77,117.45c-1.77,0-3.2,1.42-3.22,3.19.54.07,1.1.03,1.63-.17,1.27-.49,2.03-1.68,2.05-2.97-.15-.02-.3-.05-.45-.05Z"/>
          <polygon class="cls-29" points="380.9 104.28 379.79 115.41 374.03 112.99 380.9 104.28"/>
          <path class="cls-18" d="M386.94,107.26c.01.84-.66,1.53-1.5,1.54s-1.53-.66-1.54-1.5c-.01-.84.66-1.53,1.5-1.54.84-.01,1.53.66,1.54,1.5Z"/>
          <path class="cls-18" d="M375.51,107.26c.01.84-.66,1.53-1.5,1.54-.84.01-1.53-.66-1.54-1.5-.01-.84.66-1.53,1.5-1.54.84-.01,1.53.66,1.54,1.5Z"/>
        </g>
      </g>
      <g>
        <g>
          <path class="cls-1" d="M409.67,134.76c7.22,1.25,11.05,3.23,12.89,8.9,2.62,8.07,8.05,28.36,10.07,37.64,1.09,4.98,2.19,8.35-1.79,11.94-4.28,3.85-13.93,11.55-22.37,17.18-1.66,1.11-6.03,5.17-7.62,6-9.63,5.05-20.76,3.73-20.76,3.73l10.55-6.39,1.89-3.57,22.61-23.81-8.32-31.96s-2.65-16.19,2.85-19.66Z"/>
          <path class="cls-29" d="M415.15,186.38c3.03-3.04,7.42-3.04,7.42-3.04,0,0-3.06-1.6-7.97.94l.55,2.1Z"/>
          <path class="cls-27" d="M408.68,134.47c3.3.61,6.92.97,10.31,3.11,3.39,2.14,3.98,4.72,6.56,12.67,2.58,7.96,5.15,21.16,5.15,21.16,0,0-8.03,4.6-18.92,4.74,0,0-3.49-13.12-5.12-18.33-1.07-3.41-4.03-14.57,2.02-23.36Z"/>
        </g>
        <g>
          <path class="cls-22" d="M400.29,205.29l.02.99c.02,1-.49,1.94-1.34,2.45l-26.33,15.93c-.43.26-.91.39-1.39.4-.48.01-.97-.1-1.4-.34l-49.54-27.16c-.88-.48-1.43-1.39-1.45-2.39l-.02-.68,52.37,28.72,29.08-17.92Z"/>
          <g class="cls-24">
            <path class="cls-6" d="M400.29,205.29l.02.99c.02,1-.49,1.94-1.34,2.45l-26.33,15.93c-.43.26-.91.39-1.39.4-.48.01-.97-.1-1.4-.34l-49.54-27.16c-.88-.48-1.43-1.39-1.45-2.39l-.02-.68,52.37,28.72,29.08-17.92Z"/>
          </g>
          <g class="cls-31">
            <path d="M400.29,205.29l.02.99c.02,1-.49,1.94-1.34,2.45l-26.33,15.93c-.43.26-.91.39-1.39.4-.48.01-.97-.1-1.4-.34l-49.54-27.16c-.88-.48-1.43-1.39-1.45-2.39l-.02-.68,52.37,28.72,29.08-17.92Z"/>
          </g>
          <path class="cls-22" d="M318.83,194.49l28.64-17.38c.51-.31,1.14-.32,1.67-.04l50.96,27.95c.25.14.26.49.01.64l-28.9,17.55-52.37-28.72Z"/>
          <g class="cls-2">
            <path class="cls-6" d="M318.83,194.49l28.64-17.38c.51-.31,1.14-.32,1.67-.04l50.96,27.95c.25.14.26.49.01.64l-28.9,17.55-52.37-28.72Z"/>
          </g>
          <polygon class="cls-22" points="370.96 220.49 386.41 211.12 340.54 185.97 325.01 195.3 370.96 220.49"/>
          <g class="cls-3">
            <polygon class="cls-6" points="370.96 220.49 386.41 211.12 340.54 185.97 325.01 195.3 370.96 220.49"/>
          </g>
          <polygon class="cls-22" points="378.55 195.47 378.27 195.65 370.7 200.24 356.89 192.67 356.6 192.51 364.46 187.75 378.55 195.47"/>
          <polygon class="cls-22" points="378.27 195.65 370.7 200.24 356.89 192.67 364.46 188.07 378.27 195.65"/>
          <g class="cls-3">
            <polygon class="cls-6" points="378.27 195.65 370.7 200.24 356.89 192.67 364.46 188.07 378.27 195.65"/>
          </g>
          <path class="cls-22" d="M371.21,223.21l.04,1.86c-.48.01-.97-.1-1.4-.34l-49.54-27.16c-.88-.48-1.43-1.39-1.45-2.39l-.02-.68,52.37,28.72Z"/>
          <g class="cls-14">
            <path class="cls-6" d="M371.21,223.21l.04,1.86c-.48.01-.97-.1-1.4-.34l-49.54-27.16c-.88-.48-1.43-1.39-1.45-2.39l-.02-.68,52.37,28.72Z"/>
          </g>
          <g class="cls-13">
            <path d="M371.21,223.21l.04,1.86c-.48.01-.97-.1-1.4-.34l-49.54-27.16c-.88-.48-1.43-1.39-1.45-2.39l-.02-.68,52.37,28.72Z"/>
          </g>
          <path class="cls-22" d="M370.43,223.64c-.92.38-1.97.33-2.86-.16l-49.32-27.05c-.87-.48-1.47-1.31-1.66-2.28l-6.03-31.68c-.03-.18-.05-.36-.06-.54-.02-.89.31-1.74.93-2.38l51.26,28.11c.64.35,1.09.97,1.23,1.69l6.52,34.28Z"/>
          <g class="cls-25">
            <path class="cls-6" d="M370.43,223.64c-.92.38-1.97.33-2.86-.16l-49.32-27.05c-.87-.48-1.47-1.31-1.66-2.28l-6.03-31.68c-.03-.18-.05-.36-.06-.54-.02-.89.31-1.74.93-2.38l51.26,28.11c.64.35,1.09.97,1.23,1.69l6.52,34.28Z"/>
          </g>
          <path class="cls-22" d="M371.21,223.21l-.33.2c-.15.09-.3.16-.45.23l-6.52-34.28c-.14-.72-.59-1.33-1.23-1.69l-51.26-28.11c.19-.2.42-.38.66-.53l51.36,28.16c.64.35,1.09.97,1.23,1.69l6.53,34.33Z"/>
          <g class="cls-3">
            <path class="cls-6" d="M371.21,223.21l-.33.2c-.15.09-.3.16-.45.23l-6.52-34.28c-.14-.72-.59-1.33-1.23-1.69l-51.26-28.11c.19-.2.42-.38.66-.53l51.36,28.16c.64.35,1.09.97,1.23,1.69l6.53,34.33Z"/>
          </g>
          <path class="cls-22" d="M363.42,188.31l.77-.47c.23.3.4.65.48,1.04l6.53,34.33-.33.2c-.15.09-.3.16-.45.23l-6.52-34.28c-.07-.39-.25-.74-.48-1.04Z"/>
          <path class="cls-7" d="M363.42,188.31l.77-.47c.23.3.4.65.48,1.04l6.53,34.33-.33.2c-.15.09-.3.16-.45.23l-6.52-34.28c-.07-.39-.25-.74-.48-1.04Z"/>
          <path class="cls-31" d="M363.42,188.31l.77-.47c.23.3.4.65.48,1.04l6.53,34.33-.33.2c-.15.09-.3.16-.45.23l-6.52-34.28c-.07-.39-.25-.74-.48-1.04Z"/>
          <path class="cls-27" d="M342.35,194.89c-.4-2.12-2.66-4.9-5.05-6.21-2.38-1.31-3.99-.65-3.59,1.47.4,2.12,2.66,4.9,5.05,6.21,2.38,1.31,3.99.65,3.59-1.47Z"/>
        </g>
        <path class="cls-1" d="M401.25,202.48c-2.76,1.94-6.47.38-10.13.82-3.66.44-6.8,1.34-9.73,1.26s-4.38.51-2.33,2.87c2.06,2.35,7.96,1,9.55,1.71,1.59.72,2.58,3.28.74,5.42-1.72,2.01,9.83-1.87,11.37-4.25,1.54-2.38,2.63-7.53.53-7.83Z"/>
      </g>
    </g>
  </g>
  <g id="Speech_Bubble-2" data-name="Speech_Bubble">
    <g id="Speech_Bubble-3" data-name="Speech_Bubble">
      <g>
        <path class="cls-22" d="M382.71,69.4l2.83-5.33-2.28-6.58v-4.03l6.98,4.03v4.03l-3,5.2c-.05.09-.12.15-.2.18h0s-4.33,2.5-4.33,2.5Z"/>
        <path class="cls-20" d="M382.71,69.4l2.83-5.33-2.28-6.58v-4.03l6.98,4.03v4.03l-3,5.2c-.05.09-.12.15-.2.18h0s-4.33,2.5-4.33,2.5Z"/>
        <path class="cls-22" d="M369.67,25.06c0-1.33.94-2.96,2.09-3.62l1.7-.98c1.16-.67,3.03-.67,4.19,0l24.46,14.08c1.16.67,2.09,2.29,2.09,3.62v27.24c0,1.33-.94,2.96-2.09,3.62l-1.7.98c-1.16.67-3.03.67-4.19,0l-10.36-5.95-2.99,5.19c-.19.33-.68.28-.81-.08l-3.16-9.14-7.13-4.1c-1.16-.67-2.09-2.29-2.09-3.62v-27.24Z"/>
        <path class="cls-20" d="M404.21,65.4c0,1.33-.94,2.96-2.09,3.62l-1.7.98c-1.04.6-2.67.66-3.83.17.99.37,1.73-.18,1.73-1.38v-27.24c0-.67-.23-1.41-.61-2.06l5.89-3.4c.38.66.61,1.4.61,2.06v27.24Z"/>
        <path class="cls-8" d="M369.74,24.46c.24-.89,1.05-1.17,2.02-.61l24.46,14.08c.58.33,1.1.9,1.47,1.56l5.89-3.4c-.38-.66-.9-1.23-1.47-1.56l-24.45-14.08c-1.16-.66-3.04-.66-4.19,0l-1.71.99c-.99.57-1.82,1.84-2.02,3.03Z"/>
      </g>
    </g>
    <g>
      <g>
        <path class="cls-6" d="M373.84,44.19l1.43-.68c-2.11-6.88.03-9.15,3.75-9.46-1.46.9-2.21,4.63-1,8.16l1.43-.68c.28-.13.74.37.75.81l.11,6.64c0,.3-.22.41-.48.23l-5.73-3.97c-.38-.27-.55-.91-.27-1.04Z"/>
        <path class="cls-9" d="M378.22,38.57c0-2.14.65-3.92,1.6-4.5,0,0,3.92.34,7.68,5.86,0,0-5.36-4.42-9.28-1.35Z"/>
      </g>
      <g>
        <path class="cls-6" d="M394.15,49.22l-1.43.68c2.11,6.88-.03,9.15-3.75,9.46,1.46-.9,2.21-4.63,1-8.16l-1.44.68c-.28.13-.74-.37-.75-.81l-.11-6.64c0-.3.22-.41.48-.23l5.73,3.97c.38.27.55.91.27,1.04Z"/>
        <path class="cls-9" d="M389.77,54.84c0,2.14-.65,3.92-1.6,4.5,0,0-3.92-.34-7.68-5.86,0,0,5.36,4.42,9.28,1.35Z"/>
      </g>
    </g>
  </g>
</svg>