<svg width="311" height="68" viewBox="0 0 311 68" fill="none" xmlns="http://www.w3.org/2000/svg">
<path d="M78.7716 44.9446L78.8087 44.8706L68.8794 20.7441L74.0293 21.8172L80.9205 39.061L87.6635 20.7441L93.2209 21.8172L84.2549 46.4617L78.7716 44.9446Z" fill="white"/>
<path d="M98.0003 25.4439C96.7406 24.8518 95.8021 23.9514 95.1846 22.7426C95.234 22.3479 95.6045 21.8422 96.2961 21.2255C96.9876 20.6087 97.5434 20.251 97.9633 20.1523C99.223 20.7197 100.149 21.5955 100.742 22.7796C100.322 23.8404 99.4082 24.7285 98.0003 25.4439ZM100.223 28.7372V46.462L95.5921 45.4259V27.7011L100.223 28.7372Z" fill="white"/>
<path d="M118.488 28.9221L118.081 30.9203C115.685 30.3776 114.104 30.1556 113.339 30.2542C112.128 30.4023 111.177 30.9943 110.486 32.0304C109.794 33.0419 109.547 34.0163 109.745 34.9537C109.794 35.1757 110.362 35.1511 111.449 34.8797C112.536 34.6083 113.721 34.337 115.006 34.0656C116.29 33.7696 117.118 33.7203 117.488 33.9176C119.192 34.8057 120.341 35.9775 120.934 37.433C121.527 38.8884 121.588 40.2823 121.119 41.6144C120.674 42.9218 119.748 44.0566 118.34 45.0187C116.932 45.9808 115.24 46.4619 113.265 46.4619C111.634 46.4619 110.115 46.0178 108.707 45.1297C107.324 44.217 105.694 42.8602 103.817 41.0593L104.484 39.8012C106.163 41.0593 107.942 41.9104 109.819 42.3545C111.696 42.7738 113.437 42.6011 115.043 41.8364C116.673 41.0717 117.76 39.6655 118.303 37.618C118.328 37.5193 118.217 37.4823 117.97 37.507C117.698 37.5316 117.019 37.692 115.932 37.988C112.499 38.9008 110.313 39.1721 109.374 38.8021L109.041 38.6171C107.682 37.581 106.583 36.4462 105.743 35.2127C105.126 34.374 104.867 33.4859 104.965 32.5485C105.089 31.611 105.41 30.76 105.929 29.9952C106.447 29.2058 107.225 28.5644 108.263 28.071C109.3 27.553 110.436 27.2939 111.671 27.2939C112.042 27.2939 112.561 27.368 113.227 27.516C113.919 27.664 114.882 27.923 116.117 28.293C117.377 28.6384 118.167 28.8481 118.488 28.9221Z" fill="white"/>
<path d="M127.492 25.4439C126.232 24.8518 125.293 23.9514 124.676 22.7426C124.725 22.3479 125.096 21.8422 125.787 21.2255C126.479 20.6087 127.035 20.251 127.454 20.1523C128.714 20.7197 129.64 21.5955 130.233 22.7796C129.813 23.8404 128.899 24.7285 127.492 25.4439ZM129.715 28.7372V46.462L125.083 45.4259V27.7011L129.715 28.7372Z" fill="white"/>
<path d="M146.683 31.4384C145.053 30.3282 143.361 30.5009 141.607 31.9564C140.15 33.1899 139.175 34.8304 138.681 36.8779C138.137 39.2215 138.557 40.9853 139.94 42.1694C140.113 42.3174 140.298 42.4531 140.496 42.5765C141.484 43.1192 142.497 43.2425 143.534 42.9465C144.596 42.6505 145.51 41.9967 146.276 40.9853C147.066 39.9739 147.684 38.9008 148.128 37.766C148.573 36.6065 148.684 35.4348 148.462 34.2506C148.239 33.0419 147.647 32.1044 146.683 31.4384ZM150.388 31.7344C151.104 32.3758 151.66 33.1529 152.055 34.0656C152.451 34.9537 152.673 35.8665 152.722 36.8039C152.796 37.7413 152.71 38.6911 152.463 39.6532C152.241 40.6153 151.895 41.5157 151.426 42.3545C150.956 43.1932 150.363 43.9456 149.647 44.6117C148.956 45.2531 148.19 45.7341 147.35 46.0548C146.51 46.4002 145.572 46.5359 144.534 46.4619C143.522 46.3879 142.484 46.0672 141.422 45.4998C140.039 44.7597 138.681 43.8223 137.347 42.6875C136.285 41.7747 135.494 40.751 134.976 39.6162C134.457 38.4567 134.21 37.3343 134.235 36.2488C134.284 35.1634 134.494 34.078 134.864 32.9925C135.26 31.9071 135.815 30.9696 136.532 30.1802C137.273 29.3908 138.075 28.7248 138.94 28.182C139.804 27.6146 140.731 27.3186 141.719 27.2939C142.731 27.2693 143.707 27.479 144.646 27.923C147.041 29.1811 148.956 30.4516 150.388 31.7344Z" fill="white"/>
<path d="M161.577 28.7372V30.2543C163.775 28.2068 165.702 27.2323 167.357 27.331C168.147 27.3804 169.53 28.3671 171.506 30.2913C173.507 32.1908 174.569 33.486 174.692 34.1767C174.791 34.8181 174.841 38.9132 174.841 46.4619L170.247 45.4258C170.395 36.9643 170.333 32.4869 170.061 31.9935C169.617 31.1547 168.876 30.908 167.838 31.2534C166.826 31.5741 165.764 32.1662 164.652 33.0296C163.565 33.893 162.54 34.9045 161.577 36.0639V46.4619L156.76 45.4258V27.7011L161.577 28.7372Z" fill="white"/>
<path d="M193.217 36.212L190.253 32.8817H198.886L203.999 34.3988C204.048 39.8507 204.073 42.9344 204.073 43.6498C204.073 45.5986 204.27 46.9678 204.666 47.7572C205.085 48.5466 205.938 49.1263 207.222 49.4964C205.444 49.9651 203.752 49.6814 202.146 48.6453C200.565 47.6338 199.713 46.1784 199.59 44.2788L199.479 42.6137C198.589 43.3784 197.787 44.0075 197.07 44.5009C196.354 44.9696 195.527 45.3889 194.588 45.759C193.674 46.129 192.723 46.2647 191.735 46.166C190.772 46.092 189.784 45.7713 188.771 45.2039C185.857 43.5511 183.745 42.1326 182.436 40.9485C181.3 39.8877 180.398 38.7406 179.731 37.5072C179.064 36.2737 178.657 35.0649 178.509 33.8808C178.385 32.6967 178.41 31.4879 178.583 30.2544C178.78 29.021 179.163 27.8739 179.731 26.8131C180.299 25.7523 180.954 24.7409 181.695 23.7788C182.436 22.8167 183.276 22.0149 184.214 21.3735C185.177 20.7321 186.141 20.2018 187.104 19.7824C188.092 19.3383 189.105 19.1286 190.142 19.1533C191.18 19.178 192.155 19.3753 193.069 19.7454C197.49 21.7682 200.368 23.1127 201.702 23.7788L200.108 25.74C199.738 25.5673 197.997 24.8642 194.884 23.6308C193.798 23.1867 192.785 23.0634 191.846 23.2607C190.908 23.4581 189.982 23.8405 189.068 24.4078C188.179 24.9506 187.413 25.6906 186.771 26.6281C186.128 27.5655 185.56 28.5646 185.066 29.6254C184.572 30.6615 184.251 31.7716 184.103 32.9557C183.98 34.1398 183.98 35.2623 184.103 36.323C184.251 37.3838 184.622 38.3829 185.215 39.3203C185.807 40.2578 186.598 41.0102 187.586 41.5776C188.425 42.0709 189.278 42.3176 190.142 42.3176C191.031 42.3176 191.859 42.145 192.624 41.7996C193.39 41.4296 194.131 40.9485 194.847 40.3564C195.588 39.7644 196.268 39.1477 196.885 38.5063C197.503 37.8649 198.083 37.2481 198.626 36.6561C198.799 36.4587 198.923 36.3107 198.997 36.212H193.217Z" fill="white"/>
<path d="M213.669 28.7369V31.4752C215.472 28.6382 217.003 27.2197 218.263 27.2197C218.88 27.2197 219.918 27.5404 221.375 28.1818C222.832 28.7986 224.055 29.4399 225.043 30.106L222.486 33.8064C220.955 32.6716 219.621 32.0549 218.485 31.9562C217.373 31.8329 216.484 32.0549 215.817 32.6223C215.151 33.165 214.434 34.0531 213.669 35.2865V46.4617L209.037 45.4256V27.7008L213.669 28.7369Z" fill="white"/>
<path d="M239.047 31.4384C237.417 30.3282 235.725 30.5009 233.972 31.9564C232.514 33.1899 231.539 34.8304 231.045 36.8779C230.501 39.2215 230.921 40.9853 232.304 42.1694C232.477 42.3174 232.663 42.4531 232.86 42.5765C233.848 43.1192 234.861 43.2425 235.898 42.9465C236.96 42.6505 237.874 41.9967 238.64 40.9853C239.43 39.9739 240.048 38.9008 240.492 37.766C240.937 36.6065 241.048 35.4348 240.826 34.2506C240.604 33.0419 240.011 32.1044 239.047 31.4384ZM242.752 31.7344C243.469 32.3758 244.024 33.1529 244.42 34.0656C244.815 34.9537 245.037 35.8665 245.087 36.8039C245.161 37.7413 245.074 38.6911 244.827 39.6532C244.605 40.6153 244.259 41.5157 243.79 42.3545C243.321 43.1932 242.728 43.9456 242.011 44.6117C241.32 45.2531 240.554 45.7341 239.714 46.0548C238.875 46.4002 237.936 46.5359 236.899 46.4619C235.886 46.3879 234.849 46.0672 233.786 45.4998C232.403 44.7597 231.045 43.8223 229.711 42.6875C228.649 41.7747 227.859 40.751 227.34 39.6162C226.821 38.4567 226.574 37.3343 226.599 36.2488C226.648 35.1634 226.858 34.078 227.229 32.9925C227.624 31.9071 228.18 30.9696 228.896 30.1802C229.637 29.3908 230.44 28.7248 231.304 28.182C232.169 27.6146 233.095 27.3186 234.083 27.2939C235.096 27.2693 236.071 27.479 237.01 27.923C239.406 29.1811 241.32 30.4516 242.752 31.7344Z" fill="white"/>
<path d="M251.718 28.7373L256.35 39.9494L260.61 27.7012L265.241 28.7373L269.873 39.9494L274.133 27.7012L278.764 28.7373L272.614 46.4621H272.577L267.946 45.426L263.315 34.2878L259.091 46.4621H259.054L254.46 45.426H254.423L247.087 27.7012L251.718 28.7373Z" fill="white"/>
<path d="M283.914 28.7373L288.545 39.9494L292.806 27.7012L297.437 28.7373L302.068 39.9494L306.329 27.7012L310.96 28.7373L304.81 46.4621H304.773L300.142 45.426L295.511 34.2878L291.287 46.4621H291.25L286.656 45.426H286.619L279.283 27.7012L283.914 28.7373Z" fill="white"/>
<path d="M29.8349 0.517762C30.2886 0.500978 30.6919 0.668822 31.1121 0.85345C31.6498 1.08843 32.154 1.37377 32.6749 1.64232C33.5656 2.09549 34.4731 2.53189 35.3638 2.98507C36.0528 3.33754 36.7586 3.63966 37.4308 3.99213C39.1617 4.86492 40.8927 5.77128 42.6404 6.62728C45.9678 8.25536 49.2616 9.9338 52.5891 11.5619C54.5553 12.5186 56.5719 13.4082 58.4877 14.4656C58.9918 14.7509 59.2943 15.0866 59.4456 15.6405C59.5632 16.0601 59.5464 16.5133 59.5464 16.9329C59.5464 17.4532 59.5296 17.9735 59.5296 18.4938C59.5296 20.4912 59.496 22.5053 59.496 24.5194C59.5128 30.9646 59.496 37.4266 59.496 43.8718C59.496 45.7349 59.496 47.5812 59.5128 49.4443C59.5296 50.3842 59.58 51.3409 59.5632 52.2808C59.5464 52.6836 59.4624 53.0529 59.2607 53.4054C59.0926 53.6907 58.8238 53.9089 58.5381 54.06C57.9499 54.3789 57.2945 54.6306 56.6895 54.9327C55.1098 55.7048 53.5469 56.4937 51.9841 57.2658C51.211 57.635 50.4716 58.0546 49.7154 58.4407C46.9425 59.8338 44.1361 61.1765 41.3632 62.5696C39.6155 63.4424 37.8341 64.2984 36.0864 65.188C35.0277 65.7251 33.9689 66.2454 32.9102 66.7825C32.0195 67.2189 31.1457 67.756 30.171 67.991C29.8013 68.0246 29.482 67.9742 29.1459 67.8399C28.5073 67.5546 27.8687 67.2189 27.2469 66.9C25.9529 66.2622 24.6589 65.6076 23.3649 64.9698C21.7684 64.1809 20.1551 63.4424 18.5754 62.6536C16.4748 61.6129 14.3741 60.5555 12.2735 59.5149C10.5594 58.6757 8.82844 57.8532 7.11431 56.9972C6.27405 56.5776 5.4338 56.1244 4.59354 55.7048C3.88772 55.3524 3.18191 55.0334 2.47609 54.6978C2.07277 54.4963 1.63583 54.3117 1.26612 54.06C0.81238 53.7578 0.459471 53.3382 0.35864 52.7843C0.29142 52.3647 0.32503 51.9116 0.341835 51.4752C0.35864 50.8206 0.341835 50.1492 0.341835 49.4946C0.341835 46.742 0.341835 43.9725 0.341835 41.2199C0.341835 35.3789 0.341835 29.538 0.35864 23.697C0.35864 22.0689 0.35864 20.4408 0.341835 18.8127C0.341835 17.94 0.29142 17.0504 0.32503 16.1776C0.341835 15.7916 0.409056 15.4391 0.644328 15.137C0.812379 14.9188 1.01404 14.7509 1.24931 14.6166C1.73666 14.3481 2.25762 14.1131 2.76178 13.8613C4.40868 13.0221 6.0892 12.2165 7.75291 11.394C13.6011 8.45678 19.4325 5.50272 25.3143 2.66616C26.2218 2.22977 27.1292 1.74302 28.0367 1.30663C28.6249 0.937372 29.1795 0.601684 29.8349 0.517762ZM29.8181 3.28719C28.2216 3.94178 26.6755 4.84813 25.1126 5.60343C20.8273 7.6847 16.5924 9.79953 12.3575 11.9479C11.2988 12.485 10.2233 13.0389 9.16454 13.5424C7.98818 14.0963 6.71099 14.6166 5.66907 15.3719C4.72798 16.0601 4.08938 17.0336 3.65245 18.1078C3.43398 18.6281 3.26593 19.1988 3.19871 19.7527C3.01385 21.0786 3.08107 22.4382 3.08107 23.7641C3.08107 24.4019 3.08107 25.0397 3.09788 25.6776C3.09788 26.2314 3.06427 26.8189 3.26593 27.3224C3.40037 27.6413 3.61884 27.9267 3.8205 28.212C4.10619 28.6148 4.39188 29.0177 4.67756 29.4373C5.95476 31.2835 7.26556 33.0963 8.55955 34.9258C9.98799 36.9567 11.366 39.0044 12.7945 41.0353C13.181 41.5892 13.6179 42.143 14.0044 42.6969C14.6094 43.5529 15.1304 44.4761 15.7858 45.2985C16.1051 45.6845 16.4076 45.9867 16.8781 46.1713C17.4831 46.4231 18.1721 46.4063 18.7771 46.1377C19.214 45.9531 19.5669 45.651 19.819 45.2482L19.8526 45.1978C20.1719 44.6775 20.2895 43.9725 20.1551 43.3851C20.0879 43.0997 19.9534 42.8144 19.8022 42.5626C19.4493 41.9752 18.9956 41.4213 18.5922 40.8506C17.9536 39.9443 17.315 39.0211 16.6932 38.1148C15.0631 35.765 13.433 33.4152 11.7861 31.0821C10.677 29.5044 9.53425 27.9602 8.42511 26.3657C7.90415 25.6272 7.38319 24.8719 6.86223 24.1334C6.49252 23.5963 6.0892 23.0928 5.90434 22.4717C5.51782 21.2465 5.75309 19.7695 6.39169 18.6617C6.82862 17.9232 7.46722 17.3357 8.18984 16.8993C8.76122 16.5469 9.41662 16.2951 10.0216 15.993C11.1307 15.4559 12.2399 14.902 13.349 14.3481C15.08 13.4753 16.7941 12.5857 18.5418 11.7129C20.0543 10.9576 21.5835 10.2527 23.096 9.49741C24.2388 8.92674 25.3815 8.35607 26.5243 7.80219C27.2973 7.43293 28.0199 7.01332 28.8602 6.81191C29.1963 6.72799 29.566 6.69442 29.9189 6.69442C30.6079 6.7112 31.1961 6.81191 31.8347 7.06367C33.1623 7.60077 34.4395 8.33929 35.7335 8.97709C37.7165 9.96737 39.7163 10.9409 41.7161 11.9311C43.2622 12.7032 44.7915 13.5089 46.3543 14.2474C47.4467 14.7677 48.5222 15.3048 49.6145 15.8251C50.3372 16.1776 51.0934 16.5133 51.7992 16.9161C52.1857 17.1343 52.4882 17.4029 52.7907 17.7218C53.715 18.6953 54.236 20.0716 54.2023 21.3975C54.1855 22.0018 54.0343 22.5724 53.7486 23.1095C53.3789 23.7977 52.8747 24.4019 52.4378 25.0398C51.648 26.1811 50.8749 27.3224 50.0851 28.447C47.7156 31.8206 45.3628 35.2279 42.9765 38.6015C42.3547 39.4911 41.7161 40.3639 41.1111 41.2703C40.691 41.8913 40.17 42.4955 39.9516 43.234L39.9348 43.3012C39.7667 43.855 39.9348 44.6103 40.2205 45.1139C40.523 45.6342 40.9935 46.037 41.5649 46.2049C42.2035 46.3895 42.9765 46.2888 43.5647 45.9531C43.7831 45.8188 43.968 45.6678 44.1193 45.4663C44.4049 45.1139 44.6402 44.7111 44.8923 44.325C45.3628 43.6201 45.8334 42.9151 46.3207 42.2102C48.6566 38.9037 50.9926 35.6139 53.3117 32.2906C54.1183 31.1325 54.9418 30.0079 55.7148 28.8498C56.1181 28.2456 56.5887 27.6413 56.7903 26.9364C56.8744 26.6007 56.8576 26.2314 56.8576 25.8958C56.8576 25.409 56.8576 24.9223 56.8576 24.4355C56.8576 21.9514 57.1096 19.3163 55.7484 17.1175C55.2275 16.2783 54.5553 15.5398 53.715 15.0027C53.0764 14.5999 52.3706 14.2977 51.6984 13.9621C50.0347 13.1228 48.3373 12.3172 46.6736 11.4948C41.9346 9.14494 37.2459 6.74477 32.4733 4.44531C31.8683 4.14319 31.2633 3.84107 30.6415 3.53895C30.4567 3.45503 30.2046 3.28719 30.0197 3.2704C29.9021 3.2704 29.8517 3.28719 29.8181 3.28719ZM31.9355 22.0353C31.5322 22.1193 31.1289 22.2535 30.8096 22.5389C30.3558 22.9417 30.0365 23.4788 29.6836 23.9655C29.1291 24.7376 28.5913 25.5097 28.0535 26.2818C26.7763 28.1113 25.4823 29.9072 24.2051 31.7199C23.8354 31.3675 23.5666 30.9479 23.2641 30.5282C22.7599 29.8233 22.2558 29.1184 21.7684 28.3966C20.8777 27.121 19.9703 25.879 19.0796 24.6201C18.6258 23.9656 18.1721 23.1263 17.5503 22.6228L17.4831 22.5724C16.9957 22.1696 16.4076 22.0353 15.7858 22.1025C15.0968 22.1864 14.559 22.5053 14.1389 23.0424C13.7692 23.5124 13.5843 24.2005 13.6683 24.788C13.7187 25.1405 13.8364 25.4426 14.0212 25.7447C14.3069 26.1979 14.643 26.6175 14.9455 27.0539C15.4833 27.826 15.9874 28.5813 16.5252 29.3533C17.2142 30.31 17.8696 31.3003 18.5418 32.257C19.3485 33.3984 20.1887 34.5229 20.9954 35.6811C22.7599 38.1987 24.5244 40.7164 26.3226 43.2172C26.6755 43.704 27.0116 44.1907 27.3477 44.6775C27.6334 45.0971 27.9191 45.5503 28.3392 45.8524C28.961 46.3056 29.7677 46.4231 30.5071 46.3056C31.3305 46.1713 31.9187 45.6174 32.3893 44.9628L36.7082 38.8869C38.5399 36.3692 40.3045 33.7844 42.1362 31.2668C43.195 29.8233 44.2369 28.3798 45.2452 26.9028C45.5645 26.4329 45.9678 25.9797 46.2199 25.4761C46.4384 25.023 46.4888 24.553 46.4048 24.0495C46.3039 23.4452 45.951 22.8913 45.4469 22.5389L45.0771 22.3207L45.0099 22.2871C44.4554 22.0018 43.7327 22.0018 43.1446 22.2032C42.8421 22.3039 42.5228 22.4717 42.3043 22.7067C42.0354 22.9753 41.8506 23.3445 41.6321 23.6634C41.1111 24.3852 40.607 25.1237 40.086 25.8454C37.7333 29.0512 35.4982 32.3577 33.1791 35.5971C32.4229 36.6545 31.6666 37.7287 30.8768 38.7862C30.5407 39.2226 30.2382 39.6757 29.8685 40.0953L26.978 35.8825C27.5158 35.1104 28.1207 34.3719 28.6753 33.6166C29.3139 32.7438 29.9021 31.8542 30.5239 30.9982C31.3809 29.8065 32.2548 28.6316 33.0783 27.4231C33.3135 27.0874 33.532 26.7685 33.7841 26.4496C34.0194 26.1475 34.2882 25.8118 34.4395 25.4594C34.6411 25.0062 34.658 24.4523 34.5739 23.9655C34.4731 23.3949 34.137 22.841 33.6496 22.5053C33.1959 22.1361 32.5741 21.9346 31.9355 22.0353ZM3.03066 35.2279C3.03066 37.7791 3.06427 40.3135 3.04746 42.8648C3.04746 43.9054 3.03066 44.946 3.03066 46.0035C3.03066 47.0441 3.03066 48.1183 3.28274 49.1421C3.58523 50.4345 4.1398 51.5255 5.08089 52.4822C5.50102 52.9018 5.92115 53.2711 6.4253 53.59C7.18153 54.0432 7.98818 54.4292 8.77802 54.8153C10.6602 55.772 12.576 56.6783 14.4582 57.6182C16.7605 58.7596 19.0796 59.8674 21.3651 61.0255C24.222 62.4521 27.062 63.8956 29.9357 65.2551C31.6162 64.4998 33.2799 63.6103 34.9268 62.7878C37.1115 61.6801 39.3298 60.6394 41.5313 59.5485C42.506 59.0617 43.447 58.5246 44.4386 58.0379C46.388 57.0644 48.3542 56.1077 50.3035 55.1342C51.5135 54.5299 52.8579 53.9928 53.9503 53.1704C55.009 52.3815 55.782 51.2402 56.2526 50.0149C56.5046 49.3603 56.6559 48.7057 56.7399 48.0176C56.8744 46.9266 56.7903 45.7685 56.7903 44.6607C56.7903 42.7305 56.7903 40.8003 56.7903 38.8701L56.7399 35.3454C56.0173 36.3356 55.3619 37.3931 54.6729 38.4169C54.5553 38.6015 54.4376 38.7694 54.3032 38.9372C54.2528 39.0044 54.1519 39.1218 54.1183 39.189C54.0847 39.2561 54.1183 39.4743 54.1183 39.5582C54.1183 39.9611 54.1183 40.3639 54.1183 40.7667C54.1183 42.143 54.1351 43.5361 54.1351 44.9125C54.1351 45.8692 54.2023 46.9266 54.0679 47.8833C53.883 49.1925 53.2108 50.401 52.1353 51.173C51.5807 51.5591 50.9926 51.8612 50.3876 52.1633C49.6313 52.5494 48.8583 52.9018 48.1021 53.2711C46.8249 53.8753 45.5477 54.5299 44.2873 55.1845C42.3715 56.158 40.4557 57.1315 38.5231 58.0882C37.8173 58.4407 37.0947 58.7596 36.3889 59.1288C35.5822 59.5317 34.7924 59.9513 33.9857 60.3709C33.3976 60.673 32.8094 61.0255 32.2044 61.2605C31.2801 61.6129 30.171 61.8311 29.1795 61.6801C28.6081 61.5961 28.1039 61.4115 27.583 61.1765C26.0201 60.4884 24.5244 59.6324 23.012 58.8603C20.9786 57.8364 18.9283 56.863 16.8781 55.8559C14.8111 54.832 12.7272 53.825 10.6434 52.7843C9.88716 52.4151 9.09732 52.0794 8.3747 51.6598C7.7361 51.2905 7.14792 50.8038 6.71099 50.1995C6.27405 49.6121 5.95476 48.9743 5.80351 48.2526C5.60185 47.3294 5.68587 46.2552 5.68587 45.2985C5.68587 43.8047 5.68587 42.3277 5.68587 40.8339C5.68587 40.3975 5.68587 39.9611 5.66907 39.5247C5.66907 39.424 5.68587 39.2561 5.65226 39.1722C5.58504 38.954 5.33296 38.6855 5.21533 38.484C4.81201 37.863 4.39188 37.242 3.97175 36.6378C3.65245 36.2182 3.29954 35.7314 3.03066 35.2279Z" fill="white"/>
</svg>
