<svg width="312" height="68" viewBox="0 0 312 68" fill="none" xmlns="http://www.w3.org/2000/svg">
<path d="M79.1979 44.5404L79.2349 44.4664L69.3057 20.34L74.4555 21.4131L81.3468 38.6568L88.0898 20.34L93.6472 21.4131L84.6812 46.0575L79.1979 44.5404Z" fill="#01161E"/>
<path d="M98.4266 25.0395C97.1669 24.4474 96.2283 23.547 95.6108 22.3382C95.6602 21.9435 96.0307 21.4378 96.7223 20.821C97.4139 20.2043 97.9697 19.8466 98.3896 19.7479C99.6492 20.3153 100.575 21.1911 101.168 22.3752C100.748 23.436 99.8345 24.3241 98.4266 25.0395ZM100.65 28.3328V46.0576L96.0184 45.0215V27.2967L100.65 28.3328Z" fill="#01161E"/>
<path d="M118.915 28.5178L118.507 30.516C116.111 29.9733 114.531 29.7513 113.765 29.8499C112.555 29.998 111.604 30.59 110.912 31.6261C110.22 32.6376 109.973 33.612 110.171 34.5494C110.22 34.7714 110.789 34.7468 111.875 34.4754C112.962 34.204 114.148 33.9327 115.432 33.6613C116.716 33.3653 117.544 33.316 117.914 33.5133C119.619 34.4014 120.767 35.5732 121.36 37.0287C121.953 38.4841 122.015 39.878 121.545 41.2101C121.101 42.5176 120.174 43.6523 118.767 44.6144C117.359 45.5765 115.667 46.0576 113.691 46.0576C112.061 46.0576 110.542 45.6135 109.134 44.7254C107.751 43.8127 106.12 42.4559 104.243 40.655L104.91 39.3969C106.59 40.655 108.368 41.5061 110.245 41.9502C112.122 42.3695 113.864 42.1969 115.469 41.4321C117.099 40.6674 118.186 39.2612 118.73 37.2137C118.754 37.115 118.643 37.078 118.396 37.1027C118.124 37.1273 117.445 37.2877 116.358 37.5837C112.925 38.4965 110.739 38.7678 109.801 38.3978L109.467 38.2128C108.109 37.1767 107.01 36.0419 106.17 34.8084C105.552 33.9697 105.293 33.0816 105.392 32.1442C105.515 31.2067 105.836 30.3557 106.355 29.5909C106.874 28.8015 107.652 28.1601 108.689 27.6667C109.726 27.1487 110.863 26.8896 112.098 26.8896C112.468 26.8896 112.987 26.9637 113.654 27.1117C114.345 27.2597 115.309 27.5187 116.544 27.8887C117.803 28.2341 118.594 28.4438 118.915 28.5178Z" fill="#01161E"/>
<path d="M127.918 25.0395C126.658 24.4474 125.72 23.547 125.102 22.3382C125.151 21.9435 125.522 21.4378 126.214 20.821C126.905 20.2043 127.461 19.8466 127.881 19.7479C129.14 20.3153 130.067 21.1911 130.659 22.3752C130.24 23.436 129.326 24.3241 127.918 25.0395ZM130.141 28.3328V46.0576L125.51 45.0215V27.2967L130.141 28.3328Z" fill="#01161E"/>
<path d="M147.109 31.0341C145.479 29.9239 143.787 30.0966 142.034 31.5521C140.576 32.7856 139.601 34.4261 139.107 36.4736C138.563 38.8172 138.983 40.581 140.366 41.7651C140.539 41.9132 140.725 42.0488 140.922 42.1722C141.91 42.7149 142.923 42.8382 143.96 42.5422C145.022 42.2462 145.936 41.5925 146.702 40.581C147.492 39.5696 148.11 38.4965 148.554 37.3617C148.999 36.2022 149.11 35.0305 148.888 33.8463C148.666 32.6376 148.073 31.7001 147.109 31.0341ZM150.814 31.3301C151.531 31.9715 152.086 32.7486 152.482 33.6613C152.877 34.5494 153.099 35.4622 153.149 36.3996C153.223 37.337 153.136 38.2868 152.889 39.2489C152.667 40.211 152.321 41.1114 151.852 41.9502C151.383 42.7889 150.79 43.5413 150.073 44.2074C149.382 44.8488 148.616 45.3298 147.776 45.6505C146.937 45.9959 145.998 46.1316 144.961 46.0576C143.948 45.9836 142.911 45.6629 141.848 45.0955C140.465 44.3554 139.107 43.418 137.773 42.2832C136.711 41.3704 135.921 40.3467 135.402 39.2119C134.883 38.0524 134.636 36.93 134.661 35.8445C134.71 34.7591 134.92 33.6737 135.291 32.5882C135.686 31.5028 136.242 30.5653 136.958 29.7759C137.699 28.9865 138.502 28.3205 139.366 27.7777C140.231 27.2103 141.157 26.9143 142.145 26.8896C143.158 26.865 144.133 27.0747 145.072 27.5187C147.468 28.7768 149.382 30.0473 150.814 31.3301Z" fill="#01161E"/>
<path d="M162.003 28.3327V29.8499C164.201 27.8024 166.128 26.8279 167.783 26.9266C168.573 26.9759 169.956 27.9627 171.932 29.8869C173.933 31.7864 174.995 33.0816 175.119 33.7723C175.218 34.4137 175.267 38.5088 175.267 46.0575L170.673 45.0214C170.821 36.5599 170.759 32.0825 170.488 31.5891C170.043 30.7503 169.302 30.5036 168.265 30.849C167.252 31.1697 166.19 31.7618 165.078 32.6252C163.992 33.4886 162.966 34.5 162.003 35.6595V46.0575L157.187 45.0214V27.2966L162.003 28.3327Z" fill="#01161E"/>
<path d="M193.644 35.8075L190.68 32.4772H199.312L204.425 33.9943C204.474 39.4462 204.499 42.5298 204.499 43.2452C204.499 45.1941 204.697 46.5632 205.092 47.3526C205.512 48.1421 206.364 48.7218 207.648 49.0918C205.87 49.5605 204.178 49.2768 202.572 48.2407C200.992 47.2293 200.14 45.7738 200.016 43.8743L199.905 42.2091C199.016 42.9739 198.213 43.6029 197.497 44.0963C196.78 44.565 195.953 44.9844 195.014 45.3544C194.1 45.7245 193.15 45.8602 192.162 45.7615C191.198 45.6875 190.21 45.3668 189.198 44.7994C186.283 43.1466 184.171 41.7281 182.862 40.544C181.726 39.4832 180.824 38.3361 180.157 37.1026C179.491 35.8692 179.083 34.6604 178.935 33.4763C178.811 32.2921 178.836 31.0833 179.009 29.8499C179.207 28.6164 179.589 27.4693 180.157 26.4085C180.726 25.3478 181.38 24.3363 182.121 23.3742C182.862 22.4121 183.702 21.6104 184.64 20.969C185.604 20.3276 186.567 19.7972 187.53 19.3778C188.518 18.9338 189.531 18.7241 190.568 18.7488C191.606 18.7734 192.581 18.9708 193.495 19.3408C197.917 21.3637 200.794 22.7082 202.128 23.3742L200.535 25.3354C200.164 25.1628 198.423 24.4597 195.311 23.2262C194.224 22.7822 193.211 22.6588 192.273 22.8562C191.334 23.0535 190.408 23.4359 189.494 24.0033C188.605 24.546 187.839 25.2861 187.197 26.2235C186.555 27.161 185.987 28.1601 185.493 29.2208C184.999 30.2569 184.678 31.367 184.529 32.5512C184.406 33.7353 184.406 34.8577 184.529 35.9185C184.678 36.9793 185.048 37.9784 185.641 38.9158C186.234 39.8532 187.024 40.6056 188.012 41.173C188.852 41.6664 189.704 41.9131 190.568 41.9131C191.458 41.9131 192.285 41.7404 193.051 41.395C193.816 41.025 194.557 40.544 195.274 39.9519C196.015 39.3598 196.694 38.7431 197.311 38.1017C197.929 37.4603 198.509 36.8436 199.053 36.2515C199.226 36.0542 199.349 35.9062 199.423 35.8075H193.644Z" fill="#01161E"/>
<path d="M214.095 28.3327V31.071C215.898 28.234 217.429 26.8156 218.689 26.8156C219.306 26.8156 220.344 27.1363 221.801 27.7776C223.258 28.3944 224.481 29.0358 225.469 29.7018L222.913 33.4022C221.381 32.2674 220.047 31.6507 218.911 31.552C217.8 31.4287 216.911 31.6507 216.244 32.2181C215.577 32.7608 214.86 33.6489 214.095 34.8824V46.0575L209.464 45.0214V27.2966L214.095 28.3327Z" fill="#01161E"/>
<path d="M239.474 31.0341C237.844 29.9239 236.152 30.0966 234.398 31.5521C232.941 32.7856 231.965 34.4261 231.471 36.4736C230.928 38.8172 231.348 40.581 232.731 41.7651C232.904 41.9132 233.089 42.0488 233.286 42.1722C234.274 42.7149 235.287 42.8382 236.325 42.5422C237.387 42.2462 238.301 41.5925 239.066 40.581C239.857 39.5696 240.474 38.4965 240.919 37.3617C241.363 36.2022 241.474 35.0305 241.252 33.8463C241.03 32.6376 240.437 31.7001 239.474 31.0341ZM243.179 31.3301C243.895 31.9715 244.451 32.7486 244.846 33.6613C245.241 34.5494 245.463 35.4622 245.513 36.3996C245.587 37.337 245.5 38.2868 245.253 39.2489C245.031 40.211 244.685 41.1114 244.216 41.9502C243.747 42.7889 243.154 43.5413 242.438 44.2074C241.746 44.8488 240.98 45.3298 240.141 45.6505C239.301 45.9959 238.362 46.1316 237.325 46.0576C236.312 45.9836 235.275 45.6629 234.213 45.0955C232.83 44.3554 231.471 43.418 230.137 42.2832C229.075 41.3704 228.285 40.3467 227.766 39.2119C227.247 38.0524 227 36.93 227.025 35.8445C227.075 34.7591 227.284 33.6737 227.655 32.5882C228.05 31.5028 228.606 30.5653 229.322 29.7759C230.063 28.9865 230.866 28.3205 231.73 27.7777C232.595 27.2103 233.521 26.9143 234.509 26.8896C235.522 26.865 236.497 27.0747 237.436 27.5187C239.832 28.7768 241.746 30.0473 243.179 31.3301Z" fill="#01161E"/>
<path d="M252.145 28.3327L256.776 39.5449L261.036 27.2966L265.668 28.3327L270.299 39.5449L274.56 27.2966L279.191 28.3327L273.041 46.0575H273.003L268.372 45.0214L263.741 33.8833L259.517 46.0575H259.48L254.886 45.0214H254.849L247.513 27.2966L252.145 28.3327Z" fill="#01161E"/>
<path d="M284.34 28.3327L288.972 39.5449L293.232 27.2966L297.863 28.3327L302.495 39.5449L306.755 27.2966L311.387 28.3327L305.236 46.0575H305.199L300.568 45.0214L295.937 33.8833L291.713 46.0575H291.676L287.082 45.0214H287.045L279.709 27.2966L284.34 28.3327Z" fill="#01161E"/>
<path d="M30.2611 0.113221C30.7149 0.0964368 31.1182 0.264281 31.5383 0.448909C32.0761 0.68389 32.5803 0.969225 33.1012 1.23778C33.9919 1.69095 34.8994 2.12735 35.79 2.58053C36.479 2.933 37.1849 3.23512 37.8571 3.58759C39.588 4.46038 41.3189 5.36673 43.0667 6.22274C46.3941 7.85082 49.6879 9.52926 53.0153 11.1573C54.9815 12.1141 56.9981 13.0036 58.9139 14.061C59.4181 14.3464 59.7206 14.6821 59.8718 15.236C59.9895 15.6556 59.9727 16.1087 59.9727 16.5284C59.9727 17.0487 59.9558 17.569 59.9558 18.0893C59.9558 20.0866 59.9222 22.1008 59.9222 24.1149C59.939 30.5601 59.9222 37.0221 59.9222 43.4673C59.9222 45.3304 59.9222 47.1766 59.939 49.0397C59.9558 49.9796 60.0063 50.9363 59.9895 51.8763C59.9727 52.2791 59.8886 52.6484 59.687 53.0008C59.5189 53.2862 59.25 53.5044 58.9643 53.6554C58.3762 53.9743 57.7208 54.2261 57.1158 54.5282C55.5361 55.3003 53.9732 56.0892 52.4103 56.8612C51.6373 57.2305 50.8979 57.6501 50.1416 58.0361C47.3688 59.4292 44.5623 60.772 41.7895 62.1651C40.0417 63.0379 38.2604 63.8939 36.5127 64.7835C35.4539 65.3206 34.3952 65.8409 33.3365 66.378C32.4458 66.8144 31.5719 67.3515 30.5972 67.5865C30.2275 67.62 29.9082 67.5697 29.5721 67.4354C28.9335 67.1501 28.2949 66.8144 27.6731 66.4955C26.3792 65.8577 25.0852 65.2031 23.7912 64.5653C22.1947 63.7764 20.5814 63.0379 19.0017 62.249C16.9011 61.2084 14.8004 60.151 12.6998 59.1103C10.9856 58.2711 9.25471 57.4487 7.54058 56.5927C6.70032 56.1731 5.86007 55.7199 5.01981 55.3003C4.31399 54.9478 3.60818 54.6289 2.90236 54.2932C2.49904 54.0918 2.0621 53.9072 1.69239 53.6554C1.23865 53.3533 0.885741 52.9337 0.78491 52.3798C0.717689 51.9602 0.7513 51.507 0.768105 51.0706C0.78491 50.416 0.768105 49.7447 0.768105 49.0901C0.768105 46.3374 0.768105 43.568 0.768105 40.8154C0.768105 34.9744 0.768105 29.1334 0.78491 23.2925C0.78491 21.6644 0.78491 20.0363 0.768105 18.4082C0.768105 17.5354 0.717689 16.6458 0.7513 15.7731C0.768105 15.387 0.835325 15.0345 1.0706 14.7324C1.23865 14.5142 1.44031 14.3464 1.67558 14.2121C2.16293 13.9436 2.68389 13.7086 3.18805 13.4568C4.83495 12.6176 6.51547 11.8119 8.17918 10.9895C14.0274 8.05224 19.8588 5.09818 25.7406 2.26162C26.648 1.82523 27.5555 1.33848 28.463 0.902087C29.0512 0.532831 29.6057 0.197143 30.2611 0.113221ZM30.2443 2.88265C28.6478 3.53724 27.1018 4.44359 25.5389 5.19889C21.2536 7.28015 17.0187 9.39499 12.7838 11.5434C11.7251 12.0805 10.6495 12.6344 9.59081 13.1379C8.41445 13.6918 7.13726 14.2121 6.09534 14.9674C5.15425 15.6556 4.51565 16.6291 4.07872 17.7033C3.86025 18.2236 3.6922 18.7942 3.62498 19.3481C3.44012 20.6741 3.50734 22.0336 3.50734 23.3596C3.50734 23.9974 3.50734 24.6352 3.52415 25.273C3.52415 25.8269 3.49054 26.4144 3.6922 26.9179C3.82664 27.2368 4.04511 27.5221 4.24677 27.8075C4.53246 28.2103 4.81815 28.6131 5.10383 29.0327C6.38103 30.879 7.69183 32.6917 8.98582 34.5212C10.4143 36.5521 11.7923 38.5998 13.2207 40.6307C13.6072 41.1846 14.0442 41.7385 14.4307 42.2924C15.0357 43.1484 15.5566 44.0715 16.212 44.894C16.5313 45.28 16.8338 45.5821 17.3044 45.7668C17.9094 46.0185 18.5984 46.0017 19.2034 45.7332C19.6403 45.5486 19.9932 45.2464 20.2453 44.8436L20.2789 44.7933C20.5982 44.2729 20.7158 43.568 20.5814 42.9805C20.5142 42.6952 20.3797 42.4099 20.2285 42.1581C19.8756 41.5707 19.4218 41.0168 19.0185 40.4461C18.3799 39.5397 17.7413 38.6166 17.1195 37.7102C15.4894 35.3604 13.8593 33.0106 12.2124 30.6776C11.1033 29.0999 9.96052 27.5557 8.85138 25.9612C8.33042 25.2227 7.80946 24.4674 7.2885 23.7289C6.91879 23.1918 6.51547 22.6882 6.33061 22.0672C5.94409 20.8419 6.17936 19.3649 6.81796 18.2571C7.25489 17.5186 7.89349 16.9312 8.61611 16.4948C9.18749 16.1423 9.84289 15.8905 10.4479 15.5884C11.557 15.0513 12.6662 14.4974 13.7753 13.9436C15.5062 13.0708 17.2203 12.1812 18.9681 11.3084C20.4805 10.5531 22.0098 9.84817 23.5223 9.09287C24.665 8.5222 25.8078 7.95153 26.9505 7.39765C27.7236 7.02839 28.4462 6.60878 29.2864 6.40737C29.6225 6.32344 29.9923 6.28988 30.3452 6.28988C31.0342 6.30666 31.6224 6.40737 32.261 6.65913C33.5886 7.19623 34.8658 7.93475 36.1598 8.57255C38.1428 9.56283 40.1426 10.5363 42.1424 11.5266C43.6885 12.2987 45.2177 13.1043 46.7806 13.8428C47.8729 14.3632 48.9485 14.9003 50.0408 15.4206C50.7634 15.7731 51.5197 16.1087 52.2255 16.5116C52.612 16.7298 52.9145 16.9983 53.217 17.3172C54.1413 18.2907 54.6622 19.667 54.6286 20.993C54.6118 21.5972 54.4606 22.1679 54.1749 22.705C53.8052 23.3932 53.301 23.9974 52.8641 24.6352C52.0742 25.7765 51.3012 26.9179 50.5113 28.0424C48.1418 31.4161 45.7891 34.8233 43.4028 38.197C42.781 39.0866 42.1424 39.9594 41.5374 40.8657C41.1173 41.4867 40.5963 42.091 40.3778 42.8295L40.361 42.8966C40.193 43.4505 40.361 44.2058 40.6467 44.7093C40.9492 45.2297 41.4198 45.6325 41.9911 45.8003C42.6297 45.985 43.4028 45.8842 43.991 45.5486C44.2094 45.4143 44.3943 45.2632 44.5455 45.0618C44.8312 44.7093 45.0665 44.3065 45.3186 43.9205C45.7891 43.2155 46.2596 42.5106 46.747 41.8056C49.0829 38.4991 51.4188 35.2094 53.7379 31.8861C54.5446 30.7279 55.368 29.6034 56.1411 28.4453C56.5444 27.841 57.0149 27.2368 57.2166 26.5318C57.3006 26.1962 57.2838 25.8269 57.2838 25.4912C57.2838 25.0045 57.2838 24.5177 57.2838 24.031C57.2838 21.5469 57.5359 18.9117 56.1747 16.713C55.6537 15.8738 54.9815 15.1352 54.1413 14.5981C53.5027 14.1953 52.7969 13.8932 52.1246 13.5575C50.4609 12.7183 48.7636 11.9126 47.0999 11.0902C42.3609 8.7404 37.6722 6.34023 32.8996 4.04077C32.2946 3.73865 31.6896 3.43653 31.0678 3.13441C30.8829 3.05049 30.6309 2.88265 30.446 2.86586C30.3284 2.86586 30.2779 2.88265 30.2443 2.88265ZM32.3618 21.6308C31.9585 21.7147 31.5551 21.849 31.2358 22.1343C30.7821 22.5372 30.4628 23.0743 30.1099 23.561C29.5553 24.3331 29.0176 25.1052 28.4798 25.8773C27.2026 27.7068 25.9086 29.5027 24.6314 31.3154C24.2617 30.9629 23.9928 30.5433 23.6903 30.1237C23.1862 29.4188 22.682 28.7138 22.1947 27.9921C21.304 26.7165 20.3965 25.4744 19.5058 24.2156C19.0521 23.561 18.5984 22.7218 17.9766 22.2183L17.9094 22.1679C17.422 21.7651 16.8338 21.6308 16.212 21.6979C15.523 21.7819 14.9853 22.1008 14.5651 22.6379C14.1954 23.1078 14.0106 23.796 14.0946 24.3834C14.145 24.7359 14.2626 25.038 14.4475 25.3402C14.7332 25.7933 15.0693 26.2129 15.3718 26.6493C15.9095 27.4214 16.4137 28.1767 16.9515 28.9488C17.6405 29.9055 18.2959 30.8958 18.9681 31.8525C19.7747 32.9938 20.615 34.1184 21.4216 35.2765C23.1862 37.7942 24.9507 40.3118 26.7489 42.8127C27.1018 43.2994 27.4379 43.7862 27.774 44.2729C28.0597 44.6926 28.3454 45.1457 28.7655 45.4479C29.3873 45.901 30.1939 46.0185 30.9333 45.901C31.7568 45.7668 32.345 45.2129 32.8155 44.5583L37.1344 38.4823C38.9662 35.9647 40.7308 33.3799 42.5625 30.8622C43.6212 29.4188 44.6632 27.9753 45.6715 26.4983C45.9908 26.0283 46.3941 25.5751 46.6462 25.0716C46.8646 24.6184 46.915 24.1485 46.831 23.6449C46.7302 23.0407 46.3773 22.4868 45.8731 22.1343L45.5034 21.9161L45.4362 21.8826C44.8816 21.5972 44.159 21.5972 43.5708 21.7986C43.2683 21.8994 42.949 22.0672 42.7306 22.3022C42.4617 22.5707 42.2768 22.94 42.0584 23.2589C41.5374 23.9806 41.0332 24.7191 40.5123 25.4409C38.1596 28.6467 35.9245 31.9532 33.6054 35.1926C32.8491 36.25 32.0929 37.3242 31.3031 38.3816C30.967 38.818 30.6645 39.2712 30.2948 39.6908L27.4043 35.4779C27.942 34.7058 28.547 33.9673 29.1016 33.212C29.7402 32.3392 30.3284 31.4497 30.9502 30.5937C31.8072 29.402 32.6811 28.2271 33.5045 27.0186C33.7398 26.6829 33.9583 26.364 34.2104 26.0451C34.4456 25.743 34.7145 25.4073 34.8658 25.0548C35.0674 24.6016 35.0842 24.0478 35.0002 23.561C34.8994 22.9903 34.5633 22.4365 34.0759 22.1008C33.6222 21.7315 33.0004 21.5301 32.3618 21.6308ZM3.45693 34.8233C3.45693 37.3746 3.49054 39.909 3.47373 42.4602C3.47373 43.5009 3.45693 44.5415 3.45693 45.5989C3.45693 46.6395 3.45693 47.7137 3.70901 48.7376C4.0115 50.03 4.56607 51.121 5.50716 52.0777C5.92729 52.4973 6.34742 52.8666 6.85157 53.1855C7.6078 53.6386 8.41445 54.0247 9.20429 54.4107C11.0865 55.3674 13.0023 56.2738 14.8844 57.2137C17.1867 58.355 19.5058 59.4628 21.7913 60.6209C24.6482 62.0476 27.4883 63.4911 30.362 64.8506C32.0425 64.0953 33.7062 63.2057 35.3531 62.3833C37.5378 61.2755 39.7561 60.2349 41.9575 59.1439C42.9322 58.6572 43.8733 58.1201 44.8648 57.6333C46.8142 56.6598 48.7804 55.7031 50.7298 54.7296C51.9398 54.1254 53.2842 53.5883 54.3765 52.7658C55.4353 51.977 56.2083 50.8356 56.6788 49.6104C56.9309 48.9558 57.0822 48.3012 57.1662 47.613C57.3006 46.5221 57.2166 45.3639 57.2166 44.2562C57.2166 42.326 57.2166 40.3957 57.2166 38.4655L57.1662 34.9408C56.4436 35.9311 55.7882 36.9885 55.0992 38.0124C54.9815 38.197 54.8639 38.3648 54.7294 38.5327C54.679 38.5998 54.5782 38.7173 54.5446 38.7844C54.511 38.8516 54.5446 39.0698 54.5446 39.1537C54.5446 39.5565 54.5446 39.9594 54.5446 40.3622C54.5446 41.7385 54.5614 43.1316 54.5614 44.5079C54.5614 45.4646 54.6286 46.5221 54.4942 47.4788C54.3093 48.7879 53.6371 49.9964 52.5616 50.7685C52.007 51.1545 51.4188 51.4567 50.8138 51.7588C50.0576 52.1448 49.2846 52.4973 48.5283 52.8665C47.2512 53.4708 45.974 54.1254 44.7136 54.78C42.7978 55.7535 40.882 56.727 38.9494 57.6837C38.2436 58.0361 37.521 58.355 36.8152 58.7243C36.0085 59.1271 35.2187 59.5467 34.412 59.9663C33.8238 60.2685 33.2357 60.6209 32.6307 60.8559C31.7064 61.2084 30.5972 61.4266 29.6057 61.2755C29.0344 61.1916 28.5302 61.007 28.0093 60.772C26.4464 60.0838 24.9507 59.2278 23.4383 58.4557C21.4048 57.4319 19.3546 56.4584 17.3044 55.4513C15.2373 54.4275 13.1535 53.4204 11.0697 52.3798C10.3134 52.0105 9.52359 51.6749 8.80097 51.2552C8.16237 50.886 7.57419 50.3992 7.13726 49.795C6.70032 49.2076 6.38103 48.5697 6.22978 47.848C6.02812 46.9249 6.11214 45.8507 6.11214 44.894C6.11214 43.4002 6.11214 41.9231 6.11214 40.4293C6.11214 39.9929 6.11214 39.5565 6.09534 39.1201C6.09534 39.0194 6.11214 38.8516 6.07853 38.7677C6.01131 38.5495 5.75923 38.2809 5.6416 38.0795C5.23827 37.4585 4.81815 36.8375 4.39802 36.2332C4.07872 35.8136 3.72581 35.3269 3.45693 34.8233Z" fill="#01161E"/>
</svg>
