<svg width="78" height="79" viewBox="0 0 78 79" fill="none" xmlns="http://www.w3.org/2000/svg">
<g clip-path="url(#clip0_171_35297)">
<path d="M53.6405 69.4147L55.9675 70.9195C52.8215 75.71 42.558 78.856 30.5168 78.856C15.4628 78.856 4.104 74.0655 4.104 67.7735V11.8052C4.104 6.46547 13.4088 0.855972 30.7865 0.855972C48.1643 0.855972 57.4723 6.46547 57.4723 11.802V21.2465H54.7357V16.729C50.7707 20.0115 42.6945 22.6115 30.7898 22.6115C18.885 22.6115 10.8088 20.0115 6.8405 16.729V32.329C7.93575 36.164 17.2405 39.9925 30.377 39.9925C32.7495 39.9925 35.031 39.856 37.2215 39.583L37.631 42.3195C35.2585 42.5925 32.8405 42.729 30.377 42.729C19.8405 42.729 11.0818 40.402 6.8405 36.8465V51.4877C7.93575 55.183 17.2405 59.0147 30.377 59.0147C32.6585 59.0147 34.94 58.9237 37.2215 58.7417L37.631 61.3417C35.1675 61.6147 32.7495 61.7512 30.377 61.7512C19.8405 61.7512 11.0818 59.4242 6.8405 55.8687V67.7735C6.8405 71.7385 16.558 76.1195 30.5135 76.1195C42.831 76.1195 51.45 72.6972 53.6405 69.4147ZM6.8405 11.802C6.8405 15.637 16.6945 19.8782 30.7898 19.8782C44.885 19.8782 54.7357 15.6337 54.7357 11.802C54.7357 7.83697 44.8818 3.59247 30.7898 3.59247C16.6978 3.59247 6.8405 7.83372 6.8405 11.802ZM73.8945 36.71V66.2655C73.8945 67.0877 73.3453 67.6337 72.5263 67.6337H46.5263C45.704 67.6337 45.158 67.0877 45.158 66.2687V30.821C45.158 30.1385 45.704 29.4527 46.523 29.4527H61.577L59.2533 26.7162H42.4183V59.421H43.7898V62.1575H41.0533C40.231 62.1575 39.685 61.6115 39.685 60.7892V25.3512C39.685 24.6687 40.231 23.983 41.05 23.983H59.9357C60.3452 23.983 60.758 24.256 60.8945 24.529L65.1357 29.456H66.6405C67.0067 29.456 67.3263 29.5925 67.5993 29.8655L73.4818 35.748C73.7569 36.0231 73.8945 36.3438 73.8945 36.71ZM71.158 39.0337H64.3135C63.4945 39.0337 62.9485 38.4877 62.9485 37.6687V32.1892H47.8945V64.894H71.158V39.0337ZM63.2215 42.183C64.0405 42.183 64.7262 42.456 65.139 43.002C65.958 44.0972 65.8215 45.602 65.8215 46.1512C65.8215 49.0242 67.4627 49.5735 67.5993 49.71C68.1452 49.8465 68.558 50.3925 68.558 51.075C68.5538 51.357 68.458 51.6299 68.285 51.8527C68.1121 52.0755 67.8714 52.236 67.5993 52.31C67.4627 52.31 65.8215 52.9925 65.8215 55.8655C65.8215 57.51 64.9993 59.2877 63.2215 59.2877H62.2628V56.5512H62.9453C62.9453 56.4147 63.0818 56.1417 63.0818 55.8687C63.0818 53.402 63.904 51.8972 64.7263 50.9417C63.904 50.1195 63.0818 48.4782 63.0818 46.0147V44.9195H62.2628V42.183H63.2215ZM65.685 36.3005H70.0628L65.958 32.1925H65.6817L65.685 36.3005ZM56.7898 42.183H57.885V44.9195H57.0628V45.602C57.0628 48.0655 56.2405 49.5702 55.2818 50.529C56.2405 51.4877 57.0628 52.9925 57.0628 55.456C57.0628 55.547 57.0173 55.638 56.9263 55.729V56.6877H57.8818V59.4242H56.7898C56.1073 59.4242 55.4215 59.0147 54.8723 58.4655C54.0533 57.51 54.1898 55.8655 54.3263 55.3195C54.1898 52.4465 52.6818 51.8972 52.4088 51.8972C51.8628 51.7607 51.4533 51.0782 51.4533 50.5322C51.4533 49.9797 51.8628 49.4337 52.5452 49.2972C52.6818 49.1607 54.3263 48.6147 54.3263 45.602C54.1898 44.0972 55.0088 42.183 56.7898 42.183Z" fill="#01161E"/>
</g>
<defs>
<clipPath id="clip0_171_35297">
<rect width="78" height="78" fill="white" transform="translate(-0.000732422 0.855972)"/>
</clipPath>
</defs>
</svg>
