<svg width="95" height="86" viewBox="0 0 95 86" fill="none" xmlns="http://www.w3.org/2000/svg">
<path d="M77.3293 28.437C76.3289 28.0886 75.32 27.7657 74.3036 27.4688C74.4744 26.7604 74.6315 26.0607 74.7711 25.3732C77.0616 14.0843 75.5642 4.98963 70.4496 1.99525C65.5459 -0.875367 57.5261 2.1179 49.4267 9.27468C48.6284 9.98124 47.8479 10.7082 47.0859 11.4549C46.5757 10.9584 46.0565 10.4715 45.5286 9.99457C37.04 2.34233 28.5315 -0.882823 23.4225 2.12014C18.5231 4.9997 17.0723 13.5493 19.1345 24.2481C19.3396 25.3077 19.5713 26.3618 19.8292 27.4095C18.6248 27.757 17.4627 28.1268 16.3504 28.5205C6.39819 32.0435 0.0425415 37.5644 0.0425415 43.2911C0.0425415 49.2057 6.86562 55.1381 17.2313 58.7354C18.0717 59.0257 18.9191 59.2948 19.7726 59.5425C19.4955 60.6709 19.2494 61.8069 19.0346 62.9492C17.0687 73.4623 18.6039 81.8099 23.49 84.6712C28.5367 87.626 37.0069 84.5891 45.2543 77.2691C45.9231 76.6739 46.5771 76.062 47.2159 75.4338C48.0411 76.2422 48.8884 77.0272 49.7568 77.7877C57.7461 84.7673 65.6362 87.5858 70.5176 84.7166C75.5594 81.7532 77.1982 72.7857 75.0707 61.8755C74.9031 61.0208 74.7152 60.1703 74.5071 59.3248C75.1019 59.1458 75.6857 58.9617 76.2549 58.77C87.0311 55.1452 94.0425 49.2847 94.0425 43.2911C94.0425 37.5435 87.4816 31.9853 77.3293 28.437ZM74.9921 54.9003C74.4776 55.0728 73.9513 55.2399 73.4132 55.4017C72.2235 51.5778 70.6182 47.512 68.6534 43.3108C70.5282 39.21 72.0719 35.1959 73.2281 31.397C74.1898 31.6796 75.1228 31.9775 76.0224 32.2918C84.7211 35.3324 90.027 39.8273 90.027 43.2911C90.027 46.9804 84.2966 51.7698 74.9921 54.9003ZM71.1315 62.6674C72.0722 67.4915 72.2063 71.8533 71.5832 75.2634C71.0236 78.3275 69.8978 80.3701 68.5054 81.1884C65.5433 82.9294 59.2082 80.6665 52.3759 74.6971C51.5683 73.99 50.7801 73.2602 50.0124 72.5087C52.6612 69.5676 55.3083 66.1486 57.8918 62.3512C62.4361 61.9419 66.7293 61.2723 70.6226 60.3586C70.8148 61.1444 70.9844 61.914 71.1315 62.6674ZM32.0892 80.8876C29.195 81.9251 26.8898 81.9549 25.4963 81.1392C22.5313 79.403 21.2987 72.7003 22.98 63.7097C23.1799 62.6473 23.4087 61.5908 23.6663 60.5412C27.5166 61.4061 31.7786 62.028 36.3335 62.403C38.9347 66.1188 41.6581 69.5341 44.4028 72.5247C43.8195 73.0978 43.2224 73.6561 42.6121 74.1994C38.9648 77.4361 35.3102 79.7326 32.0892 80.8876ZM18.5304 54.8775C13.9468 53.2868 10.1615 51.2196 7.56695 48.9637C5.23531 46.9368 4.05847 44.924 4.05847 43.2911C4.05847 39.8158 9.16128 35.3831 17.6723 32.3704C18.7052 32.0051 19.7862 31.6602 20.908 31.3366C22.0844 35.2213 23.6274 39.283 25.4894 43.3902C23.6031 47.5582 22.0382 51.6848 20.8503 55.6153C20.0712 55.3887 19.2977 55.1427 18.5304 54.8775ZM23.0755 23.4648C21.3089 14.2986 22.4821 7.38417 25.4347 5.64876C28.5793 3.80038 35.533 6.43575 42.8625 13.0434C43.3404 13.4752 43.8106 13.9158 44.2728 14.365C41.5417 17.3426 38.8432 20.7325 36.2652 24.4263C31.8443 24.8424 27.6124 25.5104 23.7217 26.4055C23.482 25.4311 23.2665 24.4503 23.0755 23.4648ZM63.6229 33.6309C62.7039 32.0192 61.7508 30.4279 60.7643 28.8579C63.7635 29.243 66.6371 29.7541 69.3356 30.3789C68.5256 33.0154 67.5158 35.7716 66.3272 38.5974C65.4585 36.9238 64.5568 35.268 63.6229 33.6309ZM47.0877 17.2792C48.9398 19.3166 50.7948 21.5911 52.6194 24.0591C48.9181 23.8816 45.2107 23.8808 41.5094 24.0568C43.3358 21.6116 45.2066 19.3401 47.0877 17.2792ZM30.4464 33.6585C29.5241 35.2824 28.6393 36.9279 27.7927 38.5937C26.6236 35.7779 25.623 33.0091 24.806 30.3353C27.488 29.7261 30.348 29.2281 33.3281 28.85C32.3306 30.4296 31.3698 32.0331 30.4464 33.6585ZM33.4136 58.0218C30.3348 57.6729 27.4318 57.2005 24.7506 56.6077C25.5804 53.8863 26.603 51.0585 27.7975 48.1823C28.6475 49.8494 29.5359 51.4959 30.4622 53.1205C31.4147 54.7907 32.4009 56.4266 33.4136 58.0218ZM47.1986 69.59C45.2951 67.5053 43.3967 65.1987 41.5428 62.7181C43.3428 62.7896 45.1776 62.8262 47.0425 62.8262C48.9585 62.8262 50.8525 62.7826 52.7167 62.6983C50.8863 65.2237 49.0382 67.5336 47.1986 69.59ZM66.3651 48.0354C67.6216 50.9433 68.6805 53.7561 69.5214 56.431C66.7961 57.0626 63.8535 57.5711 60.753 57.9487C61.7465 56.3496 62.7086 54.7306 63.6387 53.0925C64.5844 51.4276 65.4934 49.7415 66.3651 48.0354ZM60.1603 51.0555C58.7363 53.5668 57.2324 56.0305 55.6509 58.4427C52.7859 58.6488 49.9147 58.7512 47.0425 58.7495C44.1172 58.7495 41.2718 58.6571 38.5319 58.4766C36.9089 56.0701 35.3763 53.6021 33.9373 51.0779C32.5048 48.5671 31.1673 46.002 29.9268 43.388C31.1642 40.7734 32.498 38.2071 33.9255 35.6944L33.9251 35.6948C35.3519 33.1813 36.8723 30.7239 38.483 28.3277C41.2784 28.113 44.1451 28.0011 47.0422 28.0011C49.9525 28.0011 52.8232 28.1141 55.6178 28.3303C57.2123 30.7229 58.723 33.1719 60.1471 35.6728C61.5792 38.18 62.9306 40.7339 64.1994 43.3302C62.9436 45.9531 61.5964 48.5298 60.1603 51.0555ZM68.4441 5.52685C71.5916 7.37001 72.8158 14.8027 70.8381 24.5497C70.7113 25.172 70.5706 25.8046 70.4159 26.4473C66.5156 25.5332 62.2808 24.8535 57.847 24.4311C55.2642 20.6967 52.5878 17.3016 49.9011 14.3624C50.6053 13.6733 51.3261 13.002 52.0631 12.3492C59.0029 6.21766 65.4889 3.79665 68.4441 5.52685ZM47.0425 34.7687C51.6783 34.7687 55.4364 38.5844 55.4364 43.2911C55.4364 47.9978 51.6783 51.8134 47.0425 51.8134C42.4068 51.8134 38.6486 47.9978 38.6486 43.2911C38.6486 38.5844 42.4068 34.7687 47.0425 34.7687Z" fill="#A3D5D2"/>
</svg>
