<svg width="84" height="85" viewBox="0 0 84 85" fill="none" xmlns="http://www.w3.org/2000/svg">
<path d="M2.69224 81.486L31.0107 52.8899M66.6714 40.1735L58.1945 65.8579C58.0587 66.2687 57.8268 66.6404 57.5185 66.9415C57.2102 67.2427 56.8346 67.4644 56.4235 67.5879L4.45881 83.189C3.99065 83.3294 3.49332 83.3375 3.02094 83.2123C2.54857 83.0871 2.11925 82.8335 1.7797 82.479C1.44016 82.1246 1.20339 81.6829 1.09518 81.202C0.986963 80.7211 1.01144 80.2194 1.16596 79.7516L18.0396 28.6434C18.1605 28.2764 18.3582 27.94 18.6193 27.657C18.8803 27.3741 19.1986 27.1511 19.5525 27.0033L43.5236 17.0369C44.0109 16.8336 44.5469 16.7807 45.064 16.8846C45.5811 16.9886 46.0562 17.2448 46.4293 17.621L66.0262 37.4145C66.3768 37.7686 66.6229 38.2142 66.7369 38.7015C66.8508 39.1888 66.8282 39.6985 66.6714 40.1735Z" stroke="#01161E" stroke-width="1.5" stroke-linecap="round" stroke-linejoin="round"/>
<path d="M69.915 3.21058L80.434 13.8327C81.2244 14.5964 81.8559 15.5118 82.2912 16.5253C82.7266 17.5387 82.9571 18.6298 82.9692 19.7344C82.9813 20.8391 82.7747 21.935 82.3617 22.9579C81.9486 23.9809 81.3374 24.9102 80.5638 25.6913C79.7903 26.4724 78.87 27.0897 77.857 27.5068C76.844 27.9239 75.7587 28.1324 74.6648 28.1202C73.5709 28.108 72.4904 27.8753 71.4868 27.4357C70.4832 26.996 69.5766 26.3584 68.8204 25.5602L58.2969 14.9381C56.8126 13.3714 55.9948 11.2803 56.0186 9.11229C56.0423 6.94432 56.9057 4.87191 58.4239 3.33883C59.9421 1.80575 61.9944 0.933872 64.1413 0.909901C66.2882 0.88593 68.3636 1.71177 69.915 3.21058Z" fill="#A3D5D2" stroke="#01161E" stroke-width="1.5" stroke-linecap="round" stroke-linejoin="round"/>
<path d="M40.4483 43.3548C39.8326 42.7111 39.0961 42.1976 38.2818 41.8444C37.4675 41.4912 36.5916 41.3052 35.7054 41.2974C34.8192 41.2897 33.9403 41.4602 33.12 41.7991C32.2997 42.138 31.5545 42.6384 30.9278 43.2713C30.3011 43.9041 29.8055 44.6566 29.4699 45.4849C29.1343 46.3133 28.9655 47.2008 28.9732 48.0957C28.9809 48.9906 29.165 49.875 29.5148 50.6973C29.8646 51.5196 30.3731 52.2633 31.0105 52.8851C32.2694 54.1128 33.9554 54.7922 35.7054 54.7768C37.4554 54.7614 39.1295 54.0526 40.367 52.803C41.6045 51.5533 42.3064 49.8629 42.3216 48.0957C42.3368 46.3285 41.6641 44.626 40.4483 43.3548Z" stroke="#01161E" stroke-width="1.5" stroke-linecap="round" stroke-linejoin="round"/>
</svg>
