<svg width="120" height="85" viewBox="0 0 120 85" fill="none" xmlns="http://www.w3.org/2000/svg">
<path d="M0.781619 57.3843C0.781619 60.8608 1.46636 64.3032 2.79676 67.5151C4.12716 70.7269 6.07715 73.6453 8.5354 76.1035C13.5001 81.0682 20.2336 83.8573 27.2547 83.8573H97.8495C103.061 83.8667 108.083 81.8991 111.901 78.3515C115.72 74.8039 118.051 69.9402 118.424 64.7415C118.797 59.5429 117.185 54.3961 113.912 50.3395C110.64 46.2828 105.951 43.6181 100.791 42.8829C100.848 32.8747 97.2591 23.1881 90.694 15.6339C84.1289 8.07963 75.0374 3.17479 65.1189 1.83623C55.2005 0.497671 45.134 2.81702 36.8013 8.36072C28.4685 13.9044 22.4398 22.293 19.8422 31.9584C14.3414 33.5628 9.50967 36.9086 6.0727 41.4934C2.63572 46.0781 0.779072 51.6543 0.781619 57.3843Z" stroke="#01161E" stroke-width="1.5" stroke-linejoin="round"/>
<path d="M59.6106 36.7941V60.3257M47.8448 48.5599H71.3764" stroke="#A3D5D2" stroke-width="4" stroke-linecap="round" stroke-linejoin="round"/>
</svg>
