<svg width="78" height="77" viewBox="0 0 78 77" fill="none" xmlns="http://www.w3.org/2000/svg">
<path d="M1.44141 38.8223C1.44141 21.303 1.44141 12.5395 6.9407 7.09747C12.44 1.65546 21.2919 1.65546 38.9995 1.65546C56.7032 1.65546 65.559 1.65546 71.0583 7.09747C76.5576 12.5395 76.5576 21.2991 76.5576 38.8223C76.5576 56.3416 76.5576 65.1052 71.0583 70.5472C65.559 75.9892 56.7072 75.9892 38.9995 75.9892C21.2958 75.9892 12.44 75.9892 6.9407 70.5472C1.44141 65.1052 1.44141 56.3455 1.44141 38.8223ZM1.44141 27.0854H76.5576H1.44141ZM42.953 42.7346H58.7669H42.953ZM42.953 58.3838H50.86H42.953ZM19.2321 15.3485H19.2677H19.2321ZM35.046 15.3485H35.0816H35.046ZM27.1391 27.0854V75.9892V27.0854Z" fill="#A3D5D2"/>
<path d="M1.44141 27.0854H76.5576M42.953 42.7346H58.7669M42.953 58.3838H50.86M19.2321 15.3485H19.2677M35.046 15.3485H35.0816M27.1391 27.0854V75.9892M1.44141 38.8223C1.44141 21.303 1.44141 12.5395 6.9407 7.09747C12.44 1.65546 21.2919 1.65546 38.9995 1.65546C56.7032 1.65546 65.559 1.65546 71.0583 7.09747C76.5576 12.5395 76.5576 21.2991 76.5576 38.8223C76.5576 56.3416 76.5576 65.1052 71.0583 70.5472C65.559 75.9892 56.7072 75.9892 38.9995 75.9892C21.2958 75.9892 12.44 75.9892 6.9407 70.5472C1.44141 65.1052 1.44141 56.3455 1.44141 38.8223Z" stroke="#01161E" stroke-width="2" stroke-linecap="round" stroke-linejoin="round"/>
</svg>
