<svg width="121" height="85" viewBox="0 0 121 85" fill="none" xmlns="http://www.w3.org/2000/svg">
<path d="M1.68744 57.6041C1.68744 61.0806 2.37219 64.523 3.70258 67.7349C5.03298 70.9467 6.98297 73.8651 9.44122 76.3234C14.4059 81.288 21.1394 84.0771 28.1605 84.0771H98.7553C103.967 84.0865 108.989 82.119 112.807 78.5713C116.626 75.0237 118.956 70.16 119.33 64.9613C119.703 59.7627 118.091 54.6159 114.818 50.5593C111.546 46.5026 106.857 43.8379 101.697 43.1027C101.754 33.0945 98.1649 23.408 91.5998 15.8537C85.0347 8.29944 75.9432 3.3946 66.0247 2.05604C56.1063 0.717485 46.0398 3.03684 37.7071 8.58053C29.3743 14.1242 23.3457 22.5128 20.748 32.1782C15.2472 33.7826 10.4155 37.1284 6.97852 41.7132C3.54154 46.298 1.6849 51.8741 1.68744 57.6041Z" stroke="#01161E" stroke-width="1.5" stroke-linejoin="round"/>
<path d="M78.1651 37.0139L54.6335 60.5455L42.8677 48.7797" stroke="#A3D5D2" stroke-width="1.5" stroke-linecap="round" stroke-linejoin="round"/>
</svg>
