<svg width="185" height="83" viewBox="0 0 185 83" fill="none" xmlns="http://www.w3.org/2000/svg">
<path d="M184.532 41.3918C184.532 49.5602 182.11 57.5452 177.572 64.337C173.034 71.1288 166.584 76.4223 159.037 79.5482C151.491 82.6742 143.187 83.492 135.175 81.8984C127.164 80.3048 119.805 76.3713 114.029 70.5953L113.894 70.4524L66.193 16.6122C61.298 11.7446 55.071 8.4358 48.2976 7.10332C41.5241 5.77083 34.5078 6.47433 28.1337 9.12504C21.7597 11.7758 16.3135 16.2549 12.4823 21.9975C8.65111 27.74 6.60653 34.4886 6.60653 41.3918C6.60653 48.2951 8.65111 55.0437 12.4823 60.7862C16.3135 66.5287 21.7597 71.0079 28.1337 73.6586C34.5078 76.3093 41.5241 77.0128 48.2976 75.6804C55.071 74.3479 61.298 71.0391 66.193 66.1715L73.0233 58.4517C73.5815 57.8198 74.3679 57.4355 75.2094 57.3833C76.051 57.3312 76.8788 57.6155 77.5107 58.1737C78.1426 58.7319 78.5269 59.5183 78.579 60.3598C78.6312 61.2014 78.3469 62.0291 77.7887 62.6611L70.8948 70.4524L70.7598 70.5953C64.9839 76.3711 57.6251 80.3044 49.6138 81.8978C41.6025 83.4913 33.2986 82.6734 25.7522 79.5475C18.2057 76.4216 11.7557 71.1281 7.21771 64.3365C2.67971 57.5449 0.257568 49.5601 0.257568 41.3918C0.257568 33.2236 2.67971 25.2388 7.21771 18.4472C11.7557 11.6556 18.2057 6.36209 25.7522 3.2362C33.2986 0.110313 41.6025 -0.707613 49.6138 0.885855C57.6251 2.47932 64.9839 6.41262 70.7598 12.1884L70.8948 12.3313L118.548 66.1715C123.443 71.0391 129.67 74.3479 136.444 75.6804C143.217 77.0128 150.233 76.3093 156.607 73.6586C162.981 71.0079 168.428 66.5287 172.259 60.7862C176.09 55.0437 178.135 48.2951 178.135 41.3918C178.135 34.4886 176.09 27.74 172.259 21.9975C168.428 16.2549 162.981 11.7758 156.607 9.12504C150.233 6.47433 143.217 5.77083 136.444 7.10332C129.67 8.4358 123.443 11.7446 118.548 16.6122L111.718 24.332C111.441 24.6449 111.106 24.9003 110.731 25.0836C110.356 25.2669 109.948 25.3745 109.532 25.4003C109.115 25.4261 108.697 25.3696 108.302 25.234C107.908 25.0984 107.543 24.8864 107.23 24.61C106.918 24.3336 106.662 23.9983 106.479 23.6232C106.296 23.2481 106.188 22.8405 106.162 22.4239C106.136 22.0072 106.193 21.5895 106.328 21.1946C106.464 20.7998 106.676 20.4355 106.952 20.1226L113.846 12.3313L113.981 12.1884C119.755 6.39599 127.118 2.4481 135.137 0.845063C143.157 -0.757971 151.472 0.0560336 159.028 3.1839C166.584 6.31177 173.042 11.6127 177.582 18.4147C182.123 25.2168 184.542 33.2137 184.532 41.3918Z" fill="#A3D5D2"/>
</svg>
