<svg width="84" height="84" viewBox="0 0 84 84" fill="none" xmlns="http://www.w3.org/2000/svg">
<g clip-path="url(#clip0_171_35274)">
<path d="M43.4683 70.0076C43.4683 77.4423 37.3978 83.449 29.8589 83.449C22.32 83.449 16.2495 77.4423 16.2495 70.0076C16.2495 62.573 22.32 56.5662 29.8589 56.5662H43.4683V70.0076Z" stroke="#01161E"/>
<path d="M16.2495 42.1248C16.2495 34.6902 22.32 28.6834 29.8589 28.6834H43.4683V55.5662H29.8589C22.32 55.5662 16.2495 49.5595 16.2495 42.1248Z" stroke="#01161E"/>
<path d="M16.2495 14.242C16.2495 6.80737 22.32 0.800598 29.8589 0.800598H43.4683V27.6834H29.8589C22.32 27.6834 16.2495 21.6766 16.2495 14.242Z" fill="#A3D5D2" stroke="#01161E"/>
<path d="M44.4683 0.800598H58.0776C65.6165 0.800598 71.687 6.80737 71.687 14.242C71.687 21.6766 65.6165 27.6834 58.0776 27.6834H44.4683V0.800598Z" stroke="#01161E"/>
<path d="M71.687 42.1248C71.687 49.5595 65.6165 55.5662 58.0776 55.5662C50.5387 55.5662 44.4683 49.5595 44.4683 42.1248C44.4683 34.6902 50.5387 28.6834 58.0776 28.6834C65.6165 28.6834 71.687 34.6902 71.687 42.1248Z" fill="#A3D5D2" stroke="#01161E"/>
</g>
<defs>
<clipPath id="clip0_171_35274">
<rect width="84" height="83" fill="white" transform="translate(-0.000488281 0.300598)"/>
</clipPath>
</defs>
</svg>
