<svg width="79" height="74" viewBox="0 0 79 74" fill="none" xmlns="http://www.w3.org/2000/svg">
<path d="M14.8248 42.1646V73.6646H7.82477V42.1646H14.8248ZM77.8248 42.1646V49.1646H70.8248V73.6646H63.8248V49.1646H56.8248V42.1646H77.8248ZM39.3248 35.1646C44.2287 35.1912 49.0282 36.5838 53.1848 39.1861L58.2493 34.1111C52.6931 30.2495 46.091 28.175 39.3248 28.1646C32.6492 28.177 26.1367 30.2286 20.6593 34.0446L25.7308 39.1301C29.8027 36.5643 34.512 35.1905 39.3248 35.1646Z" fill="black"/>
<path d="M39.3248 21.1646C47.9427 21.1839 56.3269 23.9688 63.2438 29.1096L68.2383 24.1046C59.971 17.6737 49.7988 14.1766 39.3248 14.1646C28.9414 14.1769 18.8589 17.6527 10.6738 24.0416L15.6648 29.0466C22.4997 23.9454 30.7961 21.1816 39.3248 21.1646Z" fill="#01161E"/>
<path d="M39.3248 7.16449C51.6556 7.16611 63.6165 11.3766 73.2293 19.0995L78.2238 14.098C67.3101 5.10077 53.6092 0.175422 39.465 0.164569C25.3207 0.153715 11.6123 5.05803 0.684784 14.0385L5.67928 19.04C15.2114 11.3592 27.0833 7.16894 39.3248 7.16449ZM39.3248 42.1645C36.2097 42.1645 33.1646 43.0882 30.5746 44.8188C27.9845 46.5495 25.9658 49.0093 24.7737 51.8872C23.5816 54.7652 23.2697 57.932 23.8774 60.9872C24.4851 64.0424 25.9852 66.8487 28.1879 69.0514C30.3905 71.2541 33.1969 72.7541 36.2521 73.3619C39.3073 73.9696 42.4741 73.6577 45.352 72.4656C48.23 71.2735 50.6898 69.2548 52.4204 66.6647C54.1511 64.0747 55.0748 61.0295 55.0748 57.9145C55.0748 53.7373 53.4154 49.7313 50.4617 46.7776C47.508 43.8239 43.5019 42.1645 39.3248 42.1645ZM39.3248 66.6645C37.5942 66.6645 35.9025 66.1513 34.4635 65.1898C33.0246 64.2284 31.9031 62.8618 31.2408 61.263C30.5786 59.6641 30.4053 57.9048 30.7429 56.2074C31.0805 54.5101 31.9139 52.951 33.1376 51.7273C34.3613 50.5036 35.9204 49.6702 37.6177 49.3326C39.3151 48.995 41.0744 49.1683 42.6733 49.8305C44.2721 50.4928 45.6387 51.6143 46.6001 53.0532C47.5616 54.4922 48.0748 56.1839 48.0748 57.9145C48.0748 60.2351 47.1529 62.4607 45.512 64.1017C43.871 65.7426 41.6454 66.6645 39.3248 66.6645Z" fill="#A3D5D2"/>
</svg>
