<svg width="86" height="86" viewBox="0 0 86 86" fill="none" xmlns="http://www.w3.org/2000/svg">
<path d="M46.0515 26.9602H26.7846M26.7846 26.9602V10.9045C26.7846 5.76665 31.2802 1.27106 36.4181 1.27106H55.6849C60.8227 1.27106 65.3183 5.76665 65.3183 10.9045V26.9602M26.7846 26.9602H10.729C5.59114 26.9602 1.09555 31.4557 1.09555 36.5936V49.4381C1.09555 54.5759 5.59114 59.0715 10.6005 59.0715" stroke="#A3D5D2" stroke-width="1.5" stroke-linecap="round" stroke-linejoin="round"/>
<path d="M58.896 59.0716H39.6292M58.896 59.0716V75.1273C58.896 80.2651 54.4004 84.7607 49.2626 84.7607H29.9958C24.858 84.7607 20.3624 80.2651 20.3624 75.1273V59.0716M58.896 59.0716H74.9517C80.0895 59.0716 84.5851 54.576 84.5851 49.4382V36.5936C84.5851 31.4558 80.0895 26.9602 75.0801 26.9602H65.3183C65.3183 36.5936 65.3183 39.8048 58.896 39.8048H46.0515" stroke="#01161E" stroke-width="1.5" stroke-linecap="round" stroke-linejoin="round"/>
<path d="M10.6005 59.0715H20.3624C20.3624 49.4381 20.3624 46.227 26.7846 46.227H39.6292" stroke="#A3D5D2" stroke-width="1.5" stroke-linecap="round" stroke-linejoin="round"/>
</svg>
