<svg width="44" height="44" viewBox="0 0 44 44" fill="none" xmlns="http://www.w3.org/2000/svg">
<path fill-rule="evenodd" clip-rule="evenodd" d="M21.9619 43.6396C34.0306 43.6396 43.8143 34.0137 43.8143 22.1396C43.8143 10.2656 34.0306 0.639648 21.9619 0.639648C9.89319 0.639648 0.109619 10.2656 0.109619 22.1396C0.109619 34.0137 9.89319 43.6396 21.9619 43.6396ZM12.0303 12.2078C10.5432 13.6934 10.5432 16.0864 10.5432 20.8708V23.4084C10.5432 28.1929 10.5444 30.5845 12.0303 32.0715C13.516 33.5586 15.9088 33.5586 20.6934 33.5586H23.231C28.0155 33.5586 30.4071 33.5574 31.894 32.0715C33.3811 30.5859 33.3811 28.1929 33.3811 23.4084V20.8708C33.3811 16.0864 33.3799 13.6948 31.894 12.2078C30.4083 10.7207 28.0155 10.7207 23.231 10.7207H20.6934C15.9088 10.7207 13.5172 10.7219 12.0303 12.2078ZM29.0173 17.7759C29.3743 17.4189 29.5748 16.9348 29.5748 16.4302C29.5748 15.9255 29.3743 15.4414 29.0173 15.0845C28.6604 14.7275 28.1764 14.5271 27.6716 14.5271C27.1669 14.5271 26.6829 14.7275 26.3259 15.0845C25.969 15.4414 25.7684 15.9255 25.7684 16.4302C25.7684 16.9348 25.969 17.4189 26.3259 17.7759C26.6829 18.1328 27.1669 18.3333 27.6716 18.3333C28.1764 18.3333 28.6604 18.1328 29.0173 17.7759ZM23.7565 25.2026C24.2323 24.7268 24.4998 24.0813 24.4998 23.4084C24.4998 22.7354 24.2323 22.0901 23.7565 21.614C23.2806 21.1382 22.6351 20.8708 21.9622 20.8708C21.2892 20.8708 20.6437 21.1382 20.1678 21.614C19.692 22.0901 19.4246 22.7354 19.4246 23.4084C19.4246 24.0813 19.692 24.7268 20.1678 25.2026C20.6437 25.6787 21.2892 25.946 21.9622 25.946C22.6351 25.946 23.2806 25.6787 23.7565 25.2026ZM25.5508 26.9971C26.5026 26.0452 27.0372 24.7544 27.0372 23.4084C27.0372 22.0625 26.5026 20.7715 25.5508 19.8198C24.599 18.8679 23.3081 18.3333 21.9622 18.3333C20.6162 18.3333 19.3253 18.8679 18.3735 19.8198C17.4218 20.7715 16.8871 22.0625 16.8871 23.4084C16.8871 24.7544 17.4218 26.0452 18.3735 26.9971C19.3253 27.9487 20.6162 28.4834 21.9622 28.4834C23.3081 28.4834 24.599 27.9487 25.5508 26.9971Z" fill="#E4F4F1"/>
</svg>
