<svg width="45" height="44" viewBox="0 0 45 44" fill="none" xmlns="http://www.w3.org/2000/svg">
<g clip-path="url(#clip0_241_415)">
<path d="M22.4703 0.920898C10.8059 0.920898 1.35034 10.1616 1.35034 21.5609C1.35034 32.9602 10.8059 42.2009 22.4703 42.2009C34.1347 42.2009 43.5903 32.9602 43.5903 21.5609C43.5903 10.1616 34.1347 0.920898 22.4703 0.920898ZM17.3003 30.1158H13.0235V16.6653H17.3003V30.1158ZM15.1355 15.0141C13.7847 15.0141 12.9113 14.0789 12.9113 12.9222C12.9113 11.7418 13.8111 10.8345 15.1905 10.8345C16.5699 10.8345 17.4147 11.7418 17.4411 12.9222C17.4411 14.0789 16.5699 15.0141 15.1355 15.0141ZM32.9203 30.1158H28.6435V22.6617C28.6435 20.9267 28.0231 19.7484 26.4765 19.7484C25.2951 19.7484 24.5933 20.5461 24.2831 21.3137C24.1687 21.5867 24.1401 21.9737 24.1401 22.3586V30.1136H19.8611V20.9546C19.8611 19.2755 19.8061 17.8715 19.7489 16.6632H23.4647L23.6605 18.5315H23.7463C24.3095 17.6543 25.6889 16.36 27.9967 16.36C30.8105 16.36 32.9203 18.2026 32.9203 22.1629V30.1158Z" fill="#E4F4F1"/>
</g>
<defs>
<clipPath id="clip0_241_415">
<rect width="44" height="43" fill="white" transform="translate(0.470459 0.0605469)"/>
</clipPath>
</defs>
</svg>
