<svg width="46" height="44" viewBox="0 0 46 44" fill="none" xmlns="http://www.w3.org/2000/svg">
<path fill-rule="evenodd" clip-rule="evenodd" d="M22.7587 43.838C35.0712 43.838 45.0525 34.1677 45.0525 22.2388C45.0525 10.3099 35.0712 0.639648 22.7587 0.639648C10.4461 0.639648 0.464844 10.3099 0.464844 22.2388C0.464844 34.1677 10.4461 43.838 22.7587 43.838ZM13.1097 11.5178H10.9655L19.7601 23.244L11.5015 32.96H15.2539L21.519 25.5892L27.0471 32.96H29.7273H31.8715H32.4076H34.5518L25.5059 20.8988L33.4797 11.5178H29.7273L23.747 18.5535L18.4702 11.5178H15.7899H13.6457H13.1097ZM15.2539 13.662L21.184 21.5688L22.3231 20.2287L17.3981 13.662H15.2539ZM24.082 22.5739L22.9429 23.9141L28.1192 30.8157H30.2634L24.082 22.5739Z" fill="#E4F4F1"/>
</svg>
