<svg width="317" height="329" viewBox="0 0 317 329" fill="none" xmlns="http://www.w3.org/2000/svg">
<g clip-path="url(#clip0_262_7615)">
<path d="M244.833 149.184L244.363 149.517C242.896 150.555 242.549 152.585 243.587 154.052L288.647 217.716C289.685 219.183 291.715 219.53 293.182 218.492L293.652 218.159C295.118 217.121 295.465 215.091 294.428 213.625L249.367 149.96C248.329 148.494 246.299 148.147 244.833 149.184Z" fill="#87FFF4"/>
<path d="M290.056 62.7592L222.701 214.965H27.2783L96.8785 57.6934H284.938L290.017 62.7723C290.017 62.7723 290.03 62.7658 290.056 62.7592Z" fill="#87FFF4"/>
<path d="M284.938 57.6934L220.358 203.629L215.338 214.965H19.915L28.1945 196.259L88.4746 60.043L89.5153 57.6934H284.938Z" fill="#00B4A4"/>
<path d="M224.402 216.3H212.359V308.638H224.402V216.3Z" fill="#00B4A4"/>
<path d="M224.402 216.3H218.381V308.638H224.402V216.3Z" fill="#87FFF4"/>
<path d="M313.049 216.3H301V308.638H313.049V216.3Z" fill="#00B4A4"/>
<path d="M313.049 216.3H307.021V308.638H313.049V216.3Z" fill="#87FFF4"/>
<path d="M52.706 216.3H40.6631V308.638H52.706V216.3Z" fill="#00B4A4"/>
<path d="M52.706 216.3H46.6846V308.638H52.706V216.3Z" fill="#87FFF4"/>
<path d="M138.557 216.3H126.508V308.638H138.557V216.3Z" fill="#00B4A4"/>
<path d="M138.558 216.3H132.536V308.638H138.558V216.3Z" fill="#87FFF4"/>
<path opacity="0.49" d="M220.358 203.629L215.338 214.965H19.915L28.1945 196.259L88.4746 60.043L77.3284 190.1L220.358 203.629Z" fill="#008F82"/>
<path d="M316.393 214.297H19.915V222.995H316.393V214.297Z" fill="#27D6C7"/>
<path d="M316.394 214.297H216.005V222.995H316.394V214.297Z" fill="#87FFF4"/>
<path d="M70.8294 10.7522L36.2977 60.8023L29.9097 58.9762L33.8236 53.5569L67.4914 6.94296C67.4914 6.94296 68.1001 6.49135 69.3175 7.24403C70.5283 8.00326 70.836 10.7456 70.836 10.7456L70.8294 10.7522Z" fill="#7D3014"/>
<path opacity="0.36" d="M70.8294 10.7523L36.2977 60.8024L29.9097 58.9763L33.8236 53.557L37.0045 54.0544L69.3175 7.24414C70.5283 8.00337 70.836 10.7457 70.836 10.7457L70.8294 10.7523Z" fill="#420D0B"/>
<path d="M116.776 44.8257C116.776 44.8257 126.358 53.3474 126.966 54.4077C127.575 55.4745 126.508 57.7522 126.508 57.7522H117.535C117.535 57.7522 117.234 62.3141 114.642 63.0799C112.057 63.8391 108.712 62.3206 108.254 60.344C107.796 58.3674 112.207 48.0197 113.123 46.9594C114.033 45.8925 116.776 44.8322 116.776 44.8322V44.8257Z" fill="#FFB337"/>
<path d="M117.083 46.5013C117.083 46.5013 115.886 60.6518 111.841 61.2605C107.803 61.8692 107.652 58.6752 108.411 54.7219C109.17 50.7687 109.93 46.6584 110.388 45.5916C110.846 44.5247 113.889 44.0731 115.866 44.5247C117.843 44.9829 117.083 46.5013 117.083 46.5013Z" fill="#FF7129"/>
<path d="M114.204 49.0738C114.204 49.0738 114.204 49.0804 114.197 49.0804L113.66 49.604C112.489 50.7363 110.604 50.7036 109.465 49.532L73.2052 11.983L71.0716 9.76418C69.9393 8.59262 69.972 6.70764 71.1436 5.5688L71.6868 5.04519C72.8584 3.9129 74.7433 3.94562 75.8756 5.11719L114.282 44.885C115.414 46.0566 115.382 47.9415 114.21 49.0738H114.204Z" fill="#7D3014"/>
<path d="M73.4212 12.4213C73.4212 12.4213 79.2005 6.33439 79.3511 5.57516C79.5016 4.81593 77.2239 0.404556 71.5951 0.705629C65.9664 1.0067 64.749 4.81593 65.0566 5.87623C65.3577 6.94308 71.5951 14.0903 73.4212 12.4148V12.4213Z" fill="#FFB337"/>
<path d="M47.6926 76.5629C46.076 78.4544 43.4449 79.2006 40.4407 78.8864C37.1289 78.5461 33.3589 76.9163 29.9686 74.1347C29.8246 74.03 29.6937 73.9121 29.5563 73.8009C23.0046 68.2179 20.511 60.3835 23.9864 56.3256C24.9354 55.2129 26.2314 54.4995 27.7498 54.1657C31.7816 53.269 37.3645 55.0362 42.1162 59.0941C42.3715 59.3101 42.6137 59.5326 42.8558 59.7552C48.8446 65.2857 51.0241 72.662 47.6861 76.5694L47.6926 76.5629Z" fill="#FFD69D"/>
<path d="M77.2176 59.8338L42.6269 100.348L35.7939 108.346C35.7939 108.346 29.3732 104.589 29.2685 97.1145C29.1637 89.7578 38.3923 82.6303 29.9688 74.1413C29.8444 74.0104 29.7201 73.8861 29.5892 73.7617L34.7467 67.7271L42.0837 59.1335C42.339 59.3495 42.5942 59.5589 42.856 59.7487C49.2833 64.4873 56.8559 61.1232 61.2018 56.2275C65.7245 51.1354 77.2111 59.8404 77.2111 59.8404L77.2176 59.8338Z" fill="#FFB337"/>
<path opacity="0.36" d="M114.203 49.0737C114.203 49.0737 114.203 49.0802 114.197 49.0802L113.66 49.6038C112.489 50.7361 110.604 50.7034 109.465 49.5318L73.2051 11.9828L74.0821 7.79395L114.21 49.0737H114.203Z" fill="#420D0B"/>
<path opacity="0.36" d="M42.6267 100.348L35.7937 108.346C35.7937 108.346 29.373 104.589 29.2683 97.1145C29.1636 89.7579 38.3921 82.6303 29.9686 74.1414C29.8246 74.0366 29.6937 73.9188 29.5563 73.8076C23.0046 68.2246 20.511 60.3902 23.9864 56.3322C24.9354 55.2196 26.2314 54.5062 27.7498 54.1724C23.8882 59.6113 30.093 63.4664 34.7465 67.7337C35.1261 68.0741 35.4861 68.4275 35.8395 68.7809C39.1317 72.1058 40.4407 74.8875 40.4407 78.8996C40.4407 81.282 39.9825 84.1095 39.2233 87.742C37.5543 95.6746 41.213 99.294 42.6267 100.361V100.348Z" fill="#730303"/>
<path d="M77.2172 59.8402C78.8338 61.2212 70.8816 73.2052 59.4473 86.603C48.0066 100.001 37.4166 109.733 35.8 108.352C34.4321 107.181 39.8514 98.5216 48.4189 87.8204C50.029 85.798 51.7569 83.7101 53.5699 81.5895C55.3828 79.4689 57.1696 77.4334 58.9172 75.5287C68.1392 65.3904 75.8493 58.6752 77.2172 59.8468V59.8402Z" fill="#FF7129"/>
<path d="M58.9175 75.5222C61.3327 78.834 61.457 83.2192 58.9437 86.1644C56.4239 89.1163 52.0714 89.6791 48.4258 87.8073C50.0359 85.7848 51.7638 83.697 53.5767 81.5764C55.3897 79.4558 57.1765 77.4202 58.9241 75.5156L58.9175 75.5222Z" fill="#FFD69D"/>
<path opacity="0.32" d="M71.8306 59.8666C67.3865 56.6595 65.7044 57.1701 63.4464 58.9896C61.1883 60.8157 53.6026 65.2598 47.4764 63.0737C41.3502 60.8877 39.0922 57.8966 36.0291 56.365C32.966 54.8335 32.1675 57.0915 32.966 58.1126C33.7711 59.1336 42.6658 66.9353 47.9869 67.6618C53.3081 68.3883 61.5483 63.0672 63.6624 62.1181C65.7764 61.1691 66.2149 61.7516 68.9835 62.2621C71.7521 62.7726 73.1396 60.8026 71.8241 59.8535L71.8306 59.8666Z" fill="#FFF4E6"/>
<path d="M203.23 177.488H94.1431L136.522 77.1255H247.677L203.23 177.488Z" fill="#FFF4F0"/>
<path d="M203.23 175.917H94.1431L136.522 75.5547H247.677L203.23 175.917Z" fill="#FFF6F2"/>
<path d="M202.555 174.569H93.4688L135.848 74.2065H247.003L202.555 174.569Z" fill="white"/>
<path d="M156.412 107.613H128.007L137.072 86.1973H165.589L156.412 107.613Z" fill="#0C4D96"/>
<path d="M151.746 115.912H125.592C124.983 115.912 124.695 115.421 124.95 114.819C125.206 114.216 125.906 113.726 126.515 113.726H152.682C153.291 113.726 153.572 114.216 153.317 114.819C153.055 115.421 152.355 115.912 151.746 115.912Z" fill="#5CA9FF"/>
<path d="M149.069 122.156H122.941C122.332 122.156 122.044 121.665 122.3 121.063C122.555 120.461 123.255 119.97 123.864 119.97H149.998C150.607 119.97 150.888 120.461 150.633 121.063C150.371 121.665 149.671 122.156 149.062 122.156H149.069Z" fill="#5CA9FF"/>
<path d="M189.55 107.613H161.145L170.347 86.1973H198.864L189.55 107.613Z" fill="#0C4D96"/>
<path d="M184.838 115.912H158.684C158.075 115.912 157.793 115.421 158.049 114.819C158.31 114.216 159.011 113.726 159.619 113.726H185.787C186.395 113.726 186.677 114.216 186.415 114.819C186.153 115.421 185.446 115.912 184.838 115.912Z" fill="#5CA9FF"/>
<path d="M182.122 122.156H155.994C155.385 122.156 155.103 121.665 155.359 121.063C155.621 120.461 156.321 119.97 156.93 119.97H183.064C183.673 119.97 183.954 120.461 183.692 121.063C183.431 121.665 182.724 122.156 182.115 122.156H182.122Z" fill="#5CA9FF"/>
<path d="M222.688 107.613H194.282L203.615 86.1973H232.139L222.688 107.613Z" fill="#0C4D96"/>
<mask id="mask0_262_7615" style="mask-type:luminance" maskUnits="userSpaceOnUse" x="161" y="86" width="38" height="22">
<path d="M189.55 107.613H161.145L170.347 86.1973H198.864L189.55 107.613Z" fill="white"/>
</mask>
<g mask="url(#mask0_262_7615)">
<path d="M174.732 104.89C172.997 108.909 171.859 112.155 166.361 112.155C160.863 112.155 162.525 108.902 164.253 104.89C165.981 100.865 169.738 97.6055 172.637 97.6055C175.537 97.6055 176.479 100.871 174.738 104.89H174.732Z" stroke="#88C0FF" stroke-miterlimit="10"/>
<path d="M178.26 93.8224C177.396 95.8252 175.197 97.4484 173.345 97.4484C171.492 97.4484 170.687 95.8252 171.551 93.8224C172.415 91.8197 174.614 90.1899 176.473 90.1899C178.332 90.1899 179.13 91.8131 178.26 93.8224Z" stroke="#88C0FF" stroke-miterlimit="10"/>
<path d="M189.314 104.033C187.364 108.523 186.081 112.155 179.935 112.155C173.783 112.155 175.655 108.523 177.599 104.033C179.543 99.5364 183.751 95.8843 186.991 95.8843C190.231 95.8843 191.271 99.5364 189.321 104.033H189.314Z" stroke="#88C0FF" stroke-miterlimit="10"/>
<path d="M193.294 91.6561C192.318 93.8945 189.857 95.7075 187.783 95.7075C185.708 95.7075 184.818 93.8945 185.793 91.6561C186.762 89.4111 189.229 87.5981 191.304 87.5981C193.379 87.5981 194.269 89.4177 193.294 91.6561Z" stroke="#88C0FF" stroke-miterlimit="10"/>
</g>
<mask id="mask1_262_7615" style="mask-type:luminance" maskUnits="userSpaceOnUse" x="128" y="86" width="38" height="22">
<path d="M156.412 107.613H128.007L137.072 86.1973H165.589L156.412 107.613Z" fill="white"/>
</mask>
<g mask="url(#mask1_262_7615)">
<path d="M149.304 107.456C149.357 107.338 149.645 103.018 149.645 103.018C149.645 103.018 149.592 102.966 149.494 102.887C149.18 102.128 148.355 99.9879 148.395 98.7771C148.401 98.5676 148.414 98.3582 148.427 98.1619L150.077 98.4826L152.773 101.114L153.873 100.322L152.636 95.7794L148.041 94.3068C147.923 94.2086 147.825 94.1366 147.76 94.0908L147.387 92.9258C147.897 92.4022 148.329 91.787 148.617 91.1194C149.422 89.2278 148.715 87.6963 147.04 87.6963C145.364 87.6963 143.355 89.2278 142.55 91.1194C141.745 93.0109 142.458 94.5359 144.127 94.5359C144.369 94.5359 144.618 94.5032 144.873 94.4377L145.05 95.6093C143.617 96.4798 141.274 97.0492 141.189 97.0885C141.077 97.1474 137.242 95.9103 137.242 95.9103C137.242 95.9103 137.425 94.8566 136.862 94.5883C136.299 94.3264 135.154 95.3475 135.324 96.5518C135.494 97.7561 139.179 100.014 139.179 100.014L142.916 99.0782C142.818 99.8308 142.55 102.194 142.786 103.293L138.302 105.682L135.553 110.558L137.118 111.226L139.88 107.901L144.114 105.813L145.528 109.19L148.833 111.35L151.543 109.95C151.543 109.95 149.246 107.561 149.298 107.443L149.304 107.456Z" stroke="#88C0FF" stroke-miterlimit="10"/>
</g>
<path d="M220.672 97.9456L220.26 98.0831C220.109 97.2453 219.422 96.689 218.362 96.689H208.06C207 96.689 205.828 97.2453 204.938 98.0831L204.65 97.9456L209.101 91.7017H221.693L220.672 97.9456Z" stroke="#88C0FF" stroke-miterlimit="10"/>
<path d="M202.268 100.112H201.476C201.017 100.112 200.808 99.7388 201.004 99.2806L202.412 96.0539C202.608 95.5957 203.151 95.2227 203.609 95.2227H204.408C204.866 95.2227 205.075 95.5957 204.879 96.0539L203.465 99.2806C203.269 99.7388 202.726 100.112 202.268 100.112Z" stroke="#88C0FF" stroke-miterlimit="10"/>
<path d="M222.027 100.112H221.235C220.777 100.112 220.567 99.7388 220.77 99.2806L222.191 96.0539C222.394 95.5957 222.93 95.2227 223.388 95.2227H224.187C224.645 95.2227 224.855 95.5957 224.652 96.0539L223.231 99.2806C223.028 99.7388 222.492 100.112 222.034 100.112H222.027Z" stroke="#88C0FF" stroke-miterlimit="10"/>
<path d="M205.422 105.335L204.879 106.585C204.604 107.213 203.858 107.73 203.223 107.73H202.13C201.495 107.73 201.201 107.213 201.476 106.585L202.457 104.34C202.457 104.34 202.47 104.314 202.483 104.301C202.745 104.942 203.374 105.341 204.277 105.341H205.422V105.335Z" stroke="#88C0FF" stroke-miterlimit="10"/>
<path d="M216.221 104.936L215.495 106.585C215.22 107.213 214.474 107.73 213.846 107.73H212.746C212.111 107.73 211.823 107.213 212.105 106.585L212.654 105.335H214.559C215.096 105.335 215.678 105.184 216.221 104.936Z" stroke="#88C0FF" stroke-miterlimit="10"/>
<path d="M214.566 105.335H204.277C202.654 105.335 201.908 104.026 202.615 102.41L203.838 99.6148C204.545 97.9982 206.437 96.6826 208.067 96.6826H218.375C220.005 96.6826 220.744 97.9982 220.031 99.6148L218.8 102.41C218.087 104.026 216.196 105.335 214.572 105.335H214.566Z" stroke="#88C0FF" stroke-miterlimit="10"/>
<path d="M204.742 103.306C204.015 103.306 203.681 102.717 203.996 101.991L204.401 101.061C204.716 100.335 205.573 99.7456 206.299 99.7456C207.026 99.7456 207.36 100.335 207.046 101.061L206.64 101.991C206.326 102.711 205.468 103.306 204.742 103.306Z" stroke="#88C0FF" stroke-miterlimit="10"/>
<path d="M215.698 103.306C214.971 103.306 214.638 102.717 214.952 101.991L215.357 101.061C215.678 100.335 216.529 99.7456 217.256 99.7456C217.982 99.7456 218.316 100.335 218.002 101.061L217.589 101.991C217.269 102.711 216.418 103.306 215.691 103.306H215.698Z" stroke="#88C0FF" stroke-miterlimit="10"/>
<path d="M217.93 115.912H191.776C191.167 115.912 190.885 115.421 191.147 114.819C191.409 114.216 192.116 113.726 192.731 113.726H218.898C219.507 113.726 219.788 114.216 219.52 114.819C219.252 115.421 218.545 115.912 217.936 115.912H217.93Z" fill="#5CA9FF"/>
<path d="M215.174 122.156H189.047C188.438 122.156 188.156 121.665 188.418 121.063C188.68 120.461 189.387 119.97 189.996 119.97H216.13C216.739 119.97 217.014 120.461 216.752 121.063C216.483 121.665 215.777 122.156 215.168 122.156H215.174Z" fill="#5CA9FF"/>
<path d="M137.668 151.32H109.498L118.418 130.258H146.7L137.668 151.32Z" fill="#0C4D96"/>
<path d="M133.073 159.489H107.128C106.526 159.489 106.238 159.005 106.494 158.409C106.742 157.813 107.443 157.329 108.045 157.329H133.996C134.598 157.329 134.886 157.813 134.631 158.409C134.376 159.005 133.682 159.489 133.073 159.489Z" fill="#5CA9FF"/>
<path d="M130.442 165.635H104.53C103.928 165.635 103.64 165.157 103.895 164.561C104.144 163.966 104.837 163.488 105.446 163.488H131.371C131.973 163.488 132.255 163.972 132.006 164.561C131.751 165.157 131.057 165.635 130.455 165.635H130.442Z" fill="#5CA9FF"/>
<path d="M170.537 151.32H142.367L151.419 130.258H179.7L170.537 151.32Z" fill="#0C4D96"/>
<path d="M165.897 159.489H139.952C139.35 159.489 139.068 159.005 139.324 158.409C139.579 157.813 140.279 157.329 140.881 157.329H166.833C167.435 157.329 167.716 157.813 167.461 158.409C167.199 159.005 166.505 159.489 165.897 159.489Z" fill="#5CA9FF"/>
<path d="M163.226 165.635H137.314C136.712 165.635 136.431 165.157 136.686 164.561C136.941 163.966 137.635 163.488 138.244 163.488H164.169C164.771 163.488 165.052 163.972 164.797 164.561C164.542 165.157 163.841 165.635 163.239 165.635H163.226Z" fill="#5CA9FF"/>
<path d="M203.413 151.32H175.236L184.419 130.258H212.7L203.413 151.32Z" fill="#0C4D96"/>
<path d="M198.713 159.489H172.769C172.166 159.489 171.885 159.005 172.147 158.409C172.409 157.813 173.109 157.329 173.711 157.329H199.662C200.264 157.329 200.546 157.813 200.284 158.409C200.022 159.005 199.322 159.489 198.713 159.489Z" fill="#5CA9FF"/>
<path d="M196.004 165.635H170.092C169.49 165.635 169.208 165.157 169.47 164.561C169.732 163.966 170.426 163.488 171.034 163.488H196.959C197.561 163.488 197.843 163.972 197.581 164.561C197.319 165.157 196.619 165.635 196.017 165.635H196.004Z" fill="#5CA9FF"/>
<path d="M77.2696 261.971C77.2696 261.971 73.48 265.853 71.2351 268.281C68.9901 270.709 72.3543 275.421 76.8376 277.575C81.3275 279.722 80.4243 282.955 81.7922 285.226C83.1602 287.497 87.6763 289.454 88.5664 289.199C89.4565 288.944 91.5837 286.319 91.9633 284.427C92.3429 282.536 88.8216 278.714 86.7272 275.939C84.6263 273.17 87.5061 269.452 87.5061 269.452L76.9882 261.821" fill="#083364"/>
<path d="M122.044 216.045C121.383 218.093 120.133 220.842 118.471 224.01C109.537 241.197 89.0245 270.925 89.0245 270.925C89.0245 270.925 85.0058 271.147 79.652 268.916C74.2981 266.684 74.9722 263.568 74.9722 263.568L76.4907 260.459L88.1867 236.439L92.1465 228.31C92.1465 228.31 86.4392 228.984 80.241 229.711C74.0559 230.431 67.3865 231.216 65.3772 231.439C61.3585 231.884 39.498 235.457 33.254 229.874C27.01 224.298 26.1133 212.923 29.9029 203.55C29.9029 203.55 58.459 205.337 66.2673 205.114C74.0756 204.892 106.873 202.882 110.892 203.773C114.91 204.663 126.279 202.882 122.044 216.045Z" fill="#84CDF6"/>
<path opacity="0.48" d="M118.543 223.12C118.549 223.355 118.53 223.65 118.477 224.01C109.543 241.197 89.0312 270.925 89.0312 270.925C89.0312 270.925 85.0125 271.147 79.6587 268.916C74.3048 266.684 74.9789 263.568 74.9789 263.568L76.4974 260.459C80.1103 262.495 84.8947 264.851 85.9747 263.765C87.7746 261.971 98.7768 233.893 98.7768 233.893C98.7768 233.893 94.2738 236.197 88.1934 236.432C85.582 236.531 82.6629 236.249 79.6914 235.241C79.6914 235.241 79.8288 232.806 80.2477 229.711C80.7713 225.823 81.7596 220.894 83.5072 218.401C86.6488 213.904 94.961 213.904 106.86 214.808C118.765 215.704 118.314 217.275 118.543 223.113V223.12Z" fill="#597ACF"/>
<path d="M99.2609 276.37C99.2609 276.37 97.5788 281.534 96.6494 284.702C95.7135 287.877 100.819 290.612 105.793 290.547C110.767 290.481 111.389 293.78 113.627 295.214C115.866 296.647 120.781 296.398 121.462 295.776C122.149 295.155 122.895 291.856 122.398 289.991C121.9 288.125 117.05 286.26 113.941 284.702C110.833 283.144 111.762 278.543 111.762 278.543L98.9533 276.364" fill="#083364"/>
<path d="M114.583 276.861C113.804 279.041 113.346 280.298 113.346 280.298C113.346 280.298 110.663 282.084 105.315 280.965C99.9613 279.853 97.952 276.063 97.952 276.063C97.952 276.063 104.641 237.467 105.538 234.122C106.428 230.771 107.102 227.878 106.65 227.211C106.205 226.536 70.5086 233.9 58.4591 231.229C46.4162 228.546 43.5167 223.421 41.0623 216.954C40.3162 214.978 40.0871 212.595 40.1395 210.167C40.2638 204.65 41.8673 198.942 42.175 197.542C42.6266 195.532 61.3651 195.31 68.4992 195.755C75.6399 196.2 82.7805 202.896 82.7805 202.896C82.7805 202.896 114.243 202.307 118.314 202.241C132.464 202.019 135.383 210.553 134.709 217.066C134.369 220.351 119.367 263.653 114.583 276.868V276.861Z" fill="#84CDF6"/>
<path opacity="0.48" d="M114.046 276.796C114.23 276.809 114.406 276.829 114.583 276.855C113.804 279.034 113.346 280.291 113.346 280.291C113.346 280.291 110.663 282.078 105.315 280.959C99.9613 279.846 97.952 276.056 97.952 276.056C97.952 276.056 104.641 237.46 105.538 234.116C106.428 230.764 107.102 227.872 106.65 227.204C106.205 226.53 70.5086 233.893 58.4591 231.223C46.4162 228.539 43.5167 223.414 41.0623 216.948C40.3162 214.971 40.0871 212.589 40.1395 210.161C44.4526 204.303 51.3381 201.724 55.1146 200.212C59.0154 198.648 75.4174 204.486 75.4174 204.486C76.0915 212.347 78.1139 221.333 78.1139 221.333C78.1139 221.333 98.096 220.888 108.653 222.91C119.21 224.933 115.84 232.564 113.595 243.567C111.35 254.575 106.86 270.971 106.86 270.971C106.86 270.971 108.208 276.364 114.046 276.816V276.796Z" fill="#597ACF"/>
<path d="M107.697 103.627C107.403 107.227 107.992 108.883 108.862 111.213C109.74 113.549 108.182 114.616 106.336 114.328C104.49 114.034 103.417 112.672 103.417 111.507C103.417 110.342 104.392 106.742 105.361 105.964C106.33 105.185 107.697 103.627 107.697 103.627Z" fill="#FF7366"/>
<path d="M111.31 89.0508C111.186 92.6178 110.584 97.8931 108.476 103.627C104.68 113.935 101.571 119.387 96.2174 121.429C90.87 123.471 82.8916 120.159 82.8916 120.159C82.8916 120.159 82.2698 121.266 81.6219 122.417C81.0393 123.439 80.4437 124.512 80.2605 124.833C79.8743 125.52 68.787 122.306 66.7384 120.945C64.6963 119.583 62.1699 116.082 62.1699 116.082C62.1699 116.082 65.2854 110.826 66.6467 105.773C66.8169 105.139 66.9609 104.523 67.0984 103.928C68.0081 99.7323 68.0081 96.5318 68.0081 96.5318C68.0081 96.5318 66.2017 92.2251 65.6519 86.7665C65.2396 82.8329 65.4883 78.3038 67.5238 74.3505C72.3868 64.9191 86.8841 58.2039 98.7437 65.8878C101.787 67.8644 104.091 70.0439 105.832 72.2038C110.878 78.4477 111.199 84.4757 111.199 84.4757C111.199 84.4757 111.408 86.2233 111.304 89.0638L111.31 89.0508Z" fill="#FFCFAA"/>
<path opacity="0.46" d="M111.31 89.0509C108.574 87.9644 107.291 85.9551 103.98 86.1384C100.033 86.3543 97.6833 91.8915 96.9371 94.9873C96.191 98.0831 84.7829 97.7624 84.7829 97.7624C84.7829 97.7624 89.2663 91.682 87.342 88.272C85.4243 84.8621 80.2014 88.704 80.2996 91.6886C80.4043 94.6731 80.7315 95.3145 79.344 98.6133C77.9564 101.919 74.4417 99.3594 74.4417 99.3594C74.4417 99.3594 73.3749 101.703 72.0986 102.246C70.8158 102.776 70.0696 101.709 70.0696 101.709C70.0696 101.709 69.8602 102.802 69.5198 104.314C69.0159 106.539 68.2305 109.661 67.4123 111.625C66.0248 114.93 65.4946 115.356 65.4946 115.356C65.4946 115.356 68.7933 115.041 74.6643 118.026C77.3674 119.4 79.7956 121.043 81.6282 122.418C81.0457 123.439 80.4501 124.512 80.2668 124.833C79.8807 125.52 68.7933 122.306 66.7447 120.945C64.7027 119.584 62.1763 116.082 62.1763 116.082C62.1763 116.082 65.2917 110.826 66.6531 105.774C66.8233 105.139 66.9673 104.523 67.1047 103.928C68.0145 99.7325 68.0145 96.5319 68.0145 96.5319C68.0145 96.5319 66.208 92.2253 65.6582 86.7667C65.8808 86.4263 66.1099 86.0729 66.3455 85.7195C72.4258 76.648 85.8563 70.3647 90.7651 70.3647C94.0376 70.3647 101.152 71.124 105.845 72.1974C110.891 78.4414 111.212 84.4694 111.212 84.4694C111.212 84.4694 111.421 86.2169 111.317 89.0575L111.31 89.0509Z" fill="#FF8482"/>
<path d="M109.255 96.7151C108.476 94.8694 107.017 94.7712 105.95 94.673C104.883 94.5748 104.294 93.2135 104.785 92.1466C105.269 91.0798 107.704 91.2696 109.066 92.5328C110.427 93.796 110.231 94.1887 109.943 95.2555C109.648 96.3224 109.262 96.7151 109.262 96.7151H109.255Z" fill="#113161"/>
<path d="M106.964 102.075C106.585 103.28 105.78 104.098 105.164 103.908C104.549 103.712 104.359 102.579 104.739 101.375C105.119 100.171 105.924 99.3527 106.539 99.5425C107.154 99.7388 107.344 100.871 106.964 102.075Z" fill="#113161"/>
<path d="M83.7815 94.4244C85.4226 94.4244 86.753 93.094 86.753 91.4529C86.753 89.8118 85.4226 88.4814 83.7815 88.4814C82.1404 88.4814 80.8101 89.8118 80.8101 91.4529C80.8101 93.094 82.1404 94.4244 83.7815 94.4244Z" fill="#FFA578"/>
<path d="M115.283 86.1123C112.56 87.2773 111.782 87.1856 107.017 85.5297C102.245 83.8738 100.308 83.6775 96.9897 87.2773C94.928 89.5288 93.9986 92.1992 93.5732 94.1692C93.3179 95.3474 93.2394 96.2833 93.2001 96.7153C93.1805 96.9836 93.2459 97.2258 93.3899 97.4483C94.0575 98.5152 96.2305 99.1828 96.7999 101.186C97.4806 103.62 97.2842 105.957 99.6143 107.606C101.951 109.262 104.674 109.845 105.459 110.421C105.826 110.696 105.374 112.162 104.517 113.857C103.725 115.428 102.579 117.195 101.421 118.399C101.172 118.654 100.93 118.89 100.688 119.086C99.8303 119.787 99.0121 120.448 98.1351 120.991C96.3417 122.11 94.3259 122.752 91.2562 122.293C86.6812 121.613 83.2778 121.22 81.5237 119.472C80.1558 118.111 80.1034 113.844 80.9739 110.421C80.8496 110.237 80.7907 110.034 80.8103 109.818C80.9608 107.737 82.4727 106.579 82.1455 103.614C81.8117 100.649 80.8103 99.2089 80.8103 99.2089L82.7804 96.7087C82.7804 96.7087 84.0108 97.1734 85.9547 97.1865C86.2951 96.6105 86.6485 96.028 86.9758 95.4586C87.7219 94.1889 88.3568 93.0697 88.5335 92.6246C88.6382 92.3497 88.7233 91.8065 88.7429 91.1454C88.8149 88.7172 88.023 84.6723 84.0632 85.8177C79.0039 87.2707 79.0955 94.7648 78.1268 96.2244C77.1582 97.6774 74.9132 98.2664 74.1409 98.0701C73.362 97.8737 72.7795 97.4876 72.7795 97.4876C72.7795 97.4876 72.7795 98.561 71.32 99.0453C69.867 99.5296 69.1797 98.849 69.1797 98.849C69.1797 98.849 69.3826 100.596 66.6533 101.375C63.9306 102.148 62.471 101.572 62.5627 99.3333C62.6608 97.0949 64.3233 96.1197 64.6113 92.4282C64.8992 88.7303 62.1765 83.2848 62.7656 78.5134C63.3481 73.7486 66.169 71.8047 66.169 71.8047C66.169 71.8047 67.5304 63.9245 72.4915 62.6613C77.4592 61.3915 80.3718 59.932 84.4559 59.644C88.5466 59.356 90.1959 61.3981 92.526 61.4963C94.8626 61.5879 101.087 63.342 106.244 63.63C111.33 63.9114 113.012 63.2569 114.085 65.3971C114.099 65.4233 114.112 65.456 114.125 65.4822C115.192 67.7141 114.897 69.4682 114.897 69.4682C114.897 69.4682 117.207 68.6173 118.857 69.8216C119.642 70.3845 120.284 71.4317 120.441 73.2578C120.932 78.9061 118.006 84.9341 115.283 86.0992V86.1123Z" fill="#113161"/>
<path opacity="0.53" d="M120.441 73.2706C120.283 71.4446 119.649 70.3974 118.857 69.8345C120.539 77.5053 116.232 83.0555 109.091 80.8106C101.63 78.4674 93.5273 79.7372 91.7143 84.1093C91.5965 84.3907 91.4852 84.6852 91.3739 84.9863C90.6016 79.207 86.1444 79.0107 81.9032 82.8264C77.6359 86.6684 77.4199 87.1985 77.4199 87.1985C77.4199 87.1985 75.6069 90.2944 73.3685 89.4435C72.1511 88.9788 71.9089 88.3505 71.9482 87.8792C71.6209 88.6974 70.9992 89.9998 70.2792 90.2943C69.2124 90.7198 68.5775 88.0559 69.6378 82.2963C70.7046 76.5432 76.4643 71.3137 76.0323 71.1042C75.6069 70.8882 74.0099 70.1421 74.756 68.2178C75.4956 66.3001 79.763 62.2487 88.7232 63.4203C96.5118 64.4348 109.72 69.0163 114.072 65.4035C112.992 63.2698 111.317 63.9243 106.231 63.6363C101.074 63.3483 94.8494 61.5942 92.5128 61.5026C90.1827 61.4044 88.5334 59.3624 84.4427 59.6504C80.3586 59.9383 77.4395 61.4044 72.4783 62.6676C67.5172 63.9308 66.1558 71.8111 66.1558 71.8111C66.1558 71.8111 63.3349 73.7615 62.7524 78.5198C62.1633 83.2911 64.8861 88.7366 64.5981 92.4346C64.3101 96.126 62.6477 97.1012 62.5495 99.3396C62.4578 101.578 63.9174 102.154 66.6401 101.382C69.3694 100.603 69.1665 98.8553 69.1665 98.8553C69.1665 98.8553 69.8538 99.536 71.3068 99.0517C72.7663 98.5673 72.7663 97.4939 72.7663 97.4939C72.7663 97.4939 73.3488 97.8801 74.1277 98.0764C74.9 98.2728 77.145 97.6837 78.1136 96.2307C79.0823 94.7712 78.9907 87.2771 84.05 85.8241C89.1028 84.3645 89.0112 91.3677 88.5268 92.6375C88.3501 93.0825 87.7153 94.2083 86.9691 95.4715C86.6419 96.0344 86.2884 96.6234 85.9481 97.1994C84.0107 97.1863 82.7737 96.7216 82.7737 96.7216L80.8037 99.2218C80.8037 99.2218 81.7985 100.662 82.1389 103.627C82.4661 106.592 80.9542 107.75 80.8037 109.831C80.784 110.047 80.8429 110.25 80.9673 110.434C80.0968 113.857 80.1492 118.124 81.5171 119.485C83.2712 121.239 86.6746 121.626 91.2496 122.306C94.3192 122.764 96.3351 122.123 98.1285 121.004C99.0055 120.461 99.8236 119.8 100.681 119.099C100.923 118.903 101.165 118.667 101.414 118.412C99.948 118.045 98.1285 117.771 96.178 117.496C90.2089 116.638 88.2912 113.549 87.8658 109.923C87.4404 106.297 84.5605 99.7978 84.5605 99.7978C84.5605 99.7978 85.575 99.7978 86.8906 99.1695C87.7938 98.7375 88.8345 98.0175 89.79 96.8067C90.2351 96.2373 90.5885 95.6679 90.8765 95.0853C91.3412 96.0736 92.0481 96.8656 93.0888 97.3434C93.1804 97.3827 93.2786 97.4219 93.3833 97.4612C93.2393 97.2387 93.1738 96.9965 93.1935 96.7281C93.2262 96.2962 93.3047 95.3602 93.5665 94.1821C93.992 92.2055 94.9214 89.5417 96.9831 87.2902C100.295 83.6904 102.239 83.8867 107.01 85.5426C111.775 87.192 112.554 87.2902 115.277 86.1251C117.999 84.9601 120.925 78.9321 120.434 73.2837L120.441 73.2706Z" fill="#061033"/>
<path opacity="0.53" d="M72.2033 87.2051C72.2033 87.2051 72.1182 87.4865 71.9546 87.8858C71.9808 87.4931 72.2033 87.2051 72.2033 87.2051Z" fill="#061033"/>
<path d="M104.517 113.863C103.594 115.683 102.206 117.771 100.871 118.936C100.812 118.995 100.753 119.041 100.694 119.093C99.8303 119.793 99.0122 120.454 98.1351 120.998C97.9584 120.906 97.7686 120.788 97.5788 120.651C95.9884 119.518 95.288 117.738 95.3731 116.089C95.3927 115.618 95.4844 115.153 95.6349 114.721C96.0145 113.634 96.5512 112.175 97.2843 111.291C97.8668 110.597 98.5737 110.257 99.4311 110.728C100.995 111.592 102.062 112.705 103.842 113.569C104.058 113.674 104.281 113.772 104.523 113.87L104.517 113.863Z" fill="#AB2155"/>
<path d="M100.871 118.936C100.812 118.995 100.753 119.041 100.694 119.093C99.8303 119.793 99.0122 120.454 98.1351 120.998C97.9584 120.906 97.7686 120.788 97.5788 120.651C95.9884 119.518 95.288 117.738 95.3731 116.089C97.7228 116.174 99.4245 117.228 100.878 118.943L100.871 118.936Z" fill="#FF7F99"/>
<path d="M103.836 113.562C103.509 114.485 102.736 115.526 101.669 115.297C100.419 115.022 98.4296 113.366 97.2842 111.284C97.8667 110.591 98.5736 110.25 99.431 110.722C100.995 111.585 102.062 112.698 103.842 113.562H103.836Z" fill="white"/>
<path d="M67.6086 204.892C77.6488 206.679 82.7801 202.883 82.7801 202.883C82.7801 202.883 79.4356 189.276 80.1032 178.345C80.7708 167.415 75.1944 164.293 71.6273 167.86C68.0602 171.427 63.5965 188.163 64.0416 194.407C64.4866 200.651 67.6086 204.892 67.6086 204.892Z" fill="#FFE3B5"/>
<path d="M83.6706 132.608C83.6706 132.608 83.6706 126.364 80.3261 123.91C76.9816 121.456 69.1733 118.779 65.5997 116.769C62.0326 114.76 61.581 112.306 60.2458 112.306C58.9106 112.306 55.5596 117.214 55.5596 117.214C55.5596 117.214 56.4497 120.782 59.3492 122.568C62.2486 124.355 64.703 123.013 68.0476 124.8C71.3921 126.587 76.3009 130.377 78.5327 133.054C80.7646 135.73 82.3223 137.072 83.219 135.73C84.1091 134.389 83.6641 132.608 83.6641 132.608H83.6706Z" fill="#FFD796"/>
<path d="M85.0121 151.347C84.1286 158.37 82.7017 167.88 79.7368 179.229C78.9318 182.299 78.0286 185.499 76.9813 188.831C72.0725 204.441 74.0753 222.512 74.0753 222.512C74.0753 222.512 73.1001 222.845 71.3526 223.212C67.6154 223.978 60.3896 224.881 51.8548 222.924C50.1662 222.538 48.4187 222.034 46.6384 221.399C31.6895 216.045 24.5488 211.359 24.5488 211.359C24.5488 211.359 27.4483 209.795 29.8961 198.19C32.3571 186.586 29.2285 178.11 29.2285 166.067C29.2285 154.024 35.9176 132.157 41.278 125.468C46.6384 118.779 55.9979 115.65 55.9979 115.65C55.9979 115.65 66.9347 121.449 71.8369 124.355C74.7364 126.064 77.6293 129.015 79.5208 131.156C80.8364 132.635 81.6545 133.721 81.6545 133.721C81.6545 133.721 86.1117 142.426 85.0056 151.347H85.0121Z" fill="#FFB337"/>
<path opacity="0.36" d="M69.4087 193.641C69.9127 204.251 63.1778 205.265 60.6514 206.103C58.125 206.947 52.5683 218.905 52.0577 222.439C52.0381 222.596 51.9727 222.754 51.8548 222.917C50.1662 222.531 48.4187 222.027 46.6384 221.392C31.6895 216.038 24.5488 211.352 24.5488 211.352C24.5488 211.352 27.4483 209.788 29.8961 198.183C32.3571 186.579 29.2285 178.103 29.2285 166.06C29.2285 154.017 35.9176 132.15 41.278 125.461C46.6384 118.772 55.9979 115.644 55.9979 115.644C55.9979 115.644 66.9347 121.442 71.8369 124.348C74.7364 126.057 77.6293 129.009 79.5208 131.149C72.6616 128.256 66.627 123.576 62.6607 123.733C58.2821 123.903 60.3045 134.683 63.8389 143.781C67.3732 152.878 68.8916 183.032 69.3956 193.641H69.4087Z" fill="#730303"/>
<path d="M76.9815 188.824C72.0727 204.44 74.082 222.511 74.082 222.511C74.082 222.511 73.1002 222.845 71.3527 223.205C70.4626 219.154 68.9637 209.336 71.8501 197.967C74.5074 187.502 77.9239 181.735 79.7369 179.222C78.9384 182.292 78.0221 185.492 76.9815 188.817V188.824Z" fill="#D4591B"/>
<path d="M113.038 141.929L102.186 150.706L96.7343 155.117L93.9395 157.375C93.9395 157.375 89.6983 154.692 88.3631 151.354C88.0817 150.647 87.8853 149.842 87.761 149.024C87.2767 145.98 87.6955 142.649 87.6955 142.649L106.539 135.908L107.062 135.718C107.062 135.718 107.435 135.646 107.998 135.757C108.758 135.921 109.864 136.438 110.891 137.969C112.37 140.188 112.874 141.451 112.999 141.818C113.025 141.89 113.038 141.936 113.038 141.936V141.929Z" fill="#FFCFAA"/>
<path d="M117.312 136.948C117.312 137.243 117.227 137.557 117.07 137.871C116.317 139.448 113.974 141.144 112.992 141.811C112.724 142.001 112.554 142.099 112.554 142.099C112.554 142.099 108.391 141.111 107.396 139.913C106.637 139.003 106.572 137.616 106.585 137.02C106.591 136.843 106.598 136.739 106.598 136.739L106.526 135.894L106.401 134.559C106.401 134.559 106.401 129.657 106.964 127.903C107.023 127.687 107.102 127.523 107.187 127.419C107.324 127.248 107.566 127.091 107.881 126.941C108.103 126.836 108.352 126.731 108.633 126.64C108.705 126.62 108.79 126.594 108.869 126.568C108.928 126.555 108.98 126.535 109.046 126.522C109.176 126.483 109.307 126.45 109.445 126.417C109.622 126.378 109.805 126.339 109.982 126.299C110.08 126.273 110.191 126.254 110.296 126.234C110.453 126.208 110.616 126.182 110.78 126.162C111.075 126.116 111.369 126.083 111.651 126.064C111.873 126.051 112.089 126.038 112.285 126.038C112.37 126.038 112.469 126.038 112.547 126.044C112.986 126.057 113.326 126.116 113.529 126.241C113.751 126.378 113.909 126.843 114.007 127.478C114.242 128.917 114.223 131.274 114.177 132.714V132.733C114.177 132.864 114.17 132.982 114.164 133.093C114.164 133.126 114.164 133.152 114.157 133.178V133.27C114.144 133.708 114.131 133.97 114.131 133.97C114.131 133.97 117.299 134.762 117.299 136.948H117.312Z" fill="#FFCFAA"/>
<path d="M120.853 131.424C120.722 133.061 118.123 136.549 117.07 137.871C117.057 137.891 117.037 137.911 117.024 137.93C116.003 139.206 114.661 137.93 114.026 136.399C113.385 134.867 113.771 133.401 113.771 133.401C113.771 133.401 113.928 133.277 114.177 133.087H114.183C115.178 132.314 117.678 130.364 117.986 129.958C118.366 129.448 118.366 128.617 119.321 127.406C120.264 126.214 121.448 125.946 121.73 127.092C121.743 127.111 121.743 127.131 121.749 127.15C122.005 128.361 120.984 129.762 120.859 131.424H120.853Z" fill="#FFCFAA"/>
<path d="M117.829 119.316C117.816 120.068 117.364 120.965 116.579 121.862C115.623 122.942 114.092 125.939 114.033 127.478C113.967 129.009 112.946 128.937 111.925 128.557C111.408 128.361 111.114 127.949 110.957 127.595C110.813 127.262 110.78 126.967 110.78 126.967C110.741 126.764 110.76 126.47 110.806 126.168C110.885 125.514 111.094 124.801 111.094 124.801C111.094 124.801 113.522 121.417 113.777 121.162C113.98 120.965 114.622 120.481 115.224 119.623C115.296 119.525 115.374 119.414 115.44 119.303C115.525 119.165 115.61 119.028 115.689 118.871C116.389 117.529 117.6 118.04 117.79 118.871C117.822 119.015 117.835 119.165 117.829 119.322V119.316Z" fill="#FFCFAA"/>
<path d="M115.486 119.309C115.486 119.309 115.447 119.388 115.381 119.532C115.244 119.826 115.001 120.356 114.713 120.959C114.511 121.391 114.288 121.862 114.072 122.313C113.764 122.968 113.457 123.583 113.254 123.963C112.868 124.689 112.763 125.435 112.56 126.038C112.462 126.312 112.344 126.561 112.161 126.751C112.089 126.83 112.004 126.902 111.912 126.96C111.84 127.006 111.762 127.052 111.69 127.104C111.441 127.262 111.192 127.432 110.944 127.589C110.734 127.726 110.525 127.844 110.322 127.949C110.309 127.955 110.296 127.962 110.282 127.968C110.021 128.099 109.772 128.178 109.556 128.178C108.993 128.178 108.627 127.726 108.555 127.622C108.548 127.608 108.542 127.602 108.542 127.602C108.542 127.602 108.581 127.203 108.646 126.653C108.705 126.097 108.797 125.377 108.882 124.748C108.96 124.133 109.045 123.609 109.111 123.4C109.176 123.164 109.261 122.935 109.36 122.706C109.53 122.307 109.765 121.94 110.125 121.613C110.695 121.103 113.064 120.075 113.889 119.571C114.589 119.139 115.237 119.257 115.427 119.303C115.46 119.309 115.479 119.316 115.479 119.316L115.486 119.309Z" fill="#FFCFAA"/>
<path d="M109.628 122.627C109.628 122.627 109.628 122.726 109.622 122.896C109.622 123.57 109.595 125.337 109.458 126.417C109.406 126.849 109.334 127.17 109.242 127.281C109.183 127.353 109.072 127.425 108.941 127.477C108.921 127.49 108.902 127.497 108.882 127.504C108.79 127.543 108.679 127.582 108.561 127.615C108.358 127.674 108.136 127.719 107.92 127.765C107.521 127.844 107.154 127.89 106.984 127.916C106.918 127.916 106.886 127.922 106.886 127.922C106.886 127.922 107.206 125.37 107.652 124.159C107.979 123.256 108.921 122.85 109.366 122.706C109.53 122.654 109.628 122.634 109.628 122.634V122.627Z" fill="#FFCFAA"/>
<path opacity="0.46" d="M117.829 119.316C117.011 119.283 115.276 121.207 114.308 122.104C114.229 122.176 114.151 122.248 114.079 122.313C113.162 123.184 112.691 123.812 112.482 125.056C112.429 125.357 112.37 125.697 112.305 126.031C112.259 126.273 112.22 126.522 112.168 126.751C112.004 127.621 111.86 128.335 111.86 128.335C111.86 128.335 111.755 127.824 111.696 127.104C111.67 126.79 111.657 126.43 111.67 126.057C111.67 125.9 111.677 125.75 111.69 125.586C111.801 124.185 112.986 122.13 114.216 121.292C114.386 121.168 114.55 121.063 114.714 120.959C115.715 120.304 116.513 119.859 116.664 119.303C116.828 118.655 116.265 118.543 116.042 118.681C115.813 118.825 115.643 119.381 115.447 119.499C115.427 119.512 115.407 119.519 115.381 119.532C115.335 119.558 115.283 119.591 115.218 119.617C114.982 119.748 114.694 119.885 114.694 119.885C114.694 119.885 111.186 122.104 110.675 122.719C110.394 123.073 110.315 124.794 110.309 126.227C110.309 126.934 110.315 127.576 110.322 127.936C110.328 128.132 110.335 128.243 110.335 128.243C110.335 128.243 110.315 128.139 110.283 127.955C110.217 127.602 110.099 126.974 109.995 126.293C109.837 125.311 109.713 124.218 109.779 123.727C109.923 122.719 111.094 121.567 111.52 121.371C111.945 121.175 111.467 120.867 111.467 120.867C111.467 120.867 110.315 121.875 109.811 122.608C109.746 122.706 109.674 122.804 109.622 122.889C109.281 123.439 109.19 123.806 109.19 124.768C109.19 125.259 109.131 125.926 109.059 126.522C109.019 126.888 108.98 127.222 108.934 127.471C108.902 127.746 108.875 127.916 108.875 127.916V127.497C108.882 127.255 108.882 126.921 108.882 126.568C108.888 125.959 108.888 125.265 108.882 124.735C108.882 124.473 108.882 124.251 108.875 124.094C108.849 123.197 107.926 123.989 107.9 124.571C107.887 124.801 107.874 125.743 107.894 126.941C107.9 127.203 107.9 127.471 107.913 127.759C107.953 129.526 108.064 131.581 108.319 132.772C108.62 134.186 108.286 135.201 107.998 135.75C107.828 136.078 107.678 136.248 107.678 136.248L106.598 137.02L96.911 144.004C97.2775 144.128 97.9909 144.763 99.3981 146.897C100.57 148.664 101.499 149.881 102.186 150.706L96.7343 155.117C96.0405 155.078 95.3533 154.908 94.6791 154.561C92.6698 153.507 89.9994 151.302 87.761 149.024C87.2767 145.98 87.6955 142.649 87.6955 142.649L106.539 135.908L106.414 134.572C106.414 134.572 106.414 129.67 106.977 127.916C106.912 127.916 106.879 127.923 106.879 127.923C106.879 127.923 107.2 125.37 107.645 124.159C107.972 123.256 108.915 122.85 109.36 122.706C109.53 122.307 109.765 121.94 110.125 121.613C110.695 121.103 113.064 120.075 113.889 119.571C114.589 119.139 115.237 119.257 115.427 119.303C115.512 119.165 115.597 119.028 115.676 118.871C116.376 117.529 117.587 118.04 117.777 118.871C117.809 119.015 117.822 119.165 117.816 119.322L117.829 119.316Z" fill="#FF8482"/>
<path opacity="0.46" d="M121.723 127.092C120.381 126.169 120.303 126.313 119.504 128.23C118.536 130.56 118.339 131.634 116.684 132.701C115.034 133.774 114.353 133.48 114.353 133.48C114.353 133.48 114.196 133.748 114.177 133.27V133.087C114.183 132.995 114.19 132.871 114.196 132.727C114.196 132.858 114.19 132.976 114.183 133.087C115.178 132.314 117.678 130.364 117.986 129.958C118.366 129.448 118.366 128.617 119.321 127.406C120.264 126.214 121.448 125.946 121.73 127.092H121.723Z" fill="#FF8482"/>
<path d="M126.423 116.253L123.379 121.639L120.715 126.352C120.316 127.058 119.419 127.307 118.713 126.908L115.669 125.18C114.969 124.781 114.72 123.884 115.119 123.184L117.96 118.157L120.827 113.085C121.226 112.384 122.129 112.136 122.829 112.535L125.873 114.263C126.573 114.656 126.822 115.559 126.423 116.259V116.253Z" fill="#FF786B"/>
<path opacity="0.54" d="M126.423 116.252L123.379 121.639L117.96 118.163L120.827 113.091C121.226 112.391 122.129 112.142 122.829 112.541L125.873 114.269C126.573 114.662 126.822 115.565 126.423 116.265V116.252Z" fill="#FFC5BF"/>
<path d="M141.66 120.762L132.346 137.649C132.346 137.649 130.801 138.585 129.8 137.649C128.799 136.713 128.929 136.307 128.929 136.307L130.147 134.016L138.374 118.622C138.374 118.622 139.048 118.74 139.886 119.12C139.958 119.152 140.043 119.185 140.115 119.224C141.057 119.689 141.66 120.762 141.66 120.762Z" fill="#006070"/>
<path opacity="0.46" d="M139.886 119.119C138.38 121.822 131.089 135.004 131.122 135.672C131.161 136.418 129.892 136.333 129.839 135.299C129.833 135.122 129.944 134.657 130.147 134.009L138.374 118.615C138.374 118.615 139.048 118.733 139.886 119.113V119.119Z" fill="#083364"/>
<path opacity="0.46" d="M137.674 137.615C137.733 137.471 137.87 137.177 138.04 136.804C137.883 137.19 137.752 137.471 137.674 137.615Z" fill="#FF8482"/>
<path d="M132.975 150.68C132.975 150.68 114.91 179.681 113.123 181.468C111.337 183.254 110.217 183.477 110.217 183.477C110.217 183.477 108.653 183.254 107.763 182.809C106.873 182.358 99.9547 177.678 99.9547 177.678C99.9547 177.678 99.5882 172.239 100.832 168.227C100.969 167.788 101.12 167.369 101.296 166.977C103.083 162.958 105.976 159.391 105.976 159.391H105.983L108.653 160.844L110.892 162.061L126.056 144.887C126.056 144.887 128.066 144.665 130.298 146.674C130.71 147.047 131.057 147.414 131.364 147.774C132.68 149.357 132.975 150.693 132.975 150.693V150.68Z" fill="#FFCFAA"/>
<path d="M142.177 144.449C141.496 146.078 139.343 147.034 137.497 147.983C135.128 149.2 132.974 150.68 132.974 150.68C132.974 150.68 131.561 149.868 130.055 148.86C129.741 148.644 129.414 148.422 129.1 148.199C127.3 146.903 126.063 144.874 126.063 144.874C126.063 144.874 125.297 140.875 125.513 138.866C125.729 136.856 127.064 134.52 127.601 133.839C128.596 132.556 129.093 131.784 130.095 130.92C130.225 130.815 130.343 130.73 130.461 130.665C131.292 130.22 131.894 130.756 131.894 130.756C131.894 130.756 130.821 133.839 130.821 134.985C130.821 136.13 132.549 137.354 133.046 137.282C133.439 137.223 134.512 135.966 135.311 135.07C135.547 134.808 135.756 134.572 135.92 134.409C136.522 133.813 137.654 132.825 138.806 133.656C138.904 133.721 139.009 133.813 139.107 133.911C139.14 133.944 139.173 133.977 139.199 134.016C139.303 134.121 139.408 134.258 139.506 134.409C139.834 134.899 140.161 135.495 140.455 136.163C140.586 136.444 140.711 136.745 140.835 137.053C140.907 137.243 140.986 137.446 141.058 137.642C141.064 137.648 141.058 137.655 141.058 137.655C141.254 138.179 141.424 138.715 141.581 139.252C141.666 139.566 141.758 139.88 141.836 140.188C141.856 140.266 141.876 140.352 141.895 140.43C141.902 140.45 141.908 140.476 141.915 140.496C142.072 141.143 142.196 141.778 142.301 142.361C142.327 142.544 142.353 142.714 142.373 142.878C142.452 143.46 142.373 143.977 142.177 144.436V144.449Z" fill="#FFCFAA"/>
<path d="M139.5 134.422C139.5 134.422 139.284 135.246 138.78 135.92C138.61 136.15 138.407 136.359 138.171 136.51C138.165 136.516 138.158 136.516 138.151 136.523C138.014 136.608 137.87 136.68 137.706 136.726C136.41 137.086 134.473 136.51 134.473 136.51C134.473 136.51 134.885 135.992 135.304 135.089C135.468 134.736 135.625 134.323 135.769 133.859C136.273 132.209 135.802 131.306 135.802 131.306L137.078 129.101L137.674 128.066C137.674 128.066 138.721 129.762 138.858 130.77C138.865 130.815 138.871 130.861 138.878 130.914C138.891 130.979 138.898 131.058 138.917 131.136C138.924 131.182 138.93 131.234 138.937 131.287C139.068 131.954 139.258 132.812 139.388 133.499C139.454 133.885 139.506 134.219 139.506 134.435L139.5 134.422Z" fill="#FFCFAA"/>
<path d="M141.215 136.071V136.084C141.215 136.326 141.208 136.562 141.189 136.784C141.162 137.079 141.123 137.36 141.058 137.609C141.058 137.622 141.058 137.635 141.051 137.648C140.986 137.949 140.894 138.211 140.796 138.434C140.796 138.434 140.743 138.388 140.174 137.818C140.122 137.76 140.05 137.694 139.984 137.629L139.853 137.498C139.232 136.876 138.793 136.555 138.773 135.907C138.754 135.665 138.8 135.371 138.924 134.984C138.976 134.814 139.016 134.618 139.035 134.408C139.035 134.402 139.042 134.395 139.042 134.389C139.061 134.232 139.074 134.075 139.088 133.911C139.127 132.975 139.009 131.889 138.924 131.26C138.917 131.215 138.911 131.162 138.904 131.11C138.891 131.025 138.878 130.94 138.865 130.887C138.859 130.828 138.852 130.789 138.852 130.756C139.009 130.94 140.796 133.178 141.071 134.69C141.156 135.168 141.202 135.626 141.208 136.051L141.215 136.071Z" fill="#FFCFAA"/>
<path d="M142.373 138.938C142.373 139.691 142.177 140.149 141.987 140.411C141.961 140.443 141.935 140.476 141.915 140.502C141.771 140.672 141.653 140.731 141.653 140.731C141.653 140.731 141.653 140.738 141.647 140.751C141.64 140.764 141.634 140.777 141.634 140.79C141.594 140.856 141.529 140.921 141.398 140.672C141.339 140.548 141.267 140.352 141.182 140.044C141.175 140.011 141.162 139.979 141.156 139.939C140.835 138.709 140.972 138.355 141.058 137.655C141.058 137.655 141.064 137.649 141.058 137.642C141.064 137.629 141.064 137.616 141.064 137.603C141.071 137.55 141.077 137.492 141.084 137.426C141.097 137.23 141.116 137.02 141.143 136.804C141.162 136.549 141.188 136.3 141.215 136.078V136.065C141.26 135.652 141.293 135.345 141.293 135.345C141.941 136.641 142.373 137.498 142.373 138.931V138.938Z" fill="#FFCFAA"/>
<path d="M142.223 144.468C142.223 144.468 142.19 144.462 142.177 144.449C141.968 144.37 141.797 143.853 141.693 143.218C141.555 142.407 141.523 141.399 141.634 140.797C141.634 140.783 141.64 140.77 141.647 140.757C141.66 140.666 141.68 140.581 141.699 140.515C141.712 140.495 141.719 140.476 141.725 140.456C141.758 140.378 141.797 140.286 141.83 140.201C142.033 139.756 142.236 139.272 142.367 138.951C142.452 138.728 142.511 138.591 142.511 138.591C143.728 140.306 142.799 144.547 142.223 144.475V144.468Z" fill="#FFCFAA"/>
<path opacity="0.46" d="M129.46 137.295C128.531 136.287 128.786 134.69 129.794 133.001C130.383 132.026 130.658 131.273 130.448 130.671C131.28 130.226 131.882 130.763 131.882 130.763C131.882 130.763 130.808 133.846 130.808 134.991C130.808 136.136 132.536 137.36 133.034 137.288C132.497 137.707 130.376 138.296 129.453 137.288L129.46 137.295Z" fill="#FF8482"/>
<path opacity="0.46" d="M142.223 144.468C142.223 144.468 142.19 144.462 142.177 144.449C141.496 146.078 139.343 147.034 137.497 147.983C135.128 149.2 132.975 150.679 132.975 150.679C132.975 150.679 114.91 179.681 113.123 181.467C111.337 183.254 110.217 183.477 110.217 183.477C110.217 183.477 108.653 183.254 107.763 182.809C106.873 182.358 99.9547 177.678 99.9547 177.678C99.9547 177.678 99.5882 172.239 100.832 168.227C102.73 164.738 104.818 161.282 105.989 159.391C106.546 158.481 106.892 157.938 106.892 157.938C106.892 157.938 108.025 158.887 108.66 160.844C108.758 161.138 108.849 161.466 108.915 161.813C109.412 164.424 106.133 174.536 106.133 174.536C106.133 174.536 109.838 178.66 111.435 176.048C112.934 173.62 127.28 152.623 130.055 148.873C130.265 148.598 130.409 148.415 130.474 148.343C130.625 148.179 130.939 147.989 131.364 147.78C133.793 146.582 139.919 144.75 140.999 143.886C141.261 143.676 141.49 143.46 141.693 143.231C141.941 142.963 142.144 142.681 142.301 142.393C142.629 141.778 142.74 141.183 142.602 140.679C142.524 140.391 142.282 140.351 141.987 140.43C141.954 140.436 141.928 140.443 141.895 140.456C141.837 140.476 141.765 140.502 141.699 140.528C141.601 140.58 141.496 140.639 141.398 140.698C140.92 140.98 140.495 141.353 140.495 141.353C140.495 141.353 140.796 140.836 141.182 140.07C141.313 139.828 141.444 139.566 141.581 139.278C141.614 139.219 141.64 139.147 141.673 139.082C142.269 137.818 142.092 137.399 141.594 136.81C141.496 136.693 141.352 136.712 141.189 136.804C141.169 136.81 141.156 136.817 141.143 136.824C141.045 136.889 140.933 136.981 140.835 137.079C140.619 137.288 140.39 137.563 140.181 137.838C139.814 138.322 139.513 138.807 139.428 138.951C139.487 138.813 139.742 138.309 139.991 137.648C140.168 137.203 140.338 136.699 140.456 136.189C140.508 135.946 140.554 135.698 140.586 135.462C140.75 133.859 139.736 132.177 139.487 133.184C139.467 133.27 139.435 133.381 139.395 133.499C139.343 133.662 139.271 133.846 139.199 134.042C139.16 134.153 139.107 134.284 139.055 134.415C139.055 134.421 139.048 134.428 139.048 134.435C138.78 135.102 138.446 135.881 138.178 136.516C138.152 136.568 138.126 136.614 138.106 136.673C138.126 136.627 138.145 136.581 138.158 136.529C138.466 135.744 138.787 134.677 138.8 133.682C138.806 133.394 138.78 133.119 138.728 132.844C138.348 131.025 137.707 129.82 137.085 129.107L137.68 128.073C137.68 128.073 138.728 129.768 138.865 130.776L138.872 130.782C139.029 130.972 140.816 133.211 141.09 134.723C141.176 135.2 141.221 135.658 141.228 136.084C141.274 135.672 141.306 135.364 141.306 135.364C141.954 136.66 142.386 137.517 142.386 138.951C142.471 138.735 142.53 138.597 142.53 138.597C143.748 140.312 142.818 144.553 142.242 144.481L142.223 144.468Z" fill="#FF8482"/>
<path d="M101.296 154.469C101.296 165.452 94.6205 169.464 92.0417 170.596C91.42 170.871 91.0404 170.982 91.0404 170.982C91.0404 170.982 85.909 170.085 84.7964 166.963C83.6772 163.835 83.8997 162.055 79.4425 159.378C76.8768 157.833 73.8596 154.521 71.595 150.699C69.9325 147.891 68.6693 144.808 68.2897 141.974C67.3996 135.285 72.76 127.922 79.6716 129.702C86.5832 131.489 89.0441 134.611 90.6018 139.52C92.1661 144.429 93.9529 143.977 96.4008 146.661C98.8617 149.338 99.5293 150.902 99.7518 152.453C99.9744 154.017 101.316 154.462 101.316 154.462L101.296 154.469Z" fill="#FFB337"/>
<path opacity="0.36" d="M93.9987 167.029C93.2984 168.574 92.7093 169.732 92.0352 170.603C91.4134 170.878 91.0338 170.989 91.0338 170.989C91.0338 170.989 85.9024 170.092 84.7898 166.97C83.6706 163.842 83.8931 162.062 79.4359 159.385C76.8702 157.84 73.853 154.528 71.5884 150.706C71.6015 149.017 71.7716 147.185 72.1054 145.136C73.6239 136.038 76.4841 132.838 76.4841 132.838C76.4841 132.838 74.9656 139.409 76.1503 143.618C77.3284 147.826 79.3508 149.174 82.211 151.197C85.0778 153.219 85.4116 152.715 88.7823 156.754C92.153 160.798 91.9828 158.946 95.1833 157.598C95.1833 157.598 95.6873 163.325 94.0052 167.029H93.9987Z" fill="#730303"/>
<path d="M108.215 161.387C107.325 165.844 104.419 176.552 102.193 178.791C101.375 179.609 100.498 179.89 99.6603 179.798C98.2138 179.648 96.8786 178.417 96.1717 177.004C95.0591 174.772 92.8272 175.662 90.3728 173.43C87.9184 171.198 88.8151 168.076 88.8151 168.076C88.8151 168.076 91.1451 163.331 93.3836 159.155C94.7515 156.616 96.0867 154.286 96.8459 153.356C98.8552 150.902 100.413 150.45 102.867 152.015C105.322 153.579 102.867 154.469 104.648 156.256C105.492 157.1 106.519 157.297 107.292 157.728C108.169 158.219 108.699 159.024 108.221 161.387H108.215Z" fill="#FFD796"/>
<path opacity="0.25" d="M108.215 161.387C107.325 165.844 104.419 176.552 102.193 178.791C101.375 179.609 100.498 179.89 99.6603 179.798C98.2138 179.648 96.8786 178.417 96.1717 177.004C95.0591 174.772 92.8272 175.662 90.3728 173.43C87.9184 171.198 88.8151 168.076 88.8151 168.076C88.8151 168.076 91.1451 163.331 93.3836 159.155C92.5131 161.891 91.6098 164.247 91.4855 167.193C91.3153 171.067 91.4855 171.571 93.6781 171.401C95.8707 171.231 95.8707 171.401 97.5528 167.356C99.2348 163.311 100.923 159.777 100.753 163.822C100.583 167.867 99.405 169.883 99.2348 172.416C99.0647 174.942 102.769 174.438 103.28 170.393C103.784 166.348 105.636 163.658 106.65 160.117C106.919 159.162 107.122 158.35 107.298 157.729C108.175 158.219 108.706 159.024 108.228 161.387H108.215Z" fill="#A80425"/>
<mask id="mask2_262_7615" style="mask-type:luminance" maskUnits="userSpaceOnUse" x="0" y="103" width="121" height="206">
<path d="M120.133 103.306H0.679199V308.644H120.133V103.306Z" fill="white"/>
</mask>
<g mask="url(#mask2_262_7615)">
<path d="M55.7888 229.207C50.88 227.643 47.5355 222.289 51.3251 216.045C55.1146 209.801 55.1146 200.206 55.1146 200.206H41.2849C41.2849 200.206 41.9525 203.106 39.0531 207.792C36.1536 212.478 33.4767 215.6 35.0344 221.176C36.5987 226.753 43.2877 230.097 43.2877 230.097L55.7822 229.207H55.7888Z" fill="#5176A1"/>
<path d="M95.7204 228.088H35.4861C31.2966 228.088 27.9004 231.484 27.9004 235.674V236.119C27.9004 240.308 31.2966 243.704 35.4861 243.704H95.7204C99.9098 243.704 103.306 240.308 103.306 236.119V235.674C103.306 231.484 99.9098 228.088 95.7204 228.088Z" fill="#5176A1"/>
<path d="M88.6451 228.088H28.4109C24.2214 228.088 20.8252 231.484 20.8252 235.674V236.119C20.8252 240.308 24.2214 243.704 28.4109 243.704H88.6451C92.8346 243.704 96.2309 240.308 96.2309 236.119V235.674C96.2309 231.484 92.8346 228.088 88.6451 228.088Z" fill="#083364"/>
<path d="M63.1718 241.669V297.505C63.1718 299.868 61.4766 301.851 59.2382 302.289C58.9306 302.348 58.6164 302.381 58.2957 302.381H56.9933C54.3098 302.381 52.1172 300.188 52.1172 297.505V241.669C52.1172 238.986 54.3098 236.793 56.9933 236.793H58.2957C58.6164 236.793 58.9306 236.826 59.2382 236.885C61.4766 237.323 63.1718 239.306 63.1718 241.669Z" fill="#083364"/>
<path d="M63.1715 294.029L63.1453 296.621L62.9228 319.09H54.82L53.0986 294.029H63.1715Z" fill="#083364"/>
<path d="M56.7835 292.806V305.582H23.8618V302.139L56.7835 292.806Z" fill="#083364"/>
<path d="M92.16 302.139V305.575H59.2383V292.806L63.1719 293.918L92.16 302.139Z" fill="#083364"/>
<path d="M92.16 302.139V305.045L63.1719 297.315L59.2383 296.268V236.884C61.4767 237.323 63.1719 239.306 63.1719 241.669V293.918L92.16 302.139Z" fill="#5176A1"/>
<path d="M29.5171 316.394C32.5028 316.394 34.9233 313.974 34.9233 310.988C34.9233 308.002 32.5028 305.582 29.5171 305.582C26.5313 305.582 24.1108 308.002 24.1108 310.988C24.1108 313.974 26.5313 316.394 29.5171 316.394Z" fill="#083364"/>
<path d="M84.79 316.394C87.7758 316.394 90.1962 313.974 90.1962 310.988C90.1962 308.002 87.7758 305.582 84.79 305.582C81.8042 305.582 79.3838 308.002 79.3838 310.988C79.3838 313.974 81.8042 316.394 84.79 316.394Z" fill="#083364"/>
<path d="M50.7361 229.207C45.8273 227.643 42.4827 222.289 46.2723 216.045C50.0619 209.801 50.0619 200.206 50.0619 200.206H36.2322C36.2322 200.206 36.8998 203.106 34.0003 207.792C31.1009 212.478 28.4239 215.6 29.9817 221.176C31.5459 226.753 38.235 230.097 38.235 230.097L50.7295 229.207H50.7361Z" fill="#083364"/>
<path d="M33.0841 202.078C41.0887 203.668 56.4303 203.583 63.6561 203.433C65.888 203.387 67.6748 201.58 67.6944 199.355C67.7926 190.068 67.4195 166.211 61.8038 146.216C56.6856 127.975 51.7964 120.638 49.4402 117.948C48.6614 117.051 47.5291 116.547 46.3379 116.547H19.7256C16.944 116.547 14.9543 119.243 15.7855 121.901C18.8879 131.797 25.2824 153.481 27.4488 170.315C29.373 185.25 29.7265 193.916 29.7461 198.059C29.7527 200.023 31.1533 201.698 33.0776 202.078H33.0841Z" fill="#5176A1"/>
<path d="M27.7301 202.078C35.7347 203.668 51.0763 203.583 58.3021 203.433C60.534 203.387 62.3208 201.58 62.3404 199.355C62.4386 190.068 62.0655 166.211 56.4498 146.216C51.3316 127.975 46.4424 120.638 44.0862 117.948C43.3074 117.051 42.1751 116.547 40.9839 116.547H14.3716C11.59 116.547 9.60026 119.243 10.4315 121.901C13.5338 131.797 19.9284 153.481 22.0948 170.315C24.019 185.25 24.3725 193.916 24.3921 198.059C24.3987 200.023 25.7993 201.698 27.7235 202.078H27.7301Z" fill="#083364"/>
<path d="M63.414 322.036V324.739C63.414 326.343 62.3799 327.717 60.9399 328.215C61.7188 327.37 62.105 324.589 61.8497 321.604C61.7319 320.256 61.5355 319.51 61.3588 319.091C61.2083 318.757 61.0774 318.633 60.9988 318.587C60.9661 318.561 60.9465 318.561 60.9465 318.561V296.268C60.9465 296.268 62.2162 296.379 63.1522 296.622L62.9296 319.091H61.9348C62.838 319.758 63.4205 320.832 63.4205 322.036H63.414Z" fill="#5176A1"/>
</g>
</g>
<defs>
<clipPath id="clip0_262_7615">
<rect width="315.714" height="327.731" fill="white" transform="translate(0.679199 0.692383)"/>
</clipPath>
</defs>
</svg>
