<svg width="407" height="511" viewBox="0 0 407 511" fill="none" xmlns="http://www.w3.org/2000/svg">
<g clip-path="url(#clip0_262_8053)">
<path d="M369.258 335.052C368.141 335.052 367.009 334.751 366.02 334.149L346.565 322.488L347.74 320.525L367.195 332.186C368.456 332.946 370.032 332.946 371.292 332.215L402.953 313.691C403.454 313.39 403.755 312.875 403.741 312.287C403.741 311.7 403.411 311.199 402.91 310.912L360.705 288.32L361.78 286.3L403.985 308.892C405.245 309.565 406.004 310.812 406.033 312.244C406.062 313.677 405.331 314.952 404.113 315.668L372.453 334.192C371.464 334.765 370.361 335.052 369.272 335.052H369.258Z" fill="#B4D3E9"/>
<path d="M290.564 510.261C289.189 510.261 287.814 509.917 286.582 509.229L208.934 466.007C207.788 465.377 207.1 464.202 207.1 462.899C207.1 461.581 207.774 460.42 208.92 459.776L244.062 439.963C244.62 439.647 244.678 439.117 244.678 438.902C244.678 438.687 244.62 438.157 244.062 437.842L204.966 415.393C203.891 414.777 203.232 413.66 203.204 412.428C203.175 411.196 203.791 410.05 204.837 409.391L220.81 399.276L222.042 401.21L206.069 411.325C205.539 411.654 205.496 412.17 205.496 412.385C205.496 412.585 205.567 413.101 206.112 413.416L245.208 435.865C246.311 436.51 246.97 437.642 246.97 438.917C246.97 440.192 246.297 441.338 245.193 441.954L210.051 461.767C209.464 462.096 209.407 462.655 209.407 462.884C209.407 463.114 209.478 463.672 210.066 464.002L287.713 507.224C289.561 508.255 291.825 508.212 293.644 507.109L323.171 488.958C323.4 488.815 323.443 488.6 323.443 488.485C323.443 488.385 323.414 488.156 323.171 488.012L301.81 475.019L302.999 473.056L324.374 486.05C325.233 486.565 325.749 487.482 325.749 488.485C325.749 489.488 325.248 490.39 324.388 490.921L294.862 509.072C293.558 509.86 292.083 510.261 290.607 510.261H290.564Z" fill="#B4D3E9"/>
<path d="M324.102 336.241L286.668 314.623C284.376 313.291 284.662 310.984 287.313 309.451L323.458 288.578C326.108 287.045 330.119 286.873 332.426 288.206L369.86 309.824C372.152 311.156 371.866 313.462 369.215 314.995L333.07 335.869C330.42 337.401 326.409 337.573 324.102 336.241Z" fill="#B4D3E9"/>
<path d="M382.266 293.363V277.188H346.007L333.471 269.925C330.592 268.263 325.563 268.478 322.254 270.383L310.564 277.131H274.262V293.749C274.176 294.867 274.806 295.956 276.196 296.758L323.071 323.82C325.95 325.482 330.979 325.267 334.288 323.361L379.544 297.231C381.464 296.128 382.381 294.695 382.281 293.363H382.266Z" fill="#3B6DAB"/>
<path d="M328.257 268.822C326.151 268.88 323.973 269.41 322.24 270.398L310.55 277.146H274.247V293.764C274.162 294.881 274.792 295.97 276.181 296.773L323.057 323.835C324.432 324.637 326.323 324.995 328.271 324.952V268.822H328.257Z" fill="#3B6DAB"/>
<path d="M278.359 277.131H274.247V293.763C274.162 294.881 274.792 295.97 276.181 296.772L278.359 298.033V277.131Z" fill="#5793CE"/>
<path d="M323.772 324.178C326.251 325.239 329.847 325.181 332.741 324.078V305.196H323.772V324.178Z" fill="#5793CE"/>
<path d="M323.056 307.259L276.181 280.197C273.302 278.535 273.66 275.641 276.983 273.721L322.24 247.59C325.563 245.671 330.592 245.47 333.457 247.132L380.332 274.194C383.212 275.856 382.854 278.75 379.53 280.67L334.274 306.8C330.95 308.72 325.922 308.921 323.056 307.259Z" fill="#D4EAF9"/>
<path d="M323.902 302.388L284.619 279.71C282.213 278.32 282.513 275.885 285.293 274.28L323.214 252.376C325.993 250.771 330.205 250.599 332.626 251.989L371.908 274.667C374.315 276.057 374.014 278.492 371.235 280.097L333.314 302.001C330.535 303.606 326.323 303.778 323.902 302.388Z" fill="#5793CE"/>
<path d="M365.032 297.632C365.032 298.835 364.186 300.311 363.141 300.912C362.095 301.514 361.25 301.027 361.25 299.824C361.25 298.62 362.095 297.145 363.141 296.543C364.186 295.941 365.032 296.428 365.032 297.632Z" fill="#D4EAF9"/>
<path d="M371.12 294.107C371.12 295.311 370.275 296.786 369.229 297.388C368.183 297.99 367.338 297.503 367.338 296.299C367.338 295.096 368.183 293.62 369.229 293.019C370.275 292.417 371.12 292.904 371.12 294.107Z" fill="#D4EAF9"/>
<path d="M377.209 290.598C377.209 291.801 376.364 293.277 375.318 293.878C374.272 294.48 373.427 293.993 373.427 292.79C373.427 291.586 374.272 290.111 375.318 289.509C376.364 288.907 377.209 289.394 377.209 290.598Z" fill="#D4EAF9"/>
<path d="M382.266 267.519V251.345H346.007L333.471 244.081C330.592 242.419 325.563 242.634 322.254 244.54L310.564 251.287H274.262V267.906C274.176 269.023 274.806 270.112 276.196 270.914L323.071 297.976C325.95 299.638 330.979 299.423 334.288 297.518L379.544 271.387C381.464 270.284 382.381 268.851 382.281 267.519H382.266Z" fill="#3B6DAB"/>
<path d="M328.257 242.979C326.151 243.036 323.973 243.566 322.24 244.554L310.55 251.302H274.247V267.92C274.162 269.038 274.792 270.127 276.181 270.929L323.057 297.991C324.432 298.793 326.323 299.151 328.271 299.108V242.979H328.257Z" fill="#3B6DAB"/>
<path d="M278.359 251.287H274.247V267.92C274.162 269.037 274.792 270.126 276.181 270.928L278.359 272.189V251.287Z" fill="#5793CE"/>
<path d="M323.772 298.335C326.251 299.395 329.847 299.337 332.741 298.234V279.353H323.772V298.335Z" fill="#5793CE"/>
<path d="M323.056 281.415L276.181 254.353C273.302 252.691 273.66 249.797 276.983 247.878L322.24 221.747C325.563 219.827 330.592 219.626 333.457 221.288L380.332 248.35C383.212 250.012 382.854 252.906 379.53 254.826L334.274 280.957C330.95 282.876 325.922 283.077 323.056 281.415Z" fill="#D4EAF9"/>
<path d="M323.902 276.545L284.619 253.866C282.213 252.477 282.513 250.041 285.293 248.437L323.214 226.532C325.993 224.927 330.205 224.756 332.626 226.145L371.908 248.823C374.315 250.213 374.014 252.649 371.235 254.253L333.314 276.158C330.535 277.762 326.323 277.934 323.902 276.545Z" fill="#5793CE"/>
<path d="M365.032 271.788C365.032 272.991 364.186 274.467 363.141 275.069C362.095 275.67 361.25 275.183 361.25 273.98C361.25 272.777 362.095 271.301 363.141 270.699C364.186 270.098 365.032 270.585 365.032 271.788Z" fill="#D4EAF9"/>
<path d="M371.12 268.264C371.12 269.467 370.275 270.943 369.229 271.544C368.183 272.146 367.338 271.659 367.338 270.456C367.338 269.252 368.183 267.777 369.229 267.175C370.275 266.573 371.12 267.06 371.12 268.264Z" fill="#D4EAF9"/>
<path d="M377.209 264.754C377.209 265.957 376.364 267.433 375.318 268.035C374.272 268.636 373.427 268.149 373.427 266.946C373.427 265.742 374.272 264.267 375.318 263.665C376.364 263.063 377.209 263.55 377.209 264.754Z" fill="#D4EAF9"/>
<path d="M382.266 241.674V225.5H346.007L333.471 218.237C330.592 216.575 325.563 216.79 322.254 218.695L310.564 225.443H274.262V242.061C274.176 243.178 274.806 244.267 276.196 245.069L323.071 272.131C325.95 273.793 330.979 273.578 334.288 271.673L379.544 245.542C381.464 244.439 382.381 243.006 382.281 241.674H382.266Z" fill="#3B6DAB"/>
<path d="M328.256 217.133C326.151 217.19 323.973 217.72 322.239 218.709L310.549 225.456H274.247V242.075C274.161 243.192 274.791 244.281 276.181 245.083L323.056 272.145C324.431 272.947 326.322 273.306 328.271 273.263V217.133H328.256Z" fill="#3B6DAB"/>
<path d="M278.359 225.442H274.247V242.075C274.161 243.192 274.791 244.281 276.181 245.083L278.359 246.344V225.442Z" fill="#5793CE"/>
<path d="M323.772 272.489C326.251 273.549 329.847 273.492 332.741 272.389V253.507H323.772V272.489Z" fill="#5793CE"/>
<path d="M323.056 255.57L276.181 228.508C273.302 226.846 273.66 223.953 276.983 222.033L322.24 195.902C325.563 193.982 330.592 193.782 333.457 195.444L380.332 222.506C383.212 224.167 382.854 227.061 379.53 228.981L334.274 255.112C330.95 257.032 325.922 257.232 323.056 255.57Z" fill="#D4EAF9"/>
<path d="M379.544 225.787L334.288 251.917C330.964 253.837 325.936 254.038 323.071 252.376L276.195 225.314C275.551 224.941 275.078 224.512 274.763 224.039C273.774 225.629 274.218 227.348 276.195 228.494L323.071 255.556C325.95 257.218 330.979 257.003 334.288 255.098L379.544 228.967C382.123 227.477 382.911 225.4 381.779 223.767C381.335 224.497 380.576 225.185 379.544 225.787Z" fill="white"/>
<path d="M365.032 245.943C365.032 247.147 364.186 248.622 363.141 249.224C362.095 249.826 361.25 249.339 361.25 248.135C361.25 246.932 362.095 245.456 363.141 244.855C364.186 244.253 365.032 244.74 365.032 245.943Z" fill="#D4EAF9"/>
<path d="M371.12 242.419C371.12 243.622 370.275 245.098 369.229 245.7C368.183 246.301 367.338 245.814 367.338 244.611C367.338 243.407 368.183 241.932 369.229 241.33C370.275 240.728 371.12 241.216 371.12 242.419Z" fill="#D4EAF9"/>
<path d="M377.209 238.909C377.209 240.113 376.364 241.588 375.318 242.19C374.272 242.792 373.427 242.304 373.427 241.101C373.427 239.898 374.272 238.422 375.318 237.82C376.364 237.219 377.209 237.706 377.209 238.909Z" fill="#D4EAF9"/>
<path d="M325.821 238.793L303.888 226.129C302.541 225.355 302.713 223.994 304.261 223.092L325.435 210.857C326.982 209.955 329.346 209.869 330.692 210.642L352.626 223.307C353.972 224.08 353.8 225.441 352.253 226.344L331.079 238.578C329.532 239.481 327.168 239.567 325.821 238.793Z" fill="#5793CE"/>
<path d="M327.927 228.178L324.89 226.43C324.704 226.33 324.733 226.129 324.947 226.015L327.884 224.324C328.099 224.195 328.429 224.181 328.615 224.295L331.652 226.043C331.838 226.158 331.81 226.344 331.595 226.459L328.658 228.149C328.443 228.278 328.113 228.292 327.927 228.178Z" fill="#D4EAF9"/>
<path d="M303.888 226.13L303.945 226.158C304.046 226.087 304.146 226.015 304.26 225.943L325.434 213.709C326.982 212.806 329.346 212.72 330.692 213.494L352.568 226.115C353.815 225.227 353.872 224.024 352.625 223.293L330.692 210.629C329.346 209.855 326.996 209.955 325.434 210.844L304.26 223.078C302.699 223.981 302.541 225.327 303.888 226.115V226.13Z" fill="#3B6DAB"/>
<path d="M239.793 413.789L158.893 367.659C155.928 365.954 156.3 362.96 159.724 360.998L206.27 334.122C209.679 332.145 214.851 331.93 217.817 333.649L298.716 379.779C301.682 381.484 301.309 384.478 297.885 386.441L251.34 413.317C247.93 415.294 242.759 415.508 239.793 413.789Z" fill="#B4D3E9"/>
<path d="M305.923 364.234V175.373L230.839 155.718L217.015 147.738C213.834 145.904 208.29 146.133 204.637 148.254L191.729 155.703L151.688 155.675L163.55 338.003C163.464 339.25 164.151 340.439 165.67 341.327L240.595 397.872C243.776 399.706 249.32 399.477 252.973 397.356L302.914 368.532C305.034 367.314 306.051 365.724 305.923 364.263V364.234Z" fill="#3B6DAB"/>
<path d="M211.256 146.507C208.935 146.564 206.528 147.152 204.623 148.255L191.715 155.704L151.673 155.676V345.053C151.587 346.299 152.275 347.488 153.793 348.376L240.581 397.859C242.1 398.732 244.177 399.134 246.326 399.091L247.214 208.525L211.241 146.507H211.256Z" fill="#D4EAF9"/>
<path d="M241.383 398.245C244.12 399.42 248.088 399.348 251.283 398.13V206.261H241.383V398.231V398.245Z" fill="#5793CE"/>
<path d="M240.581 208.553L153.793 159.07C150.613 157.237 151.014 154.042 154.681 151.922L204.622 123.098C208.29 120.977 213.834 120.748 217 122.582L303.788 172.064C306.968 173.898 306.567 177.093 302.899 179.213L252.958 208.037C249.291 210.157 243.747 210.387 240.581 208.553Z" fill="#D4EAF9"/>
<path d="M302.899 175.689L252.959 204.513C249.291 206.633 243.747 206.863 240.581 205.029L153.793 155.547C153.091 155.131 152.561 154.658 152.203 154.143C151.114 155.89 151.601 157.796 153.793 159.056L240.581 208.539C243.761 210.373 249.305 210.143 252.959 208.023L302.899 179.199C305.75 177.551 306.61 175.259 305.378 173.454C304.876 174.256 304.06 175.03 302.899 175.689Z" fill="#FAFDFF"/>
<path d="M243.045 188.496L185.268 155.002C183.778 154.142 183.964 152.652 185.683 151.65L209.049 138.154C210.768 137.166 213.361 137.051 214.837 137.911L272.614 171.405C274.104 172.265 273.918 173.755 272.199 174.758L248.833 188.253C247.114 189.241 244.521 189.356 243.045 188.496Z" fill="#1F3F7A"/>
<path d="M211.843 156.506L208.491 154.572C208.29 154.457 208.304 154.242 208.548 154.113L211.786 152.251C212.029 152.108 212.387 152.093 212.588 152.222L215.94 154.156C216.141 154.271 216.126 154.486 215.883 154.615L212.645 156.477C212.402 156.62 212.043 156.635 211.843 156.506Z" fill="#D4EAF9"/>
<path d="M223.031 162.938L219.679 161.004C219.478 160.89 219.493 160.675 219.736 160.546L222.974 158.683C223.218 158.54 223.576 158.526 223.776 158.655L227.129 160.589C227.329 160.703 227.315 160.918 227.071 161.047L223.834 162.91C223.59 163.053 223.232 163.067 223.031 162.938Z" fill="#D4EAF9"/>
<path d="M234.22 169.356L230.868 167.422C230.667 167.308 230.682 167.093 230.925 166.964L234.163 165.101C234.407 164.958 234.765 164.944 234.965 165.073L238.318 167.007C238.518 167.121 238.504 167.336 238.26 167.465L235.023 169.328C234.779 169.471 234.421 169.485 234.22 169.356Z" fill="#D4EAF9"/>
<path d="M245.409 175.789L242.056 173.855C241.856 173.74 241.87 173.525 242.114 173.396L245.351 171.534C245.595 171.391 245.953 171.376 246.154 171.505L249.506 173.439C249.707 173.554 249.692 173.769 249.449 173.898L246.211 175.76C245.967 175.903 245.609 175.918 245.409 175.789Z" fill="#D4EAF9"/>
<path d="M185.254 155.002L185.325 155.045C185.44 154.959 185.54 154.887 185.669 154.801L209.035 141.306C210.754 140.318 213.347 140.203 214.823 141.063L272.543 174.514C273.918 173.54 273.99 172.193 272.614 171.405L214.837 137.911C213.347 137.051 210.754 137.166 209.049 138.154L185.683 151.65C183.964 152.638 183.778 154.142 185.268 155.002H185.254Z" fill="#5793CE"/>
<path d="M262.715 245.972L295.564 227.162C297.412 226.088 298.917 223.237 298.917 220.773V209.025C298.917 206.561 297.412 205.429 295.564 206.489L262.715 225.3C260.867 226.374 259.362 229.225 259.362 231.689V243.437C259.362 245.901 260.867 247.032 262.715 245.972Z" fill="#1F3F7A"/>
<path d="M297.198 206.131C297.713 206.618 298.043 207.449 298.043 208.581V220.328C298.043 222.792 296.539 225.657 294.69 226.717L261.841 245.528C261.253 245.872 260.695 245.957 260.208 245.886C260.824 246.459 261.712 246.545 262.715 245.972L295.564 227.162C297.412 226.101 298.917 223.236 298.917 220.772V209.025C298.917 207.349 298.215 206.317 297.198 206.145V206.131Z" fill="white"/>
<path d="M272.6 233.208L275.608 231.475C276.009 231.245 276.339 230.615 276.339 230.085V226.862C276.339 226.317 276.009 226.074 275.608 226.303L272.6 228.036C272.199 228.265 271.869 228.896 271.869 229.426V232.649C271.869 233.194 272.199 233.437 272.6 233.208Z" fill="#3B6DAB"/>
<path d="M282.671 227.392L285.68 225.658C286.081 225.429 286.41 224.799 286.41 224.268V221.045C286.41 220.501 286.081 220.257 285.68 220.486L282.671 222.22C282.27 222.449 281.94 223.079 281.94 223.609V226.833C281.94 227.377 282.27 227.621 282.671 227.392Z" fill="white"/>
<path d="M262.715 330.87L295.564 312.06C297.412 310.985 298.917 308.134 298.917 305.67V293.923C298.917 291.459 297.412 290.327 295.564 291.387L262.715 310.197C260.867 311.257 259.362 314.122 259.362 316.587V328.334C259.362 330.798 260.867 331.93 262.715 330.87Z" fill="#1F3F7A"/>
<path d="M297.198 291.028C297.713 291.515 298.043 292.346 298.043 293.478V305.226C298.043 307.69 296.539 310.555 294.69 311.615L261.841 330.425C261.253 330.769 260.695 330.855 260.208 330.783C260.824 331.356 261.712 331.442 262.715 330.869L295.564 312.059C297.412 310.999 298.917 308.134 298.917 305.67V293.922C298.917 292.246 298.215 291.215 297.198 291.043V291.028Z" fill="white"/>
<path d="M272.6 318.105L275.608 316.372C276.009 316.143 276.339 315.512 276.339 314.982V311.759C276.339 311.215 276.009 310.971 275.608 311.2L272.6 312.934C272.199 313.163 271.869 313.793 271.869 314.323V317.547C271.869 318.091 272.199 318.335 272.6 318.105Z" fill="#3B6DAB"/>
<path d="M282.671 312.289L285.68 310.556C286.081 310.326 286.41 309.696 286.41 309.166V305.943C286.41 305.398 286.081 305.155 285.68 305.398L282.671 307.132C282.27 307.361 281.94 307.991 281.94 308.521V311.745C281.94 312.289 282.27 312.533 282.671 312.303V312.289Z" fill="#3B6DAB"/>
<path d="M262.715 373.318L295.564 354.508C297.412 353.433 298.917 350.582 298.917 348.118V336.371C298.917 333.907 297.412 332.775 295.564 333.835L262.715 352.645C260.867 353.72 259.362 356.571 259.362 359.035V370.782C259.362 373.246 260.867 374.378 262.715 373.318Z" fill="#1F3F7A"/>
<path d="M297.198 333.477C297.713 333.964 298.043 334.795 298.043 335.926V347.674C298.043 350.138 296.539 353.003 294.69 354.063L261.841 372.873C261.253 373.217 260.695 373.303 260.208 373.232C260.824 373.805 261.712 373.891 262.715 373.317L295.564 354.507C297.412 353.447 298.917 350.582 298.917 348.118V336.37C298.917 334.694 298.215 333.663 297.198 333.491V333.477Z" fill="white"/>
<path d="M272.6 360.554L275.608 358.82C276.009 358.591 276.339 357.961 276.339 357.431V354.207C276.339 353.663 276.009 353.419 275.608 353.648L272.6 355.382C272.199 355.611 271.869 356.241 271.869 356.772V359.995C271.869 360.539 272.199 360.783 272.6 360.554Z" fill="white"/>
<path d="M282.671 354.737L285.68 353.004C286.081 352.775 286.41 352.144 286.41 351.614V348.391C286.41 347.846 286.081 347.603 285.68 347.832L282.671 349.566C282.27 349.795 281.94 350.425 281.94 350.955V354.179C281.94 354.723 282.27 354.966 282.671 354.737Z" fill="#3B6DAB"/>
<path d="M262.715 288.42L295.564 269.61C297.412 268.536 298.917 265.685 298.917 263.221V251.473C298.917 249.009 297.412 247.878 295.564 248.938L262.715 267.748C260.867 268.822 259.362 271.673 259.362 274.137V285.885C259.362 288.349 260.867 289.481 262.715 288.42Z" fill="#1F3F7A"/>
<path d="M297.198 248.579C297.713 249.066 298.043 249.897 298.043 251.029V262.776C298.043 265.24 296.539 268.106 294.69 269.166L261.841 287.976C261.253 288.32 260.695 288.406 260.208 288.334C260.824 288.907 261.712 288.993 262.715 288.42L295.564 269.61C297.412 268.55 298.917 265.684 298.917 263.22V251.473C298.917 249.797 298.215 248.765 297.198 248.593V248.579Z" fill="white"/>
<path d="M272.6 275.656L275.608 273.923C276.009 273.694 276.339 273.063 276.339 272.533V269.31C276.339 268.765 276.009 268.522 275.608 268.751L272.6 270.484C272.199 270.714 271.869 271.344 271.869 271.874V275.098C271.869 275.642 272.199 275.885 272.6 275.656Z" fill="white"/>
<path d="M282.671 269.84L285.68 268.106C286.081 267.877 286.41 267.247 286.41 266.717V263.493C286.41 262.949 286.081 262.705 285.68 262.935L282.671 264.668C282.27 264.897 281.94 265.528 281.94 266.058V269.281C281.94 269.825 282.27 270.069 282.671 269.84Z" fill="white"/>
<path d="M234.263 233.939L158.464 190.173C156.773 189.198 155.398 186.562 155.398 184.299V169.844C155.398 167.58 156.773 166.549 158.464 167.523L234.263 211.289C235.954 212.264 237.329 214.9 237.329 217.163V231.618C237.329 233.882 235.954 234.913 234.263 233.939Z" fill="#5793CE"/>
<path opacity="0.4" d="M232.086 228.868L160.641 187.623C159.782 187.122 159.08 185.789 159.08 184.643V173.784C159.08 172.638 159.782 172.108 160.641 172.609L232.086 213.854C232.945 214.356 233.647 215.688 233.647 216.834V227.693C233.647 228.839 232.945 229.369 232.086 228.868Z" fill="#D4EAF9"/>
<path d="M175.54 190.732L164.882 184.571C164.051 184.084 163.363 182.795 163.363 181.677C163.363 180.56 164.037 180.044 164.882 180.531L175.54 186.692C176.371 187.179 177.059 188.468 177.059 189.585C177.059 190.703 176.386 191.219 175.54 190.732Z" fill="#D4EAF9"/>
<path d="M184.623 193.954C184.623 195.072 183.835 195.516 182.875 194.957C181.915 194.398 181.127 193.052 181.127 191.934C181.127 190.817 181.915 190.373 182.875 190.932C183.835 191.49 184.623 192.837 184.623 193.954Z" fill="#1F3F7A"/>
<path d="M190.784 197.508C190.784 198.626 189.996 199.07 189.036 198.511C188.076 197.952 187.288 196.606 187.288 195.488C187.288 194.371 188.076 193.927 189.036 194.485C189.996 195.044 190.784 196.391 190.784 197.508Z" fill="#1F3F7A"/>
<path d="M196.944 201.074C196.944 202.192 196.156 202.636 195.196 202.077C194.236 201.519 193.448 200.172 193.448 199.054C193.448 197.937 194.236 197.493 195.196 198.052C196.156 198.61 196.944 199.957 196.944 201.074Z" fill="#D4EAF9"/>
<path d="M203.118 204.628C203.118 205.746 202.33 206.19 201.37 205.631C200.41 205.072 199.623 203.726 199.623 202.608C199.623 201.491 200.41 201.047 201.37 201.605C202.33 202.164 203.118 203.511 203.118 204.628Z" fill="#1F3F7A"/>
<path d="M229.077 222.822L225.481 220.744C224.951 220.429 224.507 219.598 224.507 218.882V215.086C224.507 214.369 224.937 214.04 225.481 214.355L229.077 216.432C229.607 216.747 230.052 217.578 230.052 218.295V222.091C230.052 222.807 229.622 223.137 229.077 222.822Z" fill="#1F3F7A"/>
<path d="M234.263 259.425L158.464 215.659C156.773 214.685 155.398 212.049 155.398 209.785V195.33C155.398 193.067 156.773 192.035 158.464 193.009L234.263 236.776C235.954 237.75 237.329 240.386 237.329 242.649V257.104C237.329 259.368 235.954 260.399 234.263 259.425Z" fill="#5793CE"/>
<path opacity="0.4" d="M232.086 254.354L160.641 213.109C159.782 212.608 159.08 211.276 159.08 210.129V199.27C159.08 198.124 159.782 197.594 160.641 198.096L232.086 239.34C232.945 239.842 233.647 241.174 233.647 242.32V253.179C233.647 254.326 232.945 254.856 232.086 254.354Z" fill="#D4EAF9"/>
<path d="M175.54 216.218L164.882 210.058C164.051 209.57 163.363 208.281 163.363 207.164C163.363 206.046 164.037 205.531 164.882 206.018L175.54 212.178C176.371 212.665 177.059 213.954 177.059 215.072C177.059 216.189 176.386 216.705 175.54 216.218Z" fill="#D4EAF9"/>
<path d="M184.623 219.441C184.623 220.558 183.835 221.002 182.875 220.444C181.915 219.885 181.127 218.538 181.127 217.421C181.127 216.303 181.915 215.859 182.875 216.418C183.835 216.977 184.623 218.323 184.623 219.441Z" fill="white"/>
<path d="M190.784 222.994C190.784 224.112 189.996 224.556 189.036 223.997C188.076 223.439 187.288 222.092 187.288 220.974C187.288 219.857 188.076 219.413 189.036 219.972C189.996 220.53 190.784 221.877 190.784 222.994Z" fill="#1F3F7A"/>
<path d="M196.944 226.561C196.944 227.678 196.156 228.122 195.196 227.564C194.236 227.005 193.448 225.658 193.448 224.541C193.448 223.423 194.236 222.979 195.196 223.538C196.156 224.097 196.944 225.443 196.944 226.561Z" fill="#D4EAF9"/>
<path d="M203.118 230.115C203.118 231.232 202.33 231.676 201.37 231.117C200.41 230.559 199.623 229.212 199.623 228.095C199.623 226.977 200.41 226.533 201.37 227.092C202.33 227.65 203.118 228.997 203.118 230.115Z" fill="#1F3F7A"/>
<path d="M229.077 248.308L225.481 246.231C224.951 245.916 224.507 245.085 224.507 244.368V240.572C224.507 239.856 224.937 239.526 225.481 239.841L229.077 241.919C229.607 242.234 230.052 243.065 230.052 243.781V247.577C230.052 248.294 229.622 248.623 229.077 248.308Z" fill="#1F3F7A"/>
<path d="M234.263 284.911L158.464 241.144C156.773 240.17 155.398 237.534 155.398 235.271V220.816C155.398 218.552 156.773 217.521 158.464 218.495L234.263 262.261C235.954 263.235 237.329 265.871 237.329 268.135V282.59C237.329 284.853 235.954 285.885 234.263 284.911Z" fill="#5793CE"/>
<path opacity="0.4" d="M232.086 279.84L160.641 238.595C159.782 238.093 159.08 236.761 159.08 235.615V224.756C159.08 223.61 159.782 223.079 160.641 223.581L232.086 264.826C232.945 265.327 233.647 266.659 233.647 267.806V278.665C233.647 279.811 232.945 280.341 232.086 279.84Z" fill="#D4EAF9"/>
<path d="M175.54 241.703L164.882 235.543C164.051 235.056 163.363 233.767 163.363 232.649C163.363 231.532 164.037 231.016 164.882 231.503L175.54 237.663C176.371 238.15 177.059 239.44 177.059 240.557C177.059 241.675 176.386 242.19 175.54 241.703Z" fill="#D4EAF9"/>
<path d="M184.623 244.926C184.623 246.043 183.835 246.488 182.875 245.929C181.915 245.37 181.127 244.023 181.127 242.906C181.127 241.789 181.915 241.345 182.875 241.903C183.835 242.462 184.623 243.809 184.623 244.926Z" fill="white"/>
<path d="M190.784 248.48C190.784 249.597 189.996 250.041 189.036 249.483C188.076 248.924 187.288 247.577 187.288 246.46C187.288 245.342 188.076 244.898 189.036 245.457C189.996 246.016 190.784 247.362 190.784 248.48Z" fill="#1F3F7A"/>
<path d="M196.944 252.046C196.944 253.164 196.156 253.608 195.196 253.049C194.236 252.49 193.448 251.144 193.448 250.026C193.448 248.909 194.236 248.465 195.196 249.023C196.156 249.582 196.944 250.929 196.944 252.046Z" fill="#D4EAF9"/>
<path d="M203.118 255.6C203.118 256.717 202.33 257.161 201.37 256.603C200.41 256.044 199.623 254.697 199.623 253.58C199.623 252.462 200.41 252.018 201.37 252.577C202.33 253.136 203.118 254.482 203.118 255.6Z" fill="#1F3F7A"/>
<path d="M229.077 273.793L225.481 271.716C224.951 271.401 224.507 270.57 224.507 269.854V266.057C224.507 265.341 224.937 265.011 225.481 265.327L229.077 267.404C229.607 267.719 230.052 268.55 230.052 269.266V273.063C230.052 273.779 229.622 274.109 229.077 273.793Z" fill="#1F3F7A"/>
<path d="M234.263 310.397L158.464 266.631C156.773 265.656 155.398 263.02 155.398 260.757V246.302C155.398 244.038 156.773 243.007 158.464 243.981L234.263 287.747C235.954 288.722 237.329 291.358 237.329 293.621V308.076C237.329 310.34 235.954 311.371 234.263 310.397Z" fill="#5793CE"/>
<path opacity="0.4" d="M232.086 305.326L160.641 264.081C159.782 263.58 159.08 262.247 159.08 261.101V250.242C159.08 249.096 159.782 248.566 160.641 249.067L232.086 290.312C232.945 290.813 233.647 292.146 233.647 293.292V304.151C233.647 305.297 232.945 305.827 232.086 305.326Z" fill="#D4EAF9"/>
<path d="M175.54 267.19L164.882 261.029C164.051 260.542 163.363 259.253 163.363 258.135C163.363 257.018 164.037 256.502 164.882 256.989L175.54 263.15C176.371 263.637 177.059 264.926 177.059 266.043C177.059 267.161 176.386 267.677 175.54 267.19Z" fill="#D4EAF9"/>
<path d="M184.623 270.412C184.623 271.53 183.835 271.974 182.875 271.415C181.915 270.856 181.127 269.51 181.127 268.392C181.127 267.275 181.915 266.831 182.875 267.39C183.835 267.948 184.623 269.295 184.623 270.412Z" fill="#1F3F7A"/>
<path d="M190.784 273.966C190.784 275.084 189.996 275.528 189.036 274.969C188.076 274.41 187.288 273.064 187.288 271.946C187.288 270.829 188.076 270.385 189.036 270.943C189.996 271.502 190.784 272.849 190.784 273.966Z" fill="#1F3F7A"/>
<path d="M196.944 277.532C196.944 278.65 196.156 279.094 195.196 278.535C194.236 277.977 193.448 276.63 193.448 275.513C193.448 274.395 194.236 273.951 195.196 274.51C196.156 275.068 196.944 276.415 196.944 277.532Z" fill="#D4EAF9"/>
<path d="M203.118 281.086C203.118 282.204 202.33 282.648 201.37 282.089C200.41 281.53 199.623 280.184 199.623 279.066C199.623 277.949 200.41 277.505 201.37 278.063C202.33 278.622 203.118 279.969 203.118 281.086Z" fill="#1F3F7A"/>
<path d="M229.077 299.28L225.481 297.202C224.951 296.887 224.507 296.056 224.507 295.34V291.544C224.507 290.827 224.937 290.498 225.481 290.813L229.077 292.89C229.607 293.205 230.052 294.036 230.052 294.753V298.549C230.052 299.265 229.622 299.595 229.077 299.28Z" fill="#D4EAF9"/>
<path d="M234.263 335.883L158.464 292.117C156.773 291.143 155.398 288.507 155.398 286.243V271.788C155.398 269.525 156.773 268.493 158.464 269.467L234.263 313.234C235.954 314.208 237.329 316.844 237.329 319.107V333.562C237.329 335.826 235.954 336.857 234.263 335.883Z" fill="#5793CE"/>
<path opacity="0.4" d="M232.086 330.812L160.641 289.567C159.782 289.066 159.08 287.734 159.08 286.587V275.728C159.08 274.582 159.782 274.052 160.641 274.554L232.086 315.798C232.945 316.3 233.647 317.632 233.647 318.778V329.637C233.647 330.784 232.945 331.314 232.086 330.812Z" fill="#D4EAF9"/>
<path d="M175.54 292.676L164.882 286.516C164.051 286.029 163.363 284.739 163.363 283.622C163.363 282.504 164.037 281.989 164.882 282.476L175.54 288.636C176.371 289.123 177.059 290.412 177.059 291.53C177.059 292.647 176.386 293.163 175.54 292.676Z" fill="#D4EAF9"/>
<path d="M184.623 295.899C184.623 297.016 183.835 297.46 182.875 296.902C181.915 296.343 181.127 294.996 181.127 293.879C181.127 292.761 181.915 292.317 182.875 292.876C183.835 293.435 184.623 294.781 184.623 295.899Z" fill="#1F3F7A"/>
<path d="M190.784 299.452C190.784 300.57 189.996 301.014 189.036 300.455C188.076 299.897 187.288 298.55 187.288 297.432C187.288 296.315 188.076 295.871 189.036 296.43C189.996 296.988 190.784 298.335 190.784 299.452Z" fill="white"/>
<path d="M196.944 303.019C196.944 304.136 196.156 304.58 195.196 304.022C194.236 303.463 193.448 302.116 193.448 300.999C193.448 299.881 194.236 299.437 195.196 299.996C196.156 300.555 196.944 301.901 196.944 303.019Z" fill="#D4EAF9"/>
<path d="M203.118 306.573C203.118 307.69 202.33 308.134 201.37 307.575C200.41 307.017 199.623 305.67 199.623 304.553C199.623 303.435 200.41 302.991 201.37 303.55C202.33 304.108 203.118 305.455 203.118 306.573Z" fill="white"/>
<path d="M229.077 324.766L225.481 322.689C224.951 322.374 224.507 321.543 224.507 320.826V317.03C224.507 316.314 224.937 315.984 225.481 316.299L229.077 318.377C229.607 318.692 230.052 319.523 230.052 320.239V324.035C230.052 324.752 229.622 325.081 229.077 324.766Z" fill="#D4EAF9"/>
<path d="M234.263 361.37L158.464 317.603C156.773 316.629 155.398 313.993 155.398 311.73V297.275C155.398 295.011 156.773 293.98 158.464 294.954L234.263 338.72C235.954 339.694 237.329 342.33 237.329 344.594V359.049C237.329 361.312 235.954 362.344 234.263 361.37Z" fill="#5793CE"/>
<path opacity="0.4" d="M232.086 356.299L160.641 315.054C159.782 314.552 159.08 313.22 159.08 312.074V301.215C159.08 300.069 159.782 299.538 160.641 300.04L232.086 341.285C232.945 341.786 233.647 343.118 233.647 344.265V355.124C233.647 356.27 232.945 356.8 232.086 356.299Z" fill="#D4EAF9"/>
<path d="M175.54 318.162L164.882 312.002C164.051 311.515 163.363 310.226 163.363 309.108C163.363 307.991 164.037 307.475 164.882 307.962L175.54 314.122C176.371 314.609 177.059 315.899 177.059 317.016C177.059 318.134 176.386 318.649 175.54 318.162Z" fill="#D4EAF9"/>
<path d="M184.623 321.385C184.623 322.502 183.835 322.947 182.875 322.388C181.915 321.829 181.127 320.482 181.127 319.365C181.127 318.248 181.915 317.804 182.875 318.362C183.835 318.921 184.623 320.268 184.623 321.385Z" fill="#1F3F7A"/>
<path d="M190.784 324.939C190.784 326.056 189.996 326.5 189.036 325.942C188.076 325.383 187.288 324.036 187.288 322.919C187.288 321.801 188.076 321.357 189.036 321.916C189.996 322.475 190.784 323.821 190.784 324.939Z" fill="#1F3F7A"/>
<path d="M196.944 328.505C196.944 329.623 196.156 330.067 195.196 329.508C194.236 328.949 193.448 327.603 193.448 326.485C193.448 325.368 194.236 324.924 195.196 325.482C196.156 326.041 196.944 327.388 196.944 328.505Z" fill="#D4EAF9"/>
<path d="M203.118 332.059C203.118 333.176 202.33 333.62 201.37 333.062C200.41 332.503 199.623 331.156 199.623 330.039C199.623 328.921 200.41 328.477 201.37 329.036C202.33 329.595 203.118 330.941 203.118 332.059Z" fill="#1F3F7A"/>
<path d="M229.077 350.252L225.481 348.175C224.951 347.86 224.507 347.029 224.507 346.313V342.516C224.507 341.8 224.937 341.47 225.481 341.786L229.077 343.863C229.607 344.178 230.052 345.009 230.052 345.725V349.522C230.052 350.238 229.622 350.568 229.077 350.252Z" fill="#1F3F7A"/>
<path d="M234.263 386.856L158.464 343.09C156.773 342.115 155.398 339.479 155.398 337.216V322.761C155.398 320.497 156.773 319.466 158.464 320.44L234.263 364.206C235.954 365.181 237.329 367.817 237.329 370.08V384.535C237.329 386.799 235.954 387.83 234.263 386.856Z" fill="#5793CE"/>
<path opacity="0.4" d="M232.086 381.785L160.641 340.54C159.782 340.039 159.08 338.706 159.08 337.56V326.701C159.08 325.555 159.782 325.025 160.641 325.526L232.086 366.771C232.945 367.272 233.647 368.605 233.647 369.751V380.61C233.647 381.756 232.945 382.286 232.086 381.785Z" fill="#D4EAF9"/>
<path d="M175.54 343.648L164.882 337.488C164.051 337.001 163.363 335.712 163.363 334.594C163.363 333.477 164.037 332.961 164.882 333.448L175.54 339.609C176.371 340.096 177.059 341.385 177.059 342.502C177.059 343.62 176.386 344.136 175.54 343.648Z" fill="#D4EAF9"/>
<path d="M184.623 346.871C184.623 347.989 183.835 348.433 182.875 347.874C181.915 347.315 181.127 345.969 181.127 344.851C181.127 343.734 181.915 343.29 182.875 343.849C183.835 344.407 184.623 345.754 184.623 346.871Z" fill="white"/>
<path d="M190.784 350.425C190.784 351.543 189.996 351.987 189.036 351.428C188.076 350.869 187.288 349.523 187.288 348.405C187.288 347.288 188.076 346.844 189.036 347.402C189.996 347.961 190.784 349.308 190.784 350.425Z" fill="#1F3F7A"/>
<path d="M196.944 353.991C196.944 355.109 196.156 355.553 195.196 354.994C194.236 354.436 193.448 353.089 193.448 351.971C193.448 350.854 194.236 350.41 195.196 350.969C196.156 351.527 196.944 352.874 196.944 353.991Z" fill="#D4EAF9"/>
<path d="M203.118 357.545C203.118 358.663 202.33 359.107 201.37 358.548C200.41 357.989 199.623 356.643 199.623 355.525C199.623 354.408 200.41 353.964 201.37 354.522C202.33 355.081 203.118 356.428 203.118 357.545Z" fill="#1F3F7A"/>
<path d="M229.077 375.739L225.481 373.661C224.951 373.346 224.507 372.515 224.507 371.799V368.003C224.507 367.286 224.937 366.957 225.481 367.272L229.077 369.349C229.607 369.664 230.052 370.495 230.052 371.212V375.008C230.052 375.724 229.622 376.054 229.077 375.739Z" fill="#D4EAF9"/>
<path d="M212.215 154.701C211.585 154.701 211.069 154.185 211.069 153.555V106.436C211.069 105.806 211.585 105.29 212.215 105.29C212.845 105.29 213.361 105.806 213.361 106.436V153.555C213.361 154.185 212.845 154.701 212.215 154.701Z" fill="#5793CE"/>
<path d="M216.312 103.485H208.132V121.149H216.312V103.485Z" fill="#5793CE"/>
<path d="M215.109 122.812C213.504 123.729 210.926 123.729 209.321 122.812C207.717 121.895 207.717 120.391 209.321 119.474C210.926 118.557 213.504 118.557 215.109 119.474C216.713 120.391 216.713 121.895 215.109 122.812Z" fill="#5793CE"/>
<path d="M218.848 78.8584H205.582V106.565H218.848V78.8584Z" fill="#5793CE"/>
<path d="M208.132 106.393V112.367C210.539 113.47 213.92 113.47 216.313 112.367V106.393C213.906 105.29 210.525 105.29 208.132 106.393Z" fill="#3B6DAB"/>
<path d="M216.914 109.273C214.321 110.763 210.123 110.763 207.53 109.273C204.937 107.783 204.937 105.348 207.53 103.858C210.123 102.368 214.321 102.368 216.914 103.858C219.507 105.348 219.507 107.783 216.914 109.273Z" fill="#5793CE"/>
<path d="M223.403 161.391C222.773 161.391 222.257 160.876 222.257 160.245V113.127C222.257 112.496 222.773 111.98 223.403 111.98C224.034 111.98 224.55 112.496 224.55 113.127V160.245C224.55 160.876 224.034 161.391 223.403 161.391Z" fill="#5793CE"/>
<path d="M227.486 110.161H219.306V127.825H227.486V110.161Z" fill="#5793CE"/>
<path d="M226.297 129.501C224.693 130.418 222.114 130.418 220.51 129.501C218.905 128.584 218.905 127.08 220.51 126.163C222.114 125.246 224.693 125.246 226.297 126.163C227.902 127.08 227.902 128.584 226.297 129.501Z" fill="#5793CE"/>
<path d="M230.036 85.5488H216.77V113.256H230.036V85.5488Z" fill="#5793CE"/>
<path d="M219.306 113.07V119.044C221.713 120.147 225.094 120.147 227.486 119.044V113.07C225.08 111.966 221.699 111.966 219.306 113.07Z" fill="#3B6DAB"/>
<path d="M228.088 115.949C225.495 117.439 221.298 117.439 218.705 115.949C216.112 114.459 216.112 112.023 218.705 110.533C221.298 109.044 225.495 109.044 228.088 110.533C230.681 112.023 230.681 114.459 228.088 115.949Z" fill="#5793CE"/>
<path d="M234.592 168.067C233.962 168.067 233.446 167.551 233.446 166.921V119.802C233.446 119.172 233.962 118.656 234.592 118.656C235.223 118.656 235.738 119.172 235.738 119.802V166.921C235.738 167.551 235.223 168.067 234.592 168.067Z" fill="#5793CE"/>
<path d="M238.675 116.837H230.495V134.501H238.675V116.837Z" fill="#5793CE"/>
<path d="M237.486 136.177C235.882 137.094 233.303 137.094 231.699 136.177C230.094 135.26 230.094 133.756 231.699 132.839C233.303 131.922 235.882 131.922 237.486 132.839C239.091 133.756 239.091 135.26 237.486 136.177Z" fill="#5793CE"/>
<path d="M241.225 92.2246H227.959V119.931H241.225V92.2246Z" fill="#5793CE"/>
<path d="M230.495 119.745V125.719C232.902 126.822 236.283 126.822 238.675 125.719V119.745C236.269 118.642 232.888 118.642 230.495 119.745Z" fill="#3B6DAB"/>
<path d="M239.277 122.639C236.684 124.129 232.487 124.129 229.894 122.639C227.3 121.149 227.3 118.714 229.894 117.224C232.487 115.734 236.684 115.734 239.277 117.224C241.87 118.714 241.87 121.149 239.277 122.639Z" fill="#5793CE"/>
<path d="M245.781 174.743C245.151 174.743 244.635 174.227 244.635 173.597V126.478C244.635 125.848 245.151 125.332 245.781 125.332C246.411 125.332 246.927 125.848 246.927 126.478V173.597C246.927 174.227 246.411 174.743 245.781 174.743Z" fill="#5793CE"/>
<path d="M249.864 123.527H241.684V141.191H249.864V123.527Z" fill="#5793CE"/>
<path d="M248.675 142.853C247.07 143.77 244.492 143.77 242.887 142.853C241.282 141.936 241.282 140.432 242.887 139.515C244.492 138.598 247.07 138.598 248.675 139.515C250.279 140.432 250.279 141.936 248.675 142.853Z" fill="#5793CE"/>
<path d="M252.413 98.9004H239.147V126.607H252.413V98.9004Z" fill="#5793CE"/>
<path d="M241.684 126.421V132.395C244.09 133.498 247.471 133.498 249.864 132.395V126.421C247.457 125.318 244.076 125.318 241.684 126.421Z" fill="#3B6DAB"/>
<path d="M250.466 129.315C247.873 130.805 243.675 130.805 241.082 129.315C238.489 127.825 238.489 125.39 241.082 123.9C243.675 122.41 247.873 122.41 250.466 123.9C253.059 125.39 253.059 127.825 250.466 129.315Z" fill="#5793CE"/>
<path d="M297.77 149.557L315.549 139.085L298.616 117.939L294.16 125.217L297.77 149.557Z" fill="#5793CE"/>
<path d="M168.635 33.53L197.015 17.1982C197.015 17.1982 195.941 33.5014 195.941 33.53C195.941 33.5587 179.637 38.5871 179.637 38.5871L168.621 33.53H168.635Z" fill="#5793CE"/>
<path d="M302.713 96.393C300.55 95.1467 298.487 94.416 296.567 94.1152C293.702 79.0728 283.244 63.0991 270.766 55.8931C267.013 53.7299 263.445 52.5694 260.208 52.3259C258.503 34.1031 245.824 13.3732 230.438 4.49097C222.401 -0.150689 215.109 -0.695082 209.722 2.14149L209.465 2.28475C209.321 2.35638 209.192 2.44234 209.049 2.51397L192.316 12.399L197.875 16.7971C192.889 18.9747 189.723 24.5762 189.723 32.8567C189.723 48.114 200.439 66.6807 213.662 74.3165L302.713 137.91C312.641 143.641 320.678 138.999 320.678 127.538C320.678 116.077 312.627 102.138 302.713 96.4074V96.393Z" fill="#5793CE"/>
<path d="M190.54 26.1376L228.948 3.68857C221.484 -0.193808 214.751 -0.523308 209.694 2.14135L209.436 2.28461C209.293 2.35624 209.164 2.4422 209.02 2.51383L192.287 12.3989L197.846 16.797C194.35 18.3155 191.772 21.5246 190.525 26.1376H190.54Z" fill="#5793CE"/>
<path d="M261.482 92.1666L289.518 75.7203C284.705 67.4111 278.086 60.1478 270.766 55.9072C269.791 55.3485 268.832 54.8614 267.9 54.4316L232.243 75.2761L261.497 92.1666H261.482Z" fill="#5793CE"/>
<path d="M200.195 14.2327L212.688 21.4388L235.567 7.97223C233.89 6.66856 232.186 5.50814 230.423 4.49098C227.658 2.88646 224.979 1.78335 222.429 1.13867L200.195 14.2471V14.2327Z" fill="#D4EAF9"/>
<path d="M286.424 70.8779L264.047 84.058L271.826 92.7396L292.14 80.7486C290.536 77.3104 288.602 73.9867 286.424 70.8779Z" fill="#D4EAF9"/>
<path d="M285.135 106.751C282.972 105.505 280.909 104.774 278.989 104.473C276.124 89.4306 265.666 73.457 253.188 66.251C249.434 64.0877 245.867 62.9273 242.629 62.6838C240.925 44.461 228.246 23.7311 212.86 14.8489C196.313 5.29334 182.889 13.0438 182.889 32.1548C182.889 32.7995 182.904 33.4585 182.932 34.1175C170.827 28.5017 161.372 34.8338 161.372 49.1743C161.372 64.4316 172.088 82.9982 185.311 90.634L285.135 148.268C295.063 153.998 303.114 149.357 303.114 137.896C303.114 126.435 295.063 112.496 285.135 106.765V106.751Z" fill="#D4EAF9"/>
<path d="M182.932 34.1031C182.904 33.4441 182.889 32.785 182.889 32.1404C182.889 32.1117 182.889 32.0831 182.889 32.0544C176.199 29.4471 170.454 30.5788 166.844 34.7621C170.755 31.5387 176.457 31.0946 182.932 34.1031Z" fill="white"/>
<path d="M286.596 105.318C284.433 104.072 282.37 103.341 280.45 103.04C277.585 87.998 267.127 72.0244 254.649 64.8183C250.896 62.6551 247.328 61.4947 244.091 61.2511C242.386 43.0283 229.707 22.2984 214.321 13.4162C204.006 7.45655 194.909 8.23016 189.522 14.2758C195.009 9.57681 203.433 9.4049 212.86 14.8488C228.246 23.731 240.925 44.4466 242.629 62.6837C245.867 62.9273 249.434 64.0877 253.188 66.2509C265.666 73.457 276.138 89.4306 278.989 104.473C280.909 104.774 282.972 105.505 285.135 106.751C295.063 112.481 303.114 126.421 303.114 137.882C303.114 142.022 302.054 145.245 300.249 147.437C302.942 145.36 304.576 141.606 304.576 136.449C304.576 124.988 296.524 111.049 286.596 105.318Z" fill="white"/>
<path d="M180.826 38.6591L188.333 42.1403L187.946 33.8741C187.918 33.3011 187.903 32.7137 187.903 32.1407C187.903 24.7627 190.124 19.4191 194.178 17.0839C198.218 14.7488 203.963 15.4937 210.352 19.1899C224.091 27.1265 236.068 46.4238 237.644 63.1424L238.031 67.3543L242.242 67.6838C244.835 67.8843 247.672 68.8585 250.68 70.6063C261.597 76.9098 271.425 91.5511 274.061 105.419L274.72 108.886L278.215 109.43C279.605 109.645 281.095 110.204 282.628 111.092C291.008 115.934 298.086 128.197 298.086 137.867C298.086 141.492 297.083 144.142 295.335 145.159C293.587 146.162 290.779 145.718 287.642 143.899L187.817 86.2647C176.199 79.5601 166.4 62.5693 166.4 49.1601C166.4 43.9024 167.947 39.8911 170.655 38.1576C171.772 37.4413 173.119 37.0975 174.637 37.0975C176.485 37.0975 178.591 37.6276 180.841 38.6591H180.826Z" fill="#3B6DAB"/>
<path d="M230.653 101.235L233.275 99.9031L230.681 97.9404L230.653 101.235Z" fill="#5793CE"/>
<path d="M222.73 65.6497L225.295 64.3604L225.338 65.707L222.73 65.6497Z" fill="#5793CE"/>
<path d="M238.16 92.9119L240.825 91.5652L235.696 86.6943L238.16 92.9119Z" fill="#5793CE"/>
<path d="M232.516 99.8172L220.052 92.4679C219.422 92.0954 218.906 91.1499 218.906 90.3763L218.949 75.9355L233.705 84.6315L233.662 99.0722C233.662 99.8602 233.146 100.19 232.516 99.8172Z" fill="#5793CE"/>
<path d="M225.266 64.3744L211.8 73.0417C211.227 73.4142 211.685 74.7752 212.559 75.2909L226.312 83.3852L240.065 91.4794C240.939 91.9952 241.398 91.1642 240.839 90.1328L227.473 65.6637C226.9 64.6036 225.854 64.0019 225.281 64.3744H225.266Z" fill="#5793CE"/>
<path d="M229.836 101.164L217.373 93.8146C216.742 93.4421 216.227 92.4966 216.227 91.723L216.27 77.2822L231.025 85.9782L230.982 100.419C230.982 101.207 230.467 101.536 229.836 101.164Z" fill="#D4EAF9"/>
<path d="M222.587 65.7211L209.121 74.3884C208.548 74.7609 209.006 76.1218 209.88 76.6376L223.633 84.7318L237.386 92.8261C238.26 93.3418 238.718 92.5109 238.16 91.4794L224.793 67.0104C224.22 65.9503 223.175 65.3486 222.602 65.7211H222.587Z" fill="#D4EAF9"/>
<path d="M274.878 357.1H273.345V271.759L283.416 265.943V223.938H284.949V266.817L274.878 272.633V357.1Z" fill="white"/>
<path d="M32.6227 375.538C31.7345 375.538 30.8462 375.308 30.044 374.85L2.19399 359.077C1.34875 358.604 0.847334 357.73 0.833008 356.756C0.833008 355.782 1.33442 354.908 2.16534 354.435L71.6184 314.25C75.601 311.944 80.5579 311.944 84.5405 314.25L163.936 360.137L162.79 362.114L83.4088 316.227C80.1281 314.336 76.0595 314.336 72.7788 316.227L3.31143 356.426C3.13951 356.527 3.12519 356.684 3.12519 356.756C3.12519 356.828 3.15384 357 3.32575 357.085L31.1757 372.859C32.1356 373.403 33.296 373.374 34.2272 372.773L45.9889 365.165L47.2353 367.085L35.4736 374.692C34.614 375.251 33.6255 375.538 32.637 375.538H32.6227Z" fill="#B4D3E9"/>
<path d="M68.8821 381.627L31.4479 360.009C29.1557 358.676 29.4423 356.37 32.0926 354.837L68.2374 333.964C70.8877 332.431 74.899 332.259 77.2056 333.591L114.64 355.209C116.932 356.542 116.645 358.848 113.995 360.381L77.8502 381.254C75.1999 382.787 71.1886 382.959 68.8821 381.627Z" fill="#B4D3E9"/>
<path d="M127.046 338.748V322.574H90.7868L78.2514 315.311C75.3719 313.649 70.3434 313.864 67.0341 315.769L55.344 322.517H19.0273V339.135C18.9413 340.253 19.5717 341.341 20.9613 342.144L67.8363 369.206C70.7159 370.867 75.7444 370.653 79.0537 368.747L124.31 342.616C126.23 341.513 127.146 340.081 127.046 338.748Z" fill="#3B6DAB"/>
<path d="M73.0367 314.207C70.9308 314.264 68.7532 314.794 67.0198 315.783L55.3296 322.531H19.0273V339.149C18.9413 340.266 19.5717 341.355 20.9613 342.157L67.8363 369.219C69.2117 370.022 71.1027 370.38 73.0511 370.337V314.207H73.0367Z" fill="#3B6DAB"/>
<path d="M23.1389 322.517H19.0273V339.149C18.9413 340.267 19.5717 341.355 20.9613 342.158L23.1389 343.418V322.517Z" fill="#5793CE"/>
<path d="M68.5527 369.578C71.0312 370.638 74.627 370.581 77.5209 369.478V350.596H68.5527V369.578Z" fill="#5793CE"/>
<path d="M67.8219 352.645L20.9469 325.582C18.0673 323.921 18.4255 321.027 21.7491 319.107L67.0053 292.976C70.329 291.057 75.3575 290.856 78.2227 292.518L125.098 319.58C127.977 321.242 127.619 324.136 124.295 326.055L79.0393 352.186C75.7156 354.106 70.6871 354.306 67.8219 352.645Z" fill="#D4EAF9"/>
<path d="M68.6672 347.774L29.385 325.096C26.9782 323.706 27.2791 321.271 30.0583 319.666L67.9796 297.762C70.7588 296.157 74.9707 295.985 77.3918 297.375L116.674 320.053C119.081 321.443 118.78 323.878 116.001 325.483L78.0795 347.387C75.3002 348.992 71.0883 349.164 68.6672 347.774Z" fill="#5793CE"/>
<path d="M109.797 343.018C109.797 344.221 108.952 345.697 107.906 346.298C106.86 346.9 106.015 346.413 106.015 345.209C106.015 344.006 106.86 342.53 107.906 341.929C108.952 341.327 109.797 341.814 109.797 343.018Z" fill="#D4EAF9"/>
<path d="M115.9 339.508C115.9 340.711 115.055 342.187 114.009 342.788C112.963 343.39 112.118 342.903 112.118 341.7C112.118 340.496 112.963 339.021 114.009 338.419C115.055 337.817 115.9 338.304 115.9 339.508Z" fill="#D4EAF9"/>
<path d="M121.989 335.983C121.989 337.187 121.143 338.662 120.098 339.264C119.052 339.866 118.207 339.379 118.207 338.175C118.207 336.972 119.052 335.496 120.098 334.895C121.143 334.293 121.989 334.78 121.989 335.983Z" fill="#D4EAF9"/>
<path d="M127.046 312.905V296.73H90.7868L78.2514 289.467C75.3719 287.805 70.3434 288.02 67.0341 289.925L55.344 296.673H19.0273V313.291C18.9413 314.409 19.5717 315.498 20.9613 316.3L67.8363 343.362C70.7159 345.024 75.7444 344.809 79.0537 342.903L124.31 316.773C126.23 315.67 127.146 314.237 127.046 312.905Z" fill="#3B6DAB"/>
<path d="M73.0367 288.364C70.9308 288.422 68.7532 288.952 67.0198 289.94L55.3296 296.688H19.0273V313.306C18.9413 314.423 19.5717 315.512 20.9613 316.315L67.8363 343.377C69.2117 344.179 71.1027 344.537 73.0511 344.494V288.364H73.0367Z" fill="#3B6DAB"/>
<path d="M23.1389 296.673H19.0273V313.305C18.9413 314.423 19.5717 315.512 20.9613 316.314L23.1389 317.575V296.673Z" fill="#5793CE"/>
<path d="M68.5527 343.734C71.0312 344.794 74.627 344.737 77.5209 343.634V324.752H68.5527V343.734Z" fill="#5793CE"/>
<path d="M67.8219 326.801L20.9469 299.739C18.0673 298.077 18.4255 295.183 21.7491 293.263L67.0053 267.132C70.329 265.213 75.3575 265.012 78.2227 266.674L125.098 293.736C127.977 295.398 127.619 298.292 124.295 300.211L79.0393 326.342C75.7156 328.262 70.6871 328.463 67.8219 326.801Z" fill="#D4EAF9"/>
<path d="M68.6672 321.93L29.385 299.252C26.9782 297.862 27.2791 295.427 30.0583 293.822L67.9796 271.918C70.7588 270.313 74.9707 270.141 77.3918 271.531L116.674 294.209C119.081 295.599 118.78 298.034 116.001 299.639L78.0795 321.543C75.3002 323.148 71.0883 323.32 68.6672 321.93Z" fill="#5793CE"/>
<path d="M109.797 317.174C109.797 318.377 108.952 319.853 107.906 320.454C106.86 321.056 106.015 320.569 106.015 319.366C106.015 318.162 106.86 316.687 107.906 316.085C108.952 315.483 109.797 315.97 109.797 317.174Z" fill="#D4EAF9"/>
<path d="M115.9 313.649C115.9 314.853 115.055 316.328 114.009 316.93C112.963 317.532 112.118 317.045 112.118 315.841C112.118 314.638 112.963 313.162 114.009 312.561C115.055 311.959 115.9 312.446 115.9 313.649Z" fill="#D4EAF9"/>
<path d="M121.989 310.14C121.989 311.343 121.143 312.819 120.098 313.42C119.052 314.022 118.207 313.535 118.207 312.332C118.207 311.128 119.052 309.653 120.098 309.051C121.143 308.449 121.989 308.936 121.989 310.14Z" fill="#D4EAF9"/>
<path d="M127.046 287.06V270.886H90.7868L78.2514 263.622C75.3719 261.96 70.3434 262.175 67.0341 264.081L55.344 270.828H19.0273V287.447C18.9413 288.564 19.5717 289.653 20.9613 290.455L67.8363 317.517C70.7159 319.179 75.7444 318.964 79.0537 317.059L124.31 290.928C126.23 289.825 127.146 288.392 127.046 287.06Z" fill="#3B6DAB"/>
<path d="M73.0367 262.52C70.9308 262.577 68.7532 263.107 67.0198 264.095L55.3296 270.843H19.0273V287.461C18.9413 288.579 19.5717 289.668 20.9613 290.47L67.8363 317.532C69.2117 318.334 71.1027 318.692 73.0511 318.649V262.52H73.0367Z" fill="#3B6DAB"/>
<path d="M23.1389 270.828H19.0273V287.461C18.9413 288.578 19.5717 289.667 20.9613 290.469L23.1389 291.73V270.828Z" fill="#5793CE"/>
<path d="M68.5527 317.876C71.0312 318.936 74.627 318.878 77.5209 317.775V298.894H68.5527V317.876Z" fill="#5793CE"/>
<path d="M67.8219 300.956L20.9469 273.894C18.0673 272.232 18.4255 269.338 21.7491 267.419L67.0053 241.288C70.329 239.368 75.3575 239.167 78.2227 240.829L125.098 267.891C127.977 269.553 127.619 272.447 124.295 274.367L79.0393 300.498C75.7156 302.417 70.6871 302.618 67.8219 300.956Z" fill="#D4EAF9"/>
<path d="M124.31 271.172L79.0535 297.303C75.7299 299.223 70.7014 299.423 67.8362 297.762L20.9611 270.7C20.3164 270.327 19.8437 269.897 19.5285 269.425C18.54 271.015 18.9841 272.734 20.9611 273.88L67.8362 300.942C70.7157 302.604 75.7442 302.389 79.0535 300.484L124.31 274.353C126.888 272.863 127.676 270.786 126.545 269.152C126.101 269.883 125.341 270.571 124.31 271.172Z" fill="white"/>
<path d="M109.797 291.329C109.797 292.532 108.952 294.008 107.906 294.61C106.86 295.211 106.015 294.724 106.015 293.521C106.015 292.318 106.86 290.842 107.906 290.24C108.952 289.639 109.797 290.126 109.797 291.329Z" fill="#D4EAF9"/>
<path d="M115.9 287.805C115.9 289.008 115.055 290.484 114.009 291.085C112.963 291.687 112.118 291.2 112.118 289.997C112.118 288.793 112.963 287.318 114.009 286.716C115.055 286.114 115.9 286.601 115.9 287.805Z" fill="#D4EAF9"/>
<path d="M121.989 284.295C121.989 285.498 121.143 286.974 120.098 287.576C119.052 288.177 118.207 287.69 118.207 286.487C118.207 285.283 119.052 283.808 120.098 283.206C121.143 282.604 121.989 283.092 121.989 284.295Z" fill="#D4EAF9"/>
<path d="M70.6011 284.179L48.6678 271.515C47.3212 270.741 47.4931 269.38 49.0403 268.478L70.2143 256.243C71.7615 255.34 74.1253 255.255 75.472 256.028L97.4053 268.692C98.7519 269.466 98.58 270.827 97.0328 271.73L75.8588 283.964C74.3116 284.867 71.9478 284.953 70.6011 284.179Z" fill="#5793CE"/>
<path d="M72.6929 273.578L69.6557 271.83C69.4695 271.716 69.4981 271.53 69.713 271.415L72.6499 269.725C72.8648 269.596 73.1943 269.581 73.3805 269.696L76.4176 271.444C76.6039 271.558 76.5752 271.745 76.3603 271.859L73.4235 273.55C73.2086 273.679 72.8791 273.693 72.6929 273.578Z" fill="#D4EAF9"/>
<path d="M48.6678 271.515L48.7251 271.544C48.8254 271.472 48.9257 271.401 49.0403 271.329L70.2143 259.095C71.7615 258.192 74.1253 258.106 75.4719 258.88L97.3479 271.501C98.5943 270.613 98.6516 269.409 97.4052 268.679L75.4719 256.014C74.1253 255.241 71.7758 255.341 70.2143 256.229L49.0403 268.464C47.4787 269.366 47.3211 270.713 48.6678 271.501V271.515Z" fill="#3B6DAB"/>
<path d="M64.7991 305.684C64.7991 306.5 64.226 306.83 63.524 306.415C62.8221 306.013 62.249 305.025 62.249 304.208C62.249 303.392 62.8221 303.062 63.524 303.478C64.226 303.879 64.7991 304.867 64.7991 305.684Z" fill="#D4EAF9"/>
<path d="M60.8596 303.42C60.8596 304.237 60.2866 304.566 59.5846 304.151C58.8826 303.75 58.3096 302.761 58.3096 301.945C58.3096 301.128 58.8826 300.799 59.5846 301.214C60.2866 301.615 60.8596 302.604 60.8596 303.42Z" fill="#D4EAF9"/>
<path d="M64.7991 310.454C64.7991 311.271 64.226 311.6 63.524 311.185C62.8221 310.784 62.249 309.795 62.249 308.979C62.249 308.162 62.8221 307.833 63.524 308.248C64.226 308.649 64.7991 309.638 64.7991 310.454Z" fill="#D4EAF9"/>
<path d="M60.8596 308.191C60.8596 309.007 60.2866 309.337 59.5846 308.921C58.8826 308.52 58.3096 307.532 58.3096 306.715C58.3096 305.899 58.8826 305.569 59.5846 305.985C60.2866 306.386 60.8596 307.374 60.8596 308.191Z" fill="#D4EAF9"/>
<path d="M64.7991 331.399C64.7991 332.215 64.226 332.545 63.524 332.129C62.8221 331.728 62.249 330.74 62.249 329.923C62.249 329.107 62.8221 328.777 63.524 329.193C64.226 329.594 64.7991 330.582 64.7991 331.399Z" fill="#D4EAF9"/>
<path d="M60.8596 329.135C60.8596 329.952 60.2866 330.281 59.5846 329.866C58.8826 329.465 58.3096 328.476 58.3096 327.659C58.3096 326.843 58.8826 326.513 59.5846 326.929C60.2866 327.33 60.8596 328.318 60.8596 329.135Z" fill="#D4EAF9"/>
<path d="M64.7991 336.169C64.7991 336.986 64.226 337.315 63.524 336.9C62.8221 336.499 62.249 335.51 62.249 334.694C62.249 333.877 62.8221 333.548 63.524 333.963C64.226 334.364 64.7991 335.353 64.7991 336.169Z" fill="#D4EAF9"/>
<path d="M60.8596 333.906C60.8596 334.722 60.2866 335.052 59.5846 334.636C58.8826 334.235 58.3096 333.247 58.3096 332.43C58.3096 331.613 58.8826 331.284 59.5846 331.699C60.2866 332.1 60.8596 333.089 60.8596 333.906Z" fill="#D4EAF9"/>
<path d="M64.7991 357.115C64.7991 357.931 64.226 358.261 63.524 357.845C62.8221 357.444 62.249 356.456 62.249 355.639C62.249 354.822 62.8221 354.493 63.524 354.908C64.226 355.309 64.7991 356.298 64.7991 357.115Z" fill="#D4EAF9"/>
<path d="M60.8596 354.851C60.8596 355.667 60.2866 355.997 59.5846 355.582C58.8826 355.18 58.3096 354.192 58.3096 353.375C58.3096 352.559 58.8826 352.229 59.5846 352.645C60.2866 353.046 60.8596 354.034 60.8596 354.851Z" fill="#D4EAF9"/>
<path d="M64.7991 361.885C64.7991 362.702 64.226 363.031 63.524 362.616C62.8221 362.215 62.249 361.226 62.249 360.409C62.249 359.593 62.8221 359.263 63.524 359.679C64.226 360.08 64.7991 361.068 64.7991 361.885Z" fill="#D4EAF9"/>
<path d="M60.8596 359.621C60.8596 360.438 60.2866 360.767 59.5846 360.352C58.8826 359.951 58.3096 358.962 58.3096 358.146C58.3096 357.329 58.8826 357 59.5846 357.415C60.2866 357.816 60.8596 358.805 60.8596 359.621Z" fill="#D4EAF9"/>
<path d="M73.6386 400.852C72.2919 400.852 70.9596 400.508 69.7562 399.806L46.1324 386.096C45.3302 385.623 44.8574 384.793 44.8574 383.876C44.8574 382.959 45.3302 382.114 46.1468 381.655L61.6763 372.644L62.8224 374.621L47.2929 383.632C47.1783 383.704 47.1496 383.804 47.1496 383.876C47.1496 383.947 47.1783 384.048 47.2929 384.119L70.9166 397.829C72.5785 398.789 74.6558 398.803 76.3319 397.844L122.591 371.484C124.969 370.123 127.92 370.137 130.298 371.512L169.051 393.89C170.727 394.864 172.818 394.878 174.509 393.89L193.19 383.088L194.336 385.065L175.655 395.867C173.262 397.256 170.297 397.242 167.904 395.867L129.152 373.489C127.476 372.515 125.399 372.515 123.723 373.461L77.4637 399.821C76.2889 400.494 74.9566 400.823 73.6386 400.823V400.852Z" fill="#B4D3E9"/>
<path d="M278.832 488.07L241.398 466.452C239.105 465.12 239.392 462.813 242.042 461.28L278.187 440.407C280.837 438.874 284.849 438.702 287.155 440.035L324.589 461.653C326.882 462.985 326.595 465.292 323.945 466.824L287.8 487.698C285.15 489.231 281.138 489.402 278.832 488.07Z" fill="#B4D3E9"/>
<path d="M336.996 445.192V429.018H300.736L288.201 421.754C285.321 420.092 280.293 420.307 276.984 422.213L265.294 428.96H228.991V445.579C228.905 446.696 229.536 447.785 230.925 448.587L277.8 475.649C280.68 477.311 285.708 477.096 289.018 475.191L334.274 449.06C336.193 447.957 337.11 446.524 337.01 445.192H336.996Z" fill="#3B6DAB"/>
<path d="M282.986 420.65C280.88 420.708 278.702 421.238 276.969 422.226L265.279 428.974H228.976V445.592C228.891 446.71 229.521 447.798 230.911 448.601L277.786 475.663C279.161 476.465 281.052 476.823 283 476.78V420.65H282.986Z" fill="#3B6DAB"/>
<path d="M233.088 428.96H228.976V445.593C228.891 446.71 229.521 447.799 230.911 448.601L233.088 449.862V428.96Z" fill="#5793CE"/>
<path d="M278.502 476.021C280.98 477.081 284.576 477.024 287.47 475.921V457.039H278.502V476.021Z" fill="#5793CE"/>
<path d="M277.786 459.088L230.911 432.026C228.031 430.364 228.389 427.47 231.713 425.55L276.969 399.42C280.293 397.5 285.321 397.299 288.187 398.961L335.062 426.023C337.941 427.685 337.583 430.579 334.259 432.499L289.003 458.629C285.679 460.549 280.651 460.75 277.786 459.088Z" fill="#D4EAF9"/>
<path d="M278.631 454.217L239.349 431.539C236.942 430.149 237.243 427.714 240.022 426.11L277.943 404.205C280.723 402.6 284.935 402.428 287.356 403.818L326.638 426.496C329.045 427.886 328.744 430.321 325.965 431.926L288.043 453.831C285.264 455.435 281.052 455.607 278.631 454.217Z" fill="#5793CE"/>
<path d="M319.761 449.461C319.761 450.664 318.916 452.14 317.87 452.742C316.824 453.343 315.979 452.856 315.979 451.653C315.979 450.449 316.824 448.974 317.87 448.372C318.916 447.77 319.761 448.258 319.761 449.461Z" fill="#D4EAF9"/>
<path d="M325.849 445.936C325.849 447.14 325.004 448.615 323.958 449.217C322.913 449.819 322.067 449.332 322.067 448.128C322.067 446.925 322.913 445.449 323.958 444.848C325.004 444.246 325.849 444.733 325.849 445.936Z" fill="#D4EAF9"/>
<path d="M331.938 442.427C331.938 443.63 331.093 445.106 330.047 445.707C329.002 446.309 328.156 445.822 328.156 444.619C328.156 443.415 329.002 441.94 330.047 441.338C331.093 440.736 331.938 441.223 331.938 442.427Z" fill="#D4EAF9"/>
<path d="M336.996 419.348V403.174H300.736L288.201 395.91C285.321 394.249 280.293 394.463 276.984 396.369L265.294 403.116H228.991V419.735C228.905 420.852 229.536 421.941 230.925 422.743L277.8 449.805C280.68 451.467 285.708 451.252 289.018 449.347L334.274 423.216C336.193 422.113 337.11 420.68 337.01 419.348H336.996Z" fill="#3B6DAB"/>
<path d="M282.986 394.808C280.88 394.865 278.702 395.395 276.969 396.383L265.279 403.131H228.976V419.749C228.891 420.867 229.521 421.956 230.911 422.758L277.786 449.82C279.161 450.622 281.052 450.98 283 450.937V394.808H282.986Z" fill="#3B6DAB"/>
<path d="M233.088 403.116H228.976V419.749C228.891 420.866 229.521 421.955 230.911 422.757L233.088 424.018V403.116Z" fill="#5793CE"/>
<path d="M278.502 450.164C280.98 451.224 284.576 451.167 287.47 450.063V431.182H278.502V450.164Z" fill="#5793CE"/>
<path d="M277.786 433.244L230.911 406.182C228.031 404.52 228.389 401.626 231.713 399.707L276.969 373.576C280.293 371.656 285.321 371.456 288.187 373.117L335.062 400.179C337.941 401.841 337.583 404.735 334.259 406.655L289.003 432.786C285.679 434.705 280.651 434.906 277.786 433.244Z" fill="#D4EAF9"/>
<path d="M278.631 428.374L239.349 405.695C236.942 404.306 237.243 401.87 240.022 400.266L277.943 378.361C280.723 376.757 284.935 376.585 287.356 377.974L326.638 400.653C329.045 402.042 328.744 404.478 325.965 406.082L288.043 427.987C285.264 429.591 281.052 429.763 278.631 428.374Z" fill="#5793CE"/>
<path d="M319.761 423.617C319.761 424.821 318.916 426.296 317.87 426.898C316.824 427.5 315.979 427.012 315.979 425.809C315.979 424.606 316.824 423.13 317.87 422.528C318.916 421.927 319.761 422.414 319.761 423.617Z" fill="#D4EAF9"/>
<path d="M325.849 420.093C325.849 421.296 325.004 422.772 323.958 423.373C322.913 423.975 322.067 423.488 322.067 422.285C322.067 421.081 322.913 419.606 323.958 419.004C325.004 418.402 325.849 418.889 325.849 420.093Z" fill="#D4EAF9"/>
<path d="M331.938 416.583C331.938 417.786 331.093 419.262 330.047 419.864C329.002 420.465 328.156 419.978 328.156 418.775C328.156 417.571 329.002 416.096 330.047 415.494C331.093 414.892 331.938 415.38 331.938 416.583Z" fill="#D4EAF9"/>
<path d="M336.996 393.503V377.329H300.736L288.201 370.066C285.321 368.404 280.293 368.619 276.984 370.524L265.294 377.272H228.991V393.89C228.905 395.007 229.536 396.096 230.925 396.899L277.8 423.961C280.68 425.622 285.708 425.407 289.018 423.502L334.274 397.371C336.193 396.268 337.11 394.836 337.01 393.503H336.996Z" fill="#3B6DAB"/>
<path d="M282.986 368.962C280.88 369.019 278.702 369.549 276.969 370.538L265.279 377.285H228.976V393.904C228.891 395.021 229.521 396.11 230.911 396.912L277.786 423.974C279.161 424.776 281.052 425.135 283 425.092V368.962H282.986Z" fill="#3B6DAB"/>
<path d="M233.088 377.271H228.976V393.904C228.891 395.022 229.521 396.11 230.911 396.913L233.088 398.173V377.271Z" fill="#5793CE"/>
<path d="M278.502 424.318C280.98 425.378 284.576 425.321 287.47 424.218V405.336H278.502V424.318Z" fill="#5793CE"/>
<path d="M277.786 407.399L230.911 380.337C228.031 378.676 228.389 375.782 231.713 373.862L276.969 347.731C280.293 345.811 285.321 345.611 288.187 347.273L335.062 374.335C337.941 375.997 337.583 378.89 334.259 380.81L289.003 406.941C285.679 408.861 280.651 409.061 277.786 407.399Z" fill="#D4EAF9"/>
<path d="M334.259 377.616L289.003 403.747C285.68 405.666 280.651 405.867 277.786 404.205L230.911 377.143C230.266 376.77 229.793 376.341 229.478 375.868C228.49 377.458 228.934 379.177 230.911 380.323L277.786 407.385C280.665 409.047 285.694 408.832 289.003 406.927L334.259 380.796C336.838 379.306 337.626 377.229 336.494 375.596C336.05 376.326 335.291 377.014 334.259 377.616Z" fill="white"/>
<path d="M319.761 397.772C319.761 398.976 318.916 400.451 317.87 401.053C316.824 401.655 315.979 401.168 315.979 399.964C315.979 398.761 316.824 397.285 317.87 396.684C318.916 396.082 319.761 396.569 319.761 397.772Z" fill="#D4EAF9"/>
<path d="M325.849 394.248C325.849 395.451 325.004 396.927 323.958 397.529C322.913 398.13 322.067 397.643 322.067 396.44C322.067 395.237 322.913 393.761 323.958 393.159C325.004 392.558 325.849 393.045 325.849 394.248Z" fill="#D4EAF9"/>
<path d="M331.938 390.738C331.938 391.942 331.093 393.417 330.047 394.019C329.002 394.621 328.156 394.134 328.156 392.93C328.156 391.727 329.002 390.251 330.047 389.649C331.093 389.048 331.938 389.535 331.938 390.738Z" fill="#D4EAF9"/>
<path d="M280.55 390.623L258.617 377.959C257.27 377.185 257.442 375.824 258.99 374.922L280.164 362.687C281.711 361.785 284.075 361.699 285.421 362.472L307.355 375.137C308.701 375.91 308.529 377.271 306.982 378.174L285.808 390.408C284.261 391.311 281.897 391.397 280.55 390.623Z" fill="#5793CE"/>
<path d="M282.657 380.022L279.62 378.274C279.433 378.159 279.462 377.973 279.677 377.858L282.614 376.168C282.829 376.039 283.158 376.025 283.344 376.139L286.382 377.887C286.568 378.002 286.539 378.188 286.324 378.302L283.387 379.993C283.172 380.122 282.843 380.136 282.657 380.022Z" fill="#D4EAF9"/>
<path d="M258.617 377.959L258.675 378.002C258.775 377.93 258.875 377.859 258.99 377.787L280.164 365.553C281.726 364.65 284.075 364.564 285.422 365.338L307.298 377.959C308.544 377.071 308.601 375.867 307.355 375.137L285.422 362.473C284.075 361.699 281.726 361.799 280.164 362.687L258.99 374.922C257.428 375.824 257.271 377.171 258.617 377.959Z" fill="#3B6DAB"/>
<path d="M210.969 118.083C210.969 118.9 210.395 119.229 209.693 118.814C208.992 118.413 208.418 117.424 208.418 116.608C208.418 115.791 208.992 115.462 209.693 115.877C210.395 116.278 210.969 117.267 210.969 118.083Z" fill="#D4EAF9"/>
<path d="M222.186 124.888C222.186 125.705 221.613 126.034 220.911 125.619C220.209 125.217 219.636 124.229 219.636 123.412C219.636 122.596 220.209 122.266 220.911 122.682C221.613 123.083 222.186 124.071 222.186 124.888Z" fill="#D4EAF9"/>
<path d="M233.403 131.693C233.403 132.509 232.83 132.839 232.128 132.423C231.426 132.022 230.853 131.034 230.853 130.217C230.853 129.4 231.426 129.071 232.128 129.486C232.83 129.888 233.403 130.876 233.403 131.693Z" fill="#D4EAF9"/>
<path d="M244.635 138.497C244.635 139.314 244.062 139.643 243.36 139.228C242.658 138.827 242.085 137.838 242.085 137.022C242.085 136.205 242.658 135.876 243.36 136.291C244.062 136.692 244.635 137.681 244.635 138.497Z" fill="#D4EAF9"/>
</g>
<defs>
<clipPath id="clip0_262_8053">
<rect width="405.2" height="509.852" fill="white" transform="translate(0.833008 0.408203)"/>
</clipPath>
</defs>
</svg>
