<?xml version="1.0" encoding="UTF-8"?>
<svg xmlns="http://www.w3.org/2000/svg" width="363" height="387.64" xmlns:xlink="http://www.w3.org/1999/xlink" viewBox="0 0 363 387.64">
  <defs>
    <style>
      .cls-1 {
        fill: #10191b;
      }

      .cls-2 {
        fill: #968e72;
        opacity: .18;
      }

      .cls-3 {
        fill: #ecf5fe;
      }

      .cls-4 {
        clip-path: url(#clippath-6);
      }

      .cls-5 {
        clip-path: url(#clippath-7);
      }

      .cls-6 {
        fill: #ae9e65;
        opacity: .36;
      }

      .cls-7 {
        clip-path: url(#clippath-15);
      }

      .cls-8 {
        fill: #ffb700;
      }

      .cls-9 {
        fill: #ee9c76;
      }

      .cls-10 {
        clip-path: url(#clippath-4);
      }

      .cls-11 {
        fill: #cddcfb;
      }

      .cls-12 {
        fill: #a2966c;
        opacity: .27;
      }

      .cls-13 {
        fill: #b9a65f;
        opacity: .45;
      }

      .cls-14 {
        fill: #fbc70e;
      }

      .cls-15 {
        fill: #f3cc3e;
        opacity: .91;
      }

      .cls-16 {
        fill: #1499fc;
      }

      .cls-17 {
        clip-path: url(#clippath-9);
      }

      .cls-18 {
        clip-path: url(#clippath-10);
      }

      .cls-19 {
        fill: #dcbd4b;
        opacity: .73;
      }

      .cls-20 {
        fill: #fff;
      }

      .cls-21 {
        fill: #e8c545;
        opacity: .82;
      }

      .cls-22 {
        fill: #d0b552;
        opacity: .64;
      }

      .cls-23 {
        opacity: .17;
      }

      .cls-23, .cls-24 {
        fill: #929394;
      }

      .cls-25 {
        fill: #7f7f7f;
        opacity: 0;
      }

      .cls-26 {
        fill: #0f76c2;
      }

      .cls-27 {
        opacity: .67;
      }

      .cls-27, .cls-28 {
        fill: #caced4;
      }

      .cls-29 {
        fill: #b5b3c4;
      }

      .cls-30 {
        fill: #c6d5fa;
      }

      .cls-31 {
        fill: #d4e2fc;
      }

      .cls-32 {
        opacity: .83;
      }

      .cls-32, .cls-33 {
        fill: #dce2e9;
      }

      .cls-34 {
        fill: #becef9;
      }

      .cls-35 {
        fill: #283032;
      }

      .cls-36 {
        opacity: .4;
      }

      .cls-36, .cls-37, .cls-38, .cls-39 {
        fill: #eff6fe;
      }

      .cls-40 {
        clip-path: url(#clippath-1);
      }

      .cls-41 {
        isolation: isolate;
      }

      .cls-42 {
        fill: #30383a;
      }

      .cls-33 {
        opacity: .83;
      }

      .cls-43 {
        clip-path: url(#clippath-5);
      }

      .cls-44 {
        fill: #0d1315;
      }

      .cls-45 {
        fill: #50cef5;
      }

      .cls-46 {
        clip-path: url(#clippath-8);
      }

      .cls-47 {
        fill: #e6f1fe;
      }

      .cls-48 {
        fill: #f3ab05;
      }

      .cls-49 {
        fill: #f1f1f1;
      }

      .cls-50 {
        fill: #f3a984;
      }

      .cls-51 {
        fill: #c99c83;
      }

      .cls-52 {
        fill: #37404a;
      }

      .cls-53 {
        clip-path: url(#clippath-3);
      }

      .cls-28 {
        opacity: .67;
      }

      .cls-54 {
        clip-path: url(#clippath-12);
      }

      .cls-55 {
        fill: #b7bbbf;
      }

      .cls-55, .cls-39 {
        opacity: .5;
      }

      .cls-56 {
        fill: #13b7fd;
      }

      .cls-57 {
        mix-blend-mode: screen;
      }

      .cls-58 {
        fill: #98a4e0;
      }

      .cls-59 {
        fill: #021b74;
      }

      .cls-60 {
        mix-blend-mode: overlay;
      }

      .cls-61 {
        fill: #ffd438;
      }

      .cls-62 {
        fill: #f8b495;
      }

      .cls-63 {
        fill: #dae8fd;
      }

      .cls-64 {
        fill: #242a31;
      }

      .cls-65 {
        fill: #f4f4f4;
      }

      .cls-38 {
        opacity: .2;
      }

      .cls-66 {
        fill: #b98c74;
      }

      .cls-67 {
        clip-path: url(#clippath-2);
      }

      .cls-68 {
        fill: #15d9fd;
      }

      .cls-69 {
        fill: #8b8779;
        opacity: .09;
      }

      .cls-24 {
        opacity: .17;
      }

      .cls-70 {
        fill: #ffbfa2;
      }

      .cls-71 {
        clip-path: url(#clippath);
      }

      .cls-72 {
        fill: #f5a783;
      }

      .cls-73 {
        opacity: .33;
      }

      .cls-73, .cls-74 {
        fill: #a4a7a9;
      }

      .cls-75 {
        fill: #3a4648;
      }

      .cls-76 {
        fill: #353f41;
      }

      .cls-74 {
        opacity: .33;
      }

      .cls-77 {
        fill: #c5ad58;
        opacity: .55;
      }
    </style>
    <clipPath id="clippath">
      <path class="cls-11" d="M158.73,74.57l14.4,8.37c-4.81-2.79-11.47-2.4-18.81,1.84-1.57.91-3.1,1.95-4.6,3.12l-14.4-8.37c1.49-1.17,3.03-2.21,4.6-3.12,7.35-4.24,14.01-4.64,18.81-1.84Z"/>
    </clipPath>
    <clipPath id="clippath-1">
      <path class="cls-11" d="M124.97,64.53l14.4,8.37c-7.21-4.19-17.19-3.6-28.21,2.76l-14.4-8.37c11.02-6.36,21-6.95,28.21-2.76Z"/>
    </clipPath>
    <clipPath id="clippath-2">
      <path class="cls-11" d="M72.79,132.31l-14.4-8.37c4.26-22.28,19.81-45.93,38.37-56.65l14.4,8.37c-18.56,10.72-34.1,34.37-38.37,56.65Z"/>
    </clipPath>
    <clipPath id="clippath-3">
      <path class="cls-11" d="M49.55,197.11l-14.4-8.37c-4.75-2.76-7.69-8.62-7.71-16.96-.05-16.78,11.75-37.22,26.36-45.65,1.57-.91,3.1-1.64,4.6-2.19l14.4,8.37c-1.49.56-3.03,1.29-4.6,2.19-14.6,8.43-26.4,28.87-26.36,45.65.02,8.34,2.97,14.2,7.71,16.96Z"/>
    </clipPath>
    <clipPath id="clippath-4">
      <path class="cls-31" d="M160.62,284.21v9.38c-.02,6.11-4.03,12.21-12.06,16.87-16.15,9.38-42.41,9.38-58.66,0-8.18-4.72-12.27-10.92-12.25-17.11v-9.38c-.02,6.19,4.07,12.39,12.25,17.11,16.25,9.38,42.52,9.38,58.66,0,8.02-4.66,12.04-10.76,12.06-16.87Z"/>
    </clipPath>
    <clipPath id="clippath-5">
      <path class="cls-16" d="M159.47,267.99l-.04,13.53c-.02,5.94-3.92,11.87-11.72,16.41-15.7,9.12-41.23,9.12-57.04,0-7.95-4.59-11.93-10.62-11.91-16.64l.04-13.53c-.02,6.02,3.96,12.05,11.91,16.64,15.8,9.12,41.34,9.12,57.04,0,7.8-4.53,11.71-10.47,11.72-16.41Z"/>
    </clipPath>
    <clipPath id="clippath-6">
      <path class="cls-31" d="M160.62,257.95v9.38c-.02,6.11-4.03,12.21-12.06,16.87-16.15,9.38-42.41,9.38-58.66,0-8.18-4.72-12.27-10.92-12.25-17.11v-9.38c-.02,6.19,4.07,12.39,12.25,17.11,16.25,9.38,42.52,9.38,58.66,0,8.02-4.66,12.04-10.76,12.06-16.87Z"/>
    </clipPath>
    <clipPath id="clippath-7">
      <path class="cls-16" d="M159.47,241.81l-.04,13.53c-.02,5.94-3.92,11.87-11.72,16.41-15.7,9.12-41.23,9.12-57.04,0-7.95-4.59-11.93-10.62-11.91-16.64l.04-13.53c-.02,6.02,3.96,12.04,11.91,16.64,15.8,9.12,41.34,9.12,57.04,0,7.8-4.53,11.71-10.47,11.72-16.41Z"/>
    </clipPath>
    <clipPath id="clippath-8">
      <path class="cls-31" d="M160.62,231.77v9.38c-.02,6.11-4.03,12.21-12.06,16.87-16.15,9.38-42.41,9.38-58.66,0-8.18-4.72-12.27-10.92-12.25-17.11v-9.38c-.02,6.19,4.07,12.39,12.25,17.11,16.25,9.38,42.52,9.38,58.66,0,8.02-4.66,12.04-10.76,12.06-16.87Z"/>
    </clipPath>
    <clipPath id="clippath-9">
      <path class="cls-16" d="M159.47,215.07l-.04,13.53c-.02,5.94-3.92,11.87-11.72,16.41-15.7,9.12-41.23,9.12-57.04,0-7.95-4.59-11.93-10.62-11.91-16.64l.04-13.53c-.02,6.02,3.96,12.04,11.91,16.64,15.8,9.12,41.34,9.12,57.04,0,7.8-4.53,11.71-10.47,11.72-16.41Z"/>
    </clipPath>
    <clipPath id="clippath-10">
      <path class="cls-31" d="M160.62,205.03v9.38c-.02,6.11-4.03,12.21-12.06,16.87-16.15,9.38-42.41,9.38-58.66,0-8.18-4.72-12.27-10.92-12.25-17.11v-9.38c-.02,6.19,4.07,12.39,12.25,17.11,16.25,9.38,42.52,9.38,58.66,0,8.02-4.66,12.04-10.76,12.06-16.87Z"/>
    </clipPath>
    <clipPath id="clippath-12">
      <path class="cls-75" d="M161.32,207.14l1.23.71c-.08-.05-.2-.04-.33.03l-1.23-.71c.13-.07.25-.08.33-.03Z"/>
    </clipPath>
    <clipPath id="clippath-15">
      <path class="cls-75" d="M146.29,217.68l-1.23-.71c0-.3.21-.66.47-.81l1.23.71c-.26.15-.47.51-.47.81Z"/>
    </clipPath>
  </defs>
  <g class="cls-41">
    <g id="Layer_1">
      <g id="_x34_">
        <g class="cls-60">
          <path class="cls-25" d="M267.05,233.45c61.09,35.27,61.09,92.46,0,127.73-61.09,35.27-160.14,35.27-221.23,0-61.09-35.27-61.09-92.46,0-127.73,61.09-35.27,160.14-35.27,221.23,0Z"/>
          <path class="cls-24" d="M251.62,242.36c52.57,30.35,52.57,79.57,0,109.92-52.57,30.35-137.81,30.35-190.38,0-52.57-30.35-52.57-79.57,0-109.92,52.57-30.35,137.81-30.35,190.38,0Z"/>
          <path class="cls-73" d="M236.2,251.26c44.05,25.44,44.05,66.67,0,92.11-44.05,25.44-115.48,25.44-159.53,0-44.05-25.44-44.05-66.67,0-92.11,44.05-25.44,115.48-25.44,159.53,0Z"/>
          <path class="cls-55" d="M220.78,260.17c35.54,20.52,35.54,53.78,0,74.3-35.54,20.52-93.15,20.52-128.69,0-35.54-20.52-35.54-53.78,0-74.3,35.54-20.52,93.15-20.52,128.69,0Z"/>
          <path class="cls-27" d="M205.35,269.07c27.02,15.6,27.02,40.89,0,56.49-27.02,15.6-70.82,15.6-97.84,0-27.02-15.6-27.02-40.89,0-56.49,27.02-15.6,70.82-15.6,97.84,0Z"/>
          <path class="cls-33" d="M189.93,277.98c18.5,10.68,18.5,28,0,38.68-18.5,10.68-48.49,10.68-66.99,0-18.5-10.68-18.5-28,0-38.68,18.5-10.68,48.49-10.68,66.99,0Z"/>
          <path class="cls-37" d="M174.5,286.88c9.98,5.76,9.98,15.11,0,20.87-9.98,5.76-26.16,5.76-36.15,0-9.98-5.76-9.98-15.11,0-20.87,9.98-5.76,26.16-5.76,36.15,0Z"/>
        </g>
        <g class="cls-60">
          <circle class="cls-25" cx="279.87" cy="242.84" r="83.13" transform="translate(-58.29 91.36) rotate(-16.82)"/>
          <circle class="cls-23" cx="279.87" cy="242.84" r="69.61" transform="translate(-59.07 93.12) rotate(-17.12)"/>
          <circle class="cls-74" cx="279.87" cy="242.84" r="56.1" transform="translate(-60.28 95.88) rotate(-17.58)"/>
          <circle class="cls-55" cx="279.87" cy="242.84" r="42.58" transform="translate(-62.36 100.79) rotate(-18.41)"/>
          <circle class="cls-28" cx="279.87" cy="242.84" r="29.06" transform="translate(-66.8 112) rotate(-20.27)"/>
          <circle class="cls-32" cx="279.87" cy="242.84" r="15.55" transform="translate(-81.43 160.62) rotate(-28.13)"/>
          <path class="cls-37" d="M281.9,242.84c0,1.12-.91,2.03-2.03,2.03s-2.03-.91-2.03-2.03.91-2.03,2.03-2.03,2.03.91,2.03,2.03Z"/>
        </g>
        <g class="cls-57">
          <polygon class="cls-45" points="49.95 341.61 49.95 201.47 50.29 201.27 98.13 173.03 98.13 141.15 99.52 141.15 99.52 173.83 99.18 174.03 51.34 202.27 51.34 339.22 102.22 310.14 102.91 311.35 49.95 341.61"/>
          <g>
            <rect class="cls-45" x="112.35" y="124.86" width="1.39" height="2.43"/>
            <path class="cls-45" d="M113.74,149.23h-1.39v-5.48h1.39v5.48ZM113.74,138.26h-1.39v-5.48h1.39v5.48Z"/>
            <polygon class="cls-45" points="111.29 158.97 110.59 157.77 112.35 156.74 112.35 154.71 113.74 154.71 113.74 157.54 111.29 158.97"/>
            <path class="cls-45" d="M48.76,195.47l-.7-1.2,4.47-2.61.7,1.2-4.47,2.61ZM57.69,190.25l-.7-1.2,4.47-2.61.7,1.2-4.47,2.61ZM66.62,185.04l-.7-1.2,4.47-2.61.7,1.2-4.47,2.61ZM75.56,179.82l-.7-1.2,4.47-2.61.7,1.2-4.47,2.61ZM84.49,174.61l-.7-1.2,4.47-2.61.7,1.2-4.47,2.61ZM93.42,169.4l-.7-1.2,4.47-2.61.7,1.2-4.47,2.61ZM102.36,164.18l-.7-1.2,4.47-2.61.7,1.2-4.47,2.61Z"/>
            <polygon class="cls-45" points="42.53 201.13 41.14 201.13 41.14 198.3 43.59 196.87 44.29 198.07 42.53 199.1 42.53 201.13"/>
            <path class="cls-45" d="M42.53,329.86h-1.39v-4.95h1.39v4.95ZM42.53,319.96h-1.39v-4.95h1.39v4.95ZM42.53,310.06h-1.39v-4.95h1.39v4.95ZM42.53,300.16h-1.39v-4.95h1.39v4.95ZM42.53,290.25h-1.39v-4.95h1.39v4.95ZM42.53,280.35h-1.39v-4.95h1.39v4.95ZM42.53,270.45h-1.39v-4.95h1.39v4.95ZM42.53,260.55h-1.39v-4.95h1.39v4.95ZM42.53,250.64h-1.39v-4.95h1.39v4.95ZM42.53,240.74h-1.39v-4.95h1.39v4.95ZM42.53,230.84h-1.39v-4.95h1.39v4.95ZM42.53,220.94h-1.39v-4.95h1.39v4.95ZM42.53,211.03h-1.39v-4.95h1.39v4.95Z"/>
            <polygon class="cls-45" points="41.14 338.44 41.14 334.82 42.53 334.82 42.53 336.05 43.61 335.44 44.29 336.64 41.14 338.44"/>
            <path class="cls-45" d="M48.63,334.16l-.69-1.21,4.34-2.48.69,1.21-4.34,2.48ZM57.3,329.21l-.69-1.21,4.34-2.48.69,1.21-4.34,2.48ZM65.98,324.25l-.69-1.21,4.34-2.48.69,1.21-4.34,2.48ZM74.65,319.3l-.69-1.21,4.34-2.48.69,1.21-4.34,2.48ZM83.32,314.34l-.69-1.21,4.34-2.48.69,1.21-4.34,2.48Z"/>
            <rect class="cls-45" x="91.49" y="307.48" width="2.43" height="1.39" transform="translate(-140.62 86.53) rotate(-29.73)"/>
          </g>
          <polygon class="cls-45" points="222.72 134.6 221.33 134.6 221.33 60.11 173.48 87.73 172.79 86.53 222.72 57.7 222.72 134.6"/>
          <g>
            <rect class="cls-45" x="158.31" y="102.26" width="2.43" height="1.39" transform="translate(-30.11 93.53) rotate(-29.99)"/>
            <path class="cls-45" d="M164.99,100.59l-.7-1.2,4.08-2.37.7,1.2-4.07,2.37ZM173.14,95.86l-.7-1.2,4.07-2.36.7,1.2-4.07,2.36ZM181.29,91.13l-.7-1.2,4.07-2.36.7,1.2-4.07,2.36ZM189.43,86.4l-.7-1.2,4.07-2.36.7,1.2-4.07,2.36ZM197.58,81.67l-.7-1.2,4.07-2.36.7,1.2-4.07,2.36ZM205.73,76.94l-.7-1.2,4.07-2.36.7,1.2-4.07,2.36ZM213.88,72.21l-.7-1.2,4.07-2.36.7,1.2-4.07,2.37ZM222.02,67.48l-.7-1.2,4.07-2.37.7,1.2-4.08,2.37Z"/>
            <polygon class="cls-45" points="232.53 63.42 231.14 63.42 231.14 62.19 230.09 62.8 229.39 61.6 232.53 59.78 232.53 63.42"/>
            <path class="cls-45" d="M232.53,129.53h-1.39v-4.72h1.39v4.72ZM232.53,120.08h-1.39v-4.72h1.39v4.72ZM232.53,110.64h-1.39v-4.72h1.39v4.72ZM232.53,101.19h-1.39v-4.72h1.39v4.72ZM232.53,91.75h-1.39v-4.72h1.39v4.72ZM232.53,82.31h-1.39v-4.72h1.39v4.72ZM232.53,72.86h-1.39v-4.72h1.39v4.72Z"/>
            <rect class="cls-45" x="231.14" y="134.25" width="1.39" height="2.43"/>
          </g>
          <g>
            <polygon class="cls-45" points="200.94 342.26 200.59 342.06 128.72 300.57 129.42 299.36 200.94 340.66 261.83 305.08 205.03 272.36 205.73 271.16 264.6 305.07 200.94 342.26"/>
            <g>
              <path class="cls-45" d="M118.19,308.55c-1.6-.89-1.94-1.06-2.02-1.09l.22-.56-.12-.79c.29-.04.32-.05,2.59,1.22l-.68,1.21Z"/>
              <path class="cls-45" d="M190.12,350.15l-3.99-2.32.7-1.2,3.99,2.32-.7,1.2ZM182.14,345.51l-3.99-2.32.7-1.2,3.99,2.32-.7,1.2ZM174.15,340.86l-3.99-2.32.7-1.2,3.99,2.32-.7,1.2ZM166.17,336.22l-3.99-2.32.7-1.2,3.99,2.32-.7,1.2ZM158.18,331.59l-3.99-2.32.7-1.2,3.99,2.32-.7,1.2ZM150.2,326.96l-4-2.31.7-1.2,4,2.31-.7,1.2ZM142.21,322.33l-4-2.31.69-1.2,4,2.31-.7,1.2ZM134.21,317.71l-4-2.3.69-1.2,4,2.31-.69,1.2ZM126.21,313.11c-1.47-.84-2.81-1.61-4.01-2.29l.69-1.21c1.2.68,2.54,1.45,4.01,2.29l-.69,1.21Z"/>
              <polygon class="cls-45" points="196.46 353.84 194.01 352.42 194.71 351.22 196.46 352.23 198.2 351.2 198.9 352.4 196.46 353.84"/>
              <path class="cls-45" d="M203.35,349.77l-.71-1.2,4.44-2.63.71,1.2-4.44,2.63ZM212.23,344.52l-.71-1.2,4.44-2.63.71,1.2-4.44,2.63ZM221.12,339.26l-.71-1.2,4.44-2.63.71,1.2-4.44,2.63ZM230.01,334.01l-.71-1.2,4.44-2.63.71,1.2-4.44,2.63ZM238.89,328.75l-.71-1.2,4.44-2.63.71,1.2-4.44,2.63ZM247.78,323.5l-.71-1.2,4.44-2.63.71,1.2-4.44,2.63Z"/>
              <polygon class="cls-45" points="256.66 318.24 255.96 317.05 257.04 316.41 255.96 315.77 256.67 314.57 259.77 316.41 256.66 318.24"/>
              <path class="cls-45" d="M251.76,313.27l-4.2-2.49.71-1.19,4.2,2.49-.71,1.19ZM243.37,308.29l-4.2-2.49.71-1.19,4.2,2.49-.71,1.19ZM234.97,303.31l-4.2-2.49.71-1.19,4.2,2.49-.71,1.19ZM226.58,298.32l-4.2-2.49.71-1.19,4.2,2.49-.71,1.19ZM218.19,293.34l-4.2-2.49.71-1.19,4.2,2.49-.71,1.19ZM209.79,288.36l-4.2-2.49.71-1.19,4.2,2.49-.71,1.19ZM201.4,283.37l-4.2-2.49.71-1.19,4.2,2.49-.71,1.19Z"/>
              <rect class="cls-45" x="191.62" y="275.95" width="1.39" height="2.43" transform="translate(-144.19 301.06) rotate(-59.31)"/>
            </g>
            <g>
              <rect class="cls-45" x="143.89" y="294.34" width="1.39" height="2.43" transform="translate(-183.37 269.01) rotate(-59.3)"/>
              <path class="cls-45" d="M220.12,341.19l-4.16-2.47.71-1.19,4.16,2.47-.71,1.19ZM211.8,336.25l-4.16-2.47.71-1.19,4.16,2.47-.71,1.19ZM203.49,331.32l-4.16-2.47.71-1.19,4.16,2.47-.71,1.19ZM195.17,326.38l-4.16-2.47.71-1.19,4.16,2.47-.71,1.19ZM186.85,321.45l-4.16-2.47.71-1.19,4.16,2.47-.71,1.19ZM178.54,316.51l-4.16-2.47.71-1.19,4.16,2.47-.71,1.19ZM170.22,311.58l-4.16-2.47.71-1.19,4.16,2.47-.71,1.19ZM161.91,306.65l-4.16-2.47.71-1.19,4.16,2.47-.71,1.19ZM153.59,301.71l-4.16-2.47.71-1.19,4.16,2.47-.71,1.19Z"/>
              <polygon class="cls-45" points="226.72 345.1 224.27 343.65 224.98 342.46 226.72 343.49 228.47 342.47 229.17 343.68 226.72 345.1"/>
              <path class="cls-45" d="M233.03,341.44l-.7-1.2,3.85-2.24.7,1.2-3.85,2.24ZM240.74,336.96l-.7-1.2,3.85-2.24.7,1.2-3.85,2.24ZM248.44,332.48l-.7-1.2,3.86-2.24.7,1.2-3.86,2.24ZM256.15,328l-.7-1.2,3.85-2.24.7,1.2-3.85,2.24ZM263.86,323.52l-.7-1.2,3.85-2.24.7,1.2-3.85,2.24Z"/>
              <polygon class="cls-45" points="271.57 319.04 270.87 317.84 271.93 317.22 270.87 316.62 271.56 315.41 274.72 317.21 271.57 319.04"/>
              <path class="cls-45" d="M266.55,314.16l-4.31-2.46.69-1.21,4.31,2.46-.69,1.21ZM257.92,309.25l-4.31-2.46.69-1.21,4.31,2.46-.69,1.21ZM249.29,304.33l-4.31-2.46.69-1.21,4.31,2.46-.69,1.21ZM240.67,299.42l-4.31-2.46.69-1.21,4.31,2.46-.69,1.21ZM232.04,294.51l-4.31-2.46.69-1.21,4.31,2.46-.69,1.21ZM223.41,289.6l-4.31-2.46.69-1.21,4.31,2.46-.69,1.21Z"/>
              <rect class="cls-45" x="213.37" y="282.26" width="1.39" height="2.43" transform="translate(-138.19 329.27) rotate(-60.35)"/>
            </g>
          </g>
        </g>
        <g class="cls-41">
          <g>
            <path class="cls-11" d="M158.73,74.57l14.4,8.37c-4.81-2.79-11.47-2.4-18.81,1.84-1.57.91-3.1,1.95-4.6,3.12l-14.4-8.37c1.49-1.17,3.03-2.21,4.6-3.12,7.35-4.24,14.01-4.64,18.81-1.84Z"/>
            <g class="cls-71">
              <g class="cls-41">
                <path class="cls-11" d="M149.72,87.89l-14.4-8.37c1.49-1.17,3.03-2.21,4.6-3.12,2.8-1.62,5.51-2.68,8.05-3.21l14.4,8.37c-2.54.53-5.24,1.59-8.05,3.21-1.57.91-3.1,1.95-4.6,3.12Z"/>
                <path class="cls-11" d="M162.37,81.57l-14.4-8.37c3.9-.82,7.41-.41,10.3,1.11l14.4,8.37c-2.89-1.52-6.4-1.93-10.3-1.11Z"/>
                <path class="cls-11" d="M172.67,82.68l-14.4-8.37c.16.08.31.17.47.26l14.4,8.37c-.15-.09-.31-.18-.47-.26Z"/>
              </g>
            </g>
          </g>
          <g>
            <path class="cls-11" d="M124.97,64.53l14.4,8.37c-7.21-4.19-17.19-3.6-28.21,2.76l-14.4-8.37c11.02-6.36,21-6.95,28.21-2.76Z"/>
            <g class="cls-40">
              <g class="cls-41">
                <path class="cls-11" d="M111.16,75.66l-14.4-8.37c4.2-2.43,8.25-4.01,12.06-4.81l14.4,8.37c-3.8.8-7.86,2.39-12.06,4.81Z"/>
                <path class="cls-11" d="M123.22,70.84l-14.4-8.37c5.85-1.23,11.12-.61,15.45,1.66l14.4,8.37c-4.33-2.28-9.6-2.9-15.45-1.66Z"/>
                <path class="cls-11" d="M138.67,72.51l-14.4-8.37c.24.12.47.25.7.39l14.4,8.37c-.23-.13-.47-.26-.7-.39Z"/>
              </g>
            </g>
          </g>
          <g>
            <path class="cls-11" d="M72.79,132.31l-14.4-8.37c4.26-22.28,19.81-45.93,38.37-56.65l14.4,8.37c-18.56,10.72-34.1,34.37-38.37,56.65Z"/>
            <g class="cls-67">
              <g class="cls-41">
                <path class="cls-11" d="M72.79,132.31l-14.4-8.37c1.16-6.07,3.16-12.23,5.82-18.21l14.4,8.37c-2.66,5.98-4.66,12.15-5.82,18.21Z"/>
                <path class="cls-11" d="M78.62,114.1l-14.4-8.37c3.45-7.73,8.01-15.15,13.34-21.64l14.4,8.37c-5.32,6.48-9.89,13.9-13.34,21.63Z"/>
                <path class="cls-11" d="M91.95,92.46l-14.4-8.37c5.68-6.92,12.23-12.78,19.21-16.8l14.4,8.37c-6.97,4.03-13.52,9.88-19.21,16.8Z"/>
              </g>
            </g>
          </g>
          <g>
            <path class="cls-11" d="M49.55,197.11l-14.4-8.37c-4.75-2.76-7.69-8.62-7.71-16.96-.05-16.78,11.75-37.22,26.36-45.65,1.57-.91,3.1-1.64,4.6-2.19l14.4,8.37c-1.49.56-3.03,1.29-4.6,2.19-14.6,8.43-26.4,28.87-26.36,45.65.02,8.34,2.97,14.2,7.71,16.96Z"/>
            <g class="cls-53">
              <g class="cls-41">
                <path class="cls-11" d="M49.55,197.11l-14.4-8.37c-4.75-2.76-7.69-8.62-7.71-16.96-.02-6.43,1.7-13.4,4.65-20.02l14.4,8.37c-2.95,6.62-4.67,13.59-4.65,20.02.02,8.34,2.97,14.2,7.71,16.96Z"/>
                <path class="cls-11" d="M46.49,160.13l-14.4-8.37c2.3-5.16,5.35-10.11,8.9-14.43l14.4,8.37c-3.55,4.32-6.6,9.27-8.9,14.43Z"/>
                <path class="cls-11" d="M55.39,145.7l-14.4-8.37c3.79-4.61,8.16-8.51,12.81-11.2,1.57-.91,3.1-1.64,4.6-2.19l14.4,8.37c-1.49.56-3.03,1.29-4.6,2.19-4.65,2.68-9.02,6.59-12.81,11.2Z"/>
              </g>
            </g>
          </g>
          <path class="cls-47" d="M111.16,75.66c18.56-10.72,34.18-5.06,38.56,12.24,1.49-1.17,3.03-2.21,4.6-3.12,14.6-8.43,26.48-1.66,26.53,15.12.04,15.72-10.31,34.66-23.63,43.92l-88.85,51.46c-14.6,8.43-26.48,1.66-26.53-15.12-.05-16.78,11.75-37.22,26.36-45.65,1.57-.91,3.1-1.64,4.6-2.19,4.26-22.28,19.81-45.93,38.37-56.65Z"/>
        </g>
        <g>
          <g class="cls-41">
            <g>
              <polygon class="cls-11" points="260.78 143.38 260.42 273.22 194.4 311.59 194.77 181.74 260.78 143.38"/>
              <path class="cls-63" d="M196.84,307.35l.35-124.21,61.15-35.53-.35,124.21-61.15,35.53ZM199.28,184.34l-.34,119.38,56.97-33.11.34-119.38-56.97,33.11Z"/>
            </g>
            <polygon class="cls-63" points="194.77 181.74 194.4 311.59 127.95 273.22 128.32 143.38 194.77 181.74"/>
            <polygon class="cls-37" points="260.78 143.38 194.77 181.74 128.32 143.38 194.34 105.01 260.78 143.38"/>
            <polygon class="cls-63" points="174.48 137.12 173.02 137.96 151.41 150.39 140.86 144.14 139.4 143.28 162.47 130 174.48 137.12"/>
            <polygon class="cls-68" points="173.02 137.96 151.41 150.39 140.86 144.14 162.47 131.71 173.02 137.96"/>
          </g>
          <g>
            <path class="cls-68" d="M205.32,186.3c0,1.05-.74,2.34-1.65,2.86-.91.53-1.65.1-1.65-.95s.74-2.34,1.65-2.86c.91-.53,1.65-.1,1.65.95Z"/>
            <path class="cls-68" d="M212.56,182.12c0,1.05-.74,2.34-1.65,2.86-.91.53-1.65.1-1.65-.95s.74-2.33,1.65-2.86c.91-.53,1.65-.1,1.65.95Z"/>
            <path class="cls-68" d="M219.8,177.94c0,1.05-.74,2.34-1.65,2.86-.91.53-1.65.1-1.65-.95s.74-2.34,1.65-2.86c.91-.53,1.65-.1,1.65.95Z"/>
          </g>
        </g>
        <g>
          <g class="cls-41">
            <g>
              <path class="cls-31" d="M160.62,284.21v9.38c-.02,6.11-4.03,12.21-12.06,16.87-16.15,9.38-42.41,9.38-58.66,0-8.18-4.72-12.27-10.92-12.25-17.11v-9.38c-.02,6.19,4.07,12.39,12.25,17.11,16.25,9.38,42.52,9.38,58.66,0,8.02-4.66,12.04-10.76,12.06-16.87Z"/>
              <g class="cls-10">
                <g class="cls-41">
                  <path class="cls-34" d="M160.62,284.21v9.38c-.02,6.11-4.03,12.21-12.06,16.87-3.18,1.85-6.75,3.33-10.56,4.45v-9.38c3.81-1.12,7.38-2.6,10.56-4.45,8.02-4.66,12.04-10.76,12.06-16.87Z"/>
                  <path class="cls-11" d="M138,305.53v9.38c-5.58,1.64-11.67,2.5-17.8,2.58v-9.38c6.12-.08,12.22-.94,17.8-2.58Z"/>
                  <path class="cls-63" d="M120.2,308.12v9.38c-10.92.14-21.94-2.2-30.31-7.03-.41-.24-.81-.48-1.19-.72v-9.38c.39.24.79.48,1.19.72,8.37,4.83,19.38,7.17,30.31,7.03Z"/>
                  <path class="cls-11" d="M88.7,300.37v9.38c-4.34-2.72-7.4-5.87-9.19-9.21v-9.38c1.78,3.33,4.85,6.49,9.19,9.21Z"/>
                  <path class="cls-11" d="M79.51,291.16v9.38c-1.25-2.34-1.87-4.76-1.87-7.18v-9.38c0,2.42.61,4.85,1.87,7.18Z"/>
                </g>
              </g>
            </g>
            <path class="cls-47" d="M148.37,267.1c16.25,9.38,16.34,24.6.19,33.98-16.15,9.38-42.41,9.38-58.66,0-16.25-9.38-16.34-24.6-.19-33.98,16.15-9.38,42.42-9.38,58.67,0Z"/>
          </g>
          <g class="cls-41">
            <g>
              <path class="cls-16" d="M159.47,267.99l-.04,13.53c-.02,5.94-3.92,11.87-11.72,16.41-15.7,9.12-41.23,9.12-57.04,0-7.95-4.59-11.93-10.62-11.91-16.64l.04-13.53c-.02,6.02,3.96,12.05,11.91,16.64,15.8,9.12,41.34,9.12,57.04,0,7.8-4.53,11.71-10.47,11.72-16.41Z"/>
              <g class="cls-43">
                <g class="cls-41">
                  <path class="cls-16" d="M159.47,267.99l-.04,13.53c-.02,5.94-3.92,11.87-11.72,16.41-3.09,1.8-6.56,3.24-10.27,4.33l.04-13.53c3.7-1.09,7.18-2.53,10.27-4.33,7.8-4.53,11.71-10.47,11.72-16.41Z"/>
                  <path class="cls-56" d="M137.48,288.72l-.04,13.53c-5.43,1.6-11.35,2.43-17.3,2.51l.04-13.53c5.95-.08,11.88-.91,17.3-2.51Z"/>
                  <path class="cls-68" d="M120.17,291.23l-.04,13.53c-10.62.14-21.33-2.14-29.47-6.84-.4-.23-.78-.46-1.16-.7l.04-13.53c.38.24.76.47,1.16.7,8.13,4.7,18.84,6.98,29.47,6.84Z"/>
                  <path class="cls-56" d="M89.55,283.7l-.04,13.53c-4.22-2.64-7.2-5.71-8.93-8.95l.04-13.53c1.73,3.24,4.71,6.31,8.93,8.95Z"/>
                  <path class="cls-56" d="M80.61,274.74l-.04,13.53c-1.22-2.27-1.82-4.63-1.81-6.99l.04-13.53c0,2.36.6,4.71,1.81,6.99Z"/>
                </g>
              </g>
            </g>
            <path class="cls-68" d="M147.56,251.35c15.8,9.12,15.88,23.92.18,33.04-15.7,9.12-41.23,9.12-57.04,0-15.8-9.12-15.89-23.92-.19-33.04,15.7-9.12,41.24-9.12,57.04,0Z"/>
          </g>
          <g class="cls-41">
            <g>
              <path class="cls-31" d="M160.62,257.95v9.38c-.02,6.11-4.03,12.21-12.06,16.87-16.15,9.38-42.41,9.38-58.66,0-8.18-4.72-12.27-10.92-12.25-17.11v-9.38c-.02,6.19,4.07,12.39,12.25,17.11,16.25,9.38,42.52,9.38,58.66,0,8.02-4.66,12.04-10.76,12.06-16.87Z"/>
              <g class="cls-4">
                <g class="cls-41">
                  <path class="cls-34" d="M160.62,257.95v9.38c-.02,6.11-4.03,12.21-12.06,16.87-3.18,1.85-6.75,3.33-10.56,4.45v-9.38c3.81-1.12,7.38-2.6,10.56-4.45,8.02-4.66,12.04-10.76,12.06-16.87Z"/>
                  <path class="cls-11" d="M138,279.27v9.38c-5.58,1.64-11.67,2.5-17.8,2.58v-9.38c6.12-.08,12.22-.94,17.8-2.58Z"/>
                  <path class="cls-63" d="M120.2,281.85v9.38c-10.92.14-21.94-2.2-30.31-7.03-.41-.24-.81-.48-1.19-.72v-9.38c.39.24.79.48,1.19.72,8.37,4.83,19.38,7.17,30.31,7.03Z"/>
                  <path class="cls-11" d="M88.7,274.1v9.38c-4.34-2.72-7.4-5.87-9.19-9.21v-9.38c1.78,3.33,4.85,6.49,9.19,9.21Z"/>
                  <path class="cls-11" d="M79.51,264.89v9.38c-1.25-2.34-1.87-4.76-1.87-7.18v-9.38c0,2.42.61,4.85,1.87,7.18Z"/>
                </g>
              </g>
            </g>
            <path class="cls-47" d="M148.37,240.84c16.25,9.38,16.34,24.6.19,33.98-16.15,9.38-42.41,9.38-58.66,0-16.25-9.38-16.34-24.6-.19-33.98,16.15-9.38,42.42-9.38,58.67,0Z"/>
          </g>
          <g class="cls-41">
            <g>
              <path class="cls-16" d="M159.47,241.81l-.04,13.53c-.02,5.94-3.92,11.87-11.72,16.41-15.7,9.12-41.23,9.12-57.04,0-7.95-4.59-11.93-10.62-11.91-16.64l.04-13.53c-.02,6.02,3.96,12.04,11.91,16.64,15.8,9.12,41.34,9.12,57.04,0,7.8-4.53,11.71-10.47,11.72-16.41Z"/>
              <g class="cls-5">
                <g class="cls-41">
                  <path class="cls-16" d="M159.47,241.81l-.04,13.53c-.02,5.94-3.92,11.87-11.72,16.41-3.09,1.8-6.56,3.24-10.27,4.33l.04-13.53c3.7-1.09,7.18-2.53,10.27-4.33,7.8-4.53,11.71-10.47,11.72-16.41Z"/>
                  <path class="cls-56" d="M137.48,262.55l-.04,13.53c-5.43,1.6-11.35,2.43-17.3,2.51l.04-13.53c5.95-.08,11.88-.91,17.3-2.51Z"/>
                  <path class="cls-68" d="M120.17,265.06l-.04,13.53c-10.62.14-21.33-2.14-29.47-6.84-.4-.23-.78-.46-1.16-.7l.04-13.53c.38.24.76.47,1.16.7,8.13,4.7,18.84,6.98,29.47,6.84Z"/>
                  <path class="cls-56" d="M89.55,257.52l-.04,13.53c-4.22-2.64-7.2-5.71-8.93-8.95l.04-13.53c1.73,3.24,4.71,6.31,8.93,8.95Z"/>
                  <path class="cls-56" d="M80.61,248.57l-.04,13.53c-1.22-2.27-1.82-4.63-1.81-6.99l.04-13.53c0,2.36.6,4.71,1.81,6.99Z"/>
                </g>
              </g>
            </g>
            <path class="cls-68" d="M147.56,225.18c15.8,9.12,15.88,23.92.18,33.04-15.7,9.12-41.23,9.12-57.04,0-15.8-9.12-15.89-23.92-.19-33.04,15.7-9.12,41.24-9.12,57.04,0Z"/>
          </g>
          <g class="cls-41">
            <g>
              <path class="cls-31" d="M160.62,231.77v9.38c-.02,6.11-4.03,12.21-12.06,16.87-16.15,9.38-42.41,9.38-58.66,0-8.18-4.72-12.27-10.92-12.25-17.11v-9.38c-.02,6.19,4.07,12.39,12.25,17.11,16.25,9.38,42.52,9.38,58.66,0,8.02-4.66,12.04-10.76,12.06-16.87Z"/>
              <g class="cls-46">
                <g class="cls-41">
                  <path class="cls-34" d="M160.62,231.77v9.38c-.02,6.11-4.03,12.21-12.06,16.87-3.18,1.85-6.75,3.33-10.56,4.45v-9.38c3.81-1.12,7.38-2.6,10.56-4.45,8.02-4.66,12.04-10.76,12.06-16.87Z"/>
                  <path class="cls-11" d="M138,253.1v9.38c-5.58,1.64-11.67,2.5-17.8,2.58v-9.38c6.12-.08,12.22-.94,17.8-2.58Z"/>
                  <path class="cls-63" d="M120.2,255.68v9.38c-10.92.14-21.94-2.2-30.31-7.03-.41-.24-.81-.48-1.19-.72v-9.38c.39.24.79.48,1.19.72,8.37,4.83,19.38,7.17,30.31,7.03Z"/>
                  <path class="cls-11" d="M88.7,247.93v9.38c-4.34-2.72-7.4-5.87-9.19-9.21v-9.38c1.78,3.33,4.85,6.49,9.19,9.21Z"/>
                  <path class="cls-11" d="M79.51,238.72v9.38c-1.25-2.34-1.87-4.76-1.87-7.18v-9.38c0,2.42.61,4.85,1.87,7.18Z"/>
                </g>
              </g>
            </g>
            <path class="cls-47" d="M148.37,214.66c16.25,9.38,16.34,24.6.19,33.98-16.15,9.38-42.41,9.38-58.66,0-16.25-9.38-16.34-24.6-.19-33.98,16.15-9.38,42.42-9.38,58.67,0Z"/>
          </g>
          <g class="cls-41">
            <g>
              <path class="cls-16" d="M159.47,215.07l-.04,13.53c-.02,5.94-3.92,11.87-11.72,16.41-15.7,9.12-41.23,9.12-57.04,0-7.95-4.59-11.93-10.62-11.91-16.64l.04-13.53c-.02,6.02,3.96,12.04,11.91,16.64,15.8,9.12,41.34,9.12,57.04,0,7.8-4.53,11.71-10.47,11.72-16.41Z"/>
              <g class="cls-17">
                <g class="cls-41">
                  <path class="cls-16" d="M159.47,215.07l-.04,13.53c-.02,5.94-3.92,11.87-11.72,16.41-3.09,1.8-6.56,3.24-10.27,4.33l.04-13.53c3.7-1.09,7.18-2.53,10.27-4.33,7.8-4.53,11.71-10.47,11.72-16.41Z"/>
                  <path class="cls-56" d="M137.48,235.8l-.04,13.53c-5.43,1.6-11.35,2.43-17.3,2.51l.04-13.53c5.95-.08,11.88-.91,17.3-2.51Z"/>
                  <path class="cls-68" d="M120.17,238.31l-.04,13.53c-10.62.14-21.33-2.14-29.47-6.84-.4-.23-.78-.46-1.16-.7l.04-13.53c.38.24.76.47,1.16.7,8.13,4.7,18.84,6.98,29.47,6.84Z"/>
                  <path class="cls-56" d="M89.55,230.78l-.04,13.53c-4.22-2.64-7.2-5.71-8.93-8.95l.04-13.53c1.73,3.24,4.71,6.31,8.93,8.95Z"/>
                  <path class="cls-56" d="M80.61,221.82l-.04,13.53c-1.22-2.27-1.82-4.63-1.81-6.99l.04-13.53c0,2.36.6,4.71,1.81,6.99Z"/>
                </g>
              </g>
            </g>
            <path class="cls-68" d="M147.56,198.44c15.8,9.12,15.88,23.92.18,33.04-15.7,9.12-41.23,9.12-57.04,0-15.8-9.12-15.89-23.92-.19-33.04,15.7-9.12,41.24-9.12,57.04,0Z"/>
          </g>
          <g class="cls-41">
            <g>
              <path class="cls-31" d="M160.62,205.03v9.38c-.02,6.11-4.03,12.21-12.06,16.87-16.15,9.38-42.41,9.38-58.66,0-8.18-4.72-12.27-10.92-12.25-17.11v-9.38c-.02,6.19,4.07,12.39,12.25,17.11,16.25,9.38,42.52,9.38,58.66,0,8.02-4.66,12.04-10.76,12.06-16.87Z"/>
              <g class="cls-18">
                <g class="cls-41">
                  <path class="cls-34" d="M160.62,205.03v9.38c-.02,6.11-4.03,12.21-12.06,16.87-3.18,1.85-6.75,3.33-10.56,4.45v-9.38c3.81-1.12,7.38-2.6,10.56-4.45,8.02-4.66,12.04-10.76,12.06-16.87Z"/>
                  <path class="cls-11" d="M138,226.35v9.38c-5.58,1.64-11.67,2.5-17.8,2.58v-9.38c6.12-.08,12.22-.94,17.8-2.58Z"/>
                  <path class="cls-63" d="M120.2,228.93v9.38c-10.92.14-21.94-2.2-30.31-7.03-.41-.24-.81-.48-1.19-.72v-9.38c.39.24.79.48,1.19.72,8.37,4.83,19.38,7.17,30.31,7.03Z"/>
                  <path class="cls-11" d="M88.7,221.18v9.38c-4.34-2.72-7.4-5.87-9.19-9.21v-9.38c1.78,3.33,4.85,6.49,9.19,9.21Z"/>
                  <path class="cls-11" d="M79.51,211.98v9.38c-1.25-2.34-1.87-4.76-1.87-7.18v-9.38c0,2.42.61,4.85,1.87,7.18Z"/>
                </g>
              </g>
            </g>
            <g>
              <path class="cls-47" d="M148.37,187.92c16.25,9.38,16.34,24.6.19,33.98-16.15,9.38-42.41,9.38-58.66,0-16.25-9.38-16.34-24.6-.19-33.98,16.15-9.38,42.42-9.38,58.67,0Z"/>
              <path class="cls-63" d="M144.7,191.87c14.21,7.2,14.28,18.88.16,26.08-14.12,7.2-37.08,7.2-51.29,0-14.21-7.2-14.29-18.88-.17-26.08,14.12-7.2,37.08-7.2,51.29,0Z"/>
              <path class="cls-58" d="M146.28,191.55c-7.23-4.18-16.93-6.48-27.28-6.48s-20.12,2.36-27.19,6.47c-6.34,3.68-9.98,8.53-9.97,13.3,0,.23.01.46.03.7.33,4.59,3.99,9.2,10.12,12.74,7.24,4.17,16.93,6.47,27.28,6.47s20.12-2.36,27.19-6.47c6.04-3.5,9.62-8.06,9.95-12.61.03-.23.03-.47.03-.7,0-4.81-3.71-9.71-10.15-13.42ZM153.21,206.38c0,3.59-3.05,7.42-8.37,10.52-6.6,3.83-15.92,6.04-25.57,6.04s-18.91-2.15-25.67-6.05c-5.42-3.13-8.53-7.01-8.54-10.65,0-.23.01-.46.04-.69-.03-.22-.04-.48-.04-.7,0-3.59,3.05-7.43,8.37-10.52,6.6-3.83,15.92-6.04,25.57-6.04s18.92,2.14,25.67,6.05c5.42,3.13,8.53,7.01,8.54,10.64,0,.23-.01.46-.04.69.03.23.04.48.04.71Z"/>
              <path class="cls-68" d="M146.28,192.94c-7.23-4.17-16.93-6.47-27.28-6.47s-20.12,2.36-27.19,6.47c-6.04,3.5-9.62,8.07-9.94,12.6.33,4.59,3.99,9.2,10.12,12.74,7.24,4.17,16.93,6.47,27.28,6.47s20.12-2.36,27.19-6.47c6.04-3.5,9.62-8.06,9.95-12.61-.34-4.59-3.99-9.19-10.12-12.73ZM144.84,216.9c-6.6,3.83-15.92,6.04-25.57,6.04s-18.91-2.15-25.67-6.05c-5.42-3.13-8.53-7.01-8.54-10.65,0-.23.01-.46.04-.69-.03-.22-.04-.48-.04-.7,0-3.59,3.05-7.43,8.37-10.52,6.6-3.83,15.92-6.04,25.57-6.04s18.92,2.14,25.67,6.05c5.42,3.13,8.53,7.01,8.54,10.64,0,.23-.01.46-.04.69.03.23.04.48.04.71,0,3.59-3.05,7.42-8.37,10.52Z"/>
            </g>
          </g>
        </g>
        <g>
          <g>
            <path class="cls-11" d="M98.22,130.86c-.29.17-.59.29-.89.34-1.46.28-2.25-1.1-1.75-3.07,2.25-9.02,7.66-17.98,14.48-23.96,9.97-8.76,20.2-8.94,24.31-.42.62,1.27-.03,3.55-1.44,5.07-1.41,1.53-3.06,1.73-3.67.46-3.01-6.23-10.5-6.09-17.79.32-4.99,4.38-8.95,10.94-10.6,17.55-.39,1.57-1.48,3.05-2.64,3.72Z"/>
            <polygon class="cls-11" points="91.87 129.04 99 138.71 105.77 120.78 91.87 129.04"/>
          </g>
          <g>
            <path class="cls-11" d="M115.95,150.53c-7.66,4.42-14.98,3.73-18.58-2.29-.7-1.18-.16-3.43,1.21-5.03,1.37-1.6,3.05-1.95,3.75-.77,3.23,5.39,10.54,4.94,17.39-1.07,5.08-4.47,9.07-11.14,10.67-17.85.47-1.96,2.04-3.81,3.5-4.11,1.47-.31,2.28,1.04,1.81,3-2.18,9.16-7.63,18.28-14.58,24.38-1.72,1.51-3.45,2.76-5.17,3.75Z"/>
            <polygon class="cls-11" points="139.38 122.19 133.31 111.25 125.5 129.04 139.38 122.19"/>
          </g>
        </g>
        <polygon class="cls-1" points="198.92 210.77 199.02 262.35 257.93 228.34 257.82 176.76 198.92 210.77"/>
        <g>
          <g class="cls-41">
            <polygon class="cls-26" points="295.77 229.9 297.65 228.81 297.54 255.11 295.66 256.2 295.77 229.9"/>
            <polygon class="cls-52" points="251.43 204.28 253.31 203.18 297.65 228.81 295.77 229.9 251.43 204.28"/>
            <polygon class="cls-64" points="295.77 229.9 295.66 256.2 251.32 230.58 251.43 204.28 295.77 229.9"/>
          </g>
          <g>
            <g class="cls-41">
              <polygon class="cls-61" points="226.1 211.79 224.6 210.92 257.41 191.98 258.91 192.85 226.1 211.79"/>
              <polygon class="cls-8" points="205.66 258.89 204.15 258.02 204.02 217.87 205.52 218.74 205.66 258.89"/>
              <polygon class="cls-61" points="205.52 218.74 204.02 217.87 222.44 207.23 223.94 208.11 205.52 218.74"/>
              <polygon class="cls-14" points="223.94 208.11 226.1 211.79 258.91 192.85 259.04 228.07 205.66 258.89 205.52 218.74 223.94 208.11"/>
            </g>
            <g class="cls-41">
              <polygon class="cls-31" points="210.69 259.6 206.68 257.27 206.57 225.73 210.58 228.06 210.69 259.6"/>
              <polygon class="cls-3" points="210.58 228.06 206.57 225.73 257.59 196.28 261.6 198.61 210.58 228.06"/>
              <polygon class="cls-29" points="261.6 198.61 261.71 230.15 210.69 259.6 210.58 228.06 261.6 198.61"/>
            </g>
            <polygon class="cls-14" points="205.65 253.72 205.65 255.26 205.62 255.89 204.15 255.89 204.15 256.84 210.62 260.57 210.63 256.71 205.65 253.72"/>
            <g class="cls-41">
              <polygon class="cls-8" points="210.62 261.75 209.12 260.87 209 228.7 210.51 229.58 210.62 261.75"/>
              <polygon class="cls-61" points="210.51 229.58 209 228.7 262.38 197.89 263.89 198.76 210.51 229.58"/>
              <polygon class="cls-14" points="263.89 198.76 264 230.93 210.62 261.75 210.51 229.58 263.89 198.76"/>
            </g>
            <polygon class="cls-8" points="210.62 261.75 204.15 258.02 204.15 254.01 210.63 257.89 210.62 261.75"/>
          </g>
          <g>
            <g class="cls-41">
              <polygon class="cls-61" points="234.59 216.67 233.09 215.8 265.9 196.85 267.4 197.73 234.59 216.67"/>
              <polygon class="cls-8" points="214.15 263.77 212.64 262.89 212.51 222.74 214.01 223.62 214.15 263.77"/>
              <polygon class="cls-61" points="214.01 223.62 212.51 222.74 230.93 212.11 232.43 212.98 214.01 223.62"/>
              <polygon class="cls-14" points="232.43 212.98 234.59 216.67 267.4 197.73 267.53 232.95 214.15 263.77 214.01 223.62 232.43 212.98"/>
            </g>
            <g class="cls-41">
              <polygon class="cls-31" points="219.18 264.48 215.17 262.14 215.06 230.6 219.07 232.93 219.18 264.48"/>
              <polygon class="cls-3" points="219.07 232.93 215.06 230.6 266.08 201.15 270.09 203.48 219.07 232.93"/>
              <polygon class="cls-29" points="270.09 203.48 270.2 235.02 219.18 264.48 219.07 232.93 270.09 203.48"/>
            </g>
            <polygon class="cls-14" points="214.14 258.6 214.14 260.14 214.11 260.77 212.64 260.77 212.64 261.71 219.11 265.45 219.12 261.59 214.14 258.6"/>
            <g class="cls-41">
              <polygon class="cls-8" points="219.11 266.62 217.61 265.75 217.49 233.58 219 234.45 219.11 266.62"/>
              <polygon class="cls-61" points="219 234.45 217.49 233.58 270.87 202.76 272.38 203.63 219 234.45"/>
              <polygon class="cls-48" points="272.38 203.63 272.49 235.81 219.11 266.62 219 234.45 272.38 203.63"/>
            </g>
            <polygon class="cls-8" points="219.11 266.62 212.64 262.89 212.64 258.88 219.12 262.76 219.11 266.62"/>
          </g>
          <g>
            <g class="cls-41">
              <polygon class="cls-61" points="244.01 173.54 242.5 172.66 275.31 153.72 276.82 154.6 244.01 173.54"/>
              <polygon class="cls-8" points="223.56 229.87 222.06 229 221.92 179.61 223.43 180.49 223.56 229.87"/>
              <polygon class="cls-61" points="223.43 180.49 221.92 179.61 240.34 168.98 241.85 169.85 223.43 180.49"/>
              <polygon class="cls-14" points="241.85 169.85 244.01 173.54 276.82 154.6 276.94 199.05 223.56 229.87 223.43 180.49 241.85 169.85"/>
            </g>
            <g class="cls-41">
              <polygon class="cls-31" points="228.59 230.58 224.58 228.25 224.47 187.47 228.48 189.8 228.59 230.58"/>
              <polygon class="cls-3" points="228.48 189.8 224.47 187.47 275.49 158.02 279.51 160.35 228.48 189.8"/>
              <polygon class="cls-29" points="279.51 160.35 279.62 201.13 228.59 230.58 228.48 189.8 279.51 160.35"/>
            </g>
            <polygon class="cls-14" points="223.55 224.7 223.55 226.24 223.53 226.87 222.06 226.87 222.06 227.82 228.53 231.55 228.54 227.69 223.55 224.7"/>
            <g class="cls-41">
              <polygon class="cls-8" points="228.53 232.73 227.02 231.86 226.91 190.45 228.41 191.32 228.53 232.73"/>
              <polygon class="cls-61" points="228.41 191.32 226.91 190.45 280.29 159.63 281.79 160.5 228.41 191.32"/>
              <polygon class="cls-14" points="281.79 160.5 281.9 201.91 228.53 232.73 228.41 191.32 281.79 160.5"/>
            </g>
            <polygon class="cls-8" points="228.53 232.73 222.06 229 222.06 224.99 228.54 228.87 228.53 232.73"/>
          </g>
          <g>
            <g class="cls-41">
              <polygon class="cls-61" points="253.09 227.59 251.58 226.72 284.39 207.78 285.89 208.65 253.09 227.59"/>
              <polygon class="cls-8" points="232.64 274.69 231.14 273.82 231 233.67 232.5 234.54 232.64 274.69"/>
              <polygon class="cls-61" points="232.5 234.54 231 233.67 249.42 223.03 250.92 223.91 232.5 234.54"/>
              <polygon class="cls-14" points="250.92 223.91 253.09 227.59 285.89 208.65 286.02 243.87 232.64 274.69 232.5 234.54 250.92 223.91"/>
            </g>
            <g class="cls-41">
              <polygon class="cls-31" points="237.67 275.4 233.66 273.07 233.55 241.53 237.56 243.86 237.67 275.4"/>
              <polygon class="cls-3" points="237.56 243.86 233.55 241.53 284.57 212.08 288.58 214.41 237.56 243.86"/>
              <polygon class="cls-29" points="288.58 214.41 288.7 245.95 237.67 275.4 237.56 243.86 288.58 214.41"/>
            </g>
            <polygon class="cls-14" points="232.63 269.52 232.63 271.06 232.6 271.69 231.14 271.69 231.14 272.64 237.6 276.37 237.61 272.51 232.63 269.52"/>
            <g class="cls-41">
              <polygon class="cls-8" points="237.6 277.55 236.1 276.68 235.99 244.5 237.49 245.38 237.6 277.55"/>
              <polygon class="cls-61" points="237.49 245.38 235.99 244.5 289.36 213.69 290.87 214.56 237.49 245.38"/>
              <polygon class="cls-14" points="290.87 214.56 290.98 246.73 237.6 277.55 237.49 245.38 290.87 214.56"/>
            </g>
            <polygon class="cls-8" points="237.6 277.55 231.14 273.82 231.14 269.81 237.61 273.69 237.6 277.55"/>
          </g>
          <g class="cls-41">
            <polygon class="cls-26" points="245.81 258.75 247.69 257.65 247.58 283.95 245.7 285.05 245.81 258.75"/>
            <polygon class="cls-52" points="201.47 233.12 203.35 232.03 247.69 257.65 245.81 258.75 201.47 233.12"/>
            <polygon class="cls-64" points="245.81 258.75 245.7 285.05 201.36 259.42 201.47 233.12 245.81 258.75"/>
          </g>
          <g class="cls-41">
            <polygon class="cls-63" points="246.48 252.76 244.7 251.73 244.8 285.67 246.58 286.7 246.48 252.76"/>
            <polygon class="cls-37" points="297.81 223.15 296.04 222.12 244.7 251.73 246.48 252.76 297.81 223.15"/>
            <polygon class="cls-30" points="246.48 252.76 246.58 286.7 297.91 257.09 297.81 223.15 246.48 252.76"/>
          </g>
          <g>
            <polygon class="cls-31" points="279.22 237.61 272.73 241.36 280.66 245.16 280.66 236.78 279.22 237.61"/>
            <polygon class="cls-49" points="268.42 243.84 268.42 252.23 280.66 245.16 272.73 241.36 268.42 243.84"/>
          </g>
          <polygon class="cls-1" points="279.22 237.61 279.22 244.47 268.42 250.7 268.42 243.84 279.22 237.61"/>
        </g>
        <g>
          <g>
            <g>
              <path class="cls-20" d="M214.02,120.11c.9-2.08,1.74-4.83,2.92-8.26.32-.92.5-1.91.51-2.89.01-.99-.3-1.83-.76-2.72-.21-.41-.5-.84-.96-.93-.42-.09-.81.15-1.14.39-1.97,1.49-3.05,3.97-3.51,6.32-.42,2.19-1.15,4.31-1.55,6.51-.08.42-.19.86-.18,1.29.05,2.04,1.39,3.29,2.76,2.67.67-.3,1.42-1.26,1.91-2.39Z"/>
              <path class="cls-64" d="M223.13,166.11c-1.54,1.6-2.9,3.37-4.26,5.13-.39.5-.84.77-1.15,1.33-.25.46-.51,1.31-.36,1.83.2.69,1.73.69,2.3.66.8-.04,1.52-.25,2.21-.65.68-.39,1.03-.91,1.3-1.63.25-.65.46-1.36,1-1.81.5-.42,1.25-.59,1.53-1.18.15-.3.13-.65.1-.99-.07-.63-.32-1.22-.39-1.84-.05-.45-.01-.96-.2-1.39-.16-.36-.67-.54-1.05-.51-.42.03-.81.27-1.1.58l.06.46Z"/>
              <path class="cls-1" d="M222.84,165.7c-1.52,1.59-2.86,3.33-4.2,5.07-.38.5-.77,1-1.07,1.55-.25.45-.57,1.06-.42,1.58.19.68,1.7.68,2.27.65.79-.04,1.5-.25,2.18-.64.67-.38,1.01-.9,1.28-1.62.24-.64.46-1.34.98-1.79.49-.42,1.23-.59,1.51-1.17.14-.3.13-.65.1-.97-.07-.62-.31-1.21-.38-1.82-.05-.45-.01-.95-.2-1.37-.16-.36-.66-.53-1.04-.5-.42.03-.8.26-1.08.57l.06.46Z"/>
              <path class="cls-64" d="M218.08,163.13c-1.81,1.3-3.47,2.78-5.13,4.26-.47.42-.97.61-1.37,1.1-.33.4-.74,1.19-.69,1.74.07.71,1.57.99,2.15,1.07.8.11,1.54.03,2.29-.23.74-.26,1.18-.7,1.58-1.37.36-.6.71-1.25,1.31-1.6.57-.32,1.33-.35,1.72-.88.2-.27.25-.62.28-.95.05-.63-.09-1.26-.04-1.88.03-.45.16-.95.05-1.4-.09-.39-.56-.65-.94-.7-.42-.05-.85.11-1.18.37l-.03.47Z"/>
              <path class="cls-1" d="M217.87,162.67c-1.78,1.28-3.42,2.75-5.06,4.21-.47.42-.94.84-1.33,1.33-.32.4-.76.94-.7,1.47.07.7,1.55.98,2.11,1.06.79.1,1.52.03,2.26-.23.73-.25,1.16-.7,1.56-1.35.36-.59.7-1.24,1.3-1.58.56-.32,1.32-.35,1.7-.87.2-.27.25-.61.27-.94.05-.62-.09-1.25-.04-1.86.03-.45.16-.94.05-1.38-.09-.38-.55-.64-.93-.69-.42-.05-.84.11-1.17.37l-.03.46Z"/>
              <path class="cls-64" d="M213.03,137.58c.63,3.68.55,14.49,4.12,13.4,1.12-.34,3-2.4,3.09-4.87.05-1.33-.09-3.21-.07-4.54.05-2.75,2.39-11.67-3.26-13.16-.85-.22-2.21-1.84-2.9-1.22-.14.13-.58.72-.89,1.99-.17.72-.24,1.82-.34,2.79-.16,1.66-.1,3.58.25,5.61Z"/>
              <path class="cls-64" d="M216.06,164.34c.16.77.68,1.61,3.33,1.41.72-.06,1.05-2.17,1.15-2.74.41-2.44-.12-5.3-.04-7.78.12-3.94-.57-5.08-.81-6.89-.1-.75,0-1.57-.45-2.18-1.08-1.47-3.63-.17-4.27,1.63-.27.75-.14,1.08.01,1.83.68,3.21,1.08,14.68,1.09,14.71Z"/>
              <path class="cls-52" d="M219.35,148.05c-.02.84.03,1.68.06,2.51.06,1.35.13,2.7.2,4.05.42,7.58.34,11.44.93,13.03.49,1.31,2.22,1.25,3.34.9.49-.15.96-.43,1.26-.85.29-.41.38-.93.46-1.42.78-4.81.65-9.61-.4-14.36-.25-1.11-.56-2.27-1.18-3.24-.22-.35-1.63,1.92-1.98,1.7-.38-.23.51-.87.07-.85-.84.05-1.65.42-2.22,1.03l-.56-2.51Z"/>
              <path class="cls-52" d="M225.83,128.86s-.32-.46-.33-.45c-1.24.6-2.74.41-4.2.56-3.13.31-3.39.86-5.42-.56-.45,2.15.03,4.18,0,4.66-.14,2.47,2.15,2.72,2.21,4.02.15,3.02.42,8.99.82,11.99.15,1.17.35,2.36.95,3.38.7,1.18,1.95,1.83,3.32,1.73.35-.03.71-.13.97-.36.62-.54,1.26-.38,1.19-1.2-.19-2.38.19-5.72.74-8.04,1.13-4.7,1.65-9.88-.28-15.73Z"/>
              <path class="cls-50" d="M225.97,123.8c-.1.78-.18,1.59-.2,2.38.04-.79.11-1.59.2-2.38Z"/>
              <path class="cls-50" d="M225.77,126.18c-.02.48-.03.97-.03,1.45,0,0,.02,0,.03-.01-.01-.48-.01-.96,0-1.43Z"/>
              <path class="cls-65" d="M225.77,126.18c.04-.79.11-1.59.2-2.38.13-1.01.3-2,.53-2.99.4-1.76.87-3.17,1.35-4.91.27-.97.85-2.44.93-3.14.19-1.6-.74-2.84-2.81-4.24-1.4-.95-4.2-2.2-6.93-3.05-3.83-1.2-4.37.2-5.47,3.25-1.03,2.84-.73,7.53-.27,10.56.24,1.6.39,3.22.45,4.84.05,1.4-.11,2.72-.34,4.09,3.35,2.37,7.92,1.77,11.75.84.24-.04.46-.11.68-.21-.08-.89-.1-1.79-.07-2.68Z"/>
              <path class="cls-31" d="M222.03,114.83c-.75,2.14.38,4.27.38,6.41.1,2.79,0,5.6-.18,8.41,1-.15,1.98-.36,2.92-.58.24-.04.46-.11.68-.21-.08-.89-.1-1.78-.07-2.68.04-.79.11-1.59.2-2.38.13-1.01.3-2,.53-2.99.4-1.76.87-3.17,1.35-4.91.27-.97.85-2.44.93-3.14.11-.96-.18-1.78-.87-2.59-2.29,1.29-4.88,2.05-5.88,4.66Z"/>
              <path class="cls-52" d="M218.97,126.28c-.42.35-.91.78-1.32,1.13-.59-.93-.61-1.01-1.16-1.94-.02-5.54.22-10.73,1.54-16.04.51.36.77.55,1.29.91-.67,5.08-1.09,10.36-.35,15.94Z"/>
              <path class="cls-35" d="M217.49,109.3s0,.05,0,.08c0,.16.1.35.15.5.12.32.26.62.43.91.09.16.21.32.38.39.19.08.41.02.59-.08.21-.12.58-.29.54-.54-.04-.22-.12-.45-.19-.67-.15-.44-.35-.99-.76-1.26-.46-.3-.78.15-1.02.49-.05.07-.09.12-.11.18Z"/>
              <path class="cls-72" d="M223.27,107.06c.1,3.09-5.7,3.14-5.62.24.12-4.05.36-4.52,2.27-5.15.52-.17,1.07-.31,1.62-.31,2.02-.04,1.24.99,1.16,1.7-.22,2.12.53,2.41.56,3.52Z"/>
              <path class="cls-9" d="M223.27,107.06c-.03-1.11-.79-1.41-.56-3.52.08-.71.86-1.74-1.16-1.7-.55,0-1.1.14-1.62.31-1.88.62-2.15,1.08-2.27,4.98,1.6-.15,3.02-1.93,4.66-.87.44.33.73.75.93,1.21.02-.13.03-.27.02-.41Z"/>
              <path class="cls-72" d="M222.32,106.26c-1.64-1.05-3.05.72-4.66.87,0,.05,0,.11,0,.16-.08,2.77,5.19,2.85,5.6.17-.2-.46-.5-.89-.93-1.21Z"/>
              <path class="cls-20" d="M218.6,108.96c-.1.33-.54.45-.83.64-.13.08-.35.25-.51.21-.17-.03-.27-.26-.32-.4-.41-1-.64-2.09-.65-3.17,0-.34.05-.72.32-.97.24-.22.66-.26.95-.13.32.14.39.76.28,1.05-.41,1.04.06,2.23.77,2.76Z"/>
              <path class="cls-20" d="M218.56,108.98s.5.8,1.12,1.34c.15.14.27.3.48.24,1-.32,3.09-2.08,3.51-3.19.15-.4-.14-.9-.37-1.22-.04-.06-.36-.49-.42-.53-.04.06-.26.86-.61,1.38-.81,1.19-2.28,1.79-3.71,1.99Z"/>
            </g>
            <g>
              <path class="cls-70" d="M217.02,126.13c-.3-.04-1.17-.03-1.47.03-.3.06.53.43.35.68-.27.37-.8.63-.74,1.09.05.37.1.74.24,1.08s.37.66.69.84c.12.07.26.12.41.12.1,0,.19-.03.29-.05.53-.14,1.06-.28,1.59-.42.12-.03.23-.06.34-.12.14-.07.26-.19.36-.32.35-.46.41-1.07.28-1.62-.06-.26-.17-.6-.37-.8-.16-.17-.46-.18-.68-.24-.43-.12-.86-.22-1.3-.28Z"/>
              <path class="cls-70" d="M218.24,126.3c-.48-.36-.97-.72-1.45-1.07-.19-.14-.38-.28-.59-.36-.17-.06-.35-.09-.52-.13-.16-.04-.31-.1-.48-.12-.49-.08-.97.13-1.43.33-.18.08-.37.17-.51.32-.09.09-.16.24-.08.35.04.05.09.08.15.1.16.07.33.14.51.13.21-.01.41-.13.62-.16.37-.05.72.18.95.47.23.29.37.64.57.95.2.31.49.6.85.65.13.02.26,0,.39-.01.3-.04.6-.11.86-.27.22-.14.4-.34.48-.59.09-.28-.11-.42-.32-.58Z"/>
            </g>
            <path class="cls-20" d="M218.31,129.24c.58.5,1.5.43,2.21.33,2.16-.29,11-1,9.69-4.74-.2-.57-1.16-.76-1.8-.86-.79-.12-6.99.99-9.74,2.4-.36.19-.74.41-.93.76-.3.57.1,1.72.56,2.1Z"/>
            <polygon class="cls-52" points="213.25 119.97 205.56 115.52 205.93 115.27 213.62 119.72 213.25 119.97"/>
            <polygon class="cls-64" points="213.62 119.72 216.86 129.64 216.24 129.22 213.25 119.97 213.62 119.72"/>
            <polygon class="cls-1" points="216.49 129.89 208.81 125.43 205.56 115.52 213.25 119.97 216.49 129.89"/>
            <path class="cls-70" d="M216.08,128.2c.32-.19.09-1.17-.04-1.33-.31-.38-.25.24-1.39.22-.33,0-.67-.01-.97-.13-.22-.09-.48-.23-.68-.1-.16.1-.19.32-.11.49-.31-.14-.36.43-.14.7.43.52-.33.6.57,1.3-.06.04-.11.07-.17.11.1.98,2.5.67,3.48.49,1.73-.32.24-1.65-.54-1.76Z"/>
            <g>
              <path class="cls-70" d="M208.02,122.01c-.54.26-.82-.38-.59-.6.23-.22,1.08-.31,1.27.14.15.37-.33.29-.68.46Z"/>
              <path class="cls-70" d="M206.56,118.97c-.33.23-.08.85.09.86.1,0,.2-.07.29-.11.21-.09.45-.11.69-.07.1.02.2.05.29.04.09,0,.19-.05.22-.16.15-.42-.51-.66-.7-.71-.51-.14-.74.04-.89.15Z"/>
              <path class="cls-70" d="M206.77,120.59c.26.25.35-.22,1.09-.1.1.02.2.04.29.03s.18-.06.22-.17c.15-.42-.51-.65-.71-.7-.91-.23-1.37.47-.89.93Z"/>
              <path class="cls-70" d="M207.09,121.32c.3.12.34-.02.9-.08.87-.1.55-.89-.48-.73-.06,0-.35.05-.42.08-.32.12-.31.6,0,.73Z"/>
            </g>
          </g>
          <path class="cls-20" d="M230.65,124.12c.06-2.27-.17-5.14-.34-8.75-.05-.97-.24-1.96-.59-2.87-.35-.92-.95-1.59-1.71-2.25-.34-.3-.78-.59-1.23-.51-.42.07-.7.44-.92.79-1.28,2.11-1.37,4.82-.93,7.17.42,2.19.53,4.43.96,6.62.08.42.15.87.31,1.27.8,1.88,2.5,2.55,3.55,1.47.51-.53.85-1.7.89-2.93Z"/>
          <g>
            <path class="cls-70" d="M215.66,97.34c-.4.64-.64,1.38-.63,2.17,0,.34.06.68.17,1,.11.3.3.59.3.92,0,.39-.27.82-.4,1.18-.11.33-.18.7-.05,1.02.07.19.21.34.32.51.51.8.03,1.99.92,2.57.22.14.49.17.75.19.33.02,1.82-.4,2.39-.65.64-.28,1.26-1,1.72-1.53.36-.41.96-.93,1.19-1.42.07-.15-.1-.18.05-.25.09-.05.21-.64.31-.65.12-.01.29-.15.39-.22.2-.13.3.35.36.12.28-.98.63-1.98.59-3.01-.04-.95-.02-1.76-.63-2.56-.46-.6-1.11-1.04-1.82-1.31-1.08-.41-2.31-.43-3.41-.06-1.04.35-1.96,1.07-2.54,1.99Z"/>
            <path class="cls-62" d="M224.05,99.28c-.04-.95-.02-1.76-.63-2.56-.46-.6-1.11-1.04-1.82-1.31-.65-.25-1.34-.35-2.03-.32-1.03,2.06.46,4.71-.66,6.85-.38.5-1.13.88-1.13,1.51-.25,1.13.87,2.13.25,3.26.52-.14,1.09-.32,1.41-.46.64-.28,1.26-1,1.72-1.53.36-.41.96-.93,1.19-1.42.07-.15-.1-.18.05-.25.09-.05.21-.64.31-.65.12-.01.29-.15.39-.22.2-.13.29.35.36.12.28-.98.63-1.98.59-3.01Z"/>
            <path class="cls-51" d="M219.25,98.21c.27-.04.54-.03.78.07.42.19.66.64.73,1.09.15.99-.2,1.98-.22,2.97,0,.15,0,.3.08.43.2.35.57.16.78-.06.14-.14.24-.31.37-.46.13-.15.29-.28.48-.31.31-.06.55.19.59.47.04.26,0,.52-.07.77-.02.06-.15.51.04.52.19,0,1.83-1.69,1.91-4.57.07-2.76-1.84-3.27-1.84-3.27,0,0-.84-1.43-3.07-1.32-1.17.06-2.31.44-3.3,1.05-.04.02-.08.05-.12.08-.48.31-.93.68-1.24,1.16-.85,1.32.3,2.37,1.68,2.15.65-.1,1.25-.41,1.87-.62.18-.06.37-.12.55-.15Z"/>
          </g>
          <path class="cls-66" d="M219.25,98.21c.27-.04.54-.03.78.07.42.19.66.64.73,1.09.15.99-.2,1.98-.22,2.97,0,.15,0,.3.08.43.2.35.57.16.78-.06.14-.14.24-.31.37-.46.13-.15.29-.28.48-.31.31-.06.55.19.59.47.04.26,0,.52-.07.77-.02.06-.15.51.04.52.19,0,1.83-1.69,1.91-4.57.07-2.76-1.84-3.27-1.84-3.27,0,0-1.14.43-1.93.93-.79.5-1.69,1.42-1.69,1.42Z"/>
          <path class="cls-62" d="M222.54,101.19c.82-.05,1.03.96.46,1.75-.16.23-.45.43-.67.62-1.47,1.25-1.84-.1-1.37-.53,1.08-.99.54-1.77,1.57-1.84Z"/>
          <path class="cls-50" d="M222.04,103.13c.09-.09,1.03-.64.39-1.01-.18-.1-.37.05-.4.24-.01.1.02.2,0,.29,0,.06-.03.11-.06.16-.08.14-.37.27-.31.46.05.17.32-.09.38-.14Z"/>
        </g>
        <g class="cls-60">
          <path class="cls-25" d="M201.47,19.69c45.47,26.25,45.47,68.82,0,95.08-45.47,26.25-119.2,26.25-164.67,0-45.47-26.25-45.47-68.82,0-95.08,45.47-26.25,119.2-26.25,164.67,0Z"/>
          <path class="cls-24" d="M192.33,47.85c40.42,23.34,40.42,61.18,0,84.52-40.42,23.34-105.96,23.34-146.39,0-40.42-23.34-40.42-61.18,0-84.52,40.42-23.34,105.96-23.34,146.39,0Z"/>
          <path class="cls-73" d="M183.18,76.01c35.37,20.42,35.37,53.54,0,73.96-35.37,20.42-92.73,20.42-128.1,0-35.37-20.42-35.37-53.54,0-73.96,35.37-20.42,92.73-20.42,128.1,0Z"/>
          <path class="cls-55" d="M174.04,104.17c30.32,17.51,30.32,45.9,0,63.4-30.32,17.51-79.49,17.51-109.82,0-30.32-17.51-30.32-45.9,0-63.4,30.32-17.51,79.49-17.51,109.82,0Z"/>
          <path class="cls-27" d="M164.9,132.33c25.28,14.59,25.28,38.25,0,52.85-25.28,14.59-66.26,14.59-91.53,0-25.28-14.59-25.28-38.25,0-52.85,25.28-14.59,66.26-14.59,91.53,0Z"/>
          <path class="cls-33" d="M155.76,160.49c20.23,11.68,20.23,30.61,0,42.29-20.23,11.68-53.02,11.68-73.25,0-20.23-11.68-20.23-30.61,0-42.29,20.23-11.68,53.02-11.68,73.25,0Z"/>
          <path class="cls-37" d="M146.62,188.64c15.18,8.76,15.18,22.97,0,31.73-15.18,8.76-39.78,8.76-54.96,0-15.18-8.76-15.18-22.97,0-31.73,15.18-8.76,39.78-8.76,54.96,0Z"/>
        </g>
        <g>
          <path class="cls-47" d="M148.37,187.92c16.25,9.38,16.34,24.6.19,33.98-16.15,9.38-42.41,9.38-58.66,0-16.25-9.38-16.34-24.6-.19-33.98,16.15-9.38,42.42-9.38,58.67,0Z"/>
          <path class="cls-63" d="M144.7,191.87c14.21,7.2,14.28,18.88.16,26.08-14.12,7.2-37.08,7.2-51.29,0-14.21-7.2-14.29-18.88-.17-26.08,14.12-7.2,37.08-7.2,51.29,0Z"/>
          <path class="cls-11" d="M146.28,191.55c-7.23-4.18-16.93-6.48-27.28-6.48s-20.12,2.36-27.19,6.47c-6.34,3.68-9.98,8.53-9.97,13.3,0,.23.01.46.03.7.33,4.59,3.99,9.2,10.12,12.74,7.24,4.17,16.93,6.47,27.28,6.47s20.12-2.36,27.19-6.47c6.04-3.5,9.62-8.06,9.95-12.61.03-.23.03-.47.03-.7,0-4.81-3.71-9.71-10.15-13.42Z"/>
          <path class="cls-68" d="M146.28,192.94c-7.23-4.17-16.93-6.47-27.28-6.47s-20.12,2.36-27.19,6.47c-6.04,3.5-9.62,8.07-9.94,12.6.33,4.59,3.99,9.2,10.12,12.74,7.24,4.17,16.93,6.47,27.28,6.47s20.12-2.36,27.19-6.47c6.04-3.5,9.62-8.06,9.95-12.61-.34-4.59-3.99-9.19-10.12-12.73ZM144.84,216.9c-6.6,3.83-15.92,6.04-25.57,6.04s-18.91-2.15-25.67-6.05c-5.42-3.13-8.53-7.01-8.54-10.65,0-.23.01-.46.04-.69-.03-.22-.04-.48-.04-.7,0-3.59,3.05-7.43,8.37-10.52,6.6-3.83,15.92-6.04,25.57-6.04s18.92,2.14,25.67,6.05c5.42,3.13,8.53,7.01,8.54,10.64,0,.23-.01.46-.04.69.03.23.04.48.04.71,0,3.59-3.05,7.42-8.37,10.52Z"/>
        </g>
        <g>
          <path class="cls-64" d="M123.36,179.11c-.22,1.5-.04,2.9-.07,4.41-.03,1.6-.19,3.21-.53,4.78-.3,1.41-.74,2.79-.89,4.22-.16,1.43,0,2.96.79,4.16.2.31.45.59.77.77.43.24.95.26,1.43.17,1.49-.26,2.7-1.47,3.28-2.87.57-1.4.6-2.97.41-4.48-.18-1.5-.56-2.98-.76-4.48-.24-1.83-.06-3.55.06-5.37.04-.58-.04-.95.39-1.4.46-.49,1.14-.81,1.8-.92.61-.1,1.26-.02,1.83-.25.78-.31,1.28-1.2,1.13-2.03-.1-.59-.48-1.08-.88-1.52-.89-.96-2.04-1.78-3.35-1.87-1.33-.09-2.62.62-3.49,1.63-.87,1.01-1.35,2.3-1.66,3.59-.11.48-.21.96-.28,1.45Z"/>
          <path class="cls-70" d="M150.39,224.21c1,.82,1.86,5.87-2.18,5.76-2.09-.06-3.9-1.47-5.71-2.61-1.03-.65-.51-1.77-1.58-2.32-4.93-2.53-11.25-3.9-10.34-9.86.1-.67.28-3.49.79-3.81.37-.23,2.46.51,2.93.58,4.51.75,5.1.77,5.84,1.28.12,3.39.67,3.98,2.52,5.09.86.51,6.97,5.27,7.72,5.89Z"/>
          <g>
            <path class="cls-35" d="M151.52,244.84v-3.69h1.01l-.26,3.73c-.24.17-.53.22-.75-.03Z"/>
            <path class="cls-35" d="M158.27,244.24c.5.61,1.16,1.58,1.58,2.25.12.18.22.4.19.61-.03.22-.19.41-.38.52-.19.11-.41.16-.64.19-.87.13-1.76.08-2.61-.14-.46-.12-.93-.31-1.27-.65-.48-.49-.64-1.2-.82-1.86-.18-.66-.47-1.37-1.08-1.68-.17-.09-.35-.14-.52-.22-1.26-.58-1.52-2.25-.81-3.36.38-.6.89-.56,1.48-.31.72.3,1.11.91,1.65,1.43.08.07.15.15.24.21.57.46-.25-2.1.08-1.41.95,1.95,2.3,3.66,2.91,4.4Z"/>
            <path class="cls-9" d="M154.64,218.72c.41.37.71.91.8,1.57.32,2.29.22,4.79.18,7.1-.04,2.11-.46,4.2-.46,6.31,0,1.33.16,5.06.46,6.36.16.69-1.12,1.18-1.76.86-.44-.22-1.31-.77-1.36-1.26-.29-2.77-1.75-5.28-2.43-7.98-.57-2.24-.61-4.72-.18-6.99.36-1.89.47-4.27,1.84-5.75.92-.99,2.12-.93,2.91-.22Z"/>
            <path class="cls-9" d="M155.48,239.22c.05.47.15.93.28,1.38.06.21.08.42.16.62.08.22.2.43.32.63.22.38.45.74.71,1.1.24.33.56.63.75,1,.13.26.29.79-.02.99-.17.11-.39.1-.59.06-.6-.13-1.1-.53-1.53-.97-.43-.43-.83-.91-1.33-1.26-.33-.23-.7-.39-1.03-.62-.64-.45-1.19-1.18-1.11-1.99.04-.43.31-.79.34-1.21.02-.42,0-.88.23-1.25l2.84,1.51Z"/>
          </g>
          <g>
            <path class="cls-75" d="M154.92,248.54c.02.12.03.24.04.36,0,.41-.13.83-.43,1.09-.25.21-.58.3-.91.29-1.14-.04-2.09-.96-2.65-1.89-.67-1.11-.91-2.57-1.84-3.5-.22-.21-.47-.39-.67-.62-.32-.36-.48-.84-.52-1.33-.03-.41.02-.84.25-1.19.44-.68,1.4-.71,2.05-.38.5.24,1.22.1,1.59.53.44.53.38.62.67,1.12.78,1.34,1.67,3.23,2.19,4.69.1.27.19.54.24.82Z"/>
            <path class="cls-62" d="M149.44,218.19c.78,5.27.39,11.79,1.12,17.06.2,1.44,1.47,7.3,1.99,8.66.28.73-1.69,1.15-2.43.9-.51-.17-1.41-2.16-1.54-2.68-.74-2.97-2.7-5.47-3.86-8.3-1.19-2.91-1.63-7.3-1.01-10.38.13-.63.36-1.33.95-1.58l4.77-3.69Z"/>
            <path class="cls-62" d="M151.29,241.58c.16.34.66.29.77.65.12.4.46,1.4.63,1.78.21.46.43,1.09.48,1.6.04.45-.08.77-.45,1.03-.43.31-.86.31-1.28,0-.45-.32-.82-.74-1.15-1.18-.3-.4-.62-.8-.83-1.25-.41-.87-.89-1.85-1.02-2.82-.01-.1-.04-1.4.04-1.37.19.07.37.17.55.27.7.38,1.4.75,2.11,1.13.27.14.03-.15.16.14Z"/>
          </g>
          <g>
            <g>
              <path class="cls-16" d="M140.22,203.54c-.96-2.23-1.86-5.18-3.12-8.84-.34-.99-.53-2.04-.55-3.09-.01-1.06.32-1.96.82-2.91.22-.43.54-.9,1.03-1,.44-.09.87.16,1.22.42,2.11,1.59,2.47,3.77,2.96,6.28.45,2.34.39,5.4.58,7.79.04.45.58,4.57-.89,3.91-.72-.33-1.52-1.35-2.04-2.56Z"/>
              <path class="cls-16" d="M140.7,201.3c.51-.39,1.11-2.61,1.43-2.12.22.34,2.69,4.22,3.72,5.65-1.37.95-2.57,2.06-3.72,3.23-1.54-1.87-2.93-3.92-2.91-5.22,0-.66.81-1,1.48-1.52Z"/>
              <path class="cls-50" d="M125.76,205.83c.12.9.2,1.82.24,2.73-.04-.91-.12-1.82-.24-2.73Z"/>
              <path class="cls-50" d="M125.99,208.56c.03.55.04,1.11.04,1.66-.01,0-.02,0-.03-.02.02-.55.01-1.1,0-1.65Z"/>
              <path class="cls-59" d="M152.42,225.31c-.86.58-1.74,1.12-2.66,1.58-1.63.81-3.79,1.64-5.65,1.47-1.56-.15-2.73-1.83-4.15-2.4-4.45-1.77-6.32-2.16-9.2-4.45-2.8-2.22-3.03-5.65-2.56-9.05.1-.73.17-1.47.31-2.19.08-.39.16-1.17.54-1.41.45-.28,2.96.61,3.52.7,5.43.9,7.44-1.11,8.34-.5,2.33,1.58,4.74,3.02,7.18,4.43,1.9,1.09,3.72,2.25,5.57,3.42.95.6,1.56,1.6,2.05,2.6.41.83.6,2.31.07,3.13-.28.43-.7.75-1.12,1.06-.74.55-1.48,1.09-2.24,1.61Z"/>
            </g>
            <path class="cls-50" d="M128.77,188.8c1.26-.57,2.63-.93,3.96-1.23.21-.05.43-.1.64-.14,1.61-.34,3.32-.26,4.81.39.02,0,.03.02.05.02v9.88h-9.46v-8.92Z"/>
            <path class="cls-56" d="M124.51,193.1c.2-2.27,2.78-3.52,4.67-4.67.27,1.86,1.09,3.58,2.98,4.21,1,.43,2.29,0,2.87-.86.99-1.32.88-2.98.71-4.66.85.12,1.69.36,2.45.69.74.33,1.37.88,1.84,1.54.34.48.3,1.28.43,1.84.17.72.39,1.42.68,2.09.34.83.91,1.58,1.21,2.42.28.81.11,2.09-.15,2.89-.14.43-.36.84-.57,1.25-.33.64-.63,1.29-.91,1.95-.26.61-.5,1.23-.57,1.88-.07.58,0,1.16.09,1.73.24,1.57,1.36,3.65-.03,4.98-.86.82-1.88,1.46-2.98,1.9-.51.2-1.04.37-1.58.47-2.23.41-4.82-.2-6.6-1.59-.2-.15-.31-.23-.35-.44-.03-.13,0-.42,0-.57-.03-.58.07-1.17.1-1.75.07-1.22.07-2.45-.13-3.66-.61-3.65-3.01-6.76-4.01-10.33-.13-.48-.17-.92-.14-1.33Z"/>
            <path class="cls-16" d="M125.23,191.33c2.79.58,2.38,5.75,3.85,8.01,1.09,1.77,3.4,1.36,5.3,1.49-1.22.68-2.04,1.77-2.04,3.12-.16,2.88.07,5.86.66,8.78-1.43-.19-2.81-.67-3.96-1.57-.2-.15-.31-.23-.35-.44-.03-.13,0-.42,0-.57-.03-.58.07-1.17.1-1.75.07-1.22.07-2.45-.13-3.66-.61-3.65-3.01-6.76-4.01-10.33-.13-.48-.17-.92-.14-1.33.06-.67.33-1.25.72-1.77Z"/>
            <path class="cls-16" d="M134,192.61c.12.38,1.71.66,1.9.62.19-.04.3-.29.37-.45.47-1.14.73-2.38.75-3.61,0-.39-.06-.83-.37-1.1-.27-.25-.75-.3-1.08-.15-.36.16-.23.18-.1.51.46,1.18-.66,3.58-1.47,4.18Z"/>
            <path class="cls-50" d="M129.61,189.07c-.1,3.48,5.97,3.54,5.88.27-.12-4.56-.38-5.09-2.38-5.79-.55-.19-1.12-.34-1.7-.35-2.11-.04-1.29,1.11-1.21,1.91.24,2.38-.55,2.71-.59,3.97Z"/>
            <path class="cls-9" d="M133.11,183.55c-.55-.19-1.12-.34-1.7-.35-2.11-.04-1.29,1.11-1.21,1.91.06.66.05,1.15,0,1.56,1.3,1.74,3.19,2.91,5.22,3.33.05-.2.08-.42.08-.66-.12-4.56-.38-5.09-2.38-5.79Z"/>
            <path class="cls-70" d="M132.14,186.79c-.18-.15-.35-.3-.52-.45-.58-.54-1.24-1.17-1.64-1.85-1.29-2.2-1.36-5.14.49-7.05,1.31-1.36,3.39-1.92,5.2-1.4.49.14.96.35,1.41.58.39.2.78.43,1.08.75.2.21.35.46.49.72.15.29.3.58.38.9.35,1.42-.59,2.88-.05,4.28.12.31.3.59.4.9.11.31.14.67-.03.95-.16.26-.37.4-.47.69-.13.4-.22.82-.33,1.22-.12.44-.25.88-.47,1.28-.54.97-1.33,1.04-2.31.65-1.32-.52-2.54-1.25-3.62-2.16Z"/>
            <path class="cls-52" d="M127.77,180.12c.1-2.77.91-3.24,1.96-4.12,1.02-.85,2.39-1.24,3.72-1.2,1.35.04,2.68.51,3.82,1.22.05.03.09.06.14.09.59.39,1.12.83,1.43,1.47.17.34.29.71.36,1.08.12.71-.5,1-1.11,1.2-.83.26-2.01-.1-2.86-.19-.4-.04-.81-.09-1.19.02-.39.1-.75.38-.84.77-.09.41.13.81.22,1.22.18.81-.23,1.68-.9,2.13-.4.27-.68.29-1.11.09-.39-.18-.78-.48-1.21-.21-.39.24-.25.76-.15,1.13.02.07.42.65.2.65-.22,0-2.57-2.01-2.45-5.34Z"/>
            <path class="cls-64" d="M133.19,180.45c-.09.41.13.81.22,1.22.18.81-.23,1.68-.9,2.13-.4.27-.68.29-1.11.09-.39-.18-.78-.48-1.21-.21-.39.24-.11.71-.02,1.08.02.07.28.7.07.7-.22,0-2.57-2.01-2.45-5.34.06-1.62.36-2.46.81-3.04,0,0,1.26.49,2.39,1.29,1.05.75,2.21,2.09,2.21,2.09Z"/>
            <path class="cls-70" d="M130.41,182.64c-.94-.06-1.18,1.11-.54,2.01.19.26.52.5.77.71,1.69,1.44,2.12-.12,1.58-.61-1.25-1.14-.63-2.03-1.81-2.11Z"/>
          </g>
          <g class="cls-41">
            <polygon class="cls-52" points="158.96 216.94 158.96 218.36 142.57 227.88 142.58 226.46 158.96 216.94"/>
            <polygon class="cls-42" points="142.58 226.46 142.57 227.88 132.41 222.01 132.41 220.59 142.58 226.46"/>
            <g>
              <polygon class="cls-52" points="158.96 216.94 142.58 226.46 132.41 220.59 148.8 211.07 158.96 216.94"/>
              <polygon class="cls-44" points="146.17 216.03 141.72 218.6 139.29 217.2 143.74 214.63 146.17 216.03"/>
              <polygon class="cls-44" points="136.87 222.17 151.84 213.47 157.18 216.56 142.22 225.26 136.87 222.17"/>
            </g>
          </g>
          <path class="cls-68" d="M123.87,207.5c-.47-2.43-.73-5.56-1.18-9.49-.12-1.06-.08-2.15.13-3.2.22-1.06.74-1.88,1.45-2.72.32-.38.73-.78,1.24-.77.46,0,.83.35,1.12.69,1.75,2.05,2.33,4.95,2.26,7.56-.06,2.43.22,4.86.13,7.3-.02.46,0,.96-.11,1.42-.53,2.17-2.25,3.19-3.57,2.21-.65-.48-1.22-1.68-1.47-3Z"/>
          <g>
            <g>
              <g>
                <path class="cls-62" d="M147.12,213.25c.13.27.61.97.82,1.18.21.21.06-.67.36-.66.45.02.95.31,1.29,0,.27-.24.54-.48.75-.78s.34-.66.31-1.02c-.01-.14-.05-.28-.13-.4-.05-.08-.13-.14-.2-.21-.4-.36-.81-.71-1.21-1.07-.09-.08-.18-.16-.28-.21-.14-.08-.3-.11-.46-.12-.56-.03-1.1.24-1.47.65-.18.2-.39.47-.45.73-.05.22.11.47.18.68.14.41.29.82.48,1.21Z"/>
                <path class="cls-62" d="M146.59,212.17c-.03.59-.06,1.18-.09,1.77-.01.23-.02.46.03.68.04.17.12.33.18.5.05.15.09.31.16.46.2.44.64.72,1.05.98.17.1.34.21.54.25.12.02.28,0,.33-.12.02-.06.01-.12,0-.18-.03-.17-.07-.35-.17-.49-.13-.17-.33-.26-.47-.42-.24-.27-.24-.68-.13-1.03.11-.34.32-.65.46-.98.14-.33.22-.72.06-1.05-.05-.12-.14-.22-.22-.31-.2-.22-.42-.43-.69-.55-.23-.1-.5-.14-.74-.07-.27.08-.28.32-.29.58Z"/>
              </g>
              <path class="cls-62" d="M149.32,212.9c-.33-.15-1,.57-1.06.76-.14.46.33.08.94,1.01.17.27.35.55.43.86.05.23.08.51.29.61.16.07.36-.02.46-.18.05.33.54.06.64-.27.19-.64.67-.06.75-1.17.06.03.12.05.18.08.75-.61-.81-2.4-1.49-3.1-1.2-1.23-1.47.7-1.14,1.4Z"/>
            </g>
            <path class="cls-16" d="M142.12,208.05c1.15-1.17,2.36-2.28,3.72-3.23,1.23,1.7,2.34,3.56,3,5.02.61,1.35-2,2.62-2.63,1.92-.52-.57-2.7-2.02-4.09-3.71Z"/>
            <g>
              <path class="cls-70" d="M139.26,218.31c.29.15,1.06.72,1.29.96.23.24-.75.05-.75.38,0,.5.3,1.06-.04,1.43-.27.3-.56.59-.9.8-.34.22-.75.35-1.15.31-.16-.02-.31-.06-.44-.15-.09-.06-.15-.15-.22-.23-.38-.46-.76-.92-1.14-1.39-.08-.1-.17-.2-.23-.32-.08-.16-.11-.34-.11-.51-.01-.63.31-1.21.78-1.61.22-.19.54-.42.83-.47.25-.05.52.14.75.22.45.17.9.35,1.33.58Z"/>
              <path class="cls-70" d="M138.07,217.67c.66,0,1.31-.02,1.97-.03.25,0,.51,0,.75.06.19.05.36.15.55.22.17.07.34.11.5.19.48.24.78.74,1.05,1.2.11.19.22.39.25.61.02.14-.02.31-.15.36-.06.02-.13,0-.2,0-.19-.04-.38-.09-.54-.21-.18-.15-.28-.38-.45-.54-.29-.28-.75-.3-1.14-.19-.39.11-.73.33-1.11.48s-.81.22-1.17.03c-.13-.07-.24-.16-.34-.26-.24-.23-.46-.48-.59-.79-.11-.26-.14-.56-.05-.83.1-.3.36-.3.65-.3Z"/>
            </g>
            <path class="cls-68" d="M136.01,219.6c-.82.17-1.66-.37-2.29-.84-1.53-1.13-8.99-7.33-9.5-10.21-.13-.73.7-1.11,1.34-1.7.49-.44,3.04.08,3.49.62.72.84,6.21,6.41,8.1,9.2.25.37.49.78.49,1.21,0,.7-1,1.59-1.64,1.72Z"/>
            <path class="cls-70" d="M138.78,220.74c-.16-.37.67-1.09.89-1.15.52-.14.07.37,1.08,1.08.29.21.6.42.94.51.25.07.57.11.67.35.08.19-.04.41-.21.51.36.07.05.61-.32.7-.72.19-.09.75-1.33.79.03.07.05.14.08.21-.71.81-2.64-1-3.39-1.78-1.33-1.38.84-1.61,1.6-1.22Z"/>
          </g>
          <g class="cls-41">
            <g>
              <path class="cls-75" d="M161.32,207.14l1.23.71c-.08-.05-.2-.04-.33.03l-1.23-.71c.13-.07.25-.08.33-.03Z"/>
              <g class="cls-54">
                <g class="cls-41">
                  <path class="cls-75" d="M162.22,207.89l-1.23-.71s.1-.05.14-.06l1.23.71s-.09.03-.14.06Z"/>
                  <path class="cls-75" d="M162.36,207.83l-1.23-.71c.07-.01.13,0,.18.02l1.23.71c-.05-.03-.11-.03-.18-.02Z"/>
                  <path class="cls-75" d="M162.55,207.86l-1.23-.72,1.23.72Z"/>
                </g>
              </g>
            </g>
            <polygon class="cls-75" points="146.76 216.87 145.53 216.16 160.99 207.18 162.22 207.89 146.76 216.87"/>
            <g>
              <path class="cls-75" d="M146.29,217.68l-1.23-.71c0-.3.21-.66.47-.81l1.23.71c-.26.15-.47.51-.47.81Z"/>
              <g class="cls-7">
                <g>
                  <path class="cls-76" d="M146.53,217.07l-1.23-.71c.07-.08.15-.15.23-.2l1.23.71c-.08.05-.16.12-.23.2Z"/>
                  <path class="cls-76" d="M146.37,217.33l-1.23-.71c.04-.09.09-.18.16-.26l1.23.71c-.06.08-.12.16-.16.26Z"/>
                </g>
              </g>
            </g>
            <path class="cls-52" d="M162.22,207.89c.26-.15.47-.03.47.27l-3.72,8.78-16.39,9.52,3.66-8.8s.1-.54.53-.79l15.46-8.98Z"/>
            <polygon class="cls-42" points="142.57 226.46 141.35 225.75 145.15 216.61 146.37 217.33 142.57 226.46"/>
          </g>
          <path class="cls-16" d="M134,192.61s-.88,1.01-1.69,1.49c-.2.12-.38.28-.59.16-1.04-.58-2.99-3.02-3.21-4.36-.08-.48.16-1.13.49-1.43.06-.05.71-.31.79-.35.03.08.1,1.02.37,1.68.63,1.51,2.28,2.28,3.84,2.82Z"/>
        </g>
        <g class="cls-60">
          <path class="cls-25" d="M255.41,182.48c0,15.95-12.93,28.88-28.88,28.88s-28.88-12.93-28.88-28.88,12.93-28.88,28.88-28.88,28.88,12.93,28.88,28.88Z"/>
          <path class="cls-69" d="M253.09,182.48c0,14.67-11.89,26.56-26.56,26.56s-26.56-11.89-26.56-26.56,11.89-26.56,26.56-26.56,26.56,11.89,26.56,26.56Z"/>
          <path class="cls-2" d="M250.77,182.48c0,13.39-10.85,24.24-24.24,24.24s-24.24-10.85-24.24-24.24,10.85-24.24,24.24-24.24,24.24,10.85,24.24,24.24Z"/>
          <path class="cls-12" d="M248.45,182.48c0,12.1-9.81,21.92-21.92,21.92s-21.92-9.81-21.92-21.92,9.81-21.92,21.92-21.92,21.92,9.81,21.92,21.92Z"/>
          <path class="cls-6" d="M246.13,182.48c0,10.82-8.77,19.6-19.6,19.6s-19.6-8.77-19.6-19.6,8.77-19.6,19.6-19.6,19.6,8.77,19.6,19.6Z"/>
          <path class="cls-13" d="M243.81,182.48c0,9.54-7.73,17.28-17.27,17.28s-17.28-7.73-17.28-17.28,7.73-17.27,17.28-17.27,17.27,7.73,17.27,17.27Z"/>
          <path class="cls-77" d="M241.49,182.48c0,8.26-6.7,14.95-14.95,14.95s-14.95-6.7-14.95-14.95,6.7-14.95,14.95-14.95,14.95,6.7,14.95,14.95Z"/>
          <path class="cls-22" d="M239.17,182.48c0,6.98-5.66,12.63-12.63,12.63s-12.63-5.66-12.63-12.63,5.66-12.63,12.63-12.63,12.63,5.66,12.63,12.63Z"/>
          <path class="cls-19" d="M236.84,182.48c0,5.7-4.62,10.31-10.31,10.31s-10.31-4.62-10.31-10.31,4.62-10.31,10.31-10.31,10.31,4.62,10.31,10.31Z"/>
          <path class="cls-21" d="M234.52,182.48c0,4.41-3.58,7.99-7.99,7.99s-7.99-3.58-7.99-7.99,3.58-7.99,7.99-7.99,7.99,3.58,7.99,7.99Z"/>
          <path class="cls-15" d="M232.2,182.48c0,3.13-2.54,5.67-5.67,5.67s-5.67-2.54-5.67-5.67,2.54-5.67,5.67-5.67,5.67,2.54,5.67,5.67Z"/>
          <path class="cls-61" d="M229.88,182.48c0,1.85-1.5,3.35-3.35,3.35s-3.35-1.5-3.35-3.35,1.5-3.35,3.35-3.35,3.35,1.5,3.35,3.35Z"/>
        </g>
        <g class="cls-60">
          <polygon class="cls-36" points="285.12 117.48 288.44 115.57 288.44 111.74 285.12 113.65 285.12 117.48"/>
          <polygon class="cls-37" points="58.39 248.85 61.71 246.94 61.71 243.11 58.39 245.02 58.39 248.85"/>
          <polygon class="cls-37" points="68.19 307.69 71.51 305.78 71.51 301.95 68.19 303.87 68.19 307.69"/>
          <polygon class="cls-37" points="91.87 328.84 95.18 326.93 95.18 323.1 91.87 325.02 91.87 328.84"/>
          <polygon class="cls-37" points="307.82 235.99 311.14 234.08 311.14 230.25 307.82 232.17 307.82 235.99"/>
          <polygon class="cls-39" points="279.98 148.43 283.29 146.52 283.29 142.7 279.98 144.61 279.98 148.43"/>
          <polygon class="cls-39" points="171.43 307.77 174.74 305.86 174.74 302.04 171.43 303.95 171.43 307.77"/>
          <polygon class="cls-38" points="191.69 98.73 195 96.82 195 92.99 191.69 94.9 191.69 98.73"/>
        </g>
        <g class="cls-60">
          <path class="cls-25" d="M103.5,210.29c0,.81-.66,1.47-1.47,1.47s-1.47-.66-1.47-1.47.66-1.47,1.47-1.47,1.47.66,1.47,1.47Z"/>
          <path class="cls-23" d="M103.52,229.1c0,.82-.67,1.49-1.49,1.49s-1.49-.67-1.49-1.49.67-1.49,1.49-1.49,1.49.67,1.49,1.49Z"/>
          <path class="cls-74" d="M103.54,247.9c0,.84-.68,1.51-1.51,1.51s-1.51-.68-1.51-1.51.68-1.51,1.51-1.51,1.51.68,1.51,1.51Z"/>
          <path class="cls-55" d="M103.56,266.71c0,.85-.69,1.54-1.54,1.54s-1.54-.69-1.54-1.54.69-1.54,1.54-1.54,1.54.69,1.54,1.54Z"/>
          <path class="cls-28" d="M103.59,285.52c0,.86-.7,1.56-1.56,1.56s-1.56-.7-1.56-1.56.7-1.56,1.56-1.56,1.56.7,1.56,1.56Z"/>
          <path class="cls-32" d="M103.61,304.33c0,.87-.71,1.58-1.58,1.58s-1.58-.71-1.58-1.58.71-1.58,1.58-1.58,1.58.71,1.58,1.58Z"/>
          <path class="cls-37" d="M103.63,323.14c0,.89-.72,1.6-1.6,1.6s-1.6-.72-1.6-1.6.72-1.6,1.6-1.6,1.6.72,1.6,1.6Z"/>
        </g>
        <g class="cls-60">
          <path class="cls-25" d="M295.41,81.6c0,.81-.66,1.47-1.47,1.47s-1.47-.66-1.47-1.47.66-1.47,1.47-1.47,1.47.66,1.47,1.47Z"/>
          <path class="cls-23" d="M295.43,100.41c0,.82-.67,1.49-1.49,1.49s-1.49-.67-1.49-1.49.67-1.49,1.49-1.49,1.49.67,1.49,1.49Z"/>
          <path class="cls-74" d="M295.45,119.22c0,.84-.68,1.51-1.51,1.51s-1.51-.68-1.51-1.51.68-1.51,1.51-1.51,1.51.68,1.51,1.51Z"/>
          <path class="cls-55" d="M295.48,138.03c0,.85-.69,1.54-1.54,1.54s-1.54-.69-1.54-1.54.69-1.54,1.54-1.54,1.54.69,1.54,1.54Z"/>
          <path class="cls-28" d="M295.5,156.84c0,.86-.7,1.56-1.56,1.56s-1.56-.7-1.56-1.56.7-1.56,1.56-1.56,1.56.7,1.56,1.56Z"/>
          <path class="cls-32" d="M295.52,175.64c0,.87-.71,1.58-1.58,1.58s-1.58-.71-1.58-1.58.71-1.58,1.58-1.58,1.58.71,1.58,1.58Z"/>
          <path class="cls-37" d="M295.54,194.45c0,.89-.72,1.6-1.6,1.6s-1.6-.72-1.6-1.6.72-1.6,1.6-1.6,1.6.72,1.6,1.6Z"/>
        </g>
        <g class="cls-60">
          <path class="cls-25" d="M40.96,55.56c0,.81-.66,1.47-1.47,1.47s-1.47-.66-1.47-1.47.66-1.47,1.47-1.47,1.47.66,1.47,1.47Z"/>
          <path class="cls-23" d="M40.99,74.37c0,.82-.67,1.49-1.49,1.49s-1.49-.67-1.49-1.49.67-1.49,1.49-1.49,1.49.67,1.49,1.49Z"/>
          <path class="cls-74" d="M41.01,93.18c0,.84-.68,1.51-1.51,1.51s-1.51-.68-1.51-1.51.68-1.51,1.51-1.51,1.51.68,1.51,1.51Z"/>
          <path class="cls-55" d="M41.03,111.99c0,.85-.69,1.54-1.54,1.54s-1.54-.69-1.54-1.54.69-1.54,1.54-1.54,1.54.69,1.54,1.54Z"/>
          <path class="cls-28" d="M41.05,130.79c0,.86-.7,1.56-1.56,1.56s-1.56-.7-1.56-1.56.7-1.56,1.56-1.56,1.56.7,1.56,1.56Z"/>
          <path class="cls-32" d="M41.08,149.6c0,.87-.71,1.58-1.58,1.58s-1.58-.71-1.58-1.58.71-1.58,1.58-1.58,1.58.71,1.58,1.58Z"/>
          <path class="cls-37" d="M41.1,168.41c0,.89-.72,1.6-1.6,1.6s-1.6-.72-1.6-1.6.72-1.6,1.6-1.6,1.6.72,1.6,1.6Z"/>
        </g>
      </g>
    </g>
  </g>
</svg>