<svg width="638" height="522" viewBox="0 0 638 522" fill="none" xmlns="http://www.w3.org/2000/svg">
<g clip-path="url(#clip0_262_7315)">
<path d="M433.872 208.066C348.594 150.267 308.342 -27.3205 176.705 78.7936C45.0681 184.908 99.6613 402.96 225.809 455.685C351.957 508.409 514.278 478.621 559.945 380.661C637.978 213.281 491.086 246.84 433.896 208.066H433.872Z" fill="#EAEBF6"/>
<mask id="mask0_262_7315" style="mask-type:luminance" maskUnits="userSpaceOnUse" x="100" y="45" width="483" height="437">
<path d="M433.872 208.066C348.594 150.267 308.342 -27.3205 176.705 78.7936C45.0682 184.908 99.6614 402.96 225.809 455.685C351.957 508.409 514.278 478.621 559.945 380.661C637.978 213.281 491.086 246.84 433.896 208.066H433.872Z" fill="white"/>
</mask>
<g mask="url(#mask0_262_7315)">
<path d="M87.9663 413.527C87.9663 413.527 160.683 331.737 282.133 370.538C403.583 409.339 475.088 376.085 460.031 170.402C460.031 170.402 630.733 197.111 608.852 333.179C582.297 498.313 239.433 561.327 87.9663 413.5V413.527Z" fill="#E0E1F1"/>
</g>
<path d="M247.221 77.4346V157.2C247.221 164.079 242.251 169.626 236.12 169.626H84.48C78.3482 169.626 73.3784 164.079 73.3784 157.2V77.4346C73.3784 70.5563 78.3482 65.0093 84.48 65.0093H236.12C242.251 65.0093 247.221 70.5563 247.221 77.4346Z" fill="#A3D5D2"/>
<path d="M247.221 77.4346V84.3406H73.3784V77.4346C73.3784 70.5563 78.3482 65.0093 84.48 65.0093H236.12C242.251 65.0093 247.221 70.5563 247.221 77.4346Z" fill="#8CB6E1"/>
<path d="M83.1694 78.2113C84.453 78.2113 85.4935 77.044 85.4935 75.6042C85.4935 74.1643 84.453 72.9971 83.1694 72.9971C81.8858 72.9971 80.8452 74.1643 80.8452 75.6042C80.8452 77.044 81.8858 78.2113 83.1694 78.2113Z" fill="white"/>
<path d="M94.8148 75.6042C94.8148 77.0464 93.7764 78.2113 92.4907 78.2113C91.205 78.2113 90.1665 77.0464 90.1665 75.6042C90.1665 74.1619 91.205 72.9971 92.4907 72.9971C93.7764 72.9971 94.8148 74.1619 94.8148 75.6042Z" fill="white"/>
<path d="M104.136 75.6042C104.136 77.0464 103.098 78.2113 101.812 78.2113C100.526 78.2113 99.4878 77.0464 99.4878 75.6042C99.4878 74.1619 100.526 72.9971 101.812 72.9971C103.098 72.9971 104.136 74.1619 104.136 75.6042Z" fill="white"/>
<path d="M96.9912 95.9062H131.903C133.04 95.9062 133.955 96.9325 133.955 98.2083V129.909C133.955 131.185 133.04 132.211 131.903 132.211H96.9912C95.8538 132.211 94.939 131.185 94.939 129.909V98.2083C94.939 96.9325 95.8538 95.9062 96.9912 95.9062Z" fill="white"/>
<path d="M223.188 149.213H94.9634C93.6035 149.213 92.5156 147.992 92.5156 146.467C92.5156 144.942 93.6035 143.721 94.9634 143.721H223.188C224.548 143.721 225.636 144.942 225.636 146.467C225.636 147.992 224.548 149.213 223.188 149.213Z" fill="white"/>
<path d="M223.188 128.439H145.403C144.043 128.439 142.955 127.219 142.955 125.694C142.955 124.168 144.043 122.948 145.403 122.948H223.188C224.548 122.948 225.636 124.168 225.636 125.694C225.636 127.219 224.548 128.439 223.188 128.439Z" fill="white"/>
<path d="M193.567 108.914H145.378C144.018 108.914 142.93 107.694 142.93 106.168C142.93 104.643 144.018 103.422 145.378 103.422H193.567C194.927 103.422 196.015 104.643 196.015 106.168C196.015 107.694 194.927 108.914 193.567 108.914Z" fill="white"/>
<path d="M1.84863 230.337C1.84863 230.337 4.69203 226.676 6.42279 225.012C9.53816 221.989 13.1233 216.664 24.5958 220.602C25.4859 220.908 26.3513 221.324 27.2167 221.712C28.2304 222.183 31.3705 222.211 34.56 219.354C39.6534 214.806 41.6562 211.394 48.6287 211.284C56.7633 211.173 58.0242 222.516 64.3539 225.428C68.3841 227.287 78.9665 229.117 81.167 229.949L1.84863 230.365V230.337Z" stroke="#E8E9F5" stroke-width="0.9" stroke-linecap="round" stroke-linejoin="round"/>
<path d="M432.981 67.1726C432.981 67.1726 438.545 59.9893 441.957 56.6888C448.113 50.7535 455.16 40.2697 477.709 48.0078C479.465 48.6179 481.171 49.3945 482.852 50.1988C484.83 51.1418 490.987 51.1696 497.292 45.5393C507.305 36.6087 511.237 29.8691 524.959 29.6749C540.932 29.4253 543.454 51.7797 555.866 57.4931C563.778 61.1264 584.596 64.7597 588.923 66.3683L433.006 67.1726H432.981Z" fill="#E8E9F5"/>
<path d="M309.751 133.903L308.589 130.214L307.427 133.903C306.463 137.009 304.139 139.644 301.023 141.225C304.139 142.778 306.463 145.413 307.427 148.547L308.589 152.236L309.751 148.547C310.716 145.413 313.04 142.806 316.155 141.225C313.04 139.672 310.716 137.037 309.751 133.903Z" fill="white"/>
<path d="M205.658 345.521L204.496 341.833L203.334 345.521C202.37 348.628 200.046 351.262 196.93 352.843C200.046 354.396 202.37 357.031 203.334 360.165L204.496 363.854L205.658 360.165C206.622 357.031 208.947 354.424 212.062 352.843C208.947 351.29 206.622 348.655 205.658 345.521Z" fill="white"/>
<path d="M517.764 323.222L516.998 320.782L516.231 323.222C515.589 325.275 514.08 327.022 512.003 328.048C514.056 329.074 515.589 330.822 516.231 332.874L516.998 335.315L517.764 332.874C518.407 330.822 519.915 329.074 521.992 328.048C519.94 327.022 518.407 325.275 517.764 323.222Z" fill="white"/>
<path d="M155.343 200.384L154.576 197.943L153.81 200.384C153.167 202.436 151.658 204.184 149.582 205.21C151.634 206.236 153.167 207.983 153.81 210.036L154.576 212.476L155.343 210.036C155.985 207.983 157.494 206.236 159.571 205.21C157.518 204.184 155.985 202.436 155.343 200.384Z" fill="white"/>
<path d="M401.976 0.220215H329.803C325.872 0.220215 322.683 3.79803 322.683 8.2079V51.946C322.683 56.3559 325.872 59.9337 329.803 59.9337H333.685V79.9583L351.512 59.9337H401.952C405.883 59.9337 409.072 56.3559 409.072 51.946V8.2079C409.072 3.79803 405.883 0.220215 401.952 0.220215H401.976Z" fill="#A3D5D2"/>
<path d="M339.916 43.0708H356.952C358.262 43.0708 359.325 44.2634 359.325 45.7334C359.325 47.2033 358.262 48.3959 356.952 48.3959H339.916C338.606 48.3959 337.542 47.2033 337.542 45.7334C337.542 44.2634 338.606 43.0708 339.916 43.0708Z" fill="white"/>
<path d="M339.916 29.7026H371.292C372.603 29.7026 373.666 30.8952 373.666 32.3652C373.666 33.8352 372.603 35.0278 371.292 35.0278H339.916C338.606 35.0278 337.542 33.8352 337.542 32.3652C337.542 30.8952 338.606 29.7026 339.916 29.7026Z" fill="white"/>
<path d="M339.916 16.7227H393.842C395.152 16.7227 396.215 17.9153 396.215 19.3852C396.215 20.8552 395.152 22.0478 393.842 22.0478H339.916C338.606 22.0478 337.542 20.8552 337.542 19.3852C337.542 17.9153 338.606 16.7227 339.916 16.7227Z" fill="white"/>
<path d="M357.224 375.503H440.795C457.558 375.503 471.652 361.358 473.481 342.637L485.523 201.937H402.001L400.295 283.506L357.224 375.475V375.503Z" fill="#C4CAE6"/>
<path d="M357.224 373.977C378.685 373.006 400.147 372.59 421.633 372.202L437.729 372.063C439.039 372.036 440.498 372.063 441.66 371.98C442.872 371.925 444.083 371.814 445.295 371.564C447.693 371.176 450.042 370.372 452.267 369.29C461.243 365.074 467.993 355.672 469.872 345.022C470.292 342.498 470.515 339.364 470.787 336.396L471.578 327.41L473.135 309.438C474.149 297.456 475.311 285.475 476.449 273.521C478.674 249.586 481.048 225.65 483.619 201.743C483.743 200.55 484.707 199.718 485.745 199.857C486.759 199.996 487.501 201.022 487.427 202.131C485.918 226.15 484.163 250.168 482.284 274.159C481.369 286.168 480.479 298.15 479.44 310.159L477.932 328.131L477.166 337.117C476.894 340.14 476.745 342.997 476.201 346.409C473.976 359.416 465.743 371.037 454.715 375.891C451.995 377.139 449.127 378.054 446.234 378.498C444.776 378.775 443.317 378.886 441.858 378.914C440.35 378.997 439.114 378.914 437.754 378.914L421.658 378.775C400.196 378.387 378.735 377.971 357.249 377C356.507 376.973 355.913 376.251 355.963 375.419C355.988 374.615 356.556 374.005 357.249 373.977H357.224Z" fill="#3A405C"/>
<path d="M405.018 378.138V477.512" stroke="#3A405C" stroke-width="2.5" stroke-miterlimit="10"/>
<path d="M151.411 289.746L420.792 289.746V285.059L151.411 285.059V289.746Z" fill="#3A405C"/>
<path d="M389.02 496.289L391.888 507.771L377.968 512.514L373.616 498.313L389.02 496.289Z" fill="#F1BD99"/>
<path d="M304.979 487.94V497.148H317.317L318.677 487.94H304.979Z" fill="#F1BD99"/>
<path d="M399.627 220.907L381.009 272.439L380.589 273.576C379.476 276.655 376.831 278.485 374.061 278.485L321.051 278.069C318.899 278.069 317.193 276.1 317.193 273.687C317.193 271.496 318.652 269.721 320.507 269.416L372.949 260.818L366.001 266.864L378.537 213.058C380.094 206.402 386.177 202.408 392.111 204.128C398.045 205.875 401.605 212.698 400.072 219.354C399.949 219.854 399.775 220.408 399.627 220.88V220.907Z" fill="#E8AE88"/>
<path d="M326.836 268.362L308.737 267.946C304.262 267.946 300.627 272.467 300.627 278.069H327.059L326.836 268.362Z" fill="#E8AE88"/>
<path d="M370.328 227.176L399.306 235.108L404.053 206.125C405.338 198.331 400.492 190.926 393.396 189.789C387.413 188.818 381.652 192.618 379.6 198.886L370.328 227.176Z" fill="#736EB2"/>
<path d="M400.295 283.505L311.012 334.344C302.729 339.059 297.71 348.849 298.254 359.25L304.979 487.94H318.677L337.171 350.236L406.699 295.487L400.32 283.505H400.295Z" fill="#2C3048"/>
<path d="M384.545 107.749C384.545 107.749 409.369 98.2912 422.399 124.639C423.166 126.165 423.982 127.635 424.995 128.994C427.641 132.488 433.155 138.951 439.237 141.059C463.394 149.379 478.674 200.578 430.608 205.154C370.452 210.868 353.366 197.555 361.971 170.652C368.103 151.459 362.638 137.841 362.638 137.841L384.545 107.749Z" fill="#22283B"/>
<path d="M404.35 176.504L391.517 182.911C383.877 186.738 378.957 195.253 379.056 204.655C379.253 223.57 383.086 270.525 397.328 288.47H440.745C447.47 255.216 443.588 204.072 443.588 204.072C444.033 191.536 435.8 180.72 424.698 179.222L404.35 176.476V176.504Z" fill="#5C58A6"/>
<path d="M405.537 192.008C401.012 192.59 396.908 188.985 396.339 183.937L392.804 152.985L409.32 150.821L412.831 181.552C413.424 186.71 410.136 191.398 405.537 192.008Z" fill="#EDB48C"/>
<path d="M365.576 129.737L406.078 123.804L409.216 150.756C410.653 163.104 402.894 174.422 391.886 176.034L391.224 176.131C380.241 177.74 370.127 169.041 368.689 156.692L365.548 129.713L365.576 129.737Z" fill="#F1BD99"/>
<path d="M410.556 140.449L407.094 148.492C407.094 148.492 402.496 152.957 401.185 141.724C400.073 132.211 393.916 133.848 393.916 133.848C393.916 133.848 372.801 151.764 360.413 139.478C350.622 129.771 366.446 112.02 384.545 107.749L408.281 119.37L410.556 140.421V140.449Z" fill="#22283B"/>
<path d="M404.696 148.797C405.141 152.929 408.479 155.842 412.163 155.342C415.847 154.843 418.443 151.099 417.998 146.966C417.553 142.834 414.215 139.922 410.531 140.421C406.847 140.92 404.251 144.664 404.696 148.797Z" fill="#F1BD99"/>
<path d="M410.16 151.432C410.234 152.18 410.853 152.707 411.495 152.624C412.163 152.541 412.633 151.848 412.559 151.127C412.484 150.378 411.866 149.851 411.223 149.934C410.581 150.017 410.086 150.711 410.16 151.432Z" fill="white"/>
<path d="M375.916 163.025L387.29 160.307C387.29 160.307 387.834 165.854 381.603 166.852C376.682 167.629 375.916 163.025 375.916 163.025Z" fill="white"/>
<path d="M440.745 288.47H397.328L327.875 335.537C319.691 341.084 316.452 352.594 320.284 362.412L373.592 498.313L388.995 496.289L360.339 365.157C384.372 364.02 429.025 359.943 440.696 345.355C460.451 320.671 440.696 288.498 440.696 288.498L440.745 288.47Z" fill="#3A405C"/>
<path d="M292.691 203.185L317.465 277.848H236.96L214.04 207.512C213.348 205.404 214.732 203.185 216.735 203.185H292.666H292.691Z" fill="#8CB6E1"/>
<path d="M292.691 203.185H296.548C298.625 203.185 300.479 204.627 301.196 206.818L324.562 277.848H317.49L292.716 203.185H292.691Z" fill="#A0C8EB"/>
<path d="M237.183 277.848H317.465V285.031H242.993C239.779 285.031 237.183 282.119 237.183 278.513V277.848Z" fill="#75A7D9"/>
<path d="M317.465 285.059H367.138C368.918 285.059 370.352 283.45 370.352 281.453C370.352 279.456 368.918 277.848 367.138 277.848H317.465V285.031V285.059Z" fill="#80B7E3"/>
<path d="M272.515 240.294C274.048 245.453 272.194 250.778 268.411 252.193C264.628 253.607 260.325 250.556 258.792 245.398C257.26 240.239 259.114 234.914 262.897 233.499C266.68 232.085 270.982 235.136 272.515 240.294Z" fill="#EBF3F5"/>
<path d="M433.6 219.493L414.957 272.023L414.537 273.188C413.424 276.294 410.754 278.18 407.935 278.18L354.924 277.792C352.773 277.792 351.018 275.795 351.042 273.382C351.042 271.191 352.501 269.388 354.38 269.056L406.822 260.347L399.8 266.504L412.287 211.727C413.819 204.988 419.951 200.911 425.96 202.658C431.968 204.378 435.602 211.256 434.045 217.995C433.921 218.495 433.773 219.049 433.6 219.521V219.493Z" fill="#F1BD99"/>
<path d="M360.685 267.946L342.586 267.53C338.111 267.53 334.477 272.134 334.477 277.848H360.908L360.685 267.974V267.946Z" fill="#F1BD99"/>
<path d="M404.177 225.983L433.155 234.082L437.902 204.572C439.188 196.64 434.341 189.096 427.245 187.931C421.262 186.932 415.501 190.815 413.449 197.194L404.177 226.011V225.983Z" fill="#736EB2"/>
<path d="M368.919 501.475L362.169 508.963L346.963 513.123C345.405 513.539 344.119 514.843 343.6 516.535L342.833 519.003C342.438 520.224 343.278 521.499 344.441 521.472L393.347 520.14C394.929 520.113 396.166 518.559 396.042 516.784L392.185 501.253L384.792 503.222C382.32 504.137 379.625 503.832 377.375 502.362L374.754 500.643C372.875 499.422 370.501 499.755 368.943 501.475H368.919Z" fill="#202F3B"/>
<path d="M298.724 490.686L291.974 498.174L276.768 502.335C275.21 502.751 273.924 504.054 273.405 505.746L272.639 508.215C272.243 509.435 273.084 510.711 274.246 510.683L318.504 509.629C320.086 509.601 321.323 508.048 321.199 506.273L320.062 490.381L314.597 492.406C312.125 493.321 309.43 493.016 307.18 491.546L304.559 489.826C302.68 488.606 300.306 488.939 298.748 490.658L298.724 490.686Z" fill="#202F3B"/>
<path d="M505.896 169.154L630.14 169.154C634.36 169.154 637.78 165.317 637.78 160.584V121.062C637.78 116.329 634.36 112.492 630.14 112.492L505.896 112.492C501.677 112.492 498.256 116.329 498.256 121.062V160.584C498.256 165.317 501.677 169.154 505.896 169.154Z" fill="#A3D5D2"/>
<path d="M620.175 157.089H594.461C593.126 157.089 592.063 155.869 592.063 154.399V127.302C592.063 125.804 593.151 124.612 594.461 124.612H620.175C621.511 124.612 622.574 125.832 622.574 127.302V154.399C622.574 155.897 621.486 157.089 620.175 157.089Z" fill="white"/>
<path d="M515.514 131.379H581.901C583.038 131.379 583.978 130.325 583.978 129.049C583.978 127.774 583.038 126.72 581.901 126.72H515.514C514.377 126.72 513.437 127.774 513.437 129.049C513.437 130.325 514.377 131.379 515.514 131.379Z" fill="white"/>
<path d="M558.734 143.167H581.901C583.048 143.167 583.978 142.124 583.978 140.837C583.978 139.551 583.048 138.508 581.901 138.508H558.734C557.587 138.508 556.657 139.551 556.657 140.837C556.657 142.124 557.587 143.167 558.734 143.167Z" fill="white"/>
<path d="M515.514 143.167H543.206C544.353 143.167 545.283 142.124 545.283 140.837C545.283 139.551 544.353 138.508 543.206 138.508H515.514C514.367 138.508 513.437 139.551 513.437 140.837C513.437 142.124 514.367 143.167 515.514 143.167Z" fill="white"/>
<path d="M532.129 154.954H581.901C583.038 154.954 583.978 153.9 583.978 152.624C583.978 151.348 583.038 150.294 581.901 150.294H532.129C530.992 150.294 530.052 151.348 530.052 152.624C530.052 153.9 530.992 154.954 532.129 154.954Z" fill="white"/>
<path d="M196.51 262.427C196.51 262.427 216.982 262.51 212.729 238.852C212.729 238.852 191.243 241.237 196.51 262.427Z" fill="#8CB6E1"/>
<path d="M193.963 261.151C193.963 261.151 173.219 261.234 177.546 237.299C177.546 237.299 199.304 239.712 193.963 261.151Z" fill="#8CB6E1"/>
<path d="M194.903 261.234C194.903 261.234 179.796 244.177 197.623 229.117C197.623 229.117 211.938 248.975 194.903 261.234Z" fill="#75A7D9"/>
<path d="M211.469 259.237H178.337L183.603 285.031H205.782L211.469 259.237Z" fill="#5C58A6"/>
<path d="M277.312 289.746V471.771" stroke="#3A405C" stroke-width="2" stroke-miterlimit="10"/>
</g>
<defs>
<clipPath id="clip0_262_7315">
<rect width="637.02" height="521.252" fill="white" transform="translate(0.73584 0.220215)"/>
</clipPath>
</defs>
</svg>
