<svg width="295" height="348" viewBox="0 0 295 348" fill="none" xmlns="http://www.w3.org/2000/svg">
<g clip-path="url(#clip0_262_7790)">
<path d="M235.796 125.092C235.796 125.971 235.173 126.328 234.41 125.888C233.647 125.448 233.024 124.378 233.024 123.49C233.024 122.602 233.647 122.254 234.41 122.694C235.173 123.133 235.796 124.204 235.796 125.092Z" stroke="white" stroke-width="2" stroke-miterlimit="10"/>
<path d="M123.017 27.0995C123.017 27.979 122.395 28.3358 121.632 27.896C120.868 27.4562 120.246 26.3859 120.246 25.4981C120.246 24.6102 120.868 24.2618 121.632 24.7015C122.395 25.1413 123.017 26.2116 123.017 27.0995Z" stroke="white" stroke-width="2" stroke-miterlimit="10"/>
<path d="M253.037 92.3836C253.037 93.2632 252.415 93.62 251.652 93.1802C250.888 92.7404 250.266 91.6701 250.266 90.7822C250.266 89.8944 250.888 89.5459 251.652 89.9857C252.415 90.4255 253.037 91.4958 253.037 92.3836Z" stroke="white" stroke-width="2" stroke-miterlimit="10"/>
<path d="M131.995 13.6415C131.995 14.521 131.373 14.8778 130.61 14.438C129.846 13.9982 129.224 12.9279 129.224 12.0401C129.224 11.1522 129.846 10.8037 130.61 11.2435C131.373 11.6833 131.995 12.7536 131.995 13.6415Z" stroke="white" stroke-width="2" stroke-miterlimit="10"/>
<path d="M179.365 67.077C179.365 67.9565 178.743 68.3133 177.979 67.8735C177.216 67.4338 176.594 66.3634 176.594 65.4756C176.594 64.5878 177.216 64.2393 177.979 64.6791C178.743 65.1188 179.365 66.1892 179.365 67.077Z" stroke="white" stroke-width="2" stroke-miterlimit="10"/>
<path d="M227.731 145.769C227.731 146.649 227.108 147.006 226.345 146.566C225.582 146.126 224.959 145.056 224.959 144.168C224.959 143.28 225.582 142.932 226.345 143.371C227.108 143.811 227.731 144.882 227.731 145.769Z" stroke="white" stroke-width="2" stroke-miterlimit="10"/>
<path d="M82.933 34.6424C82.933 35.522 82.3106 35.8787 81.5473 35.439C80.7839 34.9992 80.1616 33.9289 80.1616 33.041C80.1616 32.1532 80.7839 31.8047 81.5473 32.2445C82.3106 32.6842 82.933 33.7546 82.933 34.6424Z" stroke="white" stroke-width="2" stroke-miterlimit="10"/>
<path d="M248.441 120.479C248.441 123.466 246.342 124.677 243.761 123.184C241.172 121.69 239.082 118.056 239.082 115.077C239.082 112.099 241.181 110.879 243.761 112.372C246.35 113.866 248.441 117.5 248.441 120.479Z" stroke="white" stroke-width="2" stroke-miterlimit="10"/>
<path d="M80.0621 49.6772C80.0621 52.6643 77.9628 53.8757 75.3824 52.3822C72.7936 50.8887 70.7026 47.2544 70.7026 44.2757C70.7026 41.2969 72.8019 40.0772 75.3824 41.5707C77.9711 43.0642 80.0621 46.6985 80.0621 49.6772Z" stroke="white" stroke-width="2" stroke-miterlimit="10"/>
<path style="mix-blend-mode:multiply" d="M61.4426 344.699L27.6224 325.175C22.0217 321.948 22.0217 313.866 27.6224 310.63L61.4426 291.106C68.8438 286.833 77.9627 286.833 85.3639 291.106L119.184 310.63C124.785 313.858 124.785 321.939 119.184 325.175L85.3639 344.699C77.9627 348.972 68.8438 348.972 61.4426 344.699Z" fill="url(#paint0_linear_262_7790)"/>
<path style="mix-blend-mode:multiply" d="M166.952 344.135H196.101L294.234 287.48L119.624 186.667L26.436 242.276L189.189 334.726L167.01 334.701L166.952 344.135Z" fill="url(#paint1_linear_262_7790)"/>
<path d="M90.8153 280.825C90.8153 280.825 104.473 276.145 108.953 277.556C113.434 278.958 109.7 287.247 98.6564 293.288C87.6125 299.337 83.1817 297.495 80.9581 294.707C79.2073 292.508 82.4931 283.63 82.4931 283.63L90.8236 280.825H90.8153Z" fill="#263238"/>
<path d="M73.0675 197.188C73.0675 197.188 88.3761 188.036 94.5494 202.963C100.25 216.753 92.7654 275.175 91.5872 283.995C91.4876 284.767 90.9981 285.43 90.2928 285.754C89.0565 286.318 86.9656 286.932 84.6755 286.094C83.5802 285.696 82.7588 284.767 82.485 283.63L68.479 225.407L73.0675 197.188Z" fill="#5E4137"/>
<path d="M113.243 293.172C113.243 293.172 126.901 288.492 131.381 289.903C135.862 291.305 132.128 299.594 121.084 305.635C110.04 311.683 105.609 309.841 103.386 307.053C101.635 304.855 104.921 295.976 104.921 295.976L113.251 293.172H113.243Z" fill="#263238"/>
<path d="M95.4869 209.534C95.4869 209.534 110.796 200.382 116.969 215.309C122.669 229.1 115.185 287.522 114.007 296.342C113.907 297.113 113.418 297.777 112.712 298.101C111.476 298.665 109.385 299.279 107.095 298.441C106 298.043 105.178 297.113 104.904 295.977L90.8984 237.754L95.4869 209.534Z" fill="#5E4137"/>
<path d="M63.4341 314.762L88.6332 300.208C89.297 299.827 89.5791 299.304 89.5874 298.773L89.6372 298.748V304.888L89.5376 304.938C89.4464 305.386 89.2058 305.817 88.6332 306.141L63.4341 320.695V314.762Z" fill="#90A4AE"/>
<path d="M89.6206 329.664V323.682V323.516L37.2144 298.748V304.888L37.3139 304.938C37.4052 305.386 37.6458 305.817 38.2183 306.141L82.4268 331.664C83.912 332.518 86.5008 332.411 88.2184 331.423C89.0979 330.917 89.5625 330.278 89.6123 329.664H89.6206Z" fill="#90A4AE"/>
<path d="M38.6332 331.431C37.7537 330.925 37.289 330.286 37.231 329.672V323.789C37.3056 324.395 37.7786 325.009 38.6332 325.499C40.3508 326.486 42.9396 326.594 44.4248 325.739L63.4341 314.762V320.694L44.4248 331.672C42.9396 332.526 40.3508 332.419 38.6332 331.431Z" fill="#90A4AE"/>
<path d="M88.6333 322.155L69.6323 311.186L88.6333 300.217C89.2971 299.835 89.5792 299.312 89.5875 298.781C89.5958 298.118 89.1643 297.421 88.2184 296.873C86.5009 295.886 83.9121 295.778 82.4269 296.632L63.4259 307.601L44.4248 296.632C42.9396 295.778 40.3508 295.886 38.6333 296.873C36.9157 297.86 36.7332 299.362 38.2184 300.217L57.2194 311.186L38.2184 322.155C37.5961 322.512 37.3389 322.993 37.2891 323.491C37.2808 323.582 37.2227 323.665 37.231 323.765V323.79C37.3057 324.395 37.7786 325.009 38.6333 325.499C40.3508 326.486 42.9396 326.594 44.4248 325.74L63.4259 314.77L82.4269 325.74C83.9121 326.594 86.5009 326.486 88.2184 325.499C89.936 324.511 90.1185 323.01 88.6333 322.155Z" fill="#4675BA"/>
<path d="M88.6333 322.155L69.6323 311.186L88.6333 300.217C89.2971 299.835 89.5792 299.312 89.5875 298.781C89.5958 298.118 89.1643 297.421 88.2184 296.873C86.5009 295.886 83.9121 295.778 82.4269 296.632L63.4259 307.601L44.4248 296.632C42.9396 295.778 40.3508 295.886 38.6333 296.873C36.9157 297.86 36.7332 299.362 38.2184 300.217L57.2194 311.186L38.2184 322.155C37.5961 322.512 37.3389 322.993 37.2891 323.491C37.2808 323.582 37.2227 323.665 37.231 323.765V323.79C37.3057 324.395 37.7786 325.009 38.6333 325.499C40.3508 326.486 42.9396 326.594 44.4248 325.74L63.4259 314.77L82.4269 325.74C83.9121 326.594 86.5009 326.486 88.2184 325.499C89.936 324.511 90.1185 323.01 88.6333 322.155Z" fill="#EDEFF0"/>
<path style="mix-blend-mode:multiply" d="M69.6322 311.186L75.8719 307.585L79.0663 305.743H66.6535L63.4258 307.602V312.489H71.8974L69.6322 311.186Z" fill="url(#paint2_linear_262_7790)"/>
<path d="M63.426 312.488C66.4379 312.488 68.8774 310.049 68.8774 307.037V285.431H57.9663V307.037C57.9663 310.049 60.4057 312.488 63.4177 312.488H63.426Z" fill="#CFD8DC"/>
<path style="mix-blend-mode:multiply" d="M63.426 312.488C66.4379 312.488 68.8774 310.049 68.8774 307.037V285.431H57.9663V307.037C57.9663 310.049 60.4057 312.488 63.4177 312.488H63.426Z" fill="url(#paint3_linear_262_7790)"/>
<path d="M12.5625 257.809L34.8991 256.971L56.0574 244.741C59.5838 242.708 64.9107 242.484 67.9641 244.251L86.6498 255.038L106.489 254.3V268.496H106.464C106.373 269.791 105.41 271.127 103.576 272.18L62.994 295.637C59.4676 297.67 54.1407 297.894 51.0872 296.127L14.6285 275.076C13.2927 274.305 12.6538 273.284 12.6123 272.205H12.5708V257.809H12.5625Z" fill="#90A4AE"/>
<path style="mix-blend-mode:multiply" d="M12.5625 257.809L34.8991 256.971L56.0574 244.741C59.5838 242.708 64.9107 242.484 67.9641 244.251L86.6498 255.038L106.489 254.3V268.496H106.464C106.373 269.791 105.41 271.127 103.576 272.18L62.994 295.637C59.4676 297.67 54.1407 297.894 51.0872 296.127L14.6285 275.076C13.2927 274.305 12.6538 273.284 12.6123 272.205H12.5708V257.809H12.5625Z" fill="url(#paint4_linear_262_7790)"/>
<path d="M14.6205 260.829L51.0792 281.88C54.1326 283.639 59.4595 283.423 62.9859 281.39L103.568 257.933C107.095 255.901 107.476 252.822 104.423 251.063L67.9643 230.013C64.9109 228.254 59.584 228.469 56.0576 230.502L15.4751 253.959C11.9487 255.992 11.567 259.07 14.6205 260.829Z" fill="#EDEFF0"/>
<path style="mix-blend-mode:multiply" d="M14.6205 260.829L51.0792 281.88C54.1326 283.639 59.4595 283.423 62.9859 281.39L103.568 257.933C107.095 255.901 107.476 252.822 104.423 251.063L67.9643 230.013C64.9109 228.254 59.584 228.469 56.0576 230.502L15.4751 253.959C11.9487 255.992 11.567 259.07 14.6205 260.829Z" fill="url(#paint5_linear_262_7790)"/>
<path d="M18.4043 235.463C18.4043 235.463 18.8689 270.188 57.9745 270.188C75.2912 270.188 113.036 241.031 113.036 241.031C113.036 241.031 117.251 227.83 107.684 220.968C98.1173 214.098 73.4076 203.353 73.4076 203.353L18.4043 235.472V235.463Z" fill="#5E4137"/>
<path d="M20.9098 253.353L15.3091 256.581V173.889L20.9098 170.661V253.353Z" fill="#90A4AE"/>
<path d="M240.459 295.23L246.06 298.457V215.766L240.459 212.538V295.23Z" fill="#FDCBA5"/>
<path d="M166.952 254L9.7085 163.218L94.4165 114.313L251.66 205.095L166.952 254Z" fill="#EAB588"/>
<path style="mix-blend-mode:multiply" d="M223.839 208.688H245.03L251.66 205.095L232.095 193.794L223.839 208.688Z" fill="url(#paint6_linear_262_7790)"/>
<path style="mix-blend-mode:multiply" d="M74.5361 140.094H90.8986L94.5577 151.469H123.922V136.426L92.3589 125.258L74.5361 140.094Z" fill="url(#paint7_linear_262_7790)"/>
<path d="M180.593 242.276L152.2 225.889L189.729 204.216L218.122 220.611L180.593 242.276Z" fill="#EDEFF0"/>
<path d="M181.539 237.919L153.154 221.524L190.683 199.859L219.068 216.247L181.539 237.919Z" fill="white"/>
<path d="M189.472 204.116L210.29 216.139" stroke="#102A4C" stroke-width="1.5" stroke-miterlimit="10" stroke-linecap="round"/>
<path d="M186.111 206.514L206.929 218.537" stroke="#102A4C" stroke-width="1.5" stroke-miterlimit="10" stroke-linecap="round"/>
<path d="M182.759 208.92L203.577 220.935" stroke="#102A4C" stroke-width="1.5" stroke-miterlimit="10" stroke-linecap="round"/>
<path d="M179.398 211.318L200.217 223.341" stroke="#102A4C" stroke-width="1.5" stroke-miterlimit="10" stroke-linecap="round"/>
<path d="M92.8898 122.204L68.1221 136.425V97.0957L92.8898 82.874V122.204Z" fill="#D71B61"/>
<path d="M74.5361 140.094L67.3174 135.92V96.5488L74.5361 100.714V140.094Z" fill="#F06492"/>
<path d="M99.3038 125.872L74.5361 140.093V100.764L99.3038 86.542V125.872Z" fill="#D71B61"/>
<path style="mix-blend-mode:multiply" opacity="0.5" d="M99.3038 125.872L74.5361 140.093V100.764L99.3038 86.542V125.872Z" fill="url(#paint8_linear_262_7790)"/>
<path d="M99.3038 86.5169L98.499 86.0439L74.5278 99.7595L69.01 96.5816L92.8899 82.8743L92.0851 82.4014L68.1554 96.0921L67.3174 96.5733L68.1222 97.096L68.1637 97.0711L74.5361 100.763L75.4073 100.257L75.3824 100.249L99.3038 86.5169Z" fill="#EC417B"/>
<path d="M70.6528 97.528L92.8898 84.7666L96.8228 87.0069L74.5277 99.76L70.6528 97.528Z" fill="white"/>
<path d="M104.539 128.842L85.5464 139.753V104.406L104.539 93.4951V128.842Z" fill="#FAA627"/>
<path d="M91.9604 143.42L84.7417 139.255V103.858L91.9604 108.032V143.42Z" fill="#F78C20"/>
<path d="M110.953 132.51L91.9604 143.421V108.074L110.953 97.1631V132.51Z" fill="#FAA627"/>
<path style="mix-blend-mode:multiply" d="M110.953 132.51L91.9604 143.421V108.074L110.953 97.1631V132.51Z" fill="url(#paint9_linear_262_7790)"/>
<path d="M110.953 97.138L110.148 96.665L91.9521 107.07L86.4344 103.892L104.539 93.4954L103.734 93.0225L85.5797 103.402L84.7417 103.892L85.5465 104.406L85.588 104.382L91.9604 108.074L92.8233 107.576L92.8068 107.559L110.953 97.138Z" fill="#FCB64E"/>
<path d="M88.0771 104.838L104.539 95.3877L108.472 97.628L91.952 107.07L88.0771 104.838Z" fill="white"/>
<path d="M112.737 133.597L88.1436 147.802V122.594L112.737 108.397V133.597Z" fill="#229896"/>
<path d="M94.5576 151.469L87.3389 147.296V122.047L94.5576 126.22V151.469Z" fill="#71CAC5"/>
<path d="M119.151 137.264L94.5576 151.469V126.262L119.151 112.057V137.264Z" fill="#229896"/>
<path style="mix-blend-mode:multiply" d="M119.151 137.264L94.5576 151.469V126.262L119.151 112.057V137.264Z" fill="url(#paint10_linear_262_7790)"/>
<path d="M119.151 112.032L118.346 111.567L94.5493 125.258L89.0315 122.08L112.737 108.389L111.932 107.925L88.1769 121.591L87.3389 122.08L88.1437 122.595L88.1852 122.57L94.5576 126.262L95.4205 125.756L95.4039 125.748L119.151 112.032Z" fill="#56BAB4"/>
<path d="M90.6743 123.026L112.737 110.289L116.67 112.529L94.5492 125.258L90.6743 123.026Z" fill="white"/>
<path style="mix-blend-mode:multiply" d="M139.953 163.136L113.252 147.811C112.414 147.329 112.339 146.159 113.094 145.57L120.91 139.505L167.641 172.537L139.953 163.136Z" fill="url(#paint11_linear_262_7790)"/>
<path style="mix-blend-mode:multiply" d="M176.76 207.368L171.906 204.597L155.941 217.01H163.899C166.554 217.01 169.159 216.313 171.458 214.985L176.768 211.923C178.527 210.911 178.519 208.372 176.76 207.368Z" fill="url(#paint12_linear_262_7790)"/>
<path d="M171.864 201.261L165.11 197.337C163.492 196.399 161.534 196.233 159.783 196.889L152.78 199.527C151.121 200.15 149.627 201.162 148.432 202.473C146.524 204.564 145.47 207.285 145.479 210.115C145.479 210.853 145.877 211.534 146.516 211.907L154.755 216.695C155.485 217.118 156.39 217.118 157.128 216.695L157.634 216.404L155.975 215.251C156.174 212.77 157.194 210.405 158.887 208.555C160.082 207.244 161.575 206.24 163.235 205.609L171.325 202.564L173.009 203.9V203.253C173.009 202.431 172.57 201.676 171.864 201.261Z" fill="white"/>
<path d="M163.235 205.609L171.582 202.464C172.271 202.207 173.009 202.713 173.009 203.452V206.497C173.017 207.127 172.686 207.717 172.138 208.032L156.979 216.786C156.514 217.051 155.941 216.719 155.941 216.188C155.941 213.367 156.987 210.637 158.895 208.555C160.09 207.244 161.584 206.24 163.243 205.609H163.235Z" fill="#E5E5E5"/>
<path d="M166.96 198.415L158.68 200.838L159.053 201.07L167.342 198.639L166.96 198.415Z" fill="#78909C"/>
<path d="M164.065 198.233L160.173 199.353C159.932 199.42 159.758 199.619 159.708 199.86C159.65 200.133 159.783 200.415 160.024 200.556L160.604 200.888C160.762 200.98 160.945 201.005 161.119 200.955L165.01 199.835C165.251 199.768 165.425 199.569 165.475 199.328C165.533 199.055 165.4 198.773 165.16 198.631L164.579 198.3C164.421 198.208 164.239 198.183 164.065 198.233Z" fill="#78909C"/>
<path style="mix-blend-mode:multiply" d="M146.043 187.347H149.528C152.664 187.347 155.743 186.542 158.472 185.015L168.396 179.464L208.713 202.772C211.202 204.207 214.272 204.207 216.753 202.755L232.087 193.802L169.325 157.567L146.043 187.355V187.347Z" fill="url(#paint13_linear_262_7790)"/>
<path d="M166.952 254V261.443L251.66 212.538V205.096L166.952 254Z" fill="#D28D59"/>
<path d="M172.553 340.899V258.207L166.952 261.443V344.135L172.553 340.899Z" fill="#D28D59"/>
<path d="M246.06 298.457L251.66 295.23V212.538L246.06 215.766V298.457Z" fill="#D28D59"/>
<path d="M9.7085 163.219V170.662V253.353L15.3092 256.581V173.889L166.952 261.443V254L9.7085 163.219Z" fill="#FDCBA5"/>
<path d="M161.352 340.899L166.952 344.135V261.443L161.352 258.207V340.899Z" fill="#FDCBA5"/>
<path style="mix-blend-mode:multiply" d="M91.9354 180.353C92.4581 180.477 143.213 195.056 143.213 195.056L149.984 199.594L149.461 213.617L127.274 231.091V238.534L85.5464 214.438L91.9354 180.353Z" fill="url(#paint14_linear_262_7790)"/>
<path d="M143.23 191.952L143.222 195.055L125.831 205.17L125.839 202.058L143.23 191.952Z" fill="#BEC8CC"/>
<path d="M125.839 202.058L125.83 205.17L80.0122 178.717L80.0288 175.614L125.839 202.058Z" fill="#E5E5E5"/>
<path d="M143.23 191.952L125.839 202.058L80.0288 175.615L97.4201 165.5L143.23 191.952Z" fill="white"/>
<path d="M104.506 171.723V172.66L101.079 174.652L101.087 173.714L104.506 171.723Z" fill="#416671"/>
<path d="M101.088 173.714L101.079 174.652L94.2671 170.719V169.781L101.088 173.714Z" fill="#BEC8CC"/>
<path d="M104.506 171.723L101.088 173.714L94.2671 169.781L97.6939 167.79L104.506 171.723Z" fill="#78909C"/>
<path d="M99.7764 174.478V175.415L96.3496 177.398V176.469L99.7764 174.478Z" fill="#416671"/>
<path d="M96.3497 176.469V177.398L89.5376 173.465V172.536L96.3497 176.469Z" fill="#BEC8CC"/>
<path d="M99.7766 174.478L96.3497 176.469L89.5376 172.536L92.9644 170.545L99.7766 174.478Z" fill="#78909C"/>
<path d="M92.3589 175.697V176.627L88.9321 178.618V177.689L92.3589 175.697Z" fill="#2F3333"/>
<path d="M88.9319 177.689V178.618L84.7915 176.229V175.291L88.9319 177.689Z" fill="#2F3333"/>
<path d="M92.3587 175.698L88.9319 177.689L84.7915 175.291L88.2183 173.3L92.3587 175.698Z" fill="#42494A"/>
<path d="M109.908 174.843V175.78L106.481 177.763V176.834L109.908 174.843Z" fill="#416671"/>
<path d="M106.481 176.834V177.763L102.548 175.498V174.561L106.481 176.834Z" fill="#BEC8CC"/>
<path d="M109.908 174.843L106.481 176.834L102.548 174.561L105.975 172.569L109.908 174.843Z" fill="#78909C"/>
<path d="M105.17 177.598V178.527L101.743 180.518L101.751 179.589L105.17 177.598Z" fill="#416671"/>
<path d="M101.751 179.589L101.743 180.518L97.8101 178.245V177.315L101.751 179.589Z" fill="#BEC8CC"/>
<path d="M105.17 177.598L101.751 179.589L97.8101 177.316L101.237 175.324L105.17 177.598Z" fill="#78909C"/>
<path d="M115.177 177.888V178.817L111.75 180.808V179.879L115.177 177.888Z" fill="#416671"/>
<path d="M111.75 179.879V180.808L107.817 178.535V177.605L111.75 179.879Z" fill="#BEC8CC"/>
<path d="M115.177 177.888L111.75 179.879L107.817 177.606L111.244 175.614L115.177 177.888Z" fill="#78909C"/>
<path d="M110.447 180.635L110.439 181.572L107.012 183.564L107.021 182.626L110.447 180.635Z" fill="#416671"/>
<path d="M107.02 182.626L107.012 183.564L103.079 181.29L103.087 180.353L107.02 182.626Z" fill="#BEC8CC"/>
<path d="M110.447 180.634L107.02 182.626L103.087 180.352L106.506 178.369L110.447 180.634Z" fill="#78909C"/>
<path d="M120.371 180.883V181.82L116.944 183.803V182.874L120.371 180.883Z" fill="#416671"/>
<path d="M116.944 182.874V183.803L113.011 181.538V180.601L116.944 182.874Z" fill="#BEC8CC"/>
<path d="M120.371 180.883L116.944 182.874L113.011 180.601L116.438 178.609L120.371 180.883Z" fill="#78909C"/>
<path d="M115.633 183.638V184.567L112.206 186.558L112.214 185.629L115.633 183.638Z" fill="#416671"/>
<path d="M112.214 185.629L112.206 186.558L108.273 184.285V183.355L112.214 185.629Z" fill="#BEC8CC"/>
<path d="M115.633 183.638L112.214 185.629L108.273 183.356L111.7 181.364L115.633 183.638Z" fill="#78909C"/>
<path d="M125.64 183.929V184.858L122.213 186.849V185.92L125.64 183.929Z" fill="#416671"/>
<path d="M122.213 185.92V186.849L118.28 184.576V183.646L122.213 185.92Z" fill="#BEC8CC"/>
<path d="M125.64 183.929L122.213 185.92L118.28 183.647L121.707 181.655L125.64 183.929Z" fill="#78909C"/>
<path d="M120.902 186.676V187.613L117.475 189.605L117.483 188.667L120.902 186.676Z" fill="#416671"/>
<path d="M117.483 188.667L117.475 189.605L113.542 187.331V186.394L117.483 188.667Z" fill="#BEC8CC"/>
<path d="M120.902 186.675L117.483 188.667L113.542 186.393L116.969 184.41L120.902 186.675Z" fill="#78909C"/>
<path d="M132.974 188.16V189.098L128.236 191.844L128.245 190.915L132.974 188.16Z" fill="#416671"/>
<path d="M121.366 190.915V191.844L118.86 190.4V189.463L121.366 190.915Z" fill="#BEC8CC"/>
<path d="M124.818 192.906V193.836L121.366 191.844V190.915L124.818 192.906Z" fill="#BEC8CC"/>
<path d="M128.245 190.915L128.236 191.844L124.818 193.836V192.906L128.245 190.915Z" fill="#416671"/>
<path d="M132.974 188.16L128.245 190.915L124.818 192.906L121.366 190.915L118.86 189.463L122.287 187.472L124.793 188.924L129.531 186.169L132.974 188.16Z" fill="#78909C"/>
<path d="M123.499 193.67L123.49 194.608L120.063 196.599L120.072 195.661L123.499 193.67Z" fill="#416671"/>
<path d="M120.072 195.661L120.064 196.599L90.6909 179.639V178.701L120.072 195.661Z" fill="#BEC8CC"/>
<path d="M123.499 193.67L120.072 195.661L90.6909 178.701L94.1177 176.71L123.499 193.67Z" fill="#78909C"/>
<path d="M138.476 191.338L138.467 192.267L135.049 194.259V193.329L138.476 191.338Z" fill="#416671"/>
<path d="M135.049 193.329V194.258L131.107 191.985L131.116 191.056L135.049 193.329Z" fill="#BEC8CC"/>
<path d="M138.475 191.338L135.049 193.329L131.116 191.056L134.543 189.064L138.475 191.338Z" fill="#78909C"/>
<path d="M133.738 194.085V195.023L130.311 197.014V196.076L133.738 194.085Z" fill="#416671"/>
<path d="M130.311 196.076V197.014L126.378 194.74V193.803L130.311 196.076Z" fill="#BEC8CC"/>
<path d="M133.738 194.085L130.311 196.076L126.378 193.802L129.805 191.819L133.738 194.085Z" fill="#78909C"/>
<path d="M128.992 196.848V197.777L125.565 199.768V198.839L128.992 196.848Z" fill="#416671"/>
<path d="M125.565 198.839V199.768L121.632 197.495V196.565L125.565 198.839Z" fill="#BEC8CC"/>
<path d="M128.992 196.848L125.565 198.839L121.632 196.566L125.059 194.574L128.992 196.848Z" fill="#78909C"/>
<path d="M122.594 176.271L139.04 185.763C143.039 188.078 149.652 187.821 153.087 185.215L171.839 170.048L149.818 157.336L123.54 168.164C119.035 170.147 118.595 173.964 122.594 176.271Z" fill="#D0D2D3"/>
<path d="M122.594 176.271L139.04 185.763C143.039 188.078 149.652 187.821 153.087 185.215L171.839 170.048L149.818 157.336L123.54 168.164C119.035 170.147 118.595 173.964 122.594 176.271Z" fill="#E5E5E5"/>
<path d="M105.029 133.564L116.023 53.6518C116.222 52.4154 120.395 49.9926 123.2 51.4695L218.57 106.531C219.914 107.303 220.636 108.829 220.387 110.356L207.551 189.762C207.252 191.612 205.684 192.824 203.983 192.882V192.907H201.204L202.067 192.434C202.067 192.434 202.017 192.417 201.992 192.401L106.838 137.381C105.502 136.609 104.78 135.091 105.02 133.564H105.029Z" fill="#E5E5E5"/>
<path d="M199.503 193.462L104.348 138.442C103.012 137.671 102.291 136.152 102.531 134.625L115.151 55.178C115.558 52.5893 118.437 51.2202 120.702 52.5312L216.073 107.593C217.417 108.364 218.139 109.891 217.89 111.418L205.054 190.824C204.639 193.404 201.768 194.765 199.503 193.462Z" fill="white"/>
<path d="M199.495 186.542L108.813 134.128C107.999 133.655 107.56 132.734 107.709 131.813L119.01 60.6629C119.259 59.0946 121.001 58.2649 122.379 59.0532L211.609 110.555C212.422 111.028 212.862 111.949 212.712 112.878L200.914 185.87C200.806 186.534 200.076 186.874 199.495 186.542Z" fill="#7B86C2"/>
<path d="M110.306 133.381C109.493 132.908 109.053 131.987 109.203 131.066L120.504 59.916C120.578 59.4597 120.777 59.0697 121.051 58.7627C120.072 58.854 119.184 59.5841 119.01 60.6628L107.709 131.813C107.56 132.742 107.999 133.663 108.813 134.128L199.495 186.542C200.076 186.874 200.806 186.526 200.914 185.87L200.93 185.762L110.298 133.381H110.306Z" fill="#3F4DA1"/>
<path d="M126.212 72.1045L140.732 80.4849" stroke="#B5E4FA" stroke-width="2" stroke-linecap="round" stroke-linejoin="round"/>
<path d="M201.171 115.326L203.959 116.936" stroke="#B5E4FA" stroke-width="2" stroke-linecap="round" stroke-linejoin="round"/>
<path d="M195.794 112.248L198.167 113.617" stroke="#B5E4FA" stroke-width="2" stroke-linecap="round" stroke-linejoin="round"/>
<path d="M190.11 108.945L192.517 110.331" stroke="#B5E4FA" stroke-width="2" stroke-linecap="round" stroke-linejoin="round"/>
<path d="M79.8046 87.2227C79.8046 87.2227 94.3084 120.595 69.3416 130.17C44.3748 139.753 79.8046 87.2227 79.8046 87.2227Z" fill="#FFE0B2"/>
<path d="M140.882 199.469C140.931 199.303 141.048 199.162 141.371 198.955C142.5 198.225 143.661 197.544 144.848 196.897C146.632 195.935 148.814 194.839 150.888 195.138C153.303 195.486 161.882 198.158 163.376 199.519C164.272 200.332 163.708 201.627 162.944 202.34C161.774 203.435 160.223 203.983 158.688 204.34C156.912 204.746 154.688 204.755 153.377 206.207C151.851 207.899 150.374 209.476 148.465 210.762C147.71 211.276 146.906 211.741 146.026 211.982C145.196 212.206 143.786 212.363 143.404 211.476C142.956 210.43 142.649 209.318 142.184 208.264C141.296 206.24 140.301 204.141 140.384 201.875C140.4 201.295 140.691 200.772 140.79 200.208C140.848 199.851 140.832 199.643 140.89 199.469H140.882Z" fill="#FFE0B2"/>
<path d="M71.0263 136.285C71.0263 136.285 91.5458 152.597 94.9228 175.681C98.2998 198.764 99.9095 201.386 104.971 201.328C110.845 201.253 134.526 199.162 140.227 198.565C140.227 198.565 149.478 203.9 143.537 213.99C143.537 213.99 106.315 228.809 94.8481 228.809C78.4027 228.809 74.6191 203.344 74.6191 203.344C74.6191 203.344 79.2988 209.642 77.8053 224.245C77.8053 224.245 55.1202 243.064 20.9018 226.436C20.9018 226.436 14.5626 160.579 26.4362 138.658C38.3014 116.728 71.0263 136.293 71.0263 136.293V136.285Z" fill="white"/>
<path d="M79.8046 87.2229C79.8046 87.2229 82.5427 88.1025 83.9948 93.3298C83.9948 93.3298 90.7654 79.0002 71.1255 68.1141C63.4753 63.8741 56.6134 62.4719 48.5649 65.658C40.0269 69.0434 32.858 73.3663 28.6014 81.9292C18.2712 102.714 28.7923 127.208 50.7803 134.045C54.4727 135.19 58.4471 135.763 62.2058 134.875C75.2825 131.772 68.4703 114.405 73.7143 104.714C81.1653 90.9402 79.8046 87.2229 79.8046 87.2229Z" fill="#102A4C"/>
<path d="M1.97559 168.081C1.97559 168.081 12.3556 160.97 22.719 163.949C33.0825 166.919 65.5087 181.614 65.5087 196.541V237.762C65.5087 242.044 62.6709 249.511 49.9594 252.15L1.97559 168.081Z" fill="#90A4AE"/>
<path style="mix-blend-mode:multiply" d="M1.97559 168.081C1.97559 168.081 12.3556 160.97 22.719 163.949C33.0825 166.919 65.5087 181.614 65.5087 196.541V237.762C65.5087 242.044 62.6709 249.511 49.9594 252.15L1.97559 168.081Z" fill="url(#paint15_linear_262_7790)"/>
<path d="M6.58041 228.635L46.3083 251.569C49.8181 253.594 52.6641 251.445 52.6641 246.765V203.162C52.6641 198.482 49.8181 193.048 46.3083 191.023L6.58041 168.089C3.07061 166.064 0.224609 168.213 0.224609 172.893V216.496C0.224609 221.176 3.07061 226.61 6.58041 228.635Z" fill="#CFD8DC"/>
<path d="M21.6569 216.081L27.0917 219.218C29.4896 220.603 31.4312 219.135 31.4312 215.94V211.219C31.4312 208.024 29.4896 204.316 27.0917 202.93L21.6569 199.793C19.259 198.408 17.3174 199.876 17.3174 203.071V207.792C17.3174 210.987 19.259 214.696 21.6569 216.081Z" fill="#90A4AE"/>
<path d="M19.6901 203.029C19.6901 203.029 9.42627 207.202 9.42627 224.627V264.197C9.42627 275.565 18.6364 284.775 30.0038 284.775H37.2308V277.971L23.482 270.18V229.639C23.482 222.121 25.6891 217.649 28.2281 216.031C28.2281 216.031 30.4021 205.053 19.6984 203.021L19.6901 203.029Z" fill="#EDEFF0"/>
<path style="mix-blend-mode:multiply" d="M19.6901 203.029C19.6901 203.029 9.42627 207.202 9.42627 224.627V264.197C9.42627 275.565 18.6364 284.775 30.0038 284.775H37.2308V277.971L23.482 270.18V229.639C23.482 222.121 25.6891 217.649 28.2281 216.031C28.2281 216.031 30.4021 205.053 19.6984 203.021L19.6901 203.029Z" fill="url(#paint16_linear_262_7790)"/>
<path d="M37.2307 277.971C37.2307 277.971 23.4819 278.685 23.4819 270.18L37.2307 277.971Z" fill="#CFD8DC"/>
<path style="mix-blend-mode:multiply" d="M37.2307 277.971C37.2307 277.971 23.4819 278.685 23.4819 270.18L37.2307 277.971Z" fill="url(#paint17_linear_262_7790)"/>
<path d="M69.9558 118.387C73.5302 118.387 76.4278 115.49 76.4278 111.915C76.4278 108.341 73.5302 105.443 69.9558 105.443C66.3815 105.443 63.4839 108.341 63.4839 111.915C63.4839 115.49 66.3815 118.387 69.9558 118.387Z" fill="#FFE0B2"/>
<path d="M229.921 207.17C226.42 209.195 220.736 209.195 217.235 207.17C213.733 205.146 213.733 201.868 217.235 199.844C220.736 197.819 226.42 197.819 229.921 199.844C233.423 201.868 233.423 205.146 229.921 207.17Z" fill="#863E1D"/>
<path d="M214.604 203.511L212.737 192.517H234.41L232.543 203.511H214.604Z" fill="#863E1D"/>
<path d="M231.448 187.19C227.083 184.667 219.997 184.667 215.633 187.19C213.451 188.451 212.355 190.102 212.355 191.753V193.263C212.355 194.915 213.451 196.566 215.633 197.827C219.997 200.349 227.083 200.349 231.448 197.827C233.63 196.566 234.725 194.915 234.725 193.263V191.753C234.725 190.102 233.63 188.451 231.448 187.19Z" fill="#9D5B36"/>
<path d="M230.651 195.769C226.801 197.894 220.504 197.786 216.579 195.521C212.654 193.255 212.588 189.687 216.43 187.563C220.28 185.439 226.577 185.547 230.502 187.812C234.427 190.077 234.493 193.645 230.651 195.769Z" fill="#863E1D"/>
<path d="M230.51 190.243C226.586 187.978 220.28 187.862 216.438 189.994C215.077 190.741 214.239 191.679 213.849 192.666C214.256 193.703 215.152 194.699 216.579 195.52C220.504 197.786 226.81 197.902 230.651 195.769C232.012 195.022 232.85 194.085 233.24 193.097C232.834 192.06 231.937 191.065 230.51 190.243Z" fill="#3E2723"/>
<path d="M223.582 193.902C231.661 193.902 238.21 187.353 238.21 179.274C238.21 171.195 231.661 164.646 223.582 164.646C215.503 164.646 208.954 171.195 208.954 179.274C208.954 187.353 215.503 193.902 223.582 193.902Z" fill="#368F43"/>
<path style="mix-blend-mode:multiply" d="M223.582 193.902C231.661 193.902 238.21 187.353 238.21 179.274C238.21 171.195 231.661 164.646 223.582 164.646C215.503 164.646 208.954 171.195 208.954 179.274C208.954 187.353 215.503 193.902 223.582 193.902Z" fill="url(#paint18_linear_262_7790)"/>
<path d="M210.804 185.431C211.128 184.925 211.8 184.767 212.306 185.091C212.812 185.414 212.97 186.086 212.646 186.592C212.322 187.098 210.298 188.268 210.298 188.268C210.298 188.268 210.48 185.937 210.804 185.431Z" fill="#366B34"/>
<path d="M211.393 182.518C211.94 182.775 212.165 183.43 211.907 183.97C211.65 184.517 210.995 184.741 210.455 184.484C209.908 184.227 208.514 182.352 208.514 182.352C208.514 182.352 210.845 182.26 211.393 182.518Z" fill="#366B34"/>
<path d="M226.477 177.805C226.204 178.345 225.556 178.561 225.017 178.295C224.478 178.029 224.262 177.374 224.527 176.835C224.801 176.295 226.693 174.935 226.693 174.935C226.693 174.935 226.743 177.266 226.477 177.805Z" fill="#366B34"/>
<path d="M236.774 178.743C236.185 178.618 235.804 178.046 235.92 177.456C236.036 176.867 236.617 176.486 237.206 176.602C237.795 176.718 239.604 178.203 239.604 178.203C239.604 178.203 237.363 178.859 236.774 178.743Z" fill="#366B34"/>
<path d="M237.181 175.324C236.99 175.656 236.575 175.764 236.243 175.582C235.912 175.391 235.804 174.976 235.986 174.644C236.177 174.312 237.422 173.532 237.422 173.532C237.422 173.532 237.372 175.001 237.181 175.333V175.324Z" fill="#366B34"/>
<path d="M223.823 176.461C223.889 176.834 223.64 177.191 223.267 177.257C222.893 177.324 222.536 177.075 222.47 176.701C222.404 176.328 222.852 174.926 222.852 174.926C222.852 174.926 223.756 176.087 223.823 176.461Z" fill="#366B34"/>
<path d="M227.697 189.015C227.614 188.417 228.038 187.87 228.635 187.787C229.232 187.704 229.78 188.127 229.863 188.724C229.946 189.322 229.133 191.512 229.133 191.512C229.133 191.512 227.78 189.612 227.697 189.015Z" fill="#366B34"/>
<path d="M230.643 188.634C230.377 188.36 230.386 187.928 230.651 187.663C230.917 187.397 231.356 187.406 231.622 187.671C231.887 187.945 232.311 189.355 232.311 189.355C232.311 189.355 230.908 188.907 230.643 188.634Z" fill="#366B34"/>
<path d="M217.027 177.266C217.027 177.822 216.579 178.27 216.023 178.27C215.467 178.27 215.019 177.822 215.019 177.266C215.019 176.71 215.467 176.262 216.023 176.262C216.579 176.262 217.027 176.71 217.027 177.266Z" fill="#FCD737"/>
<path d="M235.729 182.344C235.729 182.9 235.281 183.348 234.725 183.348C234.169 183.348 233.721 182.9 233.721 182.344C233.721 181.788 234.169 181.34 234.725 181.34C235.281 181.34 235.729 181.788 235.729 182.344Z" fill="#FCD737"/>
<path d="M212.563 171.466C212.563 172.022 212.115 172.47 211.559 172.47C211.003 172.47 210.555 172.022 210.555 171.466C210.555 170.91 211.003 170.462 211.559 170.462C212.115 170.462 212.563 170.91 212.563 171.466Z" fill="#FCD737"/>
<path d="M226.345 183.937C226.345 184.817 225.631 185.539 224.743 185.539C223.856 185.539 223.142 184.825 223.142 183.937C223.142 183.05 223.856 182.336 224.743 182.336C225.631 182.336 226.345 183.05 226.345 183.937Z" fill="#FCD737"/>
<path d="M216.612 193.579C217.497 193.579 218.214 192.862 218.214 191.977C218.214 191.093 217.497 190.376 216.612 190.376C215.728 190.376 215.011 191.093 215.011 191.977C215.011 192.862 215.728 193.579 216.612 193.579Z" fill="#FCD737"/>
<path d="M232.31 173.167C232.31 173.956 231.671 174.595 230.883 174.595C230.095 174.595 229.456 173.956 229.456 173.167C229.456 172.379 230.095 171.74 230.883 171.74C231.671 171.74 232.31 172.379 232.31 173.167Z" fill="#FCD737"/>
<path d="M161.766 154.481C157.07 154.481 152.307 151.826 148.358 147.005C139.612 136.318 136.584 117.815 141.471 104.896C144.358 97.2624 149.569 92.8896 155.767 92.8896C160.464 92.8896 165.226 95.5448 169.176 100.374C177.921 111.069 180.95 129.564 176.063 142.483C173.175 150.117 167.964 154.489 161.766 154.489V154.481Z" stroke="white" stroke-miterlimit="10" stroke-linecap="round" stroke-dasharray="5.08 5.08"/>
<path d="M173.275 141.421C168.803 153.262 158.672 154.913 150.656 145.122C142.641 135.323 139.778 117.791 144.251 105.95C148.723 94.1098 158.854 92.4586 166.869 102.25C174.885 112.049 177.747 129.581 173.275 141.421Z" fill="white"/>
<path d="M166.869 122.603C166.297 127.523 162.604 129.108 158.63 126.154C154.656 123.192 151.901 116.811 152.482 111.891C153.054 106.971 156.746 105.386 160.721 108.34C164.695 111.302 167.45 117.683 166.869 122.603Z" fill="#37474F"/>
<path d="M158.638 126.154C153.76 122.52 149.238 124.478 148.532 130.51L166.189 143.662C166.894 137.621 163.517 129.789 158.638 126.154Z" fill="#37474F"/>
<path opacity="0.8" d="M236.484 101.394L188.849 73.8967C188.119 73.4735 187.671 72.6935 187.671 71.8472V22.9507C187.671 21.1336 189.637 19.9969 191.214 20.9013L237.812 47.8097C239.181 48.5979 240.027 50.0583 240.027 51.6431V99.3447C240.027 101.162 238.061 102.299 236.484 101.394Z" fill="white"/>
<g style="mix-blend-mode:hard-light" opacity="0.67">
<path d="M169.508 55.1202L137.522 36.6502C137.032 36.3681 136.725 35.8454 136.725 35.2729V2.44011C136.725 1.22039 138.044 0.457031 139.106 1.06274L170.404 19.1344C171.325 19.6655 171.889 20.6446 171.889 21.7066V53.7428C171.889 54.9625 170.57 55.7259 169.508 55.1202Z" fill="#FEF8C5"/>
</g>
<path d="M187.024 122.072C197.037 122.072 205.154 113.955 205.154 103.942C205.154 93.9295 197.037 85.8125 187.024 85.8125C177.011 85.8125 168.894 93.9295 168.894 103.942C168.894 113.955 177.011 122.072 187.024 122.072Z" fill="#FEC44F"/>
<path d="M175.416 112.041L168.894 121.84L181.946 118.471L175.416 112.041Z" fill="#FEC44F"/>
<path d="M205.726 47.5033L194.391 40.9566C194.217 40.8571 194.109 40.6745 194.109 40.4671V32.9828C194.109 32.5514 194.574 32.2776 194.956 32.4933L206.041 38.8989C206.365 39.0897 206.564 39.4382 206.564 39.8116V47.0137C206.564 47.4452 206.099 47.719 205.717 47.5033H205.726Z" fill="#F06492"/>
<path d="M202.971 73.0753L194.275 68.0554C194.143 67.9807 194.06 67.8397 194.06 67.682V58.7541C194.06 58.4222 194.416 58.2147 194.707 58.3807L203.212 63.2927C203.461 63.4338 203.618 63.7076 203.618 63.9897V72.702C203.618 73.0339 203.261 73.2413 202.971 73.0753Z" fill="#F06492"/>
<path d="M194.101 46.1758L233.597 68.977" stroke="#37474F" stroke-miterlimit="10" stroke-linecap="round"/>
<path d="M194.101 49.1045L233.597 71.9057" stroke="#37474F" stroke-miterlimit="10" stroke-linecap="round"/>
<path d="M194.101 52.0254L233.597 74.8266" stroke="#37474F" stroke-miterlimit="10" stroke-linecap="round"/>
<path d="M194.101 54.9541L233.597 77.7553" stroke="#37474F" stroke-miterlimit="10" stroke-linecap="round"/>
<path d="M210.862 44.0098L233.597 57.1279" stroke="#37474F" stroke-miterlimit="10" stroke-linecap="round"/>
<path d="M210.862 46.9307L233.597 60.0571" stroke="#37474F" stroke-miterlimit="10" stroke-linecap="round"/>
<path d="M210.862 49.8594L233.597 62.9858" stroke="#37474F" stroke-miterlimit="10" stroke-linecap="round"/>
<path d="M194.101 43.1055L233.597 65.9067" stroke="#37474F" stroke-miterlimit="10" stroke-linecap="round"/>
<path d="M206.572 65.0771L233.597 80.6845" stroke="#37474F" stroke-miterlimit="10" stroke-linecap="round"/>
<path d="M206.572 68.0059L233.597 83.6049" stroke="#37474F" stroke-miterlimit="10" stroke-linecap="round"/>
<path d="M206.572 70.9355L233.597 86.5346" stroke="#37474F" stroke-miterlimit="10" stroke-linecap="round"/>
<path d="M206.572 73.8555L233.597 89.4629" stroke="#37474F" stroke-miterlimit="10" stroke-linecap="round"/>
<path d="M158.406 40.7738C157.004 40.7738 155.469 40.3174 153.892 39.4047C148.607 36.3513 144.3 28.9002 144.3 22.7934C144.3 19.657 145.404 17.2922 147.404 16.1389C149.403 14.9855 152 15.2096 154.722 16.7778C160.007 19.8312 164.314 27.2823 164.314 33.3891C164.314 36.5255 163.21 38.8903 161.21 40.0436C160.372 40.5332 159.426 40.7738 158.406 40.7738ZM150.216 17.0682C149.486 17.0682 148.822 17.2341 148.242 17.5743C146.773 18.4207 145.968 20.271 145.968 22.7934C145.968 28.3692 149.901 35.1731 154.73 37.9693C156.912 39.2305 158.92 39.4545 160.389 38.6082C161.858 37.7619 162.662 35.9115 162.662 33.3891C162.662 27.8133 158.729 21.0011 153.9 18.2132C152.581 17.4499 151.328 17.0682 150.225 17.0682H150.216Z" fill="white" stroke="white" stroke-width="0.75" stroke-miterlimit="10"/>
<path d="M151.909 32.5928V20.8271L158.846 30.7093L151.909 32.5928Z" fill="white" stroke="white" stroke-width="0.75" stroke-miterlimit="10"/>
<path opacity="0.8" d="M129.348 90.3509L92.7736 69.2341C92.2093 68.9105 91.8691 68.313 91.8691 67.6659V30.1285C91.8691 28.7345 93.3793 27.855 94.5907 28.5603L130.369 49.2208C131.423 49.8265 132.07 50.9466 132.07 52.1663V88.791C132.07 90.185 130.56 91.0645 129.348 90.3592V90.3509Z" fill="white"/>
<path d="M112.024 70.0893L107.029 61.4351L97.2211 67.1022C96.6237 67.4424 95.8686 67.2433 95.5202 66.6459C95.18 66.0485 95.3791 65.2934 95.9765 64.9449L107.941 58.0332L112.936 66.6874L125.474 59.4521C126.071 59.1119 126.826 59.311 127.175 59.9084C127.515 60.5058 127.316 61.2609 126.718 61.6094L112.024 70.0893Z" fill="#37474F"/>
<path d="M127.341 68.5707C126.652 68.5707 126.096 68.0148 126.096 67.3261V61.0533L121.151 58.199C120.553 57.8588 120.354 57.0954 120.694 56.498C121.035 55.9006 121.798 55.7014 122.395 56.0416L128.585 59.6178V67.3261C128.585 68.0148 128.029 68.5707 127.341 68.5707Z" fill="#37474F"/>
<path d="M96.9307 38.5674L105.344 43.4214" stroke="#F06492" stroke-width="2" stroke-linecap="round" stroke-linejoin="round"/>
<path d="M110.24 46.1006L113.268 47.8513" stroke="#F06492" stroke-width="2" stroke-linecap="round" stroke-linejoin="round"/>
</g>
<defs>
<linearGradient id="paint0_linear_262_7790" x1="-1.85817" y1="520.819" x2="147.403" y2="118.396" gradientUnits="userSpaceOnUse">
<stop stop-color="#AD69A5"/>
<stop offset="0.11" stop-color="#B170A9" stop-opacity="0.95"/>
<stop offset="0.3" stop-color="#BD86B6" stop-opacity="0.8"/>
<stop offset="0.54" stop-color="#D0A9CB" stop-opacity="0.57"/>
<stop offset="0.81" stop-color="#EADAE8" stop-opacity="0.25"/>
<stop offset="1" stop-color="white" stop-opacity="0"/>
</linearGradient>
<linearGradient id="paint1_linear_262_7790" x1="63.0939" y1="398.084" x2="238.442" y2="157.883" gradientUnits="userSpaceOnUse">
<stop stop-color="#AD69A5"/>
<stop offset="0.11" stop-color="#B170A9" stop-opacity="0.95"/>
<stop offset="0.3" stop-color="#BD86B6" stop-opacity="0.8"/>
<stop offset="0.54" stop-color="#D0A9CB" stop-opacity="0.57"/>
<stop offset="0.81" stop-color="#EADAE8" stop-opacity="0.25"/>
<stop offset="1" stop-color="white" stop-opacity="0"/>
</linearGradient>
<linearGradient id="paint2_linear_262_7790" x1="37.8035" y1="309.112" x2="86.7912" y2="309.112" gradientUnits="userSpaceOnUse">
<stop stop-color="white" stop-opacity="0"/>
<stop offset="1" stop-color="#90A4AE"/>
</linearGradient>
<linearGradient id="paint3_linear_262_7790" x1="63.426" y1="308.132" x2="63.426" y2="285.431" gradientUnits="userSpaceOnUse">
<stop stop-color="white" stop-opacity="0"/>
<stop offset="1" stop-color="#90A4AE"/>
</linearGradient>
<linearGradient id="paint4_linear_262_7790" x1="40.5994" y1="298.857" x2="75.2326" y2="233.979" gradientUnits="userSpaceOnUse">
<stop stop-color="white" stop-opacity="0"/>
<stop offset="1" stop-color="#90A4AE"/>
</linearGradient>
<linearGradient id="paint5_linear_262_7790" x1="50.5481" y1="299.678" x2="66.4708" y2="222.056" gradientUnits="userSpaceOnUse">
<stop stop-color="white" stop-opacity="0"/>
<stop offset="1" stop-color="#90A4AE"/>
</linearGradient>
<linearGradient id="paint6_linear_262_7790" x1="223.839" y1="201.245" x2="251.66" y2="201.245" gradientUnits="userSpaceOnUse">
<stop stop-color="#AD69A5"/>
<stop offset="0.11" stop-color="#B170A9" stop-opacity="0.95"/>
<stop offset="0.3" stop-color="#BD86B6" stop-opacity="0.8"/>
<stop offset="0.54" stop-color="#D0A9CB" stop-opacity="0.57"/>
<stop offset="0.81" stop-color="#EADAE8" stop-opacity="0.25"/>
<stop offset="1" stop-color="white" stop-opacity="0"/>
</linearGradient>
<linearGradient id="paint7_linear_262_7790" x1="74.5361" y1="138.359" x2="123.922" y2="138.359" gradientUnits="userSpaceOnUse">
<stop stop-color="#AD69A5"/>
<stop offset="0.11" stop-color="#B170A9" stop-opacity="0.95"/>
<stop offset="0.3" stop-color="#BD86B6" stop-opacity="0.8"/>
<stop offset="0.54" stop-color="#D0A9CB" stop-opacity="0.57"/>
<stop offset="0.81" stop-color="#EADAE8" stop-opacity="0.25"/>
<stop offset="1" stop-color="white" stop-opacity="0"/>
</linearGradient>
<linearGradient id="paint8_linear_262_7790" x1="75.5816" y1="98.2413" x2="98.1422" y2="128.228" gradientUnits="userSpaceOnUse">
<stop stop-color="white" stop-opacity="0"/>
<stop offset="0.17" stop-color="#EBDAE1" stop-opacity="0.22"/>
<stop offset="0.45" stop-color="#CEA3B4" stop-opacity="0.56"/>
<stop offset="0.69" stop-color="#B97C94" stop-opacity="0.8"/>
<stop offset="0.88" stop-color="#AC6380" stop-opacity="0.95"/>
<stop offset="1" stop-color="#A85B79"/>
</linearGradient>
<linearGradient id="paint9_linear_262_7790" x1="91.5041" y1="114.953" x2="109.816" y2="124.777" gradientUnits="userSpaceOnUse">
<stop stop-color="white" stop-opacity="0"/>
<stop offset="0.15" stop-color="#FEEED5" stop-opacity="0.19"/>
<stop offset="0.38" stop-color="#FCD498" stop-opacity="0.47"/>
<stop offset="0.59" stop-color="#FBC067" stop-opacity="0.7"/>
<stop offset="0.77" stop-color="#FAB244" stop-opacity="0.86"/>
<stop offset="0.91" stop-color="#FAA92E" stop-opacity="0.96"/>
<stop offset="1" stop-color="#FAA627"/>
</linearGradient>
<linearGradient id="paint10_linear_262_7790" x1="94.5576" y1="131.763" x2="119.151" y2="131.763" gradientUnits="userSpaceOnUse">
<stop stop-color="white" stop-opacity="0"/>
<stop offset="0.2" stop-color="#CEE8EA" stop-opacity="0.26"/>
<stop offset="0.47" stop-color="#94CED1" stop-opacity="0.58"/>
<stop offset="0.71" stop-color="#69BBC0" stop-opacity="0.81"/>
<stop offset="0.89" stop-color="#4FAFB5" stop-opacity="0.95"/>
<stop offset="1" stop-color="#46ABB1"/>
</linearGradient>
<linearGradient id="paint11_linear_262_7790" x1="120.545" y1="198.035" x2="158.92" y2="122.263" gradientUnits="userSpaceOnUse">
<stop stop-color="#AD69A5"/>
<stop offset="0.11" stop-color="#B170A9" stop-opacity="0.95"/>
<stop offset="0.3" stop-color="#BD86B6" stop-opacity="0.8"/>
<stop offset="0.54" stop-color="#D0A9CB" stop-opacity="0.57"/>
<stop offset="0.81" stop-color="#EADAE8" stop-opacity="0.25"/>
<stop offset="1" stop-color="white" stop-opacity="0"/>
</linearGradient>
<linearGradient id="paint12_linear_262_7790" x1="143.504" y1="209.318" x2="193.462" y2="212.96" gradientUnits="userSpaceOnUse">
<stop stop-color="#AD69A5"/>
<stop offset="0.11" stop-color="#B170A9" stop-opacity="0.95"/>
<stop offset="0.3" stop-color="#BD86B6" stop-opacity="0.8"/>
<stop offset="0.54" stop-color="#D0A9CB" stop-opacity="0.57"/>
<stop offset="0.81" stop-color="#EADAE8" stop-opacity="0.25"/>
<stop offset="1" stop-color="white" stop-opacity="0"/>
</linearGradient>
<linearGradient id="paint13_linear_262_7790" x1="172.072" y1="224.129" x2="210.447" y2="148.366" gradientUnits="userSpaceOnUse">
<stop stop-color="#AD69A5"/>
<stop offset="0.11" stop-color="#B170A9" stop-opacity="0.95"/>
<stop offset="0.3" stop-color="#BD86B6" stop-opacity="0.8"/>
<stop offset="0.54" stop-color="#D0A9CB" stop-opacity="0.57"/>
<stop offset="0.81" stop-color="#EADAE8" stop-opacity="0.25"/>
<stop offset="1" stop-color="white" stop-opacity="0"/>
</linearGradient>
<linearGradient id="paint14_linear_262_7790" x1="26.3031" y1="223.889" x2="163.484" y2="200.109" gradientUnits="userSpaceOnUse">
<stop stop-color="#AD69A5"/>
<stop offset="0.11" stop-color="#B170A9" stop-opacity="0.95"/>
<stop offset="0.3" stop-color="#BD86B6" stop-opacity="0.8"/>
<stop offset="0.54" stop-color="#D0A9CB" stop-opacity="0.57"/>
<stop offset="0.81" stop-color="#EADAE8" stop-opacity="0.25"/>
<stop offset="1" stop-color="white" stop-opacity="0"/>
</linearGradient>
<linearGradient id="paint15_linear_262_7790" x1="33.738" y1="186.924" x2="33.738" y2="251.71" gradientUnits="userSpaceOnUse">
<stop stop-color="white" stop-opacity="0"/>
<stop offset="1" stop-color="#90A4AE"/>
</linearGradient>
<linearGradient id="paint16_linear_262_7790" x1="23.3244" y1="213.89" x2="23.3244" y2="303.444" gradientUnits="userSpaceOnUse">
<stop stop-color="white" stop-opacity="0"/>
<stop offset="1" stop-color="#90A4AE"/>
</linearGradient>
<linearGradient id="paint17_linear_262_7790" x1="14.7199" y1="289.712" x2="29.9622" y2="274.478" gradientUnits="userSpaceOnUse">
<stop stop-color="white" stop-opacity="0"/>
<stop offset="1" stop-color="#90A4AE"/>
</linearGradient>
<linearGradient id="paint18_linear_262_7790" x1="218.579" y1="171.449" x2="232.427" y2="193.122" gradientUnits="userSpaceOnUse">
<stop stop-color="white" stop-opacity="0"/>
<stop offset="0.07" stop-color="#EDF5EE" stop-opacity="0.09"/>
<stop offset="0.38" stop-color="#9EC9A5" stop-opacity="0.48"/>
<stop offset="0.66" stop-color="#65A96F" stop-opacity="0.76"/>
<stop offset="0.87" stop-color="#42964F" stop-opacity="0.94"/>
<stop offset="1" stop-color="#368F43"/>
</linearGradient>
<clipPath id="clip0_262_7790">
<rect width="294.009" height="347.055" fill="white" transform="translate(0.224609 0.84668)"/>
</clipPath>
</defs>
</svg>
