<svg width="431" height="245" viewBox="0 0 431 245" fill="none" xmlns="http://www.w3.org/2000/svg">
<g clip-path="url(#clip0_262_7404)">
<path d="M215.551 244.413C334.544 244.413 431.007 236.967 431.007 227.783C431.007 218.598 334.544 211.153 215.551 211.153C96.5573 211.153 0.0942383 218.598 0.0942383 227.783C0.0942383 236.967 96.5573 244.413 215.551 244.413Z" fill="#E0EDF3"/>
<path d="M101.999 211.757C99.5684 211.757 29.6329 182.374 44.9048 124.024C60.3056 65.2041 136.061 35.7672 202.567 30.9052C269.066 26.0364 240.75 93.9551 333.671 79.9327C399.499 69.9982 396.816 149.787 313.802 166.872C230.788 183.957 102.006 211.757 102.006 211.757H101.999Z" fill="#E0EDF3"/>
<path d="M68.3188 101.459C69.6633 101.907 207.436 206.467 207.436 206.467L217.758 197.49L87.6107 82.1602L68.312 101.459H68.3188Z" fill="#D64D8B"/>
<path d="M87.6104 82.1601L68.3118 101.459C52.7343 104.786 40.7151 95.9856 36.8106 77.4272C36.4439 75.7024 36.1791 74.0455 36.0093 72.4565C34.1012 55.5753 41.693 46.1704 41.693 46.1704C42.4739 55.3512 44.6265 60.8243 66.8926 56.5259C67.7074 56.3698 68.4883 56.2747 69.2353 56.234C86.0826 55.2901 87.6104 82.1601 87.6104 82.1601Z" fill="#373B54"/>
<path d="M69.2353 56.234C67.4494 67.0377 59.0563 77.1284 40.2466 73.4479C38.7187 73.1491 37.3063 72.8164 36.0093 72.4565C34.1012 55.5753 41.693 46.1704 41.693 46.1704C42.4739 55.3512 44.6265 60.8243 66.8926 56.5259C67.7074 56.3698 68.4883 56.2747 69.2353 56.234Z" fill="#F3C700"/>
<path d="M190.215 216.701L166.075 224.428C125.386 216.055 102.257 194.027 89.2808 173.947L102.21 159.198L82.7823 162.526C75.1361 147.132 73.3706 135.099 73.3706 135.099C157.865 119.168 188.287 216.218 190.215 216.701Z" fill="#55C0BF"/>
<path d="M164.757 136.885L140.4 129.864C81.6141 70.1342 113.102 4.05566 113.102 4.05566C122.181 7.93305 129.84 12.6525 136.284 17.9762C130.404 25.7174 122.955 38.4564 133.718 39.1015C140.386 39.5022 143.842 33.7098 145.615 26.9804C182.969 69.2514 163.657 135.669 164.757 136.885Z" fill="#55C0BF"/>
<path d="M88.4116 144.871C89.6068 144.871 113.53 148.857 143.829 183.943" stroke="white" stroke-width="3" stroke-miterlimit="10" stroke-linecap="round"/>
<path d="M118.711 19.959C118.711 19.959 119.906 47.868 143.829 94.1114" stroke="white" stroke-width="3" stroke-miterlimit="10" stroke-linecap="round"/>
<path d="M245.884 222.697H173.32L182.066 174.43H254.63L245.884 222.697Z" fill="#373B54"/>
<path d="M253.353 220.415H160.955C159.353 220.415 158.055 221.712 158.055 223.311C158.055 224.911 159.353 226.207 160.955 226.207H253.353C254.955 226.207 256.253 224.911 256.253 223.311C256.253 221.712 254.955 220.415 253.353 220.415Z" fill="#494F70"/>
<path d="M108.702 196.886L132.312 66.5895C132.964 63.0041 136.081 60.4033 139.721 60.4033H336.999C341.698 60.4033 345.249 64.6542 344.407 69.2785L320.797 199.575C320.145 203.16 317.028 205.761 313.388 205.761H116.11C111.411 205.761 107.86 201.51 108.702 196.886Z" fill="#494F70"/>
<path d="M315.072 180.5H121.522C119.485 180.5 117.95 178.653 118.317 176.657L138.044 69.1833C138.329 67.6351 139.673 66.5146 141.249 66.5146H334.805C336.843 66.5146 338.377 68.3617 338.011 70.3581L318.284 177.832C317.999 179.38 316.654 180.5 315.079 180.5H315.072Z" fill="white"/>
<path d="M317.911 94.8652H152.113V83.396H320.532L317.911 94.8652Z" fill="#55C0BF"/>
<path d="M168.581 105.33H146.681L150.755 83.4233H172.655L168.581 105.33Z" fill="#F3C700"/>
<path d="M182.155 172.202L224.141 108.127L252.864 172.27L182.155 172.202Z" fill="#F2A14D"/>
<path d="M193.332 158.248C206.207 158.248 216.644 147.811 216.644 134.936C216.644 122.061 206.207 111.624 193.332 111.624C180.457 111.624 170.02 122.061 170.02 134.936C170.02 147.811 180.457 158.248 193.332 158.248Z" fill="#D64D8B"/>
<path d="M144.712 135.486H193.332L228.989 82.8662" stroke="#373B54" stroke-width="3" stroke-miterlimit="10"/>
<path d="M148.868 132.403H142.729V138.542H148.868V132.403Z" fill="#373B54"/>
<path d="M197.196 132.403H191.057V138.542H197.196V132.403Z" fill="#373B54"/>
<path d="M232.255 79.7153H226.117V85.854H232.255V79.7153Z" fill="#373B54"/>
<path d="M257.061 136.675C260.939 136.675 264.082 133.531 264.082 129.653C264.082 125.775 260.939 122.632 257.061 122.632C253.183 122.632 250.04 125.775 250.04 129.653C250.04 133.531 253.183 136.675 257.061 136.675Z" fill="#55C0BF"/>
<path d="M369.179 187.997C364.141 213.454 338.547 234.641 312.071 234.641C285.595 234.641 262.962 218.866 259.628 193.13C253.353 144.619 307.202 107.434 336.904 127.52C348.387 135.289 331.132 156.156 347.164 157.65C361.655 159.001 373.023 168.549 369.172 187.997H369.179Z" fill="#55C0BF"/>
<path d="M312.709 147.036C316.1 147.036 318.848 143.65 318.848 139.472C318.848 135.294 316.1 131.907 312.709 131.907C309.319 131.907 306.571 135.294 306.571 139.472C306.571 143.65 309.319 147.036 312.709 147.036Z" fill="#F3C700"/>
<path d="M289.092 169.669C295.216 169.669 300.181 165.249 300.181 159.796C300.181 154.343 295.216 149.922 289.092 149.922C282.968 149.922 278.003 154.343 278.003 159.796C278.003 165.249 282.968 169.669 289.092 169.669Z" fill="#D64D8B"/>
<path d="M284.495 205.72C289.809 205.72 294.117 200.92 294.117 194.998C294.117 189.076 289.809 184.276 284.495 184.276C279.181 184.276 274.873 189.076 274.873 194.998C274.873 200.92 279.181 205.72 284.495 205.72Z" fill="#373B54"/>
<path d="M313.463 225.433C318.83 225.433 323.18 221.377 323.18 216.374C323.18 211.372 318.83 207.316 313.463 207.316C308.096 207.316 303.746 211.372 303.746 216.374C303.746 221.377 308.096 225.433 313.463 225.433Z" fill="#71FFFE"/>
<path d="M355.673 185.892C355.673 194.319 347.429 201.157 337.27 201.157C336.469 201.157 335.688 201.116 334.921 201.028C329.047 200.41 324.036 197.49 321.245 193.396C319.724 191.182 318.861 188.615 318.861 185.885C318.861 178.273 325.577 171.958 334.364 170.81C335.308 170.688 336.272 170.62 337.264 170.62C344.754 170.62 351.205 174.335 354.063 179.672C355.096 181.573 355.666 183.678 355.666 185.885L355.673 185.892Z" fill="white"/>
<path d="M382.258 148.259L354.07 179.672L334.921 201.028C329.047 200.41 324.036 197.49 321.245 193.395L334.371 170.81L356.61 132.559L382.258 148.259Z" fill="#494F70"/>
<path d="M398.093 141.665C392.417 147.118 382.258 148.259 382.258 148.259L356.603 132.552C356.603 132.552 349.494 111.814 368.365 107.38C369.92 107.013 371.658 106.755 373.586 106.633C389.035 105.635 389.931 92.7056 389.931 92.7056C409.8 116.948 406.683 133.408 398.093 141.665Z" fill="#373B54"/>
<path d="M398.344 141.414C386.346 142.65 392.505 122.02 387.554 118.489C381.843 114.408 372.221 128.763 372.71 117.511C372.921 112.568 370.809 109.383 368.371 107.38C369.926 107.013 371.664 106.755 373.593 106.633C389.041 105.635 389.938 92.7056 389.938 92.7056C409.807 116.948 406.941 133.157 398.351 141.414H398.344Z" fill="#D64D8B"/>
<path d="M281.133 113.39C287.884 113.39 293.356 107.917 293.356 101.167C293.356 94.4162 287.884 88.9438 281.133 88.9438C274.383 88.9438 268.91 94.4162 268.91 101.167C268.91 107.917 274.383 113.39 281.133 113.39Z" fill="#373B54"/>
<path d="M308.784 59.4053C308.784 66.644 305.993 73.2308 301.43 78.1539C299.074 80.6868 297.213 83.6067 295.937 86.7507C294.877 89.3718 294.212 92.1559 294.035 95.008C293.995 95.5784 293.974 96.1488 293.974 96.726H268.435C268.435 96.1488 268.415 95.5784 268.381 95.008C267.994 88.8422 265.549 82.9412 261.257 78.4595C256.857 73.8419 254.026 67.7033 253.666 60.9128C253.611 60.0097 253.605 59.1065 253.645 58.183C254.277 43.563 266.513 31.8494 281.147 31.8154C284.352 31.8154 287.435 32.3451 290.301 33.3569C301.07 37.112 308.798 47.3521 308.798 59.4053H308.784Z" fill="#F2A14D"/>
<path d="M293.893 96.7939H268.652V104.223H293.893V96.7939Z" fill="#373B54"/>
<path d="M294.008 95.0078H268.374C267.163 95.0078 266.181 95.9898 266.181 97.2012V97.2079C266.181 98.4193 267.163 99.4013 268.374 99.4013H294.008C295.22 99.4013 296.202 98.4193 296.202 97.2079V97.2012C296.202 95.9898 295.22 95.0078 294.008 95.0078Z" fill="#494F70"/>
<path d="M294.008 102.016H268.374C267.163 102.016 266.181 102.998 266.181 104.209V104.216C266.181 105.427 267.163 106.409 268.374 106.409H294.008C295.22 106.409 296.202 105.427 296.202 104.216V104.209C296.202 102.998 295.22 102.016 294.008 102.016Z" fill="#494F70"/>
<path d="M298.843 51.5147C298.843 64.5321 288.29 75.0778 275.273 75.0778C265.597 75.0778 257.285 69.2447 253.659 60.906C253.605 60.0028 253.598 59.0997 253.638 58.1762C254.27 43.5562 266.507 31.8425 281.14 31.8086C284.345 31.8086 287.428 32.3383 290.294 33.35C295.522 37.6688 298.843 44.2013 298.843 51.5079V51.5147Z" fill="#F3C700"/>
<path d="M279.972 23.8771L272.163 6.69713L289.35 0.836914L279.972 23.8771Z" fill="#F3C700"/>
<path d="M263.179 28.5694L251.852 19.9727L248.335 30.9122L263.179 28.5694Z" fill="#F3C700"/>
<path d="M298.177 25.6902L311.84 20.8282L307.548 14.1938L298.177 25.6902Z" fill="#F3C700"/>
<path d="M269.922 58.9907C269.922 58.9907 270.499 68.3955 282.009 68.3955C293.519 68.3955 296.581 57.6733 289.492 57.2659C283.938 56.9467 281.622 62.8341 281.622 65.5164C281.622 68.1986 281.54 90.1388 281.54 90.1388" stroke="white" stroke-width="3" stroke-miterlimit="10" stroke-linecap="round"/>
<path d="M45.5498 194.4H128.584C139.082 194.4 147.598 202.916 147.598 213.414C147.598 223.912 139.082 232.427 128.584 232.427H45.5498V194.4Z" fill="#F2A14D"/>
<path d="M45.543 226.322V200.505H128.591C135.707 200.505 141.5 206.297 141.5 213.414C141.5 220.53 135.707 226.322 128.591 226.322H45.543Z" fill="white"/>
<path d="M82.5647 236.787L74.9594 233.867L67.4966 236.787V208.783H82.5647V236.787Z" fill="#D64D8B"/>
</g>
<defs>
<clipPath id="clip0_262_7404">
<rect width="430.906" height="243.576" fill="white" transform="translate(0.0942383 0.836914)"/>
</clipPath>
</defs>
</svg>
