<?xml version="1.0" encoding="UTF-8"?>
<svg xmlns="http://www.w3.org/2000/svg" width="2756.86" height="2730.93" xmlns:xlink="http://www.w3.org/1999/xlink" viewBox="0 0 2756.86 2730.93">
  <defs>
    <style>
      .cls-1 {
        opacity: .6;
      }

      .cls-1, .cls-2, .cls-3 {
        fill: #fff;
      }

      .cls-1, .cls-2, .cls-4, .cls-5 {
        mix-blend-mode: soft-light;
      }

      .cls-6 {
        fill: url(#linear-gradient-15);
      }

      .cls-7 {
        fill: url(#linear-gradient-13);
      }

      .cls-8 {
        fill: url(#linear-gradient-28);
      }

      .cls-2 {
        opacity: .74;
      }

      .cls-9 {
        fill: url(#linear-gradient-2);
      }

      .cls-10 {
        fill: url(#linear-gradient-25);
      }

      .cls-11 {
        fill: url(#linear-gradient-10);
      }

      .cls-12 {
        fill: url(#linear-gradient-27);
      }

      .cls-13 {
        fill: url(#linear-gradient-12);
        opacity: .2;
      }

      .cls-13, .cls-14, .cls-15, .cls-16, .cls-17 {
        mix-blend-mode: multiply;
      }

      .cls-18 {
        fill: url(#linear-gradient-26);
      }

      .cls-19 {
        fill: url(#linear-gradient-4);
      }

      .cls-20 {
        fill: url(#linear-gradient-30);
      }

      .cls-21 {
        fill: url(#linear-gradient-3);
      }

      .cls-22 {
        fill: url(#linear-gradient-34);
      }

      .cls-23 {
        clip-path: url(#clippath-1);
      }

      .cls-24 {
        fill: url(#linear-gradient-5);
      }

      .cls-14 {
        fill: url(#linear-gradient-35);
      }

      .cls-14, .cls-15, .cls-16, .cls-17 {
        opacity: .3;
      }

      .cls-25 {
        fill: url(#linear-gradient-22);
      }

      .cls-26 {
        fill: url(#linear-gradient-24);
      }

      .cls-27 {
        isolation: isolate;
      }

      .cls-15 {
        fill: #bfc8d6;
      }

      .cls-28 {
        fill: url(#linear-gradient-33);
      }

      .cls-29 {
        fill: url(#linear-gradient-8);
      }

      .cls-16, .cls-30 {
        fill: #d8dee8;
      }

      .cls-31 {
        fill: url(#linear-gradient-14);
      }

      .cls-32 {
        fill: url(#linear-gradient-29);
      }

      .cls-33 {
        fill: url(#linear-gradient-20);
      }

      .cls-34 {
        fill: url(#linear-gradient-17);
      }

      .cls-35 {
        fill: url(#linear-gradient-7);
      }

      .cls-36 {
        fill: url(#linear-gradient-9);
      }

      .cls-37 {
        fill: url(#linear-gradient-11);
      }

      .cls-38 {
        fill: url(#linear-gradient-19);
      }

      .cls-39 {
        fill: url(#linear-gradient-6);
      }

      .cls-40 {
        fill: url(#linear-gradient-36);
      }

      .cls-41 {
        fill: url(#linear-gradient-21);
      }

      .cls-5 {
        opacity: .5;
      }

      .cls-42 {
        fill: url(#linear-gradient-32);
      }

      .cls-43 {
        fill: url(#linear-gradient-16);
      }

      .cls-44 {
        fill: url(#linear-gradient);
      }

      .cls-45 {
        fill: url(#linear-gradient-23);
      }

      .cls-46 {
        fill: url(#linear-gradient-31);
      }

      .cls-47 {
        fill: #97a6b7;
      }

      .cls-48 {
        clip-path: url(#clippath);
      }

      .cls-49 {
        fill: url(#linear-gradient-18);
      }

      .cls-50 {
        fill: #f4f7fa;
      }
    </style>
    <clipPath id="clippath">
      <path class="cls-30" d="M1577.25,1834.5c-85.99-80.69-199.45-211.74-250.79-397.04-67.33-243.02,31.34-365.82,20.21-777.26-7.04-260.15-14.57-441.63-145.72-538.7-102.78-76.07-269.17-91.19-370.15-20.68-83.96,58.63-132.54,183.32-147.36,272.32-12.08,72.54-2.38,125.21-44.19,163.42-42.73,39.05-88.86,16.94-128.82,45.87-81.03,58.66-34.11,252.95-26.53,284.36,84.36,349.31,406.22,584.9,547.85,685.97,117.11,83.57,298.27,194.93,545.5,281.76Z"/>
    </clipPath>
    <linearGradient id="linear-gradient" x1="824.62" y1="636.89" x2="500.55" y2="1506.75" gradientUnits="userSpaceOnUse">
      <stop offset="0" stop-color="#ffc444"/>
      <stop offset="1" stop-color="#f36f56"/>
    </linearGradient>
    <clipPath id="clippath-1">
      <path class="cls-44" d="M1115.4,1828.81c-186.17,1.59-423.57-22.94-651.08-125.36-58.06-26.14-416.73-187.6-374.69-350.9,14.81-57.52,66.83-66.69,87.97-143.26,25.05-90.72-31.95-135.91-71.62-248.85-23.67-67.39-92.92-264.61,25.11-374.08,70.53-65.42,204.75-96.55,307-72.87,149.98,34.73,201.78,180.56,285.16,428.83,73.91,220.08,55.12,274.17,111.11,431.72,41.55,116.93,119.69,277.88,281.04,454.76Z"/>
    </clipPath>
    <linearGradient id="linear-gradient-2" x1="1345.2" y1="2935.67" x2="1396.54" y2="2439.4" gradientUnits="userSpaceOnUse">
      <stop offset="0" stop-color="#444b8c"/>
      <stop offset="1" stop-color="#26264f"/>
    </linearGradient>
    <linearGradient id="linear-gradient-3" x1="988.92" y1="1550.97" x2="447" y2="1613.72" gradientUnits="userSpaceOnUse">
      <stop offset="0" stop-color="#444b8c"/>
      <stop offset=".39" stop-color="#383c74"/>
      <stop offset="1" stop-color="#26264f"/>
    </linearGradient>
    <linearGradient id="linear-gradient-4" x1="1911.21" y1="555.8" x2="456.6" y2="2769.08" xlink:href="#linear-gradient-2"/>
    <linearGradient id="linear-gradient-5" x1="1792.21" y1="354.45" x2="407.85" y2="3123.16" gradientUnits="userSpaceOnUse">
      <stop offset="0" stop-color="#aa80f9"/>
      <stop offset="1" stop-color="#6165d7"/>
    </linearGradient>
    <linearGradient id="linear-gradient-6" x1="1170.07" y1="248.48" x2="1453.85" y2="1383.59" xlink:href="#linear-gradient-5"/>
    <linearGradient id="linear-gradient-7" x1="588.92" y1="1341.73" x2="2054.55" y2="1341.73" xlink:href="#linear-gradient-5"/>
    <linearGradient id="linear-gradient-8" x1="919.76" y1="535.43" x2="1824.03" y2="535.43" gradientUnits="userSpaceOnUse">
      <stop offset="0" stop-color="#311944"/>
      <stop offset="1" stop-color="#893976"/>
    </linearGradient>
    <linearGradient id="linear-gradient-9" x1="1553.32" y1="828.67" x2="1674.23" y2="828.67" xlink:href="#linear-gradient-8"/>
    <linearGradient id="linear-gradient-10" x1="1313.99" y1="82.51" x2="1502.6" y2="1316.65" gradientUnits="userSpaceOnUse">
      <stop offset="0" stop-color="#ff9085"/>
      <stop offset="1" stop-color="#fb6fbb"/>
    </linearGradient>
    <linearGradient id="linear-gradient-11" x1="1512.58" y1="69.71" x2="1695.8" y2="1268.53" xlink:href="#linear-gradient-10"/>
    <linearGradient id="linear-gradient-12" x1="919.76" y1="595.59" x2="1839.91" y2="595.59" xlink:href="#linear-gradient-10"/>
    <linearGradient id="linear-gradient-13" x1="2112.42" y1="1739.09" x2="2438.03" y2="1816.01" xlink:href="#linear-gradient-8"/>
    <linearGradient id="linear-gradient-14" x1="-3607.36" y1="1650.68" x2="-3328.21" y2="2168.43" gradientTransform="translate(-1223.56) rotate(-180) scale(1 -1)" xlink:href="#linear-gradient"/>
    <linearGradient id="linear-gradient-15" x1="-3689.18" y1="1684.89" x2="-3415.62" y2="2233.86" gradientTransform="translate(-1223.56) rotate(-180) scale(1 -1)" xlink:href="#linear-gradient"/>
    <linearGradient id="linear-gradient-16" x1="2120.15" y1="777.03" x2="2445.77" y2="853.95" xlink:href="#linear-gradient-8"/>
    <linearGradient id="linear-gradient-17" x1="-3615.1" y1="688.63" x2="-3335.94" y2="1206.38" gradientTransform="translate(-1223.56) rotate(-180) scale(1 -1)" xlink:href="#linear-gradient"/>
    <linearGradient id="linear-gradient-18" x1="-3696.92" y1="722.83" x2="-3423.36" y2="1271.8" gradientTransform="translate(-1223.56) rotate(-180) scale(1 -1)" xlink:href="#linear-gradient"/>
    <linearGradient id="linear-gradient-19" x1="2250.5" y1="1241.51" x2="2613.44" y2="1327.24" xlink:href="#linear-gradient-8"/>
    <linearGradient id="linear-gradient-20" x1="-3776.55" y1="1142.97" x2="-3465.4" y2="1720.06" gradientTransform="translate(-1223.56) rotate(-180) scale(1 -1)" xlink:href="#linear-gradient"/>
    <linearGradient id="linear-gradient-21" x1="-3867.75" y1="1181.1" x2="-3562.84" y2="1792.98" gradientTransform="translate(-1223.56) rotate(-180) scale(1 -1)" xlink:href="#linear-gradient"/>
    <linearGradient id="linear-gradient-22" x1="1570.92" y1="2695.31" x2="1653.39" y2="2695.31" gradientTransform="translate(2477.82) rotate(-180) scale(1 -1)" xlink:href="#linear-gradient-5"/>
    <linearGradient id="linear-gradient-23" x1="1624.14" y1="2665.87" x2="1652.84" y2="2665.87" gradientTransform="translate(2477.82) rotate(-180) scale(1 -1)" gradientUnits="userSpaceOnUse">
      <stop offset="0" stop-color="#f36f56"/>
      <stop offset="1" stop-color="#ffc444"/>
    </linearGradient>
    <linearGradient id="linear-gradient-24" x1="1927.52" y1="2686.39" x2="1991.55" y2="2686.39" gradientTransform="translate(2477.82) rotate(-180) scale(1 -1)" xlink:href="#linear-gradient-5"/>
    <linearGradient id="linear-gradient-25" x1="1915.52" y1="2648.17" x2="1972.59" y2="2648.17" xlink:href="#linear-gradient-23"/>
    <linearGradient id="linear-gradient-26" x1="2135.99" y1="1972.28" x2="1823.66" y2="2156.73" gradientTransform="translate(2477.82) rotate(-180) scale(1 -1)" xlink:href="#linear-gradient-8"/>
    <linearGradient id="linear-gradient-27" x1="2191.96" y1="2067.04" x2="1879.63" y2="2251.49" gradientTransform="translate(2477.82) rotate(-180) scale(1 -1)" xlink:href="#linear-gradient-8"/>
    <linearGradient id="linear-gradient-28" x1="1952.54" y1="1698.41" x2="1818.4" y2="1508.37" gradientTransform="translate(2477.82) rotate(-180) scale(1 -1)" xlink:href="#linear-gradient-2"/>
    <linearGradient id="linear-gradient-29" x1="1693.74" y1="1314.51" x2="1804.46" y2="1991.61" gradientTransform="translate(2477.82) rotate(-180) scale(1 -1)" xlink:href="#linear-gradient-10"/>
    <linearGradient id="linear-gradient-30" x1="1807.78" y1="1295.86" x2="1918.5" y2="1972.96" gradientTransform="translate(2477.82) rotate(-180) scale(1 -1)" xlink:href="#linear-gradient-10"/>
    <linearGradient id="linear-gradient-31" x1="1784.88" y1="1299.61" x2="1895.6" y2="1976.7" gradientTransform="translate(2477.82) rotate(-180) scale(1 -1)" xlink:href="#linear-gradient-10"/>
    <linearGradient id="linear-gradient-32" x1="1567.86" y1="1417.48" x2="1218.48" y2="2163.1" gradientTransform="translate(2477.82) rotate(-180) scale(1 -1)" xlink:href="#linear-gradient-2"/>
    <linearGradient id="linear-gradient-33" x1="939.35" y1="997.6" x2="916.99" y2="1057.22" gradientTransform="translate(1092.83 -78.13) rotate(149.69) scale(1 -1)" xlink:href="#linear-gradient-23"/>
    <linearGradient id="linear-gradient-34" x1="931.74" y1="922.14" x2="856.15" y2="1015.82" gradientTransform="translate(1092.83 -78.13) rotate(149.69) scale(1 -1)" xlink:href="#linear-gradient-23"/>
    <linearGradient id="linear-gradient-35" x1="1312" y1="1526.07" x2="1685.89" y2="1526.07" gradientTransform="translate(2477.82) rotate(-180) scale(1 -1)" xlink:href="#linear-gradient-2"/>
    <linearGradient id="linear-gradient-36" x1="1366.62" y1="1596.42" x2="1349.05" y2="1509.34" xlink:href="#linear-gradient-23"/>
  </defs>
  <g class="cls-27">
    <g id="Illustration">
      <g>
        <path class="cls-50" d="M2639.61,776.07C2712.29,114.11,2070.53-115.86,1615.56,53.63c-458.65,170.86-564.99-112.37-1209.92-31.45C-247.39,104.12,84.16,1129.22,84.16,1129.22c0,0,103.91,891.39,227.01,1302.27,122.44,408.66,1294.42,260.81,1579.52,248.61,283.46-12.13,529.77,11.28,776.4-437.42,246.17-447.88-99.92-806.83-27.48-1466.6Z"/>
        <path class="cls-15" d="M2418.57,614.87l-52.95,3.57c-6.08-23.63-14.06-46.45-23.97-68.21l43.93-29.48c11.99-8.04,15.06-24.32,6.88-36.36l-51.24-75.38c-8.2-12.07-24.6-15.35-36.62-7.33l-44.52,29.71c-16.91-17.32-35.27-33.21-54.92-47.44l23.47-48.2c6.33-13,.79-28.78-12.38-35.26l-82.49-40.59c-13.22-6.5-29.09-1.23-35.46,11.79l-23.64,48.35c-23.12-6.73-47.04-11.44-71.53-14.16l-4.11-54.23c-1.1-14.56-13.92-25.66-28.63-24.79l-92.21,5.44c-14.78.87-25.86,13.42-24.75,28.01l4.13,54.39c-24.01,5.68-47.21,13.28-69.34,22.81l-31.1-45.34c-8.39-12.23-25.17-15.59-37.48-7.5l-77.17,50.68c-12.36,8.12-15.56,24.64-7.13,36.88l31.2,45.35c-17.72,16.75-33.91,35.01-48.42,54.56l-49.93-24.12c-13.52-6.53-29.77-1.13-36.3,12.07l-40.85,82.65c-6.54,13.23-.85,29.24,12.71,35.74l49.56,23.79c-6.76,23.23-11.4,47.28-13.96,71.89l-54.88,3.7c-15.02,1.01-26.3,13.77-25.18,28.5l6.99,92.1c1.12,14.73,14.21,25.81,29.23,24.75l54.43-3.83c6.14,24.15,14.3,47.45,24.43,69.65l-44.78,29.88c-12.43,8.3-15.65,24.92-7.18,37.11l52.9,76.19c8.45,12.17,25.35,15.29,37.74,6.97l44.43-29.81c17.43,17.65,36.42,33.74,56.69,48.11l-23.22,47.5c-6.49,13.27-.83,29.18,12.63,35.52l84.02,39.57c13.41,6.32,29.51.69,35.96-12.56l22.91-47.05c23.71,6.57,48.22,10.99,73.26,13.36l3.95,52.01c1.11,14.6,13.97,25.49,28.73,24.33l92.07-7.26c14.69-1.16,25.7-13.9,24.59-28.46l-3.94-51.86c24.22-6.15,47.57-14.25,69.76-24.3l29.39,42.72c8.26,12.01,24.77,15.06,36.87,6.81l75.51-51.48c12.05-8.22,15.15-24.6,6.92-36.59l-29.48-42.98c17.46-17.03,33.39-35.52,47.58-55.3l47.11,22.61c13.11,6.29,28.84.8,35.13-12.27l39.32-81.63c6.28-13.04.78-28.72-12.3-35.04l-47.21-22.81c6.43-23.02,10.81-46.82,13.12-71.16l52.52-3.7c14.45-1.02,25.27-13.54,24.18-27.98l-6.85-90.27c-1.1-14.44-13.7-25.35-28.15-24.37ZM1941.27,452.66c148.4-9.43,277.05,101.68,288.16,248.11,11.11,146.43-99.43,274.03-247.7,285.06-149.17,11.1-279.87-99.87-291.11-247.91-11.23-148.04,101.35-275.78,250.65-285.26Z"/>
        <g>
          <g>
            <path class="cls-30" d="M1577.25,1834.5c-85.99-80.69-199.45-211.74-250.79-397.04-67.33-243.02,31.34-365.82,20.21-777.26-7.04-260.15-14.57-441.63-145.72-538.7-102.78-76.07-269.17-91.19-370.15-20.68-83.96,58.63-132.54,183.32-147.36,272.32-12.08,72.54-2.38,125.21-44.19,163.42-42.73,39.05-88.86,16.94-128.82,45.87-81.03,58.66-34.11,252.95-26.53,284.36,84.36,349.31,406.22,584.9,547.85,685.97,117.11,83.57,298.27,194.93,545.5,281.76Z"/>
            <g class="cls-48">
              <g class="cls-5">
                <path class="cls-3" d="M1675.59,1898.85c-149.91-56.96-278.94-124.92-383.51-201.98-154.78-114.06-251.18-245.1-286.53-389.47-27.64-112.91-17.39-235.27-4.41-390.18,10.76-128.42,29.95-218.38,46.89-297.76,21.95-102.87,39.28-184.12,27.25-301.6-12.22-119.36-51.6-238.05-117.03-352.78l5.85-3.34c65.9,115.56,105.56,235.14,117.88,355.44,12.14,118.54-5.29,200.25-27.36,303.69-16.89,79.18-36.04,168.92-46.76,296.91-13.44,160.34-23.15,276.18,4.24,388.02,34.96,142.79,130.51,272.55,283.98,385.65,104.07,76.69,232.56,144.36,381.9,201.1l-2.4,6.3Z"/>
                <path class="cls-3" d="M1012.57,827.2l-1.09-3.65c-69.21-232.33-193.5-377.69-285.57-458.72-99.68-87.72-183.91-120.92-184.75-121.24l2.44-6.29c.85.33,86.2,33.97,186.76,122.47,92.24,81.18,216.58,226.42,286.46,458.12,16.71-7.98,91.17-46.03,165.68-122.77,77.6-79.94,171.16-219.46,176.14-430.23l6.74.16c-5.04,213.08-99.71,354.15-178.25,434.97-85.09,87.57-170.23,125.29-171.08,125.66l-3.49,1.52Z"/>
                <path class="cls-3" d="M993.12,1173.83l-2.35-.69c-113-33.16-241.26-163.23-381.22-386.59-104.04-166.03-175.93-324.42-176.65-326l6.14-2.77c.71,1.58,72.45,159.61,176.26,325.26,95.06,151.69,237.06,340.79,375.04,382.94,11.48-16.49,91.69-129.94,192.99-229.34,109.53-107.47,364.49-144.59,367.05-144.95l.94,6.67c-2.54.36-255.33,37.17-363.28,143.09-108.5,106.45-192.71,229.13-193.55,230.36l-1.38,2.02Z"/>
                <path class="cls-3" d="M1250.14,1665.33l-6.67-.79c-1.26-.15-128.33-15.72-294.29-73.58-153.21-53.42-371.93-154.86-543.87-334.76L73.35,908.89l4.87-4.66,331.96,347.32c171.01,178.93,388.71,279.87,541.22,333.05,143.76,50.12,258.06,68.36,286.21,72.35-35.56-64.37-48.41-131.56-38.19-199.81,8.41-56.17,32.37-113.13,71.24-169.29,66.01-95.39,153.49-156.33,154.36-156.93l3.83,5.55c-.87.6-87.46,60.94-152.75,155.37-38.23,55.28-61.79,111.27-70.03,166.4-10.27,68.77,3.43,136.49,40.72,201.28l3.35,5.82Z"/>
              </g>
            </g>
          </g>
          <g>
            <path class="cls-44" d="M1115.4,1828.81c-186.17,1.59-423.57-22.94-651.08-125.36-58.06-26.14-416.73-187.6-374.69-350.9,14.81-57.52,66.83-66.69,87.97-143.26,25.05-90.72-31.95-135.91-71.62-248.85-23.67-67.39-92.92-264.61,25.11-374.08,70.53-65.42,204.75-96.55,307-72.87,149.98,34.73,201.78,180.56,285.16,428.83,73.91,220.08,55.12,274.17,111.11,431.72,41.55,116.93,119.69,277.88,281.04,454.76Z"/>
            <g class="cls-23">
              <g class="cls-5">
                <path class="cls-3" d="M1581.18,1928.59c-88.94,0-176.14-10.17-261.16-30.51-251.33-60.16-469.44-210.17-648.26-445.85-185.89-245-282.78-521.28-331.33-709.92-33.82-131.42-27.64-276.89,18.38-432.36l6.46,1.91c-45.67,154.29-51.83,298.55-18.32,428.77,48.39,188.03,144.95,463.42,330.17,707.52,177.85,234.4,394.68,383.57,644.46,443.36,187.51,44.88,385.91,39.93,589.71-14.73l1.74,6.51c-112.54,30.18-223.49,45.28-331.87,45.29Z"/>
                <path class="cls-3" d="M474.26,1114.48l-2.55-1.64C69.93,854,73.49,555.5,84.15,470.17c.21-1.69.36-2.78.37-3.25l6.74-.05c0,.65-.1,1.57-.42,4.13-10.52,84.15-13.9,378.19,381.94,634.5,9.64-12.53,54.72-73.41,91.88-161.39,38.35-90.82,75.87-229.98,36.78-377.13l6.51-1.73c39.59,149.07,1.64,289.83-37.17,381.67-42.01,99.41-94.1,164.56-94.63,165.2l-1.9,2.36Z"/>
                <path class="cls-3" d="M519.04,1461.21c-159.98,0-271.8-41.73-342.47-82.04-51.79-29.54-87.48-61.47-108.3-83.06-22.64-23.47-32.86-39.75-33.29-40.43l5.72-3.56c.41.65,41.72,65.71,139.59,121.42,162.98,92.78,355.4,89.12,488.76,69.5,9.44-21.02,104.42-241.36,81.74-536.15l-24.09-313.1,6.72-.52,24.09,313.1c23.88,310.4-82.03,538.9-83.1,541.17l-.77,1.63-1.78.26c-55.17,8.21-106.05,11.78-152.82,11.78Z"/>
              </g>
            </g>
          </g>
        </g>
        <g>
          <g>
            <path class="cls-47" d="M1602.74,2489.08c-33.07-10.97-57.78-39.03-64.76-73.53l-48.13-238.21-411.72,14.62-50.67,248.17c-7.1,34.76,21.31,69.62,54.03,82.42l172.26,67.4c32.04,12.54,66.48,17.53,100.71,14.6l364.04-31.14c10.64-.91,19.18-9.28,20.42-20.01,1.24-10.73,8.69-22.78-1.45-26.15l-134.71-38.17Z"/>
            <path class="cls-9" d="M1606.82,2474.6c-33.04-10.83-57.73-38.54-64.69-72.6l-48.08-235.22-401.69,14.45-50.62,245.05c-7.09,34.32,11.67,68.73,44.35,81.37l172.08,66.55c32.01,12.38,66.41,17.31,100.61,14.42l363.67-30.75c10.63-.9,19.16-9.16,20.4-19.76,1.24-10.6-5.16-20.6-15.3-23.92l-120.73-39.58Z"/>
          </g>
          <g>
            <g>
              <path class="cls-21" d="M236.83,2335.67c-44.65,2.66-81.18-26.3-81.18-64.58V891.45c0-38.28,36.53-67.84,81.18-65.9l2064.82,89.47c32.78,1.42,59.32,29.06,59.32,61.61v1173.38c0,32.56-26.54,60.62-59.32,62.58l-2064.82,123.09Z"/>
              <path class="cls-19" d="M255.39,2335.67c-44.65,2.66-81.18-26.3-81.18-64.58V891.45c0-38.28,36.53-67.84,81.18-65.9l2064.82,89.47c32.78,1.42,59.32,29.06,59.32,61.61v1173.38c0,32.56-26.54,60.62-59.32,62.58l-2064.82,123.09Z"/>
              <path class="cls-16" d="M2320.21,942.62L255.39,857.68c-23.87-.98-43.28,14.79-43.28,35.23v1376.1c0,20.44,19.41,35.9,43.28,34.52l2064.82-118.57c17.57-1.01,31.78-15.98,31.78-33.45V975.56c0-17.47-14.21-32.21-31.78-32.93Z"/>
              <path class="cls-30" d="M255.39,2186.33c-9.29.46-16.86-5.64-16.86-13.59V893.93c0-7.95,7.57-14.12,16.86-13.75l2064.82,81.78c6.85.27,12.42,6.04,12.42,12.86v1096.47c0,6.82-5.57,12.64-12.42,12.98l-2064.82,102.07Z"/>
            </g>
            <path class="cls-1" d="M2104.65,2127.18c-173.71-107.45-52.38-412.98-247.46-566.48-196.68-154.76-473.43,35.05-611.2-125.22-102.58-119.34,17.45-263.44-80.5-375.67-153.61-176-546.83,66.06-727.48-107.33-25.65-24.62-51.53-61.97-66.27-121.89l-116.34-5.04c-44.65-1.93-81.18,27.63-81.18,65.9v1379.64c0,38.28,36.53,67.24,81.18,64.58l2064.82-123.09c32.78-1.95,59.32-30.02,59.32-62.58v-20.86c-137.1,46.52-220.92,31.42-274.88-1.96Z"/>
          </g>
        </g>
        <g>
          <path class="cls-24" d="M2067.58,733.93l-1493.74-51.74c-50.2-1.74-91.07,38.51-91.07,89.9v1114.38c0,51.4,40.87,91.95,91.07,90.6l1493.74-40.4c43.11-1.17,77.92-40.48,77.92-87.83V822.35c0-47.34-34.81-86.93-77.92-88.42Z"/>
          <path class="cls-2" d="M511.93,1862.96V795.83c0-47.56,37.77-84.86,84.19-83.32l1452.2,48.26c40.03,1.33,72.37,38.01,72.37,81.94v985.58c0,43.93-32.33,80.36-72.37,81.39l-1452.2,37.23c-46.41,1.19-84.19-36.4-84.19-83.96Z"/>
          <path class="cls-39" d="M2067.58,733.93l-1493.74-51.74c-50.2-1.74-91.07,38.51-91.07,89.9v66.76l1662.73,44.99v-61.49c0-47.34-34.81-86.93-77.92-88.42Z"/>
          <path class="cls-3" d="M644.68,768.04c0,16.69-13.21,29.84-29.52,29.36-16.34-.48-29.6-14.43-29.6-31.17s13.26-29.88,29.6-29.36c16.31.52,29.52,14.48,29.52,31.17Z"/>
          <path class="cls-3" d="M747.7,771.2c0,16.61-13.08,29.69-29.23,29.22-16.18-.47-29.31-14.36-29.31-31.01s13.13-29.74,29.31-29.22c16.15.52,29.23,14.4,29.23,31.01Z"/>
          <path class="cls-3" d="M849.71,774.32c0,16.53-12.95,29.55-28.94,29.08-16.02-.47-29.02-14.28-29.02-30.86s13-29.59,29.02-29.08c15.99.51,28.94,14.33,28.94,30.86Z"/>
          <polygon class="cls-35" points="2054.55 1551.32 588.92 1561.98 588.92 1121.47 2054.55 1141.58 2054.55 1551.32"/>
          <polygon class="cls-3" points="2054.55 1654.78 588.92 1673.22 588.92 1625.91 2054.55 1610.78 2054.55 1654.78"/>
          <polygon class="cls-3" points="2054.55 1762.71 588.92 1789.26 588.92 1741.95 2054.55 1718.71 2054.55 1762.71"/>
          <g>
            <polygon class="cls-3" points="1378.66 1025.26 588.92 1010.24 588.92 1057.54 1378.66 1070.78 1378.66 1025.26"/>
            <polygon class="cls-3" points="1971.24 1036.54 1971.24 1080.72 2054.55 1082.12 2054.55 1038.12 1971.24 1036.54"/>
          </g>
          <g class="cls-5">
            <path class="cls-3" d="M1487.71,1303.24c-174.43-258.65-476.54-176.55-667.8-462.58-34.5-51.6-57.92-104.1-73.98-152.51l-172.09-5.96c-50.2-1.74-91.07,38.51-91.07,89.9v1114.39c0,51.39,40.87,91.95,91.07,90.6l1137.2-30.76c-33.93-49.67-65.25-105.21-91.77-167.29-101.7-238.14-26.38-319.8-131.57-475.79Z"/>
          </g>
          <g class="cls-4">
            <polygon class="cls-3" points="794.27 1231.69 615.12 1230.03 615.12 1177.71 794.27 1179.81 794.27 1231.69"/>
            <polygon class="cls-3" points="1748.27 1240.56 908.54 1232.76 908.54 1181.14 1748.27 1190.97 1748.27 1240.56"/>
            <polygon class="cls-3" points="1082.91 1321.83 908.54 1320.92 908.54 1269.31 1082.91 1270.63 1082.91 1321.83"/>
            <polygon class="cls-3" points="2012.12 1326.65 1194.16 1322.4 1194.16 1271.48 2012.12 1277.69 2012.12 1326.65"/>
            <polygon class="cls-3" points="1082.91 1409.27 908.54 1409.08 908.54 1357.47 1082.91 1358.08 1082.91 1409.27"/>
            <polygon class="cls-3" points="2012.12 1410.28 1194.16 1409.39 1194.16 1358.47 2012.12 1361.32 2012.12 1410.28"/>
            <polygon class="cls-3" points="794.27 1497.59 615.12 1498.13 615.12 1445.82 794.27 1445.7 794.27 1497.59"/>
            <polygon class="cls-3" points="1748.27 1494.71 908.54 1497.25 908.54 1445.63 1748.27 1445.12 1748.27 1494.71"/>
          </g>
        </g>
        <g>
          <g>
            <path class="cls-29" d="M1824.03,385l-.37,317.98-.07,51.06c-.03,29.94-20.4,22.65-48.07,22.11l-101.86,1.22-13.29.17-91.87,1.1-15.12.19-574.67,6.88-3.76.05c-30.31-.7-55.12-26.97-55.12-58.39l-.07-387.45c0-30.85,23.9-55.47,53.43-54.82l1.73.04,21.9,1.21,777,41.86c27.67,1.23,50.25,26.81,50.21,56.78Z"/>
            <polygon class="cls-36" points="1674.23 757.93 1660.37 777.54 1641.38 804.35 1568.4 907.42 1553.69 900.42 1553.45 801.98 1553.38 778.84 1553.32 749.92 1568.53 750.92 1674.23 757.93"/>
            <path class="cls-11" d="M1840.32,383.91l-.41,318.7-.07,52.21c-.03,30.08-22.75,54.17-50.52,53.52l-137.72-3.72-10.23-.27-72.88-1.95-15.05-.42-565.79-15.28c-3.05-.07-6.03-.38-8.95-.99-26.17-5.01-46.34-29.27-46.34-57.65l-.07-389.25c0-26.44,17.42-48.02,40.88-53.63,4.61-1.12,9.46-1.59,14.44-1.37l9.22.51,793.04,42.57c27.78,1.23,50.45,26.89,50.42,57Z"/>
            <polygon class="cls-37" points="1689.9 757.29 1673.64 777.37 1651.59 804.62 1568.37 907.43 1568.46 802.42 1568.46 778.66 1568.46 750.94 1568.46 749.31 1689.9 757.29"/>
          </g>
          <g>
            <path class="cls-3" d="M1316.89,628.8l-144.57-81.08v-24.61l144.57-75.22v40.31l-98.83,47.89,98.83,52.56v40.14Z"/>
            <path class="cls-3" d="M1459.22,428.04l-74.71,237.13-38.72-1.3,75.7-238.67,37.73,2.84Z"/>
            <path class="cls-3" d="M1486.21,596.49l90.25-40.95-90.25-56.61v-39.16l130.1,88.21v22.8l-130.1,64.7v-38.99Z"/>
          </g>
          <path class="cls-13" d="M1839.91,702.61l-.07,52.21c-.03,30.08-22.75,54.17-50.52,53.52l-137.72-3.72-83.2,102.8-14.71-6.99-.24-98.44-565.79-15.28c-3.05-.07-6.03-.38-8.95-.99l-3.76.05c-30.31-.7-55.12-26.97-55.12-58.39l-.07-387.41c0-30.85,23.9-55.13,53.43-54.77,4.61-1.12,9.46-1.59,14.44-1.37l9.22.51c-.03.68-.03,1.36-.03,2.07-.24,75.97,28.21,183.97,188.47,196.68,250.35,19.84,314.9,75.55,408.99,186,61.46,72.13,155.84,38.02,229.37,33.9,5.54-.31,10.98-.46,16.25-.37Z"/>
        </g>
        <g>
          <path class="cls-7" d="M2328.12,1618.51c107.24,3.29,197.3,68.77,214.85,151.64.02.11.04.22.07.33.95,4.54,1.68,9.12,2.19,13.76.03.31.07.61.1.92.22,2.16.39,4.34.52,6.52.02.4.04.79.06,1.19.11,2.23.18,4.47.18,6.72,0,96.31-98.3,169.3-217.96,163.11-3.18-.17-6.35-.39-9.49-.67-.31-.03-.62-.05-.93-.08-2.98-.27-5.94-.59-8.88-.95-.46-.06-.92-.11-1.37-.17-2.85-.36-5.68-.78-8.49-1.23-.53-.08-1.06-.17-1.59-.26-2.76-.46-5.51-.96-8.23-1.5-.55-.11-1.1-.23-1.65-.34-2.71-.56-5.41-1.15-8.08-1.78-.52-.12-1.03-.25-1.55-.38-2.65-.65-5.29-1.33-7.91-2.05-.47-.13-.93-.27-1.4-.4-2.35-.67-4.69-1.37-7-2.09-.59-.19-1.18-.36-1.77-.55-2.35-.76-4.68-1.56-6.99-2.37-.5-.18-1.01-.33-1.51-.51,0,0,.01-.01.02-.02-79.54-28.69-135.47-93.27-135.47-165.48,0-93.81,94.36-166.96,212.3-163.34Z"/>
          <path class="cls-31" d="M2093.12,1781.86c0,93.81,94.36,174.74,212.3,180.85,119.66,6.19,217.96-66.8,217.96-163.11s-98.3-177.41-217.96-181.08c-117.93-3.62-212.3,69.53-212.3,163.34Z"/>
          <g>
            <polygon class="cls-3" points="2400.78 1730.45 2400.78 1867.89 2282.95 1921.19 2282.34 1920.24 2186.31 1851.1 2187.15 1737.79 2284.04 1673.59 2283.88 1672.72 2400.78 1730.45"/>
            <polygon class="cls-50" points="2284.1 1673.54 2283.16 1920.35 2186.41 1851.1 2187.19 1737.79 2284.1 1673.54"/>
          </g>
          <g class="cls-17">
            <path class="cls-6" d="M2253.36,1916.31c25.82-49.47-.28-98.03,34.65-129.34,35.64-31.94,82.19,1.02,132.59-24.28,19.57-9.82,41.38-29.27,57.62-70.47,28.3,30.3,45.15,67.59,45.15,107.37,0,96.31-98.3,169.3-217.96,163.11-27.17-1.41-53.07-6.78-76.85-15.35,11.72-10.18,19.48-20.87,24.79-31.04Z"/>
          </g>
        </g>
        <g>
          <path class="cls-43" d="M2335.85,656.46c107.24,3.29,197.3,68.76,214.85,151.64.02.11.04.22.07.33.95,4.54,1.68,9.12,2.19,13.76.03.31.07.61.1.92.22,2.16.39,4.34.52,6.52.02.4.04.79.06,1.19.11,2.23.18,4.47.18,6.72,0,96.31-98.3,169.3-217.96,163.11-3.18-.17-6.35-.39-9.49-.67-.31-.03-.62-.05-.93-.08-2.98-.27-5.94-.59-8.88-.95-.46-.06-.92-.11-1.37-.17-2.85-.37-5.68-.78-8.49-1.23-.53-.08-1.06-.17-1.59-.26-2.76-.46-5.51-.96-8.23-1.5-.55-.11-1.1-.23-1.65-.34-2.71-.56-5.41-1.15-8.08-1.78-.52-.12-1.03-.25-1.55-.38-2.65-.65-5.29-1.33-7.91-2.05-.47-.13-.93-.27-1.4-.4-2.35-.67-4.69-1.37-7.01-2.09-.59-.19-1.18-.36-1.77-.55-2.35-.76-4.68-1.56-6.99-2.37-.5-.18-1.01-.33-1.51-.51,0,0,.01-.01.02-.02-79.54-28.69-135.47-93.27-135.47-165.48,0-93.81,94.36-166.96,212.3-163.34Z"/>
          <path class="cls-34" d="M2100.85,819.8c0,93.81,94.36,174.74,212.3,180.85,119.66,6.19,217.96-66.8,217.96-163.11s-98.3-177.41-217.96-181.08c-117.93-3.62-212.3,69.53-212.3,163.34Z"/>
          <g class="cls-17">
            <path class="cls-49" d="M2261.09,954.26c25.82-49.47-.28-98.03,34.65-129.34,35.64-31.94,82.19,1.02,132.59-24.28,19.57-9.82,41.38-29.27,57.62-70.47,28.3,30.3,45.15,67.59,45.15,107.37,0,96.31-98.3,169.3-217.96,163.11-27.17-1.41-53.07-6.78-76.85-15.35,11.72-10.18,19.48-20.87,24.79-31.04Z"/>
          </g>
          <g>
            <g>
              <path class="cls-50" d="M2297.66,944.84c-59.61-2.43-107.18-53.41-107.18-113.68s47.57-109.25,107.18-109.18c60.9.07,111.43,51.11,111.43,113.77s-50.53,111.57-111.43,109.09ZM2297.66,731.64c-54.5-.16-98.06,44.57-98.06,99.71s43.56,101.7,98.06,103.84c55.57,2.17,101.6-42.51,101.6-99.64s-46.03-103.75-101.6-103.91Z"/>
              <path class="cls-50" d="M2353.03,834.58c0,31.19-24.92,55.69-55.37,54.75-30.12-.93-54.3-26.47-54.3-57.06s24.18-55.11,54.3-54.77c30.45.34,55.37,25.89,55.37,57.08Z"/>
            </g>
            <path class="cls-50" d="M2373.62,739.2c0,13.28-10.68,23.96-23.81,23.85-13.06-.11-23.61-10.88-23.61-24.05s10.55-23.85,23.61-23.85,23.81,10.77,23.81,24.05Z"/>
          </g>
        </g>
        <g>
          <path class="cls-38" d="M2490.93,1107.11c119.53,3.67,219.91,76.65,239.48,169.03.03.12.05.24.07.36,1.06,5.06,1.87,10.17,2.44,15.33.04.34.08.68.11,1.02.25,2.41.44,4.84.58,7.27.02.44.04.88.06,1.33.12,2.49.2,4.98.2,7.49,0,107.35-109.57,188.71-242.94,181.8-3.55-.18-7.07-.44-10.58-.74-.34-.03-.69-.05-1.03-.08-3.32-.3-6.62-.66-9.9-1.06-.51-.06-1.02-.12-1.53-.19-3.18-.41-6.33-.87-9.47-1.37-.59-.09-1.18-.19-1.77-.29-3.08-.51-6.14-1.07-9.17-1.67-.62-.12-1.23-.25-1.84-.38-3.02-.62-6.03-1.28-9-1.99-.58-.14-1.15-.28-1.72-.43-2.96-.72-5.9-1.48-8.81-2.29-.52-.15-1.04-.3-1.56-.45-2.62-.74-5.22-1.52-7.81-2.34-.65-.21-1.32-.4-1.97-.61-2.62-.84-5.21-1.73-7.79-2.65-.56-.2-1.13-.37-1.68-.57,0,0,.01-.01.02-.02-88.66-31.98-150.99-103.96-150.99-184.45,0-104.56,105.18-186.1,236.63-182.06Z"/>
          <path class="cls-33" d="M2228.99,1289.17c0,104.56,105.18,194.77,236.63,201.57,133.38,6.9,242.94-74.45,242.94-181.8s-109.57-197.74-242.94-201.83c-131.45-4.03-236.63,77.5-236.63,182.06Z"/>
          <g class="cls-17">
            <path class="cls-41" d="M2407.6,1439.04c28.78-55.14-.31-109.27,38.62-144.16,39.73-35.6,91.61,1.13,147.78-27.06,21.81-10.95,46.12-32.62,64.23-78.55,31.54,33.77,50.33,75.33,50.33,119.68,0,107.35-109.57,188.71-242.94,181.8-30.28-1.57-59.16-7.56-85.66-17.11,13.06-11.34,21.71-23.26,27.63-34.6Z"/>
          </g>
          <g>
            <path class="cls-3" d="M2477.75,1300.56c.02,10.84-8.6,19.46-19.24,19.24-10.6-.22-19.19-9.13-19.2-19.91-.02-10.78,8.54-19.38,19.13-19.23,10.63.16,19.29,9.07,19.31,19.9Z"/>
            <path class="cls-3" d="M2410.16,1418.53c-10.72-.38-20.1-3.58-27.9-9.53-33.46-25.5-26.7-92.55,15.48-153.47,31.43-45.39,74.41-74.92,109.57-74.92,11.02,0,20.74,2.92,28.87,8.69,35.33,25.08,28.35,94.2-15.8,156.47-32.28,45.54-75.57,73.97-110.22,72.75ZM2507.34,1192.94c-30.89-.06-71.01,28.07-99.91,69.72-37.23,53.66-45.58,115.93-18.36,136.61,5.77,4.39,12.86,6.75,21.07,7.02,30.38,1.01,70.66-26.17,100.19-67.91,38.7-54.69,47.34-118.64,18.77-138.99-5.99-4.27-13.32-6.44-21.76-6.45Z"/>
            <path class="cls-3" d="M2507.93,1421.96h0c-35.29-1.24-78.5-32.45-110.1-79.12-42.28-62.44-49.08-129.54-15.73-153.73,7.77-5.63,17.11-8.5,27.79-8.5,34.53,0,77.81,29.78,110.26,76.27,44.52,63.79,51.98,133.36,16.71,157.35-8.12,5.52-17.85,8.12-28.92,7.73ZM2409.9,1192.77c-8.18-.01-15.25,2.09-20.99,6.25-27.13,19.63-18.72,82.02,18.61,137.02,29.05,42.81,69.4,72.49,100.38,73.52,8.47.28,15.81-1.64,21.79-5.73,28.53-19.46,19.46-83.9-19.54-139.92-29.68-42.64-69.96-71.08-100.25-71.14Z"/>
            <path class="cls-3" d="M2461.12,1370.75h0l-3.6,1.71c-34.9-1.48-67.38-9.21-91.6-23.33-25.23-14.71-38.87-33.4-38.58-53.54.57-39.63,56.42-70.06,128.49-69.58l3.59.16c49.6,1.04,95.38,16.92,119.03,41.48,10.86,11.28,16.53,22.2,16.39,35.03-.47,41.26-59.84,74.59-133.72,68.06ZM2455.85,1238.49c-64.48-.55-116.43,25.43-116.89,57.93-.22,15.45,11.3,30.73,32.54,43.07,22.6,13.13,53.16,21.15,86.17,22.5l3.43.12c65.94,1.75,120.84-24.24,121.23-57.94.11-9.55-4.19-18.93-12.78-27.87-21.38-22.26-63.78-36.69-110.27-37.75l-3.42-.05Z"/>
          </g>
        </g>
        <g>
          <path class="cls-25" d="M825.78,2677.9s-2.4,19.07-.79,25.46c1.61,6.39,57.05,11,75.87,8.78,18.82-2.22-11.21-21.44-23.2-25.05-11.99-3.61-51.88-9.19-51.88-9.19Z"/>
          <path class="cls-45" d="M853.68,2646.09l-5.84,38.26s-14.9,6.7-22.06.08l-.79-40.04,28.7,1.71Z"/>
          <path class="cls-26" d="M541.15,2644.38s11.76,8.73,8.63,19.18c-3.14,10.45-30.58,52.34-50.15,64.23-19.56,11.89-13.43-12.88-7.74-28.31,5.69-15.43,20.24-49.41,25.92-55.11,5.68-5.7,23.34,0,23.34,0Z"/>
          <path class="cls-10" d="M562.31,2602.35c-5.69,15.85-11.16,28.88-15.43,38.49-9.47,21.26-14.64,29.24-20.5,36.16-5.11,6.02-17.2,18.88-20.46,16.74-3.3-2.17,5.55-17.8,22.6-63.58,2.48-6.64,10.3-27.82,10.3-27.82h23.48Z"/>
          <path class="cls-18" d="M969.79,1940.03c4.06,39.84,7.95,101.68,2.13,176.73-7.59,97.78-27.14,159.65-51.66,263.91-14.99,63.72-35.18,157.49-53.45,274.77-4.24,2.43-16.71,8.81-32.77,6.42-8.99-1.33-15.72-4.91-19.69-7.48-47.94-146.49-33.78-237.27-10.65-293.83,9.86-24.11,21.82-43.13,28.21-80.19,8.46-49.03-2-76.44-16.91-190.01-10.63-80.95-8.79-93.46-1.72-105.6,28.27-48.54,114.73-47.59,156.5-44.71Z"/>
          <path class="cls-12" d="M804.77,1957.07c-29.37,151.67-58.19,231.33-80.01,276.38-5.38,11.11-23.33,46.96-40.29,98.35-15.02,45.49-21.28,78.96-24.49,93.69-10.12,46.49-35.15,114.37-102.48,203.41-.84.49-12.32,6.99-23.3,1.2-5.56-2.93-8.32-7.6-9.42-9.78,8.8-85.12,18.91-156.65,27.68-211.86,1.84-11.58,9.95-62.24,22.66-129.16,4.97-26.19,12.26-64.57,20.99-103.99,10.87-49.09,27.54-115.87,53.23-195.89,51.81-7.45,103.62-14.9,155.43-22.36Z"/>
          <path class="cls-8" d="M829.79,1357.16c16.65-15.4,48.52-33.14,64.5-74.4,4.81-12.42,21.86-56.42-3.29-90.08-14.92-19.98-42.64-33.55-67.07-28.74-20.88,4.11-24.14,18.64-59.62,47.91-13.81,11.39-36,29.7-60.71,39.88-42.32,17.44-67.75,1.03-110.24,2.9-52.2,2.3-112.84,31.43-142.05,73.8-51.85,75.19,23.26,151.46-33.54,239.54-18.61,28.86-27.78,22.39-71.86,78.25-44.14,55.94-66.21,83.9-62.28,118.17,5.45,47.56,56.68,93,104.93,96.09,47.13,3.02,77.09-34.06,101.08-17.84,17.08,11.54,7.31,33.99,25.45,60.97,23.38,34.78,69.33,41.71,76.75,42.83,68.88,10.39,161.76-70.38,201.21-166.08,71.13-172.57-53.82-339.48,36.73-423.18Z"/>
          <path class="cls-32" d="M1112.45,1405.06c.47-48.17-108.95-86.66-159.02-99.07-77.88-19.29-140.25-7.18-155.39-3.97-97.13,20.58-157.62,78.86-180.39,103.36,18.64,12.14,70.09,49.18,95.57,119.45,7.93,21.86,31.35,96.61-2.15,166.62-19.3,40.34-53.44,70.63-79.37,93.63-38.89,34.5-59.03,39.8-72.07,70.71-14.2,33.66.11,50.07-17.52,73.12-18.94,24.75-41.12,13.24-73.22,38.27-32.88,25.63-21.18,46.73-51.1,75.06-43.48,41.16-101.12,27.79-103.8,46.31-2.31,15.93,38.65,37.55,73.46,46.31,68.92,17.36,129.04-11.78,146.92-20.76,49.49-24.86,40.95-40.96,78.68-59.92,63.19-31.74,106.37,3.58,250.29,7.22,77.94,1.97,117.34,2.41,138.93-23.95,19.72-24.09,9.35-50.5-2.48-164.36-5.63-54.19-7.66-108.7-11.81-163.02-11.74-153.66-12.1-167.18-1.68-188.43,37.33-76.1,125.74-73.35,126.16-116.58Z"/>
          <g class="cls-17">
            <path class="cls-20" d="M417.79,2042.23c29.92-28.33,18.22-49.42,51.1-75.06,32.1-25.03,54.29-13.52,73.22-38.27,17.63-23.04,3.33-39.46,17.52-73.12,13.04-30.91,33.18-36.21,72.07-70.71,25.93-23.01,60.07-53.29,79.37-93.63,33.49-70.01,10.07-144.75,2.15-166.62-25.48-70.27-76.93-107.31-95.57-119.45,1.79-1.93,3.91-4.14,6.18-6.46,122.83,16.88,194.45,87.86,203.31,108.87,20.47,48.58-11.94,66.43-12.78,206.54-.4,66.97,6.82,93.41-14.9,121.37-24.85,31.97-53.49,22.08-89.43,63.88-27.61,32.11-23.19,52.47-48.97,66-27.72,14.55-45.38-2.41-76.65,4.26-52.24,11.14-63.41,71.37-97.94,104.33-26.12,24.92-74.4,42.34-169.63,23.64-2.2-3.21-3.27-6.34-2.84-9.27,2.68-18.52,60.32-5.15,103.8-46.31Z"/>
          </g>
          <path class="cls-46" d="M789.87,1545.59c13.06,27.73-46.94,92.31-113.63,122.98-13.59,6.25-111.16,51.11-154.65,7.97-35.93-35.65-12.74-109.36-4.46-135.68,40.65-129.23,165.51-194.96,217.84-218.67,39.05,97.64,16.05,141.15,7,154.74-9.46,14.19-35.85,44-63.88,70.26-19.72,18.47-31.99,27.46-30.34,30.34,2.05,3.59,25.16-3.19,114.93-46.88,10.41,1.68,22.74,5.47,27.2,14.94Z"/>
          <path class="cls-42" d="M1165.46,1386.29l-44.04,219.34c-1.41,7.03-6.86,12.55-13.87,14.05l-328.41,70.48c-11.77,2.53-22.65-6.99-21.72-18.99l17.33-223.08c.6-7.74,6.09-14.22,13.63-16.08,52.09-12.86,252.61-61.01,358.36-67.27,11.81-.7,21.05,9.93,18.72,21.53Z"/>
          <path class="cls-28" d="M837.9,1226.1s-6.19,49.52-24.47,60.87c-18.28,11.34-47.83,26.16-51.08,30.19-3.26,4.02,113.23,16.54,170.96-12.59h0c-19.02-3.97-24.2-5.43-24.2-5.43-5.16-1.46-14.79-4.17-24.45-9.68-6.57-3.74-17.16-11.05-26.88-24.86l.21-27.42-20.09-11.09Z"/>
          <path class="cls-22" d="M835.12,1243.63s11.92,16.36,30.61,9.54c16.73-6.1,6.75-49.33-6.53-54.26-4.43-1.64-12.56-.92-17.99,2.47-3.82,2.39-14.03,15.07-8.18,29.27-4.23-1.23-7.95-.11-8.88,1.98-1.18,2.66,2.4,6.27,3.21,7.09,2.81,2.84,6.2,3.63,7.76,3.89Z"/>
          <path class="cls-14" d="M869.71,1575.93c35.27-9.94,64.52,14.75,92.62-4.79,28.78-20.02,10-54.21,39.92-87.83,32-35.95,72.59-18.34,102.2-51.1,10.99-12.16,20.88-31.98,21.04-65.77,7.42-.72,14.53-1.29,21.24-1.68,11.81-.7,21.05,9.94,18.72,21.53l-44.04,219.34c-1.41,7.03-6.86,12.55-13.87,14.05l-315.61,67.73c22.28-78.18,52.02-104.22,77.78-111.48Z"/>
          <path class="cls-40" d="M1142.37,1502.97s20.95-19.36,23.23-41.86c2.28-22.49-13.53-40.49-28.85-45.08-15.31-4.59-23.49,2.18-13.21,24.33,10.28,22.15,26.59,36.53,18.83,62.61Z"/>
        </g>
      </g>
    </g>
  </g>
</svg>