<svg width="94" height="97" viewBox="0 0 94 97" fill="none" xmlns="http://www.w3.org/2000/svg">
<path d="M31.6691 43.145L36.2714 40.5267C37.9139 39.5347 37.9139 37.0791 36.2714 36.0871C35.2794 35.4366 38.7271 37.5669 31.6691 33.4688C30.0266 32.4768 27.8962 33.6314 27.8962 35.5992V40.852C27.8962 42.8197 30.0266 44.137 31.6691 43.145ZM30.0266 35.5992C30.0266 35.2739 30.5145 34.9487 30.8397 35.1113L35.442 37.7458C35.7673 37.9085 35.7673 38.3963 35.442 38.559L30.8397 41.1935C30.5145 41.3561 30.0266 41.1935 30.0266 40.7056V35.6154V35.5992Z" fill="#A3D5D2"/>
<path d="M17.7159 49.5525H47.7527C50.2083 49.5525 52.1761 47.5848 52.1761 45.1129V31.4849C52.1761 29.0293 50.2083 27.0452 47.7527 27.0452H17.7159C15.2602 27.0452 13.2925 29.013 13.2925 31.4849V45.1129C13.2925 47.5685 15.2602 49.5525 17.7159 49.5525ZM15.2602 31.5012C15.2602 30.1839 16.4149 29.0455 17.7159 29.0455H47.7527C49.07 29.0455 50.2083 30.2002 50.2083 31.5012V45.1291C50.2083 46.4464 49.0537 47.5848 47.7527 47.5848H17.7159C16.3986 47.5848 15.2602 46.4301 15.2602 45.1291V31.5012Z" fill="#A3D5D2"/>
<path d="M47.1023 73.1818C48.2732 73.1818 49.2327 74.1413 49.2327 75.3122C49.2327 76.4831 48.2732 77.4426 47.1023 77.4426C45.9314 77.4426 44.9719 76.4831 44.9719 75.3122C44.9719 74.1413 45.9314 73.1818 47.1023 73.1818Z" fill="#A3D5D2"/>
<path d="M89.6124 90.7454C90.4256 90.7454 91.0923 91.4122 91.0923 92.2253C91.0923 93.0384 90.4256 93.7052 89.6124 93.7052C88.7993 93.7052 88.1326 93.0384 88.1326 92.2253C88.1326 91.4122 88.7993 90.7454 89.6124 90.7454Z" fill="#A3D5D2"/>
<path d="M71.2358 2.43994C72.0489 2.43994 72.7156 3.1067 72.7156 3.91983C72.7156 4.73295 72.0489 5.39972 71.2358 5.39972C70.4226 5.39972 69.7559 4.73295 69.7559 3.91983C69.7559 3.1067 70.4226 2.43994 71.2358 2.43994Z" fill="#A3D5D2"/>
<path d="M31.1811 2.43994C31.9942 2.43994 32.661 3.1067 32.661 3.91983C32.661 4.73295 31.9942 5.39972 31.1811 5.39972C30.3679 5.39972 29.7012 4.73295 29.7012 3.91983C29.7012 3.1067 30.3679 2.43994 31.1811 2.43994Z" fill="#A3D5D2"/>
<path d="M18.8708 9.66071C19.6839 9.66071 20.3506 10.3275 20.3506 11.1406C20.3506 11.9537 19.6839 12.6205 18.8708 12.6205C18.0576 12.6205 17.3909 11.9537 17.3909 11.1406C17.3909 10.3275 18.0576 9.66071 18.8708 9.66071Z" fill="#A3D5D2"/>
<path d="M73.2035 84.517C74.0167 84.517 74.6834 85.1838 74.6834 85.9969C74.6834 86.81 74.0167 87.4768 73.2035 87.4768C72.3904 87.4768 71.7236 86.81 71.7236 85.9969C71.7236 85.1838 72.3904 84.517 73.2035 84.517Z" fill="#A3D5D2"/>
<path d="M22.9689 84.517C23.782 84.517 24.4488 85.1838 24.4488 85.9969C24.4488 86.81 23.782 87.4768 22.9689 87.4768C22.1558 87.4768 21.489 86.81 21.489 85.9969C21.489 85.1838 22.1558 84.517 22.9689 84.517Z" fill="#A3D5D2"/>
<path d="M11.1617 84.517C8.36455 84.517 6.07153 86.81 6.07153 89.6072C6.07153 92.4043 8.36455 94.6974 11.1617 94.6974C13.9588 94.6974 16.2519 92.4043 16.2519 89.6072C16.4145 86.81 13.9588 84.517 11.1617 84.517ZM11.1617 92.7133C9.51918 92.7133 8.0393 91.3961 8.0393 89.5909C8.0393 87.7858 9.35656 86.4685 11.1617 86.4685C12.9668 86.4685 14.2841 87.7858 14.2841 89.5909C14.2841 91.3961 12.9668 92.7133 11.1617 92.7133Z" fill="#A3D5D2"/>
<path d="M86.994 14.7509H7.22649C3.77884 14.7509 0.981689 17.548 0.981689 20.9956V76.1418C0.981689 79.5894 3.77884 82.3866 7.22649 82.3866H39.8978V88.6314H29.5549C27.2619 88.6314 25.4567 90.4365 25.4567 92.7295C25.4567 95.0225 27.2619 96.8277 29.5549 96.8277H64.5193C66.8123 96.8277 68.6174 95.0225 68.6174 92.7295C68.6174 90.4365 66.8123 88.6314 64.5193 88.6314H54.1763V82.3866H86.8477C90.2953 82.3866 93.0762 79.5894 93.0762 76.1418V20.9956C93.2388 17.548 90.4579 14.7509 87.0103 14.7509H86.994ZM66.6334 92.7133C66.6334 93.8679 65.6414 94.8436 64.503 94.8436H29.7013C28.5466 94.8436 27.5709 93.8516 27.5709 92.7133C27.5709 91.5749 28.5629 90.5829 29.7013 90.5829H64.6656C65.6576 90.5829 66.6334 91.5749 66.6334 92.7133ZM52.1923 88.6151H41.8493V82.3703H52.1923V88.6151ZM91.2548 76.1418C91.2548 78.4348 89.287 80.4025 86.994 80.4025H7.22649C4.93348 80.4025 2.96571 78.4348 2.96571 76.1418V20.9956C2.96571 18.7026 4.93348 16.7349 7.22649 16.7349H86.994C89.287 16.7349 91.2548 18.7026 91.2548 20.9956V76.1418Z" fill="#A3D5D2"/>
<path d="M86.1649 20.8166H8.20246C7.71459 20.8166 7.21045 21.3045 7.21045 21.8086V69.0837C7.21045 69.5716 7.69833 70.0757 8.20246 70.0757H86.1649C86.6528 70.0757 87.1569 69.5878 87.1569 69.0837V21.9712C87.1569 21.3207 86.669 20.8166 86.1649 20.8166ZM85.0265 68.0917H9.19447V22.947H85.1891V68.0917H85.0265Z" fill="#A3D5D2"/>
<path d="M85.5143 11.6284C88.6367 11.6284 91.0924 9.17273 91.0924 6.05033C91.0924 2.92793 88.6367 0.47229 85.5143 0.47229C82.3919 0.47229 79.9363 2.92793 79.9363 6.05033C79.9363 9.17273 82.3919 11.6284 85.5143 11.6284ZM85.5143 2.44005C87.4821 2.44005 89.1246 4.08256 89.1246 6.05033C89.1246 8.01809 87.4821 9.6606 85.5143 9.6606C83.5466 9.6606 81.904 8.01809 81.904 6.05033C81.904 4.08256 83.5466 2.44005 85.5143 2.44005Z" fill="#A3D5D2"/>
<path d="M57.4451 37.2418H80.0988C80.5867 37.2418 81.0908 36.7539 81.0908 36.2498V28.0372C81.0908 27.5494 80.6029 27.0452 80.0988 27.0452H57.4451C56.9573 27.0452 56.4531 27.5331 56.4531 28.0372V36.2498C56.2905 36.7377 56.7784 37.2418 57.4451 37.2418ZM78.9441 35.2741H64.503V29.0293H78.9441V35.2741ZM58.4371 29.0293H62.5353V35.2741H58.4371V29.0293Z" fill="#A3D5D2"/>
<path d="M57.4451 50.6908H80.0988C80.5867 50.6908 81.0908 50.2029 81.0908 49.6988V41.4862C81.0908 40.9983 80.6029 40.4942 80.0988 40.4942H57.4451C56.9573 40.4942 56.4531 40.9821 56.4531 41.4862V49.6988C56.2905 50.1866 56.7784 50.6908 57.4451 50.6908ZM78.9441 48.5604H64.503V42.3156H78.9441V48.5604ZM58.4371 42.4945H62.5353V48.7393H58.4371V42.4945Z" fill="#A3D5D2"/>
<path d="M57.4451 63.9936H80.0988C80.5867 63.9936 81.0908 63.5058 81.0908 63.0016V54.7891C81.0908 54.3012 80.6029 53.7971 80.0988 53.7971H57.4451C56.9573 53.7971 56.4531 54.2849 56.4531 54.7891V63.0016C56.2905 63.4895 56.7784 63.9936 57.4451 63.9936ZM78.9441 61.8633H64.503V55.6185H78.9441V61.8633ZM58.4371 55.7811H62.5353V62.0259H58.4371V55.7811Z" fill="#A3D5D2"/>
</svg>
