<svg width="102" height="103" viewBox="0 0 102 103" fill="none" xmlns="http://www.w3.org/2000/svg">
<path d="M93.4873 77.7658V29.3572C93.4873 23.8793 89.077 19.469 83.5991 19.469H18.4068C12.9289 19.469 8.51854 23.8793 8.51854 29.3572V77.7658C2.86562 93.8495 3.04063 93.1319 3.04063 93.307V93.657V94.007C6.05086 99.1349 11.3362 102.303 17.3567 102.303H84.4742C90.3021 102.303 95.78 99.1174 98.7902 94.007V93.657V93.307C98.9652 93.1319 99.1402 94.007 93.4873 77.7658ZM10.6362 72.4629H91.1947V76.8732H10.6362V72.4629ZM61.3374 62.3997L50.7317 69.9952L40.1259 62.3997C34.998 58.6894 32.1803 52.3364 32.7053 45.966L33.5804 36.0777C42.2435 35.5527 48.5965 29.8998 50.7142 27.6071C52.8318 29.8998 59.1848 35.5527 67.8479 36.0777C68.0229 38.5454 68.373 42.6057 68.723 45.966C69.248 52.3189 66.4303 58.6894 61.3024 62.3997H61.3374ZM18.4068 21.5867H83.5991C87.8344 21.5867 91.3697 25.1219 91.3697 29.3572V70.1703H54.2669L62.7376 64.1673C68.5655 59.932 71.7507 52.8615 71.0332 45.7909L69.9656 35.0101C69.9656 34.4851 69.4406 33.9426 68.898 33.9426C58.6598 33.7676 51.5892 25.2794 51.5892 25.2794C51.2392 24.7544 50.3466 24.7544 49.8216 25.2794C49.8216 25.2794 42.7511 33.75 32.5128 33.9426C31.9878 33.9426 31.4452 34.4676 31.4452 35.0101L30.3777 45.7909C29.6776 52.8615 32.8453 59.9145 38.6733 64.1673L47.1439 70.1703H10.5837V29.3572C10.5837 25.1219 14.119 21.5867 18.3543 21.5867H18.4068ZM10.2862 79.0084H91.5447L96.305 92.2569H5.50832L10.2687 79.0084H10.2862ZM59.2198 100.027H43.6786V94.5495H59.2198V100.027ZM6.05086 94.5495H41.561V100.027H17.3567C12.9464 100.027 8.69355 97.9098 6.05086 94.5495ZM84.4742 100.027H61.3374V94.5495H95.78C93.1373 97.9098 88.8845 100.027 84.4742 100.027Z" fill="#A3D5D2"/>
<path d="M20.5243 82.3685H18.2316C17.7066 82.3685 17.1641 82.8936 17.1641 83.4361C17.1641 83.9787 17.6891 84.5037 18.2316 84.5037H20.5243C21.0493 84.5037 21.5919 83.9787 21.5919 83.4361C21.5919 82.8936 21.2419 82.3685 20.5243 82.3685Z" fill="#A3D5D2"/>
<path d="M29.3624 82.3685H27.0698C26.5447 82.3685 26.0022 82.8936 26.0022 83.4361C26.0022 83.9787 26.5272 84.5037 27.0698 84.5037H29.3624C29.8875 84.5037 30.43 83.9787 30.43 83.4361C30.43 82.8936 30.08 82.3685 29.3624 82.3685Z" fill="#A3D5D2"/>
<path d="M36.0653 84.661H38.358C38.883 84.661 39.4256 84.1359 39.4256 83.5934C39.4256 83.0509 38.9005 82.5258 38.358 82.5258H36.0653C35.5403 82.5258 34.9977 83.0509 34.9977 83.5934C34.8227 84.1184 35.3478 84.661 36.0653 84.661Z" fill="#A3D5D2"/>
<path d="M44.9035 84.661H47.1961C47.7212 84.661 48.2637 84.1359 48.2637 83.5934C48.2637 83.0509 47.7387 82.5258 47.1961 82.5258H44.9035C44.3784 82.5258 43.8359 83.0509 43.8359 83.5934C43.6609 84.1184 44.1859 84.661 44.9035 84.661Z" fill="#A3D5D2"/>
<path d="M53.7418 84.661H56.0345C56.5595 84.661 57.1021 84.1359 57.1021 83.5934C57.1021 83.0509 56.577 82.5258 56.0345 82.5258H53.7418C53.2168 82.5258 52.6743 83.0509 52.6743 83.5934C52.4992 84.1184 53.0243 84.661 53.7418 84.661Z" fill="#A3D5D2"/>
<path d="M62.5624 84.661H64.8551C65.3801 84.661 65.9227 84.1359 65.9227 83.5934C65.9227 83.0509 65.3976 82.5258 64.8551 82.5258H62.5624C62.0374 82.5258 61.4948 83.0509 61.4948 83.5934C61.3198 84.1184 61.8448 84.661 62.5624 84.661Z" fill="#A3D5D2"/>
<path d="M71.4005 84.661H73.6932C74.2182 84.661 74.7608 84.1359 74.7608 83.5934C74.7608 83.0509 74.2357 82.5258 73.6932 82.5258H71.4005C70.8755 82.5258 70.333 83.0509 70.333 83.5934C70.1579 84.1184 70.683 84.661 71.4005 84.661Z" fill="#A3D5D2"/>
<path d="M80.2384 84.661H82.5311C83.0561 84.661 83.5987 84.1359 83.5987 83.5934C83.5987 83.0509 83.0736 82.5258 82.5311 82.5258H80.2384C79.7134 82.5258 79.1708 83.0509 79.1708 83.5934C78.9958 84.1184 79.5209 84.661 80.2384 84.661Z" fill="#A3D5D2"/>
<path d="M20.5243 86.7788H18.2316C17.7066 86.7788 17.1641 87.3038 17.1641 87.8464C17.1641 88.3889 17.6891 88.914 18.2316 88.914H20.5243C21.0493 88.914 21.5919 88.3889 21.5919 87.8464C21.5919 87.3038 21.2419 86.7788 20.5243 86.7788Z" fill="#A3D5D2"/>
<path d="M29.3624 86.7788H27.0698C26.5447 86.7788 26.0022 87.3038 26.0022 87.8464C26.0022 88.3889 26.5272 88.914 27.0698 88.914H29.3624C29.8875 88.914 30.43 88.3889 30.43 87.8464C30.43 87.3038 30.08 86.7788 29.3624 86.7788Z" fill="#A3D5D2"/>
<path d="M56.9094 87.8293C56.9094 87.3043 56.3844 86.7617 55.8418 86.7617H36.0654C35.5403 86.7617 34.9978 87.2868 34.9978 87.8293C34.9978 88.3718 35.5228 88.8969 36.0654 88.8969H56.0344C56.5594 89.0719 56.9094 88.5469 56.9094 87.8293Z" fill="#A3D5D2"/>
<path d="M62.5624 89.0712H64.8551C65.3801 89.0712 65.9227 88.5462 65.9227 88.0036C65.9227 87.4611 65.3976 86.936 64.8551 86.936H62.5624C62.0374 86.936 61.4948 87.4611 61.4948 88.0036C61.3198 88.5287 61.8448 89.0712 62.5624 89.0712Z" fill="#A3D5D2"/>
<path d="M71.4005 89.0712H73.6932C74.2182 89.0712 74.7608 88.5462 74.7608 88.0036C74.7608 87.4611 74.2357 86.936 73.6932 86.936H71.4005C70.8755 86.936 70.333 87.4611 70.333 88.0036C70.1579 88.5287 70.683 89.0712 71.4005 89.0712Z" fill="#A3D5D2"/>
<path d="M80.2384 89.0712H82.5311C83.0561 89.0712 83.5987 88.5462 83.5987 88.0036C83.5987 87.4611 83.0736 86.936 82.5311 86.936H80.2384C79.7134 86.936 79.1708 87.4611 79.1708 88.0036C78.9958 88.5287 79.5209 89.0712 80.2384 89.0712Z" fill="#A3D5D2"/>
<path d="M93.4874 11.6985C96.4976 11.6985 98.9653 9.23081 98.9653 6.22058C98.9653 3.21036 96.4976 0.742676 93.4874 0.742676C90.4772 0.742676 88.0095 3.21036 88.0095 6.22058C88.0095 9.23081 90.3022 11.6985 93.4874 11.6985ZM93.4874 2.86033C95.2551 2.86033 96.8477 4.27794 96.8477 6.22058C96.8477 8.16323 95.4301 9.58083 93.4874 9.58083C91.5448 9.58083 90.1272 8.16323 90.1272 6.22058C90.1272 4.27794 91.5448 2.86033 93.4874 2.86033Z" fill="#A3D5D2"/>
<path d="M10.6361 16.1261C14.8714 16.1261 18.4066 12.5909 18.4066 8.35554C18.4066 4.12022 14.8714 0.584961 10.6361 0.584961C6.40074 0.584961 2.86548 4.12022 2.86548 8.35554C2.86548 12.5909 6.40074 16.1261 10.6361 16.1261ZM10.6361 2.86013C13.6463 2.86013 16.114 5.32781 16.114 8.33804C16.114 11.3483 13.6463 13.8159 10.6361 13.8159C7.62583 13.8159 5.15815 11.3483 5.15815 8.33804C5.15815 5.32781 7.62583 2.86013 10.6361 2.86013Z" fill="#A3D5D2"/>
<path d="M79.5211 8.513C80.3961 8.513 81.1137 9.23055 81.1137 10.1056C81.1137 10.9807 80.3961 11.6982 79.5211 11.6982C78.646 11.6982 77.9285 10.9807 77.9285 10.1056C77.9285 9.23055 78.646 8.513 79.5211 8.513Z" fill="#A3D5D2"/>
<path d="M54.2669 4.10272C55.142 4.10272 55.8596 4.82028 55.8596 5.69534C55.8596 6.5704 55.142 7.28796 54.2669 7.28796C53.3919 7.28796 52.6743 6.5704 52.6743 5.69534C52.6743 4.82028 53.3919 4.10272 54.2669 4.10272Z" fill="#A3D5D2"/>
<path d="M33.2479 10.6483C34.123 10.6483 34.8405 11.3658 34.8405 12.2409C34.8405 13.1159 34.123 13.8335 33.2479 13.8335C32.3728 13.8335 31.6553 13.1159 31.6553 12.2409C31.6553 11.3658 32.3728 10.6483 33.2479 10.6483Z" fill="#A3D5D2"/>
<path d="M99.4901 52.5115C100.37 52.5115 101.083 51.7984 101.083 50.9189C101.083 50.0393 100.37 49.3262 99.4901 49.3262C98.6105 49.3262 97.8975 50.0393 97.8975 50.9189C97.8975 51.7984 98.6105 52.5115 99.4901 52.5115Z" fill="#A3D5D2"/>
<path d="M2.34042 35.0276C3.21549 35.0276 3.93304 35.7451 3.93304 36.6202C3.93304 37.4953 3.21549 38.2128 2.34042 38.2128C1.46536 38.2128 0.747803 37.4953 0.747803 36.6202C0.747803 35.7451 1.46536 35.0276 2.34042 35.0276Z" fill="#A3D5D2"/>
<path d="M59.0445 39.963C58.6945 39.613 57.9769 39.613 57.4519 39.963L47.3887 50.0263L44.2034 47.016C44.0284 46.841 43.6784 46.666 43.5034 46.666C43.1533 46.666 42.9783 46.841 42.8033 47.016L38.918 50.9013C38.568 51.2514 38.568 51.9689 38.918 52.4939L46.6886 60.2645C47.0386 60.6145 47.7562 60.6145 48.2812 60.2645L63.1223 45.4234C63.4724 45.0734 63.4724 44.3558 63.1223 43.8308L59.062 39.9455L59.0445 39.963ZM47.3712 57.8143L41.1932 51.6364L43.4859 49.3437L46.6711 52.529C46.8461 52.704 47.1961 52.879 47.3712 52.879C47.5462 52.879 47.8962 52.704 48.0712 52.529L58.1345 42.4657L60.4271 44.7584L47.3537 57.8318L47.3712 57.8143Z" fill="#A3D5D2"/>
</svg>
