<svg width="100" height="98" viewBox="0 0 100 98" fill="none" xmlns="http://www.w3.org/2000/svg">
<path d="M87.6778 38.1348C87.6778 17.385 70.8285 0.359985 49.903 0.359985C28.9775 0.359985 12.1282 17.2093 12.1282 38.1348C12.1282 54.2638 22.2307 68.1087 36.6027 73.4323V96.8351C36.6027 97.3622 37.1298 97.9069 37.6745 97.9069H62.1491C62.6761 97.9069 63.2208 97.3798 63.2208 96.8351V73.4323C77.3995 67.933 87.6954 54.2813 87.6954 38.1348H87.6778ZM61.0773 73.5904V82.4631H38.9044V73.5904H61.0773ZM38.9044 84.589H61.0773V89.0166H38.9044V84.589ZM61.0773 95.7634H38.9044V91.3358H61.0773V95.7634ZM62.3247 71.2888H50.9747V44.5126C52.3979 45.9357 54.3481 46.8142 56.474 46.8142C60.7259 46.8142 64.275 43.2651 64.275 39.0133C64.275 34.7614 60.7259 31.2123 56.474 31.2123C53.6453 31.2123 51.1504 32.8112 49.7273 34.9371C48.3041 32.6355 45.8268 31.2123 42.9805 31.2123C38.7287 31.2123 35.1796 34.7614 35.1796 39.0133C35.1796 43.2651 38.7287 46.8142 42.9805 46.8142C45.1065 46.8142 47.0567 45.9357 48.4798 44.5126V71.2888H37.1298C23.3025 66.1409 14.0784 52.8406 14.0784 37.9415C14.0784 18.4392 30.0317 2.46835 49.5516 2.46835C69.0715 2.46835 85.0248 18.4216 85.0248 37.9415C85.3762 52.8406 76.1521 66.1409 62.3247 71.2888ZM50.9747 39.189C50.9747 36.167 53.4521 33.6897 56.474 33.6897C59.496 33.6897 61.9734 36.167 61.9734 39.189C61.9734 42.211 59.6717 44.6883 56.6497 44.6883C53.6278 44.6883 50.9747 42.211 50.9747 39.189ZM48.8488 39.189C48.8488 42.211 46.3715 44.6883 43.3495 44.6883C40.3275 44.6883 37.8502 42.211 37.8502 39.189C37.8502 36.167 40.3275 33.6897 43.3495 33.6897C46.3715 33.6897 48.8488 36.167 48.8488 39.189Z" fill="#A3D5D2"/>
<path d="M49.9027 11.5167C35.355 11.5167 23.6536 23.2181 23.6536 37.7658C23.6536 38.2929 24.1807 38.8376 24.7253 38.8376C25.27 38.8376 25.7971 38.3105 25.7971 37.7658C25.7971 24.4656 36.62 13.6427 49.9202 13.6427C63.2205 13.6427 74.0434 24.4656 74.0434 37.7658C74.0434 38.2929 74.5705 38.8376 75.1152 38.8376C75.6598 38.8376 76.1869 38.3105 76.1869 37.7658C76.1869 23.2181 64.4855 11.5167 49.9378 11.5167H49.9027Z" fill="#A3D5D2"/>
<path d="M92.1225 59.0604C87.8706 59.0604 84.3215 62.6094 84.3215 66.8613C84.3215 71.1132 87.8706 74.6622 92.1225 74.6622C96.3743 74.6622 99.9234 71.1132 99.9234 66.8613C99.9234 62.6094 96.3743 59.0604 92.1225 59.0604ZM92.1225 72.3606C89.1005 72.3606 86.6232 69.8833 86.6232 66.8613C86.6232 63.8393 89.1005 61.362 92.1225 61.362C95.1444 61.362 97.6218 63.8393 97.6218 66.8613C97.6218 69.8833 95.1444 72.3606 92.1225 72.3606Z" fill="#A3D5D2"/>
<path d="M8.94764 75.7162C3.97542 75.7162 0.0749512 79.6167 0.0749512 84.5889C0.0749512 89.5612 3.97542 93.4616 8.94764 93.4616C13.9199 93.4616 17.8203 89.5612 17.8203 84.5889C17.8203 79.6167 13.7442 75.7162 8.94764 75.7162ZM8.94764 91.3357C5.22287 91.3357 2.20088 88.3137 2.20088 84.5889C2.20088 80.8642 5.22287 77.8422 8.94764 77.8422C12.6724 77.8422 15.6944 80.8642 15.6944 84.5889C15.6944 88.3137 12.4967 91.3357 8.94764 91.3357Z" fill="#A3D5D2"/>
<path d="M14.9741 2.66187C15.8526 2.66187 16.5729 3.38222 16.5729 4.26071C16.5729 5.13919 15.8526 5.85955 14.9741 5.85955C14.0956 5.85955 13.3752 5.13919 13.3752 4.26071C13.3752 3.38222 14.0956 2.66187 14.9741 2.66187Z" fill="#A3D5D2"/>
<path d="M83.7771 1.58978C84.6555 1.58978 85.3759 2.31014 85.3759 3.18862C85.3759 4.06711 84.6555 4.78746 83.7771 4.78746C82.8986 4.78746 82.1782 4.06711 82.1782 3.18862C82.1782 2.31014 82.8986 1.58978 83.7771 1.58978Z" fill="#A3D5D2"/>
<path d="M95.8298 37.063C96.7083 37.063 97.4286 37.7834 97.4286 38.6619C97.4286 39.5404 96.7083 40.2607 95.8298 40.2607C94.9513 40.2607 94.231 39.5404 94.231 38.6619C94.231 37.7834 94.9513 37.063 95.8298 37.063Z" fill="#A3D5D2"/>
<path d="M79.3493 84.5891C80.2278 84.5891 80.9482 85.3094 80.9482 86.1879C80.9482 87.0664 80.2278 87.7867 79.3493 87.7867C78.4709 87.7867 77.7505 87.0664 77.7505 86.1879C77.7505 85.3094 78.4709 84.5891 79.3493 84.5891Z" fill="#A3D5D2"/>
<path d="M24.9008 82.4632C25.7793 82.4632 26.4997 83.1835 26.4997 84.062C26.4997 84.9405 25.7793 85.6609 24.9008 85.6609C24.0224 85.6609 23.302 84.9405 23.302 84.062C23.302 83.1835 24.0224 82.4632 24.9008 82.4632Z" fill="#A3D5D2"/>
<path d="M3.97555 49.1158C4.85403 49.1158 5.57439 49.8362 5.57439 50.7147C5.57439 51.5932 4.85403 52.3135 3.97555 52.3135C3.09707 52.3135 2.37671 51.5932 2.37671 50.7147C2.37671 49.8362 3.09707 49.1158 3.97555 49.1158Z" fill="#A3D5D2"/>
</svg>
