<svg width="98" height="100" viewBox="0 0 98 100" fill="none" xmlns="http://www.w3.org/2000/svg">
<path d="M81.5296 48.6498C81.3421 48.6498 66.8514 44.5069 66.8514 44.5069V27.5604C66.8514 26.998 66.4764 26.6231 66.1015 26.4356L50.486 21.9178H49.9236C47.6553 22.4802 34.4955 26.2481 34.308 26.2481C33.7457 26.4356 33.5582 26.8105 33.5582 27.3729V44.3194L18.88 48.4623C18.3176 48.6498 18.1301 49.0247 18.1301 49.5871V67.6584C18.1301 68.2208 18.505 68.5957 19.0674 68.7832L34.683 73.301H35.2454L50.486 68.9706L65.3517 73.301H65.9141L81.5296 68.7832C82.092 68.5957 82.4669 68.2208 82.4669 67.6584V49.7746C82.4669 49.2122 82.092 48.8373 81.5296 48.6498ZM65.7078 52.9802L54.4227 49.7746L65.7078 46.569L77.0118 49.7746L65.7078 52.9802ZM34.6455 52.9802L23.3416 49.7746L34.6455 46.569L45.9307 49.7746L34.6455 52.9802ZM51.2171 32.8468L64.3956 29.0788V44.5069H64.0207L51.2171 48.2749V32.8468ZM48.9675 48.2749L35.789 44.5069V29.0788L48.9675 32.8468V48.2749ZM50.0923 24.1861L61.3775 27.3917L50.0923 30.5973L38.7884 27.3917L50.0923 24.1861ZM20.1547 51.293L33.3332 55.061V70.4891L20.1547 66.7211V51.293ZM35.789 55.061L48.9675 51.293V66.7211L35.789 70.4891V55.061ZM51.2171 51.293L64.3956 55.061V70.4891L51.2171 66.7211V51.293ZM80.0299 66.7211L66.8514 70.4891V55.061L80.0299 51.293V66.7211Z" fill="#A3D5D2"/>
<path d="M49.3426 6.30237C25.2538 6.30237 5.85156 25.8733 5.85156 49.7934C5.85156 73.7135 25.4225 93.2845 49.3426 93.2845C73.2627 93.2845 92.8337 73.7135 92.8337 49.7934C92.8337 25.8733 73.4502 6.30237 49.3426 6.30237ZM49.3426 91.0162C26.5661 91.0162 8.11985 72.57 8.11985 49.7934C8.11985 27.0169 26.5661 8.57065 49.3426 8.57065C72.1192 8.57065 90.5654 27.0169 90.5654 49.7934C90.5654 72.57 72.1192 91.0162 49.3426 91.0162Z" fill="#A3D5D2"/>
<path d="M91.6899 14.5883C94.8955 14.5883 97.52 11.9451 97.52 8.75822C97.52 5.57137 94.8768 2.92816 91.6899 2.92816C88.5031 2.92816 85.8599 5.57137 85.8599 8.75822C85.8599 11.9451 88.5031 14.5883 91.6899 14.5883ZM91.6899 5.1777C93.5645 5.1777 95.2704 6.67739 95.2704 8.75822C95.2704 10.839 93.5833 12.1513 91.6899 12.1513C89.7966 12.1513 88.1094 10.6516 88.1094 8.57075C88.1094 6.48993 89.7966 5.1777 91.6899 5.1777Z" fill="#A3D5D2"/>
<path d="M8.11952 85.1859C4.16409 85.1859 0.958496 88.3915 0.958496 92.347C0.958496 96.3024 4.16409 99.508 8.11952 99.508C12.075 99.508 15.2806 96.3024 15.2806 92.347C15.2806 88.3915 12.075 85.1859 8.11952 85.1859ZM8.11952 96.846C5.47632 96.846 3.41424 94.784 3.41424 92.1407C3.41424 89.4975 5.47632 87.4355 8.11952 87.4355C10.7627 87.4355 12.8248 89.4975 12.8248 92.1407C12.8248 94.784 10.744 96.846 8.11952 96.846Z" fill="#A3D5D2"/>
<path d="M19.4049 0.47229C20.3422 0.47229 21.0921 1.22214 21.0921 2.15944C21.0921 3.09675 20.3422 3.8466 19.4049 3.8466C18.4676 3.8466 17.7178 3.09675 17.7178 2.15944C17.7178 1.22214 18.4676 0.47229 19.4049 0.47229Z" fill="#A3D5D2"/>
<path d="M95.8332 21.5429C96.7705 21.5429 97.5203 22.2928 97.5203 23.2301C97.5203 24.1674 96.7705 24.9172 95.8332 24.9172C94.8958 24.9172 94.146 24.1674 94.146 23.2301C94.146 22.2928 94.9146 21.5429 95.8332 21.5429Z" fill="#A3D5D2"/>
<path d="M2.83339 16.8376C3.7707 16.8376 4.52055 17.5875 4.52055 18.5248C4.52055 19.4621 3.7707 20.212 2.83339 20.212C1.89609 20.212 1.14624 19.4621 1.14624 18.5248C1.14624 17.5875 1.89609 16.8376 2.83339 16.8376Z" fill="#A3D5D2"/>
<path d="M95.8332 75.7566C96.7705 75.7566 97.5203 76.5064 97.5203 77.4437C97.5203 78.381 96.7705 79.1309 95.8332 79.1309C94.8958 79.1309 94.146 78.381 94.146 77.4437C94.146 76.5064 94.9146 75.7566 95.8332 75.7566Z" fill="#A3D5D2"/>
<path d="M74.5561 93.4532C75.4934 93.4532 76.2432 94.2031 76.2432 95.1404C76.2432 96.0777 75.4746 96.8276 74.5561 96.8276C73.6375 96.8276 72.8689 96.0777 72.8689 95.1404C72.8689 94.2031 73.6187 93.4532 74.5561 93.4532Z" fill="#A3D5D2"/>
<path d="M25.235 89.8912C26.1723 89.8912 26.9222 90.6411 26.9222 91.5784C26.9222 92.5157 26.1536 93.2655 25.235 93.2655C24.3164 93.2655 23.5479 92.5157 23.5479 91.5784C23.5479 90.6411 24.2977 89.8912 25.235 89.8912Z" fill="#A3D5D2"/>
</svg>
