<svg width="98" height="99" viewBox="0 0 98 99" fill="none" xmlns="http://www.w3.org/2000/svg">
<path d="M77.6889 50.8552C77.6889 36.7527 66.2068 25.2707 52.1043 25.2707C38.0018 25.2707 26.5198 36.7527 26.5198 50.8552C26.5198 64.9578 38.0018 76.4398 52.1043 76.4398C66.2068 76.6122 77.6889 64.9578 77.6889 50.8552ZM69.6894 66.337C68.1205 64.7681 66.3793 63.5441 64.4656 62.5097C65.3276 59.3719 65.862 55.717 65.862 52.0621H75.4304C75.258 57.4583 73.1719 62.3372 69.6894 66.337ZM28.6231 52.0621H38.1914C38.1914 55.717 38.7086 59.1995 39.5879 62.5097C37.6742 63.5613 35.933 64.7681 34.3641 66.337C30.8816 62.3372 28.7955 57.4583 28.6231 52.0621ZM34.3641 35.5459C35.933 37.1147 37.6742 38.3388 39.5879 39.3732C38.7259 42.5109 38.1914 46.1659 38.1914 49.8208H28.6231C28.7955 44.4246 30.8816 39.3732 34.3641 35.5459ZM50.8975 40.4076C47.7598 40.2352 44.8117 39.5456 42.0188 38.3216C42.536 36.7527 43.0704 35.3562 43.76 34.1494C45.6737 30.3221 48.1046 28.0636 50.7251 27.7188V40.4249H50.8975V40.4076ZM50.8975 42.6661V49.8036H40.2775C40.2775 46.4934 40.7947 43.373 41.5016 40.4076C44.4669 41.6317 47.5874 42.4937 50.8975 42.6661ZM50.8975 52.0621V59.1995C47.5874 59.3719 44.4669 60.0615 41.5016 61.458C40.8119 58.4927 40.2775 55.3722 40.2775 52.0621H50.8975ZM50.8975 61.2856V74.1641C48.2942 73.6469 45.8461 71.3884 43.9324 67.7334C43.2428 66.5094 42.7084 64.9405 42.1912 63.5613C44.7944 62.1648 47.9322 61.4752 50.8975 61.3028V61.2856ZM53.156 61.2856C56.2937 61.458 59.2418 62.1476 62.0347 63.3717C61.5175 64.9405 60.983 66.337 60.2934 67.5438C58.3798 71.3711 55.9489 73.6296 53.3284 73.9744L53.156 61.2684V61.2856ZM53.156 59.1995V52.0621H63.776C63.776 55.3722 63.2588 58.4927 62.5519 61.458C59.5866 60.0615 56.4661 59.3719 53.156 59.1995ZM53.156 49.8036V42.6661C56.4661 42.4937 59.5866 41.8041 62.5519 40.4076C63.2415 43.373 63.776 46.4934 63.776 49.8036H53.156ZM53.156 40.4076V27.5292C55.7593 28.0464 58.2074 30.3048 60.121 33.9598C60.8106 35.1838 61.3451 36.7355 61.8623 38.1319C59.259 39.5284 56.2937 40.218 53.156 40.3904V40.4076ZM58.897 28.4084C62.5519 29.4601 65.6896 31.3737 68.2929 33.977C66.8965 35.2011 65.5 36.4079 63.9484 37.2872C62.8967 34.1494 61.1727 30.8393 58.897 28.4084ZM40.2775 37.2872C38.7086 36.4251 37.3122 35.2011 35.933 33.977C38.5362 31.5461 41.8464 29.6325 45.3289 28.4084C42.898 30.8393 41.3292 34.1494 40.2775 37.2872ZM40.2775 64.5957C41.3292 67.7334 42.8808 71.0263 45.3289 73.4745C41.674 72.4228 38.5362 70.5091 35.933 67.9058C37.157 66.5094 38.7086 65.475 40.2775 64.5957ZM63.9484 64.5957C65.5172 65.4577 66.9137 66.6818 68.2929 67.9058C65.6896 70.3367 62.3795 72.2504 58.897 73.3021C61.1555 71.0436 62.8967 67.7334 63.9484 64.5957ZM66.0344 49.8036C66.0344 46.1486 65.5172 42.6661 64.638 39.356C66.5517 38.3043 68.2929 37.0975 69.8618 35.5286C73.1719 39.356 75.258 44.4074 75.6028 49.8036H66.0344Z" fill="#A3D5D2"/>
<path d="M94.9292 58.3379C91.1018 57.9931 88.1365 54.6829 88.1365 50.8556C88.1365 47.0283 91.1018 43.7181 94.9292 43.3733C95.6188 43.3733 95.9808 42.6837 95.9808 42.1493C94.7568 36.4083 92.6707 31.0121 89.3606 26.1331C89.0158 25.6159 88.3089 25.4435 87.7917 25.9607C84.8264 28.3915 80.4818 28.2191 77.7061 25.4435C74.9305 22.6678 74.7408 18.4784 77.1889 15.3579C77.5338 14.8407 77.5337 14.1338 77.0165 13.789C72.1375 10.4789 66.7414 8.22044 61.0003 7.18602C60.3107 7.01362 59.7763 7.53083 59.7763 8.23768C59.4315 12.065 56.1214 15.0303 52.294 15.0303C48.4667 15.0303 45.1565 12.065 44.8117 8.23768C44.8117 7.54807 44.1221 7.18602 43.5877 7.18602C37.8467 8.41008 32.4505 10.4962 27.5715 13.789C27.0543 14.1338 26.8819 14.8407 27.3991 15.3579C29.83 18.3232 29.6576 22.6678 26.8819 25.4435C24.0889 28.2364 19.7444 28.4088 16.7963 25.9607C16.2791 25.6159 15.5723 25.6159 15.2275 26.1331C11.9173 31.0121 9.65886 36.4083 8.62444 42.1493C8.45204 42.8389 8.96924 43.3733 9.67609 43.3733C13.5034 43.7181 16.4688 47.0283 16.4688 50.8556C16.4688 54.6829 13.5034 57.9931 9.67609 58.3379C8.98648 58.3379 8.62444 59.0275 8.62444 59.5619C9.8485 65.3029 11.9346 70.6991 15.2275 75.5781C15.5723 76.0953 16.2791 76.2677 16.7963 75.7505C19.7616 73.3197 24.1062 73.4921 26.8819 76.2677C29.6748 79.0434 29.8472 83.2328 27.3991 86.3533C27.0543 86.8705 27.0543 87.5773 27.5715 87.9222C32.4505 91.2323 37.8467 93.4908 43.5877 94.5424H43.7601C44.2773 94.5424 44.8117 94.1976 44.8117 93.4908C45.1565 89.6634 48.4667 86.6981 52.294 86.6981C56.1214 86.6981 59.4315 89.6634 59.7763 93.4908C59.7763 94.1804 60.4659 94.5424 61.0003 94.5424C66.7414 93.3184 72.1375 91.2323 77.0165 87.9222C77.5337 87.5773 77.7062 86.8705 77.1889 86.3533C74.7581 83.388 74.9305 79.0434 77.7061 76.2677C80.4991 73.4748 84.6712 73.3024 87.7917 75.7505C88.3089 76.0953 89.0158 76.0953 89.3606 75.5781C92.6707 70.6991 94.9292 65.3029 95.9808 59.5619C95.9808 59.2171 95.9808 58.8723 95.8084 58.6999C95.4636 58.5275 95.1188 58.3551 94.9464 58.3551L94.9292 58.3379ZM87.9641 73.4748C84.1368 71.0439 79.2578 71.5611 75.9649 74.8713C72.6548 78.1814 72.1375 83.0432 74.5684 86.8705C70.5687 89.4738 66.0345 91.215 61.3452 92.2667C60.2935 87.9221 56.4662 84.7844 51.9492 84.7844C47.4323 84.7844 43.4153 87.9221 42.5533 92.2667C37.8639 91.215 33.5021 89.3014 29.33 86.8705C31.7609 83.0432 31.2437 78.1642 27.9335 74.8713C24.6234 71.5611 19.7616 71.0439 15.9343 73.4748C13.331 69.4751 11.5898 64.9409 10.5381 60.2515C14.8827 59.1999 18.0204 55.3725 18.0204 50.8556C18.0204 46.3387 14.8827 42.3217 10.5381 41.4597C11.5898 36.7531 13.5034 32.4085 15.9343 28.2364C19.7616 30.6673 24.6406 30.15 27.9335 26.8399C31.2437 23.5298 31.7609 18.668 29.33 14.8407C33.3297 12.2374 37.8639 10.4962 42.5533 9.4445C43.6049 13.789 47.4323 16.9268 51.9492 16.9268C56.4662 16.9268 60.4831 13.789 61.3452 9.4445C66.0345 10.4962 70.3963 12.4098 74.5684 14.8407C72.1375 18.668 72.6548 23.547 75.9649 26.8399C79.275 30.15 84.1368 30.6673 87.9641 28.2364C90.5674 32.2361 92.3087 36.7703 93.3603 41.4597C89.0158 42.5113 85.878 46.3387 85.878 50.8556C85.878 55.3725 89.0158 59.3895 93.3603 60.2515C92.3087 64.9409 90.5674 69.4751 87.9641 73.4748Z" fill="#A3D5D2"/>
<path d="M91.2742 18.3059C94.9291 18.3059 97.8944 15.3406 97.8944 11.6857C97.8944 8.03075 94.9291 5.06543 91.2742 5.06543C87.6192 5.06543 84.6711 8.03075 84.6711 11.6857C84.6711 15.3406 87.6365 18.3059 91.2742 18.3059ZM91.2742 7.34114C93.705 7.34114 95.6187 9.25481 95.6187 11.6857C95.6187 14.1166 93.705 16.0302 91.2742 16.0302C88.8433 16.0302 86.9296 14.1166 86.9296 11.6857C86.9296 9.25481 88.8433 7.34114 91.2742 7.34114Z" fill="#A3D5D2"/>
<path d="M9.65897 80.2676C4.77998 80.2676 0.952637 84.095 0.952637 88.974C0.952637 93.853 4.77998 97.6803 9.65897 97.6803C14.538 97.6803 18.3653 93.853 18.3653 88.974C18.3653 84.095 14.3656 80.2676 9.65897 80.2676ZM9.65897 95.577C6.00403 95.577 3.03871 92.6117 3.03871 88.9567C3.03871 85.3018 6.00403 82.3365 9.65897 82.3365C13.3139 82.3365 16.262 85.3018 16.262 88.9567C16.262 92.6117 13.2967 95.577 9.65897 95.577Z" fill="#A3D5D2"/>
<path d="M93.8777 78.1644C94.7397 78.1644 95.4466 78.8712 95.4466 79.7332C95.4466 80.5952 94.7397 81.3021 93.8777 81.3021C93.0157 81.3021 92.3088 80.5952 92.3088 79.7332C92.3088 78.8712 93.0157 78.1644 93.8777 78.1644Z" fill="#A3D5D2"/>
<path d="M76.4822 5.08286C77.3486 5.08286 78.0511 4.38045 78.0511 3.51399C78.0511 2.64753 77.3486 1.94513 76.4822 1.94513C75.6157 1.94513 74.9133 2.64753 74.9133 3.51399C74.9133 4.38045 75.6157 5.08286 76.4822 5.08286Z" fill="#A3D5D2"/>
<path d="M24.2786 0.910583C25.1406 0.910583 25.8474 1.61743 25.8474 2.47945C25.8474 3.34146 25.1406 4.04831 24.2786 4.04831C23.4166 4.04831 22.7097 3.34146 22.7097 2.47945C22.7097 1.61743 23.4166 0.910583 24.2786 0.910583Z" fill="#A3D5D2"/>
<path d="M6.86598 21.4438C7.73244 21.4438 8.43485 20.7413 8.43485 19.8749C8.43485 19.0084 7.73244 18.306 6.86598 18.306C5.99952 18.306 5.29712 19.0084 5.29712 19.8749C5.29712 20.7413 5.99952 21.4438 6.86598 21.4438Z" fill="#A3D5D2"/>
<path d="M24.2786 95.5768C25.1406 95.5768 25.8474 96.2836 25.8474 97.1456C25.8474 98.0077 25.1406 98.7145 24.2786 98.7145C23.4166 98.7145 22.7097 98.0077 22.7097 97.1456C22.7097 96.2836 23.4166 95.5768 24.2786 95.5768Z" fill="#A3D5D2"/>
<path d="M84.1365 93.3187C84.9985 93.3187 85.7054 94.0255 85.7054 94.8875C85.7054 95.7495 84.9985 96.4564 84.1365 96.4564C83.2745 96.4564 82.5676 95.7495 82.5676 94.8875C82.5676 94.0255 83.2745 93.3187 84.1365 93.3187Z" fill="#A3D5D2"/>
</svg>
