<svg width="94" height="95" viewBox="0 0 94 95" fill="none" xmlns="http://www.w3.org/2000/svg">
<path d="M86.458 72.009V27.1405C86.458 22.0632 82.3702 17.9754 77.2929 17.9754H16.868C11.7907 17.9754 7.70286 22.0632 7.70286 27.1405V72.009C2.46334 86.9166 2.62555 86.2515 2.62555 86.4137V86.7381V87.0626C5.41564 91.8154 10.3145 94.7515 15.8947 94.7515H78.1202C83.5219 94.7515 88.5992 91.7992 91.3893 87.0626V86.9003V86.5759C91.5515 86.2515 91.7138 87.0626 86.4742 72.009H86.458ZM9.66566 67.094H84.333V71.1818H9.66566V67.094ZM16.868 19.9382H77.2767C81.2022 19.9382 84.479 23.2149 84.479 27.1405V64.9689H9.66566V27.1405C9.66566 23.2149 12.9424 19.9382 16.868 19.9382ZM9.34123 73.1608H84.6574L89.0859 85.4404H4.91278L9.34123 73.1608ZM54.6964 92.6427H40.2918V87.5654H54.6964V92.6427ZM5.41564 87.5654H38.329V92.6427H15.8947C11.8069 92.6427 7.86508 90.6799 5.41564 87.5654ZM78.104 92.6427H56.6592V87.5654H88.583C86.1336 90.6799 82.1918 92.6427 78.104 92.6427Z" fill="#A3D5D2"/>
<path d="M18.8308 76.275H16.7058C16.2192 76.275 15.7163 76.7617 15.7163 77.2645C15.7163 77.7674 16.203 78.254 16.7058 78.254H18.8308C19.3175 78.254 19.8203 77.7674 19.8203 77.2645C19.8203 76.7617 19.4959 76.275 18.8308 76.275Z" fill="#A3D5D2"/>
<path d="M27.0227 76.275H24.8977C24.4111 76.275 23.9082 76.7617 23.9082 77.2645C23.9082 77.7674 24.3948 78.254 24.8977 78.254H27.0227C27.5094 78.254 28.0122 77.7674 28.0122 77.2645C28.0122 76.7617 27.6878 76.275 27.0227 76.275Z" fill="#A3D5D2"/>
<path d="M33.2355 78.4004H35.3605C35.8472 78.4004 36.35 77.9138 36.35 77.4109C36.35 76.908 35.8634 76.4214 35.3605 76.4214H33.2355C32.7489 76.4214 32.246 76.908 32.246 77.4109C32.0838 77.8975 32.5704 78.4004 33.2355 78.4004Z" fill="#A3D5D2"/>
<path d="M41.4272 78.4004H43.5522C44.0388 78.4004 44.5417 77.9138 44.5417 77.4109C44.5417 76.908 44.055 76.4214 43.5522 76.4214H41.4272C40.9405 76.4214 40.4377 76.908 40.4377 77.4109C40.2754 77.8975 40.7621 78.4004 41.4272 78.4004Z" fill="#A3D5D2"/>
<path d="M49.6191 78.4004H51.7441C52.2307 78.4004 52.7336 77.9138 52.7336 77.4109C52.7336 76.908 52.2469 76.4214 51.7441 76.4214H49.6191C49.1324 76.4214 48.6295 76.908 48.6295 77.4109C48.4673 77.8975 48.954 78.4004 49.6191 78.4004Z" fill="#A3D5D2"/>
<path d="M57.7946 78.4004H59.9196C60.4062 78.4004 60.9091 77.9138 60.9091 77.4109C60.9091 76.908 60.4225 76.4214 59.9196 76.4214H57.7946C57.308 76.4214 56.8051 76.908 56.8051 77.4109C56.6429 77.8975 57.1295 78.4004 57.7946 78.4004Z" fill="#A3D5D2"/>
<path d="M65.9862 78.4004H68.1113C68.5979 78.4004 69.1008 77.9138 69.1008 77.4109C69.1008 76.908 68.6141 76.4214 68.1113 76.4214H65.9862C65.4996 76.4214 64.9967 76.908 64.9967 77.4109C64.8345 77.8975 65.3212 78.4004 65.9862 78.4004Z" fill="#A3D5D2"/>
<path d="M74.1784 78.4004H76.3034C76.79 78.4004 77.2929 77.9138 77.2929 77.4109C77.2929 76.908 76.8063 76.4214 76.3034 76.4214H74.1784C73.6917 76.4214 73.1889 76.908 73.1889 77.4109C73.0267 77.8975 73.5133 78.4004 74.1784 78.4004Z" fill="#A3D5D2"/>
<path d="M18.8308 80.363H16.7058C16.2192 80.363 15.7163 80.8497 15.7163 81.3525C15.7163 81.8554 16.203 82.3421 16.7058 82.3421H18.8308C19.3175 82.3421 19.8203 81.8554 19.8203 81.3525C19.8203 80.8497 19.4959 80.363 18.8308 80.363Z" fill="#A3D5D2"/>
<path d="M27.0227 80.363H24.8977C24.4111 80.363 23.9082 80.8497 23.9082 81.3525C23.9082 81.8554 24.3948 82.3421 24.8977 82.3421H27.0227C27.5094 82.3421 28.0122 81.8554 28.0122 81.3525C28.0122 80.8497 27.6878 80.363 27.0227 80.363Z" fill="#A3D5D2"/>
<path d="M52.5551 81.3525C52.5551 80.8659 52.0685 80.363 51.5656 80.363H33.2354C32.7487 80.363 32.2458 80.8497 32.2458 81.3525C32.2458 81.8554 32.7325 82.3421 33.2354 82.3421H51.744C52.2307 82.5043 52.5551 82.0176 52.5551 81.3525Z" fill="#A3D5D2"/>
<path d="M57.7946 82.4881H59.9196C60.4062 82.4881 60.9091 82.0015 60.9091 81.4986C60.9091 80.9957 60.4225 80.5091 59.9196 80.5091H57.7946C57.308 80.5091 56.8051 80.9957 56.8051 81.4986C56.6429 81.9852 57.1295 82.4881 57.7946 82.4881Z" fill="#A3D5D2"/>
<path d="M65.9862 82.4881H68.1113C68.5979 82.4881 69.1008 82.0015 69.1008 81.4986C69.1008 80.9957 68.6141 80.5091 68.1113 80.5091H65.9862C65.4996 80.5091 64.9967 80.9957 64.9967 81.4986C64.8345 81.9852 65.3212 82.4881 65.9862 82.4881Z" fill="#A3D5D2"/>
<path d="M74.1784 82.4881H76.3034C76.79 82.4881 77.2929 82.0015 77.2929 81.4986C77.2929 80.9957 76.8063 80.5091 76.3034 80.5091H74.1784C73.6917 80.5091 73.1889 80.9957 73.1889 81.4986C73.0267 81.9852 73.5133 82.4881 74.1784 82.4881Z" fill="#A3D5D2"/>
<path d="M86.4579 10.773C89.248 10.773 91.5352 8.48575 91.5352 5.69566C91.5352 2.90557 89.248 0.618347 86.4579 0.618347C83.6678 0.618347 81.3806 2.90557 81.3806 5.69566C81.3806 8.48575 83.5056 10.773 86.4579 10.773ZM86.4579 2.59736C88.0963 2.59736 89.5724 3.9113 89.5724 5.71188C89.5724 7.51246 88.2585 8.8264 86.4579 8.8264C84.6573 8.8264 83.3434 7.51246 83.3434 5.71188C83.3434 3.9113 84.6573 2.59736 86.4579 2.59736Z" fill="#A3D5D2"/>
<path d="M9.66546 14.8769C13.5911 14.8769 16.8678 11.6002 16.8678 7.67461C16.8678 3.74902 13.5911 0.47229 9.66546 0.47229C5.73987 0.47229 2.46313 3.74902 2.46313 7.67461C2.46313 11.6002 5.73987 14.8769 9.66546 14.8769ZM9.66546 2.5973C12.4555 2.5973 14.7428 4.88453 14.7428 7.67461C14.7428 10.4647 12.4555 12.7519 9.66546 12.7519C6.87537 12.7519 4.58814 10.4647 4.58814 7.67461C4.58814 4.88453 6.87537 2.5973 9.66546 2.5973Z" fill="#A3D5D2"/>
<path d="M73.5133 7.83679C74.3243 7.83679 74.9894 8.50187 74.9894 9.31294C74.9894 10.124 74.3243 10.7891 73.5133 10.7891C72.7022 10.7891 72.0371 10.124 72.0371 9.31294C72.0371 8.50187 72.7022 7.83679 73.5133 7.83679Z" fill="#A3D5D2"/>
<path d="M50.1058 6.68515C50.921 6.68515 51.5819 6.02426 51.5819 5.209C51.5819 4.39374 50.921 3.73285 50.1058 3.73285C49.2905 3.73285 48.6296 4.39374 48.6296 5.209C48.6296 6.02426 49.2905 6.68515 50.1058 6.68515Z" fill="#A3D5D2"/>
<path d="M30.6239 9.79968C31.4349 9.79968 32.1 10.4648 32.1 11.2758C32.1 12.0869 31.4349 12.752 30.6239 12.752C29.8128 12.752 29.1477 12.0869 29.1477 11.2758C29.1477 10.4648 29.8128 9.79968 30.6239 9.79968Z" fill="#A3D5D2"/>
<path d="M92.0218 45.6492C92.8329 45.6492 93.498 46.3143 93.498 47.1254C93.498 47.9365 92.8329 48.6015 92.0218 48.6015C91.2107 48.6015 90.5457 47.9365 90.5457 47.1254C90.5457 46.3143 91.2107 45.6492 92.0218 45.6492Z" fill="#A3D5D2"/>
<path d="M1.97664 32.3961C2.78771 32.3961 3.45279 33.0612 3.45279 33.8723C3.45279 34.6833 2.78771 35.3484 1.97664 35.3484C1.16557 35.3484 0.500488 34.6833 0.500488 33.8723C0.500488 33.0612 1.16557 32.3961 1.97664 32.3961Z" fill="#A3D5D2"/>
<path d="M28.8231 58.9182H67.4626C70.0742 58.9182 72.0532 56.7932 72.0532 54.3275C72.0532 51.8619 69.9282 49.7369 67.4626 49.7369H65.0131L65.4998 45.1462C66.6515 43.9945 67.4626 42.3561 67.3003 40.5555C67.3003 37.441 63.2125 31.5526 61.4119 28.7625C61.0875 28.4381 60.7631 28.2759 60.2602 28.2759C59.7736 28.4381 59.6114 28.7625 59.6114 29.2654C59.6114 31.2282 58.1352 33.5154 56.6591 35.6567C55.3451 37.6194 54.2096 39.2578 54.2096 40.734C54.2096 42.5345 55.0207 44.1729 56.1724 45.3246L56.8213 49.7531H52.2306V29.2816C52.2306 28.795 51.744 28.2921 51.2411 28.2921H44.0388C43.5521 28.2921 43.0493 28.7788 43.0493 29.2816V49.7531H40.5998V39.1118L36.1876 28.795C36.0254 28.4705 35.701 28.1461 35.1981 28.1461C34.6952 28.1461 34.387 28.4705 34.2086 28.795C29.6179 39.5985 29.9586 39.1118 29.7963 39.274V49.5909H28.6446C26.033 49.5909 24.054 51.7159 24.054 54.1815C24.054 56.6472 26.179 58.9344 28.8068 58.9344L28.8231 58.9182ZM58.2974 36.6462C59.2869 35.17 60.4224 33.5316 61.0875 31.8933C62.8881 34.6834 65.1753 38.609 65.1753 40.5717C65.1753 43.0212 63.2125 45.1624 60.7469 45.1624C58.1352 45.1624 56.1562 43.1996 56.1562 40.734C56.3184 39.7445 57.3079 38.1061 58.2812 36.6462H58.2974ZM58.4596 46.6386C59.9358 47.2874 61.7364 47.1252 63.2125 46.6386L62.8881 49.7531H58.9625L58.4759 46.6386H58.4596ZM45.0283 30.2549H50.1056V33.3694H47.9806C47.4939 33.3694 46.9911 33.8561 46.9911 34.3589C46.9911 34.8618 47.4777 35.3484 47.9806 35.3484H50.1056V39.4362H47.9806C47.4939 39.4362 46.9911 39.9229 46.9911 40.4258C46.9911 40.9286 47.4777 41.4153 47.9806 41.4153H50.1056V45.5031H47.9806C47.4939 45.5031 46.9911 45.9897 46.9911 46.4926C46.9911 46.9954 47.4777 47.4821 47.9806 47.4821H50.1056V49.6071H45.0283V30.2873V30.2549ZM38.4748 40.4095V49.5747H36.1876V40.4095H38.4748ZM35.2143 31.8933L38.0044 38.4467H32.4404L35.2305 31.8933H35.2143ZM31.9376 40.4095H34.2248V49.5747H31.9376V40.4095ZM28.8231 51.7159H67.4626C68.9387 51.7159 70.0742 52.8676 70.0742 54.3275C70.0742 55.7875 68.9225 56.9392 67.4626 56.9392H28.8231C27.3469 56.9392 26.1952 55.7875 26.1952 54.3275C26.1952 52.8676 27.3469 51.7159 28.8231 51.7159Z" fill="#A3D5D2"/>
</svg>
