<svg width="97" height="103" viewBox="0 0 97 103" fill="none" xmlns="http://www.w3.org/2000/svg">
<path d="M32.3389 72.659C30.0903 74.9076 29.5582 78.2032 30.7769 80.9667C31.1202 81.6533 31.9956 81.825 32.5105 81.31L35.2741 78.5294L37.0077 80.263L34.2442 83.0265C33.7292 83.5414 33.9009 84.4168 34.5875 84.7601C37.3681 85.9788 40.8182 85.4467 42.9123 83.1981C44.9892 81.1212 45.6758 78.1689 44.8176 75.577L49.3147 71.0799L53.8119 75.577C52.9536 78.1689 53.6402 81.2929 55.7172 83.1981C57.9657 85.4467 61.2613 85.9617 64.042 84.7601C64.7286 84.4168 64.9002 83.5414 64.3853 83.0265L61.6218 80.263L63.3554 78.5294L66.1189 81.31C66.2906 81.4817 66.8055 81.6533 67.166 81.6533C67.5264 81.6533 67.8526 81.31 68.0242 80.9667C69.2429 78.1861 68.7108 74.736 66.4622 72.659C64.3853 70.5821 61.433 69.8784 58.8411 70.7538L54.344 66.2566L58.8411 61.7595C61.433 62.6177 64.5569 61.9311 66.4622 59.8542C68.7108 57.6056 69.2257 54.31 68.0242 51.5294C67.6809 50.8428 66.8055 50.6711 66.2906 51.1861L63.3383 53.9496L61.6046 52.216L64.3681 49.4353C64.8831 48.9203 64.7114 48.0449 64.0248 47.7016C61.2442 46.483 57.7941 47.0151 55.7 49.2636C53.6231 51.3406 52.9365 54.2929 53.7947 56.8847L49.2976 61.3819L44.8004 56.8847C45.6587 54.2929 44.9721 51.1689 42.8952 49.2636C40.6466 47.0151 37.351 46.483 34.5703 47.7016C33.8837 48.0449 33.7121 48.9203 34.227 49.4353L36.9905 52.216L35.2569 53.9496L32.4934 51.1861C31.9784 50.6711 31.103 50.8428 30.7598 51.5294C29.5411 54.31 30.0732 57.7601 32.3217 59.8542C34.3987 61.9311 37.351 62.6177 39.9428 61.7595L44.44 66.2566L39.9428 70.7538C37.351 69.8955 34.3987 70.5821 32.3217 72.659H32.3389ZM57.6396 72.8307C57.9829 73.174 58.4978 73.174 58.8583 73.0023C60.9352 72.1441 63.1838 72.4874 64.7458 74.0494C65.9644 75.2681 66.4794 76.8301 66.3077 78.3749L64.0592 76.1263C63.7159 75.783 63.0121 75.783 62.4972 76.1263L59.2016 79.4219C58.8583 79.7652 58.8583 80.469 59.2016 80.9839L61.4501 83.2325C60.0598 83.4041 58.3262 82.8892 57.2963 81.6705C55.7343 80.1085 55.2194 77.6883 56.2493 75.783C56.4209 75.4397 56.4209 74.9248 56.0776 74.5643L50.8767 69.5351L52.6103 67.8015L57.6396 72.8307ZM41.007 59.6654C40.6638 59.3221 40.1488 59.3221 39.7884 59.4938C37.7114 60.352 35.4629 60.0087 33.9009 58.4467C32.6822 57.228 32.1673 55.666 32.3389 54.1212L34.5875 56.3698C34.9308 56.7131 35.6345 56.7131 36.1495 56.3698L39.4451 53.0742C39.7884 52.7309 39.7884 52.0271 39.4451 51.5122L37.1965 49.2636C38.7585 49.092 40.3205 49.6069 41.522 50.8256C43.084 52.3876 43.5989 54.8078 42.569 56.7131C42.3974 57.0564 42.3974 57.5713 42.7407 57.9318L47.7699 62.961L46.0363 64.6947L41.007 59.6654ZM41.007 72.8307C41.3503 72.4874 49.5035 64.3342 55.906 57.9318C56.2493 57.5885 56.2493 57.0735 56.0776 56.7131C55.2194 54.6362 55.5627 52.3876 57.1247 50.8256C58.3433 49.6069 59.9053 49.092 61.4501 49.2636L59.2016 51.5122C58.8583 51.8555 58.8583 52.5592 59.2016 53.0742L62.4972 56.3698C62.8405 56.7131 63.5442 56.7131 64.0592 56.3698L66.3077 54.1212C66.4794 55.6832 65.9644 57.2452 64.7458 58.4467C63.1838 60.0087 60.7636 60.5236 58.8583 59.4938C58.515 59.3221 58.0001 59.3221 57.6396 59.6654C56.0776 61.2274 44.4743 72.8307 42.7407 74.5643C42.3974 74.9076 42.3974 75.4226 42.569 75.783C43.4273 77.8599 43.084 80.1085 41.522 81.6705C40.3033 82.8892 38.7413 83.4041 37.1965 83.2325L39.4451 80.9839C39.7884 80.6406 39.7884 79.9369 39.4451 79.4219L36.1495 76.1263C35.8062 75.783 35.1024 75.783 34.5875 76.1263L32.3389 78.3749C32.1673 76.8129 32.6822 75.2509 33.9009 74.0494C35.4629 72.4874 37.8831 71.9725 39.7884 73.0023C40.3033 73.174 40.6466 73.174 41.007 72.8307Z" fill="#A3D5D2"/>
<path d="M27.67 22.0751C28.9058 22.0751 29.9185 23.0879 29.9185 24.3237C29.9185 25.5596 28.9058 26.5723 27.67 26.5723C26.4341 26.5723 25.4214 25.5596 25.4214 24.3237C25.4214 23.0879 26.4341 22.0751 27.67 22.0751Z" fill="#A3D5D2"/>
<path d="M21.2503 22.0751C22.4861 22.0751 23.4989 23.0879 23.4989 24.3237C23.4989 25.5596 22.4861 26.5723 21.2503 26.5723C20.0144 26.5723 19.0017 25.5596 19.0017 24.3237C19.0017 23.0879 20.0144 22.0751 21.2503 22.0751Z" fill="#A3D5D2"/>
<path d="M14.6763 22.0751C15.9122 22.0751 16.9249 23.0879 16.9249 24.3237C16.9249 25.5596 15.9122 26.5723 14.6763 26.5723C13.4404 26.5723 12.4277 25.5596 12.4277 24.3237C12.4277 23.0879 13.4404 22.0751 14.6763 22.0751Z" fill="#A3D5D2"/>
<path d="M17.972 13.4068C20.3922 13.4068 22.2975 11.5015 22.2975 9.08129C22.2975 6.66108 20.3922 4.7558 17.972 4.7558C15.5518 4.7558 13.6465 6.66108 13.6465 9.08129C13.6465 11.5015 15.5518 13.4068 17.972 13.4068ZM17.972 6.9872C19.1907 6.9872 20.2205 8.03425 20.2205 9.23577C20.2205 10.4373 19.1735 11.4843 17.972 11.4843C16.7705 11.4843 15.7234 10.4373 15.7234 9.23577C15.7234 7.84544 16.7705 6.9872 17.972 6.9872Z" fill="#A3D5D2"/>
<path d="M78.0828 12.3599C81.3784 12.3599 83.9703 9.76805 83.9703 6.47244C83.9703 3.17682 81.3784 0.584961 78.0828 0.584961C74.7872 0.584961 72.1953 3.17682 72.1953 6.47244C72.1953 9.76805 74.7872 12.3599 78.0828 12.3599ZM78.0828 2.66189C80.1597 2.66189 81.8933 4.39551 81.8933 6.47244C81.8933 8.54936 80.1597 10.283 78.0828 10.283C76.0059 10.283 74.2722 8.54936 74.2722 6.47244C74.2722 4.39551 76.0059 2.66189 78.0828 2.66189Z" fill="#A3D5D2"/>
<path d="M2.19772 15.6556C3.05596 15.6556 3.75971 16.3594 3.75971 17.2176C3.75971 18.0759 3.05596 18.7796 2.19772 18.7796C1.33949 18.7796 0.635742 18.0759 0.635742 17.2176C0.635742 16.3594 1.33949 15.6556 2.19772 15.6556Z" fill="#A3D5D2"/>
<path d="M32.5278 4.91058C33.386 4.91058 34.0898 5.61433 34.0898 6.47257C34.0898 7.3308 33.386 8.03455 32.5278 8.03455C31.6696 8.03455 30.9658 7.3308 30.9658 6.47257C30.9658 5.61433 31.6696 4.91058 32.5278 4.91058Z" fill="#A3D5D2"/>
<path d="M62.8403 6.98737C63.6985 6.98737 64.4023 7.69112 64.4023 8.54935C64.4023 9.40758 63.6985 10.1113 62.8403 10.1113C61.9821 10.1113 61.2783 9.40758 61.2783 8.54935C61.2783 7.69112 61.9821 6.98737 62.8403 6.98737Z" fill="#A3D5D2"/>
<path d="M43.4272 11.3301C44.2855 11.3301 44.9892 12.0338 44.9892 12.8921C44.9892 13.7503 44.2855 14.454 43.4272 14.454C42.569 14.454 41.8652 13.7503 41.8652 12.8921C41.8652 12.0338 42.569 11.3301 43.4272 11.3301Z" fill="#A3D5D2"/>
<path d="M95.4018 15.6556C96.2601 15.6556 96.9638 16.3594 96.9638 17.2176C96.9638 18.0759 96.2601 18.7796 95.4018 18.7796C94.5436 18.7796 93.8398 18.0759 93.8398 17.2176C93.8398 16.3594 94.5436 15.6556 95.4018 15.6556Z" fill="#A3D5D2"/>
<path d="M84.6738 16.7024H11.8957C8.08515 16.7024 4.96118 19.8264 4.96118 23.6369V95.368C4.96118 99.1785 8.08515 102.302 11.8957 102.302H84.6566C88.4672 102.302 91.5912 99.1785 91.5912 95.368V23.6369C91.5912 19.8264 88.4672 16.7024 84.6566 16.7024H84.6738ZM41.6935 25.3534H89.3426V29.6789H41.6935V25.3534ZM89.3426 23.2765H41.6935V18.951H84.6566C87.0769 18.951 89.1538 20.8562 89.3426 23.2765ZM11.8957 18.951H39.6166V29.696H7.0381V23.6369C7.0381 21.045 9.28667 18.951 11.8957 18.951ZM84.6738 100.037H11.8957C9.30384 100.037 7.0381 97.9598 7.0381 95.1792V31.9446H89.3254V95.3508C89.3254 97.9427 87.2485 100.02 84.6395 100.02L84.6738 100.037Z" fill="#A3D5D2"/>
<path d="M81.893 38.3471H14.6762C14.1613 38.3471 13.6292 38.862 13.6292 39.3942V92.4158C13.6292 92.9307 14.1441 93.4628 14.6762 93.4628H81.893C82.4079 93.4628 82.94 92.9479 82.94 92.4158V39.3942C82.94 38.8792 82.4251 38.3471 81.893 38.3471ZM80.6743 91.3687H15.7061V40.6128H80.6743V91.3687Z" fill="#A3D5D2"/>
</svg>
