<svg width="103" height="100" viewBox="0 0 103 100" fill="none" xmlns="http://www.w3.org/2000/svg">
<path d="M52.7331 11.3532C31.4971 11.3532 14.3755 28.6778 14.3755 49.7108C14.3755 70.7439 31.7001 88.0684 52.7331 88.0684C73.7661 88.0684 91.0907 70.7439 91.0907 49.7108C91.0907 28.6778 73.9506 11.3532 52.7331 11.3532ZM52.7331 85.836C32.8071 85.836 16.6079 69.6369 16.6079 49.7108C16.6079 29.7848 32.8071 13.5857 52.7331 13.5857C72.6591 13.5857 88.8583 29.7848 88.8583 49.7108C88.8583 69.6369 72.6591 85.836 52.7331 85.836Z" fill="#A3D5D2"/>
<path d="M52.7335 2.03632C26.4791 2.03632 5.05859 23.4568 5.05859 49.7112C5.05859 75.9656 26.4791 97.3861 52.7335 97.3861C78.9879 97.3861 100.408 75.9656 100.408 49.7112C100.593 23.4568 79.1724 2.03632 52.7335 2.03632ZM52.7335 95.1536C27.7706 95.1536 7.29105 74.8586 7.29105 49.7112C7.29105 24.5638 27.5861 4.26877 52.7335 4.26877C77.8809 4.26877 98.1759 24.5638 98.1759 49.7112C98.1759 74.8586 77.8809 95.1536 52.7335 95.1536Z" fill="#A3D5D2"/>
<path d="M97.0502 13.586C100.224 13.586 102.825 10.9846 102.825 7.81118C102.825 4.63777 100.224 2.03632 97.0502 2.03632C93.8768 2.03632 91.2754 4.63777 91.2754 7.81118C91.2754 10.9846 93.8768 13.586 97.0502 13.586ZM97.0502 4.26877C98.9137 4.26877 100.593 5.76322 100.593 7.81118C100.593 9.85913 99.0982 11.3536 97.0502 11.3536C95.0023 11.3536 93.5078 9.67463 93.5078 7.81118C93.5078 5.94772 95.0023 4.26877 97.0502 4.26877Z" fill="#A3D5D2"/>
<path d="M8.60068 85.8364C4.68927 85.8364 1.51587 89.0098 1.51587 92.9212C1.51587 96.8326 4.68927 99.9875 8.60068 99.9875C12.5121 99.9875 15.667 96.8141 15.667 92.9212C15.667 89.0282 12.3091 85.8364 8.60068 85.8364ZM8.60068 97.3861C5.99923 97.3861 3.95127 95.3381 3.95127 92.7367C3.95127 90.1352 5.99923 88.0873 8.60068 88.0873C11.2021 88.0873 13.2501 90.1352 13.2501 92.7367C13.2501 95.3381 11.2021 97.3861 8.60068 97.3861Z" fill="#A3D5D2"/>
<path d="M101.146 78.9544C102.068 78.9544 102.825 79.7109 102.825 80.6334C102.825 81.5559 102.068 82.3123 101.146 82.3123C100.223 82.3123 99.467 81.5559 99.467 80.6334C99.467 79.7109 100.223 78.9544 101.146 78.9544Z" fill="#A3D5D2"/>
<path d="M85.8699 5.39422C86.7971 5.39422 87.5488 4.64253 87.5488 3.71527C87.5488 2.78801 86.7971 2.03632 85.8699 2.03632C84.9426 2.03632 84.1909 2.78801 84.1909 3.71527C84.1909 4.64253 84.9426 5.39422 85.8699 5.39422Z" fill="#A3D5D2"/>
<path d="M16.0361 0.910645C16.9586 0.910645 17.7151 1.6671 17.7151 2.5896C17.7151 3.5121 16.9586 4.26855 16.0361 4.26855C15.1136 4.26855 14.3572 3.5121 14.3572 2.5896C14.3572 1.6671 15.1136 0.910645 16.0361 0.910645Z" fill="#A3D5D2"/>
<path d="M2.06958 23.0878C2.99208 23.0878 3.74853 23.8442 3.74853 24.7667C3.74853 25.6892 2.99208 26.4457 2.06958 26.4457C1.14708 26.4457 0.390625 25.6892 0.390625 24.7667C0.390625 23.8442 1.14708 23.0878 2.06958 23.0878Z" fill="#A3D5D2"/>
<path d="M25.3535 96.2603C26.276 96.2603 27.0325 97.0168 27.0325 97.9393C27.0325 98.8618 26.276 99.6182 25.3535 99.6182C24.431 99.6182 23.6746 98.8618 23.6746 97.9393C23.6746 97.0168 24.431 96.2603 25.3535 96.2603Z" fill="#A3D5D2"/>
<path d="M3.37964 69.6371C4.30214 69.6371 5.05859 70.3936 5.05859 71.3161C5.05859 72.2386 4.30214 72.9951 3.37964 72.9951C2.45713 72.9951 1.70068 72.2386 1.70068 71.3161C1.70068 70.3936 2.45713 69.6371 3.37964 69.6371Z" fill="#A3D5D2"/>
<path d="M83.6372 98.5115C84.5645 98.5115 85.3162 97.7598 85.3162 96.8326C85.3162 95.9053 84.5645 95.1536 83.6372 95.1536C82.7099 95.1536 81.9583 95.9053 81.9583 96.8326C81.9583 97.7598 82.7099 98.5115 83.6372 98.5115Z" fill="#A3D5D2"/>
<path d="M68.1945 43.3826C68.379 42.4601 68.379 41.5191 68.379 40.7811C68.379 32.2203 61.4787 25.32 52.9179 25.32C43.4161 25.32 35.9623 33.8808 37.6412 43.3826C32.2354 45.7995 28.324 51.2054 28.324 57.5338C28.324 66.0946 35.2058 72.9949 43.7851 72.9949C47.143 72.9949 50.298 71.8694 52.9179 70.006C55.5193 71.8694 58.6927 72.9949 62.0506 72.9949C70.6114 72.9949 77.5118 66.0946 77.5118 57.5338C77.5118 51.2054 73.6004 45.7995 68.1945 43.3826ZM52.9179 27.5525C60.1872 27.5525 65.962 33.5118 65.962 40.5782C65.962 41.3162 65.962 41.8881 65.7775 42.4416C61.4971 41.3162 56.6448 42.0726 52.7334 44.8586C48.822 42.0726 44.1726 41.3162 39.6892 42.4416C38.7667 34.6188 44.9105 27.5525 52.9179 27.5525ZM52.9179 67.0355C49.929 64.0466 48.453 59.9507 49.0065 55.6703C51.6079 56.4083 54.2278 56.4083 56.8293 55.6703C57.5673 59.7662 56.0913 64.0466 52.9179 67.0355ZM49.56 53.4379C50.298 51.3899 51.4234 49.7109 52.9179 48.2165C54.4123 49.7109 55.5193 51.3899 56.2758 53.4379C54.2278 53.9914 51.8109 53.9914 49.5784 53.4379H49.56ZM47.512 52.4969C44.3386 51.0025 41.7371 48.2165 40.6117 44.8586C44.1541 43.9361 48.0655 44.4896 51.2205 46.5375C49.5415 48.2165 48.2316 50.2644 47.4936 52.4969H47.512ZM54.7813 46.5375C57.9547 44.4896 61.8661 43.9361 65.3901 44.8586C64.2646 48.2165 61.6632 51.0025 58.5082 52.4969C57.7702 50.2644 56.4603 48.2165 54.7813 46.5375ZM43.9696 70.5595C36.7003 70.5595 30.9254 64.6001 30.9254 57.5153C30.9254 52.294 34.0988 47.6445 38.5637 45.5966C40.0582 49.6925 43.0286 53.0504 47.1246 54.7294C46.2021 59.7478 47.8626 64.7846 51.405 68.327C48.988 69.8215 46.5711 70.5595 43.9512 70.5595H43.9696ZM62.0322 70.5595C59.4307 70.5595 56.8108 69.8215 54.7629 68.327C58.3053 64.7846 59.9842 59.7662 59.0433 54.7294C62.9547 53.0504 66.1096 49.6925 67.6041 45.5966C72.069 47.6445 75.2424 52.294 75.2424 57.5153C75.0579 64.7846 69.283 70.5595 62.0137 70.5595H62.0322Z" fill="#A3D5D2"/>
</svg>
